/* XPM */
static char *d78675eb7e6949fbff5c59bbf342c025r3HwfKjtU55YNWTS[] = {
/* columns rows colors chars-per-pixel */
"64 64 45 1 ",
"  c black",
". c #000B0B",
"X c #000E0F",
"o c #001313",
"O c #001717",
"+ c #001718",
"@ c #001818",
"# c #001B1C",
"$ c #001F1F",
"% c #002323",
"& c #002525",
"* c #002828",
"= c #002E2E",
"- c #1F2223",
"; c #003333",
": c #003435",
"> c #003838",
", c #003E3F",
"< c #363B3C",
"1 c #004243",
"2 c #004344",
"3 c #004546",
"4 c #004949",
"5 c #004C4D",
"6 c #005354",
"7 c #005657",
"8 c #005758",
"9 c #005B5B",
"0 c #005B5C",
"q c #005C5D",
"w c #005E60",
"e c #006263",
"r c #006365",
"t c #006566",
"y c #006769",
"u c #006869",
"i c #596162",
"p c #768082",
"a c #838E90",
"s c #8F9B9D",
"d c #9BA7AA",
"f c #B1BFC1",
"g c #BBCACC",
"h c #C5D5D7",
"j c #D8E9EC",
/* pixels */
"00ww99ww0000999999779999wwww771100ww99ww0000999999779999wwww7711",
"00ww99ww0000999999779999wwww771100ww99ww0000999999779999wqww7711",
"ee00yywwwwwwww77777777wweeyyee11ee00yywwwwwwww77777777wweeyyee11",
"ee00yywwwwwwww77777777wweeyyee11ee00yywwwwwwww77777777wweeyyee11",
"00wwqq000000wwww77000000eeee771100wwqq000000wwww77000000eeee7711",
"00wwqq000000wwww77000000eeee771100wwqq000000wwww77000000eeee7711",
"4444444444444444444444444444444444444444444444444444444444444444",
"4444444444444444444444444444444444444444444444444444444444444444",
"009999779911000000000000wwqqwwww009999779911000000000000wwqqwwww",
"009999779911000000000000wwqqwwww009999779911000000000000wwqqwwww",
"wwrr9977ee1177wwwwwwwwwwwwttyyuuwwrr9977ee1177wwwwwwwwwwwwttyyuu",
"wwrr9977ee1177wwwwwwwwwwwwttyyuuwwrr9977ee1177wwwwwwwwwwwwttyyuu",
"990000990011wwwwww000000ee009988990000990011wwwwww000000ee009988",
"990000990011wwwwww000000ee009988990000990011wwwwww000000ee009988",
"444444444444444444444444444444444,o                     o>444444",
"444444444444444444444444444444443.                        >44444",
"uu99000000ww000000wwqqwwww0099115 ijjjjjjjjjjjjjjjjjjjjja ;09911",
"uu99000000ww000000wwqqwwww0099115 ijjjjjjjjjjjjjjjjjjjjja ;09911",
"rrrrwwwwwwwwww00wwwwtt00uuwwr6*%: ijjjjjjjjjjjjjjjjjjjjja ;;:511",
"rrrrwwwwwwwwww00wwwwtt00uuww6     ijjjjjjjjjjjjjjjjjjjjja     ;1",
"99uu000000ee000000ee00998899= paaadjjjjaaaaaaaaaaaaahjjjfaaaa o1",
"99uu000000ee000000ee00998899@ fjjjjjjjj             fjjjjjjjj  1",
"4444444444444444444444444444o fjjjjjjjj  &&&&&&&&&o fjjjjjjjj  4",
"4444444444444444444444444444o fjjjjjjjj  44444@     fjjjjjjjj  4",
"99ww00999911779999779999wwww@ fjjjjjjjj  91175 -iiiigjjjjjjjj  9",
"99ww00999911779999779999wwww@ fjjjjjjjj  9117, ijjjjjjjjjjjjj  9",
"wwwwwwrrww1199tt77777777yyuu@ fjjjjjjjj  w1191 ijjjjjjjjjjjjj  r",
"wwwwwwrrww1199tt77777777yyuu@ fjjjjjjjj  w>%@@ ijjjjjjjjjjjjj  r",
"00ww9900001177wwqq9977009988+ fjjjjjjjj  5     ijjjjjjjjjjjjj  0",
"00ww9900001177wwqq9977009988+ fjjjjjjjj  : pfffgjjjjjjjjjjjjj  0",
"4444444444444444444444444444o fjjjjjjjj  & ajjjjjjjjjjjjjjjjj  4",
"4444444444444444444444444444o fjjjjjjjj  & ajjjjjjjjjjjjjjjjj  4",
"00ww99ww0000999999779999wwwwO fjjjjjjjj    ajjjjjjjjjjjjjjjjj  1",
"00ww99ww0000999999779999wwwwO fjjjjjjjjaaaafjjjhaaaahjjjjjjjj  1",
"ee00yywwwwwwww77777777wweeyy@ fjjjjjjjjjjjjjjjjf    fjjjjjjjj  1",
"ee00yywwwwwwww77777777wweeyy@ fjjjjjjjjjjjjjjjjf OO fjjjjjjjj  1",
"00wwqq000000wwww77000000eeeeO fjjjjjjjjjjjjjjjjf O@ fjjjjjjjj  1",
"00wwqq000000wwww77000000eeeeO fjjjjjjjjjjjjjjjjf O@ fjjjjjjjj  1",
"4444444444444444444444444444o fjjjjjjjjjjjja     &o fjjjjjjjj  4",
"4444444444444444444444444444o fjjjjjjjjjjjja   o&4o fjjjjjjjj  4",
"009999779911000000000000wwqq@ fjjjjjjjjjjjja ;0000@ fjjjjjjjj  w",
"009999779911000000000000wwqq@ fjjjjjjjjjjjja ;0000@ fjjjjjjjj  w",
"wwrr9977ee1177wwwwwwwwwwwwtt# fjjjjjjjjiiii< 1wwww@ fjjjjjjjj  u",
"wwrr9977ee1177wwwwwwwwwwwwtt# fjjjjjjjj     @7wwww@ fjjjjjjjj  u",
"990000990011wwwwww000000ee00+ fjjjjjjjj  1;;333333@ fjjjjjjjj  8",
"990000990011wwwwww000000ee00+ fjjjjjjjj             fjjjjjjjj  8",
"4444444444444444444444444444% sfffgjjjjiiiiiiiiiiiiigjjjhffff o4",
"4444444444444444444444444444;     ijjjjjjjjjjjjjjjjjjjjja     &4",
"yu99000000ww000000wwqqwwww009,$o# ijjjjjjjjjjjjjjjjjjjjja @@+=11",
"uu99000000ww000000wwqqwwww0099115 ijjjjjjjjjjjjjjjjjjjjja ;09911",
"rrrrwwwwwwwwww00wwwwtt00uuwwrr114 ijjjjjjjjjjjjjjjjjjjjja ;wrr11",
"rrrrwwwwwwwwww00wwwwtt00uuwwrr11eX                        4wrr11",
"99uu000000ee000000ee00998899001194@                     O2990011",
"99uu000000ee000000ee00998899001199uu000000ee000000ee009988990011",
"4444444444444444444444444444444444444444444444444444444444444444",
"4444444444444444444444444444444444444444444444444444444444444444",
"99ww00999911779999779999wwww009999ww00999911779999779999wwww0099",
"99ww00999911779999779999wwww009999ww00999911779999779999wwww0099",
"wwwwwwrrww1199tt77777777yyyywwrrwwwwwwrrww1199tt77777777yyyywwrr",
"wwwwwwrrww1199tt77777777yyuuwwrrwwwwwwrrww1199tt77777777yyuuwwrr",
"00ww9900001177wwqq9977009988990000ww9900001177wwqq99770099889900",
"00ww9900001177wwqq9977009988990000ww9900001177wwqq99770099889900",
"4444444444444444444444444444444444444444444444444444444444444444",
"4444444444444444444444444444444444444444444444444444444444444444"
};
