/* XPM */
static char *f7e1a657bde64543a5db04b4ba2c360axK0VDNmNneKHKZ9a[] = {
/* columns rows colors chars-per-pixel */
"64 64 38 1 ",
"  c black",
". c #000B0B",
"X c #001313",
"o c #001516",
"O c #001718",
"+ c #001A1B",
"@ c #001B1C",
"# c #002525",
"$ c #002E2E",
"% c #002F30",
"& c #003233",
"* c #003535",
"= c #00393A",
"- c #003F3F",
"; c #004243",
": c #004546",
"> c #004949",
", c #005354",
"< c #005657",
"1 c #005758",
"2 c #005B5B",
"3 c #005B5C",
"4 c #005C5D",
"5 c #005E60",
"6 c #006263",
"7 c #006365",
"8 c #006566",
"9 c #006769",
"0 c #006869",
"q c #494F51",
"w c #596162",
"e c #768082",
"r c #838E90",
"t c #8F9B9D",
"y c #9BA7AA",
"u c #B1BFC1",
"i c #BBCACC",
"p c #D8E9EC",
/* pixels */
"335522553333222222<<22225555<<;;335522553333222222<<22225555<<;;",
"335522553333222222<<22225555<<;;335522553333222222<<22225455<<;;",
"66339955555555<<<<<<<<55669966;;66339955555555<<<<<<<<55669966;;",
"66339955555555<<<<<<<<55669966;;66339955555555<<<<<<<<55669966;;",
"3355443333335555<<3333336666<<;;3355443333335555<<3333336666<<;;",
"3355443333335555<<3333336666<<;;3355443333335555<<3333336666<<;;",
">>>>>>>>>>>>>>>>>>>>>>>>>>>>>>>>>>>>>>>>>>>>>>>>>>>>>>>>>>>>>>>>",
">>>>>>>>>>>>>>>>>>>>>>>>>>>>>>>>>>>>>>>>>>>>>>>>>>>>>>>>>>>>>>>>",
"332222<<22;;33333333333355445555332222<<22;;33333333333355445555",
"332222<<22;;33333333333355445555332222<<22;;33333333333355445555",
"557722<<66;;<<555555555555889900557722<<66;;<<555555555555889900",
"557722<<66;;<<555555555555889900557722<<66;;<<555555555555889900",
"2233332233;;555555333333663322112233332233;;55555533333366332211",
"2233332233;;555555333333663322112233332233;;55555533333366332211",
">>>>>>>>>>>>>>>>>>>>>>>>>>>>>>>>>>>>>>>-X        X=>>>>>>>>>>>>>",
">>>>>>>>>>>>>>>>>>>>>>>>>>>>>>>>>>>>>>:.           =>>>>>>>>>>>>",
"002233333355333333554455553322;;002233; wppppppppr &4455553322;;",
"002233333355333333554455553322;;002233; wppppppppr &4455553322;;",
"777755555555553355558833005577;;777,=&& wppppppppr &8833005577;;",
"777755555555553355558833005577;;77,     wppppppppr &8833005577;;",
"220033333366333333663322112233;;22* errryppppppppr &3322112233;;",
"220033333366333333663322112233;;22@ uppppppppppppr &3322112233;;",
">>>>>>>>>>>>>>>>>>>>>>>>>>>>>>>>>>X uppppppppppppr #>>>>>>>>>>>>",
">>>>>>>>>>>>>>>>>>>>>>>>>>>>>>>>>>X uppppppppppppr #>>>>>>>>>>>>",
"2255332222;;<<2222<<22225555332222$ tuuuippppppppr $222255553322",
"2255332222;;<<2222<<22225555332222;     wppppppppr $222255553322",
"5555557755;;2288<<<<<<<<99005577555;$++ wppppppppr $<<<<99005577",
"5555557755;;2288<<<<<<<<99005577555555> wppppppppr $<<<<99005577",
"3355223333;;<<554422<<3322112233335522; wppppppppr %<<3322112233",
"3355223333;;<<554422<<3322112233335522; wppppppppr %<<3322112233",
">>>>>>>>>>>>>>>>>>>>>>>>>>>>>>>>>>>>>>* wppppppppr #>>>>>>>>>>>>",
">>>>>>>>>>>>>>>>>>>>>>>>>>>>>>>>>>>>>>* wppppppppr #>>>>>>>>>>>>",
"335522553333222222<<22225555<<;;335522: wppppppppr $22225555<<;;",
"335522553333222222<<22225555<<;;335522: wppppppppr $22225555<<;;",
"66339955555555<<<<<<<<55669966;;663399: wppppppppr $<<55669966;;",
"66339955555555<<<<<<<<55669966;;663399: wppppppppr $<<55669966;;",
"3355443333335555<<3333336666<<;;335544; wppppppppr &33336666<<;;",
"3355443333335555<<3333336666<<;;335544; wppppppppr &33336666<<;;",
">>>>>>>>>>>>>>>>>>>>>>>>>>>>>>>>>>>>>>* wppppppppr #>>>>>>>>>>>>",
">>>>>>>>>>>>>>>>>>>>>>>>>>>>>>>>>>>>>>* wppppppppr #>>>>>>>>>>>>",
"332222<<22;;33333333333355445555332222- wppppppppr &333355445555",
"332222<<22;;33333333333355445555332222- wppppppppr &333355445555",
"557722<<66;;<<555555555555889900557722- wppppppppr &555555889900",
"557722<<66;;<<555555555555889900557722- wppppppppr &555555889900",
"2233332233;;555555333333663322112233>;; wppppppppr &;>3366332211",
"2233332233;;55555533333366332211223X    wppppppppr    X366332211",
">>>>>>>>>>>>>>>>>>>>>>>>>>>>>>>>>># qwwwrppppppppywwwq #>>>>>>>>",
">>>>>>>>>>>>>>>>>>>>>>>>>>>>>>>>>>X uppppppppppppppppu X>>>>>>>>",
"902233333355333333554455553322;;90O uppppppppppppppppu +553322;;",
"002233333355333333554455553322;;00O uppppppppppppppppu +553322;;",
"777755555555553355558833005577;;77+ uppppppppppppppppu +005577;;",
"777755555555553355558833005577;;77&                    $005577;;",
"220033333366333333663322112233;;220*o                o$2112233;;",
"220033333366333333663322112233;;220033333366333333663322112233;;",
">>>>>>>>>>>>>>>>>>>>>>>>>>>>>>>>>>>>>>>>>>>>>>>>>>>>>>>>>>>>>>>>",
">>>>>>>>>>>>>>>>>>>>>>>>>>>>>>>>>>>>>>>>>>>>>>>>>>>>>>>>>>>>>>>>",
"2255332222;;<<2222<<2222555533222255332222;;<<2222<<222255553322",
"2255332222;;<<2222<<2222555533222255332222;;<<2222<<222255553322",
"5555557755;;2288<<<<<<<<999955775555557755;;2288<<<<<<<<99995577",
"5555557755;;2288<<<<<<<<990055775555557755;;2288<<<<<<<<99005577",
"3355223333;;<<554422<<33221122333355223333;;<<554422<<3322112233",
"3355223333;;<<554422<<33221122333355223333;;<<554422<<3322112233",
">>>>>>>>>>>>>>>>>>>>>>>>>>>>>>>>>>>>>>>>>>>>>>>>>>>>>>>>>>>>>>>>",
">>>>>>>>>>>>>>>>>>>>>>>>>>>>>>>>>>>>>>>>>>>>>>>>>>>>>>>>>>>>>>>>"
};
