/* XPM */
static char *result[] = {
/* columns rows colors chars-per-pixel */
"64 64 82 1 ",
"  c black",
". c #000101",
"X c #000B0B",
"o c #000E0E",
"O c #001010",
"+ c #001111",
"@ c #001212",
"# c #001313",
"$ c #001515",
"% c #001516",
"& c #001717",
"* c #001718",
"= c #001818",
"- c #001819",
"; c #001919",
": c #001A1A",
"> c #001A1B",
", c #001B1C",
"< c #002323",
"1 c #002727",
"2 c #002828",
"3 c #002A2B",
"4 c #002B2C",
"5 c #002C2C",
"6 c #002D2D",
"7 c #002E2E",
"8 c #002E2F",
"9 c #003030",
"0 c #003031",
"q c #003131",
"w c #003233",
"e c #003333",
"r c #003435",
"t c #003535",
"y c #003737",
"u c #003838",
"i c #003C3C",
"p c #003D3D",
"a c #004041",
"s c #004243",
"d c #004343",
"f c #004546",
"g c #004647",
"h c #004747",
"j c #004849",
"k c #004949",
"l c #00494A",
"z c #004C4D",
"x c #004C4E",
"c c #005354",
"v c #005455",
"b c #005657",
"n c #005758",
"m c #00595A",
"M c #005A5B",
"N c #005B5B",
"B c #005B5C",
"V c #005C5D",
"C c #005D5E",
"Z c #005E60",
"A c #005F60",
"S c #005F61",
"D c #006061",
"F c #006162",
"G c #006263",
"H c #006365",
"J c #006465",
"K c #006466",
"L c #006566",
"P c #006769",
"I c #006869",
"U c #494F51",
"Y c #596162",
"T c #768082",
"R c #838E90",
"E c #8F9B9D",
"W c #9BA7AA",
"Q c #B1BFC1",
"! c #BBCACC",
"~ c #C5D5D7",
"^ c #CFDFE2",
"/ c #D8E9EC",
/* pixels */
"BBZZNNAABBBBmmmmmmbbmmmmAAAAbbddBBZZNNAABBBBmmmmmmbbmmmmAAAAbbdd",
"BBZZNNAABBBBmmmmmmbbmmmmAAAAbbddBBZZNNAABBBBmmmmmmbbmmmmAAAAbbdd",
"GGBBPPAAAAAAAAbbbbbbbbAADDPPGGddGGBBPPAAAAAAAAbbbbbbbbAADDPPGGdd",
"GGBBPPAAAAAAAAbbbbbbbbAADDPPGGddGGBBPPAAAAAAAAbbbbbbbbAADDPPGGdd",
"BBAAVVBBBBBBAAAAbbBBBBBBDDFFbbddBBAAVVBBBBBBAAAAbbBBBBBBDDFFbbdd",
"BBAAVVBBBBBBAAAAbbBBBBBBDDFFbbddBBAAVVBBBBBBAAAAbbBBBBBBDDFFbbdd",
"kkkkkkkkkkkkkkkkkkkkkkkkkkkkkkkkkkkkkkkkkkkkkkkkkkkkkkkkkkkkkkkk",
"kkkkkkkkkkkkkkkkkkkkkkkkkkkkkkkkkkkkkkkkkkkkkkkkkkkkkkkkkkkkkkkk",
"BBmmmmbbmmddBBBBBBBBBBBBAACCSSSSBBmmmmbbmmddBBBBBBBBBBBBAACCSSSS",
"BBmmmmbbmmddBBBBBBBBBBBBAACCSSSSBBmmmmbbmmddBBBBBBBBBBBBAACCSSSS",
"AAHHmmbbGGddbbAAAAAAAAAAAALLPPIIAAHHmmbbGGddbbAAAAAAAAAAAALLPPII",
"AAHHmmbbGGddbbAAAAAAAAAAAALLPPIIAAHHmmbbGGddbbAAAAAAAAAAAALLPPII",
"mmBBBBmmBBddAAAAAABBBBBBDDBBmmnnmmBBBBmmBBddAAAAAABBBBBBDDBBmmnn",
"mmBBBBmmBBddAAAAAABBBBBBDDBBmmnnmmBBBBmmBBddAAAAAABBBBBBDDBBmmnn",
"kkkkkkkkkkkkkkkkkkkkkkkkkkkkkkkkki+                     +ukkkkkk",
"kkkkkkkkkkkkkkkkkkkkkkkkkkkkkkkkhX                        ukkkkk",
"IImmBBBBBBAABBBBBBAACCSSSSBBmmddz Y/////////////////////R 0Bmmdd",
"IImmBBBBBBAABBBBBBAACCSSSSBBmmddz Y/////////////////////R 0Bmmdd",
"HHHHAAAAAAAAAABBAAAALLBBIIAAHc2<r Y/////////////////////R wwrxdd",
"HHHHAAAAAAAAAABBAAAALLBBIIAAc.    Y/////////////////////R     ed",
"mmIIBBBBBBDDBBBBBBDDBBmmnnmm7 TRRRW////RRRRRRRRRRRRR~///QRRRR Od",
"mmIIBBBBBBDDBBBBBBDDBBmmnnmm= Q////////             Q////////  d",
"kkkkkkkkkkkkkkkkkkkkkkkkkkkk# Q////////  111111111# Q////////  k",
"kkkkkkkkkkkkkkkkkkkkkkkkkkkk# Q////////  kkkkkkkkk# Q////////  k",
"mmAABBmmmmddvvmmmmbbmmmmSSSS3 EQQQQQQQQ $mddvvmmmm& Q////////  m",
"mmAABBmmmmddvvmmmmbbmmmmSSSSa           6mddvvmmmm& Q////////  m",
"AAAAAAHHAAddMMJJbbbbbbbbPPIIAd8>;;;;;;>wAAddMMJJbb& Q////////  H",
"AAAAAAHHAAddMMJJbbbbbbbbPPIIAAHHAA9;;;>>;;@@==>>&&& Q////////  H",
"BBAAmmBBBBddbbSSCCmmbbBBmmnnmmBBB#                  Q////////  B",
"BBAAmmBBBBddbbSSCCmmbbBBmmnnmmBBl UQQQQQQQQQQQQQQQQQ^///WYYYY %B",
"kkkkkkkkkkkkkkkkkkkkkkkkkkkkkkkkt Y/////////////////////R    Xik",
"kkkkkkkkkkkkkkkkkkkkkkkkkkkkkp511 Y/////////////////////R 1tthkk",
"BBZZNNAABBBBmmmmmmbbmmmmAAAAj.    Y/////////////////////R wAbbdd",
"BBZZNNAABBBBmmmmmmbbmmmmAAAA4 TRRRW////RRRRRRRRRRRRRRRRRY fAbbdd",
"GGBBPPAAAAAAAAbbbbbbbbAADDPP: Q////////                  oKPGGdd",
"GGBBPPAAAAAAAAbbbbbbbbAADDPP: Q////////  wwwww77777777wwgCPPGGdd",
"BBAAVVBBBBBBAAAAbbBBBBBBDDFF& Q////////  BBBAAAAbbBBBBBBDDFFbbdd",
"BBAAVVBBBBBBAAAAbbBBBBBBDDFF& Q////////  BBBAAAAbbBBBBBBDDFFbbdd",
"kkkkkkkkkkkkkkkkkkkkkkkkkkkk# Q////////  kkkkkkkkkkkkkkkkkkkkkkk",
"kkkkkkkkkkkkkkkkkkkkkkkkkkkk# Q////////  kkkkkkkkkkkkkkkkkkkkkkk",
"BBmmmmbbmmddBBBBBBBBBBBBAACC; Q////////  mddBBBBBBBa3===;;--;0SS",
"BBmmmmbbmmddBBBBBBBBBBBBAACC; Q////////  mddBBBBBBa           0S",
"AAHHmmbbGGddbbAAAAAAAAAAAALL, Q////////  GddbbAAAA5 EQQQQQQQQ -I",
"AAHHmmbbGGddbbAAAAAAAAAAAALL, Q////////  GddbbAAAA; Q////////  I",
"mmBBBBmmBBddAAAAAABBBBBBDDBB* Q////////  sqqffffff= Q////////  n",
"mmBBBBmmBBddAAAAAABBBBBBDDBB* Q////////             Q////////  n",
"kkkkkkkkkkkkkkkkkkkkkkkkkkkk# Q////////YYYYYYYYYYYYY!////////  k",
"kkkkkkkkkkkkkkkkkkkkkkkkkkkk# Q//////////////////////////////  k",
"IImmBBBBBBAABBBBBBAACCSSSSBB* Q//////////////////////////////  d",
"IImmBBBBBBAABBBBBBAACCSSSSBB* Q//////////////////////////////  d",
"HHHHAAAAAAAAAABBAAAALLBBIIAA> Q//////////////////////////////  d",
"HHHHAAAAAAAAAABBAAAALLBBIIAAw                                 Od",
"mmIIBBBBBBDDBBBBBBDDBBmmnnmmB7O                              %yd",
"mmIIBBBBBBDDBBBBBBDDBBmmnnmmBBddmmIIBBBBBBDDBBBBBBDDBBmmnnmmBBdd",
"kkkkkkkkkkkkkkkkkkkkkkkkkkkkkkkkkkkkkkkkkkkkkkkkkkkkkkkkkkkkkkkk",
"kkkkkkkkkkkkkkkkkkkkkkkkkkkkkkkkkkkkkkkkkkkkkkkkkkkkkkkkkkkkkkkk",
"mmAABBmmmmddvvmmmmbbmmmmSSSSBBmmmmAABBmmmmddvvmmmmbbmmmmSSSSBBmm",
"mmAABBmmmmddvvmmmmbbmmmmSSSSBBmmmmAABBmmmmddvvmmmmbbmmmmSSSSBBmm",
"AAAAAAHHAAddMMJJbbbbbbbbPPIIAAHHAAAAAAHHAAddMMJJbbbbbbbbPPIIAAHH",
"AAAAAAHHAAddMMJJbbbbbbbbPPIIAAHHAAAAAAHHAAddMMJJbbbbbbbbPPIIAAHH",
"BBAAmmBBBBddbbSSCCmmbbBBmmnnmmBBBBAAmmBBBBddbbSSCCmmbbBBmmnnmmBB",
"BBAAmmBBBBddbbSSCCmmbbBBmmnnmmBBBBAAmmBBBBddbbSSCCmmbbBBmmnnmmBB",
"kkkkkkkkkkkkkkkkkkkkkkkkkkkkkkkkkkkkkkkkkkkkkkkkkkkkkkkkkkkkkkkk",
"kkkkkkkkkkkkkkkkkkkkkkkkkkkkkkkkkkkkkkkkkkkkkkkkkkkkkkkkkkkkkkkk"
};
