/* XPM */
static char *result[] = {
/* columns rows colors chars-per-pixel */
"64 64 80 1 ",
"  c black",
". c #000101",
"X c #000E0F",
"o c #001010",
"O c #001111",
"+ c #001212",
"@ c #001313",
"# c #001414",
"$ c #001415",
"% c #001515",
"& c #001717",
"* c #001718",
"= c #001818",
"- c #001819",
"; c #001919",
": c #001A1B",
"> c #001B1C",
", c #001F1F",
"< c #002222",
"1 c #002525",
"2 c #002727",
"3 c #002B2C",
"4 c #002C2C",
"5 c #002C2D",
"6 c #002D2D",
"7 c #002E2E",
"8 c #002F30",
"9 c #003031",
"0 c #003131",
"q c #003233",
"w c #003333",
"e c #003435",
"r c #003838",
"t c #00393A",
"y c #003C3C",
"u c #003D3D",
"i c #003E3F",
"p c #363B3C",
"a c #004243",
"s c #004343",
"d c #004344",
"f c #004445",
"g c #004546",
"h c #004949",
"j c #00484A",
"k c #00494A",
"l c #004A4A",
"z c #004C4D",
"x c #004F51",
"c c #005455",
"v c #005657",
"b c #005658",
"n c #005758",
"m c #00595A",
"M c #005A5B",
"N c #005B5B",
"B c #005B5C",
"V c #005C5D",
"C c #005D5E",
"Z c #005E60",
"A c #005F60",
"S c #005F61",
"D c #006061",
"F c #006062",
"G c #006162",
"H c #006263",
"J c #006365",
"K c #006465",
"L c #006566",
"P c #006769",
"I c #006869",
"U c #596162",
"Y c #768082",
"T c #838E90",
"R c #8F9B9D",
"E c #9BA7AA",
"W c #B1BFC1",
"Q c #BBCACC",
"! c #C5D5D7",
"~ c #D8E9EC",
/* pixels */
"BBZZNNAABBBBmmmmmmvvmmmmAAAAvvssBBZZNNAABBBBmmmmmmvvmmmmAAAAvvss",
"BBZZNNAABBBBmmmmmmvvmmmmAAAAvvssBBZZNNAABBBBmmmmmmvvmmmmAAAAvvss",
"HHBBPPAAAAAAAAvvvvvvvvAADDPPHHssHHBBPPAAAAAAAAvvvvvvvvAADDPPHHss",
"HHBBPPAAAAAAAAvvvvvvvvAADDPPHHssHHBBPPAAAAAAAAvvvvvvvvAADDPPHHss",
"BBAAVVBBBBBBAAAAvvBBBBBBDDGGvvssBBAAVVBBBBBBAAAAvvBBBBBBDDGGvvss",
"BBAAVVBBBBBBAAAAvvBBBBBBDDGGvvssBBAAVVBBBBBBAAAAvvBBBBBBDDGGvvss",
"hhhhhhhhhhhhhhhhhhhhhhhhhhhhhhhhhhhhhhhhhhhhhhhhhhhhhhhhhhhhhhhh",
"hhhhhhhhhhhhhhhhhhhhhhhhhhhhhhhhhhhhhhhhhhhhhhhhhhhhhhhhhhhhhhhh",
"BBmmmmvvmmssBBBBBBBBBBBBAACCSSSSBBmmmmvvmmssBBBBBBBBBBBBAACCSSSS",
"BBmmmmvvmmssBBBBBBBBBBBBAACCSSSSBBmmmmvvmmssBBBBBBBBBBBBAACCSSSS",
"AAJJmmvvHHssvvAAAAAAAAAAAALLPPIIAAJJmmvvHHssvvAAAAAAAAAAAALLPPII",
"AAJJmmvvHHssvvAAAAAAAAAAAALLPPIIAAJJmmvvHHssvvAAAAAAAAAAAALLPPII",
"mmBBBBmmBBssAAAAAABBBBBBDDBBmmnnmmBBBBmmBBssAAAAAABBBBBBDDBBmmnn",
"mmBBBBmmBBssAAAAAABBBBBBDDBBmmnnmmBBBBmmBBssAAAAAABBBBBBDDBBmmnn",
"hhhhhhhhhhhhhhhhhhhhhhhhhhhhh1O                              Oyh",
"hhhhhhhhhhhhhhhhhhhhhhhhhhhh1                                 Oh",
"IImmBBBBBBAABBBBBBAACCSSSSBB* W~~~~~~~~~~~~~~~~~~~~~~~~~~~~~~  s",
"IImmBBBBBBAABBBBBBAACCSSSSBB* W~~~~~~~~~~~~~~~~~~~~~~~~~~~~~~  s",
"JJJJAAAAAAAAAABBAAAALLBBIIAA: W~~~~~~~~~~~~~~~~~~~~~~~~~~~~~~  s",
"JJJJAAAAAAAAAABBAAAALLBBIIAA: W~~~~~~~~~~~~~~~~~~~~~~~~~~~~~~  s",
"mmIIBBBBBBDDBBBBBBDDBBmmnnmm7 YTTTTTTTTTTTTTTTTE~~~~~~~~WTTTT os",
"mmIIBBBBBBDDBBBBBBDDBBmmnnmmz.                 U~~~~~~~~T     ws",
"hhhhhhhhhhhhhhhhhhhhhhhhhhhhhu4222222222222222 U~~~~~~~~T 222rhh",
"hhhhhhhhhhhhhhhhhhhhhhhhhhhhhhhhhhhhhhhhhh#    U~~~~~~~~T 2hhhhh",
"mmAABBmmmmssccmmmmvvmmmmSSSSBBmmmmAABBmmmf pUUUT~~~~QWWWY tSBBmm",
"mmAABBmmmmssccmmmmvvmmmmSSSSBBmmmmAABBmmm8 T~~~~~~~~U    .xSBBmm",
"AAAAAAJJAAssMMKKvvvvvvvvPPIIAAJJAAAAAAJJAq T~~~~~~~~U &&ebIIAAJJ",
"AAAAAAJJAAssMMKKvvvvvvvvPPIIAAJJAAAAAAq:;; T~~~~~~~~U &&ebIIAAJJ",
"BBAAmmBBBBssvvSSCCmmvvBBmmnnmmBBBBAAm6     T~~~~~~~~U    .knmmBB",
"BBAAmmBBBBssvvSSCCmmvvBBmmnnmmBBBBAAm% WWWW!~~~~~~~~QWWWY enmmBB",
"hhhhhhhhhhhhhhhhhhhhhhhhhhhhhhhhhhhhh  ~~~~~~~~~~~~~~~~~T 2hhhhh",
"hhhhhhhhhhhhhhhhhhhhhhhhhhhhhhhhhhhhh  ~~~~~~~~~~~~~~~~~T 222rhh",
"BBZZNNAABBBBmmmmmmvvmmmmAAAAvvssBBZZN  ~~~~~~~~~~~~~~~~~T     ws",
"BBZZNNAABBBBmmmmmmvvmmmmAAAAvvssBBZZN% TTTTTTTTTTTTT!~~~WTTTT os",
"HHBBPPAAAAAAAAvvvvvvvvAADDPPHHssHHBBPx              W~~~~~~~~  s",
"HHBBPPAAAAAAAAvvvvvvvvAADDPPHHssHHBBPPkqqqqqqq7777& W~~~~~~~~  s",
"BBAAVVBBBBBBAAAAvvBBBBBBDDGGvvssBBAAVVBBBBBBAAAAvv= W~~~~~~~~  s",
"BBAAVVBBBBBBAAAAvvBBBBBBDDGGvvssBBAAVVBBBBBBAAAAvv= W~~~~~~~~  s",
"hhhhhhhhhhhhhhhhhhhhhhhhhhhhhhhhhhhhhhhhhhhhhhhhhh@ W~~~~~~~~  h",
"hhhhhhhhhhhhhhhhhhhhhhhhhhhhhhhhhhhhhhhhhhhhhhhhhh@ W~~~~~~~~  h",
"BBmmmmvvmmssBBBBBBBBBBBBAACCSd5;==****&3mmssBBBBBB= W~~~~~~~~  S",
"BBmmmmvvmmssBBBBBBBBBBBBAACCd           6mssBBBBBB= W~~~~~~~~  S",
"AAJJmmvvHHssvvAAAAAAAAAAAALL9 RWWWWWWWW &HssvvAAAA; W~~~~~~~~  I",
"AAJJmmvvHHssvvAAAAAAAAAAAALL> W~~~~~~~~  HssvvAAAA; W~~~~~~~~  I",
"mmBBBBmmBBssAAAAAABBBBBBDDBB* W~~~~~~~~  a00gggggg= W~~~~~~~~  n",
"mmBBBBmmBBssAAAAAABBBBBBDDBB* W~~~~~~~~             W~~~~~~~~  n",
"hhhhhhhhhhhhhhhhhhhhhhhhhhhh< RWWWQ~~~~UUUUUUUUUUUUUQ~~~!WWWW Oh",
"hhhhhhhhhhhhhhhhhhhhhhhhhhhhw     U~~~~~~~~~~~~~~~~~~~~~T     1h",
"IImmBBBBBBAABBBBBBAACCSSSSBBmi,+> U~~~~~~~~~~~~~~~~~~~~~T ==*6ss",
"IImmBBBBBBAABBBBBBAACCSSSSBBmmssz U~~~~~~~~~~~~~~~~~~~~~T 9Bmmss",
"JJJJAAAAAAAAAABBAAAALLBBIIAAJJssj U~~~~~~~~~~~~~~~~~~~~~T qAJJss",
"JJJJAAAAAAAAAABBAAAALLBBIIAAJJssFX                        kAJJss",
"mmIIBBBBBBDDBBBBBBDDBBmmnnmmBBssml-                     $dmmBBss",
"mmIIBBBBBBDDBBBBBBDDBBmmnnmmBBssmmIIBBBBBBDDBBBBBBDDBBmmnnmmBBss",
"hhhhhhhhhhhhhhhhhhhhhhhhhhhhhhhhhhhhhhhhhhhhhhhhhhhhhhhhhhhhhhhh",
"hhhhhhhhhhhhhhhhhhhhhhhhhhhhhhhhhhhhhhhhhhhhhhhhhhhhhhhhhhhhhhhh",
"mmAABBmmmmssccmmmmvvmmmmSSSSBBmmmmAABBmmmmssccmmmmvvmmmmSSSSBBmm",
"mmAABBmmmmssccmmmmvvmmmmSSSSBBmmmmAABBmmmmssccmmmmvvmmmmSSSSBBmm",
"AAAAAAJJAAssMMKKvvvvvvvvPPIIAAJJAAAAAAJJAAssMMKKvvvvvvvvPPIIAAJJ",
"AAAAAAJJAAssMMKKvvvvvvvvPPIIAAJJAAAAAAJJAAssMMKKvvvvvvvvPPIIAAJJ",
"BBAAmmBBBBssvvSSCCmmvvBBmmnnmmBBBBAAmmBBBBssvvSSCCmmvvBBmmnnmmBB",
"BBAAmmBBBBssvvSSCCmmvvBBmmnnmmBBBBAAmmBBBBssvvSSCCmmvvBBmmnnmmBB",
"hhhhhhhhhhhhhhhhhhhhhhhhhhhhhhhhhhhhhhhhhhhhhhhhhhhhhhhhhhhhhhhh",
"hhhhhhhhhhhhhhhhhhhhhhhhhhhhhhhhhhhhhhhhhhhhhhhhhhhhhhhhhhhhhhhh"
};
