/* XPM */
static char *result[] = {
/* columns rows colors chars-per-pixel */
"64 64 63 1 ",
"  c black",
". c #001010",
"X c #001111",
"o c #001313",
"O c #001414",
"+ c #001516",
"@ c #001717",
"# c #001718",
"$ c #001818",
"% c #001919",
"& c #001A1A",
"* c #001A1B",
"= c #002525",
"- c #002727",
"; c #00292A",
": c #002E2E",
"> c #002E2F",
", c #1F2223",
"< c #003030",
"1 c #003031",
"2 c #003233",
"3 c #003535",
"4 c #003737",
"5 c #003838",
"6 c #003C3C",
"7 c #003C3D",
"8 c #003E3F",
"9 c #363B3C",
"0 c #004142",
"q c #004243",
"w c #004343",
"e c #004444",
"r c #004546",
"t c #004949",
"y c #00494A",
"u c #005354",
"i c #005455",
"p c #005657",
"a c #005758",
"s c #00595A",
"d c #005A5B",
"f c #005B5B",
"g c #005B5C",
"h c #005C5D",
"j c #005D5E",
"k c #005E60",
"l c #005F60",
"z c #005F61",
"x c #006061",
"c c #006162",
"v c #006263",
"b c #006365",
"n c #006465",
"m c #006566",
"M c #006769",
"N c #006869",
"B c #596162",
"V c #838E90",
"C c #8F9B9D",
"Z c #B1BFC1",
"A c #BBCACC",
"S c #C5D5D7",
"D c #D8E9EC",
/* pixels */
"ggkkffllggggssssssppssssllllppwwggkkffllggggssssssppssssllllppww",
"ggkkffllggggssssssppssssllllppwwggkkffllggggssssssppssssllllppww",
"vvggMMllllllllppppppppllxxMMvvwwvvggMMllllllllppppppppllxxMMvvww",
"vvggMMllllllllppppppppllxxMMvvwwvvggMMllllllllppppppppllxxMMvvww",
"ggllhhggggggllllppggggggxxccppwwggllhhggggggllllppggggggxxccppww",
"ggllhhggggggllllppggggggxxccppwwggllhhggggggllllppggggggxxccppww",
"tttttttttttttttttttttttttttttttttttttttttttttttttttttttttttttttt",
"tttttttttttttttttttttttttttttttttttttttttttttttttttttttttttttttt",
"ggssssppsswwgggggggggggglljjzzzzggssssppsswwgggggggggggglljjzzzz",
"ggssssppsswwgggggggggggglljjzzzzggssssppsswwgggggggggggglljjzzzz",
"llbbssppvvwwppllllllllllllmmMMNNllbbssppvvwwppllllllllllllmmMMNN",
"llbbssppvvwwppllllllllllllmmMMNNllbbssppvvwwppllllllllllllmmMMNN",
"ssggggssggwwllllllggggggxxggssaassggggssggwwllllllggggggxxggssaa",
"ssggggssggwwllllllggggggxxggssaassggggssggwwllllllggggggxxggssaa",
"tttttttttttttttttttttttttttttttttttttttttt5X                 X6t",
"ttttttttttttttttttttttttttttttttttttttttt5                    Xt",
"NNssggggggllgggggglljjzzzzggsswwNNssggggg1 VDDDDDDDDDDDDDDDDD  w",
"NNssggggggllgggggglljjzzzzggsswwNNssggggg1 VDDDDDDDDDDDDDDDDD  w",
"bbbbllllllllllggllllmmggNNllbbwwbbbblly222 VDDDDDDDDDDDDDDDDD  w",
"bbbbllllllllllggllllmmggNNllbbwwbbbbly     VDDDDDDDDDDDDDDDDD  w",
"ssNNggggggxxggggggxxggssaassggwwssNNg+ VVVVZDDDSVVVVSDDDDDDDD  w",
"ssNNggggggxxggggggxxggssaassggwwssNNg  DDDDDDDDZ    ZDDDDDDDD  w",
"tttttttttttttttttttttttttttttttttte33  DDDDDDDDZ oo ZDDDDDDDD  t",
"ttttttttttttttttttttttttttttttttt%     DDDDDDDDZ oo ZDDDDDDDD  t",
"ssllggsssswwiissssppsssszzzzggssu ,BBBBDDDDSZZZC ;@ ZDDDDDDDD  s",
"ssllggsssswwiissssppsssszzzzggss0 BDDDDDDDDV     8@ ZDDDDDDDD  s",
"llllllbbllwwddnnppppppppMMNNllbbr BDDDDDDDDV $*>7p@ ZDDDDDDDD  b",
"llllllbbllwwddnnppppppppMMNNlw>*% BDDDDDDDDV <nnpp@ ZDDDDDDDD  b",
"ggllssggggwwppzzjjssppggssaa8     BDDDDDDDDV :zzjj# ZDDDDDDDD  g",
"ggllssggggwwppzzjjssppggssaa; CZZZADDDDBBBB9 qzzjj# ZDDDDDDDD  g",
"tttttttttttttttttttttttttttto ZDDDDDDDD     Ottttto ZDDDDDDDD  t",
"tttttttttttttttttttttttttttto ZDDDDDDDD  ---------o ZDDDDDDDD  t",
"ggkkffllggggssssssppssssllll@ ZDDDDDDDD             ZDDDDDDDD  w",
"ggkkffllggggssssssppssssllll@ ZDDDDDDDDVVVVVVVVVVVVVSDDDDDDDD  w",
"vvggMMllllllllppppppppllxxMM& ZDDDDDDDDDDDDDDDDDDDDDDDDDDDDDD  w",
"vvggMMllllllllppppppppllxxMM& ZDDDDDDDDDDDDDDDDDDDDDDDDDDDDDD  w",
"ggllhhggggggllllppggggggxxcc@ ZDDDDDDDDDDDDDDDDDDDDDDDDDDDDDD  w",
"ggllhhggggggllllppggggggxxcc@ ZDDDDDDDDDDDDDDDDDDDDDDDDDDDDDD  w",
"tttttttttttttttttttttttttttt=                       ZDDDDDDDD  t",
"ttttttttttttttttttttttttttttt=X                     ZDDDDDDDD  t",
"ggssssppsswwgggggggggggglljjzzzzggssssppsswwgggggg$ ZDDDDDDDD  z",
"ggssssppsswwgggggggggggglljjzzzzggssssppsswwgggggg$ ZDDDDDDDD  z",
"llbbssppvvwwppllllllllllllmmMMNNllbbssppvvwwppllll% ZDDDDDDDD  N",
"llbbssppvvwwppllllllllllllmmMMNNllbbssppvvwwppllll% ZDDDDDDDD  N",
"ssggggssggwwllllllggggggxxggssaassggggssggwwllllll$ ZDDDDDDDD  a",
"ssggggssggwwllllllggggggxxggssaassggggssggwwllllll$ ZDDDDDDDD  a",
"tttttttttttttttttttttttttttttttttttttttttttttttttto ZDDDDDDDD  t",
"tttttttttttttttttttttttttttttttttttttttttttttttttto ZDDDDDDDD  t",
"NNssggggggllgggggglljjzzzzggsswwNNssggggggllgggggg% ZDDDDDDDD  w",
"NNssggggggllgggggglljjzzzzggsswwNNssggggggllgggggg% ZDDDDDDDD  w",
"bbbbllllllllllggllllmmggNNllbbwwbbbbllllllllllggll% ZDDDDDDDD  w",
"bbbbllllllllllggllllmmggNNllbbwwbbbbllllllllllggll<           .w",
"ssNNggggggxxggggggxxggssaassggwwssNNggggggxxggggggx1+        +4w",
"ssNNggggggxxggggggxxggssaassggwwssNNggggggxxggggggxxggssaassggww",
"tttttttttttttttttttttttttttttttttttttttttttttttttttttttttttttttt",
"tttttttttttttttttttttttttttttttttttttttttttttttttttttttttttttttt",
"ssllggsssswwiissssppsssszzzzggssssllggsssswwiissssppsssszzzzggss",
"ssllggsssswwiissssppsssszzzzggssssllggsssswwiissssppsssszzzzggss",
"llllllbbllwwddnnppppppppMMNNllbbllllllbbllwwddnnppppppppMMNNllbb",
"llllllbbllwwddnnppppppppMMNNllbbllllllbbllwwddnnppppppppMMNNllbb",
"ggllssggggwwppzzjjssppggssaassggggllssggggwwppzzjjssppggssaassgg",
"ggllssggggwwppzzjjssppggssaassggggllssggggwwppzzjjssppggssaassgg",
"tttttttttttttttttttttttttttttttttttttttttttttttttttttttttttttttt",
"tttttttttttttttttttttttttttttttttttttttttttttttttttttttttttttttt"
};
