/* XPM */
static char *result[] = {
/* columns rows colors chars-per-pixel */
"64 64 78 1 ",
"  c black",
". c #000101",
"X c #000D0D",
"o c #000E0F",
"O c #001010",
"+ c #001111",
"@ c #001212",
"# c #001313",
"$ c #001415",
"% c #001717",
"& c #001718",
"* c #001818",
"= c #001819",
"- c #001919",
"; c #001A1B",
": c #001B1C",
"> c #001F1F",
", c #002222",
"< c #002323",
"1 c #002525",
"2 c #002727",
"3 c #002828",
"4 c #002B2C",
"5 c #002C2D",
"6 c #002D2D",
"7 c #002E2E",
"8 c #003031",
"9 c #003131",
"0 c #003233",
"q c #003333",
"w c #003434",
"e c #003435",
"r c #003535",
"t c #003738",
"y c #003838",
"u c #003E3F",
"i c #004142",
"p c #004243",
"a c #004343",
"s c #004344",
"d c #004546",
"f c #004747",
"g c #004949",
"h c #00484A",
"j c #00494A",
"k c #004A4A",
"l c #004C4D",
"z c #005253",
"x c #005455",
"c c #005657",
"v c #005658",
"b c #005758",
"n c #00595A",
"m c #005A5B",
"M c #005B5B",
"N c #005B5C",
"B c #005C5D",
"V c #005D5E",
"C c #005E60",
"Z c #005F60",
"A c #005F61",
"S c #006061",
"D c #006062",
"F c #006162",
"G c #006263",
"H c #006365",
"J c #006465",
"K c #006566",
"L c #006769",
"P c #006869",
"I c #596162",
"U c #768082",
"Y c #838E90",
"T c #8F9B9D",
"R c #B1BFC1",
"E c #BBCACC",
"W c #C5D5D7",
"Q c #D8E9EC",
/* pixels */
"NNCCMMZZNNNNnnnnnnccnnnnZZZZccaaNNCCMMZZNNNNnnnnnnccnnnnZZZZccaa",
"NNCCMMZZNNNNnnnnnnccnnnnZZZZccaaNNCCMMZZNNNNnnnnnnccnnnnZZZZccaa",
"GGNNLLZZZZZZZZccccccccZZSSLLGGaaGGNNLLZZZZZZZZccccccccZZSSLLGGaa",
"GGNNLLZZZZZZZZccccccccZZSSLLGGaaGGNNLLZZZZZZZZccccccccZZSSLLGGaa",
"NNZZBBNNNNNNZZZZccNNNNNNSSFFccaaNNZZBBNNNNNNZZZZccNNNNNNSSFFccaa",
"NNZZBBNNNNNNZZZZccNNNNNNSSFFccaaNNZZBBNNNNNNZZZZccNNNNNNSSFFccaa",
"gggggggggggggggggggggggggggggggggggggggggggggggggggggggggggggggg",
"gggggggggggggggggggggggggggggggggggggggggggggggggggggggggggggggg",
"NNnnnnccnnaaNNNNNNNNNNNNZZVVAAAANNnnnnccnnaaNNNNNNNNNNNNZZVVAAAA",
"NNnnnnccnnaaNNNNNNNNNNNNZZVVAAAANNnnnnccnnaaNNNNNNNNNNNNZZVVAAAA",
"ZZHHnnccGGaaccZZZZZZZZZZZZKKLLPPZZHHnnccGGaaccZZZZZZZZZZZZKKLLPP",
"ZZHHnnccGGaaccZZZZZZZZZZZZKKLLPPZZHHnnccGGaaccZZZZZZZZZZZZKKLLPP",
"nnNNNNnnNNaaZZZZZZNNNNNNSSNNnnbbnnNNNNnnNNaaZZZZZZNNNNNNSSNNnnbb",
"nnNNNNnnNNaaZZZZZZNNNNNNSSNNnnbbnnNNNNnnNNaaZZZZZZNNNNNNSSNNnnbb",
"ggggggggggggggggggggggggggggg1+                         +ygggggg",
"gggggggggggggggggggggggggggg1                             yggggg",
"PPnnNNNNNNZZNNNNNNZZVVAAAANN& RQQQQQQQQQQQQQQQQQQQQQQQQQY 8Nnnaa",
"PPnnNNNNNNZZNNNNNNZZVVAAAANN& RQQQQQQQQQQQQQQQQQQQQQQQQQY 8Nnnaa",
"HHHHZZZZZZZZZZNNZZZZKKNNPPZZ; RQQQQQQQQQQQQQQQQQQQQQQQQQY 0ZHHaa",
"HHHHZZZZZZZZZZNNZZZZKKNNPPZZ; RQQQQQQQQQQQQQQQQQQQQQQQQQY 0ZHHaa",
"nnPPNNNNNNSSNNNNNNSSNNnnbbnn* RQQQQQQQQYYYYYYYYYYYYYYYYYI inNNaa",
"nnPPNNNNNNSSNNNNNNSSNNnnbbnn* RQQQQQQQQ                  XcnNNaa",
"gggggggggggggggggggggggggggg# RQQQQQQQQ  222222222222222rfgggggg",
"gggggggggggggggggggggggggggg# RQQQQQQQQ  ggggggggggggggggggggggg",
"nnZZNNnnnnaaxxnnnnccnnnnAAAA* RQQQQQQQQ  naaxxnnnnccnnnnAAAANNnn",
"nnZZNNnnnnaaxxnnnnccnnnnAAAA* RQQQQQQQQ  naaxxnnnnccnnnnAAAANNnn",
"ZZZZZZHHZZaammJJccccccccLLPP- RQQQQQQQQ  ZaammJJccccccccLLPPZZHH",
"ZZZZZZHHZZaammJJccccccccLLPP- RQQQQQQQQ  -@@**;;%%%%%%%%evPPZZHH",
"NNZZnnNNNNaaccAAVVnnccNNnnbb& RQQQQQQQQ                  .jbnnNN",
"NNZZnnNNNNaaccAAVVnnccNNnnbb& RQQQQQQQQRRRRRRRRRRRRRRRRRU ebnnNN",
"gggggggggggggggggggggggggggg# RQQQQQQQQQQQQQQQQQQQQQQQQQY 2ggggg",
"gggggggggggggggggggggggggggg# RQQQQQQQQQQQQQQQQQQQQQQQQQY 222ygg",
"NNCCMMZZNNNNnnnnnnccnnnnZZZZ% RQQQQQQQQQQQQQQQQQQQQQQQQQY     qa",
"NNCCMMZZNNNNnnnnnnccnnnnZZZZ4 UYYYYYYYYYYYYYYYYYYYYYWQQQRYYYY Oa",
"GGNNLLZZZZZZZZccccccccZZSSLLz.                      RQQQQQQQQ  a",
"GGNNLLZZZZZZZZccccccccZZSSLLGz3<ww88tt000000007777% RQQQQQQQQ  a",
"NNZZBBNNNNNNZZZZccNNNNNNSSFFccaaNNZZBBNNNNNNZZZZcc* RQQQQQQQQ  a",
"NNZZBBNNNNNNZZZZccNNNNNNSSFFccaaNNZZBBNNNNNNZZZZcc* RQQQQQQQQ  a",
"gggggggggggggggggggggggggggggggggggggggggggggggggg# RQQQQQQQQ  g",
"gggggggggggggggggggggggggggggggggggggggggggggggggg# RQQQQQQQQ  g",
"NNnnnnccnnaaNNNNNNNNNNNNZZVVAs5-**&&&&%4nnaaNNNNNN* RQQQQQQQQ  A",
"NNnnnnccnnaaNNNNNNNNNNNNZZVVs           6naaNNNNNN* RQQQQQQQQ  A",
"ZZHHnnccGGaaccZZZZZZZZZZZZKK8 TRRRRRRRR %GaaccZZZZ- RQQQQQQQQ  P",
"ZZHHnnccGGaaccZZZZZZZZZZZZKK: RQQQQQQQQ  GaaccZZZZ- RQQQQQQQQ  P",
"nnNNNNnnNNaaZZZZZZNNNNNNSSNN& RQQQQQQQQ  p99dddddd* RQQQQQQQQ  b",
"nnNNNNnnNNaaZZZZZZNNNNNNSSNN& RQQQQQQQQ             RQQQQQQQQ  b",
"gggggggggggggggggggggggggggg, TRRREQQQQIIIIIIIIIIIIIEQQQWRRRR +g",
"ggggggggggggggggggggggggggggq     IQQQQQQQQQQQQQQQQQQQQQY     1g",
"PPnnNNNNNNZZNNNNNNZZVVAAAANNnu>@: IQQQQQQQQQQQQQQQQQQQQQY **&6aa",
"PPnnNNNNNNZZNNNNNNZZVVAAAANNnnaal IQQQQQQQQQQQQQQQQQQQQQY 8Nnnaa",
"HHHHZZZZZZZZZZNNZZZZKKNNPPZZHHaah IQQQQQQQQQQQQQQQQQQQQQY 0ZHHaa",
"HHHHZZZZZZZZZZNNZZZZKKNNPPZZHHaaDo                        jZHHaa",
"nnPPNNNNNNSSNNNNNNSSNNnnbbnnNNaank=                     $snnNNaa",
"nnPPNNNNNNSSNNNNNNSSNNnnbbnnNNaannPPNNNNNNSSNNNNNNSSNNnnbbnnNNaa",
"gggggggggggggggggggggggggggggggggggggggggggggggggggggggggggggggg",
"gggggggggggggggggggggggggggggggggggggggggggggggggggggggggggggggg",
"nnZZNNnnnnaaxxnnnnccnnnnAAAANNnnnnZZNNnnnnaaxxnnnnccnnnnAAAANNnn",
"nnZZNNnnnnaaxxnnnnccnnnnAAAANNnnnnZZNNnnnnaaxxnnnnccnnnnAAAANNnn",
"ZZZZZZHHZZaammJJccccccccLLPPZZHHZZZZZZHHZZaammJJccccccccLLPPZZHH",
"ZZZZZZHHZZaammJJccccccccLLPPZZHHZZZZZZHHZZaammJJccccccccLLPPZZHH",
"NNZZnnNNNNaaccAAVVnnccNNnnbbnnNNNNZZnnNNNNaaccAAVVnnccNNnnbbnnNN",
"NNZZnnNNNNaaccAAVVnnccNNnnbbnnNNNNZZnnNNNNaaccAAVVnnccNNnnbbnnNN",
"gggggggggggggggggggggggggggggggggggggggggggggggggggggggggggggggg",
"gggggggggggggggggggggggggggggggggggggggggggggggggggggggggggggggg"
};
