/* XPM */
static char *result[] = {
/* columns rows colors chars-per-pixel */
"64 64 79 1 ",
"  c black",
". c #000101",
"X c #000B0B",
"o c #000E0F",
"O c #001010",
"+ c #001111",
"@ c #001212",
"# c #001313",
"$ c #001415",
"% c #001515",
"& c #001717",
"* c #001718",
"= c #001818",
"- c #001819",
"; c #001919",
": c #001A1A",
"> c #001A1B",
", c #001B1C",
"< c #001F1F",
"1 c #002222",
"2 c #002323",
"3 c #002525",
"4 c #002727",
"5 c #002828",
"6 c #002D2D",
"7 c #002E2E",
"8 c #003030",
"9 c #003031",
"0 c #003131",
"q c #003233",
"w c #003333",
"e c #003435",
"r c #003838",
"t c #003C3C",
"y c #003C3D",
"u c #003E3F",
"i c #004243",
"p c #004343",
"a c #004344",
"s c #004546",
"d c #004747",
"f c #004949",
"g c #00484A",
"h c #00494A",
"j c #004A4A",
"k c #004C4D",
"l c #004C4E",
"z c #005354",
"x c #005455",
"c c #005657",
"v c #005658",
"b c #005758",
"n c #00595A",
"m c #005A5B",
"M c #005B5B",
"N c #005B5C",
"B c #005C5D",
"V c #005D5E",
"C c #005E60",
"Z c #005F60",
"A c #005F61",
"S c #006061",
"D c #006062",
"F c #006162",
"G c #006263",
"H c #006365",
"J c #006465",
"K c #006566",
"L c #006769",
"P c #006869",
"I c #596162",
"U c #768082",
"Y c #838E90",
"T c #8F9B9D",
"R c #9BA7AA",
"E c #B1BFC1",
"W c #BBCACC",
"Q c #C5D5D7",
"! c #D8E9EC",
/* pixels */
"NNCCMMZZNNNNnnnnnnccnnnnZZZZccppNNCCMMZZNNNNnnnnnnccnnnnZZZZccpp",
"NNCCMMZZNNNNnnnnnnccnnnnZZZZccppNNCCMMZZNNNNnnnnnnccnnnnZZZZccpp",
"GGNNLLZZZZZZZZccccccccZZSSLLGGppGGNNLLZZZZZZZZccccccccZZSSLLGGpp",
"GGNNLLZZZZZZZZccccccccZZSSLLGGppGGNNLLZZZZZZZZccccccccZZSSLLGGpp",
"NNZZBBNNNNNNZZZZccNNNNNNSSFFccppNNZZBBNNNNNNZZZZccNNNNNNSSFFccpp",
"NNZZBBNNNNNNZZZZccNNNNNNSSFFccppNNZZBBNNNNNNZZZZccNNNNNNSSFFccpp",
"ffffffffffffffffffffffffffffffffffffffffffffffffffffffffffffffff",
"ffffffffffffffffffffffffffffffffffffffffffffffffffffffffffffffff",
"NNnnnnccnnppNNNNNNNNNNNNZZVVAAAANNnnnnccnnppNNNNNNNNNNNNZZVVAAAA",
"NNnnnnccnnppNNNNNNNNNNNNZZVVAAAANNnnnnccnnppNNNNNNNNNNNNZZVVAAAA",
"ZZHHnnccGGppccZZZZZZZZZZZZKKLLPPZZHHnnccGGppccZZZZZZZZZZZZKKLLPP",
"ZZHHnnccGGppccZZZZZZZZZZZZKKLLPPZZHHnnccGGppccZZZZZZZZZZZZKKLLPP",
"nnNNNNnnNNppZZZZZZNNNNNNSSNNnnbbnnNNNNnnNNppZZZZZZNNNNNNSSNNnnbb",
"nnNNNNnnNNppZZZZZZNNNNNNSSNNnnbbnnNNNNnnNNppZZZZZZNNNNNNSSNNnnbb",
"ffffffffffffffffffffffffffffffffft+                     +rffffff",
"ffffffffffffffffffffffffffffffffdX                        rfffff",
"PPnnNNNNNNZZNNNNNNZZVVAAAANNnnppk I!!!!!!!!!!!!!!!!!!!!!Y 9Nnnpp",
"PPnnNNNNNNZZNNNNNNZZVVAAAANNnnppk I!!!!!!!!!!!!!!!!!!!!!Y 9Nnnpp",
"HHHHZZZZZZZZZZNNZZZZKKNNPPZZHz52e I!!!!!!!!!!!!!!!!!!!!!Y qqelpp",
"HHHHZZZZZZZZZZNNZZZZKKNNPPZZz.    I!!!!!!!!!!!!!!!!!!!!!Y     wp",
"nnPPNNNNNNSSNNNNNNSSNNnnbbnn7 UYYYR!!!!YYYYYYYYYYYYYQ!!!EYYYY Op",
"nnPPNNNNNNSSNNNNNNSSNNnnbbnn= E!!!!!!!!             E!!!!!!!!  p",
"ffffffffffffffffffffffffffff# E!!!!!!!!  444444444# E!!!!!!!!  f",
"ffffffffffffffffffffffffffff# E!!!!!!!!  fffffffff# E!!!!!!!!  f",
"nnZZNNnnnnppxxnnnnccnnnnAAAA= E!!!!!!!!  nppxxnnnn5 TEEEEEEEE %n",
"nnZZNNnnnnppxxnnnnccnnnnAAAA= E!!!!!!!!  nppxxnnnny           6n",
"ZZZZZZHHZZppmmJJccccccccLLPP; E!!!!!!!!  ZppmmJJcccy5&&&,,,,;8HH",
"ZZZZZZHHZZppmmJJccccccccLLPP; E!!!!!!!!  ;@@==>>&&&&&&&&evPPZZHH",
"NNZZnnNNNNppccAAVVnnccNNnnbb* E!!!!!!!!                  .hbnnNN",
"NNZZnnNNNNppccAAVVnnccNNnnbb* E!!!!!!!!EEEEEEEEEEEEEEEEEU ebnnNN",
"ffffffffffffffffffffffffffff# E!!!!!!!!!!!!!!!!!!!!!!!!!Y 4fffff",
"ffffffffffffffffffffffffffff# E!!!!!!!!!!!!!!!!!!!!!!!!!Y 444rff",
"NNCCMMZZNNNNnnnnnnccnnnnZZZZ& E!!!!!!!!!!!!!!!!!!!!!!!!!Y     wp",
"NNCCMMZZNNNNnnnnnnccnnnnZZZZ& E!!!!!!!!YYYYYYYYYYYYYQ!!!EYYYY Op",
"GGNNLLZZZZZZZZccccccccZZSSLL: E!!!!!!!!             E!!!!!!!!  p",
"GGNNLLZZZZZZZZccccccccZZSSLL: E!!!!!!!!  qqqqq7777& E!!!!!!!!  p",
"NNZZBBNNNNNNZZZZccNNNNNNSSFF& E!!!!!!!!  NNNZZZZcc= E!!!!!!!!  p",
"NNZZBBNNNNNNZZZZccNNNNNNSSFF& E!!!!!!!!  NNNZZZZcc= E!!!!!!!!  p",
"ffffffffffffffffffffffffffff# E!!!!!!!!  fffffffff# E!!!!!!!!  f",
"ffffffffffffffffffffffffffff# E!!!!!!!!  fffffffff# E!!!!!!!!  f",
"NNnnnnccnnppNNNNNNNNNNNNZZVV; E!!!!!!!!  nppNNNNNN= E!!!!!!!!  A",
"NNnnnnccnnppNNNNNNNNNNNNZZVV; E!!!!!!!!  nppNNNNNN= E!!!!!!!!  A",
"ZZHHnnccGGppccZZZZZZZZZZZZKK, E!!!!!!!!  GppccZZZZ; E!!!!!!!!  P",
"ZZHHnnccGGppccZZZZZZZZZZZZKK, E!!!!!!!!  GppccZZZZ; E!!!!!!!!  P",
"nnNNNNnnNNppZZZZZZNNNNNNSSNN* E!!!!!!!!  i00ssssss= E!!!!!!!!  b",
"nnNNNNnnNNppZZZZZZNNNNNNSSNN* E!!!!!!!!             E!!!!!!!!  b",
"ffffffffffffffffffffffffffff1 TEEEW!!!!IIIIIIIIIIIIIW!!!QEEEE +f",
"ffffffffffffffffffffffffffffw     I!!!!!!!!!!!!!!!!!!!!!Y     3f",
"PPnnNNNNNNZZNNNNNNZZVVAAAANNnu<@, I!!!!!!!!!!!!!!!!!!!!!Y ==*6pp",
"PPnnNNNNNNZZNNNNNNZZVVAAAANNnnppk I!!!!!!!!!!!!!!!!!!!!!Y 9Nnnpp",
"HHHHZZZZZZZZZZNNZZZZKKNNPPZZHHppg I!!!!!!!!!!!!!!!!!!!!!Y qZHHpp",
"HHHHZZZZZZZZZZNNZZZZKKNNPPZZHHppDo                        hZHHpp",
"nnPPNNNNNNSSNNNNNNSSNNnnbbnnNNppnj-                     $annNNpp",
"nnPPNNNNNNSSNNNNNNSSNNnnbbnnNNppnnPPNNNNNNSSNNNNNNSSNNnnbbnnNNpp",
"ffffffffffffffffffffffffffffffffffffffffffffffffffffffffffffffff",
"ffffffffffffffffffffffffffffffffffffffffffffffffffffffffffffffff",
"nnZZNNnnnnppxxnnnnccnnnnAAAANNnnnnZZNNnnnnppxxnnnnccnnnnAAAANNnn",
"nnZZNNnnnnppxxnnnnccnnnnAAAANNnnnnZZNNnnnnppxxnnnnccnnnnAAAANNnn",
"ZZZZZZHHZZppmmJJccccccccLLPPZZHHZZZZZZHHZZppmmJJccccccccLLPPZZHH",
"ZZZZZZHHZZppmmJJccccccccLLPPZZHHZZZZZZHHZZppmmJJccccccccLLPPZZHH",
"NNZZnnNNNNppccAAVVnnccNNnnbbnnNNNNZZnnNNNNppccAAVVnnccNNnnbbnnNN",
"NNZZnnNNNNppccAAVVnnccNNnnbbnnNNNNZZnnNNNNppccAAVVnnccNNnnbbnnNN",
"ffffffffffffffffffffffffffffffffffffffffffffffffffffffffffffffff",
"ffffffffffffffffffffffffffffffffffffffffffffffffffffffffffffffff"
};
