/* XPM */
static char *result[] = {
/* columns rows colors chars-per-pixel */
"64 64 72 1 ",
"  c black",
". c #000101",
"X c #001111",
"o c #001313",
"O c #001414",
"+ c #001515",
"@ c #001516",
"# c #001617",
"$ c #001717",
"% c #001718",
"& c #001818",
"* c #001919",
"= c #001A1B",
"- c #001B1C",
"; c #002222",
": c #002525",
"> c #002727",
", c #002A2B",
"< c #002D2D",
"1 c #002E2E",
"2 c #002E2F",
"3 c #1F2223",
"4 c #003030",
"5 c #003233",
"6 c #003535",
"7 c #003737",
"8 c #003738",
"9 c #003838",
"0 c #003C3C",
"q c #003D3E",
"w c #003F3F",
"e c #363B3C",
"r c #004041",
"t c #004142",
"y c #004242",
"u c #004243",
"i c #004343",
"p c #004344",
"a c #004646",
"s c #004949",
"d c #004B4C",
"f c #004C4D",
"g c #004D4E",
"h c #004E4F",
"j c #005455",
"k c #005657",
"l c #005758",
"z c #00595A",
"x c #005A5B",
"c c #005B5B",
"v c #005B5C",
"b c #005C5D",
"n c #005D5E",
"m c #005E60",
"M c #005F60",
"N c #005F61",
"B c #006061",
"V c #006162",
"C c #006263",
"Z c #006365",
"A c #006465",
"S c #006566",
"D c #006769",
"F c #006869",
"G c #596162",
"H c #768082",
"J c #838E90",
"K c #8F9B9D",
"L c #B1BFC1",
"P c #BBCACC",
"I c #C5D5D7",
"U c #D8E9EC",
/* pixels */
"vvmmccMMvvvvzzzzzzkkzzzzMMMMkkiivvmmccMMvvvvzzzzzzkkzzzzMMMMkkii",
"vvmmccMMvvvvzzzzzzkkzzzzMMMMkkiivvmmccMMvvvvzzzzzzkkzzzzMMMMkkii",
"CCvvDDMMMMMMMMkkkkkkkkMMBBDDCCiiCCvvDDMMMMMMMMkkkkkkkkMMBBDDCCii",
"CCvvDDMMMMMMMMkkkkkkkkMMBBDDCCiiCCvvDDMMMMMMMMkkkkkkkkMMBBDDCCii",
"vvMMbbvvvvvvMMMMkkvvvvvvBBVVkkiivvMMbbvvvvvvMMMMkkvvvvvvBBVVkkii",
"vvMMbbvvvvvvMMMMkkvvvvvvBBVVkkiivvMMbbvvvvvvMMMMkkvvvvvvBBVVkkii",
"ssssssssssssssssssssssssssssssssssssssssssssssssssssssssssssssss",
"ssssssssssssssssssssssssssssssssssssssssssssssssssssssssssssssss",
"vvzzzzkkzziivvvvvvvvvvvvMMnnNNNNvvzzzzkkzziivvvvvvvvvvvvMMnnNNNN",
"vvzzzzkkzziivvvvvvvvvvvvMMnnNNNNvvzzzzkkzziivvvvvvvvvvvvMMnnNNNN",
"MMZZzzkkCCiikkMMMMMMMMMMMMSSDDFFMMZZzzkkCCiikkMMMMMMMMMMMMSSDDFF",
"MMZZzzkkCCiikkMMMMMMMMMMMMSSDDFFMMZZzzkkCCiikkMMMMMMMMMMMMSSDDFF",
"zzvvvvzzvviiMMMMMMvvvvvvBBvvzzllzzvvvvzzvviiMMMMMMvvvvvvBBvvzzll",
"zzvvvvzzvviiMMMMMMvvvvvvBBvvzzllzzvvvvzzvviiMMMMMMvvvvvvBBvvzzll",
"sssssssssssssssssssssssssssss:X                              X0s",
"ssssssssssssssssssssssssssss:                                 Xs",
"FFzzvvvvvvMMvvvvvvMMnnNNNNvv% LUUUUUUUUUUUUUUUUUUUUUUUUUUUUUU  i",
"FFzzvvvvvvMMvvvvvvMMnnNNNNvv% LUUUUUUUUUUUUUUUUUUUUUUUUUUUUUU  i",
"ZZZZMMMMMMMMMMvvMMMMSSvvFFMM= LUUUUUUUUUUUUUUUUUUUUUUUUUUUUUU  i",
"ZZZZMMMMMMMMMMvvMMMMSSvvFFMM= LUUUUUUUUUUUUUUUUUUUUUUUUUUUUUU  i",
"zzFFvvvvvvBBvvvvvvBBvvzzllzz& LUUUUUUUUJJJJJJJJJJJJJIUUUUUUUU  i",
"zzFFvvvvvvBBvvvvvvBBvvzzllzz& LUUUUUUUU             LUUUUUUUU  i",
"sssssssssssssssssssssssssssso LUUUUUUUU  >>>>>>>>>o LUUUUUUUU  s",
"sssssssssssssssssssssssssssso LUUUUUUUU  sssss*     LUUUUUUUU  s",
"zzMMvvzzzziijjzzzzkkzzzzNNNN, KLLLLLLLL +ziijh 3GGGGPUUUILLLL +z",
"zzMMvvzzzziijjzzzzkkzzzzNNNNr           <ziijq GUUUUUUUUJ     <z",
"MMMMMMZZMMiixxAAkkkkkkkkDDFFMi2=******=5MMiixy GUUUUUUUUJ --*4ZZ",
"MMMMMMZZMMiixxAAkkkkkkkkDDFFMMZZMMMMMMZZMM9;&& GUUUUUUUUJ 8FMMZZ",
"vvMMzzvvvviikkNNnnzzkkvvzzllzzvvvvMMzzvvvf.    GUUUUUUUUJ 2lzzvv",
"vvMMzzvvvviikkNNnnzzkkvvzzllzzvvvvMMzzvvv7 HLLLPUUUUJGGGe plzzvv",
"sssssssssssssssssssssssssssssssssssssssss> JUUUUUUUUG    Ossssss",
"ssssssssssssssssssssssssssssssssssssss9>>> JUUUUUUUUG 66wsssssss",
"vvmmccMMvvvvzzzzzzkkzzzzMMMMkkiivvmmca     JUUUUUUUUG tzMMMMkkii",
"vvmmccMMvvvvzzzzzzkkzzzzMMMMkkiivvmmc+ JJJJLUUUIJJJJe gzMMMMkkii",
"CCvvDDMMMMMMMMkkkkkkkkMMBBDDCCiiCCvvD  UUUUUUUUL     &MMBBDDCCii",
"CCvvDDMMMMMMMMkkkkkkkkMMBBDDCCiiCCvvD  UUUUUUUUL $11ukMMBBDDCCii",
"vvMMbbvvvvvvMMMMkkvvvvvvBBVVkkiivvMMb  UUUUUUUUL $vvvvvvBBVVkkii",
"vvMMbbvvvvvvMMMMkkvvvvvvBBVVkkiivvMMb  UUUUUUUUL $vvvvvvBBVVkkii",
"sssssssssssssssssssssssssssssssssssss  UUUUUUUUL ossssssssssssss",
"sssssssssssssssssssssssssssssssssssss  UUUUUUUUL ossssssssssssss",
"vvzzzzkkzziivvvvvvvvvvvvMMnnNNNNvvzzz  UUUUUUUUL &vvvvvvMMnnNNNN",
"vvzzzzkkzziivvvvvvvvvvvvMMnnNNNNvvzzz  UUUUUUUUL &vvvvvvMMnnNNNN",
"MMZZzzkkCCiikkMMMMMMMMMMMMSSDDFFMMZZz  UUUUUUUUL *MMMMMMMMSSDDFF",
"MMZZzzkkCCiikkMMMMMMMMMMMMSSDDFFMMZZz  UUUUUUUUL *MMMMMMMMSSDDFF",
"zzvvvvzzvviiMMMMMMvvvvvvBBvvzzllzzvvv  UUUUUUUUL *vvvvvvBBvvzzll",
"zzvvvvzzvviiMMMMMMvvvvvvBBvvzzllzzvvv  UUUUUUUUL *vvvvvvBBvvzzll",
"sssssssssssssssssssssssssssssssssssss  UUUUUUUUL ossssssssssssss",
"sssssssssssssssssssssssssssssssssssss  UUUUUUUUL ossssssssssssss",
"FFzzvvvvvvMMvvvvvvMMnnNNNNvvzziiFFzzv  UUUUUUUUL &MMnnNNNNvvzzii",
"FFzzvvvvvvMMvvvvvvMMnnNNNNvvzziiFFzzv  UUUUUUUUL &MMnnNNNNvvzzii",
"ZZZZMMMMMMMMMMvvMMMMSSvvFFMMZZiiZZZZM  UUUUUUUUL *MMSSvvFFMMZZii",
"ZZZZMMMMMMMMMMvvMMMMSSvvFFMMZZiiZZZZM#           4MMSSvvFFMMZZii",
"zzFFvvvvvvBBvvvvvvBBvvzzllzzvviizzFFvd@        @1vBBvvzzllzzvvii",
"zzFFvvvvvvBBvvvvvvBBvvzzllzzvviizzFFvvvvvvBBvvvvvvBBvvzzllzzvvii",
"ssssssssssssssssssssssssssssssssssssssssssssssssssssssssssssssss",
"ssssssssssssssssssssssssssssssssssssssssssssssssssssssssssssssss",
"zzMMvvzzzziijjzzzzkkzzzzNNNNvvzzzzMMvvzzzziijjzzzzkkzzzzNNNNvvzz",
"zzMMvvzzzziijjzzzzkkzzzzNNNNvvzzzzMMvvzzzziijjzzzzkkzzzzNNNNvvzz",
"MMMMMMZZMMiixxAAkkkkkkkkDDFFMMZZMMMMMMZZMMiixxAAkkkkkkkkDDFFMMZZ",
"MMMMMMZZMMiixxAAkkkkkkkkDDFFMMZZMMMMMMZZMMiixxAAkkkkkkkkDDFFMMZZ",
"vvMMzzvvvviikkNNnnzzkkvvzzllzzvvvvMMzzvvvviikkNNnnzzkkvvzzllzzvv",
"vvMMzzvvvviikkNNnnzzkkvvzzllzzvvvvMMzzvvvviikkNNnnzzkkvvzzllzzvv",
"ssssssssssssssssssssssssssssssssssssssssssssssssssssssssssssssss",
"ssssssssssssssssssssssssssssssssssssssssssssssssssssssssssssssss"
};
