/* XPM */
static char *result[] = {
/* columns rows colors chars-per-pixel */
"64 64 83 1 ",
"  c black",
". c #000101",
"X c #000B0B",
"o c #000E0F",
"O c #000F0F",
"+ c #001010",
"@ c #001111",
"# c #001212",
"$ c #001313",
"% c #001415",
"& c #001516",
"* c #001717",
"= c #001718",
"- c #001818",
"; c #001819",
": c #001919",
"> c #001A1A",
", c #001A1B",
"< c #001B1C",
"1 c #001F1F",
"2 c #002222",
"3 c #002323",
"4 c #002525",
"5 c #002727",
"6 c #002828",
"7 c #002B2C",
"8 c #002C2C",
"9 c #002D2D",
"0 c #002E2E",
"q c #003031",
"w c #003131",
"e c #003233",
"r c #003333",
"t c #003435",
"y c #003838",
"u c #003C3C",
"i c #003D3D",
"p c #003E3F",
"a c #004243",
"s c #004343",
"d c #004344",
"f c #004546",
"g c #004747",
"h c #004849",
"j c #004949",
"k c #00484A",
"l c #00494A",
"z c #004A4A",
"x c #004C4D",
"c c #004C4E",
"v c #005354",
"b c #005455",
"n c #005657",
"m c #005758",
"M c #00595A",
"N c #005A5B",
"B c #005B5B",
"V c #005B5C",
"C c #005C5D",
"Z c #005D5E",
"A c #005E60",
"S c #005F60",
"D c #005F61",
"F c #006061",
"G c #006062",
"H c #006162",
"J c #006263",
"K c #006365",
"L c #006465",
"P c #006566",
"I c #006769",
"U c #006869",
"Y c #494F51",
"T c #596162",
"R c #768082",
"E c #838E90",
"W c #8F9B9D",
"Q c #9BA7AA",
"! c #B1BFC1",
"~ c #BBCACC",
"^ c #C5D5D7",
"/ c #CFDFE2",
"( c #D8E9EC",
/* pixels */
"VVAABBSSVVVVMMMMMMnnMMMMSSSSnnssVVAABBSSVVVVMMMMMMnnMMMMSSSSnnss",
"VVAABBSSVVVVMMMMMMnnMMMMSSSSnnssVVAABBSSVVVVMMMMMMnnMMMMSSSSnnss",
"JJVVIISSSSSSSSnnnnnnnnSSFFIIJJssJJVVIISSSSSSSSnnnnnnnnSSFFIIJJss",
"JJVVIISSSSSSSSnnnnnnnnSSFFIIJJssJJVVIISSSSSSSSnnnnnnnnSSFFIIJJss",
"VVSSCCVVVVVVSSSSnnVVVVVVFFHHnnssVVSSCCVVVVVVSSSSnnVVVVVVFFHHnnss",
"VVSSCCVVVVVVSSSSnnVVVVVVFFHHnnssVVSSCCVVVVVVSSSSnnVVVVVVFFHHnnss",
"jjjjjjjjjjjjjjjjjjjjjjjjjjjjjjjjjjjjjjjjjjjjjjjjjjjjjjjjjjjjjjjj",
"jjjjjjjjjjjjjjjjjjjjjjjjjjjjjjjjjjjjjjjjjjjjjjjjjjjjjjjjjjjjjjjj",
"VVMMMMnnMMssVVVVVVVVVVVVSSZZDDDDVVMMMMnnMMssVVVVVVVVVVVVSSZZDDDD",
"VVMMMMnnMMssVVVVVVVVVVVVSSZZDDDDVVMMMMnnMMssVVVVVVVVVVVVSSZZDDDD",
"SSKKMMnnJJssnnSSSSSSSSSSSSPPIIUUSSKKMMnnJJssnnSSSSSSSSSSSSPPIIUU",
"SSKKMMnnJJssnnSSSSSSSSSSSSPPIIUUSSKKMMnnJJssnnSSSSSSSSSSSSPPIIUU",
"MMVVVVMMVVssSSSSSSVVVVVVFFVVMMmmMMVVVVMMVVssSSSSSSVVVVVVFFVVMMmm",
"MMVVVVMMVVssSSSSSSVVVVVVFFVVMMmmMMVVVVMMVVssSSSSSSVVVVVVFFVVMMmm",
"jjjjjjjjjjjjjjjjjjjjjjjjjjjjjjjjju@                     @yjjjjjj",
"jjjjjjjjjjjjjjjjjjjjjjjjjjjjjjjjgX                        yjjjjj",
"UUMMVVVVVVSSVVVVVVSSZZDDDDVVMMssx T(((((((((((((((((((((E qVMMss",
"UUMMVVVVVVSSVVVVVVSSZZDDDDVVMMssx T(((((((((((((((((((((E qVMMss",
"KKKKSSSSSSSSSSVVSSSSPPVVUUSSKv63t T(((((((((((((((((((((E eetcss",
"KKKKSSSSSSSSSSVVSSSSPPVVUUSSv.    T(((((((((((((((((((((E     rs",
"MMUUVVVVVVFFVVVVVVFFVVMMmmMM0 REEEQ((((EEEEEEEEEEEEE^(((!EEEE +s",
"MMUUVVVVVVFFVVVVVVFFVVMMmmMM- !((((((((             !((((((((  s",
"jjjjjjjjjjjjjjjjjjjjjjjjjjjj$ !((((((((  555555555$ !((((((((  j",
"jjjjjjjjjjjjjjjjjjjjjjjjjjjj$ !((((((((  jjjjjjjjj$ !((((((((  j",
"MMSSVVMMMMssbbMMMMnnMMMMDDDD- !((((((((  MssbbMMMM* !((((((((  M",
"MMSSVVMMMMssbbMMMMnnMMMMDDDD- !((((((((  MssbbMMMM* !((((((((  M",
"SSSSSSKKSSssNNLLnnnnnnnnIIUU: !((((((((  SssNNLLnn* !((((((((  K",
"SSSSSSKKSSssNNLLnnnnnnnnIIUU: !((((((((  :##--,,*** !((((((((  K",
"VVSSMMVVVVssnnDDZZMMnnVVMMmm= !((((((((             !((((((((  V",
"VVSSMMVVVVssnnDDZZMMnnVVMMmm9 YTTTE((((!!!!!!!!!!!!!/(((QTTTT &V",
"jjjjjjjjjjjjjjjjjjjjjjjjjjjjjO    T(((((((((((((((((((((E    Xuj",
"jjjjjjjjjjjjjjjjjjjjjjjjjjjjji855 T(((((((((((((((((((((E 555yjj",
"VVAABBSSVVVVMMMMMMnnMMMMSSSSh.    T(((((((((((((((((((((E     rs",
"VVAABBSSVVVVMMMMMMnnMMMMSSSS7 REEEQ((((EEEEEEEEEEEEE^(((!EEEE +s",
"JJVVIISSSSSSSSnnnnnnnnSSFFII> !((((((((             !((((((((  s",
"JJVVIISSSSSSSSnnnnnnnnSSFFII> !((((((((  eeeee0000* !((((((((  s",
"VVSSCCVVVVVVSSSSnnVVVVVVFFHH* !((((((((  VVVSSSSnn- !((((((((  s",
"VVSSCCVVVVVVSSSSnnVVVVVVFFHH* !((((((((  VVVSSSSnn- !((((((((  s",
"jjjjjjjjjjjjjjjjjjjjjjjjjjjj$ !((((((((  jjjjjjjjj$ !((((((((  j",
"jjjjjjjjjjjjjjjjjjjjjjjjjjjj$ !((((((((  jjjjjjjjj$ !((((((((  j",
"VVMMMMnnMMssVVVVVVVVVVVVSSZZ: !((((((((  MssVVVVVV- !((((((((  D",
"VVMMMMnnMMssVVVVVVVVVVVVSSZZ: !((((((((  MssVVVVVV- !((((((((  D",
"SSKKMMnnJJssnnSSSSSSSSSSSSPP< !((((((((  JssnnSSSS: !((((((((  U",
"SSKKMMnnJJssnnSSSSSSSSSSSSPP< !((((((((  JssnnSSSS: !((((((((  U",
"MMVVVVMMVVssSSSSSSVVVVVVFFVV= !((((((((  awwffffff- !((((((((  m",
"MMVVVVMMVVssSSSSSSVVVVVVFFVV= !((((((((             !((((((((  m",
"jjjjjjjjjjjjjjjjjjjjjjjjjjjj2 W!!!~((((TTTTTTTTTTTTT~(((^!!!! @j",
"jjjjjjjjjjjjjjjjjjjjjjjjjjjjr     T(((((((((((((((((((((E     4j",
"UUMMVVVVVVSSVVVVVVSSZZDDDDVVMp1#< T(((((((((((((((((((((E --=9ss",
"UUMMVVVVVVSSVVVVVVSSZZDDDDVVMMssx T(((((((((((((((((((((E qVMMss",
"KKKKSSSSSSSSSSVVSSSSPPVVUUSSKKssk T(((((((((((((((((((((E eSKKss",
"KKKKSSSSSSSSSSVVSSSSPPVVUUSSKKssGo                        lSKKss",
"MMUUVVVVVVFFVVVVVVFFVVMMmmMMVVssMz;                     %dMMVVss",
"MMUUVVVVVVFFVVVVVVFFVVMMmmMMVVssMMUUVVVVVVFFVVVVVVFFVVMMmmMMVVss",
"jjjjjjjjjjjjjjjjjjjjjjjjjjjjjjjjjjjjjjjjjjjjjjjjjjjjjjjjjjjjjjjj",
"jjjjjjjjjjjjjjjjjjjjjjjjjjjjjjjjjjjjjjjjjjjjjjjjjjjjjjjjjjjjjjjj",
"MMSSVVMMMMssbbMMMMnnMMMMDDDDVVMMMMSSVVMMMMssbbMMMMnnMMMMDDDDVVMM",
"MMSSVVMMMMssbbMMMMnnMMMMDDDDVVMMMMSSVVMMMMssbbMMMMnnMMMMDDDDVVMM",
"SSSSSSKKSSssNNLLnnnnnnnnIIUUSSKKSSSSSSKKSSssNNLLnnnnnnnnIIUUSSKK",
"SSSSSSKKSSssNNLLnnnnnnnnIIUUSSKKSSSSSSKKSSssNNLLnnnnnnnnIIUUSSKK",
"VVSSMMVVVVssnnDDZZMMnnVVMMmmMMVVVVSSMMVVVVssnnDDZZMMnnVVMMmmMMVV",
"VVSSMMVVVVssnnDDZZMMnnVVMMmmMMVVVVSSMMVVVVssnnDDZZMMnnVVMMmmMMVV",
"jjjjjjjjjjjjjjjjjjjjjjjjjjjjjjjjjjjjjjjjjjjjjjjjjjjjjjjjjjjjjjjj",
"jjjjjjjjjjjjjjjjjjjjjjjjjjjjjjjjjjjjjjjjjjjjjjjjjjjjjjjjjjjjjjjj"
};
