/* XPM */
static char *result[] = {
/* columns rows colors chars-per-pixel */
"64 64 77 1 ",
"  c black",
". c #000101",
"X c #000B0B",
"o c #000E0F",
"O c #001010",
"+ c #001111",
"@ c #001212",
"# c #001313",
"$ c #001415",
"% c #001717",
"& c #001718",
"* c #001818",
"= c #001819",
"- c #001919",
"; c #001B1C",
": c #001F1F",
"> c #002222",
", c #002323",
"< c #002525",
"1 c #002727",
"2 c #002828",
"3 c #002B2C",
"4 c #002C2D",
"5 c #002D2D",
"6 c #002E2E",
"7 c #003031",
"8 c #003131",
"9 c #003233",
"0 c #003333",
"q c #003434",
"w c #003435",
"e c #003838",
"r c #003C3C",
"t c #003E3F",
"y c #004243",
"u c #004343",
"i c #004344",
"p c #004546",
"a c #004747",
"s c #004949",
"d c #00484A",
"f c #00494A",
"g c #004A4A",
"h c #004C4D",
"j c #004C4E",
"k c #005253",
"l c #005354",
"z c #005455",
"x c #005657",
"c c #005758",
"v c #00595A",
"b c #005A5B",
"n c #005B5B",
"m c #005B5C",
"M c #005C5D",
"N c #005D5E",
"B c #005E60",
"V c #005F60",
"C c #005F61",
"Z c #006061",
"A c #006062",
"S c #006162",
"D c #006263",
"F c #006365",
"G c #006465",
"H c #006566",
"J c #006769",
"K c #006869",
"L c #596162",
"P c #768082",
"I c #838E90",
"U c #8F9B9D",
"Y c #9BA7AA",
"T c #B1BFC1",
"R c #BBCACC",
"E c #C5D5D7",
"W c #D8E9EC",
/* pixels */
"mmBBnnVVmmmmvvvvvvxxvvvvVVVVxxuummBBnnVVmmmmvvvvvvxxvvvvVVVVxxuu",
"mmBBnnVVmmmmvvvvvvxxvvvvVVVVxxuummBBnnVVmmmmvvvvvvxxvvvvVVVVxxuu",
"DDmmJJVVVVVVVVxxxxxxxxVVZZJJDDuuDDmmJJVVVVVVVVxxxxxxxxVVZZJJDDuu",
"DDmmJJVVVVVVVVxxxxxxxxVVZZJJDDuuDDmmJJVVVVVVVVxxxxxxxxVVZZJJDDuu",
"mmVVMMmmmmmmVVVVxxmmmmmmZZSSxxuummVVMMmmmmmmVVVVxxmmmmmmZZSSxxuu",
"mmVVMMmmmmmmVVVVxxmmmmmmZZSSxxuummVVMMmmmmmmVVVVxxmmmmmmZZSSxxuu",
"ssssssssssssssssssssssssssssssssssssssssssssssssssssssssssssssss",
"ssssssssssssssssssssssssssssssssssssssssssssssssssssssssssssssss",
"mmvvvvxxvvuummmmmmmmmmmmVVNNCCCCmmvvvvxxvvuummmmmmmmmmmmVVNNCCCC",
"mmvvvvxxvvuummmmmmmmmmmmVVNNCCCCmmvvvvxxvvuummmmmmmmmmmmVVNNCCCC",
"VVFFvvxxDDuuxxVVVVVVVVVVVVHHJJKKVVFFvvxxDDuuxxVVVVVVVVVVVVHHJJKK",
"VVFFvvxxDDuuxxVVVVVVVVVVVVHHJJKKVVFFvvxxDDuuxxVVVVVVVVVVVVHHJJKK",
"vvmmmmvvmmuuVVVVVVmmmmmmZZmmvvccvvmmmmvvmmuuVVVVVVmmmmmmZZmmvvcc",
"vvmmmmvvmmuuVVVVVVmmmmmmZZmmvvccvvmmmmvvmmuuVVVVVVmmmmmmZZmmvvcc",
"sssssssssssssssssssssssssssssssssr+                     +essssss",
"ssssssssssssssssssssssssssssssssaX                        esssss",
"KKvvmmmmmmVVmmmmmmVVNNCCCCmmvvuuh LWWWWWWWWWWWWWWWWWWWWWI 7mvvuu",
"KKvvmmmmmmVVmmmmmmVVNNCCCCmmvvuuh LWWWWWWWWWWWWWWWWWWWWWI 7mvvuu",
"FFFFVVVVVVVVVVmmVVVVHHmmKKVVFl2,w LWWWWWWWWWWWWWWWWWWWWWI 99wjuu",
"FFFFVVVVVVVVVVmmVVVVHHmmKKVVl.    LWWWWWWWWWWWWWWWWWWWWWI     0u",
"vvKKmmmmmmZZmmmmmmZZmmvvccvv6 PIIIYWWWWIIIIIIIIIIIIIEWWWTIIII Ou",
"vvKKmmmmmmZZmmmmmmZZmmvvccvv* TWWWWWWWW             TWWWWWWWW  u",
"ssssssssssssssssssssssssssss# TWWWWWWWW  111111111# TWWWWWWWW  s",
"ssssssssssssssssssssssssssss# TWWWWWWWW  sssssssss# TWWWWWWWW  s",
"vvVVmmvvvvuuzzvvvvxxvvvvCCCC* TWWWWWWWW  vuuzzvvvv% TWWWWWWWW  v",
"vvVVmmvvvvuuzzvvvvxxvvvvCCCC* TWWWWWWWW  vuuzzvvvv% TWWWWWWWW  v",
"VVVVVVFFVVuubbGGxxxxxxxxJJKK- TWWWWWWWW  VuubbGGxx% TWWWWWWWW  F",
"VVVVVVFFVVuubbGGxxxxxxxxJJKK- TWWWWWWWW  VuubbGGxx% TWWWWWWWW  F",
"mmVVvvmmmmuuxxCCNNvvxxmmvvcc& TWWWWWWWW  muuxxCCNN& TWWWWWWWW  m",
"mmVVvvmmmmuuxxCCNNvvxxmmvvcc& TWWWWWWWW  muuxxCCNN& TWWWWWWWW  m",
"ssssssssssssssssssssssssssss# TWWWWWWWW  sssssssss# TWWWWWWWW  s",
"ssssssssssssssssssssssssssss# TWWWWWWWW  111111111# TWWWWWWWW  s",
"mmBBnnVVmmmmvvvvvvxxvvvvVVVV% TWWWWWWWW             TWWWWWWWW  u",
"mmBBnnVVmmmmvvvvvvxxvvvvVVVV3 PIIIYWWWWIIIIIIIIIIIIIEWWWWWWWW  u",
"DDmmJJVVVVVVVVxxxxxxxxVVZZJJk.    LWWWWWWWWWWWWWWWWWWWWWWWWWW  u",
"DDmmJJVVVVVVVVxxxxxxxxVVZZJJDk2,q LWWWWWWWWWWWWWWWWWWWWWWWWWW  u",
"mmVVMMmmmmmmVVVVxxmmmmmmZZSSxxuuy LWWWWWWWWWWWWWWWWWWWWWWWWWW  u",
"mmVVMMmmmmmmVVVVxxmmmmmmZZSSxxuuy LWWWWWWWWWWWWWWWWWWWWWWWWWW  u",
"ssssssssssssssssssssssssssssssssaX                  TWWWWWWWW  s",
"sssssssssssssssssssssssssssssssssr+                 TWWWWWWWW  s",
"mmvvvvxxvvuummmmmmmmmmmmVVNNCi4-**&&&&%3vvuummmmmm* TWWWWWWWW  C",
"mmvvvvxxvvuummmmmmmmmmmmVVNNi           5vuummmmmm* TWWWWWWWW  C",
"VVFFvvxxDDuuxxVVVVVVVVVVVVHH7 UTTTTTTTT %DuuxxVVVV- TWWWWWWWW  K",
"VVFFvvxxDDuuxxVVVVVVVVVVVVHH; TWWWWWWWW  DuuxxVVVV- TWWWWWWWW  K",
"vvmmmmvvmmuuVVVVVVmmmmmmZZmm& TWWWWWWWW  y88pppppp* TWWWWWWWW  c",
"vvmmmmvvmmuuVVVVVVmmmmmmZZmm& TWWWWWWWW             TWWWWWWWW  c",
"ssssssssssssssssssssssssssss> UTTTRWWWWLLLLLLLLLLLLLRWWWETTTT +s",
"ssssssssssssssssssssssssssss0     LWWWWWWWWWWWWWWWWWWWWWI     <s",
"KKvvmmmmmmVVmmmmmmVVNNCCCCmmvt:@; LWWWWWWWWWWWWWWWWWWWWWI **&5uu",
"KKvvmmmmmmVVmmmmmmVVNNCCCCmmvvuuh LWWWWWWWWWWWWWWWWWWWWWI 7mvvuu",
"FFFFVVVVVVVVVVmmVVVVHHmmKKVVFFuud LWWWWWWWWWWWWWWWWWWWWWI 9VFFuu",
"FFFFVVVVVVVVVVmmVVVVHHmmKKVVFFuuAo                        fVFFuu",
"vvKKmmmmmmZZmmmmmmZZmmvvccvvmmuuvg=                     $ivvmmuu",
"vvKKmmmmmmZZmmmmmmZZmmvvccvvmmuuvvKKmmmmmmZZmmmmmmZZmmvvccvvmmuu",
"ssssssssssssssssssssssssssssssssssssssssssssssssssssssssssssssss",
"ssssssssssssssssssssssssssssssssssssssssssssssssssssssssssssssss",
"vvVVmmvvvvuuzzvvvvxxvvvvCCCCmmvvvvVVmmvvvvuuzzvvvvxxvvvvCCCCmmvv",
"vvVVmmvvvvuuzzvvvvxxvvvvCCCCmmvvvvVVmmvvvvuuzzvvvvxxvvvvCCCCmmvv",
"VVVVVVFFVVuubbGGxxxxxxxxJJKKVVFFVVVVVVFFVVuubbGGxxxxxxxxJJKKVVFF",
"VVVVVVFFVVuubbGGxxxxxxxxJJKKVVFFVVVVVVFFVVuubbGGxxxxxxxxJJKKVVFF",
"mmVVvvmmmmuuxxCCNNvvxxmmvvccvvmmmmVVvvmmmmuuxxCCNNvvxxmmvvccvvmm",
"mmVVvvmmmmuuxxCCNNvvxxmmvvccvvmmmmVVvvmmmmuuxxCCNNvvxxmmvvccvvmm",
"ssssssssssssssssssssssssssssssssssssssssssssssssssssssssssssssss",
"ssssssssssssssssssssssssssssssssssssssssssssssssssssssssssssssss"
};
