/* XPM */
static char *result[] = {
/* columns rows colors chars-per-pixel */
"64 64 74 1 ",
"  c black",
". c #000101",
"X c #000B0B",
"o c #000F0F",
"O c #001111",
"+ c #001313",
"@ c #001515",
"# c #001516",
"$ c #001717",
"% c #001718",
"& c #001818",
"* c #001819",
"= c #001919",
"- c #001A1B",
"; c #001B1C",
": c #002222",
"> c #002525",
", c #002727",
"< c #002C2C",
"1 c #002E2E",
"2 c #1F2223",
"3 c #003031",
"4 c #003233",
"5 c #003333",
"6 c #003536",
"7 c #003838",
"8 c #00393A",
"9 c #003C3C",
"0 c #363B3C",
"q c #003F40",
"w c #004041",
"e c #004142",
"r c #004243",
"t c #004343",
"y c #004445",
"u c #004546",
"i c #004647",
"p c #004747",
"a c #004949",
"s c #00494A",
"d c #004A4A",
"f c #004A4B",
"g c #004B4C",
"h c #004F50",
"j c #005354",
"k c #005455",
"l c #005657",
"z c #005758",
"x c #00595A",
"c c #005A5B",
"v c #005B5B",
"b c #005B5C",
"n c #005C5D",
"m c #005D5E",
"M c #005E60",
"N c #005F60",
"B c #005F61",
"V c #006061",
"C c #006162",
"Z c #006263",
"A c #006365",
"S c #006465",
"D c #006566",
"F c #006769",
"G c #006869",
"H c #596162",
"J c #768082",
"K c #838E90",
"L c #8F9B9D",
"P c #9BA7AA",
"I c #B1BFC1",
"U c #BBCACC",
"Y c #C5D5D7",
"T c #D8E9EC",
/* pixels */
"bbMMvvNNbbbbxxxxxxllxxxxNNNNllttbbMMvvNNbbbbxxxxxxllxxxxNNNNlltt",
"bbMMvvNNbbbbxxxxxxllxxxxNNNNllttbbMMvvNNbbbbxxxxxxllxxxxNNNNlltt",
"ZZbbFFNNNNNNNNllllllllNNVVFFZZttZZbbFFNNNNNNNNllllllllNNVVFFZZtt",
"ZZbbFFNNNNNNNNllllllllNNVVFFZZttZZbbFFNNNNNNNNllllllllNNVVFFZZtt",
"bbNNnnbbbbbbNNNNllbbbbbbVVCCllttbbNNnnbbbbbbNNNNllbbbbbbVVCClltt",
"bbNNnnbbbbbbNNNNllbbbbbbVVCCllttbbNNnnbbbbbbNNNNllbbbbbbVVCClltt",
"aaaaaaaaaaaaaaaaaaaaaaaaaaaaaaaaaaaaaaaaaaaaaaaaaaaaaaaaaaaaaaaa",
"aaaaaaaaaaaaaaaaaaaaaaaaaaaaaaaaaaaaaaaaaaaaaaaaaaaaaaaaaaaaaaaa",
"bbxxxxllxxttbbbbbbbbbbbbNNmmBBBBbbxxxxllxxttbbbbbbbbbbbbNNmmBBBB",
"bbxxxxllxxttbbbbbbbbbbbbNNmmBBBBbbxxxxllxxttbbbbbbbbbbbbNNmmBBBB",
"NNAAxxllZZttllNNNNNNNNNNNNDDFFGGNNAAxxllZZttllNNNNNNNNNNNNDDFFGG",
"NNAAxxllZZttllNNNNNNNNNNNNDDFFGGNNAAxxllZZttllNNNNNNNNNNNNDDFFGG",
"xxbbbbxxbbttNNNNNNbbbbbbVVbbxxzzxxbbbbxxbbttNNNNNNbbbbbbVVbbxxzz",
"xxbbbbxxbbttNNNNNNbbbbbbVVbbxxzzxxbbbbxxbbttNNNNNNbbbbbbVVbbxxzz",
"aaaaaaaaaaaaaaaaaaaaa9O                     O7aaaaaaaaaaaaaaaaaa",
"aaaaaaaaaaaaaaaaaaaapX                        7aaaaaaaaaaaaaaaaa",
"GGxxbbbbbbNNbbbbbbNNy HTTTTTTTTTTTTTTTTTTTTTK 3bbbNNmmBBBBbbxxtt",
"GGxxbbbbbbNNbbbbbbNNy HTTTTTTTTTTTTTTTTTTTTTK 3bbbNNmmBBBBbbxxtt",
"AAAANNNNNNNNNNbbNh846 HTTTTTTTTTTTTTTTTTTTTTK 334sNNDDbbGGNNAAtt",
"AAAANNNNNNNNNNbbh.    HTTTTTTTTTTTTTTTTTTTTTK     sNDDbbGGNNAAtt",
"xxGGbbbbbbVVbbbb1 JKKKPTTTTKKKKKKKKKKKKKYTTTIKKKK $Vbbxxzzxxbbtt",
"xxGGbbbbbbVVbbbb& ITTTTTTTT             ITTTTTTTT  Vbbxxzzxxbbtt",
"aaaaaaaaaaaaaaaa+ ITTTTTTTT  ,,,,,,,,,+ ITTTTTTTT  aaaaaaaaaaaaa",
"aaaaaaaaaaaaaaaa+ ITTTTTTTT  aaaaa=     ITTTTTTTT  aaaaaaaaaaaaa",
"xxNNbbxxxxttkkxx% ITTTTTTTT  bxxxj 2HHHHUTTTTTTTT  lxxxxBBBBbbxx",
"xxNNbbxxxxttkkxx% ITTTTTTTT  bxxxe HTTTTTTTTTTTTT  lxxxxBBBBbbxx",
"NNNNNNAANNttccSS$ ITTTTTTTT  NAANu HTTTTTTTTTTTTT  lllllFFGGNNAA",
"NNNNNNAANNttccSS$ ITTTTTTTT  Nj4== HTTTTTTTTTTTTT  lllllFFGGNNAA",
"bbNNxxbbbbttllBB* ITTTTTTTT  f.    HTTTTTTTTTTTTT  xllbbxxzzxxbb",
"bbNNxxbbbbttllBB* ITTTTTTTT  6 JIIIUTTTTTTTTTTTTT  xllbbxxzzxxbb",
"aaaaaaaaaaaaaaaa+ ITTTTTTTT  , KTTTTTTTTTTTTTTTTT  aaaaaaaaaaaaa",
"aaaaaaaaaaaaaaaa+ ITTTTTTTT  , KTTTTTTTTTTTTTTTTT  aaaaaaaaaaaaa",
"bbMMvvNNbbbbxxxx% ITTTTTTTT    KTTTTTTTTTTTTTTTTT  lxxxxNNNNlltt",
"bbMMvvNNbbbbxxxx% ITTTTTTTTKKKKITTTYKKKKYTTTTTTTT  lxxxxNNNNlltt",
"ZZbbFFNNNNNNNNll$ ITTTTTTTTTTTTTTTTI    ITTTTTTTT  lllNNVVFFZZtt",
"ZZbbFFNNNNNNNNll$ ITTTTTTTTTTTTTTTTI ;= ITTTTTTTT  lllNNVVFFZZtt",
"bbNNnnbbbbbbNNNN$ ITTTTTTTTTTTTTTTTI && ITTTTTTTT  bbbbbVVCClltt",
"bbNNnnbbbbbbNNNN$ ITTTTTTTTTTTTTTTTI && ITTTTTTTT  bbbbbVVCClltt",
"aaaaaaaaaaaaaaaa+ ITTTTTTTTTTTTK     >+ ITTTTTTTT  aaaaaaaaaaaaa",
"aaaaaaaaaaaaaaaa+ ITTTTTTTTTTTTK   O>a+ ITTTTTTTT  aaaaaaaaaaaaa",
"bbxxxxllxxttbbbb& ITTTTTTTTTTTTK 3xxxx$ ITTTTTTTT  bbbbbNNmmBBBB",
"bbxxxxllxxttbbbb& ITTTTTTTTTTTTK 3xxxx$ ITTTTTTTT  bbbbbNNmmBBBB",
"NNAAxxllZZttllNN= ITTTTTTTTHHHH0 sAAxx$ ITTTTTTTT  NNNNNNNDDFFGG",
"NNAAxxllZZttllNN= ITTTTTTTT     -NAAxx$ ITTTTTTTT  NNNNNNNDDFFGG",
"xxbbbbxxbbttNNNN= ITTTTTTTT  eqqeerrrr% ITTTTTTTT  bbbbbVVbbxxzz",
"xxbbbbxxbbttNNNN= ITTTTTTTT             ITTTTTTTT  bbbbbVVbbxxzz",
"aaaaaaaaaaaaaaaa: LIIIUTTTTHHHHHHHHHHHHHUTTTYIIII Oaaaaaaaaaaaaa",
"aaaaaaaaaaaaaaaa5     HTTTTTTTTTTTTTTTTTTTTTK     >aaaaaaaaaaaaa",
"GGxxbbbbbbNNbbbbbw<=* HTTTTTTTTTTTTTTTTTTTTTK &&&1NNmmBBBBbbxxtt",
"GGxxbbbbbbNNbbbbbbNNy HTTTTTTTTTTTTTTTTTTTTTK 3bbbNNmmBBBBbbxxtt",
"AAAANNNNNNNNNNbbNNNNd HTTTTTTTTTTTTTTTTTTTTTK 3bNNNNDDbbGGNNAAtt",
"AAAANNNNNNNNNNbbNNNNZo                        ibNNNNDDbbGGNNAAtt",
"xxGGbbbbbbVVbbbbbbVVbg@                     #ibbbbVVbbxxzzxxbbtt",
"xxGGbbbbbbVVbbbbbbVVbbxxzzxxbbttxxGGbbbbbbVVbbbbbbVVbbxxzzxxbbtt",
"aaaaaaaaaaaaaaaaaaaaaaaaaaaaaaaaaaaaaaaaaaaaaaaaaaaaaaaaaaaaaaaa",
"aaaaaaaaaaaaaaaaaaaaaaaaaaaaaaaaaaaaaaaaaaaaaaaaaaaaaaaaaaaaaaaa",
"xxNNbbxxxxttkkxxxxllxxxxBBBBbbxxxxNNbbxxxxttkkxxxxllxxxxBBBBbbxx",
"xxNNbbxxxxttkkxxxxllxxxxBBBBbbxxxxNNbbxxxxttkkxxxxllxxxxBBBBbbxx",
"NNNNNNAANNttccSSllllllllFFGGNNAANNNNNNAANNttccSSllllllllFFGGNNAA",
"NNNNNNAANNttccSSllllllllFFGGNNAANNNNNNAANNttccSSllllllllFFGGNNAA",
"bbNNxxbbbbttllBBmmxxllbbxxzzxxbbbbNNxxbbbbttllBBmmxxllbbxxzzxxbb",
"bbNNxxbbbbttllBBmmxxllbbxxzzxxbbbbNNxxbbbbttllBBmmxxllbbxxzzxxbb",
"aaaaaaaaaaaaaaaaaaaaaaaaaaaaaaaaaaaaaaaaaaaaaaaaaaaaaaaaaaaaaaaa",
"aaaaaaaaaaaaaaaaaaaaaaaaaaaaaaaaaaaaaaaaaaaaaaaaaaaaaaaaaaaaaaaa"
};
