/* XPM */
static char *result[] = {
/* columns rows colors chars-per-pixel */
"64 64 70 1 ",
"  c black",
". c #000101",
"X c #000B0B",
"o c #000E0E",
"O c #001111",
"+ c #001313",
"@ c #001415",
"# c #001516",
"$ c #001718",
"% c #001818",
"& c #001919",
"* c #001B1C",
"= c #002525",
"- c #002727",
"; c #00292A",
": c #002D2D",
"> c #002E2E",
", c #002F30",
"< c #003030",
"1 c #003031",
"2 c #003233",
"3 c #003435",
"4 c #003535",
"5 c #003738",
"6 c #003838",
"7 c #003C3C",
"8 c #003C3D",
"9 c #003E3F",
"0 c #003F40",
"q c #004243",
"w c #004343",
"e c #004445",
"r c #004546",
"t c #004647",
"y c #004747",
"u c #004949",
"i c #00494A",
"p c #004A4A",
"a c #004B4D",
"s c #004C4D",
"d c #004D4E",
"f c #005455",
"g c #005657",
"h c #005758",
"j c #00595A",
"k c #005A5B",
"l c #005B5B",
"z c #005B5C",
"x c #005C5D",
"c c #005D5E",
"v c #005E60",
"b c #005F60",
"n c #005F61",
"m c #006061",
"M c #006162",
"N c #006263",
"B c #006365",
"V c #006465",
"C c #006566",
"Z c #006769",
"A c #006869",
"S c #494F51",
"D c #596162",
"F c #768082",
"G c #838E90",
"H c #8F9B9D",
"J c #9BA7AA",
"K c #B1BFC1",
"L c #BBCACC",
"P c #D8E9EC",
/* pixels */
"zzvvllbbzzzzjjjjjjggjjjjbbbbggwwzzvvllbbzzzzjjjjjjggjjjjbbbbggww",
"zzvvllbbzzzzjjjjjjggjjjjbbbbggwwzzvvllbbzzzzjjjjjjggjjjjbbbbggww",
"NNzzZZbbbbbbbbggggggggbbmmZZNNwwNNzzZZbbbbbbbbggggggggbbmmZZNNww",
"NNzzZZbbbbbbbbggggggggbbmmZZNNwwNNzzZZbbbbbbbbggggggggbbmmZZNNww",
"zzbbxxzzzzzzbbbbggzzzzzzmmMMggwwzzbbxxzzzzzzbbbbggzzzzzzmmMMggww",
"zzbbxxzzzzzzbbbbggzzzzzzmmMMggwwzzbbxxzzzzzzbbbbggzzzzzzmmMMggww",
"uuuuuuuuuuuuuuuuuuuuuuuuuuuuuuuuuuuuuuuuuuuuuuuuuuuuuuuuuuuuuuuu",
"uuuuuuuuuuuuuuuuuuuuuuuuuuuuuuuuuuuuuuuuuuuuuuuuuuuuuuuuuuuuuuuu",
"zzjjjjggjjwwzzzzzzzzzzzzbbccnnnnzzjjjjggjjwwzzzzzzzzzzzzbbccnnnn",
"zzjjjjggjjwwzzzzzzzzzzzzbbccnnnnzzjjjjggjjwwzzzzzzzzzzzzbbccnnnn",
"bbBBjjggNNwwggbbbbbbbbbbbbCCZZAAbbBBjjggNNwwggbbbbbbbbbbbbCCZZAA",
"bbBBjjggNNwwggbbbbbbbbbbbbCCZZAAbbBBjjggNNwwggbbbbbbbbbbbbCCZZAA",
"jjzzzzjjzzwwbbbbbbzzzzzzmmzzjjhhjjzzzzjjzzwwbbbbbbzzzzzzmmzzjjhh",
"jjzzzzjjzzwwbbbbbbzzzzzzmmzzjjhhjjzzzzjjzzwwbbbbbbzzzzzzmmzzjjhh",
"uuuuuuuuuuuuuuuuuuuuuuuuuuu7O        O6uuuuuuuuuuuuuuuuuuuuuuuuu",
"uuuuuuuuuuuuuuuuuuuuuuuuuuyX           6uuuuuuuuuuuuuuuuuuuuuuuu",
"AAjjzzzzzzbbzzzzzzbbccnnnnq DPPPPPPPPG 1zzbbzzzzzzbbccnnnnzzjjww",
"AAjjzzzzzzbbzzzzzzbbccnnnnq DPPPPPPPPG 1zzbbzzzzzzbbccnnnnzzjjww",
"BBBBbbbbbbbbbbzzbbbbCCzs952 DPPPPPPPPG 2bbbbbbzzbbbbCCzzAAbbBBww",
"BBBBbbbbbbbbbbzzbbbbCCs.    DPPPPPPPPG 2bbbbbbzzbbbbCCzzAAbbBBww",
"jjAAzzzzzzmmzzzzzzmmzz: FGGGJPPPPPPPPG 1zzmmzzzzzzmmzzjjhhjjzzww",
"jjAAzzzzzzmmzzzzzzmmzz$ KPPPPPPPPPPPPG 1zzmmzzzzzzmmzzjjhhjjzzww",
"uuuuuuuuuuuuuuuuuuuuuu+ KPPPPPPPPPPPPG -uuuuuuuuuuuuuuuuuuuuuuuu",
"uuuuuuuuuuuuuuuuuuuuuu+ KPPPPPPPPPPPPG -uuuuuuuuuuuuuuuuuuuuuuuu",
"jjbbzzjjjjwwffjjjjggjj; HKKKLPPPPPPPPG ,jjwwffjjjjggjjjjnnnnzzjj",
"jjbbzzjjjjwwffjjjjggjj9     DPPPPPPPPG ,jjwwffjjjjggjjjjnnnnzzjj",
"bbbbbbBBbbwwkkVVggggggg81** DPPPPPPPPG 3bbwwkkVVggggggggZZAAbbBB",
"bbbbbbBBbbwwkkVVggggggggZZs DPPPPPPPPG 3bbwwkkVVggggggggZZAAbbBB",
"zzbbjjzzzzwwggnnccjjggzzjj0 DPPPPPPPPG 1zzwwggnnccjjggzzjjhhjjzz",
"zzbbjjzzzzwwggnnccjjggzzjj0 DPPPPPPPPG 1zzwwggnnccjjggzzjjhhjjzz",
"uuuuuuuuuuuuuuuuuuuuuuuuuu4 DPPPPPPPPG -uuuuuuuuuuuuuuuuuuuuuuuu",
"uuuuuuuuuuuuuuuuuuuuuuuuuu4 DPPPPPPPPG -uuuuuuuuuuuuuuuuuuuuuuuu",
"zzvvllbbzzzzjjjjjjggjjjjbbr DPPPPPPPPG 2zzzzjjjjjjggjjjjbbbbggww",
"zzvvllbbzzzzjjjjjjggjjjjbbr DPPPPPPPPG 2zzzzjjjjjjggjjjjbbbbggww",
"NNzzZZbbbbbbbbggggggggbbmma DPPPPPPPPG 2bbbbbbggggggggbbmmZZNNww",
"NNzzZZbbbbbbbbggggggggbbmma DPPPPPPPPG 2bbbbbbggggggggbbmmZZNNww",
"zzbbxxzzzzzzbbbbggzzzzzzmmy DPPPPPPPPG 1zzzzbbbbggzzzzzzmmMMggww",
"zzbbxxzzzzzzbbbbggzzzzzzmmy DPPPPPPPPG 1zzzzbbbbggzzzzzzmmMMggww",
"uuuuuuuuuuuuuuuuuuuuuuuuuu4 DPPPPPPPPG -uuuuuuuuuuuuuuuuuuuuuuuu",
"uuuuuuuuuuuuuuuuuuuuuuuuuu4 DPPPPPPPPG -uuuuuuuuuuuuuuuuuuuuuuuu",
"zzjjjjggjjwwzzzzzzzzzzzzbbe DPPPPPPPPG >jjwwzzzzzzzzzzzzbbccnnnn",
"zzjjjjggjjwwzzzzzzzzzzzzbbe DPPPPPPPPG >jjwwzzzzzzzzzzzzbbccnnnn",
"bbBBjjggNNwwggbbbbbbbbbbbbp DPPPPPPPPG >NNwwggbbbbbbbbbbbbCCZZAA",
"bbBBjjggNNwwggbbbbbbbbbbbbp DPPPPPPPPG >NNwwggbbbbbbbbbbbbCCZZAA",
"jjzzzzjjzzwwbbbbbbzzzzzzdtq DPPPPPPPPG ,qiwwbbbbbbzzzzzzmmzzjjhh",
"jjzzzzjjzzwwbbbbbbzzzzz+    DPPPPPPPPG    owbbbbbbzzzzzzmmzzjjhh",
"uuuuuuuuuuuuuuuuuuuuuu= SDDDGPPPPPPPPJDDDS =uuuuuuuuuuuuuuuuuuuu",
"uuuuuuuuuuuuuuuuuuuuuu+ KPPPPPPPPPPPPPPPPK +uuuuuuuuuuuuuuuuuuuu",
"AAjjzzzzzzbbzzzzzzbbcc& KPPPPPPPPPPPPPPPPK &zzzzzzbbccnnnnzzjjww",
"AAjjzzzzzzbbzzzzzzbbcc& KPPPPPPPPPPPPPPPPK &zzzzzzbbccnnnnzzjjww",
"BBBBbbbbbbbbbbzzbbbbCC% KPPPPPPPPPPPPPPPPK &bbzzbbbbCCzzAAbbBBww",
"BBBBbbbbbbbbbbzzbbbbCC>                    <bbzzbbbbCCzzAAbbBBww",
"jjAAzzzzzzmmzzzzzzmmzzj:@                #1mzzzzzzmmzzjjhhjjzzww",
"jjAAzzzzzzmmzzzzzzmmzzjjhhjjzzwwjjAAzzzzzzmmzzzzzzmmzzjjhhjjzzww",
"uuuuuuuuuuuuuuuuuuuuuuuuuuuuuuuuuuuuuuuuuuuuuuuuuuuuuuuuuuuuuuuu",
"uuuuuuuuuuuuuuuuuuuuuuuuuuuuuuuuuuuuuuuuuuuuuuuuuuuuuuuuuuuuuuuu",
"jjbbzzjjjjwwffjjjjggjjjjnnnnzzjjjjbbzzjjjjwwffjjjjggjjjjnnnnzzjj",
"jjbbzzjjjjwwffjjjjggjjjjnnnnzzjjjjbbzzjjjjwwffjjjjggjjjjnnnnzzjj",
"bbbbbbBBbbwwkkVVggggggggZZAAbbBBbbbbbbBBbbwwkkVVggggggggZZAAbbBB",
"bbbbbbBBbbwwkkVVggggggggZZAAbbBBbbbbbbBBbbwwkkVVggggggggZZAAbbBB",
"zzbbjjzzzzwwggnnccjjggzzjjhhjjzzzzbbjjzzzzwwggnnccjjggzzjjhhjjzz",
"zzbbjjzzzzwwggnnccjjggzzjjhhjjzzzzbbjjzzzzwwggnnccjjggzzjjhhjjzz",
"uuuuuuuuuuuuuuuuuuuuuuuuuuuuuuuuuuuuuuuuuuuuuuuuuuuuuuuuuuuuuuuu",
"uuuuuuuuuuuuuuuuuuuuuuuuuuuuuuuuuuuuuuuuuuuuuuuuuuuuuuuuuuuuuuuu"
};
