/* XPM */
static char *result[] = {
/* columns rows colors chars-per-pixel */
"64 64 82 1 ",
"  c black",
". c #000101",
"X c #000B0B",
"o c #000E0E",
"O c #001111",
"+ c #001212",
"@ c #001313",
"# c #001515",
"$ c #001516",
"% c #001617",
"& c #001717",
"* c #001718",
"= c #001818",
"- c #001919",
"; c #001A1B",
": c #001B1C",
"> c #002323",
", c #002727",
"< c #002828",
"1 c #00292A",
"2 c #002B2C",
"3 c #002C2C",
"4 c #002D2D",
"5 c #002E2E",
"6 c #002F30",
"7 c #003030",
"8 c #003031",
"9 c #003233",
"0 c #003434",
"q c #003435",
"w c #003535",
"e c #003536",
"r c #003738",
"t c #003838",
"y c #00393A",
"u c #003C3C",
"i c #003C3D",
"p c #003D3D",
"a c #003E3F",
"s c #003F40",
"d c #004142",
"f c #004243",
"g c #004343",
"h c #004445",
"j c #004546",
"k c #004747",
"l c #004949",
"z c #00494A",
"x c #004A4B",
"c c #004F50",
"v c #005354",
"b c #005455",
"n c #005657",
"m c #005758",
"M c #00595A",
"N c #005A5B",
"B c #005B5B",
"V c #005B5C",
"C c #005C5D",
"Z c #005D5E",
"A c #005E60",
"S c #005F60",
"D c #005F61",
"F c #006061",
"G c #006162",
"H c #006263",
"J c #006365",
"K c #006465",
"L c #006566",
"P c #006769",
"I c #006869",
"U c #494F51",
"Y c #596162",
"T c #768082",
"R c #838E90",
"E c #8F9B9D",
"W c #9BA7AA",
"Q c #B1BFC1",
"! c #BBCACC",
"~ c #C5D5D7",
"^ c #CFDFE2",
"/ c #D8E9EC",
/* pixels */
"VVAABBSSVVVVMMMMMMnnMMMMSSSSnnggVVAABBSSVVVVMMMMMMnnMMMMSSSSnngg",
"VVAABBSSVVVVMMMMMMnnMMMMSSSSnnggVVAABBSSVVVVMMMMMMnnMMMMSSSSnngg",
"HHVVPPSSSSSSSSnnnnnnnnSSFFPPHHggHHVVPPSSSSSSSSnnnnnnnnSSFFPPHHgg",
"HHVVPPSSSSSSSSnnnnnnnnSSFFPPHHggHHVVPPSSSSSSSSnnnnnnnnSSFFPPHHgg",
"VVSSCCVVVVVVSSSSnnVVVVVVFFGGnnggVVSSCCVVVVVVSSSSnnVVVVVVFFGGnngg",
"VVSSCCVVVVVVSSSSnnVVVVVVFFGGnnggVVSSCCVVVVVVSSSSnnVVVVVVFFGGnngg",
"llllllllllllllllllllllllllllllllllllllllllllllllllllllllllllllll",
"llllllllllllllllllllllllllllllllllllllllllllllllllllllllllllllll",
"VVMMMMnnMMggVVVVVVVVVVVVSSZZDDDDVVMMMMnnMMggVVVVVVVVVVVVSSZZDDDD",
"VVMMMMnnMMggVVVVVVVVVVVVSSZZDDDDVVMMMMnnMMggVVVVVVVVVVVVSSZZDDDD",
"SSJJMMnnHHggnnSSSSSSSSSSSSLLPPIISSJJMMnnHHggnnSSSSSSSSSSSSLLPPII",
"SSJJMMnnHHggnnSSSSSSSSSSSSLLPPIISSJJMMnnHHggnnSSSSSSSSSSSSLLPPII",
"MMVVVVMMVVggSSSSSSVVVVVVFFVVMMmmMMVVVVMMVVggSSSSSSVVVVVVFFVVMMmm",
"MMVVVVMMVVggSSSSSSVVVVVVFFVVMMmmMMVVVVMMVVggSSSSSSVVVVVVFFVVMMmm",
"llllllllllllllllllllluO                     Otllllllllllllllllll",
"llllllllllllllllllllkX                        tlllllllllllllllll",
"IIMMVVVVVVSSVVVVVVSSh Y/////////////////////R 8VVVSSZZDDDDVVMMgg",
"IIMMVVVVVVSSVVVVVVSSh Y/////////////////////R 8VVVSSZZDDDDVVMMgg",
"JJJJSSSSSSSSSSVVScy9e Y/////////////////////R 889zSSLLVVIISSJJgg",
"JJJJSSSSSSSSSSVVc.    Y/////////////////////R     zSLLVVIISSJJgg",
"MMIIVVVVVVFFVVVV5 TRRRW////RRRRRRRRRRRRR~///QRRRR &FVVMMmmMMVVgg",
"MMIIVVVVVVFFVVVV= Q////////             Q////////  FVVMMmmMMVVgg",
"llllllllllllllll@ Q////////  ,,,,,,,,,@ Q////////  lllllllllllll",
"llllllllllllllll@ Q////////  lllllllll@ Q////////  lllllllllllll",
"MMSSVVMMMMggbbMM1 EQQQQQQQQ $VMMMMSSVV* Q////////  nMMMMDDDDVVMM",
"MMSSVVMMMMggbbMMa           5VMMMMSSVV* Q////////  nMMMMDDDDVVMM",
"SSSSSSJJSSggNNKKni<&&&&&:::qSSJJSSSSSS; Q////////  nnnnnPPIISSJJ",
"SSSSSSJJSSggNNKKnnnnnn2&::::--;;------; Q////////  nnnnnPPIISSJJ",
"VVSSMMVVVVggnnDDZZMMn+                  Q////////  MnnVVMMmmMMVV",
"VVSSMMVVVVggnnDDZZMMj UQQQQQQQQQQQQQQQQQ^///WYYYY #MnnVVMMmmMMVV",
"llllllllllllllllllllw Y/////////////////////R    Xulllllllllllll",
"lllllllllllllllllp3,, Y/////////////////////R ,wwkllllllllllllll",
"VVAABBSSVVVVMMMMx.    Y/////////////////////R 6MMMnnMMMMSSSSnngg",
"VVAABBSSVVVVMMMM4 TRRRW////RRRRRRRRRRRRRRRRRY dMMMnnMMMMSSSSnngg",
"HHVVPPSSSSSSSSnn& Q////////                  ovnnnnnnnSSFFPPHHgg",
"HHVVPPSSSSSSSSnn& Q////////  0>>0088rr999999jCnnnnnnnnSSFFPPHHgg",
"VVSSCCVVVVVVSSSS& Q////////  nggVVSSCCVVVVVVSSSSnnVVVVVVFFGGnngg",
"VVSSCCVVVVVVSSSS& Q////////  nggVVSSCCVVVVVVSSSSnnVVVVVVFFGGnngg",
"llllllllllllllll@ Q////////  lllllllllllllllllllllllllllllllllll",
"llllllllllllllll@ Q////////  lllllllllllllllllllllllllllllllllll",
"VVMMMMnnMMggVVVV= Q////////  DDDVVMMMMni1*++=====5VVVVVVSSZZDDDD",
"VVMMMMnnMMggVVVV= Q////////  DDDVVMMMMi           5VVVVVSSZZDDDD",
"SSJJMMnnHHggnnSS- Q////////  PIISSJJMM< EQQQQQQQQ %SSSSSSSLLPPII",
"SSJJMMnnHHggnnSS- Q////////  PIISSJJMM& Q////////  SSSSSSSLLPPII",
"MMVVVVMMVVggSSSS- Q////////  dssddffff* Q////////  VVVVVFFVVMMmm",
"MMVVVVMMVVggSSSS- Q////////             Q////////  VVVVVFFVVMMmm",
"llllllllllllllll@ Q////////YYYYYYYYYYYYY!////////  lllllllllllll",
"llllllllllllllll@ Q//////////////////////////////  lllllllllllll",
"IIMMVVVVVVSSVVVV= Q//////////////////////////////  SZZDDDDVVMMgg",
"IIMMVVVVVVSSVVVV= Q//////////////////////////////  SZZDDDDVVMMgg",
"JJJJSSSSSSSSSSVV- Q//////////////////////////////  SLLVVIISSJJgg",
"JJJJSSSSSSSSSSVV7                                 %SLLVVIISSJJgg",
"MMIIVVVVVVFFVVVVV5&                              $cFVVMMmmMMVVgg",
"MMIIVVVVVVFFVVVVVVFFVVMMmmMMVVggMMIIVVVVVVFFVVVVVVFFVVMMmmMMVVgg",
"llllllllllllllllllllllllllllllllllllllllllllllllllllllllllllllll",
"llllllllllllllllllllllllllllllllllllllllllllllllllllllllllllllll",
"MMSSVVMMMMggbbMMMMnnMMMMDDDDVVMMMMSSVVMMMMggbbMMMMnnMMMMDDDDVVMM",
"MMSSVVMMMMggbbMMMMnnMMMMDDDDVVMMMMSSVVMMMMggbbMMMMnnMMMMDDDDVVMM",
"SSSSSSJJSSggNNKKnnnnnnnnPPIISSJJSSSSSSJJSSggNNKKnnnnnnnnPPIISSJJ",
"SSSSSSJJSSggNNKKnnnnnnnnPPIISSJJSSSSSSJJSSggNNKKnnnnnnnnPPIISSJJ",
"VVSSMMVVVVggnnDDZZMMnnVVMMmmMMVVVVSSMMVVVVggnnDDZZMMnnVVMMmmMMVV",
"VVSSMMVVVVggnnDDZZMMnnVVMMmmMMVVVVSSMMVVVVggnnDDZZMMnnVVMMmmMMVV",
"llllllllllllllllllllllllllllllllllllllllllllllllllllllllllllllll",
"llllllllllllllllllllllllllllllllllllllllllllllllllllllllllllllll"
};
