/* XPM */
static char *result[] = {
/* columns rows colors chars-per-pixel */
"64 64 80 1 ",
"  c black",
". c #000101",
"X c #000F0F",
"o c #001111",
"O c #001212",
"+ c #001313",
"@ c #001414",
"# c #001515",
"$ c #001516",
"% c #001617",
"& c #001717",
"* c #001718",
"= c #001818",
"- c #001819",
"; c #001919",
": c #001B1C",
"> c #002222",
", c #002323",
"< c #002525",
"1 c #002727",
"2 c #002A2B",
"3 c #002C2C",
"4 c #002D2D",
"5 c #002D2E",
"6 c #002E2E",
"7 c #002F2F",
"8 c #003031",
"9 c #003233",
"0 c #003333",
"q c #003434",
"w c #003435",
"e c #003536",
"r c #003738",
"t c #003838",
"y c #00393A",
"u c #003C3C",
"i c #003D3D",
"p c #363B3C",
"a c #003F40",
"s c #004041",
"d c #004142",
"f c #004243",
"g c #004343",
"h c #004445",
"j c #004647",
"k c #004949",
"l c #004A4A",
"z c #004A4B",
"x c #004B4C",
"c c #004C4D",
"v c #004F51",
"b c #005455",
"n c #005657",
"m c #005758",
"M c #00595A",
"N c #005A5B",
"B c #005B5B",
"V c #005B5C",
"C c #005C5D",
"Z c #005D5E",
"A c #005E60",
"S c #005F60",
"D c #005F61",
"F c #006061",
"G c #006162",
"H c #006263",
"J c #006365",
"K c #006465",
"L c #006566",
"P c #006769",
"I c #006869",
"U c #596162",
"Y c #768082",
"T c #838E90",
"R c #8F9B9D",
"E c #9BA7AA",
"W c #B1BFC1",
"Q c #BBCACC",
"! c #C5D5D7",
"~ c #D8E9EC",
/* pixels */
"VVAABBSSVVVVMMMMMMnnMMMMSSSSnnggVVAABBSSVVVVMMMMMMnnMMMMSSSSnngg",
"VVAABBSSVVVVMMMMMMnnMMMMSSSSnnggVVAABBSSVVVVMMMMMMnnMMMMSSSSnngg",
"HHVVPPSSSSSSSSnnnnnnnnSSFFPPHHggHHVVPPSSSSSSSSnnnnnnnnSSFFPPHHgg",
"HHVVPPSSSSSSSSnnnnnnnnSSFFPPHHggHHVVPPSSSSSSSSnnnnnnnnSSFFPPHHgg",
"VVSSCCVVVVVVSSSSnnVVVVVVFFGGnnggVVSSCCVVVVVVSSSSnnVVVVVVFFGGnngg",
"VVSSCCVVVVVVSSSSnnVVVVVVFFGGnnggVVSSCCVVVVVVSSSSnnVVVVVVFFGGnngg",
"kkkkkkkkkkkkkkkkkkkkkkkkkkkkkkkkkkkkkkkkkkkkkkkkkkkkkkkkkkkkkkkk",
"kkkkkkkkkkkkkkkkkkkkkkkkkkkkkkkkkkkkkkkkkkkkkkkkkkkkkkkkkkkkkkkk",
"VVMMMMnnMMggVVVVVVVVVVVVSSZZDDDDVVMMMMnnMMggVVVVVVVVVVVVSSZZDDDD",
"VVMMMMnnMMggVVVVVVVVVVVVSSZZDDDDVVMMMMnnMMggVVVVVVVVVVVVSSZZDDDD",
"SSJJMMnnHHggnnSSSSSSSSSSSSLLPPIISSJJMMnnHHggnnSSSSSSSSSSSSLLPPII",
"SSJJMMnnHHggnnSSSSSSSSSSSSLLPPIISSJJMMnnHHggnnSSSSSSSSSSSSLLPPII",
"MMVVVVMMVVggSSSSSSVVVVVVFFVVMMmmMMVVVVMMVVggSSSSSSVVVVVVFFVVMMmm",
"MMVVVVMMVVggSSSSSSVVVVVVFFVVMMmmMMVVVVMMVVggSSSSSSVVVVVVFFVVMMmm",
"kkkkkkkkkkkkkkkkk<o                              oukkkkkkkkkkkkk",
"kkkkkkkkkkkkkkkk<                                 okkkkkkkkkkkkk",
"IIMMVVVVVVSSVVVV= W~~~~~~~~~~~~~~~~~~~~~~~~~~~~~~  SZZDDDDVVMMgg",
"IIMMVVVVVVSSVVVV= W~~~~~~~~~~~~~~~~~~~~~~~~~~~~~~  SZZDDDDVVMMgg",
"JJJJSSSSSSSSSSVV; W~~~~~~~~~~~~~~~~~~~~~~~~~~~~~~  SLLVVIISSJJgg",
"JJJJSSSSSSSSSSVV; W~~~~~~~~~~~~~~~~~~~~~~~~~~~~~~  SLLVVIISSJJgg",
"MMIIVVVVVVFFVVVV6 YTTTTTTTTTTTTTTTTE~~~~~~~~WTTTT &FVVMMmmMMVVgg",
"MMIIVVVVVVFFVVVVc.                 U~~~~~~~~T     zFVVMMmmMMVVgg",
"kkkkkkkkkkkkkkkkki3111111111111111 U~~~~~~~~T 111tkkkkkkkkkkkkkk",
"kkkkkkkkkkkkkkkkkkkkkkkkkkkkkk@    U~~~~~~~~T 1kkkkkkkkkkkkkkkkk",
"MMSSVVMMMMggbbMMMMnnMMMMDDDDVj pUUUT~~~~QWWWY eMMMnnMMMMDDDDVVMM",
"MMSSVVMMMMggbbMMMMnnMMMMDDDDV8 T~~~~~~~~U    .zMMMnnMMMMDDDDVVMM",
"SSSSSSJJSSggNNKKnnnnnnnnPPIIS9 T~~~~~~~~U OO5xKKnnnnnnnnPPIISSJJ",
"SSSSSSJJSSggNNKKnnnnnnnnPPw:;; T~~~~~~~~U OO5xKKnnnnnnnnPPIISSJJ",
"VVSSMMVVVVggnnDDZZMMnnVVM4     T~~~~~~~~U    .vDZZMMnnVVMMmmMMVV",
"VVSSMMVVVVggnnDDZZMMnnVVM# WWWW!~~~~~~~~QWWWY yDZZMMnnVVMMmmMMVV",
"kkkkkkkkkkkkkkkkkkkkkkkkk  ~~~~~~~~~~~~~~~~~T 1kkkkkkkkkkkkkkkkk",
"kkkkkkkkkkkkkkkkkkkkkkkkk  ~~~~~~~~~~~~~~~~~T 111tkkkkkkkkkkkkkk",
"VVAABBSSVVVVMMMMMMnnMMMMS  ~~~~~~~~~~~~~~~~~T     fnMMMMSSSSnngg",
"VVAABBSSVVVVMMMMMMnnMMMMS% TTTTTTTTTTTTT!~~~WTTTT @nMMMMSSSSnngg",
"HHVVPPSSSSSSSSnnnnnnnnSSFz              W~~~~~~~~  nnnSSFFPPHHgg",
"HHVVPPSSSSSSSSnnnnnnnnSSFFvrqq,,qq88rr; W~~~~~~~~  nnnSSFFPPHHgg",
"VVSSCCVVVVVVSSSSnnVVVVVVFFGGnnggVVSSCC= W~~~~~~~~  VVVVVFFGGnngg",
"VVSSCCVVVVVVSSSSnnVVVVVVFFGGnnggVVSSCC= W~~~~~~~~  VVVVVFFGGnngg",
"kkkkkkkkkkkkkkkkkkkkkkkkkkkkkkkkkkkkkk+ W~~~~~~~~  kkkkkkkkkkkkk",
"kkkkkkkkkkkkkkkkkkkkkkkkkkkkkkkkkkkkkk+ W~~~~~~~~  kkkkkkkkkkkkk",
"VVMMMMnnMMggVVVVVs2=====;;-7DDDDVVMMMM& W~~~~~~~~  VVVVVSSZZDDDD",
"VVMMMMnnMMggVVVVs           8DDDVVMMMM& W~~~~~~~~  VVVVVSSZZDDDD",
"SSJJMMnnHHggnnSS3 RWWWWWWWW -PIISSJJMM& W~~~~~~~~  SSSSSSSLLPPII",
"SSJJMMnnHHggnnSS; W~~~~~~~~  PIISSJJMM& W~~~~~~~~  SSSSSSSLLPPII",
"MMVVVVMMVVggSSSS; W~~~~~~~~  daaddffff* W~~~~~~~~  VVVVVFFVVMMmm",
"MMVVVVMMVVggSSSS; W~~~~~~~~             W~~~~~~~~  VVVVVFFVVMMmm",
"kkkkkkkkkkkkkkkk> RWWWQ~~~~UUUUUUUUUUUUUQ~~~!WWWW okkkkkkkkkkkkk",
"kkkkkkkkkkkkkkkk0     U~~~~~~~~~~~~~~~~~~~~~T     <kkkkkkkkkkkkk",
"IIMMVVVVVVSSVVVVVs3;- U~~~~~~~~~~~~~~~~~~~~~T ===6SSZZDDDDVVMMgg",
"IIMMVVVVVVSSVVVVVVSSh U~~~~~~~~~~~~~~~~~~~~~T 8VVVSSZZDDDDVVMMgg",
"JJJJSSSSSSSSSSVVSSSSl U~~~~~~~~~~~~~~~~~~~~~T 8VSSSSLLVVIISSJJgg",
"JJJJSSSSSSSSSSVVSSSSHX                        jVSSSSLLVVIISSJJgg",
"MMIIVVVVVVFFVVVVVVFFVx#                     $jVVVVFFVVMMmmMMVVgg",
"MMIIVVVVVVFFVVVVVVFFVVMMmmMMVVggMMIIVVVVVVFFVVVVVVFFVVMMmmMMVVgg",
"kkkkkkkkkkkkkkkkkkkkkkkkkkkkkkkkkkkkkkkkkkkkkkkkkkkkkkkkkkkkkkkk",
"kkkkkkkkkkkkkkkkkkkkkkkkkkkkkkkkkkkkkkkkkkkkkkkkkkkkkkkkkkkkkkkk",
"MMSSVVMMMMggbbMMMMnnMMMMDDDDVVMMMMSSVVMMMMggbbMMMMnnMMMMDDDDVVMM",
"MMSSVVMMMMggbbMMMMnnMMMMDDDDVVMMMMSSVVMMMMggbbMMMMnnMMMMDDDDVVMM",
"SSSSSSJJSSggNNKKnnnnnnnnPPIISSJJSSSSSSJJSSggNNKKnnnnnnnnPPIISSJJ",
"SSSSSSJJSSggNNKKnnnnnnnnPPIISSJJSSSSSSJJSSggNNKKnnnnnnnnPPIISSJJ",
"VVSSMMVVVVggnnDDZZMMnnVVMMmmMMVVVVSSMMVVVVggnnDDZZMMnnVVMMmmMMVV",
"VVSSMMVVVVggnnDDZZMMnnVVMMmmMMVVVVSSMMVVVVggnnDDZZMMnnVVMMmmMMVV",
"kkkkkkkkkkkkkkkkkkkkkkkkkkkkkkkkkkkkkkkkkkkkkkkkkkkkkkkkkkkkkkkk",
"kkkkkkkkkkkkkkkkkkkkkkkkkkkkkkkkkkkkkkkkkkkkkkkkkkkkkkkkkkkkkkkk"
};
