/* XPM */
static char *result[] = {
/* columns rows colors chars-per-pixel */
"64 64 68 1 ",
"  c black",
". c #001111",
"X c #001313",
"o c #001414",
"O c #001415",
"+ c #001516",
"@ c #001617",
"# c #001717",
"$ c #001718",
"% c #001818",
"& c #001919",
"* c #001A1B",
"= c #002525",
"- c #002727",
"; c #002828",
": c #002A2B",
"> c #002B2B",
", c #002C2C",
"< c #002E2E",
"1 c #1F2223",
"2 c #002F30",
"3 c #003030",
"4 c #003031",
"5 c #003233",
"6 c #003435",
"7 c #003535",
"8 c #003838",
"9 c #003C3C",
"0 c #003C3D",
"q c #003F3F",
"w c #363B3C",
"e c #004041",
"r c #004142",
"t c #004343",
"y c #004444",
"u c #004647",
"i c #004949",
"p c #00494A",
"a c #004F50",
"s c #005051",
"d c #005354",
"f c #005455",
"g c #005657",
"h c #005758",
"j c #00595A",
"k c #005A5B",
"l c #005B5B",
"z c #005B5C",
"x c #005C5D",
"c c #005D5E",
"v c #005E60",
"b c #005F60",
"n c #005F61",
"m c #006061",
"M c #006162",
"N c #006263",
"B c #006365",
"V c #006465",
"C c #006566",
"Z c #006769",
"A c #006869",
"S c #596162",
"D c #838E90",
"F c #8F9B9D",
"G c #B1BFC1",
"H c #BBCACC",
"J c #C5D5D7",
"K c #D8E9EC",
/* pixels */
"zzvvllbbzzzzjjjjjjggjjjjbbbbggttzzvvllbbzzzzjjjjjjggjjjjbbbbggtt",
"zzvvllbbzzzzjjjjjjggjjjjbbbbggttzzvvllbbzzzzjjjjjjggjjjjbbbbggtt",
"NNzzZZbbbbbbbbggggggggbbmmZZNNttNNzzZZbbbbbbbbggggggggbbmmZZNNtt",
"NNzzZZbbbbbbbbggggggggbbmmZZNNttNNzzZZbbbbbbbbggggggggbbmmZZNNtt",
"zzbbxxzzzzzzbbbbggzzzzzzmmMMggttzzbbxxzzzzzzbbbbggzzzzzzmmMMggtt",
"zzbbxxzzzzzzbbbbggzzzzzzmmMMggttzzbbxxzzzzzzbbbbggzzzzzzmmMMggtt",
"iiiiiiiiiiiiiiiiiiiiiiiiiiiiiiiiiiiiiiiiiiiiiiiiiiiiiiiiiiiiiiii",
"iiiiiiiiiiiiiiiiiiiiiiiiiiiiiiiiiiiiiiiiiiiiiiiiiiiiiiiiiiiiiiii",
"zzjjjjggjjttzzzzzzzzzzzzbbccnnnnzzjjjjggjjttzzzzzzzzzzzzbbccnnnn",
"zzjjjjggjjttzzzzzzzzzzzzbbccnnnnzzjjjjggjjttzzzzzzzzzzzzbbccnnnn",
"bbBBjjggNNttggbbbbbbbbbbbbCCZZAAbbBBjjggNNttggbbbbbbbbbbbbCCZZAA",
"bbBBjjggNNttggbbbbbbbbbbbbCCZZAAbbBBjjggNNttggbbbbbbbbbbbbCCZZAA",
"jjzzzzjjzzttbbbbbbzzzzzzmmzzjjhhjjzzzzjjzzttbbbbbbzzzzzzmmzzjjhh",
"jjzzzzjjzzttbbbbbbzzzzzzmmzzjjhhjjzzzzjjzzttbbbbbbzzzzzzmmzzjjhh",
"iiiiiiiiiiiiiiiiiiiiiiiiiiiiii8.                 .9iiiiiiiiiiiii",
"iiiiiiiiiiiiiiiiiiiiiiiiiiiii8                    .iiiiiiiiiiiii",
"AAjjzzzzzzbbzzzzzzbbccnnnnzzj2 DKKKKKKKKKKKKKKKKK  bccnnnnzzjjtt",
"AAjjzzzzzzbbzzzzzzbbccnnnnzzj2 DKKKKKKKKKKKKKKKKK  bccnnnnzzjjtt",
"BBBBbbbbbbbbbbzzbbbbCCzzAAp566 DKKKKKKKKKKKKKKKKK  bCCzzAAbbBBtt",
"BBBBbbbbbbbbbbzzbbbbCCzzAs     DKKKKKKKKKKKKKKKKK  bCCzzAAbbBBtt",
"jjAAzzzzzzmmzzzzzzmmzzjjhO DDDDGKKKJDDDDJKKKKKKKK  mzzjjhhjjzztt",
"jjAAzzzzzzmmzzzzzzmmzzjjh  KKKKKKKKG    GKKKKKKKK  mzzjjhhjjzztt",
"iiiiiiiiiiiiiiiiiiiiiiy77  KKKKKKKKG XX GKKKKKKKK  iiiiiiiiiiiii",
"iiiiiiiiiiiiiiiiiiiii&     KKKKKKKKG XX GKKKKKKKK  iiiiiiiiiiiii",
"jjbbzzjjjjttffjjjjggd 1SSSSKKKKJGGGF :$ GKKKKKKKK  gjjjjnnnnzzjj",
"jjbbzzjjjjttffjjjjggr SKKKKKKKKD     e$ GKKKKKKKK  gjjjjnnnnzzjj",
"bbbbbbBBbbttkkVVggggq SKKKKKKKKD &&,tb* GKKKKKKKK  gggggZZAAbbBB",
"bbbbbbBBbbttkkVVg0;## SKKKKKKKKD 5bbbb* GKKKKKKKK  gggggZZAAbbBB",
"zzbbjjzzzzttggnnr     SKKKKKKKKD 4bbjj% GKKKKKKKK  jggzzjjhhjjzz",
"zzbbjjzzzzttggnn> FGGGHKKKKSSSSw ubbjj% GKKKKKKKK  jggzzjjhhjjzz",
"iiiiiiiiiiiiiiiiX GKKKKKKKK     oiiiiiX GKKKKKKKK  iiiiiiiiiiiii",
"iiiiiiiiiiiiiiiiX GKKKKKKKK  ---------X GKKKKKKKK  iiiiiiiiiiiii",
"zzvvllbbzzzzjjjj$ GKKKKKKKK             GKKKKKKKK  gjjjjbbbbggtt",
"zzvvllbbzzzzjjjj$ GKKKKKKKKDDDDDDDDDDDDDJKKKKKKKK  gjjjjbbbbggtt",
"NNzzZZbbbbbbbbgg# GKKKKKKKKKKKKKKKKKKKKKKKKKKKKKK  gggbbmmZZNNtt",
"NNzzZZbbbbbbbbgg# GKKKKKKKKKKKKKKKKKKKKKKKKKKKKKK  gggbbmmZZNNtt",
"zzbbxxzzzzzzbbbb# GKKKKKKKKKKKKKKKKKKKKKKKKKKKKKK  zzzzzmmMMggtt",
"zzbbxxzzzzzzbbbb# GKKKKKKKKKKKKKKKKKKKKKKKKKKKKKK  zzzzzmmMMggtt",
"iiiiiiiiiiiiiiii=                       GKKKKKKKK  iiiiiiiiiiiii",
"iiiiiiiiiiiiiiiii=.                     GKKKKKKKK  iiiiiiiiiiiii",
"zzjjjjggjjttzzzzzzzzzzzzbbccnnnnzzjjjj# GKKKKKKKK  zzzzzbbccnnnn",
"zzjjjjggjjttzzzzzzzzzzzzbbccnnnnzzjjjj# GKKKKKKKK  zzzzzbbccnnnn",
"bbBBjjggNNttggbbbbbbbbbbbbCCZZAAbbBBjj# GKKKKKKKK  bbbbbbbCCZZAA",
"bbBBjjggNNttggbbbbbbbbbbbbCCZZAAbbBBjj# GKKKKKKKK  bbbbbbbCCZZAA",
"jjzzzzjjzzttbbbbbbzzzzzzmmzzjjhhjjzzzz$ GKKKKKKKK  zzzzzmmzzjjhh",
"jjzzzzjjzzttbbbbbbzzzzzzmmzzjjhhjjzzzz$ GKKKKKKKK  zzzzzmmzzjjhh",
"iiiiiiiiiiiiiiiiiiiiiiiiiiiiiiiiiiiiiiX GKKKKKKKK  iiiiiiiiiiiii",
"iiiiiiiiiiiiiiiiiiiiiiiiiiiiiiiiiiiiiiX GKKKKKKKK  iiiiiiiiiiiii",
"AAjjzzzzzzbbzzzzzzbbccnnnnzzjjttAAjjzz% GKKKKKKKK  bccnnnnzzjjtt",
"AAjjzzzzzzbbzzzzzzbbccnnnnzzjjttAAjjzz% GKKKKKKKK  bccnnnnzzjjtt",
"BBBBbbbbbbbbbbzzbbbbCCzzAAbbBBttBBBBbb& GKKKKKKKK  bCCzzAAbbBBtt",
"BBBBbbbbbbbbbbzzbbbbCCzzAAbbBBttBBBBbb3           @bCCzzAAbbBBtt",
"jjAAzzzzzzmmzzzzzzmmzzjjhhjjzzttjjAAzzz<+        +amzzjjhhjjzztt",
"jjAAzzzzzzmmzzzzzzmmzzjjhhjjzzttjjAAzzzzzzmmzzzzzzmmzzjjhhjjzztt",
"iiiiiiiiiiiiiiiiiiiiiiiiiiiiiiiiiiiiiiiiiiiiiiiiiiiiiiiiiiiiiiii",
"iiiiiiiiiiiiiiiiiiiiiiiiiiiiiiiiiiiiiiiiiiiiiiiiiiiiiiiiiiiiiiii",
"jjbbzzjjjjttffjjjjggjjjjnnnnzzjjjjbbzzjjjjttffjjjjggjjjjnnnnzzjj",
"jjbbzzjjjjttffjjjjggjjjjnnnnzzjjjjbbzzjjjjttffjjjjggjjjjnnnnzzjj",
"bbbbbbBBbbttkkVVggggggggZZAAbbBBbbbbbbBBbbttkkVVggggggggZZAAbbBB",
"bbbbbbBBbbttkkVVggggggggZZAAbbBBbbbbbbBBbbttkkVVggggggggZZAAbbBB",
"zzbbjjzzzzttggnnccjjggzzjjhhjjzzzzbbjjzzzzttggnnccjjggzzjjhhjjzz",
"zzbbjjzzzzttggnnccjjggzzjjhhjjzzzzbbjjzzzzttggnnccjjggzzjjhhjjzz",
"iiiiiiiiiiiiiiiiiiiiiiiiiiiiiiiiiiiiiiiiiiiiiiiiiiiiiiiiiiiiiiii",
"iiiiiiiiiiiiiiiiiiiiiiiiiiiiiiiiiiiiiiiiiiiiiiiiiiiiiiiiiiiiiiii"
};
