/* XPM */
static char *result[] = {
/* columns rows colors chars-per-pixel */
"64 64 76 1 ",
"  c black",
". c #000101",
"X c #000D0D",
"o c #000F0F",
"O c #001111",
"+ c #001212",
"@ c #001313",
"# c #001414",
"$ c #001515",
"% c #001516",
"& c #001717",
"* c #001718",
"= c #001818",
"- c #001819",
"; c #001919",
": c #001A1B",
"> c #002222",
", c #002323",
"< c #002525",
"1 c #002727",
"2 c #002A2B",
"3 c #002C2C",
"4 c #002D2D",
"5 c #002D2E",
"6 c #002E2E",
"7 c #002F2F",
"8 c #003031",
"9 c #003233",
"0 c #003333",
"q c #003434",
"w c #003535",
"e c #003738",
"r c #003838",
"t c #00393A",
"y c #003F40",
"u c #004041",
"i c #004142",
"p c #004243",
"a c #004343",
"s c #004445",
"d c #004647",
"f c #004747",
"g c #004849",
"h c #004949",
"j c #004A4A",
"k c #004B4C",
"l c #004F51",
"z c #005455",
"x c #005657",
"c c #005758",
"v c #005859",
"b c #00595A",
"n c #005A5B",
"m c #005B5B",
"M c #005B5C",
"N c #005C5D",
"B c #005D5E",
"V c #005E60",
"C c #005F60",
"Z c #005F61",
"A c #006061",
"S c #006162",
"D c #006263",
"F c #006365",
"G c #006465",
"H c #006566",
"J c #006769",
"K c #006869",
"L c #596162",
"P c #768082",
"I c #838E90",
"U c #8F9B9D",
"Y c #B1BFC1",
"T c #BBCACC",
"R c #C5D5D7",
"E c #D8E9EC",
/* pixels */
"MMVVmmCCMMMMbbbbbbxxbbbbCCCCxxaaMMVVmmCCMMMMbbbbbbxxbbbbCCCCxxaa",
"MMVVmmCCMMMMbbbbbbxxbbbbCCCCxxaaMMVVmmCCMMMMbbbbbbxxbbbbCCCCxxaa",
"DDMMJJCCCCCCCCxxxxxxxxCCAAJJDDaaDDMMJJCCCCCCCCxxxxxxxxCCAAJJDDaa",
"DDMMJJCCCCCCCCxxxxxxxxCCAAJJDDaaDDMMJJCCCCCCCCxxxxxxxxCCAAJJDDaa",
"MMCCNNMMMMMMCCCCxxMMMMMMAASSxxaaMMCCNNMMMMMMCCCCxxMMMMMMAASSxxaa",
"MMCCNNMMMMMMCCCCxxMMMMMMAASSxxaaMMCCNNMMMMMMCCCCxxMMMMMMAASSxxaa",
"hhhhhhhhhhhhhhhhhhhhhhhhhhhhhhhhhhhhhhhhhhhhhhhhhhhhhhhhhhhhhhhh",
"hhhhhhhhhhhhhhhhhhhhhhhhhhhhhhhhhhhhhhhhhhhhhhhhhhhhhhhhhhhhhhhh",
"MMbbbbxxbbaaMMMMMMMMMMMMCCBBZZZZMMbbbbxxbbaaMMMMMMMMMMMMCCBBZZZZ",
"MMbbbbxxbbaaMMMMMMMMMMMMCCBBZZZZMMbbbbxxbbaaMMMMMMMMMMMMCCBBZZZZ",
"CCFFbbxxDDaaxxCCCCCCCCCCCCHHJJKKCCFFbbxxDDaaxxCCCCCCCCCCCCHHJJKK",
"CCFFbbxxDDaaxxCCCCCCCCCCCCHHJJKKCCFFbbxxDDaaxxCCCCCCCCCCCCHHJJKK",
"bbMMMMbbMMaaCCCCCCMMMMMMAAMMbbccbbMMMMbbMMaaCCCCCCMMMMMMAAMMbbcc",
"bbMMMMbbMMaaCCCCCCMMMMMMAAMMbbccbbMMMMbbMMaaCCCCCCMMMMMMAAMMbbcc",
"hhhhhhhhhhhhhhhhh<O                         Orhhhhhhhhhhhhhhhhhh",
"hhhhhhhhhhhhhhhh<                             rhhhhhhhhhhhhhhhhh",
"KKbbMMMMMMCCMMMM= YEEEEEEEEEEEEEEEEEEEEEEEEEI 8MMMCCBBZZZZMMbbaa",
"KKbbMMMMMMCCMMMM= YEEEEEEEEEEEEEEEEEEEEEEEEEI 8MMMCCBBZZZZMMbbaa",
"FFFFCCCCCCCCCCMM; YEEEEEEEEEEEEEEEEEEEEEEEEEI 8MCCCCHHMMKKCCFFaa",
"FFFFCCCCCCCCCCMM; YEEEEEEEEEEEEEEEEEEEEEEEEEI 8MCCCCHHMMKKCCFFaa",
"bbKKMMMMMMAAMMMM= YEEEEEEEEIIIIIIIIIIIIIIIIIL pMMMAAMMbbccbbMMaa",
"bbKKMMMMMMAAMMMM= YEEEEEEEE                  XvMMMAAMMbbccbbMMaa",
"hhhhhhhhhhhhhhhh@ YEEEEEEEE  111111111111111wfhhhhhhhhhhhhhhhhhh",
"hhhhhhhhhhhhhhhh@ YEEEEEEEE  hhhhhhhhhhhhhhhhhhhhhhhhhhhhhhhhhhh",
"bbCCMMbbbbaazzbb* YEEEEEEEE  MbbbbCCMMbbbbaazzbbbbxxbbbbZZZZMMbb",
"bbCCMMbbbbaazzbb* YEEEEEEEE  MbbbbCCMMbbbbaazzbbbbxxbbbbZZZZMMbb",
"CCCCCCFFCCaannGG& YEEEEEEEE  CFFCCCCCCFFCCaannGGxxxxxxxxJJKKCCFF",
"CCCCCCFFCCaannGG& YEEEEEEEE  ;::;;;;;;::;;++5kGGxxxxxxxxJJKKCCFF",
"MMCCbbMMMMaaxxZZ- YEEEEEEEE                  .lZBBbbxxMMbbccbbMM",
"MMCCbbMMMMaaxxZZ- YEEEEEEEEYYYYYYYYYYYYYYYYYP tZBBbbxxMMbbccbbMM",
"hhhhhhhhhhhhhhhh@ YEEEEEEEEEEEEEEEEEEEEEEEEEI 1hhhhhhhhhhhhhhhhh",
"hhhhhhhhhhhhhhhh@ YEEEEEEEEEEEEEEEEEEEEEEEEEI 111rhhhhhhhhhhhhhh",
"MMVVmmCCMMMMbbbb* YEEEEEEEEEEEEEEEEEEEEEEEEEI     pxbbbbCCCCxxaa",
"MMVVmmCCMMMMbbbb4 PIIIIIIIIIIIIIIIIIIIIIREEEYIIII #xbbbbCCCCxxaa",
"DDMMJJCCCCCCCCxxg.                      YEEEEEEEE  xxxCCAAJJDDaa",
"DDMMJJCCCCCCCCxxxgq6669900eeqq,,qq88ee; YEEEEEEEE  xxxCCAAJJDDaa",
"MMCCNNMMMMMMCCCCxxMMMMMMAASSxxaaMMCCNN= YEEEEEEEE  MMMMMAASSxxaa",
"MMCCNNMMMMMMCCCCxxMMMMMMAASSxxaaMMCCNN= YEEEEEEEE  MMMMMAASSxxaa",
"hhhhhhhhhhhhhhhhhhhhhhhhhhhhhhhhhhhhhh@ YEEEEEEEE  hhhhhhhhhhhhh",
"hhhhhhhhhhhhhhhhhhhhhhhhhhhhhhhhhhhhhh@ YEEEEEEEE  hhhhhhhhhhhhh",
"MMbbbbxxbbaaMMMMMu2=====;;-7ZZZZMMbbbb& YEEEEEEEE  MMMMMCCBBZZZZ",
"MMbbbbxxbbaaMMMMu           8ZZZMMbbbb& YEEEEEEEE  MMMMMCCBBZZZZ",
"CCFFbbxxDDaaxxCC3 UYYYYYYYY -JKKCCFFbb& YEEEEEEEE  CCCCCCCHHJJKK",
"CCFFbbxxDDaaxxCC; YEEEEEEEE  JKKCCFFbb& YEEEEEEEE  CCCCCCCHHJJKK",
"bbMMMMbbMMaaCCCC; YEEEEEEEE  iyyiipppp* YEEEEEEEE  MMMMMAAMMbbcc",
"bbMMMMbbMMaaCCCC; YEEEEEEEE             YEEEEEEEE  MMMMMAAMMbbcc",
"hhhhhhhhhhhhhhhh> UYYYTEEEELLLLLLLLLLLLLTEEERYYYY Ohhhhhhhhhhhhh",
"hhhhhhhhhhhhhhhh0     LEEEEEEEEEEEEEEEEEEEEEI     <hhhhhhhhhhhhh",
"KKbbMMMMMMCCMMMMMu3;- LEEEEEEEEEEEEEEEEEEEEEI ===6CCBBZZZZMMbbaa",
"KKbbMMMMMMCCMMMMMMCCs LEEEEEEEEEEEEEEEEEEEEEI 8MMMCCBBZZZZMMbbaa",
"FFFFCCCCCCCCCCMMCCCCj LEEEEEEEEEEEEEEEEEEEEEI 8MCCCCHHMMKKCCFFaa",
"FFFFCCCCCCCCCCMMCCCCDo                        dMCCCCHHMMKKCCFFaa",
"bbKKMMMMMMAAMMMMMMAAMk$                     %dMMMMAAMMbbccbbMMaa",
"bbKKMMMMMMAAMMMMMMAAMMbbccbbMMaabbKKMMMMMMAAMMMMMMAAMMbbccbbMMaa",
"hhhhhhhhhhhhhhhhhhhhhhhhhhhhhhhhhhhhhhhhhhhhhhhhhhhhhhhhhhhhhhhh",
"hhhhhhhhhhhhhhhhhhhhhhhhhhhhhhhhhhhhhhhhhhhhhhhhhhhhhhhhhhhhhhhh",
"bbCCMMbbbbaazzbbbbxxbbbbZZZZMMbbbbCCMMbbbbaazzbbbbxxbbbbZZZZMMbb",
"bbCCMMbbbbaazzbbbbxxbbbbZZZZMMbbbbCCMMbbbbaazzbbbbxxbbbbZZZZMMbb",
"CCCCCCFFCCaannGGxxxxxxxxJJKKCCFFCCCCCCFFCCaannGGxxxxxxxxJJKKCCFF",
"CCCCCCFFCCaannGGxxxxxxxxJJKKCCFFCCCCCCFFCCaannGGxxxxxxxxJJKKCCFF",
"MMCCbbMMMMaaxxZZBBbbxxMMbbccbbMMMMCCbbMMMMaaxxZZBBbbxxMMbbccbbMM",
"MMCCbbMMMMaaxxZZBBbbxxMMbbccbbMMMMCCbbMMMMaaxxZZBBbbxxMMbbccbbMM",
"hhhhhhhhhhhhhhhhhhhhhhhhhhhhhhhhhhhhhhhhhhhhhhhhhhhhhhhhhhhhhhhh",
"hhhhhhhhhhhhhhhhhhhhhhhhhhhhhhhhhhhhhhhhhhhhhhhhhhhhhhhhhhhhhhhh"
};
