/* XPM */
static char *result[] = {
/* columns rows colors chars-per-pixel */
"64 64 79 1 ",
"  c black",
". c #000101",
"X c #000B0B",
"o c #000F0F",
"O c #001111",
"+ c #001212",
"@ c #001313",
"# c #001414",
"$ c #001515",
"% c #001516",
"& c #001717",
"* c #001718",
"= c #001818",
"- c #001819",
"; c #001919",
": c #001A1B",
"> c #002222",
", c #002323",
"< c #002525",
"1 c #002727",
"2 c #00292A",
"3 c #002B2C",
"4 c #002C2C",
"5 c #002D2E",
"6 c #002E2E",
"7 c #003031",
"8 c #003233",
"9 c #003333",
"0 c #003434",
"q c #003536",
"w c #003738",
"e c #003838",
"r c #00393A",
"t c #003C3C",
"y c #003E3F",
"u c #003F40",
"i c #004041",
"p c #004142",
"a c #004243",
"s c #004343",
"d c #004445",
"f c #004547",
"g c #004647",
"h c #004747",
"j c #004949",
"k c #00494A",
"l c #004A4A",
"z c #004B4C",
"x c #004F50",
"c c #004F51",
"v c #005455",
"b c #005657",
"n c #005758",
"m c #00595A",
"M c #005A5B",
"N c #005B5B",
"B c #005B5C",
"V c #005C5D",
"C c #005D5E",
"Z c #005E60",
"A c #005F60",
"S c #005F61",
"D c #006061",
"F c #006162",
"G c #006263",
"H c #006365",
"J c #006465",
"K c #006566",
"L c #006769",
"P c #006869",
"I c #596162",
"U c #768082",
"Y c #838E90",
"T c #8F9B9D",
"R c #9BA7AA",
"E c #B1BFC1",
"W c #BBCACC",
"Q c #C5D5D7",
"! c #D8E9EC",
/* pixels */
"BBZZNNAABBBBmmmmmmbbmmmmAAAAbbssBBZZNNAABBBBmmmmmmbbmmmmAAAAbbss",
"BBZZNNAABBBBmmmmmmbbmmmmAAAAbbssBBZZNNAABBBBmmmmmmbbmmmmAAAAbbss",
"GGBBLLAAAAAAAAbbbbbbbbAADDLLGGssGGBBLLAAAAAAAAbbbbbbbbAADDLLGGss",
"GGBBLLAAAAAAAAbbbbbbbbAADDLLGGssGGBBLLAAAAAAAAbbbbbbbbAADDLLGGss",
"BBAAVVBBBBBBAAAAbbBBBBBBDDFFbbssBBAAVVBBBBBBAAAAbbBBBBBBDDFFbbss",
"BBAAVVBBBBBBAAAAbbBBBBBBDDFFbbssBBAAVVBBBBBBAAAAbbBBBBBBDDFFbbss",
"jjjjjjjjjjjjjjjjjjjjjjjjjjjjjjjjjjjjjjjjjjjjjjjjjjjjjjjjjjjjjjjj",
"jjjjjjjjjjjjjjjjjjjjjjjjjjjjjjjjjjjjjjjjjjjjjjjjjjjjjjjjjjjjjjjj",
"BBmmmmbbmmssBBBBBBBBBBBBAACCSSSSBBmmmmbbmmssBBBBBBBBBBBBAACCSSSS",
"BBmmmmbbmmssBBBBBBBBBBBBAACCSSSSBBmmmmbbmmssBBBBBBBBBBBBAACCSSSS",
"AAHHmmbbGGssbbAAAAAAAAAAAAKKLLPPAAHHmmbbGGssbbAAAAAAAAAAAAKKLLPP",
"AAHHmmbbGGssbbAAAAAAAAAAAAKKLLPPAAHHmmbbGGssbbAAAAAAAAAAAAKKLLPP",
"mmBBBBmmBBssAAAAAABBBBBBDDBBmmnnmmBBBBmmBBssAAAAAABBBBBBDDBBmmnn",
"mmBBBBmmBBssAAAAAABBBBBBDDBBmmnnmmBBBBmmBBssAAAAAABBBBBBDDBBmmnn",
"jjjjjjjjjjjjjjjjjjjjjtO                     Oejjjjjjjjjjjjjjjjjj",
"jjjjjjjjjjjjjjjjjjjjhX                        ejjjjjjjjjjjjjjjjj",
"PPmmBBBBBBAABBBBBBAAd I!!!!!!!!!!!!!!!!!!!!!Y 7BBBAACCSSSSBBmmss",
"PPmmBBBBBBAABBBBBBAAd I!!!!!!!!!!!!!!!!!!!!!Y 7BBBAACCSSSSBBmmss",
"HHHHAAAAAAAAAABBAxr8q I!!!!!!!!!!!!!!!!!!!!!Y 778kAAKKBBPPAAHHss",
"HHHHAAAAAAAAAABBx.    I!!!!!!!!!!!!!!!!!!!!!Y     kAKKBBPPAAHHss",
"mmPPBBBBBBDDBBBB6 UYYYR!!!!YYYYYYYYYYYYYQ!!!EYYYY &DBBmmnnmmBBss",
"mmPPBBBBBBDDBBBB= E!!!!!!!!             E!!!!!!!!  DBBmmnnmmBBss",
"jjjjjjjjjjjjjjjj@ E!!!!!!!!  111111111@ E!!!!!!!!  jjjjjjjjjjjjj",
"jjjjjjjjjjjjjjjj@ E!!!!!!!!  jjjjjjjjj@ E!!!!!!!!  jjjjjjjjjjjjj",
"mmAABBmmmmssvvmm* E!!!!!!!!  BmmmmAABB2 TEEEEEEEE #bmmmmSSSSBBmm",
"mmAABBmmmmssvvmm* E!!!!!!!!  BmmmmAABBy           3bmmmmSSSSBBmm",
"AAAAAAHHAAssMMJJ& E!!!!!!!!  AHHAAAAAAHf4;++==::&3bbbbbbLLPPAAHH",
"AAAAAAHHAAssMMJJ& E!!!!!!!!  ;::;;;;;;::;;++5zJJbbbbbbbbLLPPAAHH",
"BBAAmmBBBBssbbSS- E!!!!!!!!                  .cSCCmmbbBBmmnnmmBB",
"BBAAmmBBBBssbbSS- E!!!!!!!!EEEEEEEEEEEEEEEEEU rSCCmmbbBBmmnnmmBB",
"jjjjjjjjjjjjjjjj@ E!!!!!!!!!!!!!!!!!!!!!!!!!Y 1jjjjjjjjjjjjjjjjj",
"jjjjjjjjjjjjjjjj@ E!!!!!!!!!!!!!!!!!!!!!!!!!Y 111ejjjjjjjjjjjjjj",
"BBZZNNAABBBBmmmm* E!!!!!!!!!!!!!!!!!!!!!!!!!Y     abmmmmAAAAbbss",
"BBZZNNAABBBBmmmm* E!!!!!!!!YYYYYYYYYYYYYQ!!!EYYYY #bmmmmAAAAbbss",
"GGBBLLAAAAAAAAbb& E!!!!!!!!             E!!!!!!!!  bbbAADDLLGGss",
"GGBBLLAAAAAAAAbb& E!!!!!!!!  0,,0077ww; E!!!!!!!!  bbbAADDLLGGss",
"BBAAVVBBBBBBAAAA& E!!!!!!!!  bssBBAAVV= E!!!!!!!!  BBBBBDDFFbbss",
"BBAAVVBBBBBBAAAA& E!!!!!!!!  bssBBAAVV= E!!!!!!!!  BBBBBDDFFbbss",
"jjjjjjjjjjjjjjjj@ E!!!!!!!!  jjjjjjjjj@ E!!!!!!!!  jjjjjjjjjjjjj",
"jjjjjjjjjjjjjjjj@ E!!!!!!!!  jjjjjjjjj@ E!!!!!!!!  jjjjjjjjjjjjj",
"BBmmmmbbmmssBBBB= E!!!!!!!!  SSSBBmmmm& E!!!!!!!!  BBBBBAACCSSSS",
"BBmmmmbbmmssBBBB= E!!!!!!!!  SSSBBmmmm& E!!!!!!!!  BBBBBAACCSSSS",
"AAHHmmbbGGssbbAA; E!!!!!!!!  LPPAAHHmm& E!!!!!!!!  AAAAAAAKKLLPP",
"AAHHmmbbGGssbbAA; E!!!!!!!!  LPPAAHHmm& E!!!!!!!!  AAAAAAAKKLLPP",
"mmBBBBmmBBssAAAA; E!!!!!!!!  puuppaaaa* E!!!!!!!!  BBBBBDDBBmmnn",
"mmBBBBmmBBssAAAA; E!!!!!!!!             E!!!!!!!!  BBBBBDDBBmmnn",
"jjjjjjjjjjjjjjjj> TEEEW!!!!IIIIIIIIIIIIIW!!!QEEEE Ojjjjjjjjjjjjj",
"jjjjjjjjjjjjjjjj9     I!!!!!!!!!!!!!!!!!!!!!Y     <jjjjjjjjjjjjj",
"PPmmBBBBBBAABBBBBi4;- I!!!!!!!!!!!!!!!!!!!!!Y ===6AACCSSSSBBmmss",
"PPmmBBBBBBAABBBBBBAAd I!!!!!!!!!!!!!!!!!!!!!Y 7BBBAACCSSSSBBmmss",
"HHHHAAAAAAAAAABBAAAAl I!!!!!!!!!!!!!!!!!!!!!Y 7BAAAAKKBBPPAAHHss",
"HHHHAAAAAAAAAABBAAAAGo                        gBAAAAKKBBPPAAHHss",
"mmPPBBBBBBDDBBBBBBDDBz$                     %gBBBBDDBBmmnnmmBBss",
"mmPPBBBBBBDDBBBBBBDDBBmmnnmmBBssmmPPBBBBBBDDBBBBBBDDBBmmnnmmBBss",
"jjjjjjjjjjjjjjjjjjjjjjjjjjjjjjjjjjjjjjjjjjjjjjjjjjjjjjjjjjjjjjjj",
"jjjjjjjjjjjjjjjjjjjjjjjjjjjjjjjjjjjjjjjjjjjjjjjjjjjjjjjjjjjjjjjj",
"mmAABBmmmmssvvmmmmbbmmmmSSSSBBmmmmAABBmmmmssvvmmmmbbmmmmSSSSBBmm",
"mmAABBmmmmssvvmmmmbbmmmmSSSSBBmmmmAABBmmmmssvvmmmmbbmmmmSSSSBBmm",
"AAAAAAHHAAssMMJJbbbbbbbbLLPPAAHHAAAAAAHHAAssMMJJbbbbbbbbLLPPAAHH",
"AAAAAAHHAAssMMJJbbbbbbbbLLPPAAHHAAAAAAHHAAssMMJJbbbbbbbbLLPPAAHH",
"BBAAmmBBBBssbbSSCCmmbbBBmmnnmmBBBBAAmmBBBBssbbSSCCmmbbBBmmnnmmBB",
"BBAAmmBBBBssbbSSCCmmbbBBmmnnmmBBBBAAmmBBBBssbbSSCCmmbbBBmmnnmmBB",
"jjjjjjjjjjjjjjjjjjjjjjjjjjjjjjjjjjjjjjjjjjjjjjjjjjjjjjjjjjjjjjjj",
"jjjjjjjjjjjjjjjjjjjjjjjjjjjjjjjjjjjjjjjjjjjjjjjjjjjjjjjjjjjjjjjj"
};
