/* XPM */
static char *result[] = {
/* columns rows colors chars-per-pixel */
"64 64 72 1 ",
"  c black",
". c #000101",
"X c #001111",
"o c #001313",
"O c #001414",
"+ c #001515",
"@ c #001516",
"# c #001617",
"$ c #001717",
"% c #001718",
"& c #001818",
"* c #001819",
"= c #001919",
"- c #001A1B",
"; c #001B1C",
": c #002525",
"> c #002727",
", c #002828",
"< c #00292A",
"1 c #002B2C",
"2 c #002E2E",
"3 c #1F2223",
"4 c #003030",
"5 c #003233",
"6 c #003435",
"7 c #003535",
"8 c #003536",
"9 c #003838",
"0 c #003C3C",
"q c #003C3D",
"w c #003E3F",
"e c #003F3F",
"r c #363B3C",
"t c #004142",
"y c #004243",
"u c #004343",
"i c #004546",
"p c #004849",
"a c #004949",
"s c #00494A",
"d c #00494B",
"f c #004A4B",
"g c #004F4F",
"h c #005354",
"j c #005455",
"k c #005657",
"l c #005758",
"z c #00595A",
"x c #005A5B",
"c c #005B5B",
"v c #005B5C",
"b c #005C5D",
"n c #005D5E",
"m c #005E60",
"M c #005F60",
"N c #005F61",
"B c #006061",
"V c #006162",
"C c #006263",
"Z c #006365",
"A c #006465",
"S c #006566",
"D c #006769",
"F c #006869",
"G c #596162",
"H c #768082",
"J c #838E90",
"K c #8F9B9D",
"L c #B1BFC1",
"P c #BBCACC",
"I c #C5D5D7",
"U c #D8E9EC",
/* pixels */
"vvmmccMMvvvvzzzzzzkkzzzzMMMMkkuuvvmmccMMvvvvzzzzzzkkzzzzMMMMkkuu",
"vvmmccMMvvvvzzzzzzkkzzzzMMMMkkuuvvmmccMMvvvvzzzzzzkkzzzzMMMMkkuu",
"CCvvDDMMMMMMMMkkkkkkkkMMBBDDCCuuCCvvDDMMMMMMMMkkkkkkkkMMBBDDCCuu",
"CCvvDDMMMMMMMMkkkkkkkkMMBBDDCCuuCCvvDDMMMMMMMMkkkkkkkkMMBBDDCCuu",
"vvMMbbvvvvvvMMMMkkvvvvvvBBVVkkuuvvMMbbvvvvvvMMMMkkvvvvvvBBVVkkuu",
"vvMMbbvvvvvvMMMMkkvvvvvvBBVVkkuuvvMMbbvvvvvvMMMMkkvvvvvvBBVVkkuu",
"aaaaaaaaaaaaaaaaaaaaaaaaaaaaaaaaaaaaaaaaaaaaaaaaaaaaaaaaaaaaaaaa",
"aaaaaaaaaaaaaaaaaaaaaaaaaaaaaaaaaaaaaaaaaaaaaaaaaaaaaaaaaaaaaaaa",
"vvzzzzkkzzuuvvvvvvvvvvvvMMnnNNNNvvzzzzkkzzuuvvvvvvvvvvvvMMnnNNNN",
"vvzzzzkkzzuuvvvvvvvvvvvvMMnnNNNNvvzzzzkkzzuuvvvvvvvvvvvvMMnnNNNN",
"MMZZzzkkCCuukkMMMMMMMMMMMMSSDDFFMMZZzzkkCCuukkMMMMMMMMMMMMSSDDFF",
"MMZZzzkkCCuukkMMMMMMMMMMMMSSDDFFMMZZzzkkCCuukkMMMMMMMMMMMMSSDDFF",
"zzvvvvzzvvuuMMMMMMvvvvvvBBvvzzllzzvvvvzzvvuuMMMMMMvvvvvvBBvvzzll",
"zzvvvvzzvvuuMMMMMMvvvvvvBBvvzzllzzvvvvzzvvuuMMMMMMvvvvvvBBvvzzll",
"aaaaaaaaaaaaaaaaa:X                              X0aaaaaaaaaaaaa",
"aaaaaaaaaaaaaaaa:                                 Xaaaaaaaaaaaaa",
"FFzzvvvvvvMMvvvv& LUUUUUUUUUUUUUUUUUUUUUUUUUUUUUU  MnnNNNNvvzzuu",
"FFzzvvvvvvMMvvvv& LUUUUUUUUUUUUUUUUUUUUUUUUUUUUUU  MnnNNNNvvzzuu",
"ZZZZMMMMMMMMMMvv= LUUUUUUUUUUUUUUUUUUUUUUUUUUUUUU  MSSvvFFMMZZuu",
"ZZZZMMMMMMMMMMvv= LUUUUUUUUUUUUUUUUUUUUUUUUUUUUUU  MSSvvFFMMZZuu",
"zzFFvvvvvvBBvvvv& LUUUUUUUUJJJJJJJJJJJJJIUUUUUUUU  Bvvzzllzzvvuu",
"zzFFvvvvvvBBvvvv& LUUUUUUUU             LUUUUUUUU  Bvvzzllzzvvuu",
"aaaaaaaaaaaaaaaao LUUUUUUUU  >>>>>>>>>o LUUUUUUUU  aaaaaaaaaaaaa",
"aaaaaaaaaaaaaaaao LUUUUUUUU  aaaaa=     LUUUUUUUU  aaaaaaaaaaaaa",
"zzMMvvzzzzuujjzz< KLLLLLLLL @vzzzh 3GGGGPUUUILLLL OkzzzzNNNNvvzz",
"zzMMvvzzzzuujjzzw           2vzzzt GUUUUUUUUJ     1kzzzzNNNNvvzz",
"MMMMMMZZMMuuxxAAkq,$$$$$;;;6MMZZMi GUUUUUUUUJ --$1kkkkkkDDFFMMZZ",
"MMMMMMZZMMuuxxAAkkkkkkkkDDFFMMh5== GUUUUUUUUJ 7AkkkkkkkkDDFFMMZZ",
"vvMMzzvvvvuukkNNnnzzkkvvzzllzf.    GUUUUUUUUJ 5Nnnzzkkvvzzllzzvv",
"vvMMzzvvvvuukkNNnnzzkkvvzzllz8 HLLLPUUUUJGGGr dNnnzzkkvvzzllzzvv",
"aaaaaaaaaaaaaaaaaaaaaaaaaaaaa> JUUUUUUUUG    Oaaaaaaaaaaaaaaaaaa",
"aaaaaaaaaaaaaaaaaaaaaaaaaa9>>> JUUUUUUUUG 77eaaaaaaaaaaaaaaaaaaa",
"vvmmccMMvvvvzzzzzzkkzzzzMs     JUUUUUUUUG yvzzzzzzkkzzzzMMMMkkuu",
"vvmmccMMvvvvzzzzzzkkzzzzM# JJJJLUUUIJJJJr gvzzzzzzkkzzzzMMMMkkuu",
"CCvvDDMMMMMMMMkkkkkkkkMMB  UUUUUUUUL     -MMMMkkkkkkkkMMBBDDCCuu",
"CCvvDDMMMMMMMMkkkkkkkkMMB  UUUUUUUUL ;55sMMMMMkkkkkkkkMMBBDDCCuu",
"vvMMbbvvvvvvMMMMkkvvvvvvB  UUUUUUUUL &vvvvvvMMMMkkvvvvvvBBVVkkuu",
"vvMMbbvvvvvvMMMMkkvvvvvvB  UUUUUUUUL &vvvvvvMMMMkkvvvvvvBBVVkkuu",
"aaaaaaaaaaaaaaaaaaaaaaaaa  UUUUUUUUL oaaaaaaaaaaaaaaaaaaaaaaaaaa",
"aaaaaaaaaaaaaaaaaaaaaaaaa  UUUUUUUUL oaaaaaaaaaaaaaaaaaaaaaaaaaa",
"vvzzzzkkzzuuvvvvvvvvvvvvM  UUUUUUUUL %kkzzuuvvvvvvvvvvvvMMnnNNNN",
"vvzzzzkkzzuuvvvvvvvvvvvvM  UUUUUUUUL %kkzzuuvvvvvvvvvvvvMMnnNNNN",
"MMZZzzkkCCuukkMMMMMMMMMMM  UUUUUUUUL %kkCCuukkMMMMMMMMMMMMSSDDFF",
"MMZZzzkkCCuukkMMMMMMMMMMM  UUUUUUUUL %kkCCuukkMMMMMMMMMMMMSSDDFF",
"zzvvvvzzvvuuMMMMMMvvvvvvB  UUUUUUUUL &zzvvuuMMMMMMvvvvvvBBvvzzll",
"zzvvvvzzvvuuMMMMMMvvvvvvB  UUUUUUUUL &zzvvuuMMMMMMvvvvvvBBvvzzll",
"aaaaaaaaaaaaaaaaaaaaaaaaa  UUUUUUUUL oaaaaaaaaaaaaaaaaaaaaaaaaaa",
"aaaaaaaaaaaaaaaaaaaaaaaaa  UUUUUUUUL oaaaaaaaaaaaaaaaaaaaaaaaaaa",
"FFzzvvvvvvMMvvvvvvMMnnNNN  UUUUUUUUL &vvvvMMvvvvvvMMnnNNNNvvzzuu",
"FFzzvvvvvvMMvvvvvvMMnnNNN  UUUUUUUUL &vvvvMMvvvvvvMMnnNNNNvvzzuu",
"ZZZZMMMMMMMMMMvvMMMMSSvvF  UUUUUUUUL =MMMMMMMMvvMMMMSSvvFFMMZZuu",
"ZZZZMMMMMMMMMMvvMMMMSSvvF*           4MMMMMMMMvvMMMMSSvvFFMMZZuu",
"zzFFvvvvvvBBvvvvvvBBvvzzlp+        *2vvvvvBBvvvvvvBBvvzzllzzvvuu",
"zzFFvvvvvvBBvvvvvvBBvvzzllzzvvuuzzFFvvvvvvBBvvvvvvBBvvzzllzzvvuu",
"aaaaaaaaaaaaaaaaaaaaaaaaaaaaaaaaaaaaaaaaaaaaaaaaaaaaaaaaaaaaaaaa",
"aaaaaaaaaaaaaaaaaaaaaaaaaaaaaaaaaaaaaaaaaaaaaaaaaaaaaaaaaaaaaaaa",
"zzMMvvzzzzuujjzzzzkkzzzzNNNNvvzzzzMMvvzzzzuujjzzzzkkzzzzNNNNvvzz",
"zzMMvvzzzzuujjzzzzkkzzzzNNNNvvzzzzMMvvzzzzuujjzzzzkkzzzzNNNNvvzz",
"MMMMMMZZMMuuxxAAkkkkkkkkDDFFMMZZMMMMMMZZMMuuxxAAkkkkkkkkDDFFMMZZ",
"MMMMMMZZMMuuxxAAkkkkkkkkDDFFMMZZMMMMMMZZMMuuxxAAkkkkkkkkDDFFMMZZ",
"vvMMzzvvvvuukkNNnnzzkkvvzzllzzvvvvMMzzvvvvuukkNNnnzzkkvvzzllzzvv",
"vvMMzzvvvvuukkNNnnzzkkvvzzllzzvvvvMMzzvvvvuukkNNnnzzkkvvzzllzzvv",
"aaaaaaaaaaaaaaaaaaaaaaaaaaaaaaaaaaaaaaaaaaaaaaaaaaaaaaaaaaaaaaaa",
"aaaaaaaaaaaaaaaaaaaaaaaaaaaaaaaaaaaaaaaaaaaaaaaaaaaaaaaaaaaaaaaa"
};
