/* XPM */
static char *result[] = {
/* columns rows colors chars-per-pixel */
"64 64 78 1 ",
"  c black",
". c #000101",
"X c #000B0B",
"o c #000F0F",
"O c #001111",
"+ c #001313",
"@ c #001414",
"# c #001515",
"$ c #001516",
"% c #001717",
"& c #001718",
"* c #001818",
"= c #001819",
"- c #001919",
"; c #001A1B",
": c #002222",
"> c #002323",
", c #002525",
"< c #002727",
"1 c #002C2C",
"2 c #002D2D",
"3 c #002E2E",
"4 c #002F2F",
"5 c #003031",
"6 c #003233",
"7 c #003333",
"8 c #003434",
"9 c #003536",
"0 c #003738",
"q c #003838",
"w c #00393A",
"e c #003C3C",
"r c #003D3D",
"t c #003F40",
"y c #004041",
"u c #004142",
"i c #004243",
"p c #004343",
"a c #004445",
"s c #004647",
"d c #004747",
"f c #004949",
"g c #00494A",
"h c #004A4A",
"j c #004A4B",
"k c #004B4C",
"l c #004F50",
"z c #005455",
"x c #005657",
"c c #005758",
"v c #00595A",
"b c #005A5B",
"n c #005B5B",
"m c #005B5C",
"M c #005C5D",
"N c #005D5E",
"B c #005E60",
"V c #005F60",
"C c #005F61",
"Z c #006061",
"A c #006162",
"S c #006263",
"D c #006365",
"F c #006465",
"G c #006566",
"H c #006769",
"J c #006869",
"K c #494F51",
"L c #596162",
"P c #768082",
"I c #838E90",
"U c #8F9B9D",
"Y c #9BA7AA",
"T c #B1BFC1",
"R c #BBCACC",
"E c #C5D5D7",
"W c #CFDFE2",
"Q c #D8E9EC",
/* pixels */
"mmBBnnVVmmmmvvvvvvxxvvvvVVVVxxppmmBBnnVVmmmmvvvvvvxxvvvvVVVVxxpp",
"mmBBnnVVmmmmvvvvvvxxvvvvVVVVxxppmmBBnnVVmmmmvvvvvvxxvvvvVVVVxxpp",
"SSmmHHVVVVVVVVxxxxxxxxVVZZHHSSppSSmmHHVVVVVVVVxxxxxxxxVVZZHHSSpp",
"SSmmHHVVVVVVVVxxxxxxxxVVZZHHSSppSSmmHHVVVVVVVVxxxxxxxxVVZZHHSSpp",
"mmVVMMmmmmmmVVVVxxmmmmmmZZAAxxppmmVVMMmmmmmmVVVVxxmmmmmmZZAAxxpp",
"mmVVMMmmmmmmVVVVxxmmmmmmZZAAxxppmmVVMMmmmmmmVVVVxxmmmmmmZZAAxxpp",
"ffffffffffffffffffffffffffffffffffffffffffffffffffffffffffffffff",
"ffffffffffffffffffffffffffffffffffffffffffffffffffffffffffffffff",
"mmvvvvxxvvppmmmmmmmmmmmmVVNNCCCCmmvvvvxxvvppmmmmmmmmmmmmVVNNCCCC",
"mmvvvvxxvvppmmmmmmmmmmmmVVNNCCCCmmvvvvxxvvppmmmmmmmmmmmmVVNNCCCC",
"VVDDvvxxSSppxxVVVVVVVVVVVVGGHHJJVVDDvvxxSSppxxVVVVVVVVVVVVGGHHJJ",
"VVDDvvxxSSppxxVVVVVVVVVVVVGGHHJJVVDDvvxxSSppxxVVVVVVVVVVVVGGHHJJ",
"vvmmmmvvmmppVVVVVVmmmmmmZZmmvvccvvmmmmvvmmppVVVVVVmmmmmmZZmmvvcc",
"vvmmmmvvmmppVVVVVVmmmmmmZZmmvvccvvmmmmvvmmppVVVVVVmmmmmmZZmmvvcc",
"fffffffffffffffffffffeO                     Oqffffffffffffffffff",
"ffffffffffffffffffffdX                        qfffffffffffffffff",
"JJvvmmmmmmVVmmmmmmVVa LQQQQQQQQQQQQQQQQQQQQQI 5mmmVVNNCCCCmmvvpp",
"JJvvmmmmmmVVmmmmmmVVa LQQQQQQQQQQQQQQQQQQQQQI 5mmmVVNNCCCCmmvvpp",
"DDDDVVVVVVVVVVmmVlw69 LQQQQQQQQQQQQQQQQQQQQQI 556gVVGGmmJJVVDDpp",
"DDDDVVVVVVVVVVmml.    LQQQQQQQQQQQQQQQQQQQQQI     gVGGmmJJVVDDpp",
"vvJJmmmmmmZZmmmm3 PIIIYQQQQIIIIIIIIIIIIIEQQQTIIII %Zmmvvccvvmmpp",
"vvJJmmmmmmZZmmmm* TQQQQQQQQ             TQQQQQQQQ  Zmmvvccvvmmpp",
"ffffffffffffffff+ TQQQQQQQQ  <<<<<<<<<+ TQQQQQQQQ  fffffffffffff",
"ffffffffffffffff+ TQQQQQQQQ  fffffffff+ TQQQQQQQQ  fffffffffffff",
"vvVVmmvvvvppzzvv& TQQQQQQQQ  mvvvvVVmm& TQQQQQQQQ  xvvvvCCCCmmvv",
"vvVVmmvvvvppzzvv& TQQQQQQQQ  mvvvvVVmm& TQQQQQQQQ  xvvvvCCCCmmvv",
"VVVVVVDDVVppbbFF% TQQQQQQQQ  VDDVVVVVV; TQQQQQQQQ  xxxxxHHJJVVDD",
"VVVVVVDDVVppbbFF% TQQQQQQQQ  -;;------; TQQQQQQQQ  xxxxxHHJJVVDD",
"mmVVvvmmmmppxxCC= TQQQQQQQQ             TQQQQQQQQ  vxxmmvvccvvmm",
"mmVVvvmmmmppxxCC4 KLLLIQQQQTTTTTTTTTTTTTWQQQYLLLL #vxxmmvvccvvmm",
"fffffffffffffffffo    LQQQQQQQQQQQQQQQQQQQQQI    Xefffffffffffff",
"fffffffffffffffffr1<< LQQQQQQQQQQQQQQQQQQQQQI <<<qffffffffffffff",
"mmBBnnVVmmmmvvvvj.    LQQQQQQQQQQQQQQQQQQQQQI     ixvvvvVVVVxxpp",
"mmBBnnVVmmmmvvvv2 PIIIYQQQQIIIIIIIIIIIIIEQQQTIIII @xvvvvVVVVxxpp",
"SSmmHHVVVVVVVVxx% TQQQQQQQQ             TQQQQQQQQ  xxxVVZZHHSSpp",
"SSmmHHVVVVVVVVxx% TQQQQQQQQ  8>>885500- TQQQQQQQQ  xxxVVZZHHSSpp",
"mmVVMMmmmmmmVVVV% TQQQQQQQQ  xppmmVVMM* TQQQQQQQQ  mmmmmZZAAxxpp",
"mmVVMMmmmmmmVVVV% TQQQQQQQQ  xppmmVVMM* TQQQQQQQQ  mmmmmZZAAxxpp",
"ffffffffffffffff+ TQQQQQQQQ  fffffffff+ TQQQQQQQQ  fffffffffffff",
"ffffffffffffffff+ TQQQQQQQQ  fffffffff+ TQQQQQQQQ  fffffffffffff",
"mmvvvvxxvvppmmmm* TQQQQQQQQ  CCCmmvvvv% TQQQQQQQQ  mmmmmVVNNCCCC",
"mmvvvvxxvvppmmmm* TQQQQQQQQ  CCCmmvvvv% TQQQQQQQQ  mmmmmVVNNCCCC",
"VVDDvvxxSSppxxVV- TQQQQQQQQ  HJJVVDDvv% TQQQQQQQQ  VVVVVVVGGHHJJ",
"VVDDvvxxSSppxxVV- TQQQQQQQQ  HJJVVDDvv% TQQQQQQQQ  VVVVVVVGGHHJJ",
"vvmmmmvvmmppVVVV- TQQQQQQQQ  uttuuiiii& TQQQQQQQQ  mmmmmZZmmvvcc",
"vvmmmmvvmmppVVVV- TQQQQQQQQ             TQQQQQQQQ  mmmmmZZmmvvcc",
"ffffffffffffffff: UTTTRQQQQLLLLLLLLLLLLLRQQQETTTT Offfffffffffff",
"ffffffffffffffff7     LQQQQQQQQQQQQQQQQQQQQQI     ,fffffffffffff",
"JJvvmmmmmmVVmmmmmy1-= LQQQQQQQQQQQQQQQQQQQQQI ***3VVNNCCCCmmvvpp",
"JJvvmmmmmmVVmmmmmmVVa LQQQQQQQQQQQQQQQQQQQQQI 5mmmVVNNCCCCmmvvpp",
"DDDDVVVVVVVVVVmmVVVVh LQQQQQQQQQQQQQQQQQQQQQI 5mVVVVGGmmJJVVDDpp",
"DDDDVVVVVVVVVVmmVVVVSo                        smVVVVGGmmJJVVDDpp",
"vvJJmmmmmmZZmmmmmmZZmk#                     $smmmmZZmmvvccvvmmpp",
"vvJJmmmmmmZZmmmmmmZZmmvvccvvmmppvvJJmmmmmmZZmmmmmmZZmmvvccvvmmpp",
"ffffffffffffffffffffffffffffffffffffffffffffffffffffffffffffffff",
"ffffffffffffffffffffffffffffffffffffffffffffffffffffffffffffffff",
"vvVVmmvvvvppzzvvvvxxvvvvCCCCmmvvvvVVmmvvvvppzzvvvvxxvvvvCCCCmmvv",
"vvVVmmvvvvppzzvvvvxxvvvvCCCCmmvvvvVVmmvvvvppzzvvvvxxvvvvCCCCmmvv",
"VVVVVVDDVVppbbFFxxxxxxxxHHJJVVDDVVVVVVDDVVppbbFFxxxxxxxxHHJJVVDD",
"VVVVVVDDVVppbbFFxxxxxxxxHHJJVVDDVVVVVVDDVVppbbFFxxxxxxxxHHJJVVDD",
"mmVVvvmmmmppxxCCNNvvxxmmvvccvvmmmmVVvvmmmmppxxCCNNvvxxmmvvccvvmm",
"mmVVvvmmmmppxxCCNNvvxxmmvvccvvmmmmVVvvmmmmppxxCCNNvvxxmmvvccvvmm",
"ffffffffffffffffffffffffffffffffffffffffffffffffffffffffffffffff",
"ffffffffffffffffffffffffffffffffffffffffffffffffffffffffffffffff"
};
