/* XPM */
static char *result[] = {
/* columns rows colors chars-per-pixel */
"64 64 73 1 ",
"  c black",
". c #000101",
"X c #000B0B",
"o c #000F0F",
"O c #001111",
"+ c #001313",
"@ c #001515",
"# c #001516",
"$ c #001717",
"% c #001718",
"& c #001818",
"* c #001819",
"= c #001919",
"- c #001A1B",
"; c #002222",
": c #002525",
"> c #002727",
", c #002A2B",
"< c #002C2C",
"1 c #002D2D",
"2 c #002E2E",
"3 c #002F2F",
"4 c #003031",
"5 c #003233",
"6 c #003333",
"7 c #003434",
"8 c #003536",
"9 c #003838",
"0 c #00393A",
"q c #003C3C",
"w c #003F40",
"e c #004041",
"r c #004142",
"t c #004243",
"y c #004343",
"u c #004445",
"i c #004647",
"p c #004747",
"a c #004849",
"s c #004949",
"d c #00494A",
"f c #004A4A",
"g c #004B4C",
"h c #004F50",
"j c #005455",
"k c #005657",
"l c #005758",
"z c #00595A",
"x c #005A5B",
"c c #005B5B",
"v c #005B5C",
"b c #005C5D",
"n c #005D5E",
"m c #005E60",
"M c #005F60",
"N c #005F61",
"B c #006061",
"V c #006162",
"C c #006263",
"Z c #006365",
"A c #006465",
"S c #006566",
"D c #006769",
"F c #006869",
"G c #596162",
"H c #768082",
"J c #838E90",
"K c #8F9B9D",
"L c #9BA7AA",
"P c #B1BFC1",
"I c #BBCACC",
"U c #C5D5D7",
"Y c #D8E9EC",
/* pixels */
"vvmmccMMvvvvzzzzzzkkzzzzMMMMkkyyvvmmccMMvvvvzzzzzzkkzzzzMMMMkkyy",
"vvmmccMMvvvvzzzzzzkkzzzzMMMMkkyyvvmmccMMvvvvzzzzzzkkzzzzMMMMkkyy",
"CCvvDDMMMMMMMMkkkkkkkkMMBBDDCCyyCCvvDDMMMMMMMMkkkkkkkkMMBBDDCCyy",
"CCvvDDMMMMMMMMkkkkkkkkMMBBDDCCyyCCvvDDMMMMMMMMkkkkkkkkMMBBDDCCyy",
"vvMMbbvvvvvvMMMMkkvvvvvvBBVVkkyyvvMMbbvvvvvvMMMMkkvvvvvvBBVVkkyy",
"vvMMbbvvvvvvMMMMkkvvvvvvBBVVkkyyvvMMbbvvvvvvMMMMkkvvvvvvBBVVkkyy",
"ssssssssssssssssssssssssssssssssssssssssssssssssssssssssssssssss",
"ssssssssssssssssssssssssssssssssssssssssssssssssssssssssssssssss",
"vvzzzzkkzzyyvvvvvvvvvvvvMMnnNNNNvvzzzzkkzzyyvvvvvvvvvvvvMMnnNNNN",
"vvzzzzkkzzyyvvvvvvvvvvvvMMnnNNNNvvzzzzkkzzyyvvvvvvvvvvvvMMnnNNNN",
"MMZZzzkkCCyykkMMMMMMMMMMMMSSDDFFMMZZzzkkCCyykkMMMMMMMMMMMMSSDDFF",
"MMZZzzkkCCyykkMMMMMMMMMMMMSSDDFFMMZZzzkkCCyykkMMMMMMMMMMMMSSDDFF",
"zzvvvvzzvvyyMMMMMMvvvvvvBBvvzzllzzvvvvzzvvyyMMMMMMvvvvvvBBvvzzll",
"zzvvvvzzvvyyMMMMMMvvvvvvBBvvzzllzzvvvvzzvvyyMMMMMMvvvvvvBBvvzzll",
"sssssssssssssssssssssqO                     O9ssssssssssssssssss",
"sssssssssssssssssssspX                        9sssssssssssssssss",
"FFzzvvvvvvMMvvvvvvMMu GYYYYYYYYYYYYYYYYYYYYYJ 4vvvMMnnNNNNvvzzyy",
"FFzzvvvvvvMMvvvvvvMMu GYYYYYYYYYYYYYYYYYYYYYJ 4vvvMMnnNNNNvvzzyy",
"ZZZZMMMMMMMMMMvvMh058 GYYYYYYYYYYYYYYYYYYYYYJ 445dMMSSvvFFMMZZyy",
"ZZZZMMMMMMMMMMvvh.    GYYYYYYYYYYYYYYYYYYYYYJ     dMSSvvFFMMZZyy",
"zzFFvvvvvvBBvvvv2 HJJJLYYYYJJJJJJJJJJJJJUYYYPJJJJ $Bvvzzllzzvvyy",
"zzFFvvvvvvBBvvvv& PYYYYYYYY             PYYYYYYYY  Bvvzzllzzvvyy",
"ssssssssssssssss+ PYYYYYYYY  >>>>>>>>>+ PYYYYYYYY  sssssssssssss",
"ssssssssssssssss+ PYYYYYYYY  sssssssss+ PYYYYYYYY  sssssssssssss",
"zzMMvvzzzzyyjjzz% PYYYYYYYY  vzzzzMMvv% PYYYYYYYY  kzzzzNNNNvvzz",
"zzMMvvzzzzyyjjzz% PYYYYYYYY  vzzzzMMvv% PYYYYYYYY  kzzzzNNNNvvzz",
"MMMMMMZZMMyyxxAA$ PYYYYYYYY  MZZMMMMMM- PYYYYYYYY  kkkkkDDFFMMZZ",
"MMMMMMZZMMyyxxAA$ PYYYYYYYY  MZZMMMMMM- PYYYYYYYY  kkkkkDDFFMMZZ",
"vvMMzzvvvvyykkNN* PYYYYYYYY  zvvvvMMzz& PYYYYYYYY  zkkvvzzllzzvv",
"vvMMzzvvvvyykkNN* PYYYYYYYY  zvvvvMMzz& PYYYYYYYY  zkkvvzzllzzvv",
"ssssssssssssssss+ PYYYYYYYY  sssssssss+ PYYYYYYYY  sssssssssssss",
"ssssssssssssssss+ PYYYYYYYY  >>>>>>>>>+ PYYYYYYYY  sssssssssssss",
"vvmmccMMvvvvzzzz% PYYYYYYYY             PYYYYYYYY  kzzzzMMMMkkyy",
"vvmmccMMvvvvzzzz1 HJJJLYYYYJJJJJJJJJJJJJUYYYYYYYY  kzzzzMMMMkkyy",
"CCvvDDMMMMMMMMkka.    GYYYYYYYYYYYYYYYYYYYYYYYYYY  kkkMMBBDDCCyy",
"CCvvDDMMMMMMMMkkka722 GYYYYYYYYYYYYYYYYYYYYYYYYYY  kkkMMBBDDCCyy",
"vvMMbbvvvvvvMMMMkkvvt GYYYYYYYYYYYYYYYYYYYYYYYYYY  vvvvvBBVVkkyy",
"vvMMbbvvvvvvMMMMkkvvt GYYYYYYYYYYYYYYYYYYYYYYYYYY  vvvvvBBVVkkyy",
"sssssssssssssssssssspX                  PYYYYYYYY  sssssssssssss",
"sssssssssssssssssssssqO                 PYYYYYYYY  sssssssssssss",
"vvzzzzkkzzyyvvvvve,&&&&&==*3NNNNvvzzzz$ PYYYYYYYY  vvvvvMMnnNNNN",
"vvzzzzkkzzyyvvvve           4NNNvvzzzz$ PYYYYYYYY  vvvvvMMnnNNNN",
"MMZZzzkkCCyykkMM< KPPPPPPPP *DFFMMZZzz$ PYYYYYYYY  MMMMMMMSSDDFF",
"MMZZzzkkCCyykkMM= PYYYYYYYY  DFFMMZZzz$ PYYYYYYYY  MMMMMMMSSDDFF",
"zzvvvvzzvvyyMMMM= PYYYYYYYY  rwwrrtttt% PYYYYYYYY  vvvvvBBvvzzll",
"zzvvvvzzvvyyMMMM= PYYYYYYYY             PYYYYYYYY  vvvvvBBvvzzll",
"ssssssssssssssss; KPPPIYYYYGGGGGGGGGGGGGIYYYUPPPP Osssssssssssss",
"ssssssssssssssss6     GYYYYYYYYYYYYYYYYYYYYYJ     :sssssssssssss",
"FFzzvvvvvvMMvvvvve<=* GYYYYYYYYYYYYYYYYYYYYYJ &&&2MMnnNNNNvvzzyy",
"FFzzvvvvvvMMvvvvvvMMu GYYYYYYYYYYYYYYYYYYYYYJ 4vvvMMnnNNNNvvzzyy",
"ZZZZMMMMMMMMMMvvMMMMf GYYYYYYYYYYYYYYYYYYYYYJ 4vMMMMSSvvFFMMZZyy",
"ZZZZMMMMMMMMMMvvMMMMCo                        ivMMMMSSvvFFMMZZyy",
"zzFFvvvvvvBBvvvvvvBBvg@                     #ivvvvBBvvzzllzzvvyy",
"zzFFvvvvvvBBvvvvvvBBvvzzllzzvvyyzzFFvvvvvvBBvvvvvvBBvvzzllzzvvyy",
"ssssssssssssssssssssssssssssssssssssssssssssssssssssssssssssssss",
"ssssssssssssssssssssssssssssssssssssssssssssssssssssssssssssssss",
"zzMMvvzzzzyyjjzzzzkkzzzzNNNNvvzzzzMMvvzzzzyyjjzzzzkkzzzzNNNNvvzz",
"zzMMvvzzzzyyjjzzzzkkzzzzNNNNvvzzzzMMvvzzzzyyjjzzzzkkzzzzNNNNvvzz",
"MMMMMMZZMMyyxxAAkkkkkkkkDDFFMMZZMMMMMMZZMMyyxxAAkkkkkkkkDDFFMMZZ",
"MMMMMMZZMMyyxxAAkkkkkkkkDDFFMMZZMMMMMMZZMMyyxxAAkkkkkkkkDDFFMMZZ",
"vvMMzzvvvvyykkNNnnzzkkvvzzllzzvvvvMMzzvvvvyykkNNnnzzkkvvzzllzzvv",
"vvMMzzvvvvyykkNNnnzzkkvvzzllzzvvvvMMzzvvvvyykkNNnnzzkkvvzzllzzvv",
"ssssssssssssssssssssssssssssssssssssssssssssssssssssssssssssssss",
"ssssssssssssssssssssssssssssssssssssssssssssssssssssssssssssssss"
};
