/* XPM */
static char *result[] = {
/* columns rows colors chars-per-pixel */
"64 64 232 2 ",
"   c #000000",
".  c #0B0603",
"X  c #070B05",
"o  c #090C06",
"O  c #00070B",
"+  c #0D0D0C",
"@  c #180301",
"#  c #130A05",
"$  c #160D08",
"%  c #1A0E09",
"&  c #0B1108",
"*  c #19150C",
"=  c #161312",
"-  c #25150D",
";  c #2C180E",
":  c #301407",
">  c #341C11",
",  c #3A1F12",
"<  c #192A14",
"1  c #1D3515",
"2  c #2D2514",
"3  c #3B2516",
"4  c #26361B",
"5  c #32311C",
"6  c #282B25",
"7  c #2A3526",
"8  c #36352D",
"9  c #353733",
"0  c #4E1601",
"q  c #4B1903",
"w  c #4E200B",
"e  c #572309",
"r  c #432416",
"t  c #4B2919",
"y  c #572A14",
"u  c #542D1B",
"i  c #57311E",
"p  c #5B311E",
"a  c #6C2B0B",
"s  c #78310D",
"d  c #62341E",
"f  c #6E3418",
"g  c #783716",
"h  c #7D3B1B",
"j  c #5E3521",
"k  c #4B3D32",
"l  c #633621",
"z  c #663923",
"x  c #643C27",
"c  c #6A3B24",
"v  c #753E23",
"b  c #2C411C",
"n  c #365029",
"m  c #366328",
"M  c #3A652B",
"N  c #3C6A2D",
"B  c #3F6C31",
"V  c #4E4933",
"C  c #7C4226",
"Z  c #764228",
"A  c #764229",
"S  c #7C442A",
"D  c #6C4837",
"F  c #436638",
"G  c #457834",
"H  c #353F43",
"J  c #3C464B",
"K  c #464645",
"L  c #515144",
"P  c #5A5A58",
"I  c #6F5449",
"U  c #55684D",
"Y  c #556E4C",
"T  c #666866",
"R  c #687166",
"E  c #797A79",
"W  c #883810",
"Q  c #893C16",
"!  c #813E1C",
"~  c #85401E",
"^  c #93431C",
"/  c #844424",
"(  c #8A4624",
")  c #82472A",
"_  c #844A2E",
"`  c #8A4C2E",
"'  c #944C28",
"]  c #9A512E",
"[  c #864D31",
"{  c #8C4E31",
"}  c #904F30",
"|  c #8E5132",
" . c #8B553A",
".. c #935334",
"X. c #9B5635",
"o. c #9D5837",
"O. c #97593B",
"+. c #94593D",
"@. c #A45026",
"#. c #A35936",
"$. c #A95B36",
"%. c #A35C3A",
"&. c #B45E34",
"*. c #AB613D",
"=. c #B3623B",
"-. c #BB6438",
";. c #BB653C",
":. c #C85F2C",
">. c #C4673B",
",. c #D76833",
"<. c #ED7033",
"1. c #8A5A45",
"2. c #97654F",
"3. c #AD6C4E",
"4. c #8D746C",
"5. c #A87964",
"6. c #A47F70",
"7. c #C76C41",
"8. c #CA7247",
"9. c #D87445",
"0. c #E67B49",
"q. c #F27D46",
"w. c #4E8C39",
"e. c #53953E",
"r. c #599046",
"t. c #669457",
"y. c #5DA646",
"u. c #65AA4E",
"i. c #68BB4D",
"p. c #68B050",
"a. c #6DBD53",
"s. c #71BE57",
"d. c #74BC5C",
"f. c #74906B",
"g. c #76AA65",
"h. c #7ABA64",
"j. c #7EBA6A",
"k. c #68C04B",
"l. c #6EC352",
"z. c #71C655",
"x. c #75C75A",
"c. c #75C95A",
"v. c #7BC663",
"b. c #7CCA62",
"n. c #7FC468",
"m. c #81947B",
"M. c #B28571",
"N. c #80B470",
"B. c #87B676",
"V. c #84B973",
"C. c #8BB57D",
"Z. c #EB824F",
"A. c #F6844C",
"S. c #FA8752",
"D. c #FF975A",
"F. c #D39174",
"G. c #E79C78",
"H. c #FEA76C",
"J. c #82C56C",
"K. c #82CA6B",
"L. c #86C372",
"P. c #89C475",
"I. c #8BC977",
"U. c #8DC37B",
"Y. c #90C67F",
"T. c #858685",
"R. c #8B9289",
"E. c #949595",
"W. c #B1958D",
"Q. c #8FA08A",
"!. c #94AB8C",
"~. c #8EB581",
"^. c #94B589",
"/. c #96B58B",
"(. c #9BAB95",
"). c #9DB496",
"_. c #A1AB9E",
"`. c #A0BF96",
"'. c #A2B29C",
"]. c #A4BF9C",
"[. c #8FA9B6",
"{. c #A6A9A5",
"}. c #AEAEAE",
"|. c #A6B1A3",
" X c #A9B0A6",
".X c #A7BEA0",
"XX c #AABEA4",
"oX c #ACB0AA",
"OX c #AEBEA9",
"+X c #B0BCB1",
"@X c #B5BDB3",
"#X c #B5B8B4",
"$X c #BCBDBD",
"%X c #C49D8E",
"&X c #DC9C82",
"*X c #C7A698",
"=X c #E4AA93",
"-X c #D4B5AC",
";X c #93C383",
":X c #97C389",
">X c #9AC48C",
",X c #9BCD8B",
"<X c #9DC292",
"1X c #A2C697",
"2X c #A5C39B",
"3X c #AAC3A3",
"4X c #ADC5A6",
"5X c #B1C2AD",
"6X c #B3CBAC",
"7X c #B5C2B2",
"8X c #B9C3B6",
"9X c #BBCAB7",
"0X c #BCC2BC",
"qX c #C0C6BF",
"wX c #DEC1B9",
"eX c #F1C8BA",
"rX c #BFBFC0",
"tX c #BFC1C0",
"yX c #C3C3C4",
"uX c #C5CCC4",
"iX c #C7C7C8",
"pX c #C7C9C9",
"aX c #CACBCC",
"sX c #D4CDC9",
"dX c #E1D0C9",
"fX c #F6DCD4",
"gX c #FEE2DC",
"hX c #D2F6FC",
"jX c #F6E5E4",
"kX c #EDFFFF",
"lX c #FDF5F4",
"zX c #FEFEFD",
/* pixels */
"yXyXyXyXyXyXyXiXrXyXrXyXrXrXrXrXrXrX$X$XrXrXrXrXyXiXyXiXrXrX{.{.rXrXyXyXrXrXiXiXyXrXyXrXrXrXrXrXrXrX$X$XrXrXrXrXyXyXiXiXrX$X{.{.",
"yXrXyXyXyXiXiXyXyXrXyXrXrXrXrXrXrXrX$X$XrXrXrXrXiXyXyXiXrXrX{.{.yXrXiXiXrXyXiXiXrXyXrXyXrXrXrXrXrXrX$X$XrXrXrXrXiXyXiXaXrX$X}.{.",
"pXpXyXrXaXaXiXyXyXiXyXiXyXyXrX$X$X$X$XrX$XrXrXiXiXiXaXaXaXiX}.{.aXiXrXrXaXaXyXyXiXyXiXyXiXyXrX$X$X$X$X$X$X$XiXyXiXiXaXaXiXiX{.}.",
"pXpXrXyXaXaXyXiXiXyXiXyXiXrX$XrX$X$X$XrX$X$XyXyXiXaXaXaXiXiX{.{.aXiXrXyXaXaXyXiXyXiXyXyXyXiXrXrX$X$X$X$X$XrXiXiXyXiXaXaXiXiX{.{.",
"yXrXiXyXyXyXyXrXyXrXyXyXyXiXyXyX$X$XrXrXyXrXrXrXiXiXiXiXrX$X}.{.yXrXiXyXiXyXyXrXrXyXrXyXyXiXiXiXrX$XyXrXyXrXtXtXiXiXiXaXrXrX{.{.",
"rXyXiXaXrXyXyXiXrXyXrXyXiXyXyXiXrXrXrXyXrXyXrXqXiXiXiXpX$X$X{.}.yXrXyXyXyXyXrXyXyXyXyXrXiXyXiXiX$X$XrXyXrXyXtXtXiXiXiXaXrXrX{.{.",
"}.}.}.}.}.}.}.}.}.}.}.}.9   + + + + + + $ +   T }.}.}.}.}.}.}.}.}.}.}.}.}.rX}.}.}.T.  + $ + + + O $ +   = oX}.}.}.}.}.}.}.}.}.}.",
"}.}.}.}.}.}.}.}.}.}.}.}.9   O .               P {.}.{.oX}.}.}.}.}.}.}.}.}.}.}.}.}.T.                    + {. XoX}.}.}.}.}.}.}.}.",
"yXrXrXrXrXrXrXrXyXrXK K D { S v Z C C C C C } V K R 8XtXtXyXyXuXyXrXrXrXrXrXrXT.K L ` ) ! v / v S S S ` A K V _.rXrXyXyXyXiXyXiX",
"rXyXrXrXrXrXrXrXrX#X+   &.D.S.A.A.A.A.,.,.q.D.C   7 5X8XtXtXuXpXrXyXrXrXrXrXrXP   , D.q.,.,.q.S.A.A.A.S.0..   m.@X$X0XtXyXuXiXyX",
"iXyXiXiXrXrXrX{.E E u t ..7.&.&.=.&.*.&X=X3.>.) r V f.f.9XuXuXaXiXyXaXaXrXR.T.L t l ;.=.&X=X7.$.=.*.*.;.*.u u U E Q.9XuXaXaXaXaX",
"yXiXiXyXrXrXrXR.O . 0.S.1.S v v C )  .lXlX5.a =.D.$.  & 4X9XuXpXrXiXiXaXrX9   v D.8.f 1.zXzX5.a [ ` [ A [ <.<.,   U 9X9XaXaXaXaX",
"rXrXyXrXrXrXrXT.  # 7.9.#.) ..1. .)  .jXzX5.f *.Z.]   $ ^.3XXX$XrXrXrX$XrX9   c q.3.v 1.gXzX5.s ` ` { _ | 8.Z.3   U 2XXX9X8X$X$X",
"rXrXrXyXrXP   3 9.7.| { } s %XzX-Xq p x j ) } | ` X.8.=.$   f.@X#XrX{.+ . { 0.%.` ' } ` x x j p j u c ( +.jXzXF.,.x   9 4X7X@X$X",
"}.}.}.}.}.K   , S.9.{ _ ` s *XzXsXq i e w ) o.} S o.S.9..   f.).{.{.E.    #.D.&.v { O.} y w p l j p c ( O.lXzXG.<.v   7 /.).|.oX",
"}.}.}.}.}.K   ; *.%.} ` { ] D J 8 # $ $ . i c Z O...o.X.] #.8 7 6 9 9 ] ..X.#.} .._ z d % # % % $   , ..X.5.5.2.-.u   7 ~./.).|.",
"aXaXyXrXrXK O - O._ ` ` ..3.t       X     t d C #.( e s A.D.r       ; S.D.( 0 ! O.) d p X           - %...h s ) o.r   7 Y.:X^.(.",
"aXaXyXT E k c v ....{ { C ` 3   * G N B G 4 - p ' 2.*X%X*.&.A i l j c $.#.F.-X5.' Z - 2 M B N G 4   % ) v { | { ..A c j Y Y ~.!.",
"aXaXaX+   X.H.9.a h ` O.c f >   1 z.z.c.c.b   t ' M.zXlX .f 9.S.S.S.0.S a dXzX*XQ v   & l.z.z.c.M   * d l { O.v e -.H.&.  O C.!.",
"aXaXaX=   v ,.3.5.5.{ ' u r 4 < m c.c.c.b.4   3 ( 2.fXwX ./ *.7.=.7.$.` / *XlXM.h l   & l.c.x.x.r.< 5 r t ` } 3.M.3.,.`   + N.~.",
"tXtXaX+   i Q 5.zXzX+.( -   N z.z.c.b.n.K.4   ; z d ~ ! | | [ _ [ [ { | | ( Q f d r   o a.c.v.n.n.J.t.  . _ ~ dXzX*XW l   o j.C.",
"tXtXaX=   i Q 5.zXjX+.' -   N z.c.b.n.;XU.n   2 p d ` ` | | { ` { { { { | ` ` c u 3   * z.b.J.L.U.U.t.  . ) ( -XzX%XQ x   o h.N.",
"}.}.}.$   i %.| +.+.| o.-   m k.l.h.j.j.~.C.~.L   % z p { | { | | | | | | c l >   1 k.k.a.d.j.B.C.~.f.  . _ X.O.+.| %.c   o h.N.",
"}.}.}.+   i %.` h ~ } o.-   M a.x.h.j.~.^.^.~.U   * d d { ..{ } | | | | ..c c >   1 k.l.s.h.N.C.^./.f.    _ X./ ! ) %.x   o d.j.",
"yXrXyX+   i %.| { | } X.-   N x.n.;X^.<X3XOX3X!.g.Y $ * _ ..| } { { { | o.3   n y.y.i.a.n.V.:X1XXX4Xm.  . _ X.} ` ..%.c   o v.L.",
"rXrXtX=   j *.) s s ` o.-   B v.n.;X<X3X5X7X@X3X3Xf.  . { 3.h a / | { X.*.-   N l.c.a.s.J.U.<X3XOX@XR.    s s ( ..{ %.x   o x.J.",
"yXpXtX=   i @.2.*X%XO.] -   B K.n.;X).4X+X@X@XOX6Xm.  . c h M.wX5.! ` A ) %   N c.x.s.h.;X>X4X9X@X@XR.  . W.-X2./ { %.c   o b.I.",
"pXpXtX+   j ^ 6.zXzX+.' -   B K.P.:X).4X@X$X@X+X9Xm.    y 0 sXzX*Xs _ p l $   N x.h.d.j.:X2X6X9X@X$XR.  + lXzX6.s { #.z   o b.I.",
"tXtXtX=   j ' 3.fXwX+.' -   B n.U.>X2X5X@X$XtX0X6XQ.6 7 r : W.lXM.! S r r 4 < w.x.J.j.B.<XXX9X9XyX0XR.  o -XjX3.! ` %.x   o b.J.",
"yXtXtX=   j %.` h C } X.-   B K.I.>X3X5X#X$XtXtX0X7X3X/.&   d ^ ` o.C     r.z.z.v.L.N.~.].OXyXyXyXyXR.  . g ^ ! ! ` %.c   o v.K.",
"}.}.}.+   j %.{ ` ` ..X.-   M d.j.~./.'. X}.oX}.oX X'.^.+   c o.` #.Z     e.k.z.v.j.C./.'.|.oX}.}.}.T.  . S ]  .+...#.c   o a.h.",
"}.}.}.+   u o.{ | | { o.-   M d.j.~./.'. X}.}.}.oXoX|.(.+   c #.{ o.A     w.a.s.h.V.^.).|.{.}.}.}.}.T.  . ) ( wXzX%XQ x   o l.h.",
"yXtXyX+   t ^ ~ | | | X.-   B n.P.>X].OX0XrXrXrXyXtX0X@X+   l %.{ o.C     e.b.K.U.,X2X5X7X$X$XrXrXrXR.  . ) ~ dXzX*XW c   o a.d.",
"tXyXyX+   4.lX*X/ ` { | } &.V 1 F :X`.4X@X$X$XrXyX{.8 9 | #.{ { { { { ..#.8 < r.;X<X3X5X$X0XrXrXE 6 k %...} ` 3.M.2.] z   o a.h.",
"iXpXrX+   {.zXdXh ` | [ :.<.f   4 ~.).3X@X$XyXiXyXE.O + 0.D.&.[ ..{ #.S.D.r   F ,X2X4X8X0XuXrX$XT   > <.,... .! s ) 3.c   o s.d.",
"pXpXrX+ O I -X6.( ` } ( F.fXI   7 ;X<XXXOXE P T E T T.4.$.&.) c Z c S &.&.4.E.U Y U U R 8XtX$X$XT   t eX=X..) { .._ / u   . a.g.",
"rXyXyXo   : 0 e o.X.` h dXzX4.  4 U.>X3X5X9       J zXzX+.( z u p p l { h dXzXT.      + OX0X0XyXP   J zXlX+.! ..o.S d 3   X a.h.",
"yXrXyXK 9 8 , t _ S [ ~ *XlX4.@ b g.f.f.!.k 3 > @ D jX-X[ C i 2 r , t ) g *XlX4.@ 3 , 3 R.(.R.oXP % D gX-X..( ) | l 3 3 1 b a.d.",
"}.}.}.|.).n   % d p | O./ f &.D.#.  X     $.S.0.A.>.! ! p d %       . i j h s &.S.9.A.9..       v D.7.f / } O.z p >   1 k.i.s.h.",
"}.}.{. X).V   * p i [ | ` S %.A.]   . .   X.0.7.8.-.` ) i p = O + O = u t v ) #.9.7.9.;.$   .   f S.;./ { [ } l i 2   b i.a.d.j.",
"iXyX$X0X4X]./.t.  . j j ) O.| { X.>.3.>.>.] { ....) p u     [.hXhXhXrX    r p A X.| { ..-.>.-.7.%._ ` O.{ l d *   M z.z.c.c.K.;X",
"rXyX0X$X@X3X/.f.  . i j ) X.| A o.Z.9.,.,.] S ` | S t r     rXzXkXkXaX    , r c .._ ) ` :.,.9.A.=.A ` O...l d *   M z.c.b.K.I.,X",
"iXyXpXiX@X7X2X^.g.t.* . u c S ..| ' o.eXgX3.~ | [ ..;.#..   6 J H J H O   C 7.X._ { / +.eXgX3.( ....) c j % # G y.p.c.K.I.I.,X1X",
"yXiXpXpX0X@XXX2X1X;X.   r c C ..` h  .zXzXM.Q O.) #.S.9..                 $.D.-.S { ' O.zXzX6.s ` ..S d p .   e.z.c.b.K.I.,X1X6X",
"rXrXrXyX0X0X@X4X3X<XU F 5 - j #.| _  .%X-X1.y ) | ..=.*.d p d d l l l l d X.3.#.{ [ d S %X-X2./ | X.Z - 2 m M p.c.b.b.I.,X>X2X4X",
"rXrXyXrXyX$X$X@X5X3XB.N.7   t #.{ | | W s d t S *.| A [ <.<.A.S.S.S.S.S.S.#.c { %.[ u j s W ` | ` #.z   & l.z.z.b.K.P.;X,X1XOX@X",
"}.}.}.#X}.}.oXoX X(.f.f.8 ; d X.` | { ) _ u ; l [ _ ` O.F.F.8.=.;.=.;.;.3.X.` [ _ v > r S ) { { | o.A ; 3 w.e.p.d.j.B.~./.'.|. X",
"}.}.}.}.}.}.oX}.OX_.&   $.D.=.f ( ..| d d %   ; d c ( O.lXzX5.g { [ _ v ! ' o.v p r     u p S o.) h ] S.9..   w.h.V.~./.).|.oXoX",
"aXaXyXyXrXyXrXrXrX}.=   X.q.3.[  .| [ i i * & 2 p d ( +.jXzX5.g { ` { O.+. .] c i 3 & & t u S } |  .%.9.>.#   r.Y.;X1XXX@X8X{.{.",
"sXaXrXrXyXyXyXE.  = -.7.X.s %XzX-Xw u .   e.z.N   * z p j D i i p w D lXzX1.e >   4 z.a.&   r q W.zXwX/ ..;.9.3   Y 2X4X5X$X{.}.",
"iXaXaXaXyXyXiXE.  . :.<...a *XzXsXe y .   r.z.M   * c p e e p j j q I zXzX4.0 >   1 c.z.o   t 0 W.zXdXg ` ,.<.q   Y 1X5XqXiX{.{.",
"aXaXaXaXrXE 6 k ] o.eXgX3.W 1.4.D . * e.y.a.z.p.p.G % % $ $ $ $ $ @ * K K * # m u.y.x.x.y.u.4   k 4.1./ O.eXjX3.@.V 6 U 6XqX{.{.",
"rXrXaXaXaXK   r S.D.zXzXM.' g 0 :   . l.z.c.x.n.J.r.                          m z.z.c.b.b.J.4   : 0 a ' 2.lXzX=XA.S   6 3X5X_.{.",
"rXrXaXaXrXP   - ] } W.W.I h u - 5 M B z.c.v.J.J.U.g.F F F N m m M M N B M M n e.c.c.K.I.I.U.r.L 5 ; , v v W.W.1.@.t   7 1X2X(._.",
"}.}.}.}.}.H   # p y q q y A ;   1 i.k.a.a.h.j.V.C.C.C.V.j.h.s.s.a.a.a.a.l.a.a.a.s.x.h.V.V.C.C.B.F   * z y q 0 t d >   4 V.^.'.'.",
"}.}.}.}.}.T 6 6 t t r 3 r t 2 < m i.l.s.d.j.C.~././.^.C.B.j.h.d.d.d.d.d.d.d.d.h.h.j.V.C.^./.^.~.Y < 4 t r r , , t 5 < m V.C.^.'.",
"rXrXyXiXrX0X@Xm.            M z.l.x.x.n.P.;X<X2X4X6X6X4X<X:XU.U.P.P.I.U.P.I.P.P.U.:XC.^.].XX3X3X<X:Xt.            M b.b.I.;X<X3X",
"rXrXiXyXyX0X@Xm.  X O X o   N z.x.v.n.L.;X)..X4X0X8X9X6X3X2X<X>X:X:X>X,X:X>X:X>X<X<X!.(.OXOX@X5X3X2Xf.  X o o X   G c.K.K.Y.>X3X",
"yXiXyXiXyXqXqX6X1X,Xh.s.x.c.c.b.x.n.L.;X<X2XXX@XuXuXuXuX8X6X6X4X3X4X3X3X3X3X4X6X4X6X(.(.$X0XuXqXOX.X<X;XP.n.v.x.c.b.b.K.I.;X1X6X",
"iXyXiXyXyXqX9X9X3X>XN.h.J.b.K.K.J.P.~.<X2XOX@X@XaXaXaXuX0X0X9X9X6X7X6X9X6X5X9X9X9X0X{.{.$X$XiXuX@XOX.X<X;XC.J.n.K.K.K.I.Y.,X4X9X",
"rXyXyXiXqX$X$X7X3X2XB.N.L.L.P.U.;X,X<X.XOXOX0XtXtXtX$X$XrX$X0X0X8X0X0XyX0X8X0X0X0X0X{.{.$X$XiXiXtX0X5X3X<X:X;XP.L.L.L.U.:X<X3X7X",
"yXrXiXyX$XyX0X8XOX3X^.C.:XU.:X,X<X1X3X4X@X$X0XyXtXtX$X$XrXrXtXtXtXtXpXpX0X$XtX0XyXyX{.}.$X$XyXpXyX0X@X5XXX`.>X:X;X;X:X:X1X3X5X8X",
"}.}.}.}.}.}.oXoX X|.'.).^.^.^.^.).).|. X{.oX}.}.}.}.}.}.}.#X}.}.oX}.}.}.}.}.}.}.}.}.}.}.}.}.}.}.}.}.oX|.|.).)./.^.^./.).).'.|.oX",
"}.}.}.}.}.}.}.}.oX X X'.'.'.'.'.'.|. XoX}.}.}.}.#X}.}.}.}.}.}.}.}.}.}.}.}.}.}.}.}.}.}.}.}.}.}.}.}.}.}.oX X X'.'.'.).'.|.|. XoXoX"
};
