/* XPM */
static char *result[] = {
/* columns rows colors chars-per-pixel */
"64 64 212 2 ",
"   c #020001",
".  c #0C0103",
"X  c #0B0A0A",
"o  c #170709",
"O  c #1D120C",
"+  c #111112",
"@  c #28070C",
"#  c #35090F",
"$  c #21140E",
"%  c #2C1112",
"&  c #2C1B12",
"*  c #391816",
"=  c #2F2015",
"-  c #362116",
";  c #3D2519",
":  c #1B1E25",
">  c #381D27",
",  c #21252E",
"<  c #3C2D21",
"1  c #3B232D",
"2  c #262A35",
"3  c #282D39",
"4  c #3F2C32",
"5  c #2B303C",
"6  c #3B383A",
"7  c #530A17",
"8  c #481517",
"9  c #67051B",
"0  c #46271C",
"q  c #43281B",
"w  c #492C1E",
"e  c #542D1C",
"r  c #701825",
"t  c #4E2F20",
"y  c #42252D",
"u  c #4F2E2E",
"i  c #523423",
"p  c #593524",
"a  c #593629",
"s  c #5C3C28",
"d  c #463E3A",
"f  c #712E26",
"g  c #792A28",
"h  c #673827",
"j  c #772539",
"k  c #6F3330",
"l  c #5D412F",
"z  c #68412C",
"x  c #7B472B",
"c  c #6A4838",
"v  c #764632",
"b  c #7B4D34",
"n  c #7E5036",
"m  c #7C5139",
"M  c #2F3442",
"N  c #303645",
"B  c #323847",
"V  c #373D4D",
"C  c #453943",
"Z  c #7A3F4E",
"A  c #444343",
"S  c #4B494A",
"D  c #564554",
"F  c #5E5D5E",
"G  c #704C53",
"H  c #764955",
"J  c #69575A",
"K  c #6C625C",
"L  c #79665C",
"P  c #585C65",
"I  c #675E61",
"U  c #775A63",
"Y  c #636363",
"T  c #6B6666",
"R  c #6D6C6D",
"E  c #786867",
"W  c #736E70",
"Q  c #737373",
"!  c #787677",
"~  c #7C7C7C",
"^  c #971527",
"/  c #911A2E",
"(  c #A7192C",
")  c #8B262B",
"_  c #96222D",
"`  c #87362D",
"'  c #892639",
"]  c #992B33",
"[  c #8B3833",
"{  c #973634",
"}  c #A62835",
"|  c #B22C38",
" . c #BB2C3B",
".. c #A53738",
"X. c #AD3239",
"o. c #AB3B3A",
"O. c #B6363C",
"+. c #D30011",
"@. c #D80418",
"#. c #EB010C",
"$. c #F5000B",
"%. c #EC0512",
"&. c #874835",
"*. c #974839",
"=. c #835136",
"-. c #84533A",
";. c #8B553A",
":. c #8F5B3C",
">. c #95543C",
",. c #9B543D",
"<. c #945B3E",
"1. c #995B3F",
"2. c #A4443B",
"3. c #A34B3D",
"4. c #AE5137",
"5. c #B5653B",
"6. c #CE6A39",
"7. c #9B2A47",
"8. c #88384C",
"9. c #98324B",
"0. c #8F3C51",
"q. c #A62D44",
"w. c #A83649",
"e. c #A43B56",
"r. c #935D40",
"t. c #9B5D40",
"y. c #834455",
"u. c #B84541",
"i. c #A65942",
"p. c #B05342",
"a. c #A74658",
"s. c #9D6141",
"d. c #A66746",
"f. c #B46E4A",
"g. c #BB7F53",
"h. c #935565",
"j. c #AA5970",
"k. c #8F7071",
"l. c #957B7C",
"z. c #C24C49",
"x. c #D57845",
"c. c #D67C4C",
"v. c #CA7252",
"b. c #D85267",
"n. c #E75A6D",
"m. c #D16F75",
"M. c #E16775",
"N. c #BA835D",
"B. c #BC906F",
"V. c #DC855B",
"C. c #E4935D",
"Z. c #CF956E",
"A. c #E99D66",
"S. c #EBA069",
"D. c #ECA570",
"F. c #EAA574",
"G. c #EEAE7E",
"H. c #7F7F80",
"J. c #917A82",
"K. c #B17687",
"L. c #D46E86",
"P. c #CA768C",
"I. c #CA7E92",
"U. c #7F8588",
"Y. c #7C8392",
"T. c #838383",
"R. c #878586",
"E. c #8B8B8B",
"W. c #95848A",
"Q. c #9A8990",
"!. c #8A909E",
"~. c #939393",
"^. c #9B969A",
"/. c #9C9C9C",
"(. c #AE8D96",
"). c #9E9EA0",
"_. c #979CA8",
"`. c #BA9AA5",
"'. c #9EA3AE",
"]. c #A3A3A4",
"[. c #A7A7A9",
"{. c #AEAEAE",
"}. c #B8A4AA",
"|. c #B0ABAC",
" X c #B6AEB1",
".X c #B3B3B4",
"XX c #BBB6B8",
"oX c #BCBBBC",
"OX c #C18998",
"+X c #D28999",
"@X c #E1909A",
"#X c #EEAF80",
"$X c #EFB385",
"%X c #CC96A4",
"&X c #DB98AB",
"*X c #E299A5",
"=X c #C2A6AE",
"-X c #D0ADB9",
";X c #C2B3B8",
":X c #C2BBBE",
">X c #E5A2A8",
",X c #B4B8C0",
"<X c #BFBFC0",
"1X c #C3BFC1",
"2X c #D9BECB",
"3X c #C3C3C4",
"4X c #C9C7C9",
"5X c #CACACC",
"6X c #DACFD5",
"7X c #DDDEE1",
"8X c #E5ECEF",
"9X c #E4FAFB",
/* pixels */
"3X3X3X3X3X<X3X3X3X3X<X3X<X<X<X<X<X<Xd O O O O O O O O O O O O O O O O O O O O O O O o X X $ O O O O X X X X X X X X X   ~.oX[.[.",
"3X<X3X3X3X3X3X4X<X3X3X3X<X<X<X<X<X<Xd O O O O O O O O O O O O O O O O O O O O O O O . . . O O O O O . . .               E..X].[.",
"4X5X3X3X6X5X3X5X3X3X4X3X3X3XoX.X~.~.< O O O O O $ O O $ $ $ $ $ $ $ $ $ $ $ $ $ $ $ & % % & & & $ $ $ @ O o o X . o O O W /.~ ].",
"5X3X3X<X5X5X3X3X3X4X3X4X4X3XoX~.O O = & & & = = & & & = & & & & & & & & & & & & & & & & & p p t & & $ O O 8 * * & s <.:.O   X /.",
"<X3X3X3X3X3X3X<X<X3X<X3X3X3X3X_.O O & & & & & & & & & & & & & & & & & & & & & & & & & & & i p t & & $ O O # # % o i ;.=.O   X ~.",
"3X<X5X3X3X3X3X3X3X<X3X3X3Xl d 6 & & & & & ; ; ; ; ; w t t t t t t t t t t t t w ; ; ; ; ; w w w t w & O $ g f f p v :.;.w & ; E.",
"{.{..X{.{..X{.{.{.{.{.{.{.O O O & & & & & q q q q q i p p p p p p p p p p p p i q q q q q q q w p p & O $ 4.4.p.p.,.1.s.:.:.:.R.",
"{.{.{.{.{.{.{.{.{.{..X{.{.O O O & & & & & q q q q q e p p p p p p p p p p p p i q q q q q q q w p p & O O o.O.2.4.,.1.s.m b m ~ ",
"3X<X<X<X<X<XoXoX<X<X[.[.<XO O $ & = ; q q = & & & & & & & & = & & & & & & & & & & & & & & & & ; v x ; & & X.] { *.&.&.;.=.b m T.",
"<X<X<X<X<X<XoX<X<X<X{.[.<XO O O & & ; ; ; & & & & & & & & & & = & & & & & & & & & & & & & & & ; v v q & & } ] { [ &.v b b b m ~ ",
"3X3X5X5X<X<XoXoX5X3X[.[.oXO O $ & & - ; ; & & - e e s s s s s s s s s s s s s l s s s s l s z z :.<.w & & } } { [ &.&.b b b m T.",
"3X5X5X5X<X<XoXoX5X5X{.[.oXO O $ & & & & & & & e 6.6.C.S.S.A.S.S.S.S.S.S.S.S.S.S.S.S.S.S.S.S.S.S.S.S.s & & } X.X.*.,.>.>.:.<.r.~ ",
"<X<X3X3X<X3XoX<X3X3X[.|.3XO O $ & & & & & & & e 6.6.C.S.S.S.S.S.S.S.S.S.S.S.S.S.S.S.S.S.S.S.S.S.S.S.s & & | X.4.p.p.i.d.d.d.d.Q ",
"<X<X3X<X3X3X<X<X<X3X[.[.3X$ O $ & & & & & 4.4.5.C.C.A.S.S.G.G.G.G.G.G.G.G.G.G.G.G.G.G.G.G.G.G.G.G.G.l & & | X.{ *.&.&.=.=.=.-.Q ",
"{..X{.{..X{.{..X{.{.{.{.|.O O $ & & & & & 6.6.x.S.S.S.S.S.$X$X$XG.$X$X$X$X$X$X$XG.$X$X$X$X$X$X$X$X$Xl & & O./ 7 @ @ . .     X W ",
"{.{.{.{.{.{.{.{.{.{.{.{.|.O O $ & & & & & 6.6.x.S.S.S.S.S.$X$XG.$X$X$X$X$X$X$X$X$X$X$X$X$X$X$X$X$X$Xl & % | ) 7 @ o .       X W ",
"5X5X<X<X<X3X3X<X<X3X3X3X3XO O $ & & & & & p p n S.S.G.$X$X- & & = & & & & & = l $XG.l & & & & = & & r ^ |  .] 7 7 # . . $ - - R ",
"6X5X<X<X<X<X<X3X3X3X3X3X<XO O $ & & & & & p p n S.S.G.$X$X= & = & & & & & & & l $XG.l & & & & = & & ] | | X.O.4.v.p .   =.f.d.W ",
"5X5X5X5X3X3X4X3X3X5X3X4X3XO O = s s - & & p p n D.D.G.$X$Xl l l l l l l l l l :.$X$XL s l l l l l s } | | X.o.2.p.e .   v d.r.R ",
"5X5X5X5X4X4X3X4X3X4X3X3X3XO O i S.S.s = & p s n $X$X$X$X$X$X$X$X$X$X$X$X$X$X$X$X$X$X$X$X$X$X$X$X$X$Xz.| X...o.2.p.k 0 w =.s.r.W ",
"<X<X5X5X<X<X3X<X<X3X3X3X<XO O i S.S.s & & i p n $X$X$X$X$X$X$X$X$X$X$X$X$X$X$X$X$X$X$X$X$X$X$X$X$X$Xz.| O.o.2.3.,.1.f.f.r.<.r.R ",
"<X3X6X5X<X3X<X3X3X3X4X4X<XO O i S.S.s & & Z.Z.Z.$X$X$X$X$X$X$X$X$X$Xc < < $X$X$X$X$X$X$X$X< < c $X$Xz.| o.o.3.3.,.<.<.<.r.r.r.R ",
"{.{.{.{.{.{..X{..X{.{.{.{.O O i S.S.s & = $X$X$X$X$X$X$X$X$X$X$X$X$X<     $X$X$X$X$X$X$X$X    ; $X$Xz.O.o.2.3.,.,.>.;.;.<.r.r.W ",
"{..X.X{.{.{..X{.{.{.{.{.{.O O i S.S.s & = $X$X$X$X$X$X$X$X$X$X$X$X$X<     $X$X$X$X$X$X$X$X    y $X$Xz.w.o.2.3.,.s.;.b n <.<.r.W ",
"<X<X3X3X3X<X<X<X<X<X[.{.oXO O i S.S.S.S.S.$X$X$X$X$X$X$X$XS.S.D.$X$X$X$X$X$X$X$X$X$X$X$X$X$X$X$X$X$Xu.X...*.3.*.>.;.=.=.<.<.r.~ ",
"<X<X3X5X3X3X<X<X<X<X[.[..XO O i S.S.S.S.S.$X$X$X$X$X$X$X$XS.S.D.$X$X$X$X$X$X$X$X$X$X$X$X$X$X$X$X$X$X{ 9 r r 8 o . p d.<.;.=.-.! ",
"3X5X3X3X3X3X5X5X3X3X[.{.<XO O w N.N.C.S.S.$X$X$X$X$XG.G.G.D.D.D.$X$X$X$X$X$X$X$X$X$X$X$X$X$X$X$XG.G.) 9 7 7 @ . . h g.d.;.b -.~ ",
"3X3X3X5X3X3X5X5X5X3X[.[.<XO O $ & & N.S.S.$X$X$X$X$XD.S.S.$X$X$X$X$X$X$X$X$X$X$X$X$X$X$X$X$X$XG.S.S.{ 9 r r 8 @ . w ;.x =.=.=.U.",
"3X3X3X5X<X<X3X3X3X3X{.].oXO O O & & N.A.A.G.$X$X$X$XD.S.S.$X$X$X$X$X$X$X$X$X$X$X$X$X$X$X$X$X$XG.S.S.4.( } ] ` { 2.*     z <.=.~ ",
"<X3X3X5X<X<X3X3X3X<X[.{.oX& & $ & & N.A.S.G.$X$X$X$XD.S.$X$X$X$X$X$X$X$X$X$X$X$X$X$X$X$X$X$X$XG.S.S.w.( ( _ ) ` { *     z <.-.! ",
"{.{.{.{.{.{.{.{.{.{.{..X{.& & & & & N.A.S.$X$X$X$X$XD.S.$Xc.c.c.c.c.c.c.c.c.V.x.c.c.D.$X$XD.$XG.A.A.z.| } { { *.*.p = - v ;.m W ",
"{.{..X{.{.{.{.{.{.{.{.{.{.& & & & & g.C.S.$X$X$X$X$XD.S.$X6.6.6.6.6.6.6.6.6.6.6.6.6.F.$X$XS.$XG.S.A.z.| 2.2.,.1.s.d.f.f.m v m W ",
"<X3X3X4X3X3X4X3X3X<X1X<XoX;X%Xl.& & N.S.S.$X$X$X$X$XD.S.$X6.6.6.6.6.6.6.6.6.6.6.6.6.F.$X$XS.$XG.S.S.z.| o.2.3.,.<.<.<.s.n b b R ",
"3X3X3X3X<X3X3X4X<X3X<X<X:X;X-Xl.& & v.S.S.$X$X$X$X$XD.S.$X$X$X$X$X$X$X$X$X$X$X$X$X$Xc.6.6.S.$XG.S.S.z.| ..{ *.t.1.r.<.t.=.b m R ",
"5X5X3X3X5X5X3X3X4X3X3X4X1X:X}.Q.a u d.N.g.G.#X#X$X$XD.F.$X$X$X$X$X$X$X$X$X$X$X$X$X$Xc.6.6.S.$X#XA.A.z.| { ` *.,.1.>.<.r.m v b R ",
"5X3X3X3X5X5X3X3X4X3X4X4X3X1X=X=XOX(.u & & S.S.D.$X$X$X$X$X$X$X$X$X$X$X$X$X$X$X$X$X$XV.c.c.S.$X#XS.A.z.X.] { &.,.1.1.<.<.=.b m R ",
"<X<X3X5X3X3X3X3X3X<X3X<X3X1X:X;X=XOXd & % D.S.D.$X$X$X$X$X$X$X$X$X$X$X$X$X$X$X$X$X$X$X$X$X$X$X#XS.S.u.} { [ &.&.n n n n K T K R ",
"<X3X3X3X3X3X<X3X<X3X<X3X4X3X1X-X=XOXW.j.h.m.m.m.D.D.D.D.F.F.F.F.D.D.D.D.D.D.D.D.D.D.D.D.D.D.D.Z.O.4.} } { { &.&.n b b b L W R Q ",
".X{.{.{.{.{.{.{.{.{.{.{.{.{.|.|.}.(.(.OXK.m.j.m.S.S.S.S.S.S.S.F.S.S.S.S.S.S.S.S.S.S.S.S.S.S.S.c.| } } ] { [ &.&.x m m b K R R ! ",
"{.{.{..X{.{..X{..X{..X{.{.{.{.{.|.`.`.(.(.K.m.m.S.S.S.S.S.S.S.F.S.S.S.S.S.S.S.S.S.S.S.S.S.S.D.c.( ( / ) ) g k h h J R T R R Q ~ ",
"3X<X<X<X<X<XoXoX<X<X[.[.3X3X3X<X:X;X;X=X=X+XOXOXP.P.C , , H.Y.J.6.6.B.H.H.7.^ ^ ^ ^ ^ ^ ^ / ^ ^ ^ / ) ) g g h h h J R Q ~ U.U.~.",
"<X3X<X<X<X<XoXoX<X<X[.{.3X<X<X3X<X<X;X;X=X=X%X+XI.K.C , 3 H.H.J.6.6.H.H.H.( 7.q.q.q.e.( ( ( | w.9.] ' j k v z c s K Q Q U.U.~.).",
"3X3X5X5X<X<XoX<X5X4X[.[.oXoX3X3X3X3X3X1X;X;X;X`.U U M 2 3 !.!.J.5.4.Y.!.!.9.j.K.L.L.I.n.@.@.L.*X@Xh.y.h.h.W T Q W Q ~ U.E.~.'.{.",
"3X5X5X5X<X<XoXoX5X5X[.[.oXoX3X4X4X3X3X1X1X:X:X^.N N N N N ,X,X^.g f _.,X,XN N C L.I.&Xb.+.@.L.>X&Xh.H U I I R R Q ~ B.U./.].{.oX",
"<X<X<X3X<X<X<X<X3X<X[.[.3X5X3X5X4X3X1X<X3X:X:X^.N N N N N ,XoX^.f f ^.,X,XB B D I.&X2Xn.$.%.I.6X-XU G E R Q R R R ~ U.E./.].[..X",
"<X<X3X3X<X3X<X<X<X3X{.[.3X3X3X3X3X3X3X<X3XY P F V V N N N '.].Q.` ` Q.'.'.N V D I.&X2Xn.%.%.@X7X6Xk.J T ~ Y.~ P F Q E.!.).[..X.X",
"{.{.{.{.{..X{.{.{..X.X{.{..X{.{..X{.{..X{.V V V V V B N N _._.W.` ` J._._.N N C I.&X6XL.%.%.*X8X6XW J R H.B.Q F F Q Y.U././.[.{.",
"{.{..X{.{.{.{.{.{.{.{.{.{.{..X{.{.{.{.{.{.V V V V V B N N _._.Q.` ` W._._.N N D I.&X2XL.#.%.>X9X7XQ F R T.U.Q F Y R B.E./.].[.{.",
"5X5X3X3X<X3X<X<X3X<X5X3X3X3X<X3X3X<X3X3X3XV V V V V 3 , , V V C f f C V V M B B 3 2 ^.M.#.%.>X9X7X! F R H.B.R P P Q ~./.].{.].].",
"6X5X<X<X3X3X3X3X<X3X3X3X3X<X3X<X<X3X5X3X3XV V V V V 3 , , V V C f f C V V B B 5 3 M (.M.#.%.>X9X7X! F R T.T.Q P Y Q U./.).{.].].",
"5X5X5X5X3X5X3X3X3X3X5X5X3X3X3X<X5X3X3X3X4XV V V V V 2 , , V V C a a A V V B B B 3 3 K.M.#.%.*X9X7XR.Q ~ H.U.L x c Q B.~.]..X).].",
"5X5X5X5X3X3X5X3X3X3X3X3X5X3X<X3X3X3X5X3X5XV V V V V 2 , , V V B 3 M B V V V V B 3 3 (.n.$.#.>X9X8XE.! U.U.U.L x m L U.Y.]..X).].",
"oX<X5X6X3X3X3X<X3X<X5X3X3X<X3X<X3X<X3X5X3XV V V V V 3 , , V V B 3 3 V V V V V B 3 M J.b.@.@.%X7X5XR.Q Y.Q Y.E b m Y ~ Y./.[./.].",
"<X<X5X5X3X3X3X3X<X3X3X5X<X3X<X3X<X3X3X4X<XB.Z.k.3 3 5 B B V V B 2 2 B V V V V D g.g.e.8.8.U J J J ~ B.~ ~ U.~ R R Q U.B./.].).].",
"{.{..X{.{.{..X{.{.{.{.{.{.{.{.{.{..X{.{.{.$X$XB., , B V V V V B , , B V V V B J S.S.a.8.y.H J G Y l.U.U.U.H.~ Y R R ~ U.~./.].{.",
"{.{.{.{.{.{.{.{.{.{..X{.{..X{.{.{.{..X{.{.$X#XZ., , B V V V V B , , B V V V V J S.S.a.9.0.H H I Y Q Q Q Q Q R R R Q H.U.~./.[.[.",
"<X<X3X5X<X3X<X<X3X<X{.[.oXoXoXoX<X<XoXoXoXXX=XJ.: : : : : : : : , , : : : : : > 7.7.7.8.Z Z J I Y F F F R Q Q Q U.U.~.).[.{.oXoX",
"<X<X3X3X3X<X<XoX<X<X[.[.oXoX<X<X<X<XoX<X:X;X XK.: : : : : : : , , , : : : : : 1 7.7.7.8.Z Z G I Y Y Y Y R Q Q ~ E.~./.[.{.oXoXoX",
"3X5X5X3X3X3X5X5X5X3X{.{.<X<X5X5XoXoX,X<XXXXX=XJ.: : : , : 1 1 1 y 4 , : : : : 1 7.7.9.8.Z G G I Y Y Y Y Q Q ~ U.~.).{..XoX<X3X5X",
"3X3X3X3X3X5X5X5X3X3X[.[.<X<X5X5X<XoX:X,XoXXX XJ., , , , 2 e.7.7.q.7.1 2 , : : 1 e.e.0.8.Z Z J J F Y Y Y Q Q U.U.].{.oX<XoX3X3X5X",
"3X3X3X3X<X<X3X3X3X3X[.{.oXoX3X5X3X3X<X<X<X;X1XJ., , , , 2 e.7.7.7.7.4 , , : : 1 e.e.0.y.G J Y Y Y Y Y R Q ~ B.~.).[..X.XoXoX<X<X",
"3X<X3X5X<X<X3X<X<X<X[.{.oXoX3X3X3X3X<X<XXX,X1X!.+ @ : + + e.7.' ' Z % X X + + > e.e.h.Z u 6 A l l A A S Q ~ Y.!.[..X.XoXoX<X<X3X",
".X{.{.{.{.{.{..X{.{.{.{.{.{.{.{..X{.{.{.|.{.{.J.+ + X X + e.' j j j @     + + > a.h.h.G y < 5 6 6 6 B A Q ~ U.~./.[.{.{.{..X{.{.",
"{.{.{..X.X{.{.{.{.{.{..X{..X{.{.{.{. X X{.{..XJ.X + + + X e.j j j j +     X X > a.a.j.H 4 1 6 A A A A A R ~ U.~./.[.{.{.{.{.{.{."
};
