/* XPM */
static char *result[] = {
/* columns rows colors chars-per-pixel */
"64 64 214 2 ",
"   c #020102",
".  c #0C0103",
"X  c #0A090A",
"o  c #130205",
"O  c #1B0007",
"+  c #160C0B",
"@  c #1D120C",
"#  c #1E0E12",
"$  c #111112",
"%  c #26000A",
"&  c #2E000C",
"*  c #38010E",
"=  c #21140E",
"-  c #2D1315",
";  c #2C1B12",
":  c #361115",
">  c #382216",
",  c #3D2419",
"<  c #1B1E25",
"1  c #21252E",
"2  c #2A2929",
"3  c #3C2D21",
"4  c #3B202C",
"5  c #262A35",
"6  c #282D39",
"7  c #2B303C",
"8  c #3E3130",
"9  c #3A3A3B",
"0  c #450111",
"q  c #4A0414",
"w  c #590017",
"e  c #4B1519",
"r  c #6E0A1E",
"t  c #43281B",
"y  c #482B1D",
"u  c #552F1C",
"i  c #76132A",
"p  c #4E2F20",
"a  c #523523",
"s  c #593524",
"d  c #56352A",
"f  c #5C3C28",
"g  c #452B39",
"h  c #463E3A",
"j  c #523633",
"k  c #632C29",
"l  c #712E26",
"z  c #7F272A",
"x  c #6C3429",
"c  c #5D412F",
"v  c #694B36",
"b  c #784731",
"n  c #7E5238",
"m  c #2F3442",
"M  c #303645",
"N  c #323847",
"B  c #373D4D",
"V  c #473542",
"C  c #443944",
"Z  c #5A3D4F",
"A  c #5A3F51",
"S  c #783143",
"D  c #434343",
"F  c #4D4B4C",
"G  c #5A4851",
"H  c #565656",
"J  c #5D5D5D",
"K  c #6F4B53",
"L  c #794955",
"P  c #685659",
"I  c #625C5E",
"U  c #78545C",
"Y  c #7D6157",
"T  c #575B65",
"R  c #655F61",
"E  c #765D66",
"W  c #636363",
"Q  c #6A6467",
"!  c #6D6C6D",
"~  c #76676B",
"^  c #6C6E70",
"/  c #766F71",
"(  c #747374",
")  c #797577",
"_  c #7D7D7D",
"`  c #881728",
"'  c #971527",
"]  c #921A2E",
"[  c #A7162B",
"{  c #8B232C",
"}  c #87362D",
"|  c #992934",
" . c #943232",
".. c #A82836",
"X. c #B22D38",
"o. c #A23136",
"O. c #AE3239",
"+. c #AC3B3B",
"@. c #CE0017",
"#. c #D80017",
"$. c #E30218",
"%. c #864133",
"&. c #884D37",
"*. c #904536",
"=. c #9D4038",
"-. c #875238",
";. c #95523B",
":. c #975B3C",
">. c #AC5433",
",. c #B5653B",
"<. c #CE6A39",
"1. c #972945",
"2. c #8F374D",
"3. c #8A384C",
"4. c #A73246",
"5. c #A9354C",
"6. c #8B4242",
"7. c #855D43",
"8. c #874758",
"9. c #935053",
"0. c #AD4B55",
"q. c #B34D50",
"w. c #8D614A",
"e. c #A16B49",
"r. c #BB7F53",
"t. c #845864",
"y. c #9F5B69",
"u. c #B3546B",
"i. c #BD5B73",
"p. c #82636B",
"a. c #8F6E6F",
"s. c #867479",
"d. c #827C7D",
"f. c #957B7C",
"g. c #BA677C",
"h. c #C34645",
"j. c #C04944",
"k. c #C14D4B",
"l. c #D57845",
"z. c #D67C4C",
"x. c #D87E5A",
"c. c #D25069",
"v. c #C65874",
"b. c #E15F70",
"n. c #CA6D75",
"m. c #BA835D",
"M. c #80807F",
"N. c #BC906F",
"B. c #DD865B",
"V. c #E4935D",
"C. c #CC9770",
"Z. c #E69566",
"A. c #EBA069",
"S. c #ECA570",
"D. c #EAA574",
"F. c #EEAE7E",
"G. c #7E7F80",
"H. c #857E80",
"J. c #997984",
"K. c #A77982",
"L. c #B87485",
"P. c #C77A8F",
"I. c #7E8183",
"U. c #7C8392",
"Y. c #838283",
"T. c #8A8485",
"R. c #8B8B8C",
"E. c #95848B",
"W. c #988589",
"Q. c #9A8990",
"!. c #8A909E",
"~. c #939393",
"^. c #9B9B9C",
"/. c #B28B95",
"(. c #A3979B",
"). c #9F9FA0",
"_. c #979CA8",
"`. c #BE9CA6",
"'. c #9EA3AE",
"]. c #A4A4A4",
"[. c #A9A7A9",
"{. c #AEAEAE",
"}. c #B8A4AA",
"|. c #B0ABAC",
" X c #AFAFB0",
".X c #BAADB2",
"XX c #B5B4B5",
"oX c #B9B6B8",
"OX c #BCBBBC",
"+X c #C38898",
"@X c #C4919F",
"#X c #EEAF80",
"$X c #EFB385",
"%X c #C79AA7",
"&X c #DD90A5",
"*X c #E089A1",
"=X c #C2A6AE",
"-X c #C4ACB4",
";X c #DBA7B7",
":X c #C1B2B7",
">X c #C6B4BA",
",X c #C2BBBE",
"<X c #B4B8C0",
"1X c #BFBFC0",
"2X c #C2BFC1",
"3X c #CABBC1",
"4X c #DBBAC6",
"5X c #E7BCC9",
"6X c #C3C3C4",
"7X c #C8C5C8",
"8X c #CACACC",
"9X c #DACFD8",
"0X c #E0C6CD",
"qX c #E1CCD2",
/* pixels */
"6X6X6X6X6X1X6X6X6X1X6X1X1X1X1X1X1X1Xh @ @ @ @ @ @ @ @ @ @ @ @ @ @ @ @ @ @ @ @ @ @ @ + X X @ @ @ @ @ + X   F OXOX6X6X6X7XOX1X[.[.",
"6X1X6X6X1X6X8X6X1X6X6X6X1X1X1X1X1X1Xh @ @ @ @ @ @ @ @ @ @ @ @ @ @ @ @ @ @ @ @ @ @ = o . . @ @ @ @ @ . . . D XXXX,X6X6X6XOXOX[.[.",
"7X8X6X6X8X9X6X6X6X6X8X6X6X6XOXXX~.~.3 @ @ = = = = = = = = = = @ = = = = = = = = = = ; ; - ; ; ; = = = o o 8 (.T.[.2X8X8X8X6X[.{.",
"8X7X6X1X8X8X7X6X8X6X6X6X8X6XOX~.@ @ ; ; ; ; ; ; ; ; ; ; ; ; ; ; ; ; ; ; ; ; ; ; ; ; ; ; ; s s y ; ; = @ @ O o . W XX6X7X6X8X[.[.",
"1X1X6X6X6X6X1X6X1X6X1X6X6X6X6X^.@ @ ; ; ; ; ; ; ; ; ; ; ; ; ; ; ; ; ; ; ; ; ; ; ; ; ; ; ; s s u ; ; = @ @ % O o P |.oXOXOXOX].{.",
"6X1X6X6X6X6X6X6X6X1X6X1X6Xc h 9 ; ; ; ; ; , , , > 3 y u p a p u p p p p a p a y , > , , , y y y p p ; @ @ 0 % % 8 Q J ].XXXX].{.",
" X X X X X X X X X{. X X X@ @ @ ; ; ; ; ; t t t t t a s a s s s s s s s s s s a t t t t t t t y s s ; @ @ e * % O .   _ ].].{.{.",
" X X X X X X X X X X X X X@ @ @ ; ; ; ; ; t t t t t a s s s s s s s s s s s s a t t t t t t t y s s ; @ @ r 0 & % o   ( ^.].].].",
"1X6X1X1X1X1XOXOX1X1X{.].1X@ @ = ; ; > t t ; ; ; ; ; ; ; ; ; ; ; ; ; ; ; ; ; ; ; ; ; ; ; ; ; ; , b b t ; ; r q * % o . 2 9 D XXOX",
"6X1X1XOX1X1XOXOX1X1X].{.1X@ @ = ; ; , t t ; ; ; ; ; ; ; ; ; ; ; ; ; ; ; ; ; ; ; ; ; ; ; ; ; ; t b b t ; ; r w 0 % O .     X {.oX",
"6X6X8X8X1X1X1XOX8X8X[.[.OX@ @ = ; ; > > , ; ; > a u a f f f c f f f f f f f c c f f f f f f f v :.:.y ; ; r w q & O o .   X [.XX",
"8X6X8X8X1X1XOXOX8X6X[.[.OX@ @ = ; ; ; ; ; ; ; u <.<.V.A.A.A.A.A.A.A.A.A.A.A.A.A.A.A.A.A.A.A.A.A.A.A.f ; : r w q & O .       '.{.",
"1X1X1X6X6X6X1X1X6X6X[.[.6X@ @ = ; ; ; ; ; ; ; u <.<.V.A.A.A.A.A.A.A.A.A.A.A.A.A.A.A.S.A.A.A.S.A.A.A.a ; ; r w q & O . .   X R.~.",
"1X1X6X1X6X6X1X1X1X6X[.{.6X@ @ = ; ; ; ; ; >.>.,.V.V.A.A.A.F.F.F.F.F.F.F.F.F.F.F.F.F.F.F.F.F.F.F.F.F.c ; : r w q & O .       Y.R.",
" X X{.{.{.{.{.{.{.{.{.{.|.@ @ = ; ; ; ; ; <.<.l.A.A.A.A.A.$X$X$XF.$X$X$X$X$X$X$XF.$X$X$XF.$X$X$X$X$Xc ; ; ` w 0 & % .     X ( G.",
" X X{.{.{.XX{.{.{.{.{.{.|.@ @ = ; ; ; ; ; <.<.l.A.A.A.A.A.$X$X$XF.$X$X$X$X$X$X$XF.$X$X$X$X$X$X$X$X$Xc ; ; ` w 0 & O .       ( _ ",
"8X8X1X1X1X6X1X6X6X1X6X8X1X@ @ = ; ; ; ; ; s s n A.A.F.$X$X; ; ; ; ; ; ; ; ; ; c $X$Xc ; ; ; ; ; ; ; { [ ..` w 0 * e : o     ^ ) ",
"9X8X1X1X6X1X6X1X1X6X6X6X1X@ @ = ; ; ; ; ; f u n A.A.F.$X$X; ; ; ; ; ; ; ; ; ; c $XF.c ; ; ; ; ; ; ; { ..X.] q 0 k ,.;.=   X ! ) ",
"8X8X8X8X6X6X6X6X6X8X6X6X6X@ @ ; f f > ; ; s f n S.S.F.$X$Xc c c c c c c c c c 7.$X$XY c c c c c c c o.....` q * u ;.&.@     ! ( ",
"8X8X8X8X8X6X8X6X6X6X8X6X6X= @ a A.A.f ; ; s u -.$X$X$X$X$X$X$X$X$X$X$X$X$X$X$X$X$X$X$X$X$X$X$X$X$XF.q...O.` q * k *.&.=   X ^ ) ",
"6X6X8X8X6X1X6X1X6X6X6X8X1X@ @ a A.A.f ; ; s s n $X$X$X$X$X$X$X$X$X$X$X$X$X$X$X$X$X$X$X$X$X$X$X$X$X$Xk...o.{ e e x -.-.@     ! ) ",
"1X8X8X8X1X6X1X6X6X6X8X6X1X@ @ a A.A.f ; ; C.C.C.$X$X$X$X$X$X$X$X$X$Xv 3 3 $X$X$X$X$X$X$X$X3 3 v $X$Xj...o.z e : f -.-.@   X ^ ( ",
"{.{.{.XX{.XX{.{.{.{.{.{.{.@ @ a A.A.c ; ; $XF.$X$X$X$X$X$X$X$X$X$X$X3     $X$X$X$X$X$X$X$X    3 $X$Xk.O.+. .l x b &.-.@     ( ) ",
"{.{.{.{.{.{.{.{.{.{.{.{.{.@ @ a A.A.c ; ; $X$X$X$X$X$X$X$X$X$X$X$X$X3     $X$X$X$X$X$X$X$X    , $X$Xk.X.+.=.*.;.&.&.-.@   X ^ _ ",
"6X1X6X6X6X6X1X1X1X1X].{.OX@ @ a A.A.A.A.A.$X$X$X$X$X$X$X$XA.A.S.$X$X$X$X$X$X$X$X$X$X$X$X$X$X$X$X$X$Xk.O.+.=.} &.b b n @   X ) I.",
"1X1X8X6X6X6X1X1X1X1X{.].oX@ @ a A.A.A.A.A.$X$X$X$X$X$X$X$XA.A.S.$X$X$X$X$X$X$X$X$X$X$X$X$X$X$X$X$X$Xk.X.+.=.%.;.t   .       ) Y.",
"8X6X6X6X6X6X8X8X6X6X].{.OX@ @ y m.m.V.A.A.$X$X$X$X$XF.F.F.S.S.S.$X$X$X$X$X$X$X$X$X$X$X$X$X$X$X$XF.F.k.O.+.=.%.;.>         X G.R.",
"6X6X8X6X6X6X8X8X6X6X{.].1X@ @ = ; ; m.A.A.$X$X$X$X$XS.A.A.$X$X$X$X$X$X$X$X$X$X$X$X$X$X$X$X$X$XF.A.A.q.O.+.=.%.;.,           I.Y.",
"6X6X8X6X1X1X6X1X6X6X{.].OX@ @ @ ; ; r.V.A.F.$X$X$X$XS.A.A.$X$X$X$X$X$X$X$X$X$X$X$X$X$X$X$X$X$XF.A.A.j.O.+.=.*.;.,         X ) Y.",
"1X6X6X8X1X1X6X6X6X6X].{.OX; ; ; ; ; B.A.A.$X$X$X$X$XS.A.$X$X$X$X$X$X$X$X$X$X$X$X$X$X$X$X$X$X$XF.A.A.j.O.+.=.%.;.,           _ Y.",
"{.{.{.{.{.{.{.{.{.{.{.{.{.; ; ; ; ; m.A.A.$X$X$X$X$XS.A.$XB.l.l.z.z.l.z.l.B.B.l.z.z.D.$X$XS.$XF.A.A.j.O.+.=.%.;.>     # 2 2 ^ _ ",
"{.{.{.{.{.{.XX{.{.{.XX{.{.; ; ; ; ; r.V.A.$X$X$X$X$XS.A.$X<.<.<.<.<.<.<.<.<.<.<.<.<.D.$X$XA.$XF.A.A.j.O.=.o.%.;.>     H ! ! ^ _ ",
"6X6X6X6X1X6X8X6X6X1X6X6X,X-X%Xf.; ; m.A.A.$X$X$X$X$XS.A.$X<.<.<.<.<.<.<.<.<.<.<.<.<.D.#X$XA.$XF.A.A.h.X.+.=.%.;.>     H ( ( ( _ ",
"6X6X6X6X6X6X6X6X1X6X1X6X,X>X-Xf.; = r.A.A.$X$X$X$X$XS.A.$X$X$X$X$X$X$X$X$X$X$X$X$X$Xz.<.<.A.$XF.A.A.h.O.+.=.%.;.j F 9 ! ( ) ( M.",
"8X6X6X6X8X8X8X6X6X6X7X6X6X3X=XW.d d e.m.B.F.F.F.$X$XD.S.$X$X$X$X$X$X$X$X$X$X$X$X$X$Xz.<.<.A.$X#XA.A.q.X.+.=.} &.Y ( ) _ M.Y.I.R.",
"8X8X6X6X8X8X6X6X6X7X7X6X6X,X=X=X+X/.d ; = A.A.S.$X$X$X$X$X$X$X$X$X$X$X$X$X$X$X$X$X$XB.z.z.A.$X#XA.A.j.X.+.=.%.b t.( _ M.Y.~.Y.R.",
"1X6X6X6X6X6X1X6X6X1X6X1X6X6X>X>X%X/.j ; - A.A.S.$X$X$X$X$X$X$X$X$X$X$X$X$X$X$X$X$X$X$X$X$X$X#X#XA.A.j.o.o.*.E U ! ( M.Y.R.~.R.~.",
"6X1X6X6X6X6X6X1X6X6X1X6X6X6X6X>X}.%XK.y.y.C.n.n.S.S.S.S.D.A.D.S.S.S.S.S.S.S.S.S.S.S.S.S.S.D.D.Z.h.j.X.o. .3.E Q ! _ M.R.~.^.~.^.",
"{.{.{.{.{.{.{.{.{. X{.{.{.{.{.|.}./././.g.g.i.n.A.A.A.A.A.A.A.A.A.A.A.A.A.A.A.A.A.A.A.A.A.A.A.x.X.X.O.|  .6.E E ~ ! _ M.R.^.'.].",
"{.{.{.XXXX{.{.{.XX X{.{.{.{.{.{.[.}.`././.L.g.n.A.A.A.A.A.A.A.A.A.A.A.A.A.A.A.A.A.A.A.A.A.A.Z.x.[ ' | 2.6.t.f.s.M.M.M.M.~.^.].{.",
"6X6X1X1X1X1XOXOX1X1X].[.1X6X1X6X1X,X:X=X=X@X+XP.P.g.g 1 1 U.U.f.<.<.M.U.U.' ' ' ] [ ] ' ' ' ' ' ] ] { 8.8.t.f.s.M.M.M.~.]. XoX1X",
"6X6X1X1X1X1XOXOX1X1X{.[.6X1X1X6X1X,X>X>X=X=X@X+X+XP.V 1 1 U.U.f.<.<.f.U.G.1.5...[ [ ..5.5.5.4.4.| |  .8.U ~ s.d.d.M.M.Y.^.).XX1X",
"6X6X8X8X1X1XOXOX7X8X{.].OXOX6X6X6X6X6X,X>X>X:X}.Q.J.B 5 5 !.!.W.>.,.M.~.!.g.i.u.$.#.c.P.*XP.P.P.8.8.8.t.U ~ d.d.M.G.M.M.G.I.oX1X",
"6X8X8X8X1X1XOXOX8X8X].{.OXOX6X8X7X6X7X6X2X>X>X(.M M M M M <X<X(.z l (.<X<XM M Z @.$.c.;X&X@XP.+X8.8.8.E P ~ T.T.M.d.M.M.G.I.{.OX",
"1X1X6X6X6X1X1X1X6X1X[.].8X6X8X6X7X7X2X2X1X1X,X^.m M M M M <XoX(.l l (.<X<XM m A #.#.b.4X4X%X%X%Xt.U E p./ / / ( ) M.G._ G.M.~.].",
"1X1X1X6X1X6X1X1X1X6X[.{.6X6X6X6X6X7X1X1X2XW T T B B M M M '.'.Q.} } Q.].'.M m G $.$.b.9X5X-X-X-Xp.R ~ H.T.( H H ( Y.G.M.G.M.R.^.",
"{.{. X X{.{.{.{. X{. X X X X X X X X X X{.B B B B B N M M _._.W.} } W._._.M M A $.$.b.9X0X3X2X<X/ P ~ d.Y.( J J ( Y.M.M.G.G._ Y.",
" X X X{.{.XX{.{. X{. X X X X{. X{. X X X XB B B B B N m M _._.W.} } W._._.M M A $.$.b.9XqX3X2X7X( I ! _ Y.( J J ( Y.M.M.G.G.) M.",
"8X9X6X1X6X1X6X1X6X1X8X6X6X1X6X1X6X6X6X6X6XB B B B B 6 1 1 B B C l l C B B M N m 6 6 u.9X9X8X6X6X( I ! I.Y.( J J ( Y.M.I.G.G.( ( ",
"8X8X1X1X6X6X1X6X1X6X6X6X6X6X1X6X6X6X6X6X6XB B B B B 6 1 1 B B C l l C B B M M m 6 6 0.9XqX1X6X6X( J ! Y.T.( J J ( Y.I.M.M._ ^ ) ",
"6X8X8X8X6X8X6X6X6X8X6X8X6X6X6X1X8X6X6X7X8XB B B B B 5 1 1 B B C k d C B B N N N 6 6 0.4X4X3X2X7X( J ! _ M.G.G.M.( W W w.:.w.! ( ",
"8X8X8X8X6X6X8X6X6X6X6X6X8X6X1X6X6X6X6X6X8XB B B B B 6 1 1 B B B 6 M N B B B B N 6 6 0.4X5X4X3X8X^ J ! Y.M.M.M.Y.! H T 7.:.:.^ ) ",
"6X1X8X8X8X6X6X1X6X6X6X8X6X1X6X1X6X6X6X7X6XB B D B B 6 1 1 B B N 7 6 B B B B B N 6 6 5.%X%X`.}..X( W ^ M.M.M.M.Y.( W ! 7.:.w.! ( ",
"1X1X8X8X6X6X6X6X6X6X6X6X1X6X1X6X2X2X7X7X1XN.C.a.5 6 7 N N B B N 5 5 M B B B B G g.m.9.2.8.K P R s.Y.G.G.M.G.G.G.M.M.M.! ( ( ( ) ",
"{.{.{.{.{.{.{.{.{.{.{.XXXX{.{.{. X X X X{.$X$XN.1 1 N B B B B N 1 1 M B B B N P A.A.0.2.3.U U P d.T.Y.I.Y.Y.Y.Y.M.M.M.^ ! ! ( _ ",
"{.{.{.XX{.{.XX{.{.{.{.{.{.{.{.{. X X X{. X$X#XN.1 1 N B B B B N 1 1 N B B B B P A.A.q.2.3.L K P ( ( ) ) ( ( ) ( _ ( ( ! ! ( ) M.",
"1X1X6X6X1X1X1X1X6X1X].{.OXOXOX1X1X1XOX1XOX:X=XJ.< < < < < < < < 1 1 1 < < < < 4 1.1.1.2.3.S K J J J J J W J J H ! ^ ( ( _ _ R.~.",
"1X1X8X8X1X1X1X1X1X1X{.].OXOX1X1X1X1XOXOXOX:X.XJ.< < < < < < < < 1 1 < < < < < 4 1.1.1.2.S K K G W W W J W W W W ! ( ( _ I.R.~.^.",
"6X6X6X6X6X8X8X8X6X6X{.{.1X1X8X8XOXOXOX1XOX-X}.J.< < < < < g g g g g 1 < < < < 4 1.1.2.3.8.U E E W W W W W W W W ! ) _ R.R.~.'. X",
"8X6X6X8X6X6X8X8X6X6X{.].1X6X8X6X1XOXOX<XOXoX-XE.1 1 1 1 1 v.v.c.v.c.4 1 1 < < 4 1.1.2.3.t.p.p.H.W W W W W J W W ^ _ M.R.~.). XXX",
"1X6X6X6X1X1X6X6X1X1X].{.1XOX6X6X6X6X2X1X1X:X3XQ.1 1 1 1 1 v.v.v.v.v.8 1 1 < < 4 1.2.3.8.t.~ ) M.W W W ^ W W W W ! ( M.R.^.]. XXX",
"6X1X6X8X1X1X6X1X1X1X{.{.OXOX6X8X6X6X1X1X1XoX<XQ.# $ < $ $ v.v.L.v.L.- X X $ $ - S z S 8.t.a.d.Y.F c D D D D D F J _ Y.R.).[.XXOX",
"{.XX{.{.{.{.{.{.{.{.{.{.{.{.{.{. X{. X{.|.|.|.H.$ $ X $ $ i.i.i.L.i.#     $ $ - i i S t.p.s.I.M.D 9 9 9 9 9 9 9 H ( _ R.~.).[.{.",
"{.{.{.{.XX{.{.XX{.{.XX{.{.{.XX{.{. X{. X X{.|.H.$ $ X $ $ i.i.i.L.L.#     $ $ - i i S t.p.s.R.R.D 9 D D D D 9 9 J ( _ R.^.].[.{."
};
