/* XPM */
static char *result[] = {
/* columns rows colors chars-per-pixel */
"64 64 171 2 ",
"   c black",
".  c #08090C",
"X  c #1D120C",
"o  c #111112",
"O  c #21140E",
"+  c #2C1B12",
"@  c #382216",
"#  c #3D2519",
"$  c #1B1E25",
"%  c #21252E",
"&  c #3C2D21",
"*  c #3C222A",
"=  c #3F342E",
"-  c #262A35",
";  c #282D39",
":  c #2B303C",
">  c #43281B",
",  c #492B1D",
"<  c #552F1C",
"1  c #4E2F20",
"2  c #523523",
"3  c #593524",
"4  c #56352A",
"5  c #5C3C28",
"6  c #462B37",
"7  c #462C39",
"8  c #4B313F",
"9  c #463E3A",
"0  c #523432",
"q  c #602F2C",
"w  c #712E26",
"e  c #5D412F",
"r  c #6A442D",
"t  c #694E3A",
"y  c #764630",
"u  c #7E5238",
"i  c #2F3442",
"p  c #303645",
"a  c #323847",
"s  c #373D4D",
"d  c #4A3744",
"f  c #443944",
"g  c #543F50",
"h  c #554153",
"j  c #584F51",
"k  c #645654",
"l  c #575B67",
"z  c #786667",
"x  c #83352C",
"c  c #89372E",
"v  c #935D3E",
"b  c #A6562F",
"n  c #B75B34",
"m  c #B5653B",
"M  c #CE6A39",
"N  c #815E44",
"B  c #A2465A",
"V  c #A16B49",
"C  c #BB7F53",
"Z  c #9F5B69",
"A  c #A14D66",
"S  c #BE4C69",
"D  c #AB5267",
"F  c #BB536D",
"G  c #A05D72",
"H  c #BE5771",
"J  c #BC5C74",
"K  c #8D7369",
"L  c #9F6877",
"P  c #96797D",
"I  c #A06477",
"U  c #B7677B",
"Y  c #BC647A",
"T  c #BA6A7E",
"R  c #D57845",
"E  c #D67C4C",
"W  c #C04B68",
"Q  c #C6516F",
"!  c #C65572",
"~  c #CA5674",
"^  c #C75A75",
"/  c #C95975",
"(  c #C75F79",
")  c #C95D78",
"_  c #CC666D",
"`  c #C9696F",
"'  c #C76877",
"]  c #CE6C73",
"[  c #C5657E",
"{  c #C9637D",
"}  c #D16E76",
"|  c #CD7278",
" . c #D47477",
".. c #BA835D",
"X. c #BC906F",
"o. c #DC8A5A",
"O. c #E4935D",
"+. c #CA946D",
"@. c #CD9871",
"#. c #E08A68",
"$. c #E7996B",
"%. c #EBA069",
"&. c #ECA570",
"*. c #EAA574",
"=. c #EEAE7E",
"-. c #997883",
";. c #BA6D81",
":. c #A47B86",
">. c #B97385",
",. c #B57988",
"<. c #C66A82",
"1. c #CA6C84",
"2. c #C77288",
"3. c #C3768A",
"4. c #C9758A",
"5. c #C47A8D",
"6. c #C67E91",
"7. c #C87F92",
"8. c #7C8392",
"9. c #95848B",
"0. c #97888A",
"q. c #9A8990",
"w. c #8A909E",
"e. c #979394",
"r. c #B7818E",
"t. c #B58591",
"y. c #B58C96",
"u. c #BF8D9A",
"i. c #A2969A",
"p. c #B4949C",
"a. c #B3989F",
"s. c #979CA8",
"d. c #B29DA2",
"f. c #BF9CA5",
"g. c #9EA3AE",
"h. c #AEAEAE",
"j. c #B1A2A6",
"k. c #B0A6A9",
"l. c #BEA3AB",
"z. c #B0AAAC",
"x. c #BEA8AE",
"c. c #BDADB2",
"v. c #BBB2B5",
"b. c #BCB6B9",
"n. c #BDBCBD",
"m. c #C58394",
"M. c #C78698",
"N. c #C38C9A",
"B. c #C4929F",
"V. c #EEAF80",
"C. c #EFB385",
"Z. c #C696A3",
"A. c #C59AA6",
"S. c #C59EA9",
"D. c #C3A3AC",
"F. c #C2A8AF",
"G. c #C4ADB3",
"H. c #CBAAB3",
"J. c #C2B1B7",
"K. c #C3B5BA",
"L. c #CBB4BB",
"P. c #C2BBBE",
"I. c #B4B8C0",
"U. c #BFBFC0",
"Y. c #C4BEC1",
"T. c #CCBDC2",
"R. c #C3C3C4",
"E. c #CAC0C3",
"W. c #C7C7C8",
"Q. c #CCC6C9",
"!. c #CBCBCC",
/* pixels */
"R.R.R.R.R.U.W.R.R.U.U.R.U.U.U.U.U.U.9 X X X X X X X X X X X X X X X X X X X X X X X e.P.n.X X X X X 0.n.n.n.U.U.R.R.W.R.n.n.z.z.",
"R.U.R.R.R.W.R.W.U.R.R.U.U.U.U.U.U.n.9 X X X X X X X X X X X X X X X X X X X X X X X 0.K.K.X X X X X 0.v.K.n.P.n.R.W.W.W.n.n.g.k.",
"!.W.R.U.!.!.W.R.W.R.W.W.R.W.I.h.e.e.& X X X X O O O O O O O O X O O O O O O O O X X K 0.q.+ + + O O z 0.0.c.P.E.W.W.!.!.W.W.h.k.",
"W.W.U.R.!.!.R.R.R.W.R.W.W.R.U.e.X X + + + + + + + + + + + + + + + + + + + + + + + + + + + 3 3 1 + + X X X D.K.P.E.R.!.!.W.R.h.g.",
"R.U.R.W.U.U.R.U.U.R.R.W.R.R.R.w.X X + + + + + + + + + + + + + + + + + + + + + + + + + + + 3 2 < + + X X X D.F.J.T.R.W.W.n.n.h.h.",
"U.R.W.W.R.R.R.R.R.R.R.W.W.e e = + + + + + # # # # # , < 1 1 1 1 1 1 1 1 2 1 1 , # # # # # , , , 1 1 + X X N.A.F.K.Y.R.R.n.n.k.g.",
"h.h.h.v.h.h.h.h.h.h.h.h.h.X o o + + + + + > > > > > 2 3 3 3 3 3 3 3 3 3 3 3 3 2 > > > > > > > , 3 3 + X X >.r.y.a.j.z.h.h.h.h.h.",
"h.h.h.h.h.h.h.v.h.h.h.h.h.X X O + + + + + > > > > > 2 3 3 3 3 3 3 3 3 3 3 3 3 2 > > > > > > > , 3 3 + X X T >.r.p.j.z.h.h.h.h.h.",
"U.R.U.U.U.U.n.n.U.U.k.h.n.X X X + + # > > + + + + + + + + + + + + + + + + + + + + + + + + + + # y y > + + <.3.N.S.G.K.E.W.R.R.W.",
"R.U.U.U.U.U.n.n.U.U.g.h.n.X X X + + # > > + + + + + + + + + + + + + + + + + + + + + + + + + + > y y # + + { 2.m.S.G.K.Y.R.W.W.R.",
"R.W.W.!.U.U.n.n.W.W.h.h.n.X X X + + @ # # + + @ < < 5 5 5 5 e 5 5 5 e 5 5 5 e e 5 5 5 5 e 5 e r v v > + + ( 2.m.Z.G.E.Q.!.!.!.!.",
"W.R.!.W.U.U.n.U.W.W.h.g.n.X X O + + + + + + + < M M O.%.%.%.%.%.%.%.%.%.%.%.%.%.%.%.%.%.%.%.%.%.%.$.5 + + { 1.6.Z.H.T.Q.!.!.!.!.",
"U.U.U.R.U.R.U.U.U.U.h.z.R.X X O + + + + + + + < M M O.%.%.%.%.%.%.%.%.%.%.%.%.%.%.%.%.%.%.%.%.%.%.%.5 + + ( <.6.Z.H.K.P.!.R.n.n.",
"U.U.R.U.W.W.U.U.U.n.k.h.Y.X X O + + + + + b b m O.O.%.%.%.=.=.=.=.=.=.=.=.=.=.=.=.=.=.=.=.=.=.=.=.=.e + + ( <.6.Z.G.K.n.R.R.n.n.",
"h.h.h.h.h.h.h.h.h.h.h.h.z.X X O + + + + + M M R %.%.%.%.%.C.C.C.=.C.C.C.C.C.C.C.=.C.C.C.C.C.C.C.C.C.e + + H Y X.t.a.j.h.h.h.h.h.",
"h.h.h.h.h.h.h.h.h.h.h.h.z.X X O + + + + + M M R %.%.%.%.%.C.C.C.=.C.C.C.C.C.C.C.=.C.C.C.C.C.C.C.C.C.e + + ! Y T t.a.z.h.v.h.h.h.",
"!.!.U.U.R.R.U.R.U.R.R.W.n.X X O + + + + + 3 3 u %.%.=.C.C.+ + + + + + + + + + e C.C.e + + + + + + + B ~ ~ { 2.m.Z.H.K.P.U.U.k.k.",
"!.!.U.R.R.U.R.U.R.U.W.R.U.X X O + + + + + 5 3 u %.%.=.C.C.+ + + + + + + + + + e C.C.e + + + + + + + B ~ ) <.4.M.S.G.K.Y.U.U.g.h.",
"!.!.!.!.R.W.R.W.R.W.R.W.R.X X + 5 5 @ + + 3 3 u &.&.=.C.C.e e e e e e e e e e N C.C.N e e e e e e e D ~ { 1.5.N.H.T.T.Y.W.W.z.k.",
"!.!.!.!.W.R.W.R.W.R.W.R.R.X X 2 %.%.5 + + 3 3 u C.C.C.C.C.C.C.C.C.C.C.C.C.C.C.C.C.C.C.C.C.C.C.C.C.C. ./ 1.4.7.N.H.T.T.R.W.R.h.g.",
"R.W.!.!.U.R.U.R.R.R.W.W.U.X X 2 %.%.5 + + 3 3 v C.C.C.C.C.C.C.C.C.C.C.C.C.C.C.C.C.C.C.C.C.C.C.C.C.C.} <.<.5.u.f.F.v.n.U.R.R.h.h.",
"U.!.!.!.R.U.R.U.R.R.R.W.U.X X 2 %.%.5 + + +.+.+.C.C.C.C.C.C.C.C.C.C.t & & C.C.C.C.C.C.C.C.& & t C.C. .{ 2.m.Z.D.G.n.n.U.R.U.k.g.",
"h.h.h.h.h.h.h.h.h.h.h.h.h.X X 2 %.%.5 + + C.=.=.C.C.C.C.C.C.C.C.C.C.&     C.C.C.C.C.C.C.C.    & C.C.] J T ,.u.d.k.z.h.h.h.h.h.h.",
"h.h.h.h.h.h.h.h.h.h.h.h.h.X X 2 %.%.e + + C.C.C.C.C.C.C.C.C.C.C.C.C.&     C.C.C.C.C.C.C.C.    # C.C.] J ;.,.p.d.k.h.h.h.h.h.h.h.",
"R.U.W.R.R.U.U.U.U.U.h.h.b.X X 2 %.%.%.%.%.C.C.C.C.C.C.C.C.%.%.&.C.C.C.C.C.C.C.C.C.C.C.C.C.C.C.C.C.C.| [ 3.N.D.c.Y.R.Q.W.R.R.n.U.",
"U.U.R.W.U.R.U.U.U.U.h.g.b.X X 2 %.%.%.%.%.C.C.C.C.C.C.C.C.%.%.&.C.C.C.C.C.C.C.C.C.C.C.C.C.C.C.C.C.C.| [ 3.N.D.c.Y.R.!.!.R.U.U.U.",
"W.R.W.R.R.R.!.!.R.U.h.g.n.X X , ....O.%.%.C.C.C.C.C.=.=.=.&.&.&.C.C.C.C.C.C.C.C.C.C.C.C.C.C.C.C.=.=.| [ 3.u.f.c.Q.!.!.!.R.W.W.W.",
"R.W.R.W.R.R.!.!.R.n.h.h.U.X X O + + ..%.%.C.C.C.C.C.&.%.%.C.C.C.C.C.C.C.C.C.C.C.C.C.C.C.C.C.C.=.%.%.] ' 3.u.l.x.Q.!.!.!.W.W.!.!.",
"R.U.W.R.U.U.R.U.U.U.h.h.b.X X X + + C %.%.=.C.C.C.C.&.%.%.C.C.C.C.C.C.C.C.C.C.C.C.C.C.C.C.C.C.=.%.%.] [ 3.N.D.J.n.U.n.n.n.U.R.U.",
"R.U.W.!.U.U.R.W.U.R.h.h.n.+ + O + + ..%.%.=.C.C.C.C.&.%.C.C.C.=.C.C.C.C.C.C.C.C.C.C.C.C.C.C.C.=.%.%.| [ 3.N.D.J.n.U.n.R.U.U.U.R.",
"h.h.h.h.h.h.h.h.h.h.h.h.h.+ + + + + ..%.%.C.C.C.C.C.&.%.C.R o.R E E E E E E o.E E E *.C.C.%.C.=.%.%._ Y T t.p.j.z.h.h.h.h.h.h.h.",
"h.h.h.h.h.h.h.h.h.h.h.h.h.+ + + + + C O.%.C.C.C.C.C.&.%.C.M M M M M M M M M M M M M *.C.C.%.C.=.%.%._ J T r.p.d.z.h.v.h.h.h.h.h.",
"U.U.R.W.U.R.W.W.R.U.R.Y.n.b.l.P + + ..%.%.C.C.C.C.C.&.%.C.M M M M M M M M M M M M M *.C.C.$.C.=.%.%.] [ 3.B.D.c.P.W.W.W.n.n.h.k.",
"U.U.W.W.R.U.W.U.U.R.U.R.P.v.x.-.+ + C %.%.C.C.C.C.C.&.%.C.C.C.C.C.C.C.C.C.C.C.C.C.C.E M M %.C.=.%.%.] [ 3.N.D.c.Y.R.W.W.n.n.g.h.",
"!.!.U.U.!.!.W.W.W.R.W.R.Y.Y.F.X.2 4 V ....=.=.=.C.C.*.*.C.C.C.C.C.C.C.C.C.C.C.C.C.C.R M M %.C.=.%.%.] [ 3.N.D.K.T.R.!.!.W.W.k.k.",
"!.W.W.U.!.!.W.W.W.R.R.W.Y.Y.c.D.u.5.2 + + %.%.&.C.C.C.C.C.C.C.C.C.C.C.C.C.C.C.C.C.C.o.o.E %.C.=.%.%.` [ 3.N.D.L.E.W.!.!.W.R.k.g.",
"U.U.W.W.R.U.R.U.U.R.U.R.R.R.K.G.f.N.0 + + %.%.%.C.C.C.C.C.C.C.C.C.C.C.C.C.C.C.C.C.C.C.C.C.C.C.V.%.%.} [ 5.B.D.G.R.W.W.W.n.n.h.g.",
"U.U.W.W.R.W.U.R.R.U.R.U.W.W.E.K.x.f.P L Z  .|  .&.&.&.&.&.*.&.&.&.&.&.&.%.&.&.&.&.%.&.&.&.*.*.$._ _ ' [ 5.B.D.J.U.W.W.W.n.n.h.h.",
"h.h.h.h.h.h.h.v.h.h.h.h.h.h.h.z.j.a.u.r.>.T U ` %.%.%.%.%.%.%.%.%.%.%.%.%.%.%.%.%.%.%.%.$.%.%.#.W F H Y >.t.p.j.z.h.h.h.h.h.h.h.",
"h.h.h.h.h.h.h.h.h.h.h.h.h.h.h.h.k.j.a.y.r.,.U | %.%.%.%.%.%.%.%.%.%.%.%.%.%.%.%.%.%.%.%.%.%.$.#.W Q J T >.y.a.j.z.h.h.h.h.h.h.h.",
"W.U.U.U.U.U.I.U.U.U.h.g.U.U.U.U.P.K.K.x.A.B.m.5.7.2.d % % 8.8.P M M P 8.8.Q Q Q Q Q S S ~ ~ ~ ^ ^ [ | m.N.f.G.K.R.W.R.R.W.R.W.R.",
"U.U.U.U.U.U.n.U.n.R.h.k.U.U.U.U.R.P.K.K.G.D.A.B.N.M.d % % 8.8.-.M M X.8.8.! Q ! ^ ^ F F ( ) ( ( [ | 5.M.B.F.J.K.R.R.R.R.R.W.R.W.",
"!.U.!.W.U.U.n.n.W.W.g.h.U.n.R.W.W.W.Y.P.K.K.G.l.q.:.f % - w.w.-.n m 8.8.w.A A D <.1.J J <.<.1.2.4.m.M.A.H.J.P.E.R.R.Q.!.!.!.!.!.",
"W.W.!.!.U.U.n.n.R.R.k.z.n.n.W.R.R.R.E.R.Y.T.P.e.a a a p p I.I.i.w w e.I.I.a a g 1.2.I ;.,.6.7.m.M.B.A.D.J.K.Y.R.W.W.!.!.!.!.!.!.",
"U.U.R.R.U.R.U.U.R.U.h.g.U.W.W.W.W.R.U.R.Y.Y.P.e.i i a p p I.I.i.w w i.I.I.a p h 1.4.,.,.B.Z.Z.A.S.D.D.J.K.U.Y.R.W.R.R.R.!.U.U.n.",
"U.U.R.W.R.U.U.U.U.R.h.h.W.R.W.!.R.W.W.U.Y.l l l s s a p p g.g.9.x x 9.g.g.p p h 5.7.,.t.D.F.H.H.H.J.K.K.Y.R.U.U.W.W.R.R.R.R.n.n.",
"h.h.h.h.h.h.h.h.h.h.h.h.h.h.h.h.h.h.v.h.h.s s s s s a p p s.s.9.c c 9.s.s.p p g ;.,.t.p.d.d.d.k.k.z.k.z.h.h.h.h.h.h.h.h.h.h.h.h.",
"h.h.h.h.h.h.h.h.h.h.v.h.h.h.h.h.h.h.h.h.h.s s s s s a p p s.s.9.c c 9.s.s.p p g Y >.,.d.d.d.z.h.z.z.h.z.h.h.h.h.h.h.h.b.h.h.h.h.",
"!.!.W.R.U.R.U.R.U.R.R.W.U.R.U.R.R.U.W.W.U.s s s s s ; % % s s f w w 8 s s p p i ; ; :.D.G.b.P.R.E.R.R.R.R.R.R.W.R.W.R.U.U.U.h.z.",
"!.!.U.R.R.U.R.U.R.U.W.R.R.U.R.U.U.R.W.R.R.s s s s s ; % % s s d w w f s s p p i ; ; L S.F.K.K.U.R.U.R.W.R.R.W.R.W.W.U.R.U.U.g.h.",
"!.W.!.W.R.W.R.W.R.W.R.W.W.R.U.R.W.R.W.R.!.s s s s s - % % s s f q q s s s a a p ; ; L B.D.J.K.n.W.R.W.R.!.!.U.R.!.!.!.R.W.W.k.k.",
"W.!.W.!.W.R.W.R.W.R.W.R.R.W.R.U.R.W.R.R.W.s s s s s ; % % s s s : : s s s s s a ; ; I M.A.H.K.P.R.W.R.W.!.!.R.U.!.!.W.W.W.W.k.g.",
"U.U.!.!.!.W.R.R.R.R.W.W.R.U.R.U.R.Y.W.W.U.s s s s s - % % s s a : : s s s s s s ; ; G m.N.D.G.K.P.U.W.W.R.R.U.U.U.U.U.U.U.U.h.h.",
"U.U.!.!.R.R.R.W.R.R.W.!.U.R.U.R.R.R.W.W.U.@.@.K - ; p a p s s a - % a s s s s j ....| 4.m.A.x.J.P.U.W.W.R.U.R.R.U.U.U.R.U.R.h.g.",
"h.h.h.h.h.h.h.h.h.h.h.h.h.h.h.h.h.h.h.h.h.C.C.X.% % p s s s s a % % a s s s s k %.%.] Y >.t.p.j.z.h.z.h.h.h.h.h.h.h.h.h.h.h.h.h.",
"h.h.h.h.h.h.h.h.h.h.h.h.h.h.h.h.h.h.h.h.h.C.C.X.% % p s s s s a % % a s s s s k %.$.` J >.r.p.j.z.h.h.h.h.h.h.h.h.h.h.h.h.h.h.h.",
"U.U.W.R.R.U.U.U.U.U.g.k.b.n.n.n.U.U.n.n.n.v.F.-.$ $ $ $ $ $ $ $ % % % o % $ $ 6 Q Q F J ,.N.D.c.n.U.n.n.U.U.U.U.W.W.W.W.R.R.U.U.",
"U.U.R.W.U.R.U.U.U.U.h.g.n.b.U.U.U.U.n.n.n.b.c.-.$ $ $ $ $ $ $ $ % % $ $ $ $ o 6 Q ^ F Y ,.u.D.J.n.U.n.n.U.U.U.U.W.R.!.!.R.U.U.U.",
"W.R.W.R.W.W.!.W.W.W.g.k.U.U.W.W.n.n.n.n.b.c.c.-.$ $ $ % $ 7 7 7 8 8 % $ $ $ % 7 ! ) J U M.Z.J.T.n.n.n.n.n.n.n.n.!.!.!.!.W.R.W.!.",
"R.W.R.R.W.R.W.!.W.R.h.h.U.U.!.!.n.n.n.n.n.b.c.-.% % % % % ~ ~ ~ ~ ~ 8 % % $ $ 7 ^ [ J U N.S.L.E.h.n.n.n.n.n.n.n.!.!.!.!.R.W.!.W.",
"R.R.R.W.U.U.R.U.U.n.g.h.U.n.R.W.R.R.U.U.n.b.P.e.% % % % % ^ ~ ^ ^ ^ d % % $ $ 7 ^ [ U ,.B.l.L.R.R.R.U.U.U.n.R.R.U.U.U.U.U.U.U.R.",
"U.R.W.R.U.U.U.R.U.n.h.h.U.n.W.R.R.W.U.U.n.n.P.e.o o $ o o ^ ^ ( <.<.* . . o o * { | U ,.f.F.Y.R.R.R.U.U.U.R.U.U.U.U.n.U.U.U.R.U.",
"h.h.h.h.n.h.h.h.h.h.h.n.h.h.h.h.h.v.h.h.h.h.h.z o o o o o H H J Y ;.+     o o * J Y T t.p.j.h.h.h.h.h.h.h.h.h.h.h.h.h.b.h.h.h.h.",
"h.h.h.h.h.h.h.h.h.h.h.h.h.h.h.h.h.h.h.h.h.h.h.-.o o o . o J J Y ;.,.*     o o * J U ,.y.a.j.h.h.h.h.h.h.h.h.h.h.h.h.h.h.h.h.h.h."
};
