/* XPM */
static char *result[] = {
/* columns rows colors chars-per-pixel */
"64 64 185 2 ",
"   c black",
".  c #1D1D1D",
"X  c #202020",
"o  c #202021",
"O  c gray13",
"+  c #343434",
"@  c #353535",
"#  c #373737",
"$  c gray22",
"%  c #383839",
"&  c #393939",
"*  c #3A3A3A",
"=  c #464646",
"-  c gray28",
";  c gray29",
":  c #4B4B4B",
">  c #4C4C4C",
",  c gray30",
"<  c #4E4E4E",
"1  c #565656",
"2  c gray34",
"3  c #5A5A5A",
"4  c #5B5B5B",
"5  c gray36",
"6  c #5D5D5E",
"7  c gray37",
"8  c #5E5E5F",
"9  c #5F5F60",
"0  c gray42",
"q  c #6C6C6C",
"w  c #6D6D6D",
"e  c #6E6E6F",
"r  c #6F6F70",
"t  c #727272",
"y  c gray45",
"u  c #787879",
"i  c #797979",
"p  c gray48",
"a  c #7B7B7B",
"s  c gray49",
"d  c #7E7E7E",
"f  c #808080",
"g  c #858586",
"h  c #868686",
"j  c gray53",
"k  c #888888",
"l  c #888889",
"z  c #898989",
"x  c gray54",
"c  c #8B8B8B",
"v  c #8B8B8C",
"b  c gray55",
"n  c #919192",
"m  c #929292",
"M  c #939393",
"N  c #949495",
"B  c #959595",
"V  c #979797",
"C  c #969698",
"Z  c #979798",
"A  c #989898",
"S  c #989899",
"D  c gray62",
"F  c #9F9F9F",
"G  c #A0A0A0",
"H  c #A1A1A2",
"J  c #A2A2A2",
"K  c #A4A4A4",
"L  c #A8A8A9",
"P  c #A9A9A9",
"I  c #AAAAAA",
"U  c gray67",
"Y  c #ACACAC",
"T  c #ACACAD",
"R  c gray68",
"E  c #AFAFAF",
"W  c gray69",
"Q  c #B0B0B1",
"!  c #B2B2B2",
"~  c gray70",
"^  c #B3B3B4",
"/  c #B4B4B4",
"(  c gray71",
")  c #B5B5B6",
"_  c #B6B6B6",
"`  c #B6B6B7",
"'  c #B7B7B7",
"]  c #B7B7B8",
"[  c gray72",
"{  c #B9B9B9",
"}  c #B9B9BB",
"|  c gray73",
" . c #BBBBBB",
".. c #BBBBBC",
"X. c #BCBCBC",
"o. c #BCBCBD",
"O. c gray74",
"+. c #BDBDBE",
"@. c gray",
"#. c #BEBEBF",
"$. c gray75",
"%. c #BFBFC0",
"&. c #C0C0C0",
"*. c #C0C0C1",
"=. c #C1C1C1",
"-. c #C1C1C2",
";. c gray76",
":. c #C2C2C3",
">. c #C3C3C3",
",. c #C3C3C4",
"<. c #C4C4C5",
"1. c #C4C4C6",
"2. c #C5C5C6",
"3. c #C5C5C7",
"4. c #C6C6C7",
"5. c gray78",
"6. c #C7C7C8",
"7. c #C7C7C9",
"8. c #C8C8C8",
"9. c #C8C8C9",
"0. c gray79",
"q. c #C9C9CA",
"w. c #C9C9CB",
"e. c #CACACA",
"r. c #CACACB",
"t. c #CBCBCB",
"y. c #CACACC",
"u. c #CBCBCC",
"i. c #CBCBCD",
"p. c gray80",
"a. c #CCCCCD",
"s. c #CCCCCE",
"d. c #CDCDCE",
"f. c #CDCDCF",
"g. c #CECECE",
"h. c #CECECF",
"j. c gray81",
"k. c #CFCFD0",
"l. c #D0D0D0",
"z. c #D0D0D1",
"x. c gray82",
"c. c #D0D0D2",
"v. c #D1D1D2",
"b. c #D2D2D2",
"n. c #D2D2D3",
"m. c LightGray",
"M. c #D2D2D4",
"N. c #D3D3D4",
"B. c #D3D3D5",
"V. c gray83",
"C. c #D4D4D5",
"Z. c #D5D5D5",
"A. c #D5D5D6",
"S. c #D5D5D7",
"D. c gray84",
"F. c #D6D6D7",
"G. c #D7D7D7",
"H. c #D7D7D8",
"J. c #D8D8D8",
"K. c #D8D8D9",
"L. c gray85",
"P. c #D8D8DA",
"I. c #D9D9DA",
"U. c #DADADA",
"Y. c #DADADB",
"T. c gray86",
"R. c #DBDBDC",
"E. c #DBDBDD",
"W. c gainsboro",
"Q. c #DCDCDD",
"!. c #DDDDDD",
"~. c #DDDDDE",
"^. c gray87",
"/. c #DEDEDF",
"(. c #DEDEE0",
"). c #DFDFE0",
"_. c #DFDFE1",
"`. c #E0E0E1",
"'. c #E1E1E1",
"]. c #E2E2E2",
"[. c #E2E2E3",
"{. c #E2E2E4",
"}. c #E3E3E4",
"|. c #E4E4E4",
" X c #E5E5E6",
/* pixels */
"-.-.1.1.=.=.2.2.-.-.-.-.%.%.%.%.%.%.o.o.%.%.%.%.2.2.2.2.o.o.P P -.-.1.1.=.=.2.2.-.-.-.-.%.%.%.%.%.%.o.o.%.%.%.%.2.2.2.2.o.o.P P ",
"-.-.1.1.=.=.2.2.-.-.-.-.%.%.%.%.%.%.o.o.%.%.%.%.2.2.2.2.o.o.P P -.-.1.1.=.=.2.2.-.-.-.-.%.%.%.%.%.%.o.o.%.%.%.%.2.2.2.2.o.o.P P ",
"9.9.-.-.f.f.2.2.2.2.2.2.2.2.o.o.o.o.o.o.o.o.2.2.4.4.f.f.9.9.P P 9.9.-.-.f.f.2.2.2.2.2.2.2.2.o.o.o.o.o.o.o.o.2.2.4.4.f.f.9.9.P P ",
"9.9.-.-.f.f.2.2.2.2.2.2.2.2.o.o.o.o.o.o.o.o.2.2.4.4.f.f.9.9.P P 9.9.-.-.f.f.2.2.2.2.2.2.2.2.o.o.o.o.o.o.o.o.2.2.4.4.f.f.9.9.P P ",
"-.-.2.2.:.:.-.-.-.-.-.-.2.2.2.2.o.o.-.-.-.-.-.-.4.4.6.6.o.o.P P -.-.2.2.:.:.-.-.-.-.-.-.2.2.2.2.o.o.-.-.-.-.-.-.4.4.6.6.o.o.P P ",
"-.-.2.2.:.:.-.-.-.-.-.-.2.2.2.2.o.o.-.-.-.-.-.-.4.4.6.6.o.o.P P -.-.2.2.:.:.-.-.-.-.-.-.2.2.2.2.o.o.-.-.-.-.-.-.4.4.6.6.o.o.P P ",
"E E E E E E E E E E E _ { { { { { { { { { ! E E E E E E E E E E ! { { { { { { { ! E E E E E E E W { { / E E E E E E E E E E E E ",
"E E E E E E E E E E t.m.m.m.m.m.m.m.m.m.m.m.5.E E E E E E E E 5.m.m.m.m.m.m.m.m.m.5.E E E E E ( g.m.m.m.0.E E E E E E E E E E t.",
"-.-.%.%.%.%.o.o.%.g.l./ _ _ _ _ _ _ _ _ _ V.^.,.2.2.,.,.3.3.7.`.V._ ( ( ( ( ^ ^ m.!.Y P -.-.-.G.^._ _ e.^.8.-.-.2.2.,.,.3.3.M.`.",
"-.-.%.%.%.%.o.-.g.Z.l.1                   _ ^.x.d.2.,.,.3.M.I.`._               ( !.@.( -.-.-.^.^.    M ^.F.k.-.2.2.,.,.3.M.I.`.",
"2.2.w.w.%.%.-.R.].].l.1                   ] `.`.`.d.u.u.I. X X X]               { ].l.l.2.o.2.`.`.    B `.`.`.Y.2.2.u.u.`. X X X",
"2.2.w.w.%.*.9.R.J 7 1 .   ; ] ] ] ] B     > 6 l `.C.u.h._. X9 9 >     C ( M     , 7 d l.d.#.2.`.`.    % 6 6 :.`.r.2.u.z. X4.9 9 ",
"%.%.-.-.4.U.!.!.M         6 `.`.`.`._         5 '.U.D.^.!.!.          _ ^._         1 l.`.`.H.`.`.          _ ^.'.T.J.^.!.(     ",
"%.%.-.-.G.^.( ( p     = 6 l `.C.a.`.&.5 5 5 5 j '.Z.^.e.( (     X 5 5 &.^.&.5 5 X   = I ] F.`.`.`.          M _ >.'.^.&.( M     ",
"E E E E m.m.          R m.m.m.| E t.m.m.m.m.m.m.m.&.m.b         2 m.m.m.t.m.m.m.2         R m.m.m.              2 m.m.2         ",
"E E E E m.m.          R m.;.&.&.&.&.=.e.e.e.e.;.| &.m.b         2 m.e.=.E =.e.m.2         R m.m.m.              2 m.m.2         ",
"h.h.%.%.^.^.          ] ^.^.^.^.^.^.`.`.).).`.`.`.n.^.M         9  XZ.6.q.q.F.^.5         _ ^.^.^.              o 6 5 X         ",
"h.h.%.%.^.^.          ] ^.e.M M M M B B N N B H `.M.^.M         9  X!.!.^.^.^.^.5         _ ^.^.^.                              ",
"w.w.w.w.`.`.          ] `.]                   5  X).`.B         , } } } ] ] ] ] >         ] ^.^.`.          : 5 <     > 8 ,     ",
"w.w.w.w.`.`.          ] `.]                   5  X).`.B                                   ] ^.^.`.          _ ^...    ] {.}     ",
"%.%.h.h.^.^.          [ ^.^.^.^.^.^.[         5 W.V.!.M                                   _ ^.^.^.          ( !./     ( ^._     ",
"%.%.h.h.^.^.          [ ^.G.^.^.^.^.[         5 W.V.!.M         : ( ...._ _ _ _ :         _ ^.^.^.          ( !.b./ ( m.^._     ",
"E E E E m.m.          R m.t.=.E { m.R         2 m.e.m.b         2 m.m.m.m.m.m.m.2         R m.m.m.          R m.m.m.m.m.m.R     ",
"E E E E m.m.          R m.m.m.=.{ m.R         2 m.e.m.b         2 m.e.{ { { e.m.2         R m.m.m.          R m.{ { { { m.R     ",
"%.%.2.2.G.^.!.!.M         3 !.Z.d.!.^         5 `.I.`.B         5 !.I.2.-.-.Z.!.5         ! !.!.!.          ( !.s.3.3.s.^._     ",
"%.%.2.2.4.G.!.!.M         3 !.!.!.!.^         5 `.I.`.B         5 !.I.2.-.-.Z.!.5         ! !.!.!.          ( !.s.3.3.s.^._     ",
"2.2.2.2.2.2.c.{.] B x +   $ Z Z n n u         4  X). XS         6 `.I.2.2.2.E.{.6         ) }.}.R.          ^ R.B.f.h.C.`.]     ",
"2.2.2.2.2.2.y.(.`.`.l.1                       4  X). XS         6 `.I.2.2.2.E.{.6         ) }.}.R.          ^ R.B.f.h.C.`.]     ",
"-.-.2.2.%.%.-.:.q.F.l.1                       5 !.Z.W.m         5 ^.I.2.%.%.F.^.5         ^ `.`.).          _ ^.6.%.+.2.!.(     ",
"-.-.2.2.%.%.-.-.-.k.l.l.R.R.`.`.).).!.!.R.R.^.^.!.g.W.W.!.!.^.^.^.^.n.2.%.%.k.^.^.^.l.l.R.R.Q.Y.).).!.!.R.R.^.U.*.%.+.#.L.!.^.^.",
"E E E E E E E E E E =.t.m.m.m.m.m.m.m.m.m.m.m.t.=.E ' t.m.m.m.m.t.=.E E E E E =.t.m.m.m.m.t.( ( t.m.m.m.m.m.t.( E E E E ( t.m.m.",
"E E E E E E E E E E E E E E E E E E E E E E E E E E E E E E E E E E E E E E E E E E E E E E E E E E E E E E E E E E E E E E E E ",
"-.-.1.1.=.=.2.2.-.-.-.-.%.%.%.%.%.%.o.o.%.%.%.%.2.2.2.2.o.o.P P -.-.1.1.=.=.2.2.-.-.-.-.%.%.%.%.%.%.o.o.%.%.%.%.2.2.2.2.o.o.P P ",
"-.-.1.1.=.=.2.2.-.-.-.-.%.%.%.%.%.%.o.o.%.%.%.%.2.2.2.2.o.o.P P -.-.1.1.=.=.2.2.-.-.-.-.%.%.%.%.%.%.o.o.%.%.%.%.2.2.2.2.o.o.P P ",
"9.9.-.-.f.f.2.2.2.2.2.2.2.2.o.o.o.o.o.o.o.o.2.2.4.4.f.f.9.9.P P 9.9.-.-.f.f.2.2.2.2.2.2.2.2.o.o.o.o.o.o.o.o.2.2.4.4.f.f.9.9.P P ",
"9.9.-.-.f.f.2.2.2.6.2.2.2.2.o.o.o.o.o.#.o.o.2.2.4.4.f.f.9.9.P P 9.9.-.-.f.f.2.2.2.6.2.2.2.2.o.o.o.o.o.o.o.o.2.2.4.4.f.f.9.9.P P ",
"v.J.C.9.:.r.x.x.G.^.G.4.2.2.2.2.o.-.G.^.J.v.-.-.4.4.6.6.o.o.P P -.-.2.2.:.:.-.4.G.^.J.v.2.2.2.2.o.o.-.-.-.-.-.-.4.4.6.6.o.o.P P ",
"^.^.`./.r./.^.^.^.V.^.W.9.2.2.2.o.C.^.V.^.^.v.-.4.4.6.6.o.o.P P -.-.2.2.:.:.-.G.^.V.^.^.C.2.2.2.o.o.-.-.-.-.-.-.4.4.6.6.o.o.P P ",
"m.- J m.m.m.f f f   J m. . . . . .m.e.  - m.p. .~ E W {  . . ./ E E ~  . . . .m.e.  - m.p.E E E W {  . . ./ E E ~  . . . .~ ~  .",
"m.-   J e.b   f b - R m.m.m.m.m.m.m.e.  - m.m.m.m.5.g.m.m.m.m.m.0.5.m.m.m.m.m.m.e.  - m.p.E E ' g.m.m.m.m.m.0.5.m.m.m.m.m.l.l.m.",
"^.:     M     g e.I 5.l.V.U U U U ^.V.  : U U U F.`.).` T T T a.^.^.m.I I I L R.m.  = l.J.-.8.^.^._ U U U e.^.^.F.T Y Y T `.`.T ",
"^.:   h $ 0   g h   G @.q 5 j j $ j V.  $ j j 5 w a.).N l l w 6 U e.0 5 h h # g m.  = l.J.-.v.^.M $ j j q 5 U ^.a.l k k % l F.  ",
"`.>   P.M I   g z   G G   g `.`.B l F.  > `.`.l   T |.A v v r   l T   8 h h #   J.  = l.A.o.R.`.>   F.`.a.l T `.a.l c c *   R.  ",
"`.>   P.!.I   g z   G G   g `.`.a > F.  > `.`.l   T s O Q Q S   l T   e I I L L J.  = l.R.6.R.`.>   F.`.] > B ] > w E E <   R.  ",
"!.:   V.^.U   h j   G 5.B % > > o T V.  : ^.^.j   R _ : : : ;   h m.M $ : : : !.^.U . t `.A.C.`.] > : : : q e.V.B & : : X   b.P ",
"!.!.V.^.W.^.m.!.^.V.l.l.`.F.F.F.F.`.^.V.^.^.^.^.G.'.^.^.m.m.b.b.!.!.^.V.V.V.m.!.W.^.5.l.`.k.4.Q.`.`.V.V.V.^.^.^.'.G.V.V.m.m.W.W.",
">.p.m.t.( t.m.t.t.m.t.' 5.m.m.m.m.8.t.m.p.>.| t.m.t.>.p.m.m.m.m.t.| 5.m.m.m.m.5.~ 8.m.8.X.E E W >.p.m.m.m.5.$.' 5.m.m.m.m.m.t.8.",
"E E ! E E E ! E E ! E E E ! ! ! ! E E ! E E E E ! E E E ! ! ! ! E E E ! ! ! ! E E E ! E E E E E E E ! ! ! E E E E ! ! ! ! ! E E ",
"h.h.%.%.-.-.-.-.-.-.2.2.k.F.F.F.F.F.I.n.9.,.3.3.3.3.-.-.%.%.P P h.h.%.%.-.-.-.-.-.-.2.2.-.-.-.-.-.-.2.2.,.,.3.3.3.3.-.-.%.%.P P ",
"h.h.%.%.-.-.-.-.-.-.2.Y.^.^.^.^.^.^.`.`.).9.3.3.3.3.-.-.%.%.P P h.h.%.%.-.-.-.-.-.-.2.2.-.-.-.-.-.-.2.2.,.,.3.3.3.3.-.-.%.%.P P ",
"w.w.w.w.2.2.2.2.2.2.r.`.:.6 5 5 6 6 6 H |.|.4.-.h.h.2.2.w.w.P P w.w.w.w.2.2.2.2.2.2.2.2.2.2.-.-.2.2.2.2.u.u.-.-.h.h.2.2.w.w.P P ",
"w.w.w.w.2.2.2.2.2.2.a.`.]     _ ] ] > % K |.j.j.N.H.n.n.B.f.E { S.S.S.S.z.q.2.4.a.n.n.n.n.n.8.-.2.u.n.n.G.G.j.q.k.h.2.2.w.w.I / ",
"%.%.h.h.-.-.-.-.-.-.d.'._     ^.^.^.7   M ^.!.!.W.W.!.!.^.^.l.l.!.!. X X^.^.4.U.^.^.'.'.^.^.^.8.8.^.'.'.^.^.!.!.J.#.%.%.-.:.e.l.",
"%.%.h.h.-.-.-.-.-.-.d.'._     M M M & 7 _ ^.M M 0.D M M F ^.l.B M M S S F ^.J.^._ M B B M M ^.V.^.^.B B M M M ( W.2.%.%.-.q.l.I ",
"E E E E E E E E E E { m.R     2 2 2 2 V m.m.    b y 2 2 f m.R - - 2 2 @ - ' m.' y @ 2 2 2 2 m.m.e.R   2 2 2 2 V m.O.E E E O.m.V ",
"E E E E E E E E E E { m.R     m.m.m.m.m.m.m.    - ' m.m.m.m.    b R R y   2 m.f @ y R R R R m.m.' 2   R R R R &.m.0.E E E t.m.&.",
"%.%.2.2.-.-.%.%.%.%./ l.!     !.!.Z.N.u.!.!.    ] `.Y.I.^.^.    : 5 6 6 5 j !.!.F 5 1 1 ;   ( !.!.!.4 4 5 5 X i a.`.i.3.k.^.$.i ",
"%.%.2.2.-.-.%.%.%.%./ l.!     !.!.%.o.o.!.!.    ] `.s.3.^.^.    ( !.`.`.^.^.!.!.!.!.l.l.!     !.!.!.R.R.!.!.5   B `.n.3.F.^.5   ",
"2.2.2.2.2.2.w.w.2.2./ l.)     }.R.o.o.o.R.R.    .. XC.h.Y.`.{.8         6 `.{.8             }.}.^             n  X XN.h.n.`.{.C ",
"2.2.2.2.2.2.w.w.2.2.I e.~.~.}.}.C.o.o.o.C.R.R.R. X[.k.h.r.Y.{.{.`.`.`.`.`.`.{.{.`.`.l.l.~.~.}.).R.R.R.R.R.R.R.R. XN.h.h.2.n.{.{.",
"-.-.2.2.%.%.-.-.-.-.P W C.R.`.Y.9.,.%.%.-.C.^.^.D.<.+.+.%.%.k.G.^.^.`.`.D.g.k.G.^.^.l.l.R.R.Y.r.K.).!.!.R.R.^.G.4.%.+.+.%.%.8.G.",
"-.-.2.2.%.%.-.-.-.-.P P o.o.3.3.,.,.%.%.o.o.-.-.%.%.+.+.%.%.-.-.-.-.2.2.%.%.-.-.-.-.P P o.o.3.3.,.,.%.%.o.o.-.-.%.%.+.+.%.%.-.-.",
"E E E E E E E E E E E E E E E E E E E E E E E E E E E E E E E E E E E E E E E E E E E E E E E E E E E E E E E E E E E E E E E E ",
"E E E E E E E E E E E E E E E E E E E E E E E E E E E E E E E E E E E E E E E E E E E E E E E E E E E E E E E E E E E E E E E E "
};
