/* XPM */
static char *result[] = {
/* columns rows colors chars-per-pixel */
"64 64 167 2 ",
"   c black",
".  c #1E1E1E",
"X  c #202020",
"o  c #202021",
"O  c #343434",
"+  c #353535",
"@  c #373737",
"#  c gray22",
"$  c #383839",
"%  c #464646",
"&  c gray28",
"*  c gray29",
"=  c #4B4B4B",
"-  c #4C4C4C",
";  c #4E4E4E",
":  c #565656",
">  c gray34",
",  c #5A5A5A",
"<  c #5B5B5B",
"1  c gray36",
"2  c #5D5D5E",
"3  c gray37",
"4  c #5E5E5F",
"5  c #5F5F60",
"6  c #646464",
"7  c gray40",
"8  c #6A6A6A",
"9  c gray42",
"0  c #6C6C6C",
"q  c #6D6D6D",
"w  c #727272",
"e  c gray45",
"r  c #79797A",
"t  c gray48",
"y  c #808080",
"u  c #858586",
"i  c #868686",
"p  c gray53",
"a  c #888888",
"s  c #888889",
"d  c #89898B",
"f  c gray54",
"g  c #8B8B8B",
"h  c gray55",
"j  c #919192",
"k  c #939393",
"l  c #959595",
"z  c #979797",
"x  c #969698",
"c  c #979798",
"v  c #989899",
"b  c #9D9D9E",
"n  c #9F9F9F",
"m  c #A0A0A0",
"M  c #A2A2A2",
"N  c #A4A4A5",
"B  c #A8A8A9",
"V  c #A9A9A9",
"C  c #AAAAAA",
"Z  c gray67",
"A  c #ACACAC",
"S  c #ACACAD",
"D  c gray68",
"F  c #AFAFAF",
"G  c gray69",
"H  c #B0B0B1",
"J  c #B2B2B2",
"K  c gray70",
"L  c #B3B3B4",
"P  c #B4B4B4",
"I  c gray71",
"U  c #B6B6B6",
"Y  c #B7B7B7",
"T  c #B7B7B8",
"R  c gray72",
"E  c #B9B9B9",
"W  c #B9B9BB",
"Q  c gray73",
"!  c #BABABB",
"~  c #BBBBBB",
"^  c #BBBBBC",
"/  c #BCBCBC",
"(  c #BCBCBD",
")  c gray74",
"_  c #BDBDBE",
"`  c #BEBEBF",
"'  c gray75",
"]  c #BFBFC0",
"[  c #C0C0C0",
"{  c #C0C0C1",
"}  c #C1C1C1",
"|  c #C1C1C2",
" . c gray76",
".. c #C2C2C3",
"X. c #C3C3C3",
"o. c #C3C3C4",
"O. c #C4C4C5",
"+. c #C4C4C6",
"@. c #C5C5C6",
"#. c #C5C5C7",
"$. c #C6C6C6",
"%. c #C6C6C7",
"&. c gray78",
"*. c #C7C7C8",
"=. c #C8C8C8",
"-. c #C8C8C9",
";. c gray79",
":. c #C9C9CA",
">. c #C9C9CB",
",. c #CACACA",
"<. c #CACACB",
"1. c #CBCBCB",
"2. c #CBCBCC",
"3. c #CBCBCD",
"4. c gray80",
"5. c #CCCCCD",
"6. c #CDCDCD",
"7. c #CCCCCE",
"8. c #CDCDCE",
"9. c #CDCDCF",
"0. c #CECECE",
"q. c #CECECF",
"w. c gray81",
"e. c #CECED0",
"r. c #CFCFD0",
"t. c #D0D0D0",
"y. c #D0D0D1",
"u. c gray82",
"i. c #D0D0D2",
"p. c #D1D1D2",
"a. c #D2D2D2",
"s. c #D2D2D3",
"d. c LightGray",
"f. c #D3D3D5",
"g. c gray83",
"h. c #D4D4D5",
"j. c #D5D5D5",
"k. c #D5D5D6",
"l. c #D5D5D7",
"z. c gray84",
"x. c #D6D6D7",
"c. c #D7D7D7",
"v. c #D6D6D8",
"b. c #D7D7D8",
"n. c #D8D8D8",
"m. c #D8D8D9",
"M. c #D9D9DA",
"N. c #DADADA",
"B. c #DADADB",
"V. c gray86",
"C. c #DBDBDC",
"Z. c #DBDBDD",
"A. c gainsboro",
"S. c #DCDCDD",
"D. c #DDDDDD",
"F. c #DDDDDE",
"G. c gray87",
"H. c #DEDEDF",
"J. c #DEDEE0",
"K. c #DFDFE0",
"L. c #E0E0E1",
"P. c #E1E1E1",
"I. c #E2E2E2",
"U. c #E2E2E4",
"Y. c #E3E3E4",
"T. c #E4E4E4",
"R. c #E5E5E6",
/* pixels */
"| | +.+.} } @.@.| | | | ] ] ] ] ] ] ( ( ] ] ] ] @.@.@.@.( ( V V | | +.+.} } @.@.| | | | ] ] ] ] ] ] ( ( ] ] ] ] @.@.@.@.( ( V V ",
"| | +.+.} } @.@.| | | | ] ] ] ] ] ] ( ( ] ] ] ] @.@.@.@.( ( V V | | +.+.} } @.@.| | | | ] ] ] ] ] ] ( ( ] ] ] ] @.@.@.@.( ( V V ",
"-.-.| | 9.9.@.@.@.@.@.@.@.@.( ( ( ( ( ( ( ( @.@.%.%.9.9.-.-.V V -.-.| | 9.9.@.@.@.@.@.@.@.@.( ( ( ( ( ( ( ( @.@.%.%.9.9.-.-.V V ",
"-.-.| | 9.9.@.@.@.@.@.@.@.@.( ( ( ( ( ( ( ( @.@.%.%.9.9.-.-.V V -.-.| | 9.9.@.@.@.@.@.@.@.@.( ( ( ( ( ( ( ( @.@.%.%.9.9.-.-.V V ",
"| | @.@.....| | | | | | @.@.@.@.( ( | | | | | | %.%.*.*.( ( V V | | @.@.....| | | | | | @.@.@.@.( ( | | | | | | %.%.*.*.( ( V V ",
"| | @.@.....| | | | | | @.@.@.@.( ( | | | | | | %.%.*.*.( ( V V | | @.@.....| | | | | | @.@.@.@.( ( | | | | | | %.%.*.*.( ( V V ",
"U E U F F F G E E E E E E E E E E E E E E E E E U F F F F F F F F F F F F F F F G E E E E E E E E E E E E U F F F F F G E E E E ",
"d.d.d.1.F I 0.d.d.d.d.d.d.d.d.d.d.d.d.d.d.d.d.d.d.1.F F F F F F F F F F F F F I 0.d.d.d.d.d.d.d.d.d.d.d.d.d.1.F F F I 0.d.d.d.d.",
"[ U ' D.0.z.C.L I I C C U U U U U U U U U U U U ..L.p.o.#.#.#.#.| | ] ] ] ] ( h.D.I C C U U U U U U U U U [ G.r.@.@.m.K.T T T T ",
"1   1 D.j.D.C.                                  2 L.m.o.#.#.#.#.| | ] ] ] O.2.C.D.                        1 G.x.s.@.K.K.        ",
"2   4 U.j.D.C.                                  2 L.F.2.9.9.q.q.@.@.>.>.O.D.C.C.I.                        2 L.L.L.B.T.T.        ",
"o   4 U.j.D.C.          j L T T T T T T T T T T ..L.b.2.9.9.q.q.@.@.>.>.2.D.b < 3     % L L T T T T T -   o 2 2 ..L.T.T.        ",
"    1 G.x.G.D.          T L.L.L.L.L.G.G.G.G.G.G.P.V.| | ] ] _ _ ] ] | | w.G.k         : L.L.L.L.L.L.G.1         R P.G.G.        ",
"    1 G.x.G.D.          T L.5.5.5.5.:.:.:.:.:.:.2.%.| | ] ] _ _ ] ] | | w.G.k         : L.M.5.5.5.M.G.1         R P.G.G.        ",
"    > d.,.d.d.          D d.,.,.,.,.,. .Q F F F F F F F F F F F F F F F [ d.h         > d.,.F F F ,.d.>         D d.d.d.        ",
"    > d.,.d.d.          D d.d.d.d.d.d.d.d.Q F F F F F F F F F F F F F F [ d.h         > d.,.F F F ,.d.>         D d.d.d.        ",
"    1 D.x.G.G.          = 1 1 1 1 1 2 s K.s.#.#.#.#.| | ] ] V V q.q.] ] w.G.k         2 G.x.| | | x.L.2         T L.G.G.        ",
"    1 D.x.G.G.                        2 K.m.#.#.#.#.| | ] ] V V q.q.] ] w.G.k         2 G.x.| | | x.L.2         T L.G.G.        ",
"    4 U.M.L.L.          - 2 1 1 2 2 2 s T.m.| | q.q.@.@.>.>.V V >.>.>.>.s.L.l         2 L.M.| | @.M.L.2         ^ R.L.L.        ",
"    4 U.M.L.L.          T L.G.G.L.L.L.L.T.s.| | q.q.@.@.>.>.V V >.>.>.>.s.L.l         2 L.M.| | @.M.L.2         ^ R.L.L.        ",
"    5 R.x.G.G.          U G.x.x.x.x.N.j.,.| ] ] _ _ ] ] | | V V ] ] q.q.w.G.k         3 G.x.| | | x.P.3         P A.D.D.        ",
"    5 R.x.G.G.          U G.:.| | | %.%.| | ] ] _ _ ] ] | | V V ] ] q.q.w.G.k         3 G.x.| | | x.P.3         P A.z.D.U U w   ",
"    > d.,.d.d.          D d.E F F F F F F F F F F F F F F F F F F F F F [ d.h         > d.,.F F F ,.d.>         D d.E 0.d.d.h   ",
"    > d.,.d.d.          D d.E F F F F F F F F F F F F F F F F F F F F F [ d.h         > d.,.F F F ,.d.>         D d.E G [ d.h   ",
"    2 L.x.G.D.          J N.8.8.8.8.2.2.8.8.8.8.y.>.#.#.| | ] ] ] ] @.@.w.G.k         : N.a.8.8.8.j.C.<         T L.7.#.=.G.D.D.",
"    2 L.x.G.D.          J N.D.D.D.D.C.C.D.D.D.D.L.L.>.#.| | ] ] ] ] @.@.w.G.k         : N.N.D.D.D.D.C.<         T L.7.#.| =.z.D.",
"    2 L.M.L.U.          r k c c j j j j j j j j N R.M.q.@.@.>.>.@.@.@.@.5.L.W x l     O k k c c j j j @   @ j j p.R.p.q.@.@.>.l.",
"    2 L.M.L.U.                                  5 R.K.q.@.@.>.>.@.@.@.@.%.S.U.U.L.                        < C.C.R.J.q.q.@.@.>.9.",
"    2 L.j.D.G.                                  1 D.g._ ] ] | | | | @.@.] { :.G.G.                        < G.x.%.] _ _ ] ] | | ",
"G.G.L.L.0.z.G.G.G.G.t.t.C.C.L.L.K.K.D.D.C.C.G.G.D.D.5._ ] ] | | | | @.@.] ] | c.G.G.t.t.C.C.L.L.K.K.D.D.C.C.G.r.] ] _ _ ] ] | | ",
"d.d.1.} F I 1.d.d.d.d.d.d.d.d.d.d.d.d.d.d.d.d.d.1.} F F F F F F F F F F F F F I 1.d.d.d.d.d.d.d.d.d.d.d.d.1.} F F F F F F F F F ",
"F F F F F F F F F F F F F F F F F F F F F F F F F F F F F F F F F F F F F F F F F F F F F F F F F F F F F F F F F F F F F F F F ",
"| | +.+.} } @.@.| | | | ] ] ] ] ] ] ( ( ] ] ] ] @.@.@.@.( ( V V | | +.+.} } @.@.| | | | ] ] ] ] ] ] ( ( ] ] ] ] @.@.@.@.( ( V V ",
"| | +.+.} } @.@.| | | | ] ] ] ] ] ] ( ( ] ] ] ] @.@.@.@.( ( V V | | +.+.} } @.@.| | | | ] ] ] ] ] ] ( ( ] ] ] ] @.@.@.@.( ( V V ",
"-.-.| | 9.9.@.@.@.@.@.@.@.@.( ( ( ( ( ( ( ( @.@.%.%.9.9.-.-.V V -.-.| | 9.9.@.@.@.@.@.@.@.@.( ( ( ( ( ( ( ( @.@.%.%.9.9.-.-.V V ",
"-.-.| | 9.9.@.@.@.@.@.@.@.@.` ( ( ( ( ( ( ( *.@.%.%.9.9.-.-.V V -.-.| | 9.9.@.@.@.@.@.@.@.@.( ( ( ( ( ( ( ( @.@.-.%.9.9.-.-.V V ",
"| | @.@.....| | | | | | <.B.L.B.@.( | | %.c.G.n.k.%.*.*.( ( V V | | @.@.....| | | | | | @.@.@.@.( ( | | | | ,.c.P.V.2.*.( ( V V ",
"| | @.@.....| | | | | O.H.L.x.L.C.@.| | c.G.g.G.P.k.*.*.( ( V V | | @.@.....| | | | | | @.@.@.@.( ( | | | ,.G.G.c.P.K.<.( ( V V ",
"E G F P ~ K G E ~ ~ ~ ~ d.M   y d. .~ K d.,.  & d.4.F F F K ~ E G F P ~ K F P ~ ~ ~ E G K ~ P F G E ~ K F  .d.y   M d.~ ~ ~ ~ E ",
"d.0.;.d.d.d.0.d.d.d.d.d.d.M   y d.d.d.t.d.,.  & d.d.;.F I t.d.d.0.;.d.d.d.;.d.d.d.d.d.0.d.d.d.;.0.d.d.t.I [ d.h & D d.d.d.d.d.d.",
"U G.D.,.C d.C.L C C m m ,.Z   0 Z Z Z G.G.Z   = S 5.K.*.B.L.S T G.G.,.C d.D.-.B C C C t.g.Z ,.G.G.U Z G.c.,.G.,.S x.2.A S S S T ",
"= G.D.i   C j @ i i 6   p Z   1 p p # p G.p   # s S K.5.L.x.  - G.G.i   C C < 8 i i O f Z   p G.G.=   g.G.u.G.p   S a   q s s $ ",
"- L.U.d   C *   n.I.m   u B   s L.L.-   x.x.  - L.L.I.8.R.C.  ; L.L.d   C i   B I.n.  % B   s L.L.-   x.L.h.L.s   S g   H R.C.  ",
"- L.U.d   C *   n.I.m   u B   s L.L.-   x.x.  - L.L.T.p.R.C.  ; L.L.d   C i   B I.n.  % B   s L.L.-   x.L.h.L.s   S g   H R.C.  ",
"X = = # k g.I = = = %   s S   s L.L.=   g.G.k X - l G.w.z.D.V X = = #   Z ,.9 = = = % C x.l $ - - o Z G.c.u.G.p   D p   C D.a.  ",
"d.d.g.g.G.G.D.D.g.g.m   s L.x.L.L.L.G.g.G.G.G.g.c.P.G.=.O.V.A.a.d.d.p   Z G.D.d.g.g.t.t.L.L.x.x.x.x.G.A.%.,.G.G.c.P.G.g.D.V.A.a.",
"d.d.d.d.&.E d.D M M h + h d.d.1.Q X.4.d.1.Y =.d.d.&.Y F F ~ d.M M M 7 & D d.&.d.d.d.4.X.Y &.d.d.d.d.=.K F F Q 1.d.1.1.d.1.I 1.d.",
"J J J J F [ d.h y y y M d.d.Y F F F F J F F F J J F F F F  .d.y y y y [ d.0.G J J J F F F F J J J J F F F F F F J F F J F F F J ",
"q.q.] ] | =.G.G.G.G.L.L.A.=.| | | | @.@.o.o.#.#.#.#.| | ] -.t.t.R.R.D.D.z...| | | | @.@.| | | | | | @.@.o.o.#.#.#.#.| | ] ] / $.",
"q.q.] ] | | =.w.u.u.h.q.O.| | | | | @.@.o.o.#.#.#.#.| | O.D.t.t.R.R.r.-.| | | | | | @.@.| | | | | | @.@.o.o.#.#.#.#.| | ] c.t.t.",
">.>.>.>.@.@.@.@.@.@.@.@.@.@.| | @.@.@.@.2.2.| | q.q.@.@.f.U.l : d U.v.>.@.@.@.@.@.@.@.@.@.@.| | @.@.@.@.2.2.| | q.q.@.@.e.U.P : ",
"l.l.l.l.s.2.%.5.s.s.s.s.s.s.=.| 2.s.s.2.2.r.6.w.h.r.@.@.l.U.f   4 U.Z.l.s.2.@.2.s.s.s.s.s.5...=.s.s.2.@.5.a.w.6.s.q.@.@.i.U.C   ",
"D.D.R.R.G.G.N.G.G.G.P.P.G.G.G.z.G.G.P.P.=.G.D.D.A.n.{ ] w.G.f   1 D.R.R.G.G.z.G.G.G.P.P.G.G.N.G.G.G.P.M.N.G.D.D.A...] { N.G.C   ",
"k k v v k G.G.U k k l l k k ,.G.,.k l P.c.G.n k P A.*.] w.G.f   1 D.R.v k ,.G.G.k k l l k U G.G.k k 6.P.G.U k n A.5.] *.G.U w   ",
"> > > &   D d.h   . > > >   h ,.D     d.d.d.>   h d.[ F [ d.h   > ,.D   > Y ,.D   > > > . e [ d.    D d.d.h   > d.,.F ) d.z &   ",
"D D D h     d.h   > d.d.d.    D D     d.d.d.>   h d.[ F [ d.h   & h   > d.d.D     D D D &   h d.    D d.d.h   > d.,.F I d.d.D   ",
"# 1 2 -     D.k   1 t.t.N.    I I     C.D.D.1   l L.s.#.w.G.k   X =   T G.G.I     1 : : , , n D.    L C.D.k   1 L.M.#.#.:.G.I   ",
"k D.L.T     D.k   1 t.t.N.    I I     C.D.D.1   l L.s.#.w.G.k   1 I     G.G.I     D.t.t.N.N.D.D.    L C.D.k   1 L.M.#.#.:.G.I   ",
"            U.x   2 t.t.F.    ! C.C.            v R.M.q.s.L.x   2 L.L.    T U.U.          k Y.Y.C.<           < R.K.q.q.%.S.U.W ",
"L.L.L.L.L.L.U.U.L.L.t.&.F.F.Y.Y.b.C.C.C.C.C.<   v R.M.q.2.L.U.U.L.L.L.L.L.L.J.U.L.L.t.t.F.F.Y.F.C.C.C.C.C.j   < R.K.q.q.@.<.J.U.",
"G.G.L.L.D.D.c.c.G.c./ G h.C.L.B.p.K.D.D.C.C.1   k D.4._ ] %.c.G.c.r.B.L.D.z.%.c.G.G.t.t.C.h.3.9.K.K.D.D.C.j   1 D.j._ _ ] ] %.c.",
"| | @.@.] ] | | | | V V ( ( #.#.m.K.1 1 < < X t ,.D.O._ ] ] | | | | @.@.] ] | | | | V V ( ( #.h.K.a 1 1 < @ = [ D.0._ _ ] ] | | ",
"F F F F F F F F F F F F F F F F } d.D D D D D [ d.;.F F F F F F F F F F F F F F F F F F F F F Q d.Y D D D D Y d.1.F F F F F F F ",
"F F F F F F F F F F F F F F F F G 0.d.d.d.d.d.d.;.F F F F F F F F F F F F F F F F F F F F F F F 1.d.d.d.d.d.d.1.F F F F F F F F "
};
