/* XPM */
static char *result[] = {
/* columns rows colors chars-per-pixel */
"64 64 199 2 ",
"   c #010101",
".  c #0C0201",
"X  c #0E0906",
"o  c #0A090A",
"O  c #100201",
"+  c #140A07",
"@  c #150D09",
"#  c #190D0A",
"$  c #1D120C",
"%  c #1D1B1C",
"&  c #22150E",
"*  c #271810",
"=  c #2C1B12",
"-  c #321E14",
";  c #3B1814",
":  c #2F2015",
">  c #352116",
",  c #392317",
"<  c #3C261C",
"1  c #232324",
"2  c #2C2C2C",
"3  c #372923",
"4  c #343434",
"5  c #3B3B3B",
"6  c #50240C",
"7  c #44251B",
"8  c #432A1C",
"9  c #4A2E1F",
"0  c #532912",
"q  c #562618",
"w  c #59331B",
"e  c #60371F",
"r  c #4F2F20",
"t  c #4C3326",
"y  c #543423",
"u  c #5C3726",
"i  c #5D3926",
"p  c #473B37",
"a  c #553B34",
"s  c #6A3327",
"d  c #633B24",
"f  c #633E29",
"g  c #6B3B2E",
"h  c #6C3C33",
"j  c #53462D",
"k  c #47413C",
"l  c #5C463A",
"z  c #65432D",
"x  c #6C432C",
"c  c #71462F",
"v  c #7C482A",
"b  c #654633",
"n  c #654C3B",
"m  c #754532",
"M  c #754A31",
"N  c #7B4D34",
"B  c #734139",
"V  c #7D4D39",
"C  c #6E523D",
"Z  c #7D5035",
"A  c #7B563B",
"S  c #444444",
"D  c #4B4846",
"F  c #594B4A",
"G  c #5E5349",
"H  c #555555",
"J  c #5A5755",
"K  c #5C5C5C",
"L  c #635246",
"P  c #755847",
"I  c #655754",
"U  c #605F5F",
"Y  c #7A614B",
"T  c #64615D",
"R  c #6C635C",
"E  c #7A6354",
"W  c #7D675A",
"Q  c #5B5E60",
"!  c #5F6263",
"~  c #626363",
"^  c #656769",
"/  c #6C6C6C",
"(  c #786D66",
")  c #78716B",
"_  c #626F76",
"`  c #6B6E71",
"'  c #6A7074",
"]  c #747474",
"[  c #767779",
"{  c #7D7D7D",
"}  c #81291E",
"|  c #82332C",
" . c #87392F",
".. c #893A30",
"X. c #953B33",
"o. c #CF0001",
"O. c #DC090F",
"+. c #E10003",
"@. c #EF0005",
"#. c #EF050D",
"$. c #F90207",
"%. c #8A4634",
"&. c #814E35",
"*. c #804F38",
"=. c #994637",
"-. c #835236",
";. c #855338",
":. c #8B563A",
">. c #855D3C",
",. c #8D5A3B",
"<. c #9E5934",
"1. c #945C3E",
"2. c #995E3F",
"3. c #8D623D",
"4. c #94623C",
"5. c #9D6B3E",
"6. c #9D703F",
"7. c #A26D3F",
"8. c #A86F3E",
"9. c #875B44",
"0. c #995E40",
"q. c #84674E",
"w. c #8B644A",
"e. c #966241",
"r. c #9A6241",
"t. c #9D6C43",
"y. c #9E6F4B",
"u. c #967345",
"i. c #9A7144",
"p. c #95724D",
"a. c #9B714C",
"s. c #846B5A",
"d. c #946F50",
"f. c #967152",
"g. c #997354",
"h. c #A46544",
"j. c #A86746",
"k. c #A36D42",
"l. c #A96A44",
"z. c #AD6B48",
"x. c #B16D4A",
"c. c #A37045",
"v. c #B9734D",
"b. c #826364",
"n. c #876E63",
"m. c #827468",
"M. c #947965",
"N. c #C27851",
"B. c #D67A7F",
"V. c #80807F",
"C. c #9D887A",
"Z. c #A6876E",
"A. c #A78973",
"S. c #7E7F80",
"D. c #E57F84",
"F. c #7E8183",
"G. c #7F878B",
"H. c #828283",
"J. c #848789",
"K. c #8B8B8B",
"L. c #9E9387",
"P. c #939394",
"I. c #9B9B9C",
"U. c #9F9FA0",
"Y. c #9BA8A9",
"T. c #97ABBC",
"R. c #A4A4A4",
"E. c #AEAEAE",
"W. c #AFAFB0",
"Q. c #B5B5B6",
"!. c #B7B7B8",
"~. c #B2B9BB",
"^. c #BBBBBC",
"/. c #E88086",
"(. c #F38287",
"). c #D19DA0",
"_. c #DBA4A8",
"`. c #E3A7AB",
"'. c #E4A8AB",
"]. c #EDAFB4",
"[. c #8BADC4",
"{. c #BFBFC0",
"}. c #BBC0C1",
"|. c #C3C3C4",
" X c #C1C6C8",
".X c #C1C8CB",
"XX c #CACACC",
"oX c #CAD0D2",
"OX c #CAD5DA",
"+X c #D2D6D7",
"@X c #D5DFE2",
"#X c #CDE9E9",
"$X c #DDE0E1",
"%X c #DDFFFF",
"&X c #E3E5E6",
"*X c #E9ECEE",
"=X c #EDF1F4",
"-X c #E2FFFF",
";X c #ECFFFF",
/* pixels */
"|.|.|.|.|.|.|.XX|.+     o       .           .                                                             2 ^.^.|.|.|.|.^.{.E.R.",
"|.{. X|.|.|.|.|.{.. @ 3 3 3 3 3 3 < 3 < 3 3 3 < 3 =                                                       1 !.!.|.|.|.|.^.^.R.E.",
"XXXX|.|.oXXX|.|.|.. 8 f.f.y.c.y.c.g.g.c.c.c.a.A 9.z $ $ @ . X . . X . X . X . X $ $ $ $ $ $ $ $ X X .     % R.J.E.^.XXXXXXXXE.R.",
"|.|.|.|.XXoX|.|. XO < g.k.8.8.l.8.8.k.k.j.l.k.X   $ 9.0.f & = - : - : = : : & r 1.;.-.;.-.;.:.-., = *           ~ !.|.XX|. XR.E.",
"|.|. XXX|.|.|.|.}.. < p.a.k.7.t.t.k.k.t.k.i.k..   $ -.:.y X $ $ $ $ $ $ $ $ + > ;.N N N N N N N = & &           K E.!.{.!.^.R.E.",
"_.|. X X|.|.|.|.|.. < f.y.c.7.-.m m B m m m m , = 9 :.,.m y u u u u u u i i y z :.;.-.;.-.;.;.;.9 9 , + @ X     4 / K R.Q.!.R.R.",
"~.W.W.E.E.E.E.E.E.. < p.t.7.5.V B m V V V V V ,.,.1.4.2.r.j.j.j.j.j.j.j.j.j.j.j.2.2.0.0.0.0.0.0.x x f > < &           [ R.R.E.E.",
"T.W.E.E.E.E.E.E.E.. < a.t.7.5.-.V e.t.k.k.k.7.Z N -.0.2.2.2.2.2.2.1.2.2.1.2.2.2.2.2.2.2.2.2.0.1.z u y - - $           ) I.R.R.E.",
"|.|.|.^.{.{.^.{.{.. 7 y.t.7.5.-.N 4.7.7.7.7.7.N N Z -.-.-.-.-.-.-.-.-.;.-.-.;.-.-.-.-.-.;.1.1.1.N M z = - $           2 5 S !.^.",
"|.|.^.^.{.|.^.^.^.. < u.t.7.7.-.Z 1.7.7.7.7.7.-.N Z N M N N N N N N N N M N N N N N N Z M :.0.1.-.:.c = - $               o E.!.",
"|.|.XXXX{.{.}.}.XX. < u.5.k.7.*.;.1.7.7.7.7.7.N N N N V N N N N N N N Z V N N N N N Z N N :.2.2.N -.c = > $               o E.Q.",
"|.|.XXXX{.{.}.}.XX. < u.6.7.k.;.V 1.7.7.7.7.7.1.1.1.1.,.1.1.1.1.1.,.1.,.,.1.,.1.1.,.1.,.1.1.1.1.V -.c = - $               o U.R.",
"|.|.|.{.}.}.}.}.}.. < u.6.7.5.;.V 4.k.7.7.7.5.k.h.h.h.h.j.h.j.r.1.1.h.j.h.h.j.h.h.h.j.h.j.1.1.1.-.-.c & - #               o J.P.",
"|.^.}.|._.|.}.}.|.. < u.6.k.k.*.V 4.t.7.7.7.7.-.-.-.-.-.-.-.Z :.2.1.-.-.-.-.-.-.-.-.-.-.-.1.2.1.N -.c > , &               o H.K.",
"W.W.E.E.E.E.E.E.E.. 7 i.7.k.7.&.N r.k.7.7.7.k.X               i z.0.$                     z j.1.-.Z M z c ,               o ] m.",
"W.W.W.E.Q.E.E.E.E.O < u.5.k.k.&.&.4.5.k.7.7.5..               d z.0.@                     x j.1.N N c i x <               o ] F.",
"XXoX}.}.}.}.|.|.|.. < i.i.7.l.;.V 4.7.7.7.7.7.> > &     @ > & x j.2.8 * *     X - - = - * m h.1.;.:.&.x M 8     @ : * o     / [ ",
"+XXX}._..X|.|.|.}.. < u.6.k.k.*.V 1.7.7.7.7.7.k.v.-.    9 N.z.0.1.1.j.x.0..   - v.j.j.j.z.0.:.1.4.4.1.&.,.w     9 k.0.$   o / ] ",
"XXXX|.XX|.|.|. X|.. < u.6.7.k.*.V 1.5.7.7.7.7.1.j.m     8 z.1.1.1.1.1.h.;.    = j.2.1.2.2.1.1.1.1.1.1.N :.t     9 ,.;.$   o / [ ",
"XXXXXXXX|.XX X|.|.. < u.6.7.k.*.V 4.7.7.7.7.5.1.r.-.9 7 x h.1.1.1.1.1.r.,.r 7 f 0.1.1.1.1.1.0.1.1.1.1.N :.y X . y :.;.$   X / [ ",
"{.{.XX+X|.|.|.|.|.. < i.7.k.k.&.N e.k.k.7.7.7.1.1.2.z.x.h.,.0.1.1.1.1.1.0.z.x.j.1.1.1.1.1.1.1.1.1.2.,.N -.f * * i :.-.$     / ] ",
"{.|.XXXX|.|.|.{.|.O 7 i.7.k.k.*.V 4.7.7.7.7.7.2.1.1.2.1.0.1.1.1.1.1.1.1.1.1.1.1.0.2.0.1.1.1.2.1.1.2.1.N ;.u $ # y :.-.$   o / [ ",
"E.E.E.W.E.E.E.E.E.O < u.6.7.k.;.V 1.7.7.7.7.5.1.2.1.:.;.:.0.0.1.1.0.1.0.0.1.1.1.;.;.:.0.1.1.2.1.1.1.1.,.1.V f z M Z ;.$   o ] [ ",
"E.E.E.E.E.E.E.E.E.. < u.6.k.k.*.N 4.7.7.7.7.k.4.2.,.&.V :.r.0.r.0.0.0.0.r.0.r.1.&.&.:.0.2.1.1.1.1.2.1.2.0.1.-.-.-.-.:.$   X / [ ",
"|.{.|.|.|.|.{.{.{.O < u.6.7.l.Z V 4.7.7.7.7.7.1.4.1.&.-.:.1.1.,.1.1.,.,.1.,.,.:.-.&.,.2.1.1.1.1.1.1.1.1.2.:.N N Z M Z $     [ H.",
"{.{.|.XX|.|.{.{.{.. < u.6.k.k.;.V 1.7.7.7.7.7.;.;.:.1.j.y   . & 7 - @ . X X   > h.2.,.-.-.,.2.1.1.1.2.1.2.,.M ,.<   X     o [ H.",
"|.|.|.XX|.|.XXXX|.. < i.6.7.k.&.N r.7.7.7.7.7.-.V :.j.N.i     @ & $ .         - v.z.1.V &.,.2.1.1.2.2.1.2.:.M 1.>         o V.K.",
"|.XX|.|.|.|.XXXX|.. < i.k.k.k.&.V 4.5.7.7.7.7.-.-.-.M :.9 . + = 7 < # + + # . - -.N N ;.-.1.2.1.1.1.1.2.4.:.N ,.>         o { J.",
"|.|.|.|.|.{.|.{.|.O < i.i.7.k.*.V 1.7.7.7.7.7.-.1.x     ; =... . . .........=.s     8 0.&.1.0.1.1.1.1.1.0.:.V 1.>           [ J.",
"{.|.XX|.{.{.|.|.|.. < u.6.7.k.&.N 4.7.7.7.7.7.;.1.z     ; X.| | | | | | | | X.q     8 0.&.:.0.1.1.2.1.1.0.:.N ,.>         o [ H.",
"E.E.W.W.E.W.E.W.E.. < u.6.7.k.&.m r.k.7.5.6.6.-.;.c , > s =.%.%.%.%.%.%.%.%.=.g > - i :.&.1.2.1.1.2.2.1.0.:.M ,.>     1 2 2 ] [ ",
"E.E.W.W.E.E.W.E.E.. < u.6.k.l.V m k.a.a.a.a.7.Z M ;.x.x.h.4.e.e.r.e.r.e.r.r.0.0.x.x.0.m M :.0.1.1.1.1.1.4.:.N 1.>     F / / ] { ",
"|.|.|.|.|.{. X.X|.. < u.5.k.k.V m e.A.Y.Y.C.7.N N &.2.1.1.1.2.2.0.0.1.1.1.1.2.1.1.0.;.N N :.2.1.1.1.1.1.2.,.N 1.>     K ` ] ] [ ",
"|.|.|.|.{.|. XoX|.. < i.6.8.7.&.m t.P.[.[.P.5.&.N &.2.1.1.1.2.,.;.;.1.2.1.1.1.1.2.0.:.N N :.2.1.1.2.1.1.2.,.m 1.k D 5 / ] [ ] H.",
"XX|.{.|.XXoXOX}.|.. < i.6.k.k.-.&.1.C.T.T.L.5.N M *.2.1.1.2.4.;.m M ,.2.1.1.1.2.2.0.;.N N :.2.1.1.1.2.1.2.,.M -.E ] ] { S.J.m.K.",
"XXXX|.{.+XXX}.}.|.O 8 i.6.7.l.&.N 5.g.M.M.g.7.N N -.2.1.2.1.4.-.M V 1.4.2.1.2.1.2.4.;.c N :.2.1.1.2.1.1.4.,.M N s.] { S.J.P.J.P.",
"{.|.|.|.|.|.}._.|.. < u.6.7.l.*.m 4.8.8.8.8.7.4.4.:.Z -.-.Z -.Z N N -.;.-.-.Z -.-.Z ;.1.,.1.2.1.1.0.1.V &.P ^ R / [ m.J.J.P.K.P.",
"|.{.XX|.|.|.|.|.|.. < u.6.7.k.*.*.1.5.8.7.7.7.5.4.>.Z M M Z Z Z Z Z N Z V N N N N N ,.h.0.2.2.2.0.0.0.v v P _ ^ ` S.J.K.P.I.P.I.",
"E.E.E.E.W.W.E.E.E.. < u.i.7.k.*.V 4.7.7.c.7.k.5.4.3.Z Z Z N N M M N M M Z M N N V c ;.1.1.,.,.1.1.1.:.V v P ' / ` / [ H.K.I.R.R.",
"E.E.E.E.W.E.W.E.E.. < i.7.k.k.&.m e.7.7.k.7.7.5.5.3.3.A M e z z z z f d z f f f f d f d g f f f f d b ^ ~ ) H.{ H.H.S.H.P.I.R.E.",
"|.|.}.}.}.|.}.}.}.o 3 u.i.k.k.&.&.4.7.7.7.7.7.7.5.4.3.>.M i i e e e e d w 0 6 9 j j w 6 0 0 0 q e w f / ^ ] H.S.m.J.J.P.R.W.~.{.",
"{.|.}._.}.}.^.}._.. < u.6.7.k.Z V 1.7.7.7.7.7.7.5.5.4.3.Z z z z b b n b n s.n.9.} } ;.( s.E E E n g L / ^ ] H.S.S.S.m.K.I.U.~.{.",
"|.|.XXXX{.{.^.^.XX. < u.6.k.k.;.V 4.7.7.7.7.7.7.7.5.5.4.3.3.A R ' / ` ! { =X;X].+.+./.;X;X@XOXOX[ ~ / ^ ~ ] H.S.S.S.S.S.S.S.!.{.",
"XX|.XXXX{.{.^.}. X. < u.6.7.l.;.V 1.7.7.7.7.7.7.7.5.5.5.4.3.>.R ^ ^ ^ K ] $X-X_.o.o.D.-X$XoXoX.X] ~ ^ ~ U ] K.H.F.S.S.S.S.H.W.!.",
"{.{.|.|.|.{.{.{.{.. < u.6.k.k.&.V 4.7.7.7.7.7.7.7.7.7.7.w.Y Y ( [ ] / T ] $X-X`.+.+.B.%X&XoXoX}.] U / ] ] ] ] / [ H.S.S.S.S.I.U.",
"{.{.{.|.{.|.{.{.|.. < u.7.k.k.&.N e.k.k.7.7.7.7.7.7.7.6.q.! K [ J.H./ K [ $X-X'.#.@./.%X&XoX}.|.] Q ` H.K.[ H J ) H.S.S.S.S.K.I.",
"E.E.W.W.E.E.E.E.E.O 8 i.6.7.k.-.N 4.k.7.7.7.7.7.7.7.7.6.q.! U ] H.V./ K ] $X-X`.#.@./.%X&XoX.X.X] U / S.H.] K K ] H.S.S.S.S.m.K.",
"E.E.W.W.W.E.E.E.E.O < i.6.k.k.&.V 1.7.7.7.8.7.7.7.8.7.6.q.T U ] H.H./ U [ $X-X`.#.@./.%X&XoX.X|.] T / S.H.] K U ] H.S.S.S.S.[ S.",
"XXXX|.{.{.|.|.{.|.O < u.6.k.k.*.V 4.5.7.7.7.7.7.8.7.7.7.q.T ! ] H.H./ Q ] $X-X`.#.@.D.%X&XoX.X X] ~ / S.J.] Q K ] H.S.F.S.S.] [ ",
"+XXX{.{.|.|.{.|.|.O < u.6.7.k.*.V 1.7.7.7.7.7.7.7.7.7.7.q.T K ] H.F./ ! ] $X-X`.#.@.D.%X&XoX.X.X/ ~ / S.S.S.Q Q ] H.S.S.S.S./ [ ",
"XXXXXXXXXX|.|.|.|.O < u.6.k.k.*.V 4.7.7.7.7.7.7.7.7.8.7.3.M M ( J.S.m.[ J.&X-X`.#.@./.%X&XoX}..X] U / S.H.m.S.S./ ~ ^ 9.0.0./ [ ",
"|.XXXXXX|.|.XX|.|.. < u.6.k.k.*.V 1.k.7.7.7.7.7.7.7.7.7.4.&.v n.G.{ V.[ K.*X;X].$.$.(.;X=X+XOXoX] U ^ H.S.S.S.J./ J Q 9.<.2./ ] ",
"{.{.XXXX|.|.|.|.|.. < i.7.7.l.&.v t.k.7.7.7.7.7.7.7.7.7.4.Z v W G.{ S.[ K.oX#X).O.O.B.#XoX}.~.~.] T / H.S.S.J.J.] ~ ^ 9.0.9./ [ ",
"{.{.+XXX|.|.|.|.|.. 7 u.6.k.k.-.N 1.t.7.k.7.7.7.7.7.7.7.5.5.3.n.F.H.V.H.[ U T U ^ ~ ! ! U U T ! { H.S.S.m.S.m.S.S.H.H./ ` ] ] [ ",
"E.E.E.W.E.E.E.E.E.. 7 u.6.k.k.&.&.4.7.7.7.7.7.8.7.7.7.7.7.5.3.m.J.m.H.J.V.U K ! ! ! ! U U ! ! ! m.J.F.F.J.J.H.F.H.m.S.` / ` ] m.",
"E.E.E.E.E.E.E.E.E.. < u.6.k.k.-.V 4.7.7.7.8.7.7.7.7.7.7.5.5.4.s.) m.] ] ] ~ ~ ! ! U U U U U U K [ S.[ ] [ [ [ ] [ S.[ / / ` S.J.",
"}.}.|.|.|.|.|.}._.o < u.6.c.k.-.V 1.5.7.7.7.7.7.7.7.7.7.5.5.4.3.w.A K K K ~ ~ T J K K H K H K J U U Q U U U U U ` ] ] [ [ S.K.P.",
"}._.XX|.|.|.^.}.}.  < u.6.5.k.V V 4.k.7.7.7.k.7.7.7.7.7.7.7.t.4.3.>.T ~ T ~ ~ ! H K H K K K K K U ~ U ~ U U U ~ ^ ] [ { S.K.P.U.",
"}.oX|.XX|.|.XXXX.X. < u.5.7.7.-.N r.k.k.6.7.8.7.7.7.7.7.7.5.5.5.4.3.T T ~ ~ ~ T H K G G F J J G U ~ ~ ~ ~ ~ ~ ~ ` [ S.H.K.P.R.W.",
".X.X|.XX|.|.XXoXXX. < u.6.k.8.&.&.4.5.t.7.7.7.7.8.7.k.7.7.7.5.5.5.4.T ~ ~ ~ ~ ! K J G n l p 8 l T ~ ~ U ~ ~ ~ ~ / [ H.P.P.U.E.!.",
"|.|. X X}.}.}..X|.O < u.i.7.8.*.*.1.k.k.k.k.7.k.k.7.7.7.k.k.7.t.5.4.R ~ ~ ^ ~ ~ Q U G n n a t n T ^ ~ ^ ^ ^ ^ ~ / [ S.K.I.U.W.!.",
"}.|.XX|._.|.}.}.|.. < d.i.k.j.*.V e.k.c.c.k.k.c.c.c.k.c.c.k.k.k.i.t.F S S S D S 4 4 a L L l a C D S S S S S S S Q S.H.P.I.E.Q.^.",
"E.W.E.E.W.E.E.E.E.O 7 d.t.8.k.V h h g g g g g g g g g g g g g g g g 5 5 5 5 5 4 1 2 3 a a a a A p 5 5 5 5 5 5 5 J ] F.K.I.U.R.E.",
"W.E.E.E.E.W.E.E.E.+ 3 C.A.Z.A.n.b.b.b.b.b.b.b.b.b.b.b.b.b.b.b.b.b.b.D 5 5 k 5 5 2 4 5 F F G I n.D 5 5 p 5 5 5 5 H ] m.K.P.R.R.W."
};
