/* XPM */
static char *result[] = {
/* columns rows colors chars-per-pixel */
"64 64 202 2 ",
"   c #000001",
".  c #0B0101",
"X  c #0E0906",
"o  c #0C0A0C",
"O  c #100201",
"+  c #140A07",
"@  c #150D09",
"#  c #190D0A",
"$  c #1D120C",
"%  c #1A1414",
"&  c #1B1B1C",
"*  c #24150E",
"=  c #2A140F",
"-  c #2C1B12",
";  c #291915",
":  c #321E14",
">  c #361A18",
",  c #2F2015",
"<  c #352116",
"1  c #3A2417",
"2  c #38261B",
"3  c #3C261C",
"4  c #033738",
"5  c #272323",
"6  c #2B2B2B",
"7  c #352721",
"8  c #3D2620",
"9  c #353535",
"0  c #383736",
"q  c #3B3B3A",
"w  c #50240C",
"e  c #45261D",
"r  c #432A1C",
"t  c #4A2E1F",
"y  c #532912",
"u  c #562618",
"i  c #52331A",
"p  c #5E341C",
"a  c #452D26",
"s  c #4E3121",
"d  c #4B3829",
"f  c #543423",
"g  c #5C3726",
"h  c #5C3926",
"j  c #4B3835",
"k  c #483A37",
"l  c #503934",
"z  c #6A3327",
"x  c #613A24",
"c  c #633E29",
"v  c #32443C",
"b  c #394138",
"n  c #53462D",
"m  c #41453E",
"M  c #5C4332",
"N  c #67402B",
"B  c #6C432C",
"V  c #70462F",
"C  c #7B482A",
"Z  c #634534",
"A  c #654B3B",
"S  c #724730",
"D  c #754B33",
"F  c #7A4D33",
"G  c #7D5035",
"H  c #7D5138",
"J  c #004343",
"K  c #004949",
"L  c #0E4E4F",
"P  c #1B4546",
"I  c #184746",
"U  c #144C4C",
"Y  c #194B4C",
"T  c #134F51",
"R  c #025556",
"E  c #0B5253",
"W  c #035758",
"Q  c #0C5658",
"!  c #005A5B",
"~  c #0C5B5C",
"^  c #125253",
"/  c #284949",
"(  c #2B5454",
")  c #375657",
"_  c #005F60",
"`  c #016364",
"'  c #006769",
"]  c #006869",
"[  c #454545",
"{  c #464B43",
"}  c #4D4B4B",
"|  c #504643",
" . c #534947",
".. c #524D4D",
"X. c #56504F",
"o. c #495A5B",
"O. c #575556",
"+. c #575758",
"@. c #5C5C5C",
"#. c #755847",
"$. c #605E5E",
"%. c #68635F",
"&. c #7B6456",
"*. c #5B5E60",
"=. c #5E6364",
"-. c #506F71",
";. c #626363",
":. c #656769",
">. c #6B6C6C",
",. c #7E6D64",
"<. c #626F76",
"1. c #6A6E71",
"2. c #6E7072",
"3. c #737474",
"4. c #76797B",
"5. c #7E7E7E",
"6. c #81291E",
"7. c #82332C",
"8. c #87392F",
"9. c #893A30",
"0. c #953B33",
"q. c #CF0001",
"w. c #DC090F",
"e. c #E10003",
"r. c #EF0005",
"t. c #EF050D",
"y. c #F90207",
"u. c #8A4634",
"i. c #814F33",
"p. c #994637",
"a. c #825136",
"s. c #8C5233",
"d. c #865338",
"f. c #8B563A",
"g. c #8D593C",
"h. c #9E5934",
"j. c #945C3E",
"k. c #995E3F",
"l. c #96623C",
"z. c #9C713F",
"x. c #A36D3F",
"c. c #A86E3C",
"v. c #824D40",
"b. c #8B5B41",
"n. c #845D48",
"m. c #995E40",
"M. c #886148",
"N. c #956645",
"B. c #9B6141",
"V. c #9D6F44",
"C. c #9C6F48",
"Z. c #967345",
"A. c #9C7044",
"S. c #96714B",
"D. c #9A704A",
"F. c #83695A",
"G. c #957151",
"H. c #957154",
"J. c #A46544",
"K. c #A86746",
"L. c #A46D41",
"P. c #A96846",
"I. c #AD6B48",
"U. c #B16D4A",
"Y. c #A17041",
"T. c #A27048",
"R. c #B5704B",
"E. c #BB734E",
"W. c #847263",
"Q. c #C27851",
"!. c #D67A7F",
"~. c #80807F",
"^. c #E57F84",
"/. c #7E8183",
"(. c #7F878B",
"). c #828282",
"_. c #848789",
"`. c #8A8A8A",
"'. c #B2B9BB",
"]. c #E88086",
"[. c #F38287",
"{. c #D19DA0",
"}. c #DBA4A8",
"|. c #E3A7AB",
" X c #E4A8AB",
".X c #EDAFB4",
"XX c #BBC0C1",
"oX c #C0C6C8",
"OX c #C1C8CB",
"+X c #CCCECF",
"@X c #CAD0D2",
"#X c #CAD5DA",
"$X c #D2D6D7",
"%X c #CDE9E9",
"&X c #DDE0E1",
"*X c #DDFFFF",
"=X c #E3E5E6",
"-X c #E9ECEE",
";X c #EDF1F4",
":X c #E2FFFF",
">X c #ECFFFF",
",X c #F1FBFC",
/* pixels */
"! ! _ _ ! ! ` _ ! o     o   o       .   .     .     o       o                                             X     o       J R J J ",
"! ! _ _ ! ! ! ` ! . @ 7 7 2 7 7 8 3 7 7 7 8 2 2 8 7 2 7 3 3 2 7 @                                                       J R J J ",
"` ` ! ! ' ' _ _ ` . 3 G.C.L.c.K.L.L.L.L.P.P.L.I.c.I.L.L.L.l.G l.:       . X $ $ $ $ $ $ $ $ X   . X X X . X X . X + * $ 4 R 4 J ",
"` ` ! ! ' ' _ ` ! . e G.T.c.c.c.L.L.L.c.L.L.L.L.c.L.L.L.x.h           ; , 1 a.f.d.d.d.a.d.g.t = , - < - < - , < $ M j.g.*     J ",
"! ! _ _ ! ! ! ! ! . 3 H.D.L.V.g.n.n.n.n.n.n.n.n.n.n.M.n.n.d           * * - F F F F F F F a.3 + $ $ * $ $ $ $ $ X f f.a.$     J ",
"! ! _ ` _ ! ! ! ! . 3 H.C.L.T.3 X . . . . . . . . . .           X @ + 3 r s d.f.a.f.a.f.d.f.N f h h g g g g g g f S g.f.t - 2 J ",
"K K K K K K K K K . 2 S.A.K.L.r     . . .                       * 3 < c B B m.B.m.m.m.m.m.k.J.J.J.J.K.J.J.K.J.K.K.B.m.m.j.g.f.K ",
"K K K K K K K K K . 2 C.V.L.L.1     o     o o   o               $ < - f x c j.j.j.k.k.k.k.k.k.k.l.m.k.k.k.k.k.k.k.m.l.B.G G D K ",
"! ! ! ! ! ! W R ! . r C.V.x.V.1                                 $ - - N F D j.k.g.i.d.d.a.a.d.a.d.a.d.d.d.d.d.d.d.d.a.a.i.F F U ",
"! ! ! ! ! ! R W ! . 3 Z.V.x.L.1                                 $ < - S d.d.j.m.f.F D F F F F F F D F D F D F F F F F D F F F Y ",
"! ` ` ` W ! R R ` O 3 Z.z.x.Y.3                                 $ : - S a.F j.k.f.F F F F F F F F F F F F F F F F F F F F F D ^ ",
"! ` ` ` R ! R R ` . 3 Z.z.x.x.3                                 $ < - S a.i.j.k.j.g.j.j.j.j.j.j.j.j.j.j.g.j.g.j.j.g.j.j.j.j.b.Y ",
"! ! ! ! ! ! ! ! ! . 2 Z.z.x.Y.3                                 @ - * V a.G j.j.m.K.J.J.J.J.J.J.J.J.J.J.m.j.m.J.J.J.J.J.J.J.B.P ",
"! ! ! ! ! ! ! ! ! . 2 Z.z.x.x.3                                 * 1 < S a.G k.k.j.i.a.d.a.a.a.a.a.a.a.a.j.m.j.i.a.d.d.d.d.d.H P ",
"K K K K K K K K K . r Z.z.x.x.2                                 3 B N D G G j.P.c                     # l.I.h                 K ",
"K K K K K K K K K O 3 Z.z.x.x.3                                 r B h C F F j.L.B                     @ B.I.h                 K ",
"] ] ! ! ! ! ! ! ! . 3 D.C.x.Y.3                     X ; - @     r F B i.d.d.j.J.F * - : : < X     - - 3 k.J.V * < #     * < - J ",
"] ] ! ! ! ! ! ! ! . 3 H.C.L.x.1                     $ l.J.s     s j.F j.m.m.j.j.k.P.P.P.J.E.:     k.E.J.k.g.m.P.Q.t     a.E.J.J ",
"` ` ` ` ` _ ` _ _ . 2 S.C.L.A.3                     $ a.j.t     s g.F j.k.j.j.j.j.j.j.j.j.P.-     d.J.j.j.k.j.k.I.r     F J.b.J ",
"` ` ` ` ! _ _ _ _ . 2 S.A.L.Y.3                     $ d.f.s X   f f.F g.k.j.j.j.j.j.k.j.j.B.c r f g.l.j.j.j.j.j.J.B r r d.B.g.J ",
"! ! ] ] ! ! ! ! ! . 3 S.V.x.Y.1                     $ d.d.h - = c d.F j.k.j.j.k.k.j.j.j.j.j.J.U.I.k.j.j.j.j.j.j.j.J.U.I.B.j.g.J ",
"! ! ] ] ! ! ! ! ! O e S.V.c.Y.3                     $ a.g.p @ # h d.F g.k.j.j.j.j.j.j.m.m.m.j.j.j.j.j.j.j.j.j.k.j.j.m.j.j.j.g.J ",
"K K K K K K K K K O 3 S.V.x.Y.3                     $ a.G S N M G j.g.j.k.j.k.j.j.j.k.g.d.d.j.j.j.k.j.j.j.k.j.k.j.g.f.f.g.m.b.K ",
"K K K K K K K K K . 2 S.C.x.Y.1                     $ g.a.d.d.a.j.m.j.m.j.j.j.j.j.k.k.f.i.F j.B.k.m.m.J.k.m.k.m.J.f.F F j.B.g.K ",
"! ! ! ` ! ! ! ! ! . 2 H.C.z.L.3                     $ G G F F F f.j.j.j.k.j.j.j.m.j.m.f.i.a.f.j.g.j.j.g.j.j.j.j.g.d.a.a.j.j.g.P ",
"! ! ` ! ! ! ! ! W . 2 S.C.L.Y.3                       .   2 g.F f.k.j.j.j.j.j.k.g.d.a.g.m.J.<   X X   @ < 3 *     g K.j.f.a.H P ",
"_ _ ! ` _ _ ` ` ! . 3 S.A.L.Y.1                           < g.F g.k.j.j.j.j.j.m.g.i.F m.P.E.>         . $ = +     g Q.K.f.i.H Y ",
"_ _ ` ! _ ` ` ` ` . r S.A.c.Y.3                           < g.F f.k.j.k.j.j.j.k.g.a.d.i.F a.> . + # + # 1 r - + . s f.D a.d.H Y ",
"! ! _ _ ! ! ! ! ! . 3 S.V.c.Y.3                           < g.F f.k.k.j.k.j.j.m.g.i.m.r     p p.8.9.9.9.8.8.8.8.p.>     N j.G I ",
"! ! _ ` ! W ! ! ! . 3 S.C.L.Y.1                           < g.F f.m.j.j.j.j.j.k.g.d.m.r     u p.7.7.7.7.7.7.7.7.0.>     N j.d.P ",
"K K K K K K K K K O 3 H.C.x.V.3                           < j.F f.m.j.j.j.j.j.k.b.i.g.h > < z p.u.u.u.u.u.u.u.u.p.z , 2 S d.H K ",
"K K K K K K K K K . 2 D.C.x.x.3                           < g.F f.k.j.k.j.j.j.k.g.D S m.R.I.B.m.l.N.B.B.N.B.B.l.l.J.U.U.d.D D K ",
"! ! _ _ ! ! _ _ ! . 2 S.A.x.x.3                           < g.F g.k.j.k.j.j.j.k.g.F F d.k.k.j.j.j.j.j.k.l.k.k.j.k.j.j.k.a.F D J ",
"! ! _ ` ! ! _ _ ! O 3 S.A.x.x.3                           - g.D f.k.j.j.j.j.j.k.f.F F d.k.j.j.k.k.j.j.j.d.a.f.k.j.j.j.j.a.F F J ",
"` ` ! ! ] ] _ _ ` . 3 S.A.x.x.3                           < a.F g.k.k.j.j.j.k.k.f.F D f.k.j.j.j.j.j.k.g.D S a.k.j.j.k.k.H F D J ",
"` ` ! ! ' ] _ _ ! O 3 S.A.x.x.3                           3 C F g.k.k.j.j.j.j.k.f.F D f.k.k.k.j.k.j.k.j.F F f.k.k.j.j.k.H F F J ",
"! ! _ _ ! ! ! ! ! . 3 H.C.x.Y.3                           6 ;.>.H i.G j.k.k.j.j.j.g.j.f.G a.a.a.i.a.a.a.F G a.a.a.G a.a.m / I 4 ",
"! ! _ _ _ ! ! _ ! . 3 S.S.L.Y.3                           6 >.<.#.C F j.m.k.m.m.k.k.B.f.D G F F F F F F F G F G G F F F v P J J ",
"K K K K K K K K K . 7 D.A.L.Y.1                       o   0 >.<.#.F H f.j.j.g.j.j.j.j.d.D F F F F F F F F F F F F F D G I K K K ",
"K K K K K K K K K . 2 D.A.c.Y.3                     & ~.5.5.5./.2.:.:.N z c c c c c N x N x c c c c c c c c c c h v K K K K K K ",
"! ! ! ! W ! R W ! O 3 A.V.x.Y.3                     & ~.~.5._._.3.:.>.c p p y y y w w i M n y w y p p p x p p N h b P P Y Y U ^ ",
"! ! ! ! ! W W R W O 3 S.V.x.Y.1                 5 % 0 5.5.~.W.).2.:.>.A Z A &.&.&.F.W.v.6.z b.W.&.A A A A A M f h v P Y Y Y ^ ^ ",
"` _ ` ` ! W R W ` . 3 H.C.x.A.3                 4.~.5.5.~.5.5.~.2.:.:.>.=.4.#X$X&X;X>X].e.e..X,X;X5.=.1.1.2.o.P I P Y Y ^ ^ ~ ~ ",
"_ _ ` ` ! ! R R ` . 3 S.C.x.x.3                 4.5.).5.5._._.`.2.;.:.:.%.3.oXOX@X=X*X^.q.q.}.:X&X4.$.>.;.:.o.P P Y Y ^ ^ ~ ~ ` ",
"! ! ! ! ! ! ! ! ! . 2 H.C.L.Y.1                 4.W._./.W.4.2.2.3.3.3.2.$.3.oXOX@X&X*X^.e.e.|.:X&X3.=.>.3.4.;.) o.( I U T E E R ",
"W ! ! ! ! ! ! W ! . 2 D.V.c.Y.3                 4.~././.`.2.O.O.3.`.~.2.$.3.oXOX#X=X*X].y.t. X*X&X3.@.>.).`.4.@.%.) L L E E R W ",
"K K K K K K K K K O 3 Z.V.x.Y.3                 4.5.~.5._.3.@.$.3.).~.>.$.3.oXOX@X=X*X^.r.t.|.:X&X4.@.>./.).3.$.$.( K K K K K K ",
"K K K K K K K K K O 3 Z.V.x.Y.3                 4.~.5.~._.3.@.$.3.).~.2.$.3.oXoX@X=X*X^.r.t.|.:X&X3.$.>.~.).3.*.$.( K K K K K K ",
"' ] ! ! ! ! ! ! ! . 3 D.C.x.Y.3                 4.(.(./._.2.$.@.3._.~.>.*.3.oXOX+X=X:X^.r.t.|.:X&X3.@.>.~.).3.*.=.) U L E W J J ",
"] ] ! W ! ! ! ! ! . 3 H.C.L.x.3                 4.W.5.5._.3.$.@.3._.~.>.$.3.oXOX@X=X*X^.r.t.|.:X&X3.=.>./.).3.%.;.) U T E E J J ",
"` ` ` ` _ _ ! ` ` . 3 H.A.x.Y.3                 b.m.M.:.;.1.W.5.W.(.~.>.$.3.oXoX@X=X:X^.r.t. X:X&X`.3.5.5._.,.F H { T ^ Q ~ J J ",
"` ` ` ` ` ! ` _ _ . 2 S.A.x.x.3                 f.h.b.*.*.<.`.~././.~.>.@.3.@X#X$X;X>X[.y.y..X>X-X`.4.~.5.(.,.C F m Y T Q ~ J J ",
"! ! ' ' ! ! ! _ ! . 3 S.A.z.L.3                 F s.G :.=.2._.5.~.~.5.2.;.3.'.'.XX@X%X!.w.w.{.%X+X`.4.~.~.(.&.B F m I U E Q J J ",
"! ! ' ' ! ! ! ! ! . r S.A.L.x.3                     & /.(.W.~.5.5.~.5.~.(.(.=.@.;.%.$.=.=.=.=.=.%.5.).~.~./.=.Y P P U U L R J J ",
"K K K K K K K K K O 8 S.V.L.A.3                     & /._./._.).).)._.).`.W.;.;.;.*.$.=.:.=.$.*.@.5._.).~.W.-.K J K K K K K K K ",
"K K K K K K K K K . 2 S.C.c.Y.1                     % O.} ;.3.3.3.3.3.3.4.3.@.@.@.%.@.=.$.$.;.;.%.3.3.3.@.2.) R K K K K K K K K ",
"! ! _ _ ! ! W ! ! . 2 H.C.L.V.3                           6 @.@.%.*.$.*.$.*.@.+.@.+.+.+.+.+.*.;.;.$.$.+.$ } P P Y U ^ ^ Q W W W ",
"W ! _ _ ! ! ! ! W . 2 S.C.c.L.1                           6 ;.;.;.;.*.;.;.$.@.+.+.+.@.@.$.+.%.;.;.$.;.$.= } P I U T ^ Q Q W W ! ",
"_ _ _ _ _ _ ` ` _ . 3 S.A.x.Y.3                           6 ;.;.;.;.;.;.;.*.6 k | | | ..+.$.$.;.;.;.;.$.= } I I ^ ~ ~ ~ ~ ! ` ` ",
"_ _ _ _ _ _ ` ' _ . e S.A.x.x.3                           6 ;.:.;.;.%.;.;.+.. a j j j  .+.+.$.;.;.;.$.$.* } I U ~ ~ ` ` _ _ ` ` ",
"! ! ` _ ! W ! ! ! . 1 Z.A.x.Y.3                           6 :.:.:.;.:.:.;.@.. a j j j  .*.@.;.:.;.:.;.%.= ..U U E E E W W W ! ! ",
"! ! _ _ W ! ! ! ! O 3 G.A.x.L.3                           & [ [ [ [ [ [ [ m o 8 j l l k 0 9 m [ [ [ [ [ * X.U E E W W W ! ! ! ! ",
"K K K K K K K K K O a G.A.x.L.1 o   o     o o   o         & q q q q q 9 q 9   ; 8 e a 8 6 5 9 q q q q k = ..K K K K K K K K K K ",
"K K K K K K K K K + 7 H.G.D.D.2 o       o     o   o       & q 0 q q q q q 9 . % 5 > > 5 6 6 0 m q q q [ * X.K K K K K K K K K K "
};
