/* XPM */
static char *result[] = {
/* columns rows colors chars-per-pixel */
"64 64 177 2 ",
"   c #000000",
".  c #0A0504",
"X  c #0E0906",
"o  c #0A0A0A",
"O  c #120706",
"+  c #130A07",
"@  c #150D09",
"#  c #190D0A",
"$  c #1D120C",
"%  c #22150E",
"&  c #271810",
"*  c #2C1B12",
"=  c #321E14",
"-  c #3B1814",
";  c #352116",
":  c #392317",
">  c #322118",
",  c #3C2519",
"<  c gray15",
"1  c #2D2D2D",
"2  c #363636",
"3  c #3A3A3A",
"4  c #50240C",
"5  c #44251B",
"6  c #432A1C",
"7  c #4A2E1F",
"8  c #532912",
"9  c #52331A",
"0  c #5E341C",
"q  c #60371F",
"w  c #4E3121",
"e  c #543423",
"r  c #5B3525",
"t  c #5D3926",
"y  c #5F3B28",
"u  c #612922",
"i  c #613A24",
"p  c #633E29",
"a  c #733C2C",
"s  c #53462D",
"d  c #53443C",
"f  c #66412D",
"g  c #6C432C",
"h  c #7E4525",
"j  c #70462F",
"k  c #794A2F",
"l  c #634635",
"z  c #654B3B",
"x  c #724730",
"c  c #754A31",
"v  c #7A4D33",
"b  c #7E5036",
"n  c #7B5038",
"m  c #434343",
"M  c #474748",
"N  c #4C4C4C",
"B  c #575757",
"V  c #575758",
"C  c #5C5C5C",
"Z  c #654E41",
"A  c #69574D",
"S  c #755847",
"D  c #605F5F",
"F  c #6C635D",
"G  c #7C6354",
"H  c #75645B",
"J  c #7E695E",
"K  c #5B5E60",
"L  c #5F6263",
"P  c #636363",
"I  c #696766",
"U  c #636669",
"Y  c #68696A",
"T  c #6C6C6C",
"R  c #7E6D63",
"E  c #71706F",
"W  c #626F76",
"Q  c #6C6E71",
"!  c #6A7074",
"~  c #737374",
"^  c #797674",
"/  c #777778",
"(  c #76797C",
")  c #7D7D7D",
"_  c #81291E",
"`  c #82332C",
"'  c #88392F",
"]  c #893A30",
"[  c #953B33",
"{  c #CF0001",
"}  c #DF0000",
"|  c #DB0E16",
" . c #E10000",
".. c #EF0005",
"X. c #EF050D",
"o. c #FE0003",
"O. c #F4040B",
"+. c #8A4634",
"@. c #814F33",
"#. c #994637",
"$. c #825136",
"%. c #855338",
"&. c #8B563A",
"*. c #8E593B",
"=. c #9E5934",
"-. c #945C3E",
";. c #995E3F",
":. c #824D40",
">. c #82584A",
",. c #925D40",
"<. c #995E40",
"1. c #8C624B",
"2. c #956140",
"3. c #9B6141",
"4. c #96654C",
"5. c #83695A",
"6. c #9B6D56",
"7. c #A46544",
"8. c #A86746",
"9. c #A96846",
"0. c #A46848",
"q. c #AD6B48",
"w. c #B16D4A",
"e. c #B5704B",
"r. c #BB734E",
"t. c #867265",
"y. c #937C6F",
"u. c #C27851",
"i. c #D67A7F",
"p. c #80807F",
"a. c #7F7F80",
"s. c #E57F84",
"d. c #7E8183",
"f. c #7F878B",
"g. c #828283",
"h. c #848789",
"j. c #878888",
"k. c #8A8A8B",
"l. c #939394",
"z. c #9A9797",
"x. c #9C9C9C",
"c. c #9F9FA0",
"v. c #A4A4A4",
"b. c #A7A7A9",
"n. c #AEAEAE",
"m. c #AFAFB0",
"M. c #B3B3B4",
"N. c #B7B7B8",
"B. c #B2B9BB",
"V. c #BCBCBD",
"C. c #E88086",
"Z. c #F38287",
"A. c #D19DA0",
"S. c #DBA4A8",
"D. c #E3A7AB",
"F. c #E4A8AB",
"G. c #E9AFB5",
"H. c #F0AEB2",
"J. c #BFBFC0",
"K. c #BBC0C1",
"L. c #C3C3C4",
"P. c #C2C6C8",
"I. c #C1C8CB",
"U. c #CACACC",
"Y. c #CAD0D2",
"T. c #CAD5DA",
"R. c #D2D6D7",
"E. c #D5DFE2",
"W. c #CDE9E9",
"Q. c #DDE0E1",
"!. c #DDFFFF",
"~. c #E3E5E6",
"^. c #E9ECEE",
"/. c #EDF1F4",
"(. c #E2FFFF",
"). c #ECFFFF",
"_. c #F1FBFC",
/* pixels */
"L.L.L.L.L.J.L.L.L.L.L.J.J.J.J.J.J.J.V.V.J.J.J.J.L.L.U.L.V.V.b.b.N   o o o o o o o o o o o o o o o o o o o o o o o o o   l.V.b.b.",
"L.J.P.L.J.L.L.L.L.L.L.L.J.J.J.J.J.J.V.J.J.J.J.L.L.L.L.L.V.V.b.n.M                                                       k.M.v.b.",
"P.U.L.J.Y.Y.L.L.L.U.L.U.P.I.S.K.V.V.V.V.V.V.L.L.U.L.R.U.P.M.) z.3     . . X $ $ $ $ $ # $ $ + . . . . . . . . . . @ $ $ ~ x.) v.",
"U.U.J.L.U.U.U.L.L.L.L.L.P.K.K.K.V.V.V.V.V.V.L.P.L.U.U.Y.U.E           * * : %.&.%.%.%.%.%.*.7 & = = = = = = = = % y -.*.$   X z.",
"S.K.P.U.L.L.L.J.J.L.J.L.P.U.L.L.V.V.L.J.L.J.L.J.U.L.U.P.V.I           % % * v v v v v v v %.: + $ $ $ % $ $ % $ X e &.$.$   . l.",
"K.K.I.K.L.L.L.L.L.J.L.L.L.L.U.L.J.J.J.L.J.L.J.L.U.L.M.I / 3     X @ + , 7 7 %.&.%.%.%.%.%.*.f e t t t t t r t r e x *.*.7 * , k.",
"B.m.m.n.n.n.n.m.n.n.n.n.n.m.n.m.m.n.m.n.m.n.m.n.n.n.k.          % : ; p g g <.<.;.;.;.;.;.;.7.8.7.7.8.7.7.8.8.7.8.3.-.;.-.*.1.g.",
"M.m.m.m.n.n.n.m.n.n.M.n.m.n.m.m.n.m.n.m.n.m.n.n.n.n.k..         $ ; * e y p -.<.;.;.;.;.;.;.;.;.;.;.;.;.;.;.;.;.;.;.2.3.$.v b ) ",
"L.J.J.J.J.J.V.V.J.J.n.b.J.L.J.L.J.L.J.L.J.L.J.L.N M 2           $ = * g v c -.;.-.$.%.%.%.%.%.%.%.%.%.%.%.%.%.%.%.%.%.%.b v b g.",
"J.L.J.V.J.J.V.V.J.J.b.b.L.J.L.J.L.J.L.J.L.J.L.J.o               $ = * x %.$.-.;.&.c c v c v v c v c v c v c v v k v c v v v n g.",
"L.L.U.U.J.J.V.V.U.U.b.n.V.V.L.L.U.L.I.I.L.L.L.L.o               $ = * g $.b -.;.*.v v v v v v v v v v v v v v v v v v v v v n g.",
"U.L.U.U.J.J.V.V.U.L.b.b.V.V.U.L.L.L.U.Y.U.L.U.L.o               $ ; * x $.@.-.;.-.*.-.-.*.-.-.-.-.-.-.*.-.-.*.-.-.-.-.*.-.-.,.) ",
"J.J.L.L.L.J.J.J.J.L.b.b.L.L.L.U.L.U.S.K.L.J.L.J.o               $ * & g %.b -.-.;.7.7.7.7.7.7.7.7.7.7.7.-.-.3.7.7.7.7.7.7.7.3./ ",
"J.J.L.J.L.L.J.J.L.L.b.n.L.U.L.L.P.P.K.K.J.L.J.J.o               % : = j $.$.-.;.-.$.%.%.@.%.%.%.$.$.$.%.-.;.-.@.$.%.%.%.$.%.%./ ",
"n.n.n.n.n.n.M.n.n.n.n.n.n.n.n.n.m.m.n.n.n.m.m.n.o               , j p v v b -.9.f                     @ <.q.t               o E ",
"n.n.n.n.n.n.n.n.n.n.n.M.n.n.M.n.n.n.n.M.n.n.m.n.o               , g y c v v -.9.f                     # <.q.y               . E ",
"R.U.J.J.J.J.L.J.L.J.L.U.L.L.L.J.L.J.L.U.L.L.L.L.o   . * * @     6 v p v %.%.-.7.c % = * = ; X     * * , ;.7.j % = #     % ; > T ",
"R.U.J.V.J.L.J.L.J.L.L.L.L.J.J.L.J.L.L.L.L.L.U.L.o   $ <.7.w     w -.$.-.<.;.-.-.3.9.9.9.8.r.=     ;.r.7.-.-.<.9.u.7     %.r.0.T ",
"U.L.U.U.L.L.L.U.L.U.L.L.L.L.L.L.L.L.U.U.U.U.J.J.o   $ %.*.7     w *.v -.;.-.-.-.-.-.-.-.-.7.*     %.7.-.-.;.;.-.q.5     x 8.,.T ",
"U.U.U.U.L.U.L.L.L.U.L.L.L.L.L.L.L.L.L.L.U.U.J.J.o   $ %.*.w . . e &.v -.;.-.;.-.;.-.-.-.-.7.p 5 w *.3.-.-.-.-.-.7.g 6 7 %.3.<.T ",
"J.V.U.U.L.L.L.J.L.J.L.U.J.L.J.L.J.L.L.L.L.J.J.V.o   $ %.&.i * * p %.v -.;.-.-.-.-.-.-.;.-.-.7.w.q.-.-.-.;.-.-.-.-.7.w.q.3.-.-.T ",
"J.V.R.R.L.J.J.L.L.L.U.L.L.J.L.L.L.L.U.U.L.L.J.V.o   $ $.&.9 # # t %.v *.;.;.-.-.-.-.-.-.;.;.-.-.-.-.-.-.-.-.-.;.-.,.<.<.-.-.,.T ",
"n.n.n.M.n.n.n.n.n.n.n.n.n.n.n.n.n.n.n.n.n.n.n.n.o   $ %.b c f s @.-.*.-.-.-.-.-.-.-.<.-.%.&.-.<.-.;.-.;.-.;.-.;.-.*.&.%.*.<.,.E ",
"n.n.n.n.n.M.n.n.n.n.M.n.n.n.n.n.n.n.n.n.n.n.n.n.o   $ &.$.%.%.$.-.3.-.,.-.;.-.-.-.-.;.&.v v -.<.3.3.<.3.;.<.;.<.7.*.v v -.<.,.E ",
"J.J.U.L.J.L.J.J.J.J.n.v.V.V.V.J.J.J.V.V.J.J.J.V.$   $ $.v b b v &.;.-.;.-.-.-.;.-.-.-.*.@.$.*.-.*.-.*.-.-.,.*.*.-.%.@.%.-.,.,./ ",
"J.J.U.L.J.J.J.J.J.J.n.v.V.V.V.J.J.J.V.J.J.J.J.V.+     X   , *.c &.;.-.-.-.-.-.;.-.%.%.&.-.7.:   . . . @ = , & .   e 8.-.%.%.&./ ",
"U.L.L.L.L.U.U.U.L.L.n.v.J.J.U.U.V.V.V.V.V.V.V.N.o         ; *.c *.;.-.-.-.-.-.<.-.v v <.q.r.=         . % % +     i u.8.%.v %.a.",
"L.L.L.U.L.L.U.U.L.U.v.n.J.J.U.U.V.V.V.V.V.V.V.V.o         ; ,.v &.;.-.-.;.-.-.-.-.@.%.v c %.= . # # O # , 5 - O . 7 %.v %.$.%.a.",
"J.J.L.L.J.J.J.L.L.J.n.v.J.V.U.L.L.L.J.J.V.V.L.V.o         : ,.v *.;.-.-.-.-.-.<.*.@.<.6     u #.' ' ' ] ] ] ] ] #.-     p ,.%.( ",
"L.L.L.U.J.J.L.L.J.L.v.n.V.V.L.U.L.L.J.L.V.V.L.J.o         ; *.v *.<.;.-.-.-.-.<.-.%.3.6     u [ ` ` ` ` ` ` a ` [ -     p <.%.) ",
"n.n.n.M.n.M.n.n.n.n.M.n.n.n.M.n.n.n.n.n.n.n.n.n.N m 1     ; ,.c &.;.-.-.-.-.-.<.*.v *.t = > a #.+.+.+.+.+.+.+.+.#.i = : x %.$.E ",
"n.n.n.n.n.n.n.n.n.n.n.n.n.n.n.n.n.n.n.M.n.n.n.n.b.c.~     ; ,.v *.;.;.-.-.-.-.;.&.v c -.e.q.3.2.2.3.2.3.3.2.3.2.<.7.w.w.%.c n Q ",
"J.L.L.L.J.L.U.L.L.J.L.J.J.J.J.J.J.J.V.V.J.J.J.V.K.M.h.    ; *.c &.;.;.-.-.;.-.;.*.v c &.;.-.;.-.-.;.-.-.;.;.;.-.-.-.-.;.$.v b T ",
"L.L.L.L.L.J.L.L.J.L.J.L.J.J.J.J.J.J.V.V.J.J.J.J.J.N.c.C P d *.b *.;.-.-.-.-.-.;.*.c v %.;.-.-.-.-.-.;.-.%.%.&.;.-.-.-.-.$.v n T ",
"U.U.L.L.U.U.U.L.L.L.L.U.L.L.V.V.V.V.V.V.V.V.L.L.J.V.B.n.x.t.$.c &.;.-.-.-.-.-.;.*.v k &.;.-.-.-.-.-.;.-.v j $.;.-.-.-.;.$.c b T ",
"L.U.J.L.R.U.L.L.L.U.L.U.L.L.V.J.V.V.V.V.V.V.P.L.L.J.K.S.b.p.v c *.;.-.-.-.-.-.;.*.v c %.<.;.;.-.-.-.-.-.v v %.;.;.-.;.;.$.v n T ",
"J.J.U.L.L.L.L.L.L.L.J.L.L.U.L.U.J.V.J.L.L.J.L.L.L.L.J.N.b.g.F I S @.@.-.;.;.-.-.-.-.-.&.b $.$.$.$.$.$.$.k b b $.b $.$.$.H T F E ",
"J.L.U.L.L.L.L.J.J.L.L.J.L.L.L.L.V.V.L.J.L.L.J.J.L.L.L.J.n.j.Y W S h c -.<.<.<.<.;.;.3.&.c v v v v v b v b b b v b c b c F E Y E ",
"n.n.n.n.n.n.n.M.n.n.n.n.M.n.n.n.n.M.n.n.n.m.n.n.n.n.n.b.b.k.I ! S v n *.-.-.-.*.-.-.-.%.c v v v v v v v k k b c k n n n F Y E / ",
"n.n.n.n.n.n.n.n.n.n.n.n.n.n.n.n.n.n.n.n.m.n.m.n.n.n.v.p.g.g.) g.E I Y f i p p p p p p p p p p p p p p p f p y f s A I I T E ~ ) ",
"L.L.J.J.J.J.V.V.J.J.b.b.L.J.J.L.L.L.L.L.L.J.L.J.P.U.M.d.a.a.p.g.E Y Y p 0 0 8 8 8 4 4 e s s 9 4 8 0 i 0 q q t p i A E ~ ( g.j.l.",
"L.J.J.V.J.J.V.V.J.J.n.b.J.L.L.L.L.J.L.L.J.L.J.L.M.M.v.y.a.a.) g.E I Y Z l z G G G 5.t.:._ _ >.t.5.z l z z z l l f H ^ / g.j.l.c.",
"L.L.U.U.J.J.V.V.U.L.b.b.V.V.L.L.L.L.L.L.L.L.L.L.g.p.g.) a.d.) g.E I Y Q U / T.T.E._.).s. . .G._./.( L Q T ! T ~ ~ ^ ) g.k.z.v.n.",
"U.L.U.U.J.J.V.V.U.U.b.n.V.V.L.U.L.L.U.L.L.U.L.L.g.p.) ) ( d.h.j.E L P Y P ~ I.I.Y.Q.!.s.{ { S.(.Q./ K Y I P T ~ ~ / g.k.x.v.m.N.",
"J.J.L.L.J.L.J.J.L.L.b.b.L.U.U.L.L.L.J.L.L.L.L.J.g.g.) g.g./ E ~ ~ ~ ~ T P ~ I.I.Y.~.!.s.} } D.(.Q.~ K T ^ / T T T ( j.k.x.c.b.M.",
"J.J.J.J.L.J.J.J.L.L.b.b.L.L.L.L.L.L.L.L.L.L.L.J.g.) p.) g.E B V ~ k.g.E C ~ I.I.Y.~.!.s.O.X.F.(.Q./ C T g.k./ C P ^ k.z.c.b.m.N.",
"n.n.n.M.n.M.n.n.n.n.n.n.n.M.n.n.M.n.n.n.n.n.n.n.g.) ) p.g.~ C C ~ g.a.T P ~ P.I.Y.~.!.s...X.F.(.Q./ C T p.g.~ K P E g.k.z.c.b.b.",
"n.n.n.n.n.n.n.n.n.M.n.n.n.n.n.n.M.n.n.M.n.n.n.n.g.) g.) g.~ C D ~ h.a.T D E K.I.Y.~.!.s...X.F.(.Q.^ K T g.g.~ K P T h.l.z.v.b.m.",
"U.U.L.L.L.J.L.L.J.L.U.L.L.L.J.L.L.L.L.U.L.L.L.L.j.p.p.p.g.~ C C ^ g.p.T P ~ K.I.Y.~.!.C...X.D.(.Q./ C T p.g./ K P / k.x.v.n.v.v.",
"R.U.J.J.J.L.J.L.L.J.L.L.L.J.L.J.L.L.L.L.L.L.L.L.p.p.) p.g.~ C C ~ g.g.T K ~ I.I.Y.~.!.s...X.D.(.Q.~ C T d.g.~ K F ~ k.l.v.n.v.v.",
"U.U.U.U.L.L.L.U.L.L.L.L.L.L.J.L.L.L.L.U.U.U.L.V.4.2.1.U P ~ p.) ) d.p.T F E I.I.Y.~.!.s...X.F.(.Q.k.~ ) d.h.R c n R j.z.v.M.c.v.",
"U.U.U.U.U.L.L.L.L.U.L.U.U.L.L.J.U.L.L.L.U.U.L.J.2.=.*.K V T g.g.g.) d.T C ! Y.Y.R./.).Z.o.o.H.).^.k./ p.) h.J h v J g.k.v.m.c.v.",
"V.V.R.U.L.L.L.L.J.L.L.L.L.J.L.J.L.J.L.L.J.L.J.V.6.3.1.I P E h.) ) p.p.E P ~ B.B.K.Y.W.i.| | A.W.Y.j./ p.p.f.J c n H ) k.z.b.c.v.",
"J.J.U.U.L.J.L.L.L.L.U.U.J.L.J.L.L.L.L.U.L.J.J.V.M.m.z.d.d.d.) ) p.) d.) g.) P C F L K L L L L L F ) g.) p.d.^ E E / p.k.x.b.c.v.",
"n.n.n.M.n.n.n.n.n.n.n.n.n.n.n.n.m.n.m.n.n.n.m.n.b.v.l.d.) p.g.g.g.h.g.g.j.p.P P L L F L L L D K K ) j.p.) ) ( I T E / g.k.x.v.b.",
"n.n.n.n.n.n.n.n.n.n.n.n.M.n.n.n.n.m.n.m.n.m.n.n.b.v.l.g.g.) ~ ^ ~ ~ ^ ^ / ~ C C C C L C D D L P L ~ ~ / ) / ~ T E ~ p.j.l.c.v.n.",
"J.J.U.L.J.L.J.J.J.J.n.v.V.N.J.J.J.J.V.V.J.J.J.V.J.N.M.b.z./ V C C C C C K C V V V C V V V V D P F D K K Q E ~ / p.k.l.x.b.M.N.V.",
"J.J.L.L.L.L.J.J.J.J.v.n.V.V.J.J.J.J.V.V.J.J.J.J.L.J.N.b.c.) P P P P F P L L V C V C C V V C D P L P P L E ~ ~ ) h.l.x.b.m.N.V.V.",
"L.L.L.U.L.L.U.L.L.L.n.v.J.J.U.U.V.V.V.V.V.V.V.V.U.U.L.V.n.g.P D P P P P L F Y Y I U D D C V F P L L F L E ~ ( g.l.v.n.N.K.S.P.U.",
"L.U.L.L.U.L.U.U.L.U.v.n.L.J.U.U.V.V.V.V.V.V.V.V.U.U.U.L.M.k.P U P P P P L U ~ ^ ~ ^ Y K V C K P P P P L ~ / p.k.c.n.N.K.K.J.P.U.",
"L.J.L.L.J.J.L.J.J.L.n.v.V.V.L.L.L.L.J.J.V.V.L.V.J.J.N.N.N.k.Y I P Y I P U I E ~ / / E I C C P I P P I I ~ ^ k.l.c.b.m.N.B.K.K.K.",
"L.L.U.L.J.L.J.L.L.L.v.n.V.V.U.L.L.L.J.J.V.N.L.L.J.J.J.J.N.g.m m m m m m m M ~ ~ ) ) ~ V 2 2 m M m M m N / p.k.x.b.n.N.V.K.K.L.L.",
"n.n.n.n.n.M.n.n.n.n.n.M.n.n.n.n.n.m.m.m.M.n.n.M.m.m.m.b.n.^ 3 3 3 3 3 3 3 3 Y E / ) g.V < < 2 3 3 3 3 m E ^ p.l.x.v.b.n.m.m.n.n.",
"n.n.n.n.n.n.n.n.n.n.n.n.n.M.n.n.m.m.m.m.n.n.m.n.m.m.m.m.m.) 3 m 3 m m m 3 m T ~ ) j.k.L 1 1 3 m 3 m 3 m ~ ^ j.l.c.b.n.m.m.m.m.n."
};
