/* XPM */
static char *result[] = {
/* columns rows colors chars-per-pixel */
"64 64 205 2 ",
"   c #000001",
".  c #0B0101",
"X  c #0D0805",
"o  c #0C090D",
"O  c #100201",
"+  c #140A07",
"@  c #150D09",
"#  c #190D0A",
"$  c #1D120C",
"%  c #031717",
"&  c #031D1D",
"*  c #191819",
"=  c #22150E",
"-  c #271810",
";  c #2C1B12",
":  c #321E14",
">  c #3B1A16",
",  c #331D1D",
"<  c #2F2015",
"1  c #352116",
"2  c #3A2417",
"3  c #38261B",
"4  c #3C261B",
"5  c #022626",
"6  c #102828",
"7  c #063334",
"8  c #003939",
"9  c #163434",
"0  c #282526",
"q  c #2B2B2B",
"w  c #352721",
"e  c #3A2620",
"r  c #323128",
"t  c #343434",
"y  c #3B3838",
"u  c #3B3B3B",
"i  c #50240C",
"p  c #432514",
"a  c #44251D",
"s  c #432A1C",
"d  c #4A2E1F",
"f  c #532912",
"g  c #562618",
"h  c #58331B",
"j  c #62371E",
"k  c #4E3121",
"l  c #44332F",
"z  c #543423",
"x  c #5D3926",
"c  c #5C3827",
"v  c #423534",
"b  c #493734",
"n  c #473A37",
"m  c #6A3327",
"M  c #613A24",
"N  c #633E29",
"B  c #53462D",
"V  c #48463F",
"C  c #584436",
"Z  c #67422A",
"A  c #6C432C",
"S  c #70462F",
"D  c #7B482A",
"F  c #624534",
"G  c #654A3B",
"H  c #724730",
"J  c #754A31",
"K  c #7A4D33",
"L  c #7C5037",
"P  c #004343",
"I  c #004949",
"U  c #0D4D4E",
"Y  c #174747",
"T  c #1B4545",
"R  c #1C4748",
"E  c #144B4B",
"W  c #1A4B4C",
"Q  c #184F50",
"!  c #015556",
"~  c #0B5253",
"^  c #065758",
"/  c #005A5B",
"(  c #0A5A5B",
")  c #125151",
"_  c #1B5556",
"`  c #324948",
"'  c #265B5C",
"]  c #3C5354",
"[  c #375D5D",
"{  c #005F60",
"}  c #085F60",
"|  c #016364",
" . c #006769",
".. c #006869",
"X. c #276163",
"o. c #444545",
"O. c #4D4945",
"+. c #514A49",
"@. c #55504F",
"#. c #545454",
"$. c #5B5856",
"%. c #5C5C5C",
"&. c #654E41",
"*. c #785846",
"=. c #605F5F",
"-. c #65625F",
";. c #7B6355",
":. c #5C5E60",
">. c #476868",
",. c #5F6263",
"<. c #576D6D",
"1. c #626363",
"2. c #656769",
"3. c #6B6C6C",
"4. c #7E6D64",
"5. c #71706F",
"6. c #626F76",
"7. c #6A6E71",
"8. c #677173",
"9. c #737474",
"0. c #74787B",
"q. c #7E7E7E",
"w. c #81291E",
"e. c #82332C",
"r. c #87392F",
"t. c #893A30",
"y. c #953B33",
"u. c #CF0001",
"i. c #DC090F",
"p. c #E10003",
"a. c #EF0005",
"s. c #EF050D",
"d. c #F90207",
"f. c #8A4634",
"g. c #814F33",
"h. c #994637",
"j. c #825236",
"k. c #855338",
"l. c #8B563A",
"z. c #8E593B",
"x. c #9E5934",
"c. c #945C3E",
"v. c #995E3F",
"b. c #9C713F",
"n. c #A36D3F",
"m. c #A86E3C",
"M. c #824D40",
"N. c #875C46",
"B. c #855E46",
"V. c #995E40",
"C. c #886148",
"Z. c #956645",
"A. c #9B6141",
"S. c #9D6F44",
"D. c #9C6F48",
"F. c #967345",
"G. c #9C7044",
"H. c #96714B",
"J. c #9A704A",
"K. c #83695A",
"L. c #957151",
"P. c #957154",
"I. c #A46544",
"U. c #A86746",
"Y. c #A36D41",
"T. c #A96846",
"R. c #AD6B48",
"E. c #B16D4A",
"W. c #A17041",
"Q. c #A27048",
"!. c #B5704B",
"~. c #BB734E",
"^. c #847263",
"/. c #C27851",
"(. c #80807F",
"). c #E57F84",
"_. c #7E8183",
"`. c #7F878B",
"'. c #828282",
"]. c #848789",
"[. c #8A8A8A",
"{. c #B2B9BB",
"}. c #E88086",
"|. c #D19DA0",
" X c #DBA4A8",
".X c #E3A7AB",
"XX c #E4A8AB",
"oX c #EDAFB4",
"OX c #BBC0C1",
"+X c #C0C6C8",
"@X c #C1C8CB",
"#X c #CCCECF",
"$X c #CAD0D2",
"%X c #CAD5DA",
"&X c #D2D6D7",
"*X c #D5DFE2",
"=X c #CDE9E9",
"-X c #DDE0E1",
";X c #DDFFFF",
":X c #E3E5E6",
">X c #E9ECEE",
",X c #EDF1F4",
"<X c #E2FFFF",
"1X c #ECFFFF",
"2X c #F1FBFC",
/* pixels */
"/ / { { / / { { / o     o     o   .       o     o                                                         q / / / | | / ! ! P P ",
"/ / { { / / { { / . # w w 3 3 w e 4 e e w 3 3 4 3 ;                                                       0 ! ! / / } / ! / P P ",
"| | / /  . ./ | | . 4 L.Q.Y.I.Y.Y.Y.Y.Y.U.T.m.j.z.Z $ $ @   . . . X X X X X . X $ $ $ # $ $ $ $ X X .     * ~ P ^ }  . .| | P P ",
"| | / /  . .| | / . s L.Y.m.m.Y.Y.Y.Y.Y.Y.Y.Y.X   $ N.V.N = < : 1 ; ; < ; ; = k c.k.k.k.k.k.k.k.4 ; -           7 / |  .| | P P ",
"/ / { | / / / / / . 4 P.J.Y.Y.C.C.B.B.B.B.C.C.    $ j.k.z X $ = = # $ $ $ $ @ 1 j.K K K K K K J ; = =           7 ( / / ! ! P P ",
"/ / { { / / / / / . 4 P.J.Y.Y.4 . . . . .   . 1 ; d z.z.J z x x x x x c x x z A z.k.k.k.k.k.k.k.k s 2 + @ X     & 7 7 ~ ! ! P P ",
"I I I I I I I I I . 4 H.G.I.Y.s       . o   . l.c.c.c.v.A.T.U.I.I.I.U.U.U.U.U.I.v.V.V.V.V.V.V.V.A A N 1 4 =           8 I I P I ",
"I I I I I I I I I . 4 D.S.Y.Y.4   o .     o   J K j.v.v.v.v.v.v.v.v.v.v.c.v.v.v.v.v.v.v.V.v.V.c.Z x z ; : $           8 I I I I ",
"/ / / / / / ! ! / . 4 J.S.n.Y.4 .             J K L k.k.k.j.k.k.j.j.j.k.k.k.k.k.k.k.k.j.j.z.V.c.K J A ; : $           % & 5 / / ",
"/ / / / / / ! ! / . 4 F.b.n.n.4               J K K J K K J K J K K K K K J J K J K J K J z.V.c.j.k.H ; 1 $                 ( ( ",
"{ { | | ! / ! ! | . a F.b.n.W.4               J K L K K K K K K K K K K K K K K K K L K J z.V.c.K j.S ; : $                 ( | ",
"{ { | | ! / ! ! { . 4 F.b.n.n.4               k.c.c.c.z.c.c.c.c.c.c.c.c.c.z.c.c.c.z.c.c.c.c.V.c.K k.S ; : $                 _ ( ",
"/ / / / / / / / / . 3 F.b.n.W.4 .             A.I.I.I.I.U.I.U.v.c.c.I.U.I.I.U.I.I.I.I.I.U.v.c.c.g.k.A - < $               o U U ",
"/ ! / / / / / / / . 3 F.b.b.n.4               K j.j.j.j.j.j.j.z.v.c.k.j.j.j.j.j.j.j.j.k.j.c.V.c.L j.S 1 2 =                 E E ",
"I I I I I I I I I . s F.b.n.n.3                               M R.V.@                     Z U.c.L K K N S 2                 I I ",
"I I I I I I I I I O 4 F.b.n.n.4                               x R.v.#                     A U.c.K K J x A 4                 I I ",
"..../ / / / / / / . 4 H.S.n.W.4               ; : -     @ 1 = S T.v.4 - -     + : ; : : = J I.c.k.k.j.A K s     @ ; - .     I P ",
"..../ / / / / / / . 4 P.D.Y.n.4               A.~.j.    d /.R.V.c.c.I.~.V.    : ~.U.U.U.T.V.z.V.v.v.c.K z.z     k I.Z.$     P P ",
"| | | | / | | | | . 4 L.S.Y.G.4               z.U.H     s R.c.c.c.c.c.I.k..   - U.v.c.c.V.c.c.c.c.v.c.K z.k     s z.k.$   X P P ",
"| | | | | / | / / . 4 H.S.Y.W.4 .             z.A.j.d s A I.c.c.c.c.c.A.k.k a N A.c.c.v.c.c.c.c.c.v.c.K k.z X X z z.k.$     P P ",
"/ / ..../ / / / / . 4 H.G.n.n.4               z.z.V.E.R.I.c.v.c.c.c.v.c.V.T.E.U.c.c.c.c.c.c.V.c.c.v.z.K k.N - - B k.k.$     I P ",
"/ / ..../ / / / / O s H.G.n.b.4               z.c.c.V.V.c.c.c.c.c.c.c.c.c.c.V.c.v.v.V.c.c.c.c.c.c.v.c.K j.c $ @ z l.k.$     P P ",
"I I I I I I I I I O 4 H.W.n.n.3               z.c.c.k.k.z.c.c.c.v.c.c.c.c.c.V.z.k.k.z.V.V.c.z.V.c.v.c.z.c.j.N N J j.k.$     I I ",
"I I I I I I I I I . 4 H.J.n.n.4 .             z.V.c.g.K z.I.V.v.v.A.A.A.I.V.V.V.g.K l.v.z.V.V.z.c.c.c.v.A.z.j.k.j.j.z.$     I I ",
"/ / / | / / / / / . 4 H.J.Y.G.4               z.c.c.j.j.k.c.c.c.c.c.z.z.z.z.c.l.g.g.z.V.c.c.z.V.c.v.c.c.v.k.K L K K L $     W Y ",
"! / | / / / / ! / . e H.G.n.n.4               K k.k.c.U.c     - 4 1 + X X X   1 I.c.z.k.k.z.V.V.c.c.c.c.v.z.K z.4   X       W Y ",
"{ { / | / | | | { . 4 H.G.Y.W.2             . K K z.T./.c     + = $ .         : ~.R.c.K g.z.V.z.c.c.c.v.v.z.K z.1           W E ",
"{ { { { | | | | { . 4 H.G.n.n.4               K k.g.K k.d . + ; a p # + # # . : j.K j.k.j.z.V.V.v.c.c.c.v.z.K z.1         X W ) ",
"/ / { { / / / / / . 4 J.S.n.W.4               K c.N     > h.t.r.r.r.r.r.t.t.y.m     s V.j.z.v.c.c.c.c.v.v.z.J c.1           W E ",
"/ / { { ! / / / / . 4 H.S.n.n.4 .             K c.A     > y.e.e.e.e.e.e.e.e.y.g     s A.j.z.v.c.c.c.c.c.v.z.J z.1           Y W ",
"I I I I I I I I I O 4 P.D.Y.G.4               K k.H 1 : j h.f.f.f.f.f.f.f.f.h.m 1 ; N k.L z.v.v.c.c.c.c.v.z.K z.1     % & & I I ",
"I I I I I I I I I . 4 H.S.Y.W.4               J K k.E.E.I.V.Z.V.A.A.Z.V.Z.A.V.D.E.!.c.H K z.v.c.c.c.v.c.v.z.J c.1     8 I I I I ",
"/ / { { / / { { / . 4 H.G.n.W.2               J K j.v.c.c.c.c.v.V.V.c.c.c.v.c.c.c.v.k.K K z.v.c.c.v.c.c.v.l.K z.1     9 T T P P ",
"/ / { | / / { { / . 4 H.S.n.W.4               J J j.c.c.v.c.c.z.j.k.c.c.c.c.c.c.c.A.z.K J z.v.c.c.c.c.c.v.l.K c.r 9 6 T T T P P ",
"| | / / ....{ { { O 4 F.S.n.W.4               J K j.v.c.c.c.v.k.H J c.v.c.c.c.v.c.v.k.K K c.c.c.c.c.v.c.v.l.K j.V R R W W E P P ",
"| | / /  . .{ { / . 4 H.S.n.W.4 .             J J j.v.v.c.v.v.k.K K c.c.v.c.v.c.v.v.k.J K k.v.c.c.v.c.c.v.l.K g.V R W W Q Q P P ",
"/ / { { / / / / / . 4 P.D.Y.Y.4               @ X < L j.j.j.j.K K K j.j.j.j.j.j.j.K z.c.z.c.v.c.c.v.c.g.g.*.2.1.] R W E Y U P P ",
"/ / { { { / / { / . e J.S.Y.W.4                   $ K K K K K K L L K K L K K K K J z.A.v.v.v.v.V.A.c.K D *.6.2.] W W Q U U P P ",
"I I I I I I I I I . 4 H.G.Y.W.2                   $ K S J K K K K K K J K J K K K K k.c.c.c.c.z.c.c.z.K D *.7.3.[ I U I I I I I ",
"I I I I I I I I I . 4 H.G.n.W.4                         : N M N N Z N N Z Z x Z N N m N N N N N N M F 2.1.5.'.(.q.q.(.Q I I I I ",
"/ / / / ! ! ! ! ! O a H.S.n.W.4                         - N N x j h j j h f i f B B h i f f f f j h N 3.2.7.'.`.q.(.q.' ~ ^ / { ",
"/ / / / / / ! ! / . 4 F.S.n.W.2 .                       $ h 2 c G G G G G K.^.N.m w.k.^.K.;.;.;.G F &.3.2.9.'.].(.(.q.>.' X./ } ",
"{ { | | / / ! / | . 4 P.S.Y.G.4                               o.8.3.3.,.q.,X2XoXp.p.).2X2X*X%X%X0.1.7.3.2.9.(.^.(.(.q.q.(.q.| | ",
"{ { | | ! / ! ! | . 4 P.S.Y.W.4                               o.2.2.2.=.9.-X<X Xu.u.).<X:X$X@X+X9.=.1.2.=.5.[.].(.(.q.(.(.q._ | ",
"! / / / / / / / / . 4 H.G.n.n.2                         * y 0 $.9.9.3.=.9.:X<X.Xp.p.).;X:X$X@X+X9.=.3.9.9.9.9.7.0.'.^.q.q.q.U ~ ",
"/ / / / / / / / / . 3 H.G.n.G.4                         0 1.=.0.[.].3.%.0.&X<XXXs.a.}.;X:X$X@X+X9.:.5.'.[.9.$.$.9.].`.(.(.0.U U ",
"I I I I I I I I I O 4 H.G.n.n.4                         q ,.%.9.'.(.3.%.0.-X<XXXs.a.}.;X:X$XOX+X9.=.3.(.'.9.%.%.9.'.(.q.q.q.I I ",
"I I I I I I I I I . a F.G.n.S.4 .                       q ,.-.9.'.(.5.%.9.:X<XXXs.a.).;X:X$X@X@X9.=.3.(.].9.:.%.9.'.q.(.q.0.I I ",
" .../ / / / / / / . 4 H.S.Y.Y.4 .                       q 1.:.9.'.(.3.%.9.-X<X.Xs.a.).;X:X$X@X@X9.=.3.(.'.9.=.%.5.'.'.q._.0.P P ",
"..../ ! / / / / / . 4 P.D.Y.G.4                         q 1.%.9.'.(.3.=.9.-X<X.Xs.a.).<X:X$X@X@X9.%.3.(.].9.=.=.9.'.q.'.q.q.P P ",
"| | | | | { { { { . 4 P.G.n.n.4                         1 L J 4.].(.(.9.[.-X<X.Xs.a.).<X:X$XOX@X9.=.3.(.q.q.q._.5.1.2.C.V.N.P P ",
"| | | | { { { { { . e H.G.n.n.4                         : g.D 4.].(.(.0.[.>X1XoXd.d.).1X,X*X$X$X5.%.3.'.q.q._.[.3.$.:.M.x.z.P P ",
"/ / ..../ / / / / . 4 H.G.n.G.4 .                       ; K j ;.`.^.`.0.].#X=X|.i.i.).=X#XOX{.{.9.1.5.(.q.(.].].5.,.2.B.c.M.P P ",
"! / ..../ { / / / . s H.G.n.n.4                               +._._._.].q.,.%.-.2.1.,.:.=.=.1.1.q.'.(.'.q.q.^.'._.(._.` T T P P ",
"I I I I I I I I I O 4 H.G.n.W.4                               #.^.q.'.].(.=.%.,.,.,.,.:.=.1.=.1.(.].'.'.'.'.'.'.'.(.'._ I I I I ",
"I I I I I I I I I . 4 P.G.n.n.4                               t ,.#.9.9.9.1.-.,.,.=.:.:.=.=.:.=.9.0.9.9.9.9.0.9.8.>.<.) I I I I ",
"! / { { / / / / / . 4 L.S.Y.S.4 o                                   +.:.:.1.1.%.#.%.$.#.%.#.$.$.%.%.%.%.%.%.=.%.] R R R R W E E ",
"/ / { { / / ! / / . 3 L.S.Y.n.4                                     #.1.,.1.1.=.%.$.%.%.%.%.$.$.1.1.1.-.1.1.-.1.] R R R Y E U ~ ",
"{ { { { | { | | / . 4 H.G.n.Y.4                                     #.1.1.1.1.1.$.%.@.O.O.+.:.=.1.1.1.1.1.1.1.1.] W Q Q ) ) ( ( ",
"{ { { { { { | | { . s H.G.n.n.4                                     #.1.1.1.1.=.$.$.+.b b v y O.-.1.1.1.1.1.1.1.] W Q ) ) ~ ( ( ",
"/ / | / / / / / / . 4 J.G.n.G.4                                     #.1.1.2.1.1.%.:.+.b b l a C 1.1.2.1.2.2.1.1.] Y Y E U ~ ! ^ ",
"/ / / | ! / / / / . s L.G.Y.W.2                                     u o.o.o.o.o.t y y b b l a C O.o.o.o.o.o.o.o.` Y Y E ~ ~ ^ / ",
"I I I I I I I I I O e L.G.n.Y.2     o     o               o o     o t y u u u t 0 q w a a a > F u y y y y y u u 9 I I I I I I I ",
"I I I I I I I I I + e P.L.J.J.4 o       o   o o     o   o           t u u u n t q q w , , , , G V n ` n n ` u u Y I I I I I I I "
};
