/* XPM */
static char *result[] = {
/* columns rows colors chars-per-pixel */
"64 64 173 2 ",
"   c #010101",
".  c #0A0504",
"X  c #0E0906",
"o  c #0A0A0A",
"O  c #120706",
"+  c #130A07",
"@  c #150D09",
"#  c #190D0A",
"$  c #1D120C",
"%  c #22150E",
"&  c #271810",
"*  c #2C1B12",
"=  c #321E14",
"-  c #3B1814",
";  c #2F2015",
":  c #352116",
">  c #392317",
",  c #37261C",
"<  c #3D2519",
"1  c #232323",
"2  c #2C2C2C",
"3  c #343434",
"4  c #3A3A3A",
"5  c #50240C",
"6  c #44251B",
"7  c #432A1C",
"8  c #4A2E1F",
"9  c #532912",
"0  c #52331A",
"q  c #5E341C",
"w  c #60371F",
"e  c #4F2F20",
"r  c #4E3121",
"t  c #543423",
"y  c #5B3525",
"u  c #5D3926",
"i  c #5F3B28",
"p  c #4E3F36",
"a  c #612922",
"s  c #613A24",
"d  c #633E29",
"f  c #733C2C",
"g  c #53462D",
"h  c #67402B",
"j  c #6C432C",
"k  c #7E4525",
"l  c #70462F",
"z  c #794A2F",
"x  c #634534",
"c  c #654A3B",
"v  c #6B4B39",
"b  c #724730",
"n  c #754A31",
"m  c #7A4D33",
"M  c #7E5036",
"N  c #7E533A",
"B  c #434343",
"V  c #4C4C4C",
"C  c #555555",
"Z  c #575758",
"A  c #5C5C5C",
"S  c #654E41",
"D  c #755847",
"F  c #605F5F",
"G  c #6C645F",
"H  c #7B6355",
"J  c #786458",
"K  c #5B5E60",
"L  c #5F6263",
"P  c #636363",
"I  c #636669",
"U  c #666869",
"Y  c #6C6C6C",
"T  c #7E6C63",
"R  c #746E6C",
"E  c #71706F",
"W  c #626F76",
"Q  c #6B6E71",
"!  c #6A7074",
"~  c #747474",
"^  c #767779",
"/  c #7D7D7D",
"(  c #81291E",
")  c #82332C",
"_  c #88392F",
"`  c #893A30",
"'  c #953B33",
"]  c #CF0001",
"[  c #DF0000",
"{  c #DB0E16",
"}  c #EF0005",
"|  c #EF050D",
" . c #FE0003",
".. c #F4040B",
"X. c #8A4634",
"o. c #814F33",
"O. c #994637",
"+. c #825136",
"@. c #865438",
"#. c #8B563A",
"$. c #87583E",
"%. c #8D593C",
"&. c #9E5934",
"*. c #945C3E",
"=. c #995E3F",
"-. c #824D40",
";. c #875A45",
":. c #995E40",
">. c #8C614B",
",. c #966144",
"<. c #9B6141",
"1. c #916148",
"2. c #83695A",
"3. c #A46544",
"4. c #A86746",
"5. c #A96846",
"6. c #A56A4A",
"7. c #AD6C49",
"8. c #B16D4A",
"9. c #B5704B",
"0. c #BB734E",
"q. c #847263",
"w. c #8A7D77",
"e. c #C27851",
"r. c #82807F",
"t. c #97867C",
"y. c #7E7F80",
"u. c #E57F84",
"i. c #7E8183",
"p. c #7F878B",
"a. c #828283",
"s. c #808689",
"d. c #86898A",
"f. c #8B8B8B",
"g. c #918C89",
"h. c #9D938F",
"j. c #939394",
"k. c #9B9B9B",
"l. c #A39289",
"z. c #9F9FA0",
"x. c #A4A4A4",
"c. c #ABA7A5",
"v. c #AEAEAE",
"b. c #AFAFB0",
"n. c #B3B3B4",
"m. c #B7B7B8",
"M. c #B2B9BB",
"N. c #BCBCBD",
"B. c #E88086",
"V. c #F38287",
"C. c #D19DA0",
"Z. c #DBA4A8",
"A. c #E3A7AB",
"S. c #E9AFB5",
"D. c #F0AEB2",
"F. c #BFBFC0",
"G. c #BBC0C1",
"H. c #C3C3C4",
"J. c #C1C6C8",
"K. c #C1C8CB",
"L. c #CBCBCC",
"P. c #CAD0D2",
"I. c #CAD5DA",
"U. c #D2D6D7",
"Y. c #CDE9E9",
"T. c #DDE0E1",
"R. c #DDFFFF",
"E. c #E3E5E6",
"W. c #E9ECEE",
"Q. c #EDF1F4",
"!. c #E2FFFF",
"~. c #ECFFFF",
"^. c #F1FBFC",
/* pixels */
"H.H.H.H.H.F.H.H.H.H.H.F.F.F.F.F.F.F.N.N.F.F.F.F.H.k.  o o o o o o o o o o o o o o o o o o o o o o o o o   V N.N.J.H.J.H.N.N.c.c.",
"H.F.J.H.H.H.L.H.H.F.H.F.F.F.F.F.F.F.N.N.F.F.F.F.L.k.                                                      B m.m.Z.H.H.J.N.N.v.c.",
"J.L.H.F.P.L.H.H.H.H.H.H.J.K.Z.G.N.N.N.N.N.N.H.z.v.^ $ $ + . . . . . . . . . . X $ $ # $ $ $ $ $ X X .     3 x.d.b.G.G.P.K.L.c.v.",
"L.L.F.H.L.P.H.H.H.L.H.L.J.G.G.G.N.N.N.N.N.N.H.o   $ %.=.s % = = = = = = = = % r %.@.#.+.@.@.@.+.: * &           L G.G.I.L.G.v.x.",
"Z.G.J.L.H.H.H.H.F.H.F.H.J.H.H.L.N.N.H.H.F.H.H.o   $ +.@.t X $ % % # $ % $ $ O > @.m m m m m m n = % %           A b.N.G.m.N.x.v.",
"G.G.K.G.H.H.H.H.H.F.H.H.L.H.H.H.N.F.H.F.H.G.H., * 8 #.%.n t u u u u u u u u t j #.@.@.@.@.@.#.@.e 7 < @ @ X     3 U A x.n.m.x.x.",
"M.b.b.b.v.v.v.v.v.v.v.v.v.v.v.v.v.v.v.v.v.v.v.,.%.*.=.=.<.5.4.3.3.3.3.3.3.3.5.3.=.:.:.:.:.:.:.:.j j d : > %           ^ x.x.v.v.",
"n.b.b.b.v.v.v.v.v.v.v.n.v.v.v.n.v.n.v.v.v.v.v.N m +.=.=.=.=.=.=.=.=.=.=.:.=.=.:.=.=.=.=.:.*.:.*.d s t * = $           ~ k.x.c.c.",
"H.F.F.N.F.F.N.N.H.F.c.c.G.H.H.F.H.F.H.F.H.G.G.@.m m @.+.@.+.@.+.@.+.+.@.@.+.@.@.@.@.+.@.+.*.*.*.m n h * = $           2 4 B m.N.",
"H.H.F.N.F.F.N.N.F.F.v.c.G.J.F.H.F.H.F.H.H.H.G.N m m m m m m m m m m m m m n m n m n m m n #.:.*.+.@.n * = $               o v.m.",
"H.H.L.L.F.F.N.N.H.H.c.c.N.N.J.J.H.H.K.G.H.H.H.N m m m m m m m m m m m m m m m m m m m m n %.:.*.m @.l * : $               o v.n.",
"L.H.L.L.F.F.N.N.L.L.c.v.N.N.L.H.L.J.L.P.H.L.H.*.*.=.*.%.*.*.%.*.*.%.*.*.*.*.*.*.*.%.*.*.*.*.:.*.m +.l * = $               . k.v.",
"N.F.H.H.H.H.N.F.H.F.c.c.H.H.H.H.H.L.Z.G.H.H.N.6.3.3.3.3.3.3.3.:.*.*.3.3.3.3.3.3.3.3.3.3.3.<.*.*.o.+.l & * $               o d.j.",
"F.F.H.F.H.H.F.F.F.H.c.v.H.L.H.L.L.J.G.G.H.G.F.$.+.+.+.+.+.+.+.*.:.*.@.+.+.+.+.+.+.+.+.+.o.*.:.*.+.+.l = : %               . a.f.",
"v.b.v.v.v.v.b.b.b.b.v.v.n.v.v.v.v.v.b.b.v.v.v..               s 7.:.#                     d 5.*.m M n d j 7                 ^ / ",
"v.v.v.v.b.b.b.b.b.b.v.v.v.v.v.v.v.v.b.v.v.v.v.o               u 7.=.@                     j 5.=.m m n i j <               . ~ / ",
"P.P.F.F.F.H.F.H.H.H.H.H.H.H.F.H.F.H.L.H.H.H.H.< = &     @ : % l 3.=.7 & &     X = = = = % n 3.*.@.@.o.j m 7     @ * & .   o Q ~ ",
"U.L.F.N.H.F.H.F.H.H.H.H.H.H.H.F.H.F.H.H.H.H.H.7.0.+.    8 e.7.:.*.*.3.9.:.    = 0.4.3.4.5.:.*.*.:.<.*.M %.t     r 3.,.$   . Y ^ ",
"L.L.H.L.L.H.H.H.H.H.H.L.H.L.F.H.H.H.H.H.L.L.G.<.3.n     7 7.*.*.*.*.*.3.@.    * 4.*.*.*.=.*.*.*.*.=.%.m %.r     8 *.@.#   . Y ^ ",
"L.L.L.L.H.H.H.L.L.H.H.H.H.H.H.F.H.L.H.L.L.L.G.,.<.+.8 6 j 3.*.*.*.*.=.:.#.t 6 d 3.*.*.=.*.*.*.*.*.=.*.M #.t . o r #.@.$   . Y ~ ",
"F.F.U.L.F.F.H.F.H.F.H.H.F.H.H.H.F.H.H.L.H.F.N.<.%.:.7.8.3.*.=.*.*.*.*.*.:.7.8.3.%.*.*.*.*.*.*.*.*.=.*.m @.d & & u +.@.$   o Q ~ ",
"F.H.L.L.H.H.F.H.H.H.H.L.H.F.H.H.H.H.J.J.F.H.G.,.*.*.:.:.*.*.*.*.=.*.*.*.*.*.*.*.=.=.:.*.*.*.*.:.*.=.%.m +.u # @ t #.@.$   . Y ^ ",
"v.v.n.v.v.n.v.v.v.n.v.v.v.v.v.v.v.v.b.b.b.b.c.,.*.*.#.@.#.=.=.*.*.=.*.*.:.:.:.%.@.@.%.*.:.*.*.*.*.=.*.#.*.+.d h n N @.$   o E ^ ",
"v.v.v.v.v.v.v.v.v.v.v.v.v.v.v.v.v.v.b.b.v.b.v.,.:.*.o.o.#.<.<.=.:.:.:.<.:.:.:.:.o.o.#.:.*.*.*.*.*.*.*.=.:.%.@.@.+.+.#.$   . E ^ ",
"H.F.H.H.F.H.F.F.F.F.c.c.N.N.F.F.F.F.N.N.F.F.G.,.*.%.@.+.#.*.%.*.*.*.*.#.*.%.*.#.o.o.%.=.*.*.*.*.=.*.*.*.=.#.m M M z N $   o ^ i.",
"F.F.L.H.H.H.F.F.F.F.c.c.m.m.F.F.F.F.N.F.F.F.N.%.+.#.*.5.y     & 6 : + X . X   = 3.*.%.@.@.%.:.*.*.*.*.=.=.@.m %.<   X     . ^ a.",
"L.H.H.H.H.L.H.L.J.J.c.v.F.H.L.L.N.N.N.N.N.N.m.$.m #.5.0.u     @ % $           = 0.7.=.m o.%.:.*.*.*.*.*.=.#.m %.:         . / d.",
"H.H.H.L.H.H.L.L.H.J.c.c.F.F.L.L.N.N.N.N.N.N.m.$.@.M M %.8 . O * 6 < $ O # # . = @.m m @.o.*.:.*.*.*.*.=.=.%.m *.:         . / d.",
"H.H.H.L.F.F.F.H.H.H.v.c.G.N.L.H.H.H.F.F.N.N.G.%.*.h     - O.` ` _ _ _ _ _ _ ' a     7 :.+.*.=.*.=.*.*.=.=.#.m %.:           / s.",
"H.F.H.H.F.F.H.H.F.H.c.c.N.N.H.J.H.H.F.H.N.N.G.%.*.h     - ' ) ) ) ) ) ) ) ) ' a     7 :.+.%.=.*.*.*.*.*.=.#.m %.:         . ^ a.",
"v.v.v.n.v.v.v.v.v.v.v.v.v.b.b.b.v.v.n.v.v.v.v.@.#.b > ; s O.X.X.X.X.o.X.X.X.O.f : = u #.m *.=.*.*.*.*.*.=.#.m %.:     1 2 2 ~ ^ ",
"v.v.v.v.v.v.n.v.v.v.v.n.v.v.b.b.v.v.v.v.v.v.v.M z +.8.8.3.:.,.,.,.<.<.<.,.<.,.<.7.9.=.n n #.,.*.*.*.=.*.=.#.m *.:     C U Y ~ / ",
"H.H.H.H.H.F.L.H.H.F.H.F.F.F.F.F.F.F.N.N.F.G.N.@.m +.=.*.*.*.*.=.=.=.*.*.*.*.=.*.*.:.@.m m #.=.*.*.*.*.*.=.#.m *.>     Z Q ~ ~ / ",
"H.H.H.H.F.H.H.H.F.H.F.H.F.F.F.F.F.F.N.N.F.G.N.N z +.=.*.=.*.*.#.@.@.*.=.*.*.*.*.*.:.#.n m %.=.*.*.=.*.*.=.#.m %.g V B U ~ ^ ^ w.",
"H.L.H.H.L.L.L.H.H.L.H.H.H.H.N.N.N.N.N.N.N.N.H.N m N =.*.*.*.=.+.b b %.*.*.*.*.*.=.=.#.n m #.:.*.*.*.=.*.=.%.z +.J ~ ^ / / d.y.d.",
"H.L.H.H.L.P.H.H.H.H.L.H.H.L.N.F.N.N.N.N.N.N.F.@.z +.=.*.=.*.=.@.M M *.=.=.=.*.=.=.:.@.n n %.=.=.*.*.*.=.=.%.z m J ~ / i.a.j.d.f.",
"H.H.H.H.H.H.H.F.H.H.F.H.H.H.H.H.N.N.H.H.H.H.G.c.c.t.@.N N M +.M M z +.M +.+.M +.o.m #.*.%.*.*.=.*.:.%.o.o.D U G R ~ / s.d.j.f.j.",
"H.F.L.H.H.H.F.H.H.F.H.F.L.H.L.H.N.N.H.F.G.H.N.N.n.h.m z m m m M M M M m M m M m m m #.3.:.:.:.:.:.:.*.m X.D W U Q ^ a.f.g.k.k.k.",
"v.v.v.v.v.v.v.v.v.v.v.v.n.v.v.v.v.v.v.v.b.b.v.c.z.g.M N M m m z z M z M +.z m m m m @.*.*.%.*.%.*.*.#.m k D ! U E E ^ i.f.j.x.x.",
"n.v.v.v.n.v.v.v.n.v.v.v.v.v.v.v.n.v.v.v.b.b.v.c.x.k.g.d.J u h h h i h s h w g h d d d d d d d d d s x Y P E i./ r.i.w.d.j.k.x.v.",
"H.F.F.F.F.F.N.N.F.F.c.v.F.F.H.F.H.F.F.H.F.H.F.Z.N.n.c.z.T g d u q q q u q 9 5 0 g g 0 5 9 9 9 9 q q i Y I ~ a.r./ y./ j.x.n.m.F.",
"F.H.F.N.F.F.N.N.F.G.c.c.H.G.F.H.F.H.H.H.H.F.G.G.F.N.v.c.w.l v v c c c x c 2.q.D ( ( -.q.2.H H H c x S Y U ~ a.r.y.r.r.d.k.k.m.N.",
"H.H.L.L.F.F.N.N.K.L.c.c.G.N.H.L.H.L.H.L.L.J.G.K.H.F.N.m.v.x.k.^ ! Q Q L ^ Q.^.S.[ [ B.^.^.T.I.I.^ I Y U U E r.r.y./ r.y./ a.N.N.",
"L.H.L.L.F.F.N.N.P.G.v.v.N.N.J.H.J.H.H.H.H.J.J.K.H.H.H.N.m.v.x.^ P U U F ^ T.~.Z.] ] u.!.E.P.K.G.~ P U P P Y d.a.a./ y.r.a./ v.N.",
"F.F.H.H.H.F.F.F.H.F.c.c.H.L.H.L.L.H.F.H.H.F.H.F.J.L.N.N.z.a.d.~ ^ ~ Y F ~ T.!.Z.[ [ u.R.E.L.K.K.~ L U ^ ~ ~ E E ^ a.y.r./ / k.x.",
"F.F.H.H.F.H.F.F.H.H.c.c.H.H.H.H.H.H.H.H.F.H.F.H.J.J.F.F.j.G A ^ d.a.Y A ^ T.!.A.| ..B.R.E.P.K.K.~ A Y a.d.^ Z Z E a.y./ / a.f.j.",
"v.v.v.v.n.v.v.v.v.v.v.v.v.v.n.v.v.v.v.v.v.v.v.v.b.v.b.v.f.L A ~ a.r.Y F ~ T.!.A.| } u.R.E.P.G.K.Q G Y r.a.~ A A ~ a./ i.y.y./ d.",
"v.v.v.v.v.v.v.v.v.v.n.v.v.n.v.v.v.v.n.v.v.n.v.v.v.b.v.b.d.G L ~ a.r.Y F ^ T.!.A.| } u.R.E.P.K.K.~ A Y a.d.Q G A ~ a./ i./ y.^ w.",
"L.L.H.F.F.H.H.F.H.F.L.H.H.H.F.H.H.F.H.H.H.H.L.H.H.H.H.H.j.P L ~ a.a.Y A ~ T.!.A.| } u.R.E.P.K.K.~ F Y i.a.^ A A E d.y.y.y.y.E ^ ",
"L.U.F.F.H.H.F.H.F.H.H.H.H.F.H.F.H.H.L.H.H.H.H.H.L.H.H.F.j.P L ~ a.r.Y A ~ T.!.A.| } u.R.E.P.K.K.~ F Y y.a.~ F A ~ r.y.y.y.y.Y ^ ",
"L.L.L.L.L.H.L.H.H.L.H.L.H.H.F.H.H.H.H.H.L.L.H.F.U.L.H.H.l.@.z T s.r.r.~ d.T.R.A.| } B.R.E.L.G.K.~ F Y y.r.y./ r.E P P >.,.,.Y ^ ",
"L.H.L.L.H.H.H.H.H.H.H.H.H.H.H.F.H.L.H.L.L.L.H.H.L.P.H.H.t.m k T p.r.r.^ f.W.~.D. . .V.~.Q.U.I.P.Q A Y r.y.y.r.d.Y Z K ;.&.*.E ^ ",
"F.F.L.L.H.H.H.H.F.H.L.H.H.H.H.F.H.F.H.H.F.H.F.G.F.F.G.F.l.M M T p.y.r.^ a.P.Y.C.{ { u.Y.P.G.M.M.~ P E y.y.y.y.a.~ P U ;.*.1.Y ^ ",
"F.F.L.U.H.H.H.H.H.H.H.L.H.H.F.H.H.H.L.H.H.H.F.H.G.Z.G.G.N.M.j.r.i.i.r.a./ L G K L L L K P A G K / a.r.r.y.r.r.r.y.r.i.E E E E ~ ",
"v.v.v.v.v.v.v.v.v.v.v.v.v.v.v.v.v.v.v.v.v.v.v.v.M.v.v.v.c.x.z.d./ r.a.d.y.F F L L L L K F P F G r.d.a.r.a.a.a.r.y.r.r.E U E ~ / ",
"v.v.v.v.v.v.v.v.v.v.n.v.v.v.v.v.v.n.v.v.v.v.v.v.v.v.v.v.c.x.z.f.a.r.~ ~ ~ K G L L F F K P A A F ~ ^ ~ ^ ~ ~ ^ ~ ^ ^ ^ Y Y E ^ a.",
"F.F.L.H.F.H.F.G.F.F.c.c.G.N.N.G.F.F.N.N.H.N.F.F.L.H.H.H.N.M.n.x.k.f.P F A P P F Z Z A Z Z A Z Z A A F A F K A A Y E ~ ^ ^ r.d.j.",
"F.F.H.H.H.F.F.N.F.F.c.v.N.N.F.F.N.H.N.N.F.F.N.H.H.H.L.L.F.N.M.b.x.k.U P P P L G Z A Z A A Z A Z P P P P P P P K U ~ ^ / y.d.j.z.",
"H.L.L.H.H.H.L.L.H.H.c.c.F.F.L.L.N.N.N.N.N.N.N.N.L.L.L.L.J.H.G.G.v.x.Y P P P P A Z A A P P U U U P P F P P F P P E ^ y.d.f.j.x.v.",
"H.H.H.H.H.L.L.L.H.L.c.c.F.G.L.L.N.N.N.N.N.N.N.N.P.L.U.L.H.H.P.G.N.v.Y P P P P L Z A F P E ~ ~ / P P P P P P P I Y / a.g.j.z.v.m.",
"H.F.H.L.F.F.H.F.H.F.c.v.N.N.H.L.H.H.H.F.N.N.F.H.H.G.G.G.F.Z.G.G.N.m.~ P P U U G A A F U Q ~ / y.U U P U L I I U Y ^ i.f.k.x.b.m.",
"F.H.H.H.G.H.F.H.F.H.c.c.N.N.H.H.H.H.F.F.N.N.H.H.Z.G.G.G.N.H.G.G.N.M.C B B B V 4 3 4 V Y ~ / a.a.V B B B B B B B F / s.g.k.v.n.N.",
"v.v.v.v.v.v.n.v.b.b.v.n.v.n.v.v.n.v.v.v.v.v.b.b.b.b.b.b.v.v.b.b.v.c.V 4 4 3 4 3 1 2 V E ~ / y.a.B 4 4 4 4 4 4 4 C ~ / d.j.z.c.c.",
"v.n.v.v.v.v.v.v.b.v.v.v.v.v.v.v.v.v.v.v.v.v.b.b.b.b.b.b.v.b.b.v.v.v.C 4 B B B 4 2 2 V E ~ y.d.j.B 4 B p g 4 B 4 Z ~ y.f.k.x.c.b."
};
