/* XPM */
static char *result[] = {
/* columns rows colors chars-per-pixel */
"64 64 201 2 ",
"   c #000000",
".  c #0B0201",
"X  c #0E0906",
"o  c #0A0A0A",
"O  c #100201",
"+  c #140A07",
"@  c #150D09",
"#  c #190D0A",
"$  c #1D120C",
"%  c #24150E",
"&  c #2A140F",
"*  c #261610",
"=  c #2C1B12",
"-  c #321E14",
";  c #3B1814",
":  c #2F2015",
">  c #352116",
",  c #392518",
"<  c #3B261D",
"1  c #2B2A2A",
"2  c #392923",
"3  c #353535",
"4  c #3B3B3B",
"5  c #50240C",
"6  c #44251B",
"7  c #432A1B",
"8  c #4A2E1F",
"9  c #532912",
"0  c #562618",
"q  c #59331B",
"w  c #60371F",
"e  c #4D2E20",
"r  c #4E3322",
"t  c #543423",
"y  c #5B3926",
"u  c #5D3A26",
"i  c #4E3731",
"p  c #403F3F",
"a  c #543831",
"s  c #6A3327",
"d  c #613A24",
"f  c #633E29",
"g  c #6B3B2E",
"h  c #6C3C33",
"j  c #53462D",
"k  c #4C433C",
"l  c #6C432C",
"z  c #68442D",
"x  c #71462F",
"c  c #7B482C",
"v  c #634635",
"b  c #6C4E35",
"n  c #654C3A",
"m  c #754532",
"M  c #754A31",
"N  c #7B4D34",
"B  c #734139",
"V  c #7D4D39",
"C  c #6C513B",
"Z  c #7E5136",
"A  c #74543C",
"S  c #7B5138",
"D  c #454544",
"F  c #4C4848",
"G  c #544C4D",
"H  c #5E5247",
"J  c #585655",
"K  c #5C5C5C",
"L  c #634F49",
"P  c #66564A",
"I  c #745947",
"U  c #685553",
"Y  c #605E5E",
"T  c #7A614C",
"R  c #63615F",
"E  c #6C635D",
"W  c #7B6558",
"Q  c #5B5E60",
"!  c #5F6263",
"~  c #626363",
"^  c #676868",
"/  c #6C6C6C",
"(  c #7B6B63",
")  c #79726C",
"_  c #686E72",
"`  c #6A7074",
"'  c #737373",
"]  c #777879",
"[  c #7E7E7E",
"{  c #81291E",
"}  c #82332C",
"|  c #87392F",
" . c #893A30",
".. c #953B33",
"X. c #CF0001",
"o. c #DC090F",
"O. c #E10003",
"+. c #EF0005",
"@. c #EF050D",
"#. c #F90207",
"$. c #8A4634",
"%. c #814E35",
"&. c #804F38",
"*. c #994637",
"=. c #825136",
"-. c #855338",
";. c #8B563A",
":. c #835A3A",
">. c #8E593C",
",. c #9E5934",
"<. c #945C3E",
"1. c #995E3F",
"2. c #8C613C",
"3. c #94623C",
"4. c #98673E",
"5. c #9D6B3E",
"6. c #9D703F",
"7. c #A26D3F",
"8. c #A86F3E",
"9. c #824D40",
"0. c #895A43",
"q. c #925D40",
"w. c #995E40",
"e. c #8A6549",
"r. c #966241",
"t. c #9A6241",
"y. c #9D6D44",
"u. c #9E6F4B",
"i. c #967345",
"p. c #9A7144",
"a. c #95724D",
"s. c #9B714C",
"d. c #836A59",
"f. c #946F50",
"g. c #967152",
"h. c #987355",
"j. c #A46544",
"k. c #A76747",
"l. c #A36D42",
"z. c #A96A44",
"x. c #AD6B48",
"c. c #B16D4A",
"v. c #A37045",
"b. c #B9734D",
"n. c #826364",
"m. c #8D6C65",
"M. c #837265",
"N. c #947965",
"B. c #817E7C",
"V. c #C27851",
"C. c #D67A7F",
"Z. c #80807F",
"A. c #9D887A",
"S. c #A6876E",
"D. c #A78973",
"F. c #7F7F80",
"G. c #E57F84",
"H. c #7E8183",
"J. c #7F878B",
"K. c #828282",
"L. c #858788",
"P. c #8A8A8B",
"I. c #958B85",
"U. c #9E9387",
"Y. c #939393",
"T. c #979799",
"R. c #9C9C9C",
"E. c #9E9EA0",
"W. c #99A9B3",
"Q. c #A3A3A4",
"!. c #A7A7A9",
"~. c #AFAFAF",
"^. c #AFAFB0",
"/. c #B3B3B4",
"(. c #B4B8BA",
"). c #BCBCBC",
"_. c #E88086",
"`. c #F38287",
"'. c #DBA4A8",
"]. c #E3A7AB",
"[. c #EDAFB4",
"{. c #8BADC4",
"}. c #BFBFC0",
"|. c #BBC0C1",
" X c #C3C3C4",
".X c #C1C6C8",
"XX c #C1C8CB",
"oX c #CACACC",
"OX c #CAD0D2",
"+X c #CAD5DA",
"@X c #D2D6D7",
"#X c #D5DFE2",
"$X c #CDE9E9",
"%X c #DDE0E1",
"&X c #DDFFFF",
"*X c #E3E5E6",
"=X c #E9ECEE",
"-X c #EDF1F4",
";X c #E2FFFF",
":X c #ECFFFF",
">X c #F1FBFC",
/* pixels */
" X X X X X X XoX X+           o     .                 .                                                   o o o o o o   Y.).!.!.",
" X}..X X X X X X}.. @ 2 2 2 < 2 < 2 2 2 2 2 2 < 2 2 2 2 < < 2 2 #                                                       P.(.Q.Q.",
"oX X X XOXoX X X X. 6 h.g.u.u.u.v.s.v.s.u.u.u.u.u.u.u.u.v.e.S e.-     o . X $ $ $ $ $ $ $ $ X . X . X . X . . . . @ $ $ ' R.[ Q.",
"oXoX X}.oXoXoX X XO < h.v.8.8.j.z.v.z.l.z.8.8.8.8.8.8.8.7.u           = = , -.-.-.-.-.-.-.>.8 * = > = : - - - - % u 3.>.$   X R.",
"}.}. XoX X X}. X}.. < g.u.y.7.5.y.l.y.l.y.l.l.y.j.y.l.y.l.y           % * = N N N N N N N -., + $ $ $ $ % # $ $ X t -.=.$   o Y.",
"}. X X X X X X X X. < g.u.l.5.-.m m m m m m m m m m g < e *     X @ + , 8 8 -.;.-.-.-.-.-.;.g t u u u u u u u u t M >.;.7 = < P.",
"^.^.^.~.~.~.^.~.~.. < a.y.7.5.%.B m V V V V V V V V f           % < > f l l 1.t.1.1.1.1.1.1.j.k.j.j.j.k.j.k.j.k.k.j.1.1.<.>.>.L.",
"^.^.^.^.~.~.~.~.^.  < s.p.7.5.-.V r.y.l.l.l.8.j.l.l.Z           $ - = t u f <.1.1.1.1.1.1.1.1.4.t.1.1.w.1.1.1.1.1.<.1.t.=.N Z [ ",
"|.|.|.|.}.}.).).'.o 6 s.y.7.5.=.N 3.8.7.7.7.7.7.7 , =           $ - = l M M <.1.>.=.-.-.-.-.-.-.=.-.-.-.=.=.-.-.=.=.=.-.=.N S K.",
"XX|.|.'.}.|.).|.|.o < p.6.7.7.-.Z <.7.7.7.7.7.7.X               $ > = x -.=.1.4.;.M c N M N M M M Z M M N N N M N N N M N N S F.",
"oXXXoXoX}.}.|.|.XX. < i.i.7.7.&.V 3.7.7.7.7.7.8.X               $ - = l =.V <.1.>.N V N N N N N Z Z V N N N N N N N N N V N Z K.",
"oX.XXXoX}.}.|.|.XX. < i.5.7.j.-.V <.7.8.7.7.7.7..               $ > = x =.V <.1.<.>.<.<.<.>.<.<.<.<.>.<.>.<.<.<.<.<.<.>.<.>.q.F.",
"}.}.}.}. X X'.|.}.. < i.6.7.5.-.S 3.7.7.7.7.7.7.X               $ = = l =.Z <.<.1.j.j.j.j.j.j.j.7.j.j.j.1.<.t.j.j.j.j.j.j.j.j.] ",
"}.}. X}.}.}.|.|. X. < i.6.8.l.&.V 3.l.7.7.l.7.5..               % , = M =.Z <.1.>.=.=.-.=.=.-.-.%.%.=.-.1.1.;.=.-.-.=.-.=.=.=.] ",
"~.~.~.~.^.~.^.^.~.. < p.5.8.7.%.N t.l.v.7.7.7.7..               , x f c N =.1.z.l                     # w.x.u               o / ",
"~.~.~.~.~.^.^.^.~.O 7 i.6.l.j.%.N 3.7.7.7.7.7.5.X               , x u M N N <.k.g                     # t.x.u                 ' ",
"@XoX|.|.|..X X X}.. 6 i.y.7.l.&.&.<.7.7.8.7.7.7.X   . = = @     7 M l %.-.&.<.j.c % - - - > X     = = < w.j.g % > @     % > > / ",
"@XoX|.'.|.XX X}. X. < i.6.l.l.V V 3.7.7.7.7.7.5.X   $ 3.j.r     t <.N <.w.w.<.<.t.k.j.k.k.b.-     1.b.j.<.<.w.x.V.8     =.b.k./ ",
"oXoXoXoXoX X X.X X. < p.6.7.l.-.V <.7.7.l.7.7.7..   $ -.>.8     e ;.V <.1.1.<.<.1.1.<.<.1.j.=     -.j.<.<.1.<.1.x.6     M j.q./ ",
"oXoX XoX X XoX.X X. < i.6.7.l.&.V 3.5.7.7.7.8.5.X   $ -.>.r . o y ;.M <.1.<.<.1.<.<.<.<.1.t.f 7 e ;.4.<.<.<.<.<.j.l 7 8 -.t.r./ ",
"}.}.oXoX}.}. X}. X. 6 i.7.l.l.%.N t.l.7.7.7.7.7.X   $ -.;.u = * u -.N <.w.<.<.<.<.<.<.<.<.<.j.c.x.1.<.<.<.<.<.<.<.j.c.c.w.<.q./ ",
"}.}.@X@X X X}. X}.O < p.7.l.l.%.V 3.p.7.7.7.7.5..   # =.;.t @ $ u :.N >.w.<.<.<.<.1.<.q.1.1.1.<.<.1.<.1.<.<.<.1.<.<.1.1.1.<.q./ ",
"~.~.~.~.~.~.~.~.^.. < i.6.8.l.-.V 3.7.7.7.7.7.7.X   $ -.Z M z u N <.>.<.<.<.<.<.<.<.1.>.-.-.>.1.<.1.<.1.1.<.<.1.<.;.-.;.<.q.q./ ",
"~.~.~.~.~.~.~.~.~.. < i.6.l.l.V N <.7.7.7.7.l.7.X   $ ;.=.=.-.=.<.1.1.1.w.<.<.<.1.<.w.;.V V <.t.w.t.w.t.1.w.w.w.j.;.N N <.w.q.' ",
"}.}. X X X X}.}.}.. < i.6.l.l.V V 3.7.7.7.7.7.l.X   $ Z N N N N ;.1.<.<.<.1.<.<.<.<.1.;.=.=.>.<.>.>.>.<.<.<.<.<.<.-.%.-.<.1.q.] ",
"}.}. XoX X X}.}.}.O < i.6.8.l.-.V 3.7.7.7.7.7.7.X     X   < >.N ;.1.<.<.<.<.<.1.<.=.=.;.1.j.>   X X . + - < *     y z.<.-.=.-.] ",
" XoX X X X XoXoX X. < i.6.l.l.%.N t.7.7.7.7.7.5..         > 2.M >.1.1.1.<.<.<.1.;.%.N 1.x.b.-         . $ * +     u V.k.-.V -.F.",
" X X XoX X XoXoX X. 6 p.5.8.z.%.N 3.5.7.7.7.7.7.X         > <.M ;.1.<.<.<.<.<.<.<.=.=.V M -.; . # + + $ , 6 = + . 8 -.N =.-.-.F.",
" X X X X X}. X}. XO < i.7.l.l.&.%.<.7.7.7.7.7.7..         , >.N ;.1.1.<.q.<.<.w.<.%.w.7     q *. . . . .| | |  .*.;     g <.=.] ",
" X XoX X}.}. X X X. < i.6.7.l.=.V 3.7.7.7.7.7.5.X         , >.N ;.1.<.<.1.<.<.1.;.=.t.7     0 ..} } } } } } } } ..;     l <.:.] ",
"~.~.~.~.~.~.~.~.^.. < i.6.7.l.V m y.7.7.5.7.7.7.7 , :     > <.N ;.w.q.1.<.<.<.w.<.V ;.d - > g *.$.$.$.$.$.$.$.$.*.d : > M -.-./ ",
"~.~.~.~.~.~.~.~.^.. < p.6.l.l.V m j.u.a.a.s.7.7.5.3.b     > >.N ;.1.<.<.<.<.<.1.;.N m q.b.c.j.q.r.t.r.t.t.r.t.t.r.j.c.x.-.M S ' ",
"|. XXXOX X}.oX X}.. < i.5.8.j.N m t.A.!.W.A.7.7.5.4.b     , >.N >.1.<.<.<.1.<.1.<.N M ;.w.<.1.<.<.<.<.<.1.1.1.<.<.1.<.1.=.N N / ",
" X XXX|. X X X X X. < p.6.8.v.%.m u.I.{.W.Y.5.7.5.4.:.r j r >.N >.1.1.<.<.<.<.1.;.M M ;.w.<.<.<.<.q.w.<.-.-.>.1.<.<.<.<.%.N S / ",
"oX.X|.|.oXoX XoX XO < p.6.l.l.-.%.1.I.W.{.U.7.7.5.5.3.2.:.Z Z M ;.w.1.<.<.<.<.1.<.N c ;.w.<.<.<.<.<.1.<.M M %.1.<.<.<.1.Z N V / ",
"oXoX'. X@XoX X X XO < i.6.8.z.%.N r.s.N.N.h.7.7.7.5.4.3.2.:.N N ;.1.1.<.<.<.<.w.;.m N -.w.1.1.<.1.<.<.<.N N -.4.1.<.1.1.=.N S / ",
"}.}.oX X X X X|. X. < i.6.7.l.&.N 3.7.8.8.7.7.7.7.5.4.4.3.T E ~ A %.V <.w.<.w.<.<.<.<.;.Z =.=.=.%.=.Z Z N N N =.=.=.=.=.E / E / ",
"}. X X X X X}. X X. < i.6.l.l.&.&.<.7.7.8.7.7.7.7.7.5.5.5.T _ _ I c c <.w.w.w.w.1.1.4.;.M N N N N N N Z N Z Z Z M N N M E ) ^ ' ",
"~.~.~.~.~.^.~.~.~.. < i.6.7.l.&.V 3.7.7.l.l.7.7.8.7.7.y.5.d.^ / I N S >.<.>.>.>.<.<.<.=.M N %.N N N N N N N N M Z Z V N E / ' ] ",
"~./.~.~.~.~.~.~.~.. < y.7.l.z.%.m r.7.7.8.l.7.7.7.8.a.[ Z.Z.Z.L.) ^ ^ z s f f g f f f d z f f f f f f f z d f f f P ^ ^ / / ' [ ",
" X}.}.}.}.}.).).|.o 2 i.p.7.l.%.%.3.7.7.7.7.8.7.7.7.a.Z.F.F.Z.K.' ^ / u q q 9 9 9 5 5 q j j 9 5 5 w d d w d d f f P ' ' ] Z.P.Y.",
" X X}.).}.}.).).'.. < i.7.v.l.&.%.<.7.7.7.7.7.7.a.s.h.H.F.F.Z.Z.' ~ / L v n W W W d.M.9.{ s 0.M.d.n v v v n v v z E ' ] Z.P.Y.R.",
" X XoXoX}.}.).).oX. > i.6.7.v.%.V 3.7.7.7.8.7.7.B.B.F.F.F.Z.F.Z.' ^ ^ / ^ ] +X+X#X>X:X_.O.O.[.>X-XF.~ _ _ ` / ' ' ] [ K.P.T.Q.^.",
"oX XoXoX}.}.}.).oX. < i.6.7.l.-.V <.7.7.7.7.7.7.B.F.F.B.[ Z.L.L./ ~ ~ ^ ~ '  XXXOX%X&XG.X.X.'.;X%X' Y ^ ^ ~ / / ' ] Z.P.R.Q.^.(.",
"}.}. X}.}. X}.}. X. < i.6.l.l.%.V 3.7.7.7.7.7.7.Z.B.B.F.Z.] / ' ' ] ) ^ R ' XXXXOX*X&XG.O.O.].;X%X] Q / ] ] / / / ] K.Y.T.Q.!./.",
"}.}.}. X X}.}.}.}.. < i.7.l.l.%.N r.y.7.7.7.7.7.[ B.F.F.L.' J J ' L.L./ Y ' XXXXOX*X&XG.#.@.].;X%X' K / K.P.] Y ~ ' P.Y.E.!./.(.",
"~.~./.~.~.~.~.~.^.O 7 p.7.7.l.%.N 4.l.7.7.7.7.7.B.B.F.B.Z.' K R ' L.Z./ R ' |.XXOX*X&XG.+.@.].;X%X' K / Z.K.] Y ~ / K.Y.T.E.!.~.",
"~.~.~.~.~.~.~.~.~.O < i.6.v.l.%.V <.5.7.8.7.l.7.Z.F.F.F.K.' K K ' L.Z./ K ' XXXXOX*X&XG.+.@.].;X%X] K / Z.K.' Y ~ / L.I.R.Q.!.!.",
"OX@X'.|. X}. X}. XO 6 i.5.7.l.S N 3.7.7.7.7.7.7.[ H.F.Z.L.' K K ' L.F./ ~ ' |.XXOX*X&XG.+.@.].;X%X' K / F.K.' Y ! ] P.R.Q.^.Q.!.",
"OXoX|.|. X X}. X XO < i.6.l.l.-.N <.7.7.8.7.7.l.B.F.F.F.L.' K K ' K.Z./ ! ' XXXXOX*X&XG.+.@.].;X%X] K / B.L.' Y ~ ' P.Y.Q.!.Q.Q.",
"oXoXOXOX X X XoX X. < i.y.l.l.&.V <.7.7.7.7.7.5.r.q.e.~ R / F.[ B.Z.F./ Y ' |.XXoX*X;XG.+.@.].;X%XP.] [ F.J.( c A ( L.Y.Q./.R.Q.",
"oXXXoXoX XoX X X X. < i.6.l.l.&.V 3.7.7.7.7.7.7.<.,.0.Q J / L.Z.Z.F.F./ K ' OX+X@X-X:X`.#.#.[.;X=XP.] [ H.J.W $.N d.L.Y.Q./.E.Q.",
"}.}.OXoX X X X}. X. < p.7.l.l.%.c y.y.7.7.8.7.5.1.,.>.^ ! / L.B.F.F.F./ ~ ' (.(.|.@X$XC.o.o.'.$XoXL.] Z.B.L.W N Z W B.P.R.!.R.Q.",
"}.}.OXoX X X X X}.O < i.6.8.l.%.N <.7.7.7.7.7.7.y.3.e.J.H.K.Z.Z.F.F.Z.Z.Z.[ ~ Y ~ ~ Y Y ! ! ! ! ~ [ K.Z.H.H.] / ' ' Z.L.R.!.R.Q.",
"~.~.~.~.~.~.~.~.^.O 6 i.6.l.l.=.V 3.7.7.l.7.7.7.5.3.e.L.Z.L.L.Z.Z.L.K.L.L.F.! Y ! ! Y ! ! ! ! Q Y [ L.K.B.B.] ^ ^ ' ] L.Y.R.Q.~.",
"~.~.~.~.~.~.~.~.^.. < i.6.l.l.%.V 3.7.7.7.7.7.7.5.3.e.M.( ) ' ' ] ' ' ' ] ' Y Y Y Y Y ! Y Y R ~ ~ ' ' ' Y / ' / / ] ] I.Y.R.!.!.",
"}.}. X X X}.}.}.'.o < i.6.7.l.-.V <.5.7.7.7.7.7.y.5.4.2.:.P K Q R K Y Q K Q K J J K J J K J Y ~ ~ K K K % F ' ' [ P.Y.E.!.^.(.|.",
"}.).oXoX}. X}.}.|.  < i.6.7.l.V V 1.7.7.7.7.7.7.5.5.4.2.2.I ~ ~ ~ R ~ ~ ~ R J K K J K K K J Y ^ ~ ~ ~ K % F ] B.L.Y.E.W.~.(.(.|.",
" XoX X X.XoXoXXXXX. < i.5.7.8.%.N r.l.l.7.7.v.7.5.5.5.3.r.T ~ ~ R ~ ~ ~ ~ K H H H H L J J J ! ~ ~ R ~ R % F ] K.Y.Q.~.|.|.'. XoX",
" X XoX X X XoXoXXXO < i.5.l.7.-.%.3.5.l.7.7.8.7.7.7.6.4.r.T ~ ! ~ ~ ~ R ~ ! n n n n b P Q J ! ~ ~ ~ ~ Y * G F.P.E.~.(.'.|. X.XoX",
" X}.oX X|.|.|. X}.O < a.p.l.7.-.V 3.l.l.7.l.l.l.7.l.7.5.4.e.^ ~ ~ ^ ~ ^ ~ R n n n n C P K K ~ ^ ~ ~ ^ R & G L.Y.R.~.~.(.(.|.|.|.",
"}. XoX X|.'.XX.X X. < f.p.l.k.&.V r.y.v.l.v.l.l.l.v.l.y.y.I D D D D D D D F n C C C A k 3 3 D D D D D F % G P.R.Q.~.(.).|.|.|. X",
"~.~.~.~.~.~.^.^.^.O 6 f.y.7.7.N h h g g g g g g g g h g g a 3 4 4 4 4 3 4 4 i i i a i e 1 1 3 3 4 3 4 4 & G Z.Y.R.Q.~.~.~.~.~.~.",
"~.~.~.~.~.^.~.^.^.+ 2 A.D.S.D.m.n.n.n.n.n.n.n.n.n.n.n.n.( U 4 p p p p 4 4 p G H U U U F 1 1 4 D p p 4 k & J P.Y.R.!.~.~.~.~.~.~."
};
