/* XPM */
static char *result[] = {
/* columns rows colors chars-per-pixel */
"64 64 237 2 ",
"   c #010103",
".  c #0A080A",
"X  c #0F0C0F",
"o  c #1D120C",
"O  c #0E1118",
"+  c #111215",
"@  c #191516",
"#  c #131519",
"$  c #16181E",
"%  c #23130E",
"&  c #2D130D",
"*  c #351409",
"=  c #291711",
"-  c #2B1A11",
";  c #331C13",
":  c #352115",
">  c #3D251A",
",  c #050B26",
"<  c #161727",
"1  c #1A1D24",
"2  c #231E30",
"3  c #1D2127",
"4  c #312E32",
"5  c #45271A",
"6  c #442A1D",
"7  c #4A2C1F",
"8  c #562F1F",
"9  c #492E22",
"0  c #4E3122",
"q  c #533323",
"w  c #5B3525",
"e  c #5D3927",
"r  c #55392C",
"t  c #503033",
"y  c #613B27",
"u  c #643C2A",
"i  c #693E2B",
"p  c #783233",
"a  c #554234",
"s  c #6C422D",
"d  c #73482E",
"f  c #6D4532",
"g  c #634739",
"h  c #744630",
"j  c #764932",
"k  c #7B5335",
"l  c #473C43",
"z  c #66394D",
"x  c #375767",
"c  c #514F57",
"v  c #704F4B",
"b  c #745B54",
"n  c #6F625C",
"m  c #465362",
"M  c #555C6A",
"N  c #615F7C",
"B  c #53636C",
"V  c #5B6676",
"C  c #6C6765",
"Z  c #6D6D6D",
"A  c #736C6D",
"S  c #747374",
"D  c #787576",
"F  c #7B7B7B",
"G  c #882B2E",
"H  c #933939",
"J  c #A53238",
"K  c #B63E3F",
"L  c #845136",
"P  c #8D563A",
"I  c #88593A",
"U  c #91583C",
"Y  c #956B32",
"T  c #9C7532",
"R  c #C14D1C",
"E  c #C75A28",
"W  c #CF6D3B",
"Q  c #D06E3D",
"!  c #97364F",
"~  c #933A51",
"^  c #A53854",
"/  c #B03A50",
"(  c #8B514C",
")  c #A44759",
"_  c #B54D57",
"`  c #996849",
"'  c #896A54",
"]  c #B06E4B",
"[  c #A87654",
"{  c #B57B58",
"}  c #955867",
"|  c #AA4A63",
" . c #B2556B",
".. c #91736D",
"X. c #877874",
"o. c #BC7665",
"O. c #B56976",
"+. c #D84947",
"@. c #DB4C4D",
"#. c #DC554A",
"$. c #CF4E52",
"%. c #DD5959",
"&. c #D3734D",
"*. c #DF6258",
"=. c #E16B59",
"-. c #E27156",
";. c #D25A68",
":. c #C85975",
">. c #D06F6D",
",. c #E16A64",
"<. c #E37768",
"1. c #9FA12F",
"2. c #D4963C",
"3. c #F48537",
"4. c #D2B238",
"5. c #C6CE26",
"6. c #CFC93C",
"7. c #CCD235",
"8. c #B38558",
"9. c #B3B04B",
"0. c #9A996A",
"q. c #918C75",
"w. c #AA8B6E",
"e. c #B98967",
"r. c #A5A771",
"t. c #C68659",
"y. c #D98655",
"u. c #D89954",
"i. c #FB8F47",
"p. c #E9975A",
"a. c #F79A59",
"s. c #D8BA4D",
"d. c #D7A757",
"f. c #D9B75A",
"g. c #FFA75D",
"h. c #C68B68",
"j. c #CB956D",
"k. c #DA9566",
"l. c #D78F72",
"z. c #E68667",
"x. c #E49B66",
"c. c #EA9D65",
"v. c #E59768",
"b. c #EA9E68",
"n. c #F39960",
"m. c #E78D73",
"M. c #E89675",
"N. c #EB9C7B",
"B. c #CFA27A",
"V. c #EBA06A",
"C. c #EAA16A",
"Z. c #F3A369",
"A. c #F5A469",
"S. c #ECA773",
"D. c #EDA976",
"F. c #E6A77C",
"G. c #EEAD7D",
"H. c #FAAC73",
"J. c #FFB375",
"K. c #FCB67B",
"L. c #DAC75D",
"P. c #D7CE5A",
"I. c #DBDA61",
"U. c #C9CA70",
"Y. c #E7D26F",
"T. c #DCE263",
"R. c #676786",
"E. c #B77788",
"W. c #B4778C",
"Q. c #C57487",
"!. c #6CC5CE",
"~. c #78CCD5",
"^. c #59CFE5",
"/. c #6FD7E7",
"(. c #838384",
"). c #8B8B8B",
"_. c #968A88",
"`. c #949494",
"'. c #9B9897",
"]. c #9B9B9C",
"[. c #B29097",
"{. c #A7B49F",
"}. c #9F9FA0",
"|. c #B69AA1",
" X c #A4A4A4",
".X c #A7A7A8",
"XX c #AEAEAE",
"oX c #B2A6AA",
"OX c #B9AEB2",
"+X c #B2B2B3",
"@X c #BBB5B7",
"#X c #BCBBBC",
"$X c #C48796",
"%X c #C59099",
"&X c #CFA88A",
"*X c #E4AD81",
"=X c #ECAD81",
"-X c #EFB385",
";X c #EFB588",
":X c #F0B486",
">X c #FFBD87",
",X c #F0B689",
"<X c #F2BA8C",
"1X c #FABD8D",
"2X c #E0B791",
"3X c #F5BE90",
"4X c #C49CA7",
"5X c #CBADAA",
"6X c #C4ABB1",
"7X c #C3B4B9",
"8X c #C2BBBE",
"9X c #A9C2B6",
"0X c #FFCB8F",
"qX c #FFC492",
"wX c #FDC997",
"eX c #FDD4A1",
"rX c #FFE9AE",
"tX c #BFBFC0",
"yX c #C2BEC1",
"uX c #C8BFC9",
"iX c #87CBD2",
"pX c #B8CECD",
"aX c #9BDCE6",
"sX c #A2DEE9",
"dX c #90E3F7",
"fX c #ADE6F0",
"gX c #C3C3C4",
"hX c #C3C9CA",
"jX c #CACACC",
"kX c #C5DCE2",
"lX c #C7E5ED",
"zX c #C6EBF3",
"xX c #CAEDF5",
"cX c #CEF3FB",
"vX c #C6FAFF",
"bX c #D8F6FC",
"nX c #E6FDFE",
/* pixels */
"gXgXgXgXgXgXgXgXgXyXyXgXtXtXtXtX+Xq 9 r d f f f f s f f f s u u u u u u u f f f u i u u i u u u w : w s e : : % o l pXyX#X#X.X.X",
"gXtXgXgXgXhXjXgXyXgXgXyXtXtXtXtX#X> > 0 u s y y u u e s u y u u u u u u u u i s s i s s s s s u w : e u e ; : % o a #XtX@X@X.X.X",
"jXjXgXgXjXjXhXgXgXjXgXjXgX8X'.q.q.0 8 y k d k d j j d h h h h h h h h h h h y e e y e y e e i i e w w 0 0 0 q - % > Z C `.tX.X.X",
"gXgX8XpXjXjXgXgXhXgXgXgXgXpXv 6 6 d y k T Y T T Y P P P U P U P I U U P U P q 6 7 7 7 9 9 7 u s s s u 0 5 i i 6 : - o o n #X}. X",
"gXyXjXgXgXgXyXgXgXtXgXyXgXgXb 6 5 e w d T Y Y Y Y I U P U P P U U U I P U U q 6 7 7 7 7 9 7 i s s u s 5 6 i i 5 : - o o c {.'.}.",
"gXgXgXgXgXgXgXyXtXgXyX].b n g e y L I I I U I U I h h h h h h h h h h h j h y w e y y e y e w q e s s w 5 5 : e s w : : - o o '.",
"XXXXXXXXXXXXXXXXXXXX+XX.6 > e s s T T Y L P P P L u u u u u e w e w e e w w y u y u u u u u 9 5 0 s s q 5 6 : e i e : : - o o `.",
"XXXX+XXXXX+XXX+X+XXX+XX.6 5 e i s Y Y U L P L P L i u i u i s h s s s h s s h s h s s s h s 0 7 q s s 8 > 6 : e i e : : - o o `.",
"tXgXtXtXtXtX#X#XtXtX.XX.6 6 e s s P P P L P h i u 9 6 9 6 6 t.A.x.x.x.x.x.x.x.x.x.x.x.x.b.c.h e u s s q 6 5 : e p w : : - o o `.",
"gXyXtXtXtXyX#X#XtXtX XX.6 6 e s s L P P U U h s u = = - = % t.J.A.A.Z.A.Z.Z.Z.Z.Z.Z.Z.Z.A.b.u 5 e s h q > 5 : e G e : : - o o ).",
"gXhXhXjXtXtX#X#XhXhXoXX.6 > e s s L U L k L u q y L L k k k k.H.S.S.S.S.S.S.S.S.S.S.S.S.H.S.` Y L w e 0 6 7 $.G G e : : - o o ).",
"gXgXjXjXtXtX#X#XhXjX.XX.6 > w s s P U j y u 5 = e J.J.H.J.H.:X;X,X,X,X,X,X,X,X,X,X,X,X:X,X,XH.K.t.= 6 5 5 7 %.J G q : : - o o (.",
"tXtXgXgXpX8X8XtXgXgX.X(.6 > e s s U U L s p > X 7 V.Z.c.c.x.G.;X-X-X-X:X-X-X-X-X;X-X-X-X-X-XC.H.] ; 7 6 7 7 #.J G e : : % o o S ",
"tXtXgXtXgXgXtXtXgXn v g e e e s u e u e 0 7 ` &.{ G.G.D.G.G.-X;X-X-X-X:X-X-X-X;X-X-X-X-X-X:XG.>X8.: 6 7 5 7 @.J G r : : - o o S ",
"XX+X+XXXXXXXXXXXXX6 > q d s s s u > > : ; % t.Y.J.;X;X1XqX1X1X1X1X<X1X:X-X-X-X-X-X-X-X-X-X-X:XwXe.; 6 6 5 7 #.J G e : : - o o S ",
"XXXXXXXXXX+XXXXXXXr 6 q s s u s u 6 6 7 0 6 t.H.C.-X;X-XF.=XF.=X*X=XF.-X:X-X-X-X-X-X;X:X-X-X;XqXe.; 6 7 7 q #.J G q % % o o o S ",
"jXjXtXtXgXgXtXgXgX@X@Xq.s i s s u 5 = I H.x.G.-X-X-XqX[ e s h s d s q 8.0X-X-X-X-X-X=X:X:X-X:X0Xe.; 6 H +.+.@.J G q o o o o o A ",
"jXjXtXtXgXtXgXtXgX8X7X[.i s w 8 8 5 % ` K.A.G.;X;X-XwX[ * 5 5 5 5 5 * [ wX-X:X-X-X:X-X>XqXqXqXeXj.& 5 K @.@.$.J G w o o o o o Z ",
"jXjXjXjXgXjXgXhXgX_.W.' s u P ` U 7 = I J.C.G.<X-X-XqXh.I ` ` ` ` ` ( h.qX-X:X-X-X-X1XB.8.h.h.j.` ; 7 p p p ~ ~ ( z = @ o o o Z ",
"jXjXjXjXgXgXhXgXpX> : 0 s w t.0XC.7 % I J.C.G.;X-X;XG.1XwXqXqXqXqXqXqX<X=X-X-X-X:X-XwX` * q 8 8 q 6 6 > 6 5 ~ ( v z @ % o o o Z ",
"yXgXjXjXgXgXyXgX8X0 5 q s w 8.J.k.7 o ` J.c.G.;X-X-X-X-X-X-X;XF.:XwXwXqX*X;X:X-X-X-XqX[ w d 8 8 0 5 6 6 6 6 ~ } o.' o o 0 I I Z ",
"tXhXjXjXyXgXtXyXpX0 > 0 s 8 t.J.k.7 o I J.c.G.;X-X-X-X-X-X-X-XqXB.e a [ 0X:X-X-X-X-X0Xv o - 8.B.` : > H ) p ~ >.m.o.o o ( c.C.Z ",
"XX+XXX+X+XXXXX+XXX6 5 q s w t.J.p.5 % I J.c.G.<X-X-X;X-X-X-X-XwXe.    g eX;X-X-X-X;XeXa     *XrXj.= 6 _ ;.~ ( >.m.o.o o I V.C.Z ",
"XXXXXXXXXXXXXXXXXX0 9 q s w t.J.k.6 % I J.C.G.;X-X-X-X-X-X-X-XqXj.. . ' wX-X-X-X-X;XwXk . . F.eXe.& 0 ) ;.~ ~ >.z.o.o @ I V.V.Z ",
"tXtXgXhXgXgXtXtX#XOX[.' s q t.J.k.7 % I J.c.G.;X-X-X-X-X-X-X-X-XG.F.F.F.:X-X-X-X-X:X:XG.F.F.-X1Xm.;.;.;.;.~ ( >.m.o.o o L V.V.D ",
"tXtXjXgXgXgXtXtX#X7X}.w.s w t.0Xb.;   k J.c.G.;X-X;X,X;X-X-X<XqXqXqXqX<X-X-X-X:X-X-X-X<X1XqX;X=X=X/ $.$.:._  .<.M.>.5 5 ` c.V.D ",
"jXgXgXgXgXgXjXjXyX_...v s y ` t.{ L s { K.S.G.:X-XG.G.G.-X-XC.k.k.;X-X-X-X-X-X-X-X-X-X-X-X-X-X-X>.! ! ! ) ,.<.m.S.l.i i ] C.V.F ",
"gXgXgXjXgXgXjXjXuX9 9 0 p i w 9 s H.J.H.;X,X;X;XG.c.c.S.<X;X&.R Q <X;X-X-X-X:X-X-X-X:X;X-X-X;X-X<.! ! ~ ) <.m.M.F.h.i i ] C.C.F ",
"yXgXgXjXtXtXgXtXtX5 5 q i i i w d c.V.S.,X:X-X;X-Xc.c.D.<X,XQ R &.3X3X1XqX;X<XqX<X<X1X:X=X-X-X;Xm.$.;.;.>.m.M.=XG.j.u s b X.q.D ",
"yXgXgXgXtXtXtXgXyX_.X.v q q y y d C.Z.S.,X:X-X;X-XV.c.S.<X:XN.x.v.y.y.y.y.y.y.t.y.y.&.S.<X-X-X;XM.%.*.,.z.m.N.=XG.j.i s b Z S F ",
"XX+XXX+XXXXXXXXXXXoXoXX.9 ; e u d b.V.S.,X-X-X;XG.V.c.S.;X-X<XwXD.E E E E E E E E E R k.wX=X;X=XN.%.*.<.z.N.G.l.j.e.I I b Z Z S ",
"XXXXXXXXXX+XXX+XXXoXoX..9 9 e u d b.Z.S.,X-X:X;X-Xc.c.S.;X;X;X,XS.W W Q Q W W W W &.E k.3X;X;X;XM.%.*.*.<.N.=XP i P C.c.w.Z A F ",
"gXgXgXgXtXgXgXjXyX8X7X6X%X[.( u h b.Z.S.,X-X:X,X-XV.c.D.,X;X-X-X=XG.-X*X=X-XG.-X=X=X=X-X:X:X:X;XM.%.*.,.z.N.G.` u P V.V.w.D A F ",
"gXgXgXgXgXgXgXgXyX8X7X6X4X%Xv e j b.b.S.<X,X:X:X=Xc.p.D.<X:X:X:X-X<X;X<X,X,X;X<X<X,X<X:X-X-X:X:XM.%.=.=.z.N.=Xl.j.j.V.b.w.D S q.",
"gXjXgXgXjXjXjXgXgXgX8X7X6X4X} ( ( m.l.M.=XG.-X:X-XS.S.D.G.G.:X:X-X-X-X-X-X-X-X-X-X-X-X-X-X-XG.G.m.%.*.=.z.N.=X-X:XG.V.Z.e.(.S (.",
"gXjXgXhXjXjXgXgXgXgXuX8X7X4X4XQ.E.Q.:.>.c.c.=X:X-X;X<XG.p.c.G.:X-X-X-X-X-X;X-X-X-X-X-X-X:X-Xb.c.z.%.=.=.<.N.=X=XG.F.j.j.w.R.F (.",
"gXtXgXgXgXgXtXtXgXyXyX8X8X7X5X4X$XQ.Q.<.A.n.:X,X;X;X<XG.p.V.G.<X,X,X,X,X;X,X,X,X,X,X,X,X,X:XZ.n.v.%.,.<.M.N.F.b.C.j.S S F F F (.",
"gXgXgXhXgXgXtXgXyXgXtXyXgX8X7X6X%X[.Q.$X$X>.b.D.S.S.S.C.V.V.S.S.S.S.S.S.S.S.S.S.S.S.S.S.D.S.,.=.,.%.,.<.M.N.=XS.C.j.S F F (.(.).",
"+XXX+XXXXXXXXX+XXXXX+XXXXXoXoX|.|.[.[.W.E.O.l.c.b.p.a.b.V.V.V.c.C.c.c.c.c.c.c.c.c.c.c.c.c.c.@.@.@.*.=.<.m.m.b.e.w...Z Z D F (.`.",
"XXXXXX+X+XXXXXXXXX+XXXXXXX+X{.oX|.|.|.[.[.W.v.c.a.C.F.V.V.V.c.V.b.V.c.c.c.c.c.c.c.c.c.c.c.c.@.@.@.%.=.=.z.n.c...C C Z S F (.).].",
"yXyXtXtXtXtX#X#XtXtXoX.XgXtXyXyX8X7X6X6X6X4X%XQ.Q.~./.{.i.p.p.p.p.p.p.-.@.@.@.+.@.+.@.@.@.@.@.@.#.#.-.-.z.v.x.q.S F F (.`.]..X+X",
"yXgXtX8XtXtX#X#XyXyX.X.XgXtXyXgXyXyX8X7X6X6X4X4X$X!.^.{.3.3.a.g.a.3.3.$.^ ! ^ ! ^ ^ / +.+.+.+.#.#.&.2.4.4.C A S F F (.`.]..X+X#X",
"hXhXjXjXtXtX#X#XjXgXXX.X#X#XhXgXyXuXgXuXyX7XyXuXyXaXdX+XB.&X8.` 8.2XF.|.W.W.) ) ~ ) $.+.#.W #.%.-.-.2.6.9.A S F F (.`.}.XX@XtXhX",
"gXgXjXjXtXtX#X#XjXhX.X.X#X#XgXgXhXgXgXgXgXyXlXzXxXxXnXsX^./.x , x vXvXvXzXzX .) >.{ &.&.&.) _ ] y.u.4.P.P.r.r.(.(.`.}.{.+XgXgXhX",
"tXtXgXgXgXgXtXtXgXyX.X.XgXjXjXgXgXgXgXyXyXyXkXxXzXzXbXsX!.~.m 2 B cXxXxXzXzXO.O.u.u.d.d.d.c z [ s.L.L.I.T.T.T.0.).].}..X+X@X#XtX",
"tXtXtXgXgXtXtXtXgXgX.XXXgXgXgXgXgXuXpXjXkXkXlXzXzXzXxXfXsXfXm O m cXxXzXzXzXE.O.d.d.f.f.f.z l 0.I.I.I.I.T.T.T.q.`.]..X+X+XtX#X#X",
"XXXXXXXXXXXXXXXXXXXX+XXX+XXXXXXX+XXXXXpXzXzXxXxXzXxXxXcXcXbXm   c cXxXzXzXxXO.o.d.f.f.P.I.R.R.r.I.I.7.5.7.T.T.T.T.U.].}..X.XXXXX",
"XX+XXX+XXX+XXXXXXXXXXXXXXX+XXX+XXXXXoXpXzXzXzXzXzXlXzXzXxXcXc , m cXxXzXxXxXW.O.u.f.L.P.I.R.R.'.I.I.7.5.7.T.T.T.T.U.`.]..X.XXXXX",
"jXjXgXgXgXtXgXtXgXtXjXgXyXyXgXgXgXtXhXpXsXsXfXsXsX~.~.aXbXcXM < M cXxXzXxXxXiX!.9Xf.L.P.P.N V 0.T.T.7.5.5.I.Y.Y.I.U.]..XXX@X.X.X",
"jXjXgXgXyXgXtXgXtXgXgXgXyXgXgXtXyXyXhXpXdXdXdXdXdX~.!.aXbXcXM < B cXxXzXxXlX/.^.!.d.f.L.I.m x 0.T.T.7.5.P.-X=X;X-X&X`.}..X+X X.X",
"jXjXjXjXgXjXgXgXgXjXgXjXgXhXtXgXgXhXjXjXpXpXpXhXpXiX!.aXcXcXB < B cXxXxXxXlX9X9X{.u.f.L.L.m m 0.T.T.7.5.6.-X-X-X:X&X_.`..X@X}. X",
"jXhXjXhXgXgXjXgXgXhXgXgXgXgXgXtXuXhXhX2XH.H.H.H.*X~.!.aXbXcXB < M cXxXzXxXxXH.i.a.y.d.f.L.N V 0.T.T.7.5.6.-X;X-X-X&X).`. XXX}. X",
"8XtXjXjXjXgXgXgXgXtXgXhXgXgXtXgX8XpX8X5X:X=XqX0XwXdX/.fXnXnXV < V bXbXnXbXnX*Xp.p.y.u.d.P.S R.r.T.T.7.5.6.;X;X-X=XB.F ).`..X]. X",
"tXtXjXjXgXgXgXgXtXgXjXgXgXyXgXtX8XpXgX2X:X<X' r a x x B V V 4 1 4 V V B B B k.A.y.] W 8.8.M M S 9.9.1.1.1.e.e.*X-X&XF ).`..X]. X",
"XXXXXXXXXXXXXX{.XXXXXX+XXXXXXXXXXX+XXX&X:XqX:   . . .       # 3 #           t.J.8.1 1 1 1 1 1 1 3 1 1 1 1 O + e.-X&XZ F ).`.}..X",
"XXXXXX+XXX+XXX+XXX+XXXXX+X+XXXXXXX+XXX5X=X0Xc   # 1 1 1 3 1 1 1 1 1 1 3 1 1 c.A.{ 1 1 1 1 1 1 1 3 3 1 1 1 O # e.=XB.S D ).`. X.X",
"tXyXgXjXgXtXyXyXtXtX.XXX@X#X#XtXtXtX#X@X6X4Xl # 1 1 2 $ O # O O # # + $ < O _ _ 3 3 $ # # # @ # # # $ 1 1 1 $ C q.X.F ).`..X9X+X",
"tXgXgXgXtXtXtXyXtXtX.X.X#X#XtXtXtXyX#X@X7X4X4 1 1 1 1 < X + O X O O O $ 1 < | / 1 1 $ + + # + # # # $ 1 1 1 1 n S F (.).]..XXX+X",
"gXgXgXgXhXgXjXhXgXgX{..XtXtXjXjX#X#X#X@XOXoXt 1 1 1 < 2 t t t t t + O $ < 2 | / 1 1 $ # # # + + # # $ 3 1 1 1 c F S (.`.].XXtXpX",
"jXgXjXgXhXgXjXjXgXjXXXoXtXtXjXjX#X#X#X#X@X6Xc # 1 1 < ~ :.:.:.:. .O + # 1 <  .| 1 1 $ + + A S S Z Z 4 1 1 1 3 c F W.).}. XXXtXtX",
"gXtXgXgXtXtXyXtXyXgX.XXX#X#XhXgXgXgX8X8X@XOXc 3 1 1 1 z :.:.:.:.} # + 1 2 1  .| 3 1 # + + Z S S S S 4 3 1 1 1 B F (.).]. X+XtXtX",
"gXyXgXjXtXtXtXgXgXgX.X{.#XtXhXgXgXgXyX#X#XOX4 O @ @ @ z :.:.Q.Q. .. . X @ + | | # # + . . S F S F (.4 # # @ # n R.(.).]..X+XtXtX",
"+XXXXXXXXXXXXX+XXX+XXXXXXXXXXXXXXX+XXXXXXXoX4 . X . X t  .:.:.O.}       X . | ) X X .     S S S F F 4 + X X + c F F ).`.}. X.XXX",
"XXXXXX+X+XXXXXXXXXXXXX+XXX+XXXXXXXXX+XXXXXXXt @ @ @ % z :. .E.E.... . + @ # | | + + .     S S S (.(.4 . X + + M D q.).]. X.XXXXX"
};
