/* XPM */
static char *result[] = {
/* columns rows colors chars-per-pixel */
"64 64 233 2 ",
"   c #010103",
".  c #0A0809",
"X  c #120D0B",
"o  c #100C12",
"O  c #0E1118",
"+  c #111317",
"@  c #121419",
"#  c #18171A",
"$  c #23120E",
"%  c #2C120D",
"&  c #351409",
"*  c #2A1711",
"=  c #331C13",
"-  c #3D251A",
";  c #050B26",
":  c #161727",
">  c #1A1D24",
",  c #231E30",
"<  c #1D2127",
"1  c #343035",
"2  c #40271B",
"3  c #4B2719",
"4  c #442A1D",
"5  c #492C1F",
"6  c #562F1F",
"7  c #452D22",
"8  c #4C2D22",
"9  c #4D3124",
"0  c #533223",
"q  c #5B3525",
"w  c #5E3927",
"e  c #50312D",
"r  c #55392C",
"t  c #542B37",
"y  c #613B27",
"u  c #643C29",
"i  c #683E2B",
"p  c #554234",
"a  c #6C422D",
"s  c #72452F",
"d  c #774E2D",
"f  c #6D4632",
"g  c #65473A",
"h  c #744630",
"j  c #764932",
"k  c #7B5335",
"l  c #473C43",
"z  c #703A44",
"x  c #375767",
"c  c #4C4C51",
"v  c #735049",
"b  c #745A54",
"n  c #74625A",
"m  c #465663",
"M  c #525E6C",
"N  c #496067",
"B  c #55646D",
"V  c #5A6872",
"C  c #835B2F",
"Z  c #844E38",
"A  c #875837",
"S  c #8D563A",
"D  c #8C5C3D",
"F  c #91583C",
"G  c #956B32",
"H  c #9C7532",
"J  c #C14D1C",
"K  c #C45724",
"L  c #C75B29",
"P  c #CD6938",
"I  c #D06E3D",
"U  c #D0703F",
"Y  c #914F4E",
"T  c #996849",
"R  c #836555",
"E  c #A96F4A",
"W  c #A87756",
"Q  c #B57D56",
"!  c #A34E63",
"~  c #BA4E69",
"^  c #A9536A",
"/  c #BD536C",
"(  c #BE5670",
")  c #BC5C74",
"_  c #936E6F",
"`  c #877874",
"'  c #BA657A",
"]  c #BA6B7F",
"[  c #A0787B",
"{  c #D4714E",
"}  c #C04B68",
"|  c #C6546D",
" . c #C55571",
".. c #C65A75",
"X. c #C95A73",
"o. c #C85C77",
"O. c #D5746E",
"+. c #C5627B",
"@. c #C9647B",
"#. c #F48537",
"$. c #B4825E",
"%. c #93817C",
"&. c #B98965",
"*. c #A0827F",
"=. c #C68658",
"-. c #D98555",
";. c #FB8F47",
":. c #E9975A",
">. c #F99C59",
",. c #FFA75D",
"<. c #C38D67",
"1. c #C8956E",
"2. c #DB9565",
"3. c #D88C72",
"4. c #EB9066",
"5. c #E49B66",
"6. c #EA9D65",
"7. c #E3966A",
"8. c #EA9D68",
"9. c #E39679",
"0. c #D0A277",
"q. c #EAA16A",
"w. c #EBA16A",
"e. c #F0A167",
"r. c #F3A369",
"t. c #FCA96C",
"y. c #ECA773",
"u. c #EDA976",
"i. c #E4A97C",
"p. c #EEAD7C",
"a. c #F3A972",
"s. c #FCAE74",
"d. c #FFB375",
"f. c #FCB67B",
"g. c #FFC07C",
"h. c #B77282",
"j. c #B67787",
"k. c #B97485",
"l. c #B57D8B",
"z. c #C46C82",
"x. c #C96B83",
"c. c #C47589",
"v. c #C77589",
"b. c #C3798D",
"n. c #C67E92",
"m. c #6BC5CF",
"M. c #79CBD5",
"N. c #59CFE5",
"B. c #6FD7E7",
"V. c #978987",
"C. c #B0868E",
"Z. c #B68893",
"A. c #B48B95",
"S. c #A9969A",
"D. c #B3949C",
"F. c #B5969D",
"G. c #AAB29B",
"H. c #B29CA2",
"J. c #BF98A2",
"K. c #ABABA6",
"L. c #AEAEAE",
"P. c #B1A2A6",
"I. c #B0A6A9",
"U. c #BEA4AC",
"Y. c #B0AAAC",
"T. c #BEAAAF",
"R. c #BCAEB2",
"E. c #BDB3B6",
"W. c #BCB5B8",
"Q. c #BDBCBD",
"!. c #C6818C",
"~. c #C48494",
"^. c #C68696",
"/. c #C48C9B",
"(. c #C2919E",
"). c #E59A82",
"_. c #C8AC93",
"`. c #E4AD81",
"'. c #EBAE81",
"]. c #EFB385",
"[. c #EFB588",
"{. c #F0B486",
"}. c #FFBD87",
"|. c #F0B689",
" X c #F2BA8C",
".X c #FABD8D",
"XX c #E0B791",
"oX c #F5BE90",
"OX c #C58FA4",
"+X c #C594A1",
"@X c #C59AA6",
"#X c #C79AA7",
"$X c #C4A3AC",
"%X c #C2A8AF",
"&X c #D6B3A5",
"*X c #C4ACB3",
"=X c #CAA9B2",
"-X c #C3B1B6",
";X c #C3B5B9",
":X c #CCB4BB",
">X c #C2BBBE",
",X c #A9C2B6",
"<X c #FFC688",
"1X c #FFC492",
"2X c #FECA96",
"3X c #FBC998",
"4X c #FFD49E",
"5X c #FDD4A1",
"6X c #FFE9AE",
"7X c #90B7C2",
"8X c #BFBFC0",
"9X c #C2BFC1",
"0X c #CBBDC4",
"qX c #8ACFD8",
"wX c #B9CDC8",
"eX c #B6CED5",
"rX c #8DDEEE",
"tX c #9EDBE4",
"yX c #A2DEE9",
"uX c #90E3F7",
"iX c #ADE6F0",
"pX c #C3C3C4",
"aX c #C7C6C8",
"sX c #C9C6C8",
"dX c #CBCBCC",
"fX c #C5DCE2",
"gX c #C7E5ED",
"hX c #C6EBF3",
"jX c #CAEDF5",
"kX c #CEF3FB",
"lX c #C6FAFF",
"zX c #D8F6FC",
"xX c #E6FDFE",
/* pixels */
"pXpXpXpXpX>XaXaX,XsXpX8X,X>XpXQ.L.r 7 r j f f f f f f f f f f f f f f f f f f f f f f f f f f f R 9XQ.Q.Q.pXQ.wXpXsXsXaXQ.Q.K.K.",
"pX8XpXpXpXsXaXpXpX0X8XpX0XpX>XwX9X2 - 9 u u y u u u y u i y y y u y y i u u a f h i i f i i i i R ;XE.E.Q.>XQ.>XsXpXaXaXQ.Q.K.K.",
"aXsXpXwXdXdXsXpXaXpXaXpXpXsXS.%.` q 5 y k d d j j h h h h h h h j h h h h h w q y q w y y y u i v *.V.H.E.W.pXpXpXsXdXdXaX0XK.K.",
"aXsX9X>XdXdXpXpXpXaXpXaXsX0Xc - 5 i i C H G H H G S S S F S F F S S F S F F 0 2 5 5 5 5 8 8 i i a i i [ T.R.0XpXsXpXdXdXaXeXK.K.",
"pXpXaXaXpXpXpXwX8XpXpXwXpXpXb - 4 y q d H G G G G F S F S F S S F S S S F F 0 4 7 8 5 5 5 5 i s i i a *.$X*X;XQ.0XaXaXaX8X8XK.K.",
"wXpXaXaXpXpXpXpXpX8XpXK.n n g q y C C A F D A F S h h h h h h h h h h j h h y q q y y y y w q 0 q a a f v b *X-X8XaX9X0X8X8XK.K.",
"Y.L.L.L.L.L.L.L.L.L.L.n 5 - y a s G H G Z A Z S Z u u y u i q q q q q w q q y a u u u u u y 7 2 6 a a 0 - 4 D.H.Y.L.L.L.L.L.L.L.",
"Y.Y.L.L.L.L.L.L.L.L.K.%.5 - q a a G G A S S S S Z i i i i i a a a s a s a f a a a s a a s s 0 7 0 a a 6 2 8 Z.A.H.I.L.L.L.L.L.L.",
"pX8X>X>X>XwXQ.Q.8X8XK.n 7 7 q a i S S S A S h i i 2 5 8 4 2 =.a.5.5.5.5.5.5.5.5.5.5.5.5.8.7.h q i i a 0 - 8 ^.+X$X0X>X9X0XaXaXpX",
"8XpX8XwX>XQ.Q.Q.8X8XK.` 7 7 w i i A S S S F h i y * * * * $ =.d.r.r.r.r.r.r.r.r.r.r.r.r.t.e.y 3 w s h 0 - 8 c.^.OX$X;X>XpXaXaXaX",
"aXpXdXaXQ.9XQ.Q.aXdXK.` 4 2 q f a S S A j Z u 0 y k Z k k j 2.s.y.y.y.y.y.y.y.u.y.y.y.y.a.y.T G A 6 q 8 7 8 v.n.OX$X0X0XdXdXdXdX",
"pXaXdXaX8X8XQ.Q.dXaXK.` 7 2 q i i S F d y i 5 * w d.d.s.d.s.{.[.|.|.|.|.|.|.|.|.|.|.|.|.|.|.s.g.{ * 2 4 7 8 x.v.OX#X:X0XdXdXdXdX",
"8X8XpXwXpXpXQ.pXpXpXK.V.2 - w a a F F Z i s 2 X 8 e.e.6.6.6.'.|.].].].].].].].].].].].].{.].q.t.Q = 4 4 4 8 o.c.^.#X%X;XpX>XQ.Q.",
"8X8X9X>XpXaX,X0X9Xn c g w q y a a w y q 0 3 T Q $.p.p.u.p.p.'.{.{.].].].].].].].].].{.].{.].p.}.&.* 4 4 4 8 o.z.~.#X%X;X0XwXQ.Q.",
"L.L.L.Y.L.L.L.L.Y.5 - 0 s a a a y - - - = $ =.g.d.[.[. X.X.X.X X.X.X.X|.].].].].].].{.].].].|.3X&.* 4 4 7 4  .' k.Z.D.P.L.L.L.L.",
"L.L.L.L.L.L.L.L.L.r 7 0 a i i i u 4 - 4 6 4 =.s.w.].].].`.`.p.'.p.`.i.].].].].].].].].].].].].2X&.= 5 7 8 0 ( ) k.Z.H.U.Y.L.L.L.",
"dXdX>X>X9X9X9X9X>XE.E.*.a u a a y 2 * D a.5.p.].].].1XW q f f f a a 6 $.2X].].].{.{.{.{.].{.{.1X&.= 2 Y ~  .+.v.n.#X%X;XQ.8XK.K.",
"dXdXwXpXwX9XpX9XwX0X;XD.a a q 0 6 4 $ D f.t.p.[.[.].2XW & 3 3 3 3 3 & W 2X[.].].].{.'.<X1X1X1X4X1.= 3 !  . .x.c.^.#X*X:XQ.>XK.K.",
"dXdXdXdXaXpXpXaXpXV.V.R a y A E D 5 * D d.q.p.|.].].1X<.D T T T T T Y <.<X`.].].].]..X1.&.<.<.1.T = 3 z ! ! x.b.OX=X=X>XaXaXK.K.",
"dXdXdXdXpXaXpXaXpX2 - 0 a 6 =.<Xw.5 $ D d.q.p.|.].].'..X1X1X.X1X1X<X1X X].].].].].].2XT & 6 6 6 0 2 3 5 7 7 z.n.#X:X:X0XaX8XL.L.",
"9X9XdXdXpX9X9XpX>X9 - 0 a q =.d.2.5 # D d.6.p.|.].].].].].].].'.|.1X2X<Xp.].].].].].1XW q d 6 6 6 7 3 8 3 7 c.n.J.U.T.8X8X9XL.L.",
"9X0XfXdXwX>XpX9XwX9 2 0 a q $.d.2.3 $ D d.6.p.[.].[.].].].].].1X0.p p W 3X].].].].{.2Xv X * $.0.T = 3 z Y ! c.n.OXU.R.8X8X9XK.L.",
"L.L.L.L.L.L.L.L.L.4 - 6 a q =.d.2.3 $ D d.6.p.|.].].].].].].].2X&.    g 4X].].].].].4Xp     `.6X1.* 4 Y ~ ) h.k.l.D.P.Y.L.L.L.L.",
"L.L.L.L.L.L.L.L.K.r 5 0 a q =.f.2.4 $ D d.q.p.|.].].].].].].].1X1.. . R 4X].[.].].].3Xk . X i.5X&.% 8 Y  .) h.k.Z.H.P.Y.L.L.L.L.",
"9X,XdXsXsXpX>X,X0XR.S._ i q { f.2.4 $ D d.6.p.[.].].].].].].].].p.i.i.`.].].].].].].[.p.i.i.]..X3.} ~  .o.+.c./.#X*X9X0X8X9X8X8X",
"9X9XaXaX,XpXpX>X>X;XD._ i q <.g.e.=   k d.5.p.[.].|. X].].].oXoX1X1X<X X].].].].].].]. X1X1X].].). . .) z.c.n.OX@X0X0X0X8X9X8X8X",
"pXpXsXsXpXaXdXdXsXV.` v i y E <.Q k a Q f.y.].].].p.p.p.].].5.2.5.].].].].].].].].].].].`.].].].). . .+.h.c.Z.+X0X0X0XdXaXpXaXdX",
"sXsXsXpXaXaXaXaXpX4 - 0 i i q 3 i t.d.f.|.|.].|.p.6.6.u. X|.U J { ].].].].].].].].[.].[.].].].].). ...z.c.n.+XJ.0X0X0XdXpXaXdXaX",
",XsXaXaX9X9XpX8X9X4 2 0 h i i q h q.e.u.|.].].|.p.q.6.y.[.|.{ J { oXoX X1X X X X1X X1X[.].].].].).o.z.z.n.J.@XR.E.8XQ.Q.8X8X9X8X",
"pXpXaXaXpX,XpXaX9XV.` b 0 0 y y h 6.e.y.|.].].|.].q.6.u.|.|.y.7.2.-.-.-.-.-.-.-.{ -.{ q. X].].].9.o.z.b.Z.J.*X;XQ.;XQ.wX8X8X8XpX",
"Y.L.L.L.E.L.L.L.Y.Y.P._ 2 - q y h q.e.y.|.].].].p.q.6.u.[.]. X3Xu.K L L L L L L L L J 2.oX[.].].).( ) j.Z.J.P.Y.Y.Y.L.L.W.L.L.L.",
"L.L.L.L.Y.L.L.L.Y.Y.P.` 8 7 q u h q.e.y.|.].].|.].6.6.u.|.].{. Xu.P P I U U U U P { L 7.oX].].'.9. .h.j.Z.H.I.Y.L.L.L.L.L.L.L.L.",
"pX8XaXpXpX9XaXpX8X>X;XT.F.l.Y q h 8.e.y.|.].].[.{.8.6.u. X].].].].].].].p.].p.].'.'.'.'.{.{.{.{.9.+.z.Z.+XT.W.Q.aXaXaXaXQ.Q.K.K.",
"8XwXpXpX9X9XpXaXpXQ.;X*X#X/.v e h 6.e.y. X|.].[.p.8.:.u. X|.].].].]. X|.|.|.|.[. X X|.|.{.{.|.|.).o.z.n.+X%X;XQ.pXaXaXaXQ.Q.K.K.",
"aXsXpX9XdXdXaXpXpXpX0X;X=X#X_ Y Y 3.3.9.'.p.'.|.].y.y.u.p.p.{.].].].].].].].].].{.'.{.|.{.'.p.p.9.+.c.n.J.U.>XpXaXaXdXdXaX0XK.K.",
"aXdXpXaXdXdXpXaXpXpX0X>X-X%XJ.n.b.z.o.O.6.6.p.[.].|. Xy.5.6.p.[.].].].].].].].].].].].'.{.{.8.6.3.o.z.Z.J.U.0XpXaXaXdXdXaXwXL.K.",
"pX9XsXpXpXpXwX8X>X>X8X>X9X0X$X#X~.b.v.3.e.e.p. X|.|. Xp.6.6.].|.|.|.|.|.|.|.|.|.[.|.|.|.|.{.w.6.4...v.~.+X%X;X8XaXaXaXaX8X8XK.K.",
"9XpXaXpXpXpX8XpXpXpXpX8X8X0X*X$XF.^.~.v.!.O.8.p.y.y.y.w.8.q.y.y.y.y.y.y.u.y.y.y.y.y.y.y.y.a.O.O.@.o.v.^.@X*X;X9XaXaXaX0X8X8XK.K.",
"L.L.L.L.L.L.W.L.L.L.L.L.L.Y.I.P.F.A.Z.l.k.] 4.6.6.:.>.8.w.q.6.6.6.6.6.6.6.6.q.5.6.6.6.6.6.6.} ~ / ) ] l.A.H.I.L.L.L.7XR.L.L.L.L.",
"L.L.L.L.L.L.L.L.L.L.L.Y.L.L.Y.L.P.F.F.A.Z.l.3.6.e.8.i.8.e.8.q.e.8.w.8.8.6.6.5.6.8.8.8.7.8.8.| } ( ' k.l.D.H.K.L.L.L.L.L.L.L.L.L.",
"aXpX>XpX>X8XQ.Q.8X8XL.K.8X8X9X0X>X;X-X*X$X+X(.!.~.M.B.G.;.:.:.:.:.:.:.O. . .|  .X.X.~ } ..X...+.@.v.^.(.%X;X>X8XaXaXpXpXaXaXpXaX",
"8XwXpX,X8X8XQ.Q.8X8XL.K.8X8X8X8XQ.>X;X;X-X%X@X(.^.m.N.G.I ;.>.,.>.#.#.{  . . . .X.o./ / o.o.+.z.c.~.(.@X*X;X>X>XaXaXpXpXaXpXaXpX",
"sXsXdXdXpX0XQ.Q.aXaXL.K.8X8X8X9XaXpXpXpX9X>XaX0X9XqXrXW.q._.$.G $.XX`.#XOXOXz.o.x.v.' ) x.z.v.n.^.+X$X*X;XpXpXpXwXaXdXdXfXdXdXdX",
"pXpXaXdX>X,XQ.Q.aX8XK.K.8X8X8X8XaXaXpXpX0X9XgXhXjXjXxXyXB.B.x ; m lXlXlXhXhXc.z.v.b.] ] b.n.^./.+X$X=X:X>XpXsXpXaX9XdXdXdXdXdXdX",
"wX>X9XpXpXQ.wX>X9XpXK.K.pXaXpXaXaXpXpX9X9X9XfXhXhXhXzXyXm.M.m , B kXjXhXjXhXn.c.~.^.C.l.+X@X#X$X=X*X-X>X>X8XpX8XaXaXwXpXsX9XQ.Q.",
">XQ.pXwXpXpXQ.>XpXwXK.K.aXpXaXdXaXaX8XaXfXfXgXhXhXhXjXiXyXiXm ; m kXjXhXhXhXn.b.^.+XC.A.%X*X=X-X:X>X>X>XpXaX8XpXaXaX9XpX0XQ.Q.Q.",
"L.L.L.L.L.L.L.Y.L.L.W.L.L.L.L.L.L.L.L.eXjXhXjXhXhXjXjXjXkXzXc . m kXjXhXhXjXk.k.l.A.D.H.P.P.P.I.Y.Y.L.L.L.L.L.L.L.L.L.L.W.L.L.L.",
"L.Y.L.L.W.L.L.L.L.L.L.L.L.L.L.L.L.L.L.wXhXhXhXhXhXhXhXjXjXkXm o m jXjXjXjXjXk.k.Z.Z.F.P.I.Y.Y.L.Y.L.Y.L.L.L.L.L.L.L.L.L.L.L.L.L.",
"dXdXaXpXsXpX0XpX8XpXaXpXpXwX>X>X9XpXpXeXyXyXyXiXtXM.M.tXkXkXM : M kXhXhXjXhXqXm.7X@X*X:X8X9X9X9XpX>XpXpXpXpXaXaXaXpXpX0X,X,XY.L.",
"dXdXQ.pX,XpXpX8XsX,XaXpX9XpX9XpXpXwXpXeXuXuXuXuXuXM.m.tXkXkXM : B kXjXhXjXhXM.N.M./.$X;X;X9X8X8XpXwXpXsXpXpXpXaXaXaXsX,X0X0XK.I.",
"aXdXaXdXaXpXaXpXsXpXpXaXaXaXpX8XaXpXaXaXwXwXwXaXwXM.m.tXzXkXM : M kXkXhXjXhX,X,XP.^.#X*X0X9X9X9XpXaXaXaXdXdXpXpXdXdXdXsXdXaXK.K.",
"dXdXaXdXpXaXpXaXsXsXpXsXpXpX8XpXpXaXpX&Xs.s.f.s.`.M.m.tXzXkXM : M kXjXhXhXhXa.;.4.n.OX#X*X9X8X9XaXpXaXpXdXdX9XpXdXdXaXaXdXaXI.K.",
"wX>XdXdXaXpXpXpXpX9XpXaXpX0XpX9X9X9X0X&X].].1X<X5XrXB.iXxXxXV : V xXzXzXzXzX].:.9.c.^.#X$X;X8X9X8XpXaXaXpXpX,XsX8X8X8X8X8X8XI.L.",
">XQ.dXdX9XwXpXaX9XwXaXaX,XsX8XpXwX8XaX&X{..XR p c x x N V V 1 > 1 V V V B B 2.t.4.z.~.OX$X-X;X8XpX8XaXaXpX9X9XpX8X8X8X8X8XwXL.K.",
"L.L.L.W.Y.L.L.L.L.Y.L.L.L.L.L.L.L.W.L._.{.<X,     . . . . . @ > @           =.s.7.) h.k.A.H.I.Y.L.L.L.L.L.L.L.L.L.L.L.L.L.L.L.L.",
"L.L.L.L.L.L.L.L.L.L.W.L.L.L.L.L.L.L.L._.].3Xp   @ > > > > # > > > > > > : > 4.t.3.) z.j.A.H.I.Y.L.L.L.L.L.L.L.L.L.L.L.L.L.L.L.L.",
"8X8XpXaX9X9X8X9XpXwXK.L.8X8X8X8X>XQ.Q.E.*X$Xc O > > > : O @ @ @ @ @ O # > O / .. .x.) h.D.U.R.8X8X8XQ.8X8X8X8X8XwX0XaXaX9X8X8X8X",
"8X8XaXpX8X9X8X9XQ.;XK.K.L.8X8X8XwXQ.Q.E.E.@X1 < > > > # o @ o O + O O # > : ~ |  .z.h.h.J.U.8X8X8X8XQ.W.8X8X8X8X0XaXaXdX9XpX8X8X",
"pXaXwX0XaXaXaXdXaXpXK.K.8X8XwX0XQ.Q.Q.W.R.U.l : > > > 1 t t t t 7 @ O : > < ^ X.x.x.h.l.U.*X0XdXQ.Q.8X8X8X8X8XW.dXdXdXdXaXaXdXdX",
"aXpXaXaXaXaXdXaXaXaXK.K.8X8XdXdXQ.Q.Q.Q.E.U.e < > > , z X. .X.X.( O O # < > / o.x.k.j.l.$XE.0XaXQ.Q.W.8X8XW.8X8XfXdXdXdXaXaXdXaX",
"wX9XaXaX9X8XaXwX8X8XK.K.8X8X8X8XpXpX8X>XW.E.c < > < < z  . .o...! @ @ # < < ^ +.z.n.l.A.U.R.aXaXwX8X8X8X8XW.9XpX8X8X8X8X8X8X8X8X",
"9X9XaXpX9X9X8X8X8X8XK.L.8X8XaXaXpXpXQ.Q.W.W.1 @ + + O z o.o.z.z.^ . . o @ @ ^ x.c.n.Z.S.R.8XaXaX8X8X8X8X8XwX8X9X8X8X8X8X8X8XwX8X",
"L.L.L.L.L.L.L.Y.L.L.L.L.L.L.L.L.W.L.L.L.L.K., X X . . t ( ( ) ' _       X X ! ..h.j.D.H.I.L.L.L.L.L.L.L.L.L.L.L.L.L.L.L.L.L.Y.Y.",
"L.L.L.L.L.L.L.Y.R.7X8XL.L.L.L.L.L.L.L.L.L.Y.e # # # # z ) ) h.k._ . . X # + ^ ' k.l.D.H.Y.L.L.L.L.L.L.L.L.L.L.L.L.L.L.L.W.L.L.L."
};
