/* XPM */
static char *result[] = {
/* columns rows colors chars-per-pixel */
"64 64 148 2 ",
"   c black",
".  c #1E1E1E",
"X  c #202020",
"o  c #202021",
"O  c #343434",
"+  c #373737",
"@  c gray22",
"#  c #383839",
"$  c #464646",
"%  c gray28",
"&  c gray29",
"*  c #4B4B4B",
"=  c #4C4C4C",
"-  c #565656",
";  c gray34",
":  c #5A5A5A",
">  c #5B5B5B",
",  c gray36",
"<  c #5D5D5D",
"1  c #5D5D5E",
"2  c gray37",
"3  c #5E5E5F",
"4  c #5F5F5F",
"5  c #5F5F60",
"6  c #727272",
"7  c gray45",
"8  c #797979",
"9  c #79797A",
"0  c gray48",
"q  c gray53",
"w  c #888888",
"e  c #888889",
"r  c #89898B",
"t  c gray54",
"y  c gray55",
"u  c #919192",
"i  c #939393",
"p  c #959595",
"a  c #979797",
"s  c #969698",
"d  c #979798",
"f  c #989899",
"g  c #9D9D9E",
"h  c #9F9F9F",
"j  c #A4A4A5",
"k  c #A9A9A9",
"l  c #AAAAAA",
"z  c gray68",
"x  c #AFAFAF",
"c  c gray69",
"v  c #B2B2B2",
"b  c #B3B3B4",
"n  c #B4B4B4",
"m  c gray71",
"M  c #B6B6B6",
"N  c #B6B6B7",
"B  c #B7B7B7",
"V  c #B7B7B8",
"C  c gray72",
"Z  c #B9B9B9",
"A  c #B9B9BB",
"S  c gray73",
"D  c #BABABB",
"F  c #BBBBBB",
"G  c #BBBBBC",
"H  c #BCBCBC",
"J  c #BCBCBD",
"K  c gray74",
"L  c #BDBDBE",
"P  c gray75",
"I  c #BFBFC0",
"U  c #C0C0C0",
"Y  c #C0C0C1",
"T  c #C1C1C1",
"R  c #C1C1C2",
"E  c gray76",
"W  c #C2C2C3",
"Q  c #C3C3C4",
"!  c #C4C4C5",
"~  c #C4C4C6",
"^  c #C5C5C6",
"/  c #C5C5C7",
"(  c #C6C6C6",
")  c #C6C6C7",
"_  c gray78",
"`  c #C7C7C8",
"'  c #C8C8C8",
"]  c #C8C8C9",
"[  c gray79",
"{  c #C9C9CA",
"}  c #C9C9CB",
"|  c #CACACA",
" . c #CACACB",
".. c #CBCBCB",
"X. c #CBCBCC",
"o. c #CBCBCD",
"O. c gray80",
"+. c #CCCCCD",
"@. c #CDCDCD",
"#. c #CCCCCE",
"$. c #CDCDCE",
"%. c #CDCDCF",
"&. c #CECECE",
"*. c #CECECF",
"=. c gray81",
"-. c #CECED0",
";. c #CFCFD0",
":. c #D0D0D0",
">. c #D0D0D1",
",. c #D0D0D2",
"<. c #D1D1D2",
"1. c #D2D2D2",
"2. c #D2D2D3",
"3. c LightGray",
"4. c #D3D3D4",
"5. c #D3D3D5",
"6. c gray83",
"7. c #D4D4D5",
"8. c #D5D5D5",
"9. c #D5D5D6",
"0. c #D5D5D7",
"q. c gray84",
"w. c #D6D6D7",
"e. c #D7D7D7",
"r. c #D6D6D8",
"t. c #D7D7D8",
"y. c #D8D8D8",
"u. c #D8D8D9",
"i. c #D9D9DA",
"p. c #DADADA",
"a. c #DADADB",
"s. c gray86",
"d. c #DBDBDC",
"f. c #DBDBDD",
"g. c gainsboro",
"h. c #DCDCDD",
"j. c #DDDDDD",
"k. c #DDDDDE",
"l. c gray87",
"z. c #DEDEE0",
"x. c #DFDFE0",
"c. c #E0E0E1",
"v. c #E1E1E1",
"b. c #E2E2E2",
"n. c #E2E2E4",
"m. c #E3E3E4",
"M. c #E4E4E4",
"N. c #E5E5E6",
/* pixels */
"R R ~ ~ T T ^ ^ R R R R I I I I I I J J I I I I ^ ^ ^ ^ J J k k R R ~ ~ T T ^ ^ R R R R I I I I I I J J I I I I ^ ^ ^ ^ J J k k ",
"R R ~ ~ T T ^ ^ R R R R I I I I I I J J I I I I ^ ^ ^ ^ J J k k R R ~ ~ T T ^ ^ R R R R I I I I I I J J I I I I ^ ^ ^ ^ J J k k ",
"] ] R R %.%.^ ^ ^ ^ ^ ^ ^ ^ J J J J J J J J ^ ^ ) ) %.%.] ] k k ] ] R R %.%.^ ^ ^ ^ ^ ^ ^ ^ J J J J J J J J ^ ^ ) ) %.%.] ] k k ",
"] ] R R %.%.^ ^ ^ ^ ^ ^ ^ ^ J J J J J J J J ^ ^ ) ) %.%.] ] k k ] ] R R %.%.^ ^ ^ ^ ^ ^ ^ ^ J J J J J J J J ^ ^ ) ) %.%.] ] k k ",
"R R ^ ^ W W R R R R R R ^ ^ ^ ^ J J R R R R R R ) ) ` ` J J k k R R ^ ^ W W R R R R R R ^ ^ ^ ^ J J R R R R R R ) ) ` ` J J k k ",
"R R ^ ^ W W R R R R R R ^ ^ ^ ^ J J R R R R R R ) ) ` ` J J k k R R ^ ^ W W R R R R R R ^ ^ ^ ^ J J R R R R R R ) ) ` ` J J k k ",
"M Z M x x x c Z Z Z Z Z Z Z Z Z Z Z Z Z Z Z Z Z M x x x x x x x x x x x x x x x c Z Z Z Z Z Z Z Z Z Z Z Z M x x x x x c Z Z Z Z ",
"3.3.3...x m &.3.3.3.3.3.3.3.3.3.3.3.3.3.3.3.3.3.3...x x x x x x x x x x x x x m &.3.3.3.3.3.3.3.3.3.3.3.3.3...x x x m &.3.3.3.3.",
"U M P j.&.q.d.b m m l l M M M M M M M M M M M M W c.<.Q / / / / R R I I I I J 7.j.m l l M M M M M M M M M U l.;.^ ^ u.x.V V V V ",
",   , j.8.j.d.                                  1 c.u.Q / / / / R R I I I ! X.d.j.                        , l.w.2.^ x.x.        ",
"1   3 n.8.j.d.                                  1 c.k.X.%.%.*.*.^ ^ } } ! j.d.d.b.                        1 c.c.c.a.M.M.        ",
"o   3 n.8.j.d.          u b V V V V V V V V V V W c.t.X.%.%.*.*.^ ^ } } X.j.g > 2     $ b b V V V V V =   o 1 1 W c.M.M.        ",
"    , l.w.l.j.          V c.c.c.c.c.l.l.l.l.l.l.v.s.R R I I L L I I R R =.l.i         - c.c.c.c.c.c.l.,         C v.l.l.        ",
"    , l.w.l.j.          V c.+.+.+.+.{ { { { { { X.) R R I I L L I I R R =.l.i         - c.i.+.+.+.i.l.,         C v.l.l.        ",
"    ; 3.| 3.3.          z 3.| | | | | E S x x x x x x x x x x x x x x x U 3.y         ; 3.| x x x | 3.;         z 3.3.3.        ",
"    ; 3.| 3.3.          z 3.3.3.3.3.3.3.3.S x x x x x x x x x x x x x x U 3.y         ; 3.| x x x | 3.;         z 3.3.3.        ",
"    , j.w.l.l.          * , , , , , 1 e x.2./ / / / R R I I k k *.*.I I =.l.i         1 l.w.R R R w.c.1         V c.l.l.        ",
"    , j.w.l.l.                        1 x.u./ / / / R R I I k k *.*.I I =.l.i         1 l.w.R R R w.c.1         V c.l.l.        ",
"    3 n.i.c.c.          = 1 , , 1 1 1 e M.u.R R *.*.^ ^ } } k k } } } } 2.c.p         1 c.i.R R ^ i.c.1         G N.c.c.        ",
"    3 n.i.c.c.          V c.l.l.c.c.c.c.M.2.R R *.*.^ ^ } } k k } } } } 2.c.p         1 c.i.R R ^ i.c.1         G N.c.c.        ",
"    5 N.w.l.l.          M l.w.w.w.w.p.8.| R I I L L I I R R k k I I *.*.=.l.i         2 l.w.R R R w.v.2         n g.j.j.        ",
"    5 N.w.l.l.          M l.{ R R R ) ) R R I I L L I I R R k k I I *.*.=.l.i         2 l.w.R R R w.v.2         n g.q.j.M M 6   ",
"    ; 3.| 3.3.          z 3.Z x x x x x x x x x x x x x x x x x x x x x U 3.y         ; 3.| x x x | 3.;         z 3.Z &.3.3.y   ",
"    ; 3.| 3.3.          z 3.Z x x x x x x x x x x x x x x x x x x x x x U 3.y         ; 3.| x x x | 3.;         z 3.Z c U 3.y   ",
"    1 c.w.l.j.          v p.$.$.$.$.X.X.$.$.$.$.>.} / / R R I I I I ^ ^ =.l.i         - p.1.$.$.$.8.d.>         V c.#./ ' l.j.j.",
"    1 c.w.l.j.          v p.j.j.j.j.d.d.j.j.j.j.c.c.} / R R I I I I ^ ^ =.l.i         - p.p.j.j.j.j.d.>         V c.#./ R ' q.j.",
"    1 c.i.c.n.          9 i d d u u u u u u u u j N.i.*.^ ^ } } ^ ^ ^ ^ +.c.A s p     O i i d d u u u +   + u u <.N.<.*.^ ^ } 0.",
"    1 c.i.c.n.                                  5 N.x.*.^ ^ } } ^ ^ ^ ^ ) h.n.n.c.                        > d.d.N.z.*.*.^ ^ } %.",
"    1 c.8.j.l.                                  , j.6.L I I R R R R ^ ^ I Y { l.l.                        > l.w.) I L L I I R R ",
"l.l.c.c.&.q.l.l.l.l.:.:.d.d.c.c.x.x.j.j.d.d.l.l.j.j.+.L I I R R R R ^ ^ I I R e.l.l.:.:.d.d.c.c.x.x.j.j.d.d.l.;.I I L L I I R R ",
"3.3...T x m ..3.3.3.3.3.3.3.3.3.3.3.3.3.3.3.3.3...T x x x x x x x x x x x x x m ..3.3.3.3.3.3.3.3.3.3.3.3...T x x x x x x x x x ",
"x x x x x x x x x x x x x x x x x x x x x x x x x x x x x x x x x x x x x x x x x x x x x x x x x x x x x x x x x x x x x x x x ",
"R R ~ ~ T T ^ ^ R R R R I I I I I I J J I I I I ^ ^ ^ ^ J J k k R R ~ ~ T T ^ ^ R R R R I I I I I I J J I I I I ^ ^ ^ ^ J J k k ",
"R R ~ ~ T T ^ ^ R R R R I I I I I I J J I I I I ^ ^ ^ ^ J J k k R R ~ ~ T T ^ ^ R R R R I I I I I I J J I I I I ^ ^ ^ ^ J J k k ",
"] ] R R %.%.^ ^ ^ ^ ^ ^ ^ ^ J J J J J J J J ^ ^ ) ) %.%.] ] k k ] ] R R %.%.^ ^ ^ ^ ^ ^ ^ $.$.4.X.R J J J J ^ ^ ) ) %.%.] ] k k ",
"] ] R R %.%.^ ^ ^ ^ ^ ^ ^ ^ J J J J J J J J ^ ^ ) ) %.%.] ] k k ] ] R R %.%.^ ^ ^ ^ ^ ^ $.c.d.d.d.d.R J J J ^ ^ ) ) %.%.] ] k k ",
"R R ^ ^ W W R R R R R R ^ ^ ^ ^ J J R R R R R R ) ) ` ` J J k k R R ^ ^ W W R R R R R R 7.c.e 1 g d.@.R R R R R ) ) ` ` J J k k ",
"=.=.2.+.Q W R R R ) @.=.2.2.2.2.X.Q W { =.@.' =.3.3.$.` Q X.F F =.=.+.) ] ;.=.=.=.=.=.@.i.c.1   u d.=.=.=.' R ' 3.3.4.4.X.Q k k ",
"3.3.3.3.&.c x x m 3.3.3.3.3.3.3.3.3.&.3.3.3.3.3.3.3.3.[ 3.3.3.3.3.3.3.&.3.3.3.3.3.3.3.3.3.3.;   y 3.3.3.3.3.[ 3.3.3.3.3.3.3.[ B ",
"y y y z 3.[ x x T 3.a y y y y y y 3.3.z y a U y y y U 3.3.y y y y y z 3.3.y y y y y y a 3.3.;   y 3.U y y 3.3.U y y y y y U 3.3.",
", , X 8 | j.Q J 8.j.-   @ , , *   M l.i   * h , 1 1 R x.c.1 1 1 , X 8 | j.    & , , O $ U l.,   i | i X , l.| i o 1 < <   p w.w.",
"M M *   i j.X.J 8.j.-   i l.l.M     l.i   X q l.c.c.x.x.c.V V V M *   i j.    b j.j.t   , l.,   0 0 X q l.l.i   = V N N     V V ",
"1 1 3 3 h j.] J s.b.-   u d.c.V     c.p   1 c.c.i.i.M.p.G   5 5 1 o   s j.    b b.b.t   > d.1   # # = W c.c.p   o 1 4 4 5 5 ) G ",
"c.c.n.n.j.j.R J s.b.-   u d.c.V     c.p   1 c.i.^ +.M.F     N.N.c.1   s j.    b b.b.t   > d.1   p p   1 c.c.p   1 c.M.M.N.N.N.G ",
"      i l.=.I I w.l.-             c.l.i   , l.w.) ` p.l.j.            i l.    m l.l.t   1 c.1   p c.M     l.l.M           m g.g.",
"j.j.l.l.l.' I I w.l.-   p c.c.c.c.c.l.l.l.l.l.;.) ) ) e.j.j.g.g.j.j.l.l.l.l.j.j.p.l.:.:.c.c.c.c.c.c.l.l.l.l.p.l.v.v.l.l.j.j.y.8.",
"3.3.3...B x x x | 3.;   y 3.3.3.3...B ..3...T x x x x m ..3.3.3.3.3.3.....3.3...m B ..3...T ..3...B ..3.3...m ..3.3.3.3.3...m m ",
"x x x x x x x x | 3.;   y 3.U x x x x x x x x x x x x x x x x x x x x x x x x x x x x x x x x x x x x x x x x x x x x x x x x x ",
"*.*.I I R R R R ;.l.W V | l.' R R R ^ ^ Q Q / / / / R R I ! H ( a.9.I I R R R R R R ^ ^ R R R R R R ^ ^ Q Q / / / / R R I I H ( ",
"*.*.I I R R R R R y.c.c.l.q.R R R R ^ ^ Q Q / / / / R R ! j.:.:.N.N.] I R R R R R R ^ ^ R R R R R R ^ ^ Q Q / / / / R R I e.:.:.",
"} } } } ^ ^ ^ ^ ^ ^  .+.{ ^ R R ^ ^ ^ ^ X.X.R R *.*.^ ^ 5.n.p - r n.r.} ^ ^ ^ ^ ^ ^ ^ ^ ^ ^ R R ^ ^ ^ ^ X.X.R R *.*.^ ^ -.n.n - ",
"0.0.0.0.2.X.) +.2.2.2.2.2.2.' R X.2.2.X.X.;.@.=.7.;.^ ^ 0.n.t   3 n.f.0.2.X.^ X.2.2.2.2.2.+.W ' 2.2.X.^ +.1.=.@.2.*.^ ^ ,.n.l   ",
"j.j.N.N.l.l.p.l.l.l.v.v.l.l.l.q.l.l.v.v.' l.j.j.g.y.Y I =.l.t   , j.N.N.l.l.q.l.l.l.v.v.l.l.p.l.l.l.v.i.p.l.j.j.g.W I Y p.l.l   ",
"i i f f i l.l.M i i p p i i | l.| i p v.e.l.h i n g.` I =.l.t   , j.N.f i | l.l.i i p p i M l.l.i i @.v.l.M i h g.+.I ` l.M 6   ",
"; ; ; %   z 3.y   . ; ; ;   y | z     3.3.3.;   y 3.U x U 3.y   ; | z   ; B | z   ; ; ; . 7 U 3.    z 3.3.y   ; 3.| x K 3.a %   ",
"z z z y     3.y   ; 3.3.3.    z z     3.3.3.;   y 3.U x U 3.y   % y   ; 3.3.z     z z z %   y 3.    z 3.3.y   ; 3.| x m 3.3.z   ",
"@ , 1 =     j.i   , :.:.p.    m m     d.j.j.,   p c.2./ =.l.i   X *   V l.l.m     , - - : : h j.    b d.j.i   , c.i./ / { l.m   ",
"i j.c.V     j.i   , :.:.p.    m m     d.j.j.,   p c.2./ =.l.i   , m     l.l.m     j.:.:.p.p.j.j.    b d.j.i   , c.i./ / { l.m   ",
"            n.s   1 :.:.k.    D d.d.            f N.i.*.2.c.s   1 c.c.    V n.n.          i m.m.d.>           > N.x.*.*.) h.n.A ",
"c.c.c.c.c.c.n.n.c.c.:._ k.k.m.m.t.d.d.d.d.d.>   f N.i.*.X.c.n.n.c.c.c.c.c.c.z.n.c.c.:.:.k.k.m.k.d.d.d.d.d.u   > N.x.*.*.^  .z.n.",
"l.l.c.c.j.j.e.e.l.e.H c 7.d.c.a.<.x.j.j.d.d.,   i j.O.L I ) e.l.e.;.a.c.j.q.) e.l.l.:.:.d.7.o.%.x.x.j.j.d.u   , j.8.L L I I ) e.",
"R R ^ ^ I I R R R R k k J J / / u.x., , > > X 0 | j.! L I I R R R R ^ ^ I I R R R R k k J J / 7.x.w , , > + * U j.&.L L I I R R ",
"x x x x x x x x x x x x x x x x T 3.z z z z z U 3.[ x x x x x x x x x x x x x x x x x x x x x S 3.B z z z z B 3...x x x x x x x ",
"x x x x x x x x x x x x x x x x c &.3.3.3.3.3.3.[ x x x x x x x x x x x x x x x x x x x x x x x ..3.3.3.3.3.3...x x x x x x x x "
};
