/* XPM */
static char *result[] = {
/* columns rows colors chars-per-pixel */
"64 64 161 2 ",
"   c black",
".  c #1D1D1D",
"X  c #1F1F20",
"o  c #202020",
"O  c #202021",
"+  c #343434",
"@  c #353535",
"#  c #373737",
"$  c gray22",
"%  c #383839",
"&  c #393939",
"*  c #464646",
"=  c gray28",
"-  c gray29",
";  c #4B4B4B",
":  c #4C4C4C",
">  c gray30",
",  c #4E4E4E",
"<  c #565656",
"1  c gray34",
"2  c #5A5A5A",
"3  c #5B5B5B",
"4  c gray36",
"5  c #5D5D5D",
"6  c #5D5D5E",
"7  c gray37",
"8  c #5E5E5F",
"9  c #5F5F60",
"0  c gray45",
"q  c #787879",
"w  c #797979",
"e  c gray48",
"r  c #7E7E7E",
"t  c #808080",
"y  c gray53",
"u  c #888889",
"i  c gray54",
"p  c gray55",
"a  c #919192",
"s  c #929292",
"d  c #939393",
"f  c #949495",
"g  c #959595",
"h  c #979797",
"j  c #969698",
"k  c #979798",
"l  c #989899",
"z  c gray62",
"x  c #9F9F9F",
"c  c #A1A1A2",
"v  c #A2A2A2",
"b  c #A4A4A4",
"n  c #A9A9A9",
"m  c #AAAAAA",
"M  c #ACACAC",
"N  c gray68",
"B  c #AFAFAF",
"V  c gray69",
"C  c #B2B2B2",
"Z  c #B3B3B4",
"A  c #B4B4B4",
"S  c gray71",
"D  c #B5B5B6",
"F  c #B6B6B6",
"G  c #B7B7B7",
"H  c #B7B7B8",
"J  c gray72",
"K  c #B9B9B9",
"L  c #B9B9BB",
"P  c gray73",
"I  c #BBBBBB",
"U  c #BBBBBC",
"Y  c #BCBCBC",
"T  c #BCBCBD",
"R  c gray74",
"E  c #BDBDBE",
"W  c gray",
"Q  c #BEBEBF",
"!  c gray75",
"~  c #BFBFC0",
"^  c #C0C0C0",
"/  c #C0C0C1",
"(  c #C1C1C1",
")  c #C1C1C2",
"_  c gray76",
"`  c #C2C2C3",
"'  c #C3C3C3",
"]  c #C3C3C4",
"[  c #C4C4C5",
"{  c #C4C4C6",
"}  c #C5C5C6",
"|  c #C5C5C7",
" . c #C6C6C7",
".. c gray78",
"X. c #C7C7C8",
"o. c #C7C7C9",
"O. c #C8C8C8",
"+. c #C8C8C9",
"@. c gray79",
"#. c #C9C9CA",
"$. c #C9C9CB",
"%. c #CACACA",
"&. c #CACACB",
"*. c #CBCBCB",
"=. c #CACACC",
"-. c #CBCBCC",
";. c #CBCBCD",
":. c #CCCCCD",
">. c #CDCDCD",
",. c #CCCCCE",
"<. c #CDCDCE",
"1. c #CDCDCF",
"2. c #CECECE",
"3. c #CECECF",
"4. c gray81",
"5. c #CFCFD0",
"6. c #D0D0D0",
"7. c #D0D0D1",
"8. c gray82",
"9. c #D0D0D2",
"0. c #D2D2D2",
"q. c #D2D2D3",
"w. c LightGray",
"e. c #D2D2D4",
"r. c #D3D3D4",
"t. c #D3D3D5",
"y. c gray83",
"u. c #D4D4D5",
"i. c #D5D5D5",
"p. c #D5D5D7",
"a. c gray84",
"s. c #D6D6D7",
"d. c #D7D7D7",
"f. c #D7D7D8",
"g. c #D8D8D8",
"h. c #D8D8D9",
"j. c gray85",
"k. c #D9D9DA",
"l. c #D9D9DB",
"z. c #DADADA",
"x. c #DADADB",
"c. c gray86",
"v. c #DBDBDC",
"b. c #DBDBDD",
"n. c gainsboro",
"m. c #DCDCDD",
"M. c #DDDDDD",
"N. c #DDDDDE",
"B. c gray87",
"V. c #DEDEDF",
"C. c #DEDEE0",
"Z. c #DFDFE0",
"A. c #DFDFE1",
"S. c #E0E0E1",
"D. c #E1E1E1",
"F. c #E2E2E2",
"G. c #E2E2E3",
"H. c #E2E2E4",
"J. c #E3E3E4",
"K. c #E4E4E4",
"L. c #E5E5E6",
/* pixels */
") ) { { ( ( } } ) ) ) ) ~ ~ ~ ~ ~ ~ T T ~ ~ ~ ~ } } } } T T n n ) ) { { ( ( } } ) ) ) ) ~ ~ ~ ~ ~ ~ T T ~ ~ ~ ~ } } } } T T n n ",
") ) { { ( ( } } ) ) ) ) ~ ~ ~ ~ ~ ~ T T ~ ~ ~ ~ } } } } T T n n ) ) { { ( ( } } ) ) ) ) ~ ~ ~ ~ ~ ~ T T ~ ~ ~ ~ } } } } T T n n ",
"+.+.) ) 1.1.} } } } } } } } T T T T T T T T } }  . .1.1.+.+.n n +.+.) ) 1.1.} } } } } } } } T T T T T T T T } }  . .1.1.+.+.n n ",
"+.+.) ) 1.1.} } } } } } } } T T T T T T T T } }  . .1.1.+.+.n n +.+.) ) 1.1.} } } } } } } } T T T T T T T T } }  . .1.1.+.+.n n ",
") ) } } ` ` ) ) ) ) ) ) } } } } T T ) ) ) ) ) )  . .X.X.T T n n ) ) } } ` ` ) ) ) ) ) ) } } } } T T ) ) ) ) ) )  . .X.X.T T n n ",
") ) } } ` ` ) ) ) ) ) ) } } } } T T ) ) ) ) ) )  . .X.X.T T n n ) ) } } ` ` ) ) ) ) ) ) } } } } T T ) ) ) ) ) )  . .X.X.T T n n ",
"B B B B B B B B B B B F K K K K K K K K K C B B B B B B B B B B C K K K K K K K C B B B B B B B V K K A B B B B B B B B B B B B ",
"B B B B B B B B B B *.w.w.w.w.w.w.w.w.w.w.w...B B B B B B B B ..w.w.w.w.w.w.w.w.w...B B B B B S 2.w.w.w.@.B B B B B B B B B B *.",
") ) ~ ~ ~ ~ T T ~ 2.6.A F F F F F F F F F y.B.] } } ] ] | | o.S.y.F S S S S Z Z w.M.M n ) ) ) d.B.F F %.B.O.) ) } } ] ] | | e.S.",
") ) ~ ~ ~ ~ T ) 2.i.6.<                   F B.8.<.} ] ] | e.k.S.F               S M.W S ) ) ) B.B.    d B.s.5.) } } ] ] | e.k.S.",
"} } $.$.~ ~ ) v.F.F.6.<                   H S.S.S.<.-.-.k.L.L.L.H               K F.6.6.} T } S.S.    g S.S.S.x.} } -.-.S.L.L.L.",
"} } $.$.~ / +.v.v 7 < .   - H H H H g     : 6 u S.u.-.3.A.L.9 9 :     j S d     > 7 r 6.<.Q } S.S.    % 6 6 ` S.&.} -.7.L. .9 9 ",
"~ ~ ) )  .z.M.M.d         6 S.S.S.S.F         4 D.z.a.B.M.M.          F B.F         < 6.S.S.f.S.S.          F B.D.c.g.B.M.S     ",
"~ ~ ) ) d.B.S S e     * 6 u S.u.:.S.^ 4 4 4 4 y D.i.B.%.S S     o 4 4 ^ B.^ 4 4 o   * m H s.S.S.S.          d F ' D.B.^ S d     ",
"B B B B w.w.          N w.w.w.P B *.w.w.w.w.w.w.w.^ w.p         1 w.w.w.*.w.w.w.1         N w.w.w.              1 w.w.1         ",
"B B B B w.w.          N w._ ^ ^ ^ ^ ( %.%.%.%._ P ^ w.p         1 w.%.( B ( %.w.1         N w.w.w.              1 w.w.1         ",
"3.3.~ ~ B.B.          H B.B.B.B.B.B.S.S.Z.Z.S.S.S.q.B.d         9 L.i.X.#.#.s.B.4         F B.B.B.              O 6 4 o         ",
"3.3.~ ~ B.B.          H B.%.d d d d g g f f g c S.e.B.d         9 L.M.M.B.B.B.B.4         F B.B.B.                              ",
"$.$.$.$.S.S.          H S.H                   4 L.Z.S.g         > L L L H H H H :         H B.B.S.          ; 4 ,     : 8 >     ",
"$.$.$.$.S.S.          H S.H                   4 L.Z.S.g                                   H B.B.S.          F B.U     H H.L     ",
"~ ~ 3.3.B.B.          J B.B.B.B.B.B.J         4 n.y.M.d                                   F B.B.B.          S M.A     S B.F     ",
"~ ~ 3.3.B.B.          J B.d.B.B.B.B.J         4 n.y.M.d         ; S U U F F F F ;         F B.B.B.          S M.0.A S w.B.F     ",
"B B B B w.w.          N w.*.( B K w.N         1 w.%.w.p         1 w.w.w.w.w.w.w.1         N w.w.w.          N w.w.w.w.w.w.N     ",
"B B B B w.w.          N w.w.w.( K w.N         1 w.%.w.p         1 w.%.K K K %.w.1         N w.w.w.          N w.K K K K w.N     ",
"~ ~ } } d.B.M.M.d         2 M.i.<.M.Z         4 S.k.S.g         4 M.k.} ) ) i.M.4         C M.M.M.          S M.,.| | ,.B.F     ",
"~ ~ } }  .d.M.M.d         2 M.M.M.M.Z         4 S.k.S.g         4 M.k.} ) ) i.M.4         C M.M.M.          S M.,.| | ,.B.F     ",
"} } } } } } 9.H.H g i +   $ k k a a q         3 L.Z.L.l         6 S.k.} } } b.H.6         D J.J.v.          Z v.t.1.3.u.S.H     ",
"} } } } } } =.C.S.S.6.<                       3 L.Z.L.l         6 S.k.} } } b.H.6         D J.J.v.          Z v.t.1.3.u.S.H     ",
") ) } } ~ ~ ) ` #.s.6.<                       4 M.i.n.s         4 B.k.} ~ ~ s.B.4         Z S.S.Z.          F B.X.~ E } M.S     ",
") ) } } ~ ~ ) ) ) 5.6.6.v.v.S.S.Z.Z.M.M.v.v.B.B.M.2.n.n.M.M.B.B.B.B.q.} ~ ~ 5.B.B.B.6.6.v.v.m.x.Z.Z.M.M.v.v.B.z./ ~ E Q j.M.B.B.",
"B B B B B B B B B B ( *.w.w.w.w.w.w.w.w.w.w.w.*.( B G *.w.w.w.w.*.( B B B B B ( *.w.w.w.w.*.S S *.w.w.w.w.w.*.S B B B B S *.w.w.",
"B B B B B B B B B B B B B B B B B B B B B B B B B B B B B B B B B B B B B B B B B B B B B B B B B B B B B B B B B B B B B B B B ",
") ) { { ( ( } } ) ) ) ) ~ ~ ~ ~ ~ ~ T T ~ ~ ~ ~ } } } } T T n n ) ) { { ( ( } } ) ) ) ) ~ ~ ~ ~ ~ ~ T T ~ ~ ~ ~ } } } } T T n n ",
") ) { { ( ( } } ) ) ) ) ~ ~ ~ ~ ~ ~ T T ~ ~ ~ ~ } } } } T T n n ) ) { { ( ( } } ) ) ) ) ~ ~ ~ ~ ~ ~ T T ~ ~ ~ ~ } } } } T T n n ",
"+.i.s.s.k.1.<.u.k.q.#.} } } T T T T T T T T } }  . .1.1.+.+.n n +.+.) ) 1.1.} } } } } } } } T T T T T T T T } }  . .1.1.+.+.n n ",
"m.F.B.B.L.k.S.S.S.S.S.#.} } T T T T T T T T } }  . .1.1.+.+.n n +.+.) ) 1.1.} } } } } } } } T T T T T T T T } }  . .1.1.+.+.n n ",
"B.^ 6 6 V.f.B.y 4 x B.>.} } } } T T ) ) ) ) ) )  . .X.X.T T n n ) ) } } ` ` ) ) ) ) ) ) } } } } T T ) ) ) ) ) )  . .X.X.T T n n ",
"B.F     V.V.B.4   d B.4.7.q.q.q.-.+. . .>.4.#.`  .:.r.r.] T n n ) O.q.q.+.<.#.#.4.>. .` :.q.q.q.-.-.O.` #.4.>.O.w.w.r.<.T ] I I ",
"w.N     w.w.w.1   p w.w.w.w.w.w.w.w.w.w.w.w.w.2.@.w.w.w.w.G B B G w.w.w.w.w.w.w.w.w.w.2.w.w.w.w.w.w.w.2.w.w.w.w.w.w.w.w.@.w.w.w.",
"w.^ p   p w.h @ 1 N w.w.h p p p p h w.w.h p N w.w.^ p p w.*.B B *.w.p p ^ h N N p h w.w.N p p p p p w.w.N p h ^ p p p ^ w.w.p p ",
"a.B.M.4   S - - x M.6.m ; ; 4 4 $ ; ^ B.4   d B.S.H     S.S.| | B.B.    S 4 a a   4 6.A e $ 4 4 ;   F B.d   ; x 6 6 5 ) s.H   6 ",
") 5.M.M.$   X W M.M.6.    F B.B.d   4 B.4   d B.S.H     S.S.| | B.B.    S 4 a a   4 6.<   e F F d     B.d   o y S.S.Z.Z.H     H ",
"} } l.H.d   3 v.m.F.6.    Z S.S.g   6 S.6   g S.S.H     L.L.3.3.S.S.    S 4 a a   7 6.<   # 6 6 6 6 6 S.g   6 S.S.k.N.K.U     9 ",
"} } p.H.d   3 v.c.F.6.    Z S.S.g   6 S.6   g S.S.H     L.L.3.3.S.S.    S 4 a a   7 6.<   a S.S.S.S.S.S.g   6 S.k.} 0.K.U     L.",
"~ ~ 4.B.d   4 M.s.d.6.6.6         6 B.B.B.d           B.M.a.E E a.M.B.4   F d   4 B.6.6.g           B.B.d   4 B.z. .` z.M.M.    ",
"~ ~ O.B.B.B.M.M.5. ...6.S.S.S.S.S.S.B.5.B.B.B.B.D.D.B.B.a.[ E E [ a.B.B.B.B.M.M.B.B.Y 6.S.S.S.S.S.S.B.B.B.B.B.B.r. .)  .a.M.n.n.",
"B B B G *.w.*.( B B B ( *.w.w.w.w.*.( B G *.w.w.w.w.w.*.S B B B B B ( *.w.*.*.w.*.( B G *.w.w.w.w.w.*.G *.w.*.( B B B B S *.w.w.",
"B B B B B B B B B B B B B B B B B B B B B B B B B B B B B B B B B B B B B B B B B B B B B B B B B B B B B B B B B B B B B B B B ",
"3.3.~ ~ ) ) ) ) ) ) } } 5.s.s.s.s.s.k.q.+.] | | | | ) ) ~ ~ n n 3.3.~ ~ ) ) ) ) ) ) } } ) ) ) ) ) ) } } ] ] | | | | ) ) ~ ~ n n ",
"3.3.~ ~ ) ) ) ) ) ) } x.B.B.B.B.B.B.S.S.Z.+.| | | | ) ) ~ ~ n n 3.3.~ ~ ) ) ) ) ) ) } } ) ) ) ) ) ) } } ] ] | | | | ) ) ~ ~ n n ",
"$.$.$.$.} } } } } } &.S.` 6 4 4 6 6 6 c K.K. .) 3.3.} } $.$.n n $.$.$.$.} } } } } } } } } } ) ) } } } } -.-.) ) 3.3.} } $.$.n n ",
"$.$.$.$.} } } } } } :.S.H     F H H : % b K.4.4.r.f.q.q.t.1.B K p.p.p.p.7.#.}  .:.q.q.q.q.q.O.) } -.q.q.d.d.4.#.5.3.} } $.$.m A ",
"~ ~ 3.3.) ) ) ) ) ) <.D.F     B.B.B.7   d B.M.M.n.n.M.M.B.B.6.6.M.M.L.L.B.B. .z.B.B.D.D.B.B.B.O.O.B.D.D.B.B.M.M.g.Q ~ ~ ) ` %.6.",
"~ ~ 3.3.) ) ) ) ) ) <.D.F     d d d & 7 F B.d d @.z d d x B.6.g d d l l x B.g.B.F d g g d d B.y.B.B.g g d d d S n.} ~ ~ ) #.6.m ",
"B B B B B B B B B B K w.N     1 1 1 1 h w.w.    p 0 1 1 t w.N = = 1 1 @ = G w.G 0 @ 1 1 1 1 w.w.%.N   1 1 1 1 h w.R B B B R w.h ",
"B B B B B B B B B B K w.N     w.w.w.w.w.w.w.    = G w.w.w.w.    p N N 0   1 w.t @ 0 N N N N w.w.G 1   N N N N ^ w.@.B B B *.w.^ ",
"~ ~ } } ) ) ~ ~ ~ ~ A 6.C     M.M.i.r.-.M.M.    H S.x.k.B.B.    ; 4 6 6 4 y M.M.x 4 < < -   S M.M.M.3 3 4 4 o w :.S.;.| 5.B.! w ",
"~ ~ } } ) ) ~ ~ ~ ~ A 6.C     M.M.~ T T M.M.    H S.,.| B.B.    S M.S.S.B.B.M.M.M.M.6.6.C     M.M.M.v.v.M.M.4   g S.q.| s.B.4   ",
"} } } } } } $.$.} } A 6.D     J.v.T T T v.v.    U L.u.3.x.S.H.8         6 S.H.8             J.J.Z             a L.L.r.3.q.S.H.j ",
"} } } } } } $.$.} } m %.N.N.J.J.u.T T T u.v.v.v.L.G.5.3.&.x.H.H.S.S.S.S.S.S.H.H.S.S.6.6.N.N.J.Z.v.v.v.v.v.v.v.v.L.r.3.3.} q.H.H.",
") ) } } ~ ~ ) ) ) ) n V u.v.S.x.+.] ~ ~ ) u.B.B.a.[ E E ~ ~ 5.d.B.B.S.S.a.2.5.d.B.B.6.6.v.v.x.&.h.Z.M.M.v.v.B.d. .~ E E ~ ~ O.d.",
") ) } } ~ ~ ) ) ) ) n n T T | | ] ] ~ ~ T T ) ) ~ ~ E E ~ ~ ) ) ) ) } } ~ ~ ) ) ) ) n n T T | | ] ] ~ ~ T T ) ) ~ ~ E E ~ ~ ) ) ",
"B B B B B B B B B B B B B B B B B B B B B B B B B B B B B B B B B B B B B B B B B B B B B B B B B B B B B B B B B B B B B B B B ",
"B B B B B B B B B B B B B B B B B B B B B B B B B B B B B B B B B B B B B B B B B B B B B B B B B B B B B B B B B B B B B B B B "
};
