/* XPM */
static char *result[] = {
/* columns rows colors chars-per-pixel */
"64 64 179 2 ",
"   c #000001",
".  c #0C0000",
"X  c #09090B",
"o  c #100100",
"O  c #130909",
"+  c #1D120C",
"@  c #0E0F12",
"#  c #111215",
"$  c #13161A",
"%  c #1A1718",
"&  c #16181E",
"*  c #22160E",
"=  c #231614",
"-  c #2A1B12",
";  c #361E1A",
":  c #28211A",
">  c #352115",
",  c #3A261A",
"<  c #3C261C",
"1  c #1A1D24",
"2  c #162521",
"3  c #0A3736",
"4  c #123836",
"5  c #1B3A3C",
"6  c #2C2827",
"7  c #362723",
"8  c #392724",
"9  c #3C2D21",
"0  c #3C3027",
"q  c #343434",
"w  c #3D3738",
"e  c #42241D",
"r  c #42291B",
"t  c #482D25",
"y  c #4F3020",
"u  c #543523",
"i  c #5B3826",
"p  c #473634",
"a  c #593D32",
"s  c #663F2A",
"d  c #683F2B",
"f  c #4C4233",
"g  c #574436",
"h  c #64412A",
"j  c #6E472B",
"k  c #654D39",
"l  c #7D4F35",
"z  c #695936",
"x  c #6A513B",
"c  c #765135",
"v  c #77563C",
"b  c #004343",
"n  c #004949",
"m  c #0C4D4D",
"M  c #164747",
"N  c #1B4546",
"B  c #1A4748",
"V  c #144C4D",
"C  c #1A4A4B",
"Z  c #0F4F50",
"A  c #124F51",
"S  c #025657",
"D  c #0B5354",
"F  c #025758",
"G  c #0B5658",
"H  c #005A5B",
"J  c #0A5A5C",
"K  c #135253",
"L  c #365E4F",
"P  c #005F60",
"I  c #085F61",
"U  c #006364",
"Y  c #006769",
"T  c #006869",
"R  c #494B49",
"E  c #524B46",
"W  c #45564B",
"Q  c #515B4E",
"!  c #555250",
"~  c #755740",
"^  c #785A43",
"/  c #496F50",
"(  c #556656",
")  c #6C6555",
"_  c #746F59",
"`  c #444B60",
"'  c #505871",
"]  c #676767",
"[  c #89573B",
"{  c #84593B",
"}  c #8D603F",
"|  c #90613F",
" . c #9C713F",
".. c #A36D3F",
"X. c #A86E3C",
"o. c #CE6A39",
"O. c #865D46",
"+. c #855E46",
"@. c #886843",
"#. c #996847",
"$. c #9D6F44",
"%. c #9C6F48",
"&. c #967345",
"*. c #9C7044",
"=. c #96714B",
"-. c #886E5C",
";. c #847357",
":. c #957151",
">. c #967158",
",. c #A46D41",
"<. c #A26B48",
"1. c #A17041",
"2. c #A5724B",
"3. c #AA704A",
"4. c #B0784F",
"5. c #B77F58",
"6. c #897A6F",
"7. c #8A7D74",
"8. c #7C9556",
"9. c #7E8562",
"0. c #A29C37",
"q. c #9DA42C",
"w. c #A6A82C",
"e. c #C6CE26",
"r. c #D0C73E",
"t. c #D7C93F",
"y. c #CCD335",
"u. c #D1DA36",
"i. c #968E4D",
"p. c #949657",
"a. c #BE8054",
"s. c #BCA554",
"d. c #ACB153",
"f. c #A5BC5C",
"g. c #938261",
"h. c #909762",
"j. c #9A8574",
"k. c #BC8662",
"l. c #B78960",
"z. c #BA8B66",
"x. c #B88B6A",
"c. c #AB8D76",
"v. c #B79976",
"b. c #9DA575",
"n. c #ADB464",
"m. c #CA8A5D",
"M. c #D28E5D",
"N. c #E99658",
"B. c #E3BC5E",
"V. c #C4906B",
"C. c #CD966E",
"Z. c #D79769",
"A. c #D69D74",
"S. c #DBA464",
"D. c #CDA07E",
"F. c #D6A57F",
"G. c #EBA069",
"H. c #E7B168",
"J. c #E7A172",
"K. c #ECA570",
"L. c #EDAA77",
"P. c #EEAE7E",
"I. c #D1D34D",
"U. c #E1D66C",
"Y. c #DCE263",
"T. c #5B6480",
"R. c #626C8A",
"E. c #9C8F85",
"W. c #AC9381",
"Q. c #AE9A8B",
"!. c #AE9D90",
"~. c #CFA98D",
"^. c #DEAA81",
"/. c #EEAF80",
"(. c #EFB385",
"). c #F1BF9A",
"_. c #D2B7A4",
"`. c #F4CDB1",
"'. c #F5D2B8",
/* pixels */
"H H P P H H U P H X                       .     .     X   + , > > > > > > X   O > > > > > > > > > > s s i > > * * 2 P P S S b b ",
"H H P P H H H U H . + 7 8 8 8 8 < r 8 < < 8 , r 8 < < 7 7 > > > > > > > > , < < > > > > > > > > > > i s i > > * + 2 H F S S b b ",
"U U H H T T U H U . < :.2.,.,.,.,.3.,.,.<.,.,.3.,.X.,.j j y > > > > , y y s h i > > r y y > > r y y y y y y y > * : 4 4 m I b b ",
"U U H H T T H U P . e :.2.X.X.X.,.,.,.,.,.,.,.,.,.,...; > > > > > > < d h r > > > ; y d d > > y d d r > r d d r > - * + 4 H b b ",
"H H U H H H H P H . 8 :.%.,.$.[ O.O.O.O.O.+.O.O.O.O.+.> > > > > > > r d d r > > > > y d d > > y d d r ; r d d r > > + + 2 m b b ",
"H H H U H P H H H . < :.%.,.<.r X . .     . . .   . . ; > > > > i d i > > a.G.G.G.G.@.; > d d y > > i s i > > i h i > > : + + b ",
"n n n n n n n n n . < =.*.,.,.< .     . X   X       X , > > > > i d i > > a.G.G.G.G.#.> > d d y > > i s i > > i s i > > - + + n ",
"n n n n n n n n n . < %.<.....<     X   X X     X     ; > y h h d d h h h m.K.K.K.G.2.h h d d h s s s s i > > i s i > > - + + n ",
"H H F H H H S S H . < %.*...1.,                       > > | G.G.[ d [ G.G.P.(.(.(.(.L.G.G.d d 3.G.G.[ d i > ; i d i > > - + + V ",
"H H H H H H F S H . e &.*.....<                       > > | G.G.[ d [ G.G.P.(.(.(.(.L.G.G.d d 3.G.G.[ d i > > i d i > > - + + V ",
"P P U U S H S S U . < &. .....<                       i i <.G.G.M.m.Z.P./.(.(.(.(.(.(.P.(.C.C.Z.G.G.[ d l m.a.l d i > > - + + K ",
"P P U U F H S S U . < &. .....<                       d j 3.G.G.G.G.K./.(.(.(.(.(.(.(.(.(.(.(.L.G.G.[ d { N.G.[ d i > > - + + C ",
"H F H H H H H H H . , &. ... .<                       r r <.G.G.G.K.L.(.(.(.(.(.(.(.(.(.(.(.(.P.G.K.2.[ <.G.G.[ d i > > - + + N ",
"H H H H H H H H H . , &. ... .<                           c G.G./.(.(.(.(.(.(.(.(.(.(.(.(.(.(.(.(.(.K.G.G.G.G.[ d i > > - + + M ",
"n n n n n n n n n . r &. ...1.r                           c G.G./.(.(.(.(.(.(.(.(.(.(.(.(.(.(.(.(.(.K.G.G.G.G.[ d i > > - + + n ",
"n n n n n n n n n o < &. .....<                           c G.G.G.K.K.K.K.K.K.K.G.K.K.K.K.K.K.K.K.K.G.G.G.G.G.[ d u * * + + + n ",
"T T F H H H H H H . < =.%.1.1.<                           c G.G.G.G.G.G.G.G.G.G.G.G.G.G.G.G.G.G.G.G.G.G.G.G.G.[ d i + + + + + 3 ",
"T T H H H H H H H . < :.%.,...<                           c G.G.G.G.G.G.G.G.G.G.G.G.G.G.G.G.G.G.G.G.G.G.G.G.G.[ d u + + + + + b ",
"U U U Y P P U P H . < :.%.,.1.<                       ] ] ] ] ] ] ] ] ] ] ] ] ] ] ] ] ] ] ] ] ] ] ] ] ] ] ] ] ] ] ! + + + + + b ",
"U U U U P P P P U . < =.*.,.1.,                       ] ] ] ] ] ] ] ] ] ] ] ] ] ] ] ] ] ] ] ] ] ] ] ] ] ] ] ] ] ] ! + + + + + b ",
"H H T T H H H H H . < =.*.....,                       ] ] 7.W.W.c.W.j.] ] j.c.j.] ] 7.W.W.W.W.W.W.W.Q.!.E.] ] 6.c.-.+ + u { { b ",
"H H T T H H H H H o r =.*.....<                       ] ] W.).).).).~.] ] D.(.D.] ] W.).).).).).).).`.'._.] ] D.(.z.+ + { G.G.b ",
"n n n n n n n n n o < %.*...1.<                       ] ] W.).).).).~.] ] D.(.D.] ] W.).).).).).).).`.'._.] ] D.(.z.+ + { G.G.n ",
"n n n n n n n n n . < :.&.....<                       ] ] W.).).0   1 ] ] D.(.D.] ] q     ).).).).).`.'._.] ] ~.(.x.+ + { G.G.n ",
"H H H U H H H H H . < :.%.,.1.<                       ] ] W.).).0   % ] ] D.(.D.] ] q     ).).).).).`.'._.] ] D.(.x.* + { G.G.N ",
"H F U H H H H H H . < =.*.1.1.,                       q q ) W.W.E q E c.c.^.(.^.c.c.) q q W.W.W.W.W.Q.!.Q.c.c.^.(.V.r r #.G.G.N ",
"P P P P U H U U P . < =.*.....,                           q ] ] ] ] 6.(.(.(.(.(.(.(.c.] ] ] ] ] ] ] ] ] 6.(.(.(.(.C.h d 3.G.G.B ",
"P P P P H U U U P . < =.*.....<                           q ] ] ] ] 6.(.(.(.(.(.(.(.c.] ] ] ] ] ] ] ] ] 6.(.(.(.(.C.j d 3.G.G.C ",
"H H U H H H H H H . e =.*.....<                           x D.D.D.D.F.(.(.(.(.(.(.(.^.D.D.D.D.D.D.D.D.D.^.(.(.(.(.C.j h g Q Q B ",
"H H H U H H H H H . < =.*.....<                           ^ (.(.(.(.(.(.(.(.(.(.(.(.(.(.(.(.(.(.(.(.(.(.(.(.(.(.(.C.d h f B B B ",
"n n n n n n n n n . < :.%.,.*.<                           ~ P.P.(.(.(.J.J.J.J.J.J.J.J.J.J.(.(.(.(.(./.P./.(.(.A.C.k.[ [ R n n n ",
"n n n n n n n n n . < :.*.,.1.<                           c G.G.P.(.J.o.o.o.o.o.o.o.o.o.o.(.(.(.(.(.K.G.G.(.(.O.d [ G.G._ n n n ",
"H H P H H H P P H . < =.&.....,                           c G.G.P.(.J.o.o.o.o.o.o.o.o.o.o.(.(.(.(.(.K.G.K.(.(.} d [ G.G.;.N b b ",
"H H P U H H P P H . < =.*.....<                           c G.G.P.(.P.J.J.J.J.J.J.J.J.J.J.(.(.(.(.(.K.G.K.(.(.F.C.Z.G.G.;.N b b ",
"U U H H T T P P U . < %.1...1.<                           c G.G.P.(.(.(.(.(.(.(.(.(.(.(.(.(.(.(.(.(.K.G.K.(.(.(.(.P.G.G.;.C b b ",
"U U H H Y Y P U P . < =.$.....<                           c K.K.P.(.(.(.(.(.(.(.(.(.(.(.(.(.(.(.(.(.L.K.L.(.(.P.P.J.l.l.) C b b ",
"H H U H H H H H H o < :.%.,.,.<                           ^ (.(.(.(.(.(.(.(.(.(.(.(.(.(.(.(.(.(.(.(.(.(.(.(.(.K.G.l.N N N M b b ",
"H H H U P H H P H . < :.&.,.1.,                           ^ (.(.(.(.(.(.(.(.(.(.(.(.(.(.(.(.(.(.(.(.(.(.(.(.(.K.G.l.B N M M b b ",
"n n n n n n n n n . < =.*.,...<                           9 ^ ^ C.L.L.L.L.L.L.L.L.L.L.L.L.L.L.L.L.L.L.L.L.L.L.g._ ( n n n n n n ",
"n n n n n n n n n . < =.*.1...<                                 4.G.G.G.G.G.G.G.G.G.G.G.G.G.G.G.G.G.G.G.G.G.G.L n m n n n n n n ",
"H H F H H H S S H o r &.$.X...,                                 4.G.G.G.G.G.G.G.G.G.G.G.H.G.G.G.G.G.G.G.G.G.G.Q B B C C K D G F ",
"H H H H F H S S H . < =.$.....,                                             . t p p #.N.N.N.N.N.N.N.t.u.w.E N N B C C V K G G P ",
"U U U U H F S S U . < :.%...$.<                                               t p p #.N.N.N.N.N.N.N.I.u.w.R N N C V K G I I I T ",
"U H U U H H S S U . 8 :.%.....<                                             . g i.i.s.H.B.>.>.V.B.B.I.I.r.p.8.L C K G J I I U T ",
"H H H H H H H H H . < =.*.,...,                                               z Y.Y.Y.Y.Y.` ` h.Y.Y.Y.Y.Y.Y.Y./ V D K G G F S S ",
"F H H H H H H F H . < =.*.....<                                             . z Y.Y.Y.Y.Y.` ` h.Y.Y.Y.Y.Y.Y.Y./ K D D F S F F S ",
"n n n n n n n n n o r =.*.,.1.<                                               z Y.Y.Y.Y.Y.R.R.b.Y.Y.y.e.y.Y.Y.Y.Y.f.n n n n n n ",
"n n n n n n n n n . < &.*...1.<                                               z Y.Y.Y.Y.Y.R.R.b.Y.Y.y.e.y.Y.Y.Y.Y.f.n n n n n n ",
"T T H F H H H H H . < =.%.,.*.,                                           : < @.Y.Y.Y.Y.Y.T.T.b.Y.Y.y.e.y.U.U.U.U.n.Z D S S b b ",
"T T H H H H H H H . < :.%.,...<                                           4.G.H.Y.Y.Y.Y.Y.` ` h.Y.Y.y.e.r.(.(.(.(.v.Z D D S b b ",
"U U U U P P H U U . < :.&...1.<                                           4.G.H.Y.Y.Y.Y.Y.` ` h.Y.Y.y.e.r.(.(.(.(.v.A K J J b b ",
"U U U U P P U U U . < =.*.....<                                           4.G.H.Y.Y.Y.Y.Y.T.T.b.Y.Y.y.e.r.(.(.(.(.v.C K G J b b ",
"H H T T H H H H H . < =.$...1.<                                           4.G.H.Y.Y.Y.Y.Y.T.R.b.Y.Y.y.e.r.(.(.(.(.v.B V Z D b b ",
"H F T U H H H H H o r =.$.....<                                           4.G.S.d.d.d.d.n.' ' 9.d.d.w.q.0.z.x.^.(.v.B M Z D b b ",
"n n n n n n n n n . < =.*.....<                                           4.G.5.1 1 1 1 1 1 1 1 2 1 1 1 1 # $ x.(.v.n n n n n n ",
"n n n n n n n n n . < :.*.....<                                           4.G.5.1 1 1 1 1 1 1 1 1 1 1 1 & # # x.(.v.n n n n n n ",
"H F U H H H H H H . < :.%.,.*.<                                           - < g 1 1 1 $ $ $ $ $ $ $ 1 1 1 & 1 R Q W C K K D D F ",
"H H P U H H H H H . < =.*.,...<                                               8 2 1 1 # # # # $ # # 1 1 1 1 1 5 C V C C K D S F ",
"H U U H P P U U H . < =.*...1.<                                               8 1 1 & # $ # # # # # 1 1 1 1 1 5 C C K K D J I P ",
"U H H U H U U U U o < =.*.....<                                             . 8 1 1 & # # p w g g k 6 1 1 1 1 5 C C K J D J P I ",
"H H P P H S H H H o < =.*...1.<                                             . 7 1 1 & # @ p < g x k 6 2 1 1 1 5 B M V Z D S F H ",
"H H P P H H H H H . < =.&...,.r                                               7 # % # X X p ; a ~ x 6 $ $ $ % 5 M M V Z D S F H ",
"n n n n n n n n n o e :.&....., X     X   X               X   X       X X   . = @ @ X     e ; g c v - # @ O @ b n n n n n n n n ",
"n n n n n n n n n O 8 >.:.%.%., X   X     X X X X X X   X   X   X X X   X   . % @ @ X     ; < g ~ ^ : @ @ @ @ 3 n n n n n n n n "
};
