/* XPM */
static char *result[] = {
/* columns rows colors chars-per-pixel */
"64 64 160 2 ",
"   c black",
".  c #09090A",
"X  c #1D120C",
"o  c #0E0F12",
"O  c #111215",
"+  c #13161A",
"@  c #16181E",
"#  c gray10",
"$  c #22160E",
"%  c #2A1A11",
"&  c #321F14",
"*  c #352115",
"=  c #3B2518",
"-  c #1A1D24",
";  c #2A2929",
":  c #3B2E27",
">  c #3C3027",
",  c #2E2F32",
"<  c #343434",
"1  c #32343A",
"2  c #42291B",
"3  c #4F3020",
"4  c #553523",
"5  c #5B3826",
"6  c #463E39",
"7  c #673F2B",
"8  c #683F2B",
"9  c #55463D",
"0  c #63412A",
"q  c #6A4B3D",
"w  c #7D4F35",
"e  c #524B46",
"r  c #555250",
"t  c #5A5B5C",
"y  c #61554D",
"u  c #695D56",
"i  c #635D5A",
"p  c #6F6055",
"a  c #70625A",
"s  c #444B60",
"d  c #5D5D60",
"f  c #505871",
"g  c #676767",
"h  c #6B6B6B",
"j  c #736A66",
"k  c #6F6F70",
"l  c #737373",
"z  c #777778",
"x  c #7B7B7B",
"c  c #89573B",
"v  c #84593B",
"b  c #90613F",
"n  c #CE6A39",
"m  c #8A5C42",
"M  c #8E705F",
"N  c #97715C",
"B  c #A26B47",
"V  c #A7734D",
"C  c #AA704A",
"Z  c #AA7552",
"A  c #B77F58",
"S  c #857067",
"D  c #8A7A6F",
"F  c #907769",
"G  c #8B7E74",
"H  c #7E8562",
"J  c #A29C37",
"K  c #9DA42C",
"L  c #C6CE26",
"P  c #D0C73E",
"I  c #CCD335",
"U  c #D1DA36",
"Y  c #BE8054",
"T  c #BD965D",
"R  c #ACB153",
"E  c #909762",
"W  c #868777",
"Q  c #9A8472",
"!  c #9E897A",
"~  c #939474",
"^  c #999A7A",
"/  c #AD8464",
"(  c #AB856A",
")  c #AF896E",
"_  c #BC8662",
"`  c #BB8B67",
"'  c #B88B6A",
"]  c #AB8D76",
"[  c #B38E73",
"{  c #B1937C",
"}  c #BA9478",
"|  c #9DA575",
" . c #A9AC6C",
".. c #CA8A5D",
"X. c #D28E5D",
"o. c #E99658",
"O. c #E3BC5E",
"+. c #C4906B",
"@. c #CD956D",
"#. c #D5976B",
"$. c #C29574",
"%. c #D69D74",
"&. c #D0AC64",
"*. c #CDA07E",
"=. c #D9A47C",
"-. c #EBA069",
";. c #E7B168",
":. c #E7A172",
">. c #ECA570",
",. c #EDAA77",
"<. c #E1A97E",
"1. c #EEAE7E",
"2. c #BEC54A",
"3. c #D5D952",
"4. c #D1D576",
"5. c #E1D66C",
"6. c #DCE263",
"7. c #5B6480",
"8. c #626C8A",
"9. c #7F7F80",
"0. c #838383",
"q. c #868789",
"w. c #8B8B8C",
"e. c #958C86",
"r. c #8E8F91",
"t. c #939394",
"y. c #9A9593",
"u. c #979798",
"i. c #9B9B9C",
"p. c #AC9381",
"a. c #AE9A8C",
"s. c #B49883",
"d. c #AE9D90",
"f. c #BDA595",
"g. c #A3A3A4",
"h. c #AEAEAE",
"j. c #AFAFB1",
"k. c #B4B4B5",
"l. c #B7B7B8",
"z. c #BCBCBD",
"x. c #C39E82",
"c. c #CCA68A",
"v. c #DEAA81",
"b. c #DDB08E",
"n. c #EEAF80",
"m. c #EFB385",
"M. c #E3B694",
"N. c #E6B997",
"B. c #F1BF9A",
"V. c #C3B3A9",
"C. c #D2B7A4",
"Z. c #BFC0B2",
"A. c #D0CD86",
"S. c #C3C5A5",
"D. c #F4CDB1",
"F. c #F5D2B8",
"G. c #BFBFC0",
"H. c #C3C3C4",
"J. c #C7C7C8",
"K. c #CBCBCC",
/* pixels */
"H.H.H.H.G.H.J.J.G.G.G.H.G.G.G.G.G.G.G.l.G.G.G.G.H.J.H.J.z.z.h.g.H.6 X $ * * 5 8 5 * * * * * * * * * * y.z.y.* * * * * * * j h.g.",
"H.G.H.H.G.J.J.H.H.G.G.G.G.G.G.G.G.Z.G.G.G.G.G.G.J.H.J.H.z.z.g.h.S.6 X $ * * 5 8 5 * * * * * * * * * * r.l.y.* * * * * * * j g.g.",
"J.J.H.H.K.K.J.J.J.J.H.J.H.J.G.G.z.z.z.z.G.G.H.J.J.J.K.K.K.J.0.i k : % & 3 3 3 3 3 3 3 2 * * 3 3 2 * * y j y 3 3 = * * * * 9 u u ",
"J.J.H.G.K.K.H.J.J.H.J.H.J.H.l.G.z.z.z.z.G.l.H.H.J.K.K.K.J.J.i X X & * 2 8 8 2 * 2 8 8 3 * * 8 8 3 * * * * 2 8 8 2 * * * * * * * ",
"H.H.H.H.H.H.G.H.H.G.H.G.H.H.J.H.z.z.H.G.H.G.H.Z.J.J.J.J.z.z.t X X & * 2 8 8 2 * 2 7 7 3 * * 8 8 3 * * * * 2 8 8 2 * * * * * * * ",
"H.G.H.H.H.H.J.S.G.H.G.H.J.H.H.J.z.z.G.H.G.H.H.H.H.J.J.J.X X % * * 5 8 5 * * 5 8 5 * * 3 8 8 * * b -.-.-.-.Y * * 5 8 5 * * * * * ",
"h.j.h.k.h.j.j.h.j.h.h.h.j.j.j.j.h.j.h.j.j.j.j.j.j.j.j.h.X X % * * 5 8 5 * * 5 8 4 * * 3 8 8 * * b -.-.-.-.Y * * 5 8 5 * * * * * ",
"h.h.j.h.j.j.j.h.j.j.j.h.j.j.j.j.j.h.j.h.j.j.j.j.j.j.j.h.X X % * * 5 8 5 * * 5 8 7 7 7 7 8 8 7 7 V >.>.>.>...0 0 8 8 8 0 0 3 * * ",
"G.H.G.G.G.G.z.z.V.H.h.g.H.G.H.G.H.G.H.G.H.G.H.G.J.H.H.H.X X % * * 5 8 5 * * 5 8 c -.-.C 8 8 -.-.,.m.m.m.m.1.-.-.c 8 c -.-.b * * ",
"H.G.G.G.G.G.z.z.G.H.g.h.H.H.G.H.G.H.G.H.G.H.G.H.H.H.H.H.X X % * * 5 8 5 * * 5 8 c -.-.C 8 8 -.-.,.m.m.m.m.1.-.-.c 8 c -.-.b * * ",
"H.J.K.K.G.G.z.z.K.J.h.g.l.G.J.H.J.H.J.H.J.H.J.H.J.H.K.J.X X % * & 5 8 w A Y w 8 c -.-.#.#.@.1.1.m.m.m.m.m.m.1.1.#...X.-.-.B 5 5 ",
"J.H.J.K.G.G.z.z.J.J.g.h.G.G.H.J.H.J.H.H.H.J.H.J.J.H.K.J.X X % * & 5 7 m -.-.c 8 c -.-.,.m.m.m.m.m.m.m.m.m.m.m.m.-.-.-.-.-.C 8 8 ",
"G.G.G.H.Z.H.H.G.H.H.h.g.H.H.J.H.H.J.G.H.H.G.H.H.J.J.H.z.X X % * * 5 8 c -.-.B c B >.>.1.m.m.m.m.m.m.m.m.m.m.m.m.,.>.>.-.-.Z q q ",
"G.G.H.G.H.H.G.G.G.H.g.h.H.J.H.J.J.H.H.G.G.H.G.S.J.H.H.G.X X % * * 5 8 c -.-.-.-.>.m.m.m.m.m.m.m.m.m.m.m.m.m.m.m.m.m.1.-.-.( h l ",
"h.j.j.h.h.h.j.j.h.h.j.h.h.j.j.j.j.j.j.j.j.j.h.j.j.h.j.h.X X % * * 5 8 c -.-.-.-.>.m.m.m.m.m.m.m.m.m.m.m.m.m.m.m.m.m.n.-.-./ h h ",
"h.h.j.h.h.h.h.j.j.j.h.j.h.j.j.j.j.j.j.j.j.j.h.j.j.h.h.h.X X X $ $ 5 8 c -.-.-.-.-.>.>.>.>.>.>.>.>.>.>.-.>.>.>.>.>.>.-.-.-.( h k ",
"K.K.G.G.G.H.G.H.H.G.J.H.H.G.H.G.H.G.J.H.H.H.J.H.J.J.H.z.X X X X $ 4 0 c -.-.-.-.-.-.-.-.-.-.-.-.-.-.-.-.-.-.-.-.-.-.-.-.-.) h h ",
"K.K.G.G.H.G.H.G.G.H.H.J.G.H.G.H.G.H.H.J.H.H.H.J.K.K.G.G.X X X X X 4 8 c -.-.-.-.-.-.-.-.-.-.-.-.-.-.-.-.-.-.-.-.-.-.-.-.-.) h l ",
"K.K.K.K.H.J.H.J.J.H.J.H.J.H.H.G.J.H.J.H.K.K.H.G.K.K.H.H.X X X X X r g g g g g g g g g g g g g g g g h g g g g g g g g g g g h g ",
"K.K.K.K.J.H.J.H.H.J.H.J.H.J.G.H.H.J.H.J.K.K.G.H.K.K.H.H.X X X X X r g g g g g h g g g g g g g g g g g g g g g g g g g g g g g g ",
"Z.H.K.K.G.H.G.H.H.H.J.H.G.H.G.H.H.G.J.J.H.H.G.G.z.G.G.z.v v 3 X X M ] Q g g e.d.a.p.p.p.p.p.p.p.G g g Q ] Q g g ! p.p.p.p.G g g ",
"H.H.K.K.H.G.H.G.H.S.J.J.H.G.H.G.G.H.H.H.H.G.G.G.z.z.G.z.-.-.v X X ` n.*.g g C.F.D.B.B.B.B.B.B.B.p.g g *.m.*.g g c.B.B.B.B.p.g g ",
"j.j.h.j.j.j.h.j.j.h.h.j.j.j.j.h.j.j.h.j.j.j.j.j.j.h.h.h.-.-.v X X ` m.*.g g C.F.D.B.B.B.B.B.B.B.p.g g *.m.*.g g c.B.B.B.B.p.g g ",
"j.j.j.j.j.h.j.h.h.j.h.j.j.j.j.j.j.j.j.h.h.j.j.j.h.h.h.h.-.-.v X X ` m.*.g g C.F.D.B.B.B.B.B.    < g g *.m.*.g g #   : B.B.p.g g ",
"G.G.J.J.H.G.G.G.G.G.g.h.z.l.H.G.Z.G.G.l.G.G.G.G.J.H.J.H.-.-.c X X ` m.x.g g C.F.D.B.B.B.B.B.    < g g *.m.*.g g #   > B.B.p.g g ",
"G.G.J.H.G.H.G.G.G.G.g.h.l.l.G.G.H.G.G.G.G.G.G.G.H.J.J.H.-.-.B 2 2 +.m.v.[ ] a.d.a.{ p.p.p.p.< , p ] ] v.m.v.] ] e < e p.p.G h h ",
"H.J.H.J.J.H.K.J.H.J.h.g.H.H.K.K.G.l.l.G.z.z.z.z.K.K.K.K.-.-.C 8 7 @.m.m.m.m.G g g g g g g g g g ] m.m.m.m.m.m.m.G g g g g h l z ",
"J.H.J.H.H.J.J.K.J.J.g.h.H.Z.J.J.G.G.l.G.z.z.z.z.K.K.K.K.-.-.C 8 8 @.m.m.m.m.D g g g g g g g g g ] m.m.m.m.m.m.m.D g g g g h z x ",
"Z.H.H.J.G.G.H.H.G.H.g.h.z.z.J.J.H.H.G.G.z.z.H.G.J.G.G.G.h.c.M 8 8 @.m.m.m.m.=.*.*.*.*.*.*.*.*.*.v.m.m.m.m.m.m.m.=.*.*.*.c.] k z ",
"H.H.J.H.G.G.H.Z.H.G.h.g.z.z.H.J.H.H.G.G.z.z.G.G.G.G.Z.l.l.j.S 0 8 @.m.m.m.m.m.m.m.m.m.m.m.m.m.m.m.m.m.m.m.m.m.m.m.m.m.m.m.] l 9.",
"j.j.h.h.j.j.j.j.j.h.h.j.j.j.j.h.j.j.h.h.j.j.h.j.j.j.j.h.g.g.F c c _ @.%.m.m.n.1.m.m.m.m.m.m.:.:.:.:.:.:.:.:.:.:.1.m.m.1.1.] l z ",
"j.h.j.h.h.j.j.j.h.j.j.h.j.j.h.j.j.h.h.j.h.h.j.j.j.j.j.h.h.g.s.-.-.c 7 m m.m.>.-.>.m.m.m.m.m.n n n n n n n n n n :.m.1.-.-.( l x ",
"H.G.H.J.H.G.J.H.H.G.H.G.G.G.G.G.G.G.z.z.G.G.G.G.H.J.J.H.l.k.} -.-.c 7 m m.m.>.-.>.m.m.m.m.m.n n n n n n n n n n :.m.1.-.-.) k x ",
"G.H.H.H.G.H.H.J.G.H.G.H.G.G.G.G.G.G.z.z.G.G.G.G.J.H.J.J.z.k.c.-.-.#.@.%.m.m.>.-.>.m.m.m.m.m.:.>.:.:.:.:.:.:.:.:.m.m.m.-.-.) k x ",
"J.K.H.G.K.K.J.H.J.H.J.H.H.H.z.z.z.z.z.z.z.z.J.H.J.H.K.K.H.H.*.-.-.n.m.m.m.m.>.-.>.m.m.m.m.m.m.m.m.m.m.m.m.m.m.m.m.m.1.-.-.[ k x ",
"J.J.H.J.K.K.H.J.H.J.H.J.H.J.z.z.z.z.z.z.z.z.H.J.J.J.K.K.J.J.f.=.=.1.1.n.m.m.,.>.,.m.m.m.m.m.m.m.m.m.m.m.m.m.m.m.m.m.1.-.>.[ k x ",
"H.G.J.H.J.H.H.G.H.G.H.G.H.J.H.J.z.z.H.G.Z.H.H.G.J.J.J.J.z.z.g.i.h.%.-.>.m.m.m.m.m.m.m.m.m.m.m.m.m.m.m.m.m.m.m.m.m.m.m.m.m.{ l x ",
"G.H.H.J.S.H.H.H.G.H.G.H.J.H.J.H.z.z.G.H.H.H.H.H.H.J.J.J.z.z.g.i.g.%.-.>.m.m.m.m.m.m.m.m.m.m.m.m.m.m.m.m.m.m.m.m.m.m.m.m.m.{ l x ",
"j.j.j.j.h.j.h.h.j.j.j.j.j.h.j.j.j.j.j.j.h.h.h.j.j.j.h.h.h.h.j.g.g.s.} $.,.,.,.,.,.,.,.,.,.,.,.,.,.,.,.,.,.,.,.,.,.,.=.] ] G l W ",
"j.j.j.j.h.h.j.j.h.j.j.j.j.j.j.j.j.j.j.h.h.h.h.j.j.h.h.h.j.h.h.g.g.u.r.! -.-.-.-.-.-.-.-.-.-.-.-.-.-.-.-.-.-.-.-.-.-.+.h h k z 9.",
"G.H.G.G.G.G.z.z.G.G.g.h.H.G.H.G.Z.H.G.H.G.H.G.H.H.J.H.H.H.H.J.G.k.h.g.a.:.-.-.-.-.-.-.-.-.-.-.-.-.-.-.-.-.-.-.-.-.-.@.k z x q.t.",
"G.G.G.G.G.G.z.z.G.G.h.g.G.H.G.H.H.H.G.H.H.G.H.G.J.H.H.H.J.H.J.K.z.k.h.g.u.w.2.U P o.o.o.o.o.o.o./ k l k k l k l l l l z x 0.r.i.",
"J.H.K.J.G.G.z.z.K.J.h.g.G.l.H.H.J.H.J.H.H.J.H.J.H.J.K.K.K.K.K.K.H.G.l.k.i.u.3.U P o.o.o.o.o.o.o./ l l l z x z x x G 9.0.w.r.i.g.",
"H.J.K.K.G.G.z.z.J.K.g.h.G.G.H.J.H.J.H.J.J.H.J.H.J.J.K.K.K.K.K.K.H.S.H.z.4.f.3.U 3.O.5.T N N O.O.&. . .W 9.9.0.0.0.0.w.w.u.i.h.k.",
"G.G.H.H.H.G.G.G.H.H.h.g.J.H.J.H.J.H.H.H.G.H.G.H.J.J.G.G.H.V.z.z.G.G.G.l.6.6.6.6.3.5.6.E s s 6.6.6.6.6.~ 9.q.w.w.t.r.t.t.u.g.g.h.",
"G.G.H.Z.G.H.G.G.J.S.g.h.H.J.H.J.H.J.H.Z.H.G.H.G.J.J.G.H.H.H.z.z.G.G.G.Z.6.6.6.6.6.6.6.E s s 6.6.6.6.6.^ w.r.u.i.g.g.g.g.g.h.j.j.",
"j.h.h.j.j.j.j.j.h.h.j.h.j.j.j.j.j.j.j.h.j.j.j.h.j.h.j.j.j.j.j.j.j.4.6.6.6.6.I L I 6.6.| 8.8.6.6.6.6.6.~ 9.w.t.u.u.i.i.g.g.g.g.h.",
"h.j.j.j.j.j.h.h.h.j.h.h.j.j.h.h.j.h.j.j.j.h.h.j.h.h.j.j.j.j.j.j.j.4.6.6.6.6.I L I 6.6.| 8.8.6.6.6.6.6.~ W w.t.i.g.g.h.g.h.g.h.j.",
"K.K.H.H.G.H.G.H.G.H.J.H.G.H.G.H.G.G.J.J.G.G.J.J.H.J.G.G.G.G.h.g.K.A.5.5.5.5.I L I 6.6.| 7.7.6.6.6.6.6.| e.a.g.k.l.G.G.G.l.G.g.h.",
"K.K.G.G.H.G.H.G.H.G.H.J.H.G.H.G.G.G.J.J.G.J.J.J.J.H.G.G.G.G.g.h.K.N.m.m.m.n.P L I 6.6.E s s 6.6.6.6.6.;.-.%.g.j.l.G.G.G.G.G.h.g.",
"J.K.K.K.J.H.J.H.J.H.J.H.J.H.G.H.J.J.J.H.K.K.H.G.K.K.J.J.J.K.h.g.K.N.m.m.m.m.P L I 6.6.E s s 6.6.6.6.6.;.-.%.u.g.G.J.G.J.K.J.g.h.",
"K.K.J.K.H.J.H.J.H.J.H.J.H.J.H.G.J.G.J.J.K.K.G.H.K.K.J.J.K.K.g.h.J.N.m.m.m.m.P L I 6.6.| 7.7.6.6.6.6.6.;.-.*.u.g.l.G.G.J.J.J.g.h.",
"G.G.K.K.J.H.H.H.H.G.J.J.G.H.G.H.G.G.J.J.H.G.G.G.G.G.G.G.G.G.h.g.z.M.m.m.m.m.P L I 6.6.| 8.8.6.6.6.6.5.;.-.#.r.u.i.h.l.z.G.G.h.g.",
"G.G.K.K.H.H.H.S.G.G.J.H.H.G.H.G.J.S.J.J.G.H.G.G.G.G.G.G.G.H.g.h.z.M.m.<.' ] J K K R R H f f R R R R R &.-.#.q.r.d.h.k.l.G.J.g.h.",
"j.h.h.j.j.j.h.h.j.j.j.h.j.j.j.j.j.j.h.h.h.j.h.j.j.j.j.j.j.j.j.h.h.b.m.' + O - - - - - - - - - - - - - A -.@.z q.r.u.g.h.h.h.j.j.",
"h.j.j.h.j.j.h.j.j.j.h.j.j.j.j.j.j.h.h.k.h.h.j.j.j.j.j.j.j.j.j.j.h.b.m.' o + - - - - - - - - - - - - - A -.@.l H w.u.g.g.h.j.j.j.",
"G.G.H.J.G.H.G.G.Z.H.h.g.G.G.G.G.G.G.z.z.G.G.G.G.J.H.J.J.H.G.G.G.z.V.V.e.@ - - - - + + + + + + + @ - - a G G x q.u.h.j.G.G.G.G.G.",
"G.G.J.H.H.G.G.G.G.G.g.h.l.l.G.G.G.G.z.z.G.G.G.G.H.J.J.K.G.H.G.G.z.l.k.q.- - - - - O O O O + O + @ - - t k l x q.i.g.G.G.G.G.G.G.",
"H.J.H.J.J.J.K.K.J.H.h.g.H.G.K.K.z.z.z.z.z.z.z.z.K.K.K.K.J.H.J.K.H.z.l.w.- - - - - O O O O + + O @ - - t l z 9.w.g.j.G.H.J.G.J.J.",
"H.H.J.H.J.H.J.K.H.J.g.h.G.G.J.K.z.z.z.G.z.z.z.z.K.K.K.K.H.J.K.J.H.H.l.r.- - - - 1 l g g k k O + @ - - t l x 0.r.h.G.G.J.G.J.J.K.",
"G.H.J.H.G.G.H.G.H.G.h.h.z.z.J.H.H.H.Z.G.z.z.G.H.H.G.G.G.G.G.H.H.G.G.z.r.- - - - 1 l h h l l + O @ - - d z 9.w.u.g.j.j.G.G.G.G.G.",
"H.G.H.J.H.S.G.H.G.H.g.g.z.z.H.J.H.H.G.G.z.z.H.G.H.G.G.G.G.Z.H.G.G.G.G.r.O + + @ , l h h x x . . o + + t z 0.t.g.h.k.l.l.G.G.J.G.",
"j.j.j.j.h.j.j.h.j.j.j.j.j.h.j.j.j.j.h.j.j.h.j.h.h.j.j.j.j.j.j.h.j.h.h.9.o X o o ; l l l x x     . X O t l 9.w.u.i.g.h.j.j.j.j.j.",
"j.j.j.j.h.j.h.j.h.j.j.h.h.j.j.j.j.j.j.h.j.h.h.h.j.h.h.j.j.j.j.j.h.j.h.W o o o o ; l l x 0.q.    . o o t z 9.w.u.g.j.j.j.j.j.j.j."
};
