/* XPM */
static char *result[] = {
/* columns rows colors chars-per-pixel */
"64 64 183 2 ",
"   c #000001",
".  c #0C0000",
"X  c #070709",
"o  c #09090B",
"O  c #100100",
"+  c #140B09",
"@  c #1D120C",
"#  c #1C1C0C",
"$  c #0E0F12",
"%  c #111215",
"&  c #1A1717",
"*  c #13161A",
"=  c #16181E",
"-  c #25140F",
";  c #2A140F",
":  c #261611",
">  c #2A1A11",
",  c #321F14",
"<  c #321D1C",
"1  c #352115",
"2  c #39261B",
"3  c #3C261C",
"4  c #3B281A",
"5  c #343119",
"6  c #1A1D24",
"7  c #221E21",
"8  c #1B322C",
"9  c #1C3B35",
"0  c #272828",
"q  c #372821",
"w  c #3C3027",
"e  c #343434",
"r  c #45251E",
"t  c #42291B",
"y  c #4F3020",
"u  c #44332F",
"i  c #543524",
"p  c #5B3826",
"a  c #563A28",
"s  c #433534",
"d  c #4A3733",
"f  c #4C3934",
"g  c #653F29",
"h  c #683F2B",
"j  c #4F4136",
"k  c #4D4239",
"l  c #554031",
"z  c #614026",
"x  c #63412A",
"c  c #634C3A",
"v  c #7D4F35",
"b  c #765035",
"n  c #6F7132",
"m  c #004343",
"M  c #004949",
"N  c #0D4E4F",
"B  c #1C4546",
"V  c #194748",
"C  c #144C4C",
"Z  c #1A494A",
"A  c #0F4F50",
"S  c #025556",
"D  c #0C5253",
"F  c #085758",
"G  c #005A5B",
"H  c #0B5B5C",
"J  c #135152",
"K  c #105758",
"L  c #3C6458",
"P  c #005F60",
"I  c #095E60",
"U  c #006365",
"Y  c #006769",
"T  c #006869",
"R  c #4D4B4C",
"E  c #544C48",
"W  c #524F50",
"Q  c #425657",
"!  c #555252",
"~  c #595455",
"^  c #665447",
"/  c #726352",
"(  c #767559",
")  c #444B60",
"_  c #505871",
"`  c #676767",
"'  c #777966",
"]  c #845534",
"[  c #89573B",
"{  c #84593B",
"}  c #90613F",
"|  c #9C713F",
" . c #A36D3F",
".. c #A86E3C",
"X. c #CE6A39",
"o. c #855E46",
"O. c #8A5C42",
"+. c #845E48",
"@. c #956847",
"#. c #9D6F44",
"$. c #9C6F48",
"%. c #86784C",
"&. c #967345",
"*. c #9C7044",
"=. c #96714B",
"-. c #9A704A",
";. c #876750",
":. c #847257",
">. c #84765B",
",. c #957151",
"<. c #967158",
"1. c #A46D41",
"2. c #A26B48",
"3. c #A17041",
"4. c #A4714A",
"5. c #AA704A",
"6. c #B0784F",
"7. c #B77F58",
"8. c #857B65",
"9. c #897A6F",
"0. c #8A7D74",
"q. c #7E8562",
"w. c #A29C37",
"e. c #9EA327",
"r. c #9FA631",
"t. c #C6CE26",
"y. c #D0C73E",
"u. c #D7C93F",
"i. c #CCD335",
"p. c #D1DA36",
"a. c #9E8752",
"s. c #A1984F",
"d. c #BE8054",
"f. c #BD965D",
"g. c #A6A64C",
"h. c #ACB153",
"j. c #909762",
"k. c #9A8574",
"l. c #B38664",
"z. c #B68861",
"x. c #BB8B67",
"c. c #B88B6A",
"v. c #AB8D76",
"b. c #9DA575",
"n. c #CA8A5D",
"m. c #D28E5D",
"M. c #E99658",
"N. c #C1AA56",
"B. c #E3BC5E",
"V. c #C58C63",
"C. c #C4906B",
"Z. c #CD966F",
"A. c #D79769",
"S. c #CF9F73",
"D. c #D69D74",
"F. c #DBA464",
"G. c #CDA07E",
"H. c #D9A37B",
"J. c #EBA069",
"K. c #E7B168",
"L. c #E7A172",
"P. c #ECA570",
"I. c #EDAA77",
"U. c #E1A97E",
"Y. c #EEAE7E",
"T. c #BDC346",
"R. c #D9DA4F",
"E. c #E1D66C",
"W. c #DCE263",
"Q. c #5B6480",
"!. c #626C8A",
"~. c #9C8F85",
"^. c #AC9381",
"/. c #AE9A8B",
"(. c #AE9D90",
"). c #CFA98D",
"_. c #DEAA81",
"`. c #EEAF80",
"'. c #EFB385",
"]. c #F1BF9A",
"[. c #D2B7A4",
"{. c #F4CDB1",
"}. c #F5D2B8",
/* pixels */
"G G P P G G G P G o X   X   X X     X     X     X   X X   X   .   + @ - 1 1 p x p 1 1 1 1 1 1 1 1 1 1 +   ~ 1 1 1 1 1 1 1 9 m m ",
"G G P P G G U P G . + q q 2 q 2 3 q q 3 q 3 3 r q 3 q 2 3 3 q q q : @ - 1 1 p h p , 1 1 1 1 1 1 1 1 , 2 + ! 1 1 1 1 1 1 1 9 m m ",
"U U G G Y Y G U U . 3 ,.$.1.1.1.1.1.1.1.1.5.1.1.1...1.1.1.1.] p g 2 > , y y y y y y y t 1 1 y y t 1 1 a > f y y 3 1 1 1 1 0 8 8 ",
"U U G G Y Y U U G . t ,.2..... ...1.1.1.1.1...1.1.1.1. .1.3.z @ @ > 1 t h h t 1 t h h y 1 1 h h y 1 1 1 1 t h h t 1 1 1 1 1 1 1 ",
"G G P P G G G G G . 3 ,.$.1.1.O.o.o.o.o.o.o.+.+.+.+.+.+.+.o.a @ @ , 1 t h h t 1 t h h y 1 1 h h y 1 1 1 1 t h h t 1 1 1 1 1 1 1 ",
"G G P P P G G G G . 3 ,.$.1.2.3 X . . . . . . . . . . X @ @ > 1 1 p h p 1 1 p h p 1 1 y h h 1 1 @.J.J.J.J.d.1 1 g x p 1 1 1 1 1 ",
"M M M M M M M M M . 3 ,.#.1.1.3 .     .   X   X   X     @ @ > 1 1 p h p 1 1 p h p 1 , i h h 1 1 [ J.J.J.J.n., 1 p x p 1 1 1 1 1 ",
"M M M M M M M M M . 3 $.#. . .t   . X X X   X   X   X X @ @ : 1 1 p h p 1 1 p h h x h x h h x x 5.P.P.P.P.V.g z h h x x x y 1 1 ",
"G G G S G G S S G . 3 $.#. .1.2 .                       @ @ > 1 1 p h p 1 1 p h [ J.J.5.h h J.J.I.'.'.'.'.Y.J.J.[ h [ J.J.} 1 1 ",
"G G G G G G S S G . t &.#. . .3                         @ @ > 1 1 p h p 1 , p h [ J.J.5.h x J.J.I.'.'.'.'.Y.J.J.[ h [ J.J.@.1 1 ",
"P P U U G S S S U . 3 &.|  . .4                         @ @ > 1 1 p h v 7.d.v h [ J.J.A.Z.Z.Y.`.'.'.'.'.'.'.Y.Y.m.n.m.J.J.1.p p ",
"P P U U G G S S U . 3 &.|  . .2                         @ @ > 1 1 p h [ J.J.[ h [ J.J.I.'.'.'.'.'.'.'.'.'.'.'.'.J.J.J.J.J.5.h h ",
"G S G G G G G G G . 2 &.|  .*.4 .                       @ @ > 1 1 p h [ J.J.1.[ 5.J.P.Y.'.'.'.'.'.'.'.'.'.'.'.'.I.P.P.J.J.4.f l ",
"G G G G G G G G G . 4 &.|  . .3                         @ @ > 1 1 p h [ J.J.J.J.P.'.'.'.'.'.'.'.'.'.'.'.'.'.'.'.'.'.Y.J.J.:.B B ",
"M M M M M M M M M . t &.|  . .4                         @ @ > 1 1 p h [ J.J.J.J.P.'.'.'.'.'.'.'.'.'.'.'.'.'.'.'.'.'.Y.J.J.( M M ",
"M M M M M M M M M O 4 &.|  . .3                         @ @ @ - - i h [ J.J.J.J.J.P.P.P.P.P.P.P.P.P.P.P.P.P.P.P.P.P.J.J.J.( M M ",
"T T G G G G G G G . 3 =.$.1.3.3                         @ @ @ @ @ i h [ J.J.J.J.J.J.J.J.J.J.J.J.J.J.J.J.J.J.J.J.J.J.J.J.J.:.m m ",
"T T S G G G G P G . 3 ,.$.1. .3                         @ @ @ @ @ i h [ J.J.J.J.J.J.J.J.J.J.J.J.J.J.J.J.J.J.J.J.J.J.J.J.J.;.m m ",
"Y U U U P P P P P . 3 =.#.1.1.3 .                       @ @ @ @ @ ! ` ` ` ` ` ` ` ` ` ` ` ` ` ` ` ` ` ` ` ` ` ` ` ` ` ` ` ` ` ` ",
"U U U U P P P P P . q =.&.1.3.2                         @ @ @ @ @ ! ` ` ` ` ` ` ` ` ` ` ` ` ` ` ` ` ` ` ` ` ` ` ` ` ` ` ` ` ` ` ",
"G G T T G G G G G . 3 =.*. . .3                         { { i @ @ :.v.k.` ` ~.(./.^.^.^.^.^.^.^.9.` ` k.v.k.` ` k.^.^.^.v.0.` ` ",
"S G T T G G G P G O t =.*. . .3                         J.J.{ @ @ x.'.G.` ` [.}.{.].].].].].].].^.` ` G.`.S.` ` ).].].].].^.` ` ",
"M M M M M M M M M O 3 =.*. .3.2                         J.J.{ @ @ x.'.G.` ` [.}.{.].].].].].].].^.` ` ).'.G.` ` ).{.].].].^.` ` ",
"M M M M M M M M M . 3 ,.*. . .3 .                       J.J.{ @ @ x.'.G.` ` [.}.{.].].].].].    e ` ` D.'.).` ` &   w ].].^.` ` ",
"G G P P G G G S G . 3 ,.#.1.1.3                         J.J.{ @ @ x.'.G.` ` [.}.{.].].].].].    e ` ` G.'.G.` ` &   w ].].^.` ` ",
"G S P P G G G G G . 3 =.&.3.3.3                         J.J.@.r r C.'.H.v.v./.(./.^.^.^.^.^.e e / v.v._.'._.v.v.E e R v.^.' Q Q ",
"P P P P P P U U P . 3 =.*. . .3                         J.J.5.h h Z.'.'.'.'.9.` ` ` ` ` ` ` ` ` v.'.'.'.'.'.'.'.9.` ` ` ` Q Z Z ",
"P P P P P P U Y P . 3 =.*. . .3                         J.J.5.h h Z.'.'.'.'.9.` ` ` ` ` ` ` ` ` v.'.'.'.'.'.'.'.9.` ` ` ` Q Z Z ",
"G G P P G G G G G . t =.#. . .4                         4 4 i h h Z.'.'.'.'.H.).).G.G.G.G.G.G.)._.'.'.'.'.'.'.'.D.).).D.).( B B ",
"G G P U G S G G G . 3 =.#. . .3 .                           1 x h Z.'.'.'.'.'.'.'.'.`.`.`.`.`.'.'.'.'.'.'.'.'.'.'.`.`.'.`.8.B Z ",
"M M M M M M M M M . 3 ,.$.1.#.2                             t [ [ z.Z.D.'.'.Y.Y.`.'.'.'.'.'.L.L.L.L.L.L.L.L.L.L.`.'.'.Y.Y.' M M ",
"M M M M M M M M M . 3 ,.#.1.1.2                             b J.J.[ h O.'.'.J.J.P.'.'.'.'.'.X.X.X.X.X.X.X.X.X.X.L.'.Y.J.J.( M M ",
"G G P G G G G U G . 2 =.&. . .4                             b J.J.[ h O.'.'.P.J.P.'.'.'.'.'.X.X.X.X.X.X.X.X.X.X.L.'.Y.J.J.:.m m ",
"G G P U G G U G G O 4 =.#. . .3                             b J.J.A.Z.D.'.'.P.J.P.'.'.'.'.'.L.L.L.L.L.L.L.P.L.L.'.'.Y.J.J.( m m ",
"Y U G G T T G U U . 3 =.1. .3.3                             b J.J.`.'.'.'.'.P.J.P.'.'.'.'.'.'.'.'.'.'.'.'.'.'.'.'.'.Y.J.J.>.m m ",
"P U G G Y Y U U G O 3 =.#. . .3 .                           a 6.6.L.Y.`.'.'.I.P.I.'.'.'.'.'.'.'.'.'.'.'.'.'.'.'.'.'.Y.P.J.>.m m ",
"G G P P P G G G G . 3 ,.$.1.3.3                                   6.J.P.'.'.'.'.'.'.'.'.'.'.'.'.'.'.'.'.'.'.'.'.'.'.'.'.'.8.m m ",
"G G P P G G G G G . 3 ,.#.1.3.2                                   6.J.J.'.'.'.'.'.'.'.'.'.'.'.'.'.'.'.'.'.'.'.'.'.'.'.'.'.8.m m ",
"M M M M M M M M M . q =.*.1. .4                                   a b @.I.I.I.I.I.I.I.I.I.I.I.I.I.I.I.I.I.I.I.I.I.I.G.q.q.L M M ",
"M M M M M M M M M . 3 =.&. . .3                                       2 J.J.J.J.J.J.J.J.J.J.J.J.J.J.J.J.J.J.J.J.J.J.l.M M M M M ",
"G G G S G S S S G O t &.#.1. .2                                       4 J.J.J.J.J.J.J.J.P.J.J.J.J.J.J.J.J.J.J.J.J.J.f.B B V J J ",
"G G G S G G S S G O 3 &.#.1. .3 .                                           e.p.u.M.M.M.M.M.M.M.5.c c k - R B B V V B Z V V A J ",
"U P U Y G G S G U . 3 ,.$.#. .3                                             e.p.u.M.M.M.M.M.M.M.5.c c ^ - R Z Z V Z Z Z J J K I ",
"G U U U S G S S U . q ,.#.1.1.2                                       # n n T.R.R.B.B.f.<.<.B.K.N.s.s./ - W Z C C C J J J K K I ",
"S G G G G G G G G . 3 =.&.1. .4                                       5 W.W.W.W.W.W.W.j.) ) W.W.W.W.W.%.- ! C C J J C A J A D S ",
"G G G G G G G G G . 3 =.*. . .3                                       5 W.W.W.W.W.W.W.j.) ) W.W.W.W.W.%.- ~ A A D D D D D S S S ",
"M M M M M M M M M . t =.#. . .3                                   g.W.W.W.W.p.t.p.W.W.b.!.!.W.W.W.W.W.%.: ~ M M M M M M M M m M ",
"M M M M M M M M M O 3 &.*. .#.2 .                                 g.W.W.W.W.p.t.i.W.W.b.!.!.W.W.W.W.W.%.: ~ M M M M M M M M M M ",
"T T G G G G G G G . 3 ,.*.1.3.3 .                               . g.E.E.E.E.t.t.i.W.W.b.Q.Q.W.W.W.W.W.a.p / K F P P F G G G m m ",
"T T G S G G G G G . 2 ,.$.1.3.3                                   x.'.'.Y.Y.N.t.i.W.W.j.) ) W.W.W.W.W.K.J.V.K I F P G G S G m m ",
"U U U Y P P G U U . 3 ,.*. .3.3                                   l.'.'.'.'.y.t.i.W.W.j.) ) W.W.W.W.W.K.J.V.N D I Y P P P Y m m ",
"U U U U P P U U P . 2 =.&. . .3                                   l.'.'.'.'.y.t.i.W.W.b.Q.Q.W.W.W.W.W.K.J.V.N N I Y P P Y P m m ",
"G S T T G G G G G . 3 =.2. . .2 .                                 l.'.'.'.'.R.t.i.W.W.b.!.!.W.W.W.W.W.K.J.V.C N D D S G G G m m ",
"G G T T G G G G G O t =.*. . .3                                   l.'.U.c.v.w.e.r.h.h.q._ _ h.h.h.h.h.F.J.V.C C N D S G G P m m ",
"m M M M M M M M M . 3 =.*. . .4                                   l.'.c.% % 6 6 6 6 6 6 6 6 6 6 6 6 6 7.J.V.M M M M M M M M m M ",
"M M M M M M M M M . 3 ,.*. .3.4                                   l.'.c.% % 6 6 6 6 6 6 6 6 6 6 6 6 6 7.J.V.M M M M M M M M M M ",
"G G P P G G G S G . 3 ,.$.1.*.3 .                                 , w 2 6 = 6 6 6 * * * * * * * = 6 6 ^ a ^ V V J F I P G G S G ",
"S G P P G G G G G . 3 =.#.1. .3                                       X 6 6 6 6 6 % $ * % % % % = 6 6 f - R V C D F F H G G G G ",
"P P P P P P U U G . 3 =.*. .3.3                                       o 6 6 6 6 6 % * % % * * * = 6 6 R - R V C K I I Y P P P Y ",
"P P P P P P U Y U O 3 =.*. . .3                                       o 6 6 6 6 0 d d d s s * % = 6 6 f - W V C I I Y Y P P Y P ",
"G G U G S G G G G O 3 =.|  .1.3                                       X 6 6 6 6 0 d d d d u * % = 6 6 k - W C A D S S S S S G P ",
"G G G U G G G G G . 3 ,.&.1.1.3                                       X * * * * 7 d d d d u o o $ * * j ; W A D D S S S G G G G ",
"M M M M M M M M M O 3 ,.#. .1.4 X   X     X X   X       X   X   X     X % + $ % & r r r r r     + $ $ j ; W M M M M M M M M M M ",
"M M M M M M M M M + q <.,.#.-.4 X X     X X   X X X X X   X X X   X   X % $ $ $ & < < < < <     X $ $ j : ~ M M M M M M M M M M "
};
