/* XPM */
static char *result[] = {
/* columns rows colors chars-per-pixel */
"64 64 246 2 ",
"   c #020203",
".  c #090A09",
"X  c #120D0C",
"o  c #091809",
"O  c #15170E",
"+  c #0A0C14",
"@  c #170E11",
"#  c #0E1018",
"$  c #141414",
"%  c #1D1612",
"&  c #191B17",
"*  c #13151C",
"=  c #16191D",
"-  c #2C0E17",
";  c #231A14",
":  c #261E18",
">  c #2A1D19",
",  c #0B250B",
"<  c #0F2D0C",
"1  c #162815",
"2  c #173916",
"3  c #212518",
"4  c #2C221B",
"5  c #35251D",
"6  c #263619",
"7  c #35371E",
"8  c #061528",
"9  c #151821",
"0  c #1A1D24",
"q  c #281B23",
"w  c #1E2129",
"e  c #1C2D2E",
"r  c #26282B",
"t  c #3A2B24",
"y  c #283924",
"u  c #373C27",
"i  c #282C37",
"p  c #2C3139",
"a  c #343739",
"s  c #561C26",
"d  c #442A27",
"f  c #463226",
"g  c #513A32",
"h  c #693338",
"j  c #104D0E",
"k  c #164717",
"l  c #195618",
"z  c #26571E",
"x  c #1D631B",
"c  c #21651E",
"v  c #236B1E",
"b  c #264723",
"n  c #394A26",
"m  c #2A582A",
"M  c #3A512E",
"N  c #256C23",
"B  c #296A26",
"V  c #30642E",
"C  c #257224",
"Z  c #297426",
"A  c #287A25",
"S  c #2C762A",
"D  c #2C7B2B",
"F  c #327A2D",
"G  c #356A34",
"H  c #357B34",
"J  c #4C4C31",
"K  c #684D3B",
"L  c #744E33",
"P  c #4D742D",
"I  c #4C6636",
"U  c #1F2E48",
"Y  c #2C3344",
"T  c #353A45",
"R  c #373D4D",
"E  c #383E4E",
"W  c #373F50",
"Q  c #443A42",
"!  c #71364B",
"~  c #3D414A",
"^  c #3B4152",
"/  c #484646",
"(  c #444957",
")  c #565354",
"_  c #715350",
"`  c #796251",
"'  c #675964",
"]  c #676466",
"[  c #6B6B6B",
"{  c #73686B",
"}  c #796D6F",
"|  c #6C6D71",
" . c #737373",
".. c #797678",
"X. c #7B7B7C",
"o. c #9A3133",
"O. c #8E5F3D",
"+. c #DB463F",
"@. c #8B3A4C",
"#. c #983B46",
"$. c #AA3C47",
"%. c #924850",
"&. c #B04D55",
"*. c #8B6954",
"=. c #A9714B",
"-. c #B67C52",
";. c #95586A",
":. c #B15469",
">. c #BD5B74",
",. c #8D7571",
"<. c #AA6B72",
"1. c #BA687C",
"2. c #D54F4B",
"3. c #DA4E57",
"4. c #DC5655",
"5. c #DC545A",
"6. c #DE5B5D",
"7. c #D66E50",
"8. c #E8744B",
"9. c #E16957",
"0. c #E47859",
"q. c #C65871",
"w. c #DE6362",
"e. c #D67F76",
"r. c #E16964",
"t. c #E37769",
"y. c #2D832B",
"u. c #31872E",
"i. c #358333",
"p. c #398537",
"a. c #3C8A3A",
"s. c #3A9538",
"d. c #3BA53A",
"f. c #418D3F",
"g. c #5B8938",
"h. c #42943E",
"j. c #66983E",
"k. c #3F9240",
"l. c #438D42",
"z. c #449442",
"x. c #459A44",
"c. c #499C46",
"v. c #4B9D49",
"b. c #6A8E49",
"n. c #49A447",
"m. c #4DA34B",
"M. c #51A94D",
"N. c #4DB24B",
"B. c #51B44E",
"V. c #53AB51",
"C. c #56B753",
"Z. c #78AB4F",
"A. c #5AC556",
"S. c #5FD15E",
"D. c #62CC5F",
"F. c #85B259",
"G. c #A58D6B",
"H. c #B58D6F",
"J. c #D98B5B",
"K. c #E68757",
"L. c #F09155",
"P. c #D08D6F",
"I. c #E68768",
"U. c #EA9D64",
"Y. c #E79968",
"T. c #EB8F70",
"R. c #E99977",
"E. c #EBA067",
"W. c #EBA16C",
"Q. c #ECA36D",
"!. c #F6A66A",
"~. c #FFB96B",
"^. c #EAA777",
"/. c #EDAC7B",
"(. c #FEAE72",
"). c #FEB779",
"_. c #8AC959",
"`. c #90D25B",
"'. c #93CD61",
"]. c #98D966",
"[. c #A2D971",
"{. c #9DE266",
"}. c #A2E66E",
"|. c #A9E776",
" X c #AEF173",
".X c #B6F87A",
"XX c #8B7D84",
"oX c #B97587",
"OX c #CA758D",
"+X c #7E8690",
"@X c #848484",
"#X c #878688",
"$X c #8B8B8C",
"%X c #8F8F91",
"&X c #939393",
"*X c #99969A",
"=X c #9C9C9C",
"-X c #AF8D95",
";X c #B09AA2",
":X c #A3A3A4",
">X c #ABA4A6",
",X c #AEAEAE",
"<X c #B2A8AB",
"1X c #B3AEB0",
"2X c #B5B4B5",
"3X c #BBB5B7",
"4X c #BCBCBD",
"5X c #C48697",
"6X c #C79599",
"7X c #E89881",
"8X c #D7AF91",
"9X c #EDAB82",
"0X c #EFB385",
"qX c #EEB589",
"wX c #F0B486",
"eX c #F1B68A",
"rX c #F0B88E",
"tX c #FCBD8C",
"yX c #F1BC94",
"uX c #C499A5",
"iX c #D792A4",
"pX c #CCADAB",
"aX c #C6ABB3",
"sX c #C8B5BB",
"dX c #C2BBBE",
"fX c #E5AFBE",
"gX c #B7F286",
"hX c #FFC88F",
"jX c #FCC696",
"kX c #C3F985",
"lX c #CFF797",
"zX c #C3FA94",
"xX c #C8FD9A",
"cX c #EADBA9",
"vX c #CEFFA1",
"bX c #D9FFA6",
"nX c #BFBFC0",
"mX c #C2BDC1",
"MX c #CCBAC1",
"NX c #E3B5C2",
"BX c #BFC1C4",
"VX c #C3C3C4",
"CX c #C7C7C8",
"ZX c #CBCBCC",
"AX c #D0D3D7",
"SX c #E8DAE1",
/* pixels */
"VXVXVXVXnXVXVXCXnXVXVXnXnXnXnXnXnXnX4X4XnXnX4XBXVXVXCXVX^.W.W.W.W.W.W.W.W.W.W.W.W.W.W.W.W.W.W.W.W.W.W.W.W.W.W.W.pXVXVXVX4X4X:X,X",
"VXnXVXVXVXVXCXVXVXnXnXVXnXnXnXnXnXnX4X4XnXnXBXBXVXCXCXVXW.E.Y.U.U.U.U.U.U.U.Y.Y.U.U.U.U.U.U.U.Y.Y.W.W.W.W.W.W.U.pXnXnXBX4X4X,X:X",
"CXCXVXVXZXZXCXVXVXCXCXVXVXCX4X4X4X4X4X4X4X4XBXCXCXCX8XpX/.^.^.^.^.^.^.^.^.^.^./././././././.^./.^.E.W.Y.W.W.U.U.^.8XpXBXVXBX:X,X",
"CXCXVXBXAXZXVXVXCXVXVXCXCXCX4X4X4XnX4XnX4X4XBXCXCX8XE.!.0XrXqX0XqXqXqXjXjXjX8XjXyXyXyXyXyXyXyXjX/.U.E.E.Y.W.!.!.W.W./.4X4XnX:X:X",
"VXVXCXCXVXVXnXVXnXVXVXVXVXCXVXCXnXnXnXBXBXBXBXnXCX8XE.E.0XqX0X0X0X0X0X0XqXqXqXjXrXrXrXrXrXrXrXyX/.E.E.W.E.W.E.!.E.E.^.<X,X,X:X:X",
"BXmXVXVXVXVXVXnXVXnXVXCXCXVXCXVXnXnXnXBXBXBXBXnXnXcX/.0X0X0X0X0X0X0X0X0XqXqX/.8X0X0X0X0X0X0X0X0XqXqXqXW.!.H.5 5 f K f 3 1  .=X:X",
",X,X2X,X,X,X,X2X,X,X,X,X,X,X,X,X,X,X,X,X,X,X,X,X,XpXqXqX0X0X0X0X0X0X0X0X0X0XwXwX0X0X0X0X0X0X0X0XqXjXyX^.!.-.  . > 5 4 % % ] =X:X",
",X,X,X,X,X,X,X,X,X,X,X,X,X,X,X,X,X,X2X,X,X,X,XG.XXG.jX0X0X0X0X0X0X0X0XwX0X0X0X0X0X0X0X0X0X0X0X0XqXqXqX^.~.-.X % 5 d 5 4 4 J  . .",
"VX4X4XVXnX4X4X4XnXnX,X:XVXVXVXnXVXVXnXVXnXVXnX4   L jX0XwXwXwX0XwX0X0X0X0X0X0X0XwXwXwXwX0X0X0X0X0X0X0XW.!.-.O % 5 5 t f f 4 % 4 ",
"VXVXVX4XnXVX4X4XnXnX:X,XVXVXnXVXVXVXVXnXVXnXdXr   *.cXtXtXtXtX9X0X0X0X0X0X9XeXhXtXtXtXtXtXhXqX0X0X0XqX!.~.H.X % 5 f 5 f t 5 % 4 ",
"VXCXCXZXnXnX4X4XCXCX,X:X4X4XVXVXCXVXCXVXVXCXVX4 % f _ L K J *.hXwXwX0X0X0XhX=.g K K K K K K ^.tX0X0XwXW.!.-.X % 4 ; 4 5 f 4 % 4 ",
"CXVXZXZXnXnX4X4XCXCX>X,X4X4XVXCXVXCXVXVXVXVXVX4 ; % . - @   @ t > 4 4 1 H.jX_   @ @ @ @   . R.hX0X0XwXW.(.-.X ; ; % ; d f 4 % 4 ",
"4X4XVXVXVXVX4XnXVXnX:X,XCXVXCXVXCXVXBXBXVXBXMXq O t K u H a.H H f.Z B f.J g a t t t r f g K 8XwX0X0X0XW.(.-.X ; ; ; > 5 5 4 % 4 ",
"VX4XVXVXVXCXnXnXnXVX,X,XVXCXVXCXCXCXBXVXnXVXmXr   *.> u.A.D.N.s.N.C.m . B p.D D A D s.c   ` 9X9X0X0XqXW.(.-.X ; ; ; ; ; ; ; ; : ",
",X,X,X,X,X,X,X,X,X,X,X,X,X,X,X,X,X,X,X1X,X$X*XM y M y G l G m l s.2 6 f.x.B.C.C.s.n.B.V.z.H ` ^.9X9X0XW.(.-.    % > %     % ; : ",
",X,X,X,X,X,X,X,X,X,X,X2X,X,X,X,X1X,X,X,X) , , x.i.V H o . o O 2 c . z A.k.z.a.p.x.n.x.l.n.N.2 h P.^.9XR.!.K.O.=.f . 5 =.-.J . : ",
"ZXAX4XnXVXVXVXnXVXnXVXCXVXnXVXnXVXnXVX) x A.i.V 2 $ 1 c.n.n.c.b + , G V.c.m.i.C k.x.a.A C 1 , < , _ P.R.U.U.!.~.L   f ~.hXO.  3 ",
"ZXZXVX4XVXnXnXVXnXVXCXVXnXVXnXVXnXVX*X< A.A < O H B.m.M.B.C o m C.V.n.p.i.a.a.k.A C y.C , b C.n.d.V $ ` I.U.L.!.K   t !.).L   4 ",
"ZXZXZXZXCXVXVXCXVXCXCXVXVXCXVXnXVXVX:X< N.  m A.v.m.h.c.p.< y B.s.a.m.p.N c C y.2 , 2 . o A.n.a.p.B.s.  <.U.L.!.g   d E.(.*.  3 ",
"ZXZXZXCXVXCXCXVXCXCXVXVXCXVXVX2X[ [ Q k d.  G S.M.y.v s.l . B.m.i.i.v.v.S N y., 1 b y b 2 m C.v.m.k.D j K J.8.L.f   ; !.).L   > ",
"nXnXZXAXVXnXVXnXVXnXVXCXnX2XXX) V m V b ,   O b F S D N 1 G m.h.v.m.z.c.k.S 2 1 M.A.M.A.z.1 k v.v.N N A X =.t.R.=.L O.W.).L . 3 ",
"nXVXZXZXnXVXnXVXVXVXCXCXVX( m F A.H 1 b m G m 2 C A o     m N.n.p.p.m.m.k.S   l.B.D c.m.B.l.6 Z D c v S b t P.7XL.!.!.!.).O.  : ",
",X,X,X2X,X,X,X,X1X,X,X,X] k n.A.l o k H A.s.m.D.u., b V m m n.m.D v p.i.N x V z.c.i.F D i.V.C.S l i.z.i.A   e.T.K.K.L.E.).L   : ",
",X,X,X,X,X,X,X,X,X,X,X*X= s.Z u.o 1 S.M.l.i.k.v.1 b N.h.C.B.z.v.p.c x x p.S x.V.z.i.c x N S F F N D i.S C x _ t.8.L.7.4 4 > ; : ",
"VXnXCXCXnXVXnXnXnXnX=Xy a.F C 2 1 z.x.x.z.v.u.a.+ a.C.H v i.z.a.a.N N N F F D S S N N B Z B c v f.H x N D u.O t.0.8.7.o . O : : ",
"nXnXCXVXVXnXnXnXnXnX=XM p.1 D k 1 C.x.i.i.M.h.S o H C.z.v C B B C N a.i.x C N c Z f.Z D z < D C S S N N A D t w.0.8.7.; O t Q J ",
"VXCXVXCXVXCXCXZXBXCX,X*Xq H m.c.c.z.x.z.z.z.v.C x c.m.l.N c A Z N B N y.u.. k s.S D A y.2 o D Z N N C D A 1 &.w.9.8.9.% ; /  ...",
"CXVXCXVXCXVXZXCXCXBX:Xg a.C.x.c.n.s.z.m.D N z.D D z.l.A z < k x u.y.y.l z 1 b x l k l 2 2 S C B B N A u.l @ 2.w.9.8.7.X ; /  .X.",
"nXVXCXVXnXnXVXVXBXBX$Xr s.M.v.c.c.H F v.i.p.n.N l D y.u.y.< $ 1 k j C J X Z.I q O o O 1 B N u.i.y.u.Z l w &.6.r.4.8.7._ ' [  .X.",
"nXVXVXCXnXnXnXVXBXVXi z.u.a.p.f.n.a.x S v.D x F < 2 z j 2 M .XZ.X 3   &.%.g.J 3.g Z.kXF.. t j 2 k j ; s 3.3.5.w.9.9.K.{ {  ...@X",
",X,X,X2X,X,X,X,X,X,Xo c.C.a.v D V.l.x Z S N c z.a.,   - 6 .X|.].}..X6 &.%.g.K $.K {. X` #.&.d s s d $.2.5.5.6.r.9.8.J.] [ } ..+X",
",X,X,X,X,X,X2X,X,X,X) m s.M.n.m.x.D N H i.y.S N u.k h 3.h Z.].].{. X< 2.%.j.n 6 {..XZ.s 5.5.3.3.3.5.5.4.5.6.9.r.7.8.7.{ {  .X.@X",
"VXnXCXVXVXnXCXVXBXmX<X= C s.i.p.C x C S k , B a., @.3.3.&.<  X].`.}.b.h ` I n {. X XI o.5.5.5.5.6.6.w.6.6.w.t.e.0.8.0.....XX@X#X",
"nXVXVXVXnXVXVXCXVXmXdXX.2 C v v p.H N S k 1 , 1 2 &.3.3.2.%.b.]._._. Xj.z b _. X'.P %.4.6.6.6.w.w.r.r.r.t.t.t.I.K.K.P.X.X.#X#X%X",
"CXCXVXVXZXAXVXCXVXVXMXsX} o A y.s.i.N D y.< I F. Xb.h #.6.q.; ].|.gX]. Xl.[. X`.'.t w.6.6.r.w.t.t.t.I.I.I.I.K.I.K.L.J.XX#X&X$X&X",
"CXZXmXVXZXZXVXVXVXVXMXsX<X,.1 2 A D D i.k _ ` I [.kXP 7 h d 3 zXvXbX[.Z.kXgX].`.V &.6.6.w.w.t.I.I.T.R.T.R.R.I.Y.J.J.P.b.#X&X%X*X",
"VXnXCXVXVXVXnXVXVXVXdXaXaXuX<._ 1 o , , ! q.:.@.f b  XkXj.g.F.vXzXzXgX|.lX'.].|.; 2.2.4.9.9.0.K.T.7X7X^.9XR.K.L.,.| ..X.@X%X%X=X",
"nXVXVXCXVXVXBXnXVXmXdX4XpXuXuX5X;.;.@.%.q.q.q.q.:.;.J I .XbXbXkXzXzXxXvXgX'.].I %.2.4.4.9.t.0.L.Q.yXtXyXjXtXL.L.,.....+X#X&X%X=X",
"2X,X,X,X,X,X1X,X,X,X,X,X<X;X-X-XoX1.oXq.>.>.:.>.>.:.:._ r I kXvXgXzXzXxX].].'.  2.2.2.4.9.9.6XfX-X_ ` ` _ *.,.G.,.[ ....@X%X=X:X",
",X,X,X,X,X2X,X,X1X,X,X,X<X<X-X-XoXoXoX>.>.q.oXoXoXoX>.oX;.! n kXxXzXzXxX}.].J o.+.+.+.+.8.8.CXSX$X  8 8 8 e { ] [ } XXb.$X&X=X:X",
"VXVXnXnXnXnX4X4XnXnX:X,X4XdXaXaXuXuX5X5XOX5X5X5X6X5X5XOXoXoXr '.vXzXzXxX}.].5 +.+.2.2.9.r.t.<XZXXX9 i i i R  .| X.@X%X&X:X:XnXnX",
"nXVXnXnXnXnX4X4XnXVX,X:XnXdXdXsXaX<XuXuXuXuXuX;XuXaX;XuX-XoX_ M bXzXzXvX|.{.n h o.q.OX5XuX<XT r Y E R R R W W R [ #X%X=X,XnXnXnX",
"CXVXCXCXnXnXnX4XCXCX:X,X4X4XVXmXMXsXaXaXaXaXpXaXaXaXsXpXaX;X%.M bXzXzXzX[.].n f #.OX5X<XMXnXi # i ^ E E ( R R R | %X=X,XnXBXnXBX",
"VXCXZXZXnXnX4X4XCXCX,X:X4X4XVXVXmXmXMXdXsXsXsXsXMXdXMXsXaXaX' ) bXxXxX[._.}.u s #.OXiXaXMXMX^ i Y ^ R T p Y W R ) | X.,XnXBXBXAX",
"nXnXVXVXVXnXnXnXVXnX>X,XVXCXVXCXVXVXdXdXnXmXmX4XVXVXdXdXaX1X{ ) bXxXxX|._.}.u 7 #.iXNXaXMXnX( Y ^ R W i w p W R R W ( :X,XnXnXnX",
"nX4XVXVXnXVXnXnXVXVX,X>XCXVXCXVXCXVXBXBXmXnXmXmXCXCXmXmX4XsX} u bXxXvX[._.}.n u $.OXNXNXMXnX( Y R R W p w Y W R R R ( :X:X,X2X,X",
",X,X,X,X,X,X,X,X,X,X,X2X,X,X,X,X,X,X2X,X,X,X,X,X,X,X,X,X( a i b.bXzXvX|._.}.u 7 @.iXNXMXnXnX^ Y R R R p r p ^ W R R ^ $X&X=X:X:X",
",X,X,X,X2X,X,X,X,X,X,X,X,X,X2X,X,X,X,X,X,X,X2X,X,X1X,X,XT i q bXzXxXgX'.]. Xb t #.iXNXMXnXnX( Y R W W i e p R R R R ^ +X$X*X:X:X",
"ZXAXnXnXVXVXnXVXnXVXVXCXVXnXVXnXnXVXVXCXVXVXCXVXCXVXVXBXT a G.xXzXlX}.D.].b._ u #.iXNXMXmXmX( Y R W E p w Y R R R R ( XX*X*X*X=X",
"AXZXnXnXVXVXVXnXVXnXCXVXVXVXnXVXVXVXCXVXVXVXVXCXVXCXVXnXp 2 zXbXvXkX'.].[.t #.J #.iXNXMXmXVX( Y R R W i r i W R R R ( b.$X*X*X=X",
"CXZXCXZXCXVXCXVXVXCXVXCXCXVXVXnXCXVXCXVXZXZXVXnXAXZXVXnXn Z.}..X|.'.Z.].}.y @.n #.iXNXMXmXmX( Y R R W p r Y W W Y Y ^ X.%X*X%X*X",
"ZXCXZXCXVXCXVXVXVXVXCXVXVXVXnXVXVXCXVXVXZXZXnXVXZXZXCXVX*.z {.`.`.{. X XM <.$.u %.iXNXMXmXBX( Y W R R T R Y i w ,.9XH.+X$X*X&X*X",
"VX4XZXZXVXVXVXVXnXVXCXCXVXnXVXnXVXnXCXCXVXnXnXnXnX4XnX4X(.=.J & ` }.{.{.y OX>.o.%.fXSXSXAXAX( Y R R R E ^ R r 8 H.cX0XX.+X&X%X*X",
"nXnXAXZXVXVXVXVXVXVXCXCXVXVXnXVXVXVXCXCXnXVXnXnXnX4XnXdX8X^.<.U p , 1 & @.q.$.u @.-X-X-X*X=X( Y R R R R W T U w H.jXH...@X%X%X=X",
",X,X,X,X,X,X,X,X,X,X,X2X,X,X,X,X,X,X,X,X,X,X,X2X,X,X,X,X:X-X,.U R R ^ Y + + * 9 9 + # @ + # R ^ R W R W R E E Y ] ] [  .X.#X&X:X",
",X,X,X2X,X,X1X,X,X,X,X,X,X,X,X,X,X,X2X,X,X,X,X,X,X,X,X,X:X*X} R E E ! T 9 9 0 0 0 0 0 0 0 0 W ^ ^ ^ W ^ W ^ E E ) ] [  .+X$X&X:X",
"nXnXVXCXnXVXnXnXnXnX:X,X2X4X4X4XnXnX4X4XnXnXnXnXCXmXCXmXmX1X*X} ;.T r r 0 0 9 9 * * 9 = = * w w w i r r e a ] ' |  .X.#X%X=X:X2X",
"nXnXCXVXVXnXnXnXnXnX,X,X4X4XnXnXnXVX4X4XnXnXnXnXCXCXCXmX3X1X;X-XXXp = = 0 0 = # $ # * # * * + . # 9 9 = * i [  .+Xb.+X%X*X:X,X2X",
"VXCXVXCXVXCXCXZXCXVX>X:XnXVXZXZX4X4X4X4X4X4X4X4XZXAXAXZXmXmX3X<X;XT 0 0 0 0 9 * * r w 0 w w * * 9 w 0 0 w p |  .XX#X%X*X:X1XnXnX",
"CXVXCXVXCXVXZXZXVXCX>X,XVX4XZXZX4X4X4X4X4X4X4X4XZXZXZXZXmXmXnX3X<XQ 0 0 0 0 9 # 0 { ] ] |  .r 0 0 0 w = w p |  .XX%X*X,X,X2XnXBX",
"nXVXVXCXnXnXVXnXnXVX:X,X4X4XVXVXVXVXBX4XnX4XBXBXmXnXnXnXnXnXnX2X,X~ 0 0 0 w 0 * r [ ] [  . .r w w 0 0 0 0 p ..X.+X%X*X:X,X2XnXnX",
"VXnXCXVXVXVXnXVXVX4X,X,X4X4XCXCXVXVXBXBX4X4XBXBXnXnXnXnXnXnXnX2X3XQ 0 & * $ # @ = | [ [ ....r = = = = = & a ..XX#X*X:X,X2XnXnXnX",
",X,X,X,X,X,X,X,X,X,X,X,X,X,X,X,X,X,X,X,X,X,X,X1X,X,X,X,X,X,X,X,X,Xa $ $ . . . . O [ |  .X.X.& $ $ $ O $ $ r | X.@X%X*X:X,X,X,X,X",
"2X,X,X,X,X,X,X,X,X,X2X,X,X,X,X,X,X,X2X,X,X,X,X,X1X,X,X,X,X,X,X,X,XJ $ & $ $ $ X & [  .X.@X#Xr $ & & = & $ y  .X.@X&X=X:X,X,X,X,X"
};
