/* XPM */
static char *result[] = {
/* columns rows colors chars-per-pixel */
"64 64 248 2 ",
"   c #010101",
".  c #0B0A09",
"X  c #120C0C",
"o  c #091809",
"O  c #14170D",
"+  c #090C13",
"@  c #160F14",
"#  c #141414",
"$  c #1D1612",
"%  c #191B17",
"&  c #13151C",
"*  c #16191D",
"=  c #250B18",
"-  c #251C17",
";  c #0B250B",
":  c #0F2D0C",
">  c #162815",
",  c #173916",
"<  c #212616",
"1  c #2C211B",
"2  c #34271E",
"3  c #253619",
"4  c #171A23",
"5  c #1A1D24",
"6  c #111D31",
"7  c #281C23",
"8  c #1D2129",
"9  c #1E3C20",
"0  c #262929",
"q  c #392B24",
"w  c #2B3C25",
"e  c #343E26",
"r  c #252A37",
"t  c #2C313B",
"y  c #34373A",
"u  c #4B1D2B",
"i  c #59282D",
"p  c #47342A",
"a  c #4C332D",
"s  c #104D0E",
"d  c #164717",
"f  c #195618",
"g  c #21581F",
"h  c #32541D",
"j  c #1D631B",
"k  c #21651E",
"l  c #236B1E",
"z  c #274624",
"x  c #2A582A",
"c  c #3A502B",
"v  c #256C23",
"b  c #296A26",
"n  c #30642E",
"m  c #257224",
"M  c #297426",
"N  c #287A25",
"B  c #2C762A",
"V  c #2C7B2B",
"C  c #327A2D",
"Z  c #356A34",
"A  c #357B34",
"S  c #434727",
"D  c #594236",
"F  c #4B5333",
"G  c #674A39",
"H  c #6C513E",
"J  c #4D752E",
"K  c #4C6636",
"L  c #1F3049",
"P  c #282E41",
"I  c #2B3344",
"U  c #373B48",
"Y  c #373D4D",
"T  c #393F50",
"R  c #4D3745",
"E  c #79314C",
"W  c #3C414A",
"Q  c #3C4152",
"!  c #4F4E51",
"~  c #494C59",
"^  c #77554C",
"/  c #736B56",
"(  c #6B7058",
")  c #4F5461",
"_  c #595E6A",
"`  c #5E626D",
"'  c #666566",
"]  c #6B6B6B",
"[  c #736D6E",
"{  c #6C6D71",
"}  c #737373",
"|  c #777778",
" . c #7C7C7C",
".. c #943134",
"X. c #C53224",
"o. c #D6463C",
"O. c #DF613C",
"+. c #832F4C",
"@. c #AD3C4F",
"#. c #8F4C53",
"$. c #B44E58",
"%. c #8F6C52",
"&. c #B27753",
"*. c #95566A",
"=. c #AE5469",
"-. c #BB5B74",
";. c #8B7573",
":. c #AA746D",
">. c #BB677B",
",. c #D94844",
"<. c #DD5747",
"1. c #CF4D53",
"2. c #DD5758",
"3. c #DF6445",
"4. c #DE6459",
"5. c #E0685A",
"6. c #E37351",
"7. c #C9556B",
"8. c #C75874",
"9. c #DC6A68",
"0. c #E26D68",
"q. c #E37666",
"w. c #2D832B",
"e. c #31872E",
"r. c #358333",
"t. c #398537",
"y. c #3C8A3A",
"u. c #3A9538",
"i. c #3BA53A",
"p. c #418D3F",
"a. c #5B8938",
"s. c #42943E",
"d. c #66983E",
"f. c #3F9240",
"g. c #438D42",
"h. c #449442",
"j. c #459A44",
"k. c #499C46",
"l. c #4B9D49",
"z. c #698E49",
"x. c #49A447",
"c. c #4DA34B",
"v. c #51A94D",
"b. c #4DB24B",
"n. c #51B44E",
"m. c #53AB51",
"M. c #56B753",
"N. c #78AB4F",
"B. c #7E877C",
"V. c #5AC556",
"C. c #5FD15E",
"Z. c #62CC5F",
"A. c #85B259",
"S. c #AF8A6F",
"D. c #A0906E",
"F. c #A88D7A",
"G. c #DD925D",
"H. c #EA8D56",
"J. c #D79370",
"K. c #E68767",
"L. c #EA9C64",
"P. c #E9976A",
"I. c #F19A64",
"U. c #E68773",
"Y. c #EA9878",
"T. c #EBA067",
"R. c #EAA16C",
"E. c #EAA675",
"W. c #ECA37E",
"Q. c #EDAB7B",
"!. c #F6AB70",
"~. c #FFAF71",
"^. c #8AC959",
"/. c #90D25B",
"(. c #93CD61",
"). c #98D966",
"_. c #A2D971",
"`. c #9DE266",
"'. c #A2E66E",
"]. c #A9E776",
"[. c #AEF173",
"{. c #B6F87A",
"}. c #917A85",
"|. c #B57183",
" X c #C5798E",
".X c #848484",
"XX c #8B8B8B",
"oX c #958789",
"OX c #919586",
"+X c #8F8F90",
"@X c #949494",
"#X c #999599",
"$X c #9C9B9C",
"%X c #AF9293",
"&X c #A59F9F",
"*X c #BEA592",
"=X c #A3A3A3",
"-X c #A9A5A7",
";X c #AEAEAE",
":X c #B1A7AB",
">X c #B4B0AF",
",X c #B4B4B5",
"<X c #BAB6B9",
"1X c #BCBCBD",
"2X c #C58697",
"3X c #C5919F",
"4X c #ED9E81",
"5X c #D2AB8F",
"6X c #ECA581",
"7X c #EDAD82",
"8X c #EFB385",
"9X c #EFB689",
"0X c #F1B486",
"qX c #F2B68A",
"wX c #F2B88D",
"eX c #FCBC8C",
"rX c #EBB891",
"tX c #F1BC94",
"yX c #C498A5",
"uX c #D19BAA",
"iX c #C6A4AD",
"pX c #D1B5AF",
"aX c #C6ACB4",
"sX c #C9B5BA",
"dX c #C2BBBE",
"fX c #B7F286",
"gX c #FDC795",
"hX c #FFCB97",
"jX c #C3F985",
"kX c #CFF797",
"lX c #C3FA94",
"zX c #C8FD9A",
"xX c #CEFFA1",
"cX c #D9FFA6",
"vX c #F2E9A8",
"bX c #BFBFC0",
"nX c #C5BDC1",
"mX c #B9C4CB",
"MX c #C3C3C4",
"NX c #CBC8C8",
"BX c #CBCBCC",
"VX c #CDC8D0",
"CX c #DBDADC",
"ZX c #E7D8DD",
"AX c #C6DCEB",
"SX c #E8DBE1",
"DX c #E8EBEC",
"FX c #F8F9FC",
/* pixels */
"MXMXMXMXbXMXMXMXmXMXbXMXbXbXbXbXbXbX1X1XbXbXbXbXMXMXNXMX1X1X5XT.R.R.R.R.R.R.E.R.R.R.R.R.R.R.R.R.R.R.R.J.R.R.R.R.R.T.E.mX<X1X=X;X",
"MXbXMXMXMXNXNXMXbXMXmXbXbXbXbXbXbXbX1X1XbXbXbXMXNXMXMXMXbXbX*XL.T.R.T.T.R.R.T.L.L.L.T.L.L.L.L.L.L.L.T.T.T.T.T.T.L.L.E.1X,X<X=X=X",
"NXNXMXMXBXBXMXMXMXMXMXNXMXNX1X1X1X1X1X1X1X1XMXMXNXBXBXBXpXpXE.T.T.R.T.T.R.T.E.Q.Q.Q.Q.E.Q.Q.Q.E.Q.Q.Q.E.E.E.E.!.E.E.Q.5X5X<X=X=X",
"NXNXdXmXBXBXNXMXMXNXNXMXMXMX1X1X1X1X1X1X1X1XNXMXMXBXBXBXQ.R.R.T.R.T.R.R.T.G.8XgXtXtXrXgXrXtXrXgXtXrXgXrX9X9XwXqX9XrX9XT.T.5X$X=X",
"mXbXNXMXMXMXnXMXbXMXbXMXNXNXMXNX1X1XMXMXMXbXbXmXMXBXNXMX!.!.I.!.I.I.T.T.T.T.Q.gXwXwXwXwXwXwXwXwXwXrXrX0X8X8X8X8X8X8XQ.R.T.*XOX$X",
"MXbXMXNXMXMXbXmXMXbXMXmXMXMXMXMX1XbXmXdXbXMXbXmXNX.X- 0 p D a 2 2 S.~.E.9X9X8X8X8X9X9X8X8X9X8X0X8X8X8X8X8X8X8X8X8XQ.gXQ.Q.*XXX@X",
";X;X;X;X;X;X;X,X;X;X;X;X;X;X;X;X;X;X;X,X;X;X;X;X;X[ $ $ 1 2 - .   &.~.R.rXgXrXQ.8X8X8X8X8X8XQ.0X8X8X8X8X0X8X8X8X8X8X9X9XgX%XXX+X",
";X;X;X;X;X;X;X;X;X;X,X;X;X>X;X>X;X;X;X;X;X;X-XD.XX! 1 1 2 q 2 $ O &.!.E.rX9X9X8X8X8X8X8X8X8X0X0X8X8X8X8X8X8X8X8X8X8XQ.Q.gX%.' ' ",
"bXMXbXbXbXbXbX1XbXbX=X;XbXbXMXbXbXnXMXMXbXMXMX1 $ 2 p u q q 2 $ X &.~.T.8X8X8X8X8X8X0X8X0X0X0XQ.8X8X8X8X8X8X8X0X8X8XQ.0XhXH   1 ",
"MXbXbXbXbXbX1X1XbXbX;X-XmXbXbXMXmXMXMXbXMXbXmX1 $ 2 2 2 p p 2 $ O &.~.R.0X0X8X8X0XgXeXeXeXeXeXgXeX8X8X8X8X8X8X0XgXgXgXeXhX%.  < ",
"mXMXNXNXbXbX1X1XNXBX-X-X1X1XMXMXMXMXMXMXMXNXMX1 $ 1 p 2 - - - - X &.~.R.qX0X0XeXQ.G G G H H H a %.gX0X8X8X8X0XeX%.D G H H p O 1 ",
"MXNXBXBXbXbX1X1XNXNX-X;X1X1XBXMXNXMXNXNXMXMXMX1 $ 2 p a @   . X . - 2 < S.8X7XtXJ.$ X X X X X   G hX8X8X8X8XQ.gXD   . . X $ - 1 ",
"bXbXMXbXMXbXbXbXbXbX=X;XMXMXMXMXMXNXmXbXbXMXdX0 $ 1 2 w A t.A A t.M b p.S R a D F 0 0 p a G G a %.gX0XQ.8X8X8XgX%.p G D H q O - ",
"bXbXbXMXbXMXbXbXbXbX;X;XMXBXMXBXNXMXbXbXMXMX1Xq 1 2 . e.V.Z.b.u.n.M.x X x u.w.C B B u.v   / 0X0XeX0X0X0X8X8X8X8X~.eXeXgXhX%.  - ",
";X;X;X;X,X;X;X;X;X;X;X;X;X;X;X;X,X;X;X;X-X+X#Xy w z 3 Z f Z x f u.d , p.s.n.M.M.u.c.m.m.h.A / gXwX7X7X0X0X8X0XQ.hXvXhX0XgX%.  - ",
";X,X;X;X;X;X;X,X;X;X;X;X,X;X;X;X;X;X;X;X! > > j.t.n A o . o O , k . z V.s.s.u.t.j.c.k.y.x.n., = #.7XQ.7X7X0X0XeX%.2 H 8XhX^   - ",
"BXBXbXbXMXbXMXbXMX1XMXMXMXMXbXMXbXMXbX! j V.r.n , O > k.x.x.x.z + ; Z m.k.c.r.M f.j.t.m m > ; : : / J.6X8X8X0XgXa   - qXhX^   < ",
"CXBXbXbXbXMXbXMXMXmXMXNXmXMXMXbXMXbX@X: C.N : O t.m.l.v.n.m o x M.m.x.t.r.y.y.f.N m w.m ; z M.x.i.n # / Y.0X7XgXG   2 0XhX^ . 2 ",
"BXBXNXBXNXmXNXMXBXMXMXNXMXNXbXMXMXMX&X: b.  n M.x.x.s.k.r.: 9 m.y.u.c.t.k k m w., ; d . o V.c.t.t.m.u.  :.7X6X7XQ.7X7X8XgXD.' ] ",
"NXNXmXBXNXMXMXNXMXMXNXMXMXMXMX,X] ] R d i.  Z C.c.r.l u.f . M.c.t.t.l.c.B v w.; > z w z , x M.l.c.s.N d a J.Y.6X0XeXeX7XQ.%X' ] ",
"bXMXBXBXbXMXbXMXbXMXMXNXmX;X}.) n z n z ;   % 9 B V V b > Z x.s.l.c.h.k.f.V , > c.V.b.M.h.> d l.l.m l V X %.Y.Y.W.7X8X8XQ.F.] ] ",
"bXNXBXBXbXMXMXbXMXMXMXMX1X! x C C.t.> z x Z x 9 m N o     x b.c.r.t.c.c.f.M   g.M.V k.v.n.g.3 M V j l N g a U.Y.W.W.7X8X8XD.] } ",
";X;X;X;X;X;X;X;X>X;X;X;X' s x.V.f o d A Z.u.x.C.e.o z n x x k.c.V l t.t.b j n g.x.r.C V A b.M.B f A h.r.m   J.q.Y.W.7X7X8XD.{ | ",
";X;X;X;X,X;X;X;X;X;X;X#X7 u.N e.o > C.x.g.A u.l.> x b.s.M.n.h.l.t.k j f t.V j.v.h.r.k k m V A C v V t.B v x D o.q.6XW.7X8XF.} | ",
"MXbXMXNXbXMXbXbXbXbX$Xz y.C N , ; j.l.h.h.l.e.p.+ y.M.A l r.g.p.y.v v v V V B V C l M M M b k k p.t.k b B e.o X.4.W.W.7X7XF. .XX",
"bXbXMXMXMXMXbXbXbXbX$Xc t.> V , > M.j.r.t.c.u.B o A M.h.l m M l N l y.t.j M b k l s.b B g : M M M B l l B B 2 ,.4.Y.Y.6X7XF. ..X",
"MXBXMXBXNXMXBXmXMXMX-X#X7 A c.j.k.h.j.h.h.h.k.v j k.c.g.v g N M v b m N w.. d u.M V N w., O V B k l M B N > $.0.q.U.Y.6X0XF..X+X",
"MXMXMXMXMXMXBXBXMXMX$X! y.M.j.l.x.s.h.c.V v j.V V h.g.N b : d k e.w.V j g > z j f d g , : C m v b b N e.f @ 1.0.q.U.Y.6X7XF..X+X",
"MXMXMXMXMXbXMXMXMXMXoX< u.m.l.k.k.C B c.A t.k.v f V e.e.w.: @ O s d M c X N.K 7 $ O O : h l e.C e.e.M f 8 $.2.2.3.6.q.W.7XF.}.XX",
"MXMXBXMXbXbXMXMXMXbX0 k.e.y.y.y.c.y.j B l.V v C : , g g , c {.N.X <   =.#.a.D 2.a N.jXA.X p s , d s - u 1.2.2.0.3.O.6.W.7XF. .XX",
";X;X;X;X;X;X;X;X;X;Xo x.V.y.v V v.h.j B B v v h.y.;   = , jX]._.'.{.3 1.#.a.F 1.D '.[.( #.1.u u u u ..<.1.2.2.4.5.6.K.W.7XF.} B.",
";X;X;X;X;X;X;X;X;X;X) z u.c.l.c.j.V v C r.w.M v e.d i @.D N.).(.).[.O 1.%.d.z < ).[.^.u o.o.,.o.,.,.,.,.,.,.<.<.q.4XW.W.7XF.|  .",
"MXMXMXMXMXbXMXNXmXnX-X* m u.r.t.l j M N d ; v e.; +.8.8...: [.).(.'.z.a / F h `.[.[.K E o.o.,.,.,.,.,.<.<.<.<.3.K.Y.W.7X7XF.} | ",
"MXMXMXMXbXbXNXMXMXbXdX}.: m v m t.A v B 9 : ; > 3 *.8.8.,.#.z.).^.^.{.d.c h ^.[./.K $.2.<.<.2.4.2.0.5.5.4.q.q.K.Y.6X7XQ.8XF.}  .",
"MXNXMXMXBXBXNXMXMXMXnXaX} o m w.f.r.m V e.: K A.[.z.E E <.1.- ).{.fX).'.z._.fX/.(.q 9.2.4.9.0.q.q.q.q.U.U.U.Y.4XW.6X7X8XQ.%X} | ",
"NXNXmXNXBXBXMXMXNXMXnXsX:X}.> , N V C w.d ^ / a.).jXJ e i u > lXxXcX_.N.fXfX)./.n $.2.2.4.9.0.q.Y.U.U.Y.Y.Y.Y.W.W.Q.7X5X8XF.} | ",
"mXMXMXMXmXnXMXbXnXdXdXsXaXyX:.^ > ; ; o E 8.=.+.p h ].jXN.J A.xXlXzXfX{.zX(.).].$ 1.,.2.5.5.q.q.U.K.I.P.P.P.P.R.R.R.R.} { } } B.",
"MXbXMXMXMXMXbXMXmXdXdX<XsXiX3X X*.*.#.#.8.8.8.8.=.*.D K {.cXcXjXfXfXzXxX].).).c $.2.2.2.5.6.K.P.P.E.T.I.H.I.Y.R.E.E.J.} } } } B.",
";X;X>X>X,X;X;X>X;X;X;X:X:X%X%X%X|.8.-.-.8.-.-.8.-.8.-.^ t K jXxXzXlXlXzX).).).. $.,.<.<.5.6.6.H.I.H.I.5XpX5XD.F.D.S.;.[ ] |  .XX",
">X;X;X;X;X;X>X;X;X;X;X;X:XyX%X%X%X|.|.|.-.>.-.|.|.|.|.|.*.E c fXzXlXlXzX_.).c *.8.,.,.O.3.6.H.H.H.H.H.NXAXmX' ' ' ' ] [ |  ..XXX",
"mXMXbXbXbXbX1X1XbXbX;X=XbXbXaXaXyX3X2X2X X X2X2X3X3X2X2X2X|.P _.xXlXlXzX].).0 =.7.,.<.5.4.K.G.H.G.L.L.,XmX=X{ ] |  . ..XXX@X$X-X",
"MXbXbXbXbXbX1X1XbXbX=X;XbXbXdXsXaXiXyXyXyXyXyXyXuXuXyXyXyX2X^ c cXlXfXxX].).z 5 U  X X2XiXaX/ S D.CXBX~ 8 r I Q _ D..X+X#X$X=XbX",
"MXMXNXNXbXbX1X1XBXMX-X-X1X1XnXnXnXsXaXiXiXiXaXaXaXaXsXiXiXuX*.c cXlXzXlX_.`.w + r  X3XyXaXbX( S B.mXBXQ + r Q Y ` XX@X$X=X;XbXbX",
"MXNXBXBXbXbX1X1XNXMX;X;X1X1XMXMXnXnXnXnXdXsXdXdXnXnXnXnX}.}.R K cXlXxX_.^.'.w 5 R  X3XiXnXnX/ S OXDXCX) 6 I Y Y { +X$X=X;XbXbXbX",
"bXbXbXMXmXMXbXbXmXMX-X-XMXNXNXMXMXMXdXdXdX1XdXdXVXnXnXbX! Y t K cXzXxX_.(.'.w t +. X2XnXZXZX( S OXFXDX` P Y Y Y { +X#X=X;X;X;XbX",
"bXbXMXMXMXbXbXbXMXMX-X;XMXMXMXNXMXMXMXMXMXMXbXMXMXMXbXbX) U t z cXzXfX_.(.'.w r +. XuXaXZXZX( S OXFXDX_ L Y Y Q ` +X@X=X;XbXbXbX",
";X;X;X;X;X;X>X;X;X;X;X;X;X;X;X;X,X;X;X;X;X;X;X;X;X;X;X;X~ R r B.cXlXxXfX^.'.z r +. XyXnXZXZX' c OXFXDX_ r Y Y Q I t Q +X$X=X$X;X",
";X;X;X;X>X;X;X;X;X;X;X,X;X;X;X;X;X;X;X;X;X,X;X;X,X;X;X;X~ Y 7 cXlXzXfX(.).].z r +. XyXnXZXZX( p OXFXDX_ r Y Y Q t r I +X$X$X=X;X",
"BXCXbXbXMXbXMXbXMXbXMXNXMXbXMXbXbXMXMXNXMXMXMXMXNXmXMXbX~ y D.xXlXxX_.^.).z.! P +. XuXsXZXCX/ S OXFXDX_ r Y Y Q t r I @X=X;X$X=X",
"BXBXbXbXMXMXbXMXbXMXMXmXbXMXbXMXMXmXMXMXMXMXNXMXMXNXmXbXY , kXxXxXfX^./.).0 I I E  XuXnXZXCX( c OXFXDX_ L Y Y Y t 8 I XX$X=X$X=X",
"BXBXNXNXMXMXMXMXMXMXMXBXMXNXMXbXNXMXNXMXBXBXMXMXBXBXMXbXc N.'.fX].(.^./.'.3 U P +. XyXnXZXCX( S XXFXDX_ r Q W Q r 8 P .X$X=X$X=X",
"BXMXBXBXNXMXNXmXNXMXNXMXMXMXbXMXmXNXMXMXNXBXMXbXBXBXNXMX%.h `./.(.).[.{.h ~ T I E 2XuXnXSXCX/ S OXFXDX_ r Y Y L %.J.S.D.@X=X@X$X",
"bXbXBXCXmXbXbXMXbXMXBXMXMXbXMXbXbXMXNXNXbXMXbXbXMXbXbX1XeXD.S 5 z.'.`.`.w ~ Y P E yXnXZXFXFX/ S $XFXFX` r Q Y L S.~.E. .XX@X@X$X",
"bXbXBXBXbXMXMXMXMXMXmXBXMXMXbXMXMXMXMXMXMXMXbXbXbX1X1X1X5X9X:.6 r O % # U Y Y I E |.}.%X,X;X! c ( mX,X) L Q Q L S.E.S.| .X@X+X$X",
";X;X;X;X;X;X>X>X;X;X;X;X>X;X>X;X;X;X>X;X;X;X;X;X;X>X;X;X-X#X;.I Q Y Y Y T T Y T Y + @ + + + 4 4 & + + P Q W Q L ( ' { }  .XX@X=X",
";X;X>X;X;X;X;X;X;X;X;X;X;X;X;X;X;X>X;X;X;X;X;X;X;X;X;X;X-X%X[ Y Y Q Q Q T T T E T 7 4 6 4 5 4 4 8 4 4 W Q Q Y Y ! ] { |  .XX@X=X",
"bXbXNXmXbXMXbXbXbXbX;X=X1X1X1X1XbXbX1X1XbXbXbXbXMXVXVXMXbX:X%X[ *.W 8 r 0 r 8 8 0 4 & & 4 & 4 & 4 5 4 0 0 U _ _ { |  .XX+X$X=X,X",
"bXbXNXNXMXMXbXbXbXbX=X;X1X1XbXbXbXbX1X1XbXbXdXmXMXMXMXnXbX,X&X%XoXt * * * 4 # + + # & & & & & @ 4 5 4 4 & w ] } | B..X+X@X=X;X,X",
"MXMXMXMXMXNXmXBXMXMX;X=XbXbXBXBX1X1X1X1X1X1X1X1XVXVXVXVXnXbX<X:X#XW * 8 5 8 4 & # 5 8 8 4 8 * & * 5 5 5 4 y { } ;.XX@X$X=X;XmXmX",
"NXMXMXNXMXMXNXBXNXMX-X;XbXbXBXBX1X1X1X1X1X1X1X1XBXBXVXnXnXbXbX<X-XR 8 * 5 4 5 5 0 [ ' ' { { 5 # 4 5 5 5 4 t } } .X@X$X=X;X,X1XMX",
"MXMXMXMXbXbXMXbXbXMX-X-X1X1XMXNXMXMXMXbX1X1XMXMXMXbX1X1XbXbXbX<X:XU 5 8 5 8 5 8 0 ] ' ] } } 5 & 4 8 5 5 5 y } | .X+X$X=X;X,X1XmX",
"MXbXMXMXbXbXMXMXMXbX;X;X1X1XMXMXMXMXbXbX1X1XbXMXmXMX1X1XbXbXbX<X,X! % * * * * % 8 [ ] ]  . .* + # # # 4 % y | }.XX@X&X;X,X1XdXbX",
";X,X;X;X;X,X;X;X;X;X;X;X;X;X,X;X;X;X,X;X;X;X;X;X,X;X,X;X;X;X;X;X;Xy # # # # # # % ] [ }  . .% . . . . # # 0 [ | .X+X$X=X;X;X;X;X",
";X;X;X;X;X;X;X;X;X;X;X,X;X;X;X;X;X;X;X;X;X;X;X;X;X;X;X;X;X;X;X;X-XF # * % % % # 0 ] } | .X.X7 . # # @ % % 0 } B..X@X$X=X;X;X;X;X"
};
