/* XPM */
static char *result[] = {
/* columns rows colors chars-per-pixel */
"64 64 230 2 ",
"   c #010101",
".  c #090707",
"X  c #020B02",
"o  c #0C0C0C",
"O  c #021403",
"+  c #011C01",
"@  c #0B180A",
"#  c #141211",
"$  c #151715",
"%  c #27141D",
"&  c #022302",
"*  c #0B280B",
"=  c #11290E",
"-  c #0C340C",
";  c #0E2B11",
":  c #132C13",
">  c #192718",
",  c #1A3219",
"<  c #183918",
"1  c #242D1D",
"2  c #27391A",
"3  c #271D26",
"4  c #361B26",
"5  c #2D2629",
"6  c #32252B",
"7  c #263722",
"8  c #3B3B3B",
"9  c #40192A",
"0  c #54293C",
"q  c #4D3338",
"w  c #672D3B",
"e  c #68303E",
"r  c #114C0E",
"t  c #194618",
"y  c #1C551D",
"u  c #2A4B1A",
"i  c #1D651C",
"p  c #1E6A1D",
"a  c #21641E",
"s  c #226A1E",
"d  c #22731F",
"f  c #1D4020",
"g  c #254624",
"h  c #354A25",
"j  c #265725",
"k  c #37572A",
"l  c #3B522C",
"z  c #365331",
"x  c #246424",
"c  c #256C22",
"v  c #286E25",
"b  c #2B672A",
"n  c #31622F",
"m  c #267224",
"M  c #297226",
"N  c #287825",
"B  c #2C742A",
"V  c #2D7B2B",
"C  c #317C2D",
"Z  c #346A34",
"A  c #367C35",
"S  c #435135",
"D  c #44682A",
"F  c #4B6835",
"G  c #507234",
"H  c #56783A",
"J  c #503645",
"K  c #673447",
"L  c #773649",
"P  c #584549",
"I  c #53504F",
"U  c #674654",
"Y  c #6D5152",
"T  c #5A7249",
"R  c #627D43",
"E  c #6A5B64",
"W  c #696868",
"Q  c #746A74",
"!  c #7C767C",
"~  c #8B3E54",
"^  c #90475B",
"/  c #875567",
"(  c #97596B",
")  c #BE4E6A",
"_  c #A65068",
"`  c #BD526D",
"'  c #BB5771",
"]  c #BC5B73",
"[  c #91707D",
"{  c #A86A7B",
"}  c #BB647A",
"|  c #BA677C",
" . c #C34F6C",
".. c #C65572",
"X. c #C65A75",
"o. c #C75B77",
"O. c #CA5D79",
"+. c #C5637C",
"@. c #C9627C",
"#. c #2B8529",
"$. c #2E822C",
"%. c #31822C",
"&. c #32882E",
"*. c #2F8533",
"=. c #358334",
"-. c #348B32",
";. c #3A8638",
":. c #3D8C3B",
">. c #379436",
",. c #3D923C",
"<. c #3CAB3F",
"1. c #408B3E",
"2. c #5D8A37",
"3. c #41933E",
"4. c #43993F",
"5. c #42AB3E",
"6. c #3E8F40",
"7. c #458B43",
"8. c #449542",
"9. c #4A9647",
"0. c #469A43",
"q. c #499C46",
"w. c #4B9D49",
"e. c #589148",
"r. c #6C944C",
"t. c #4AA346",
"y. c #4DA34B",
"u. c #4BA848",
"i. c #52A54E",
"p. c #51AB4E",
"a. c #4EB34C",
"s. c #51B14F",
"d. c #52A450",
"f. c #54AD52",
"g. c #55B353",
"h. c #59BB55",
"j. c #58B957",
"k. c #74A84D",
"l. c #77B453",
"z. c #5BCA58",
"x. c #63CC5E",
"c. c #61D360",
"v. c #80B452",
"b. c #85BB59",
"n. c #9CB779",
"m. c #87C458",
"M. c #8DCC5C",
"N. c #90CE5E",
"B. c #94D15D",
"V. c #8EC761",
"C. c #91CE62",
"Z. c #92C86B",
"A. c #93D262",
"S. c #99D866",
"D. c #9DDB6C",
"F. c #A3DD73",
"G. c #9CE167",
"H. c #A3E86D",
"J. c #A8EA74",
"K. c #AEED77",
"L. c #ACF374",
"P. c #B7FC7B",
"I. c #8F7C85",
"U. c #BA6E81",
"Y. c #B87586",
"T. c #B57C8B",
"R. c #C86780",
"E. c #C56C83",
"W. c #C86B82",
"Q. c #C67388",
"!. c #C57489",
"~. c #C47A8D",
"^. c #C8798E",
"/. c #C87D91",
"(. c #898189",
"). c #898689",
"_. c #978D93",
"`. c #B4818E",
"'. c #AF8C95",
"]. c #B48994",
"[. c #AD959B",
"{. c #B3949C",
"}. c #B3989F",
"|. c #A99DA1",
" X c #B29DA2",
".X c #BF99A3",
"XX c #A9A4A5",
"oX c #AEAEAE",
"OX c #B1A2A6",
"+X c #B0A6A9",
"@X c #BDA4AB",
"#X c #B0AAAC",
"$X c #B8AAAF",
"%X c #BCADB2",
"&X c #BAB4B6",
"*X c #BCBCBD",
"=X c #C48394",
"-X c #C58C9B",
";X c #C88A9A",
":X c #C1929E",
">X c #C595A1",
",X c #C59BA6",
"<X c #CA98A6",
"1X c #C39EA9",
"2X c #C4A3AC",
"3X c #C1A8AF",
"4X c #C6A7B0",
"5X c #C4ACB3",
"6X c #C4B1B6",
"7X c #C4B5BA",
"8X c #CCB5BD",
"9X c #C2BABD",
"0X c #B5EE85",
"qX c #BAF58A",
"wX c #BFF891",
"eX c #C7FF87",
"rX c #C2FA94",
"tX c #C4FA95",
"yX c #C6FC99",
"uX c #CAFF9A",
"iX c #D3FF92",
"pX c #CDFFA1",
"aX c #D7FFA3",
"sX c #BFBFC0",
"dX c #C2BFC0",
"fX c #CBBEC3",
"gX c #C3C3C4",
"hX c #C9C5C7",
"jX c #CBCBCC",
"kX c #F8FFC1",
/* pixels */
"gXgXgXgXgXgXgXgXgXsXgXsXsXsXsXsXsXsX*X*X*XsXsXsXgXjXgXgXsX*XXXoXsXsXgXjXsXsXgXgXsXgXsXgXsXsXsXsXsXsX*X*XsXsXsXsXgXgXgXjXsX*XXXXX",
"gXsXgXgXgXgXgXjXsXgXsXgXsXsXsXsXsXsX*X*XsXsXsXgXgXgXjXgXsXsXXXXXsXsXgXgXsXgXgXjXgXgXgXsXsXsXsXsXsXsX*X*XsXsXsXsXgXgXgXjX*X*XXXoX",
"jXhXgXsXjXjXgXjXgXjXgXjXgXgX*X*X*X*X*X*XsX*XgXgXjXgXjXjXgXjXXXXXjXjXsXsXjXjXgXgXgXgXhXgXgXgXsX*X*X*X*X*X*X*XgXhXjXjXjXjXjXgXoXXX",
"gXjXsXgXjXjXgXgXgXgXgXgXgXgX*X*X*X*X*XsX*X*XgXgXgXjXjXjXjXgXoXoXjXgXsXgXjXjXjXgXjXgXgXgXgXgXsX*X*X*X*X*XsXsXgXgXgXgXjXjXjXgXXXoX",
"gXsXjXgXsXgXgXsXgXsXgXgXjXgXjXgXsX*XsXsXgXsXgXgXgXjXP 3 3 3 3 3 5 5 5 3 I sXsXsXsXsXsXgXjXgXgXgX*X*XdXgXgXsXdXgXgXjXjXjX*X*XXXoX",
"gXsXgXjXgXgXgXgXsXgXgXgXgXgXgXgXsXsXsXgXsXgXsXgXgX).t t t t t t t & < Z x (.I.(.(.I.(.).(.I.&XfX*X*XdXsXsXgXgXdXgXgXgXjX*X*XXXoX",
"oXoXoXoXoXoXoXoXoXoXoXoXoXoXoXoXoXoXoXoXoXoXoXXXW - y.j.a.u.t.g.j.a.A Z n & + + + + & + + & 7 W ! oXoXoXoXoXoXoXoXoXoXoXoXoXoXoX",
"oXoXoXoXoXoXoXoXoXoXoXoX&XoXoXoXoXoXoXoXoXoXoXQ   j.t.0.d.>.m 6.6.y.7   @ f.j.f.g.f.u.f.s.x.b X O |.+X+XoXoXoXoXoXoXoXoXoXoXoXoX",
"sXgXsXsXsXsX*X*XgXsXXXoX*XsXgXsXsX&X*X&X8 o $ $ > 7.c =.9.6.x m #.O g f.q.4.4.8.q.:.d 3.w.0.8.w.7.1 _.5X6XsXsXdXjXgXgXgXgXgXjXgX",
"gXsXsXsXsXsX*X*XsXsXoXXXsXsXsXgX).o o o *.6.6.d.7.          X C >.X < h.t.8.8.0.y.q.3.4.8.6.y.u.t.i.O I.%X6X7XdXgXgXgXsXgXgXgXgX",
"gXgXjXjXsXsXsX*XgXgXoXXX*X*XgX).h A Z 1.x.b @ : , j b n n A Z X .   t g.8.8.q.=.s C i.y.y.6.B -.-.,   3 U Q 7XdXgXgXjXjXjXjXjXjX",
"gXgXgXgXsXsXsXsXjXjXXXoX*X*X_.- %.z.,.g 7 < f , g g.g.0.u.7.g t t g A i.q.q.y.:.%.=.A =.;.m N c @ : j t t ; I._.*XgXjXjXjXjXjXjX",
"gXsXgXgXgXgXsXsXgXsXoXXXgXgXX m c.B * @ # A z.g.g.3.y.-.r O , g.j.g.y.:.-.;.;.3.8.:.d m d $.x : , p.h.t.a.y.X   W $X7X*XjXsXsXsX",
"sXsXsXsXgXgXsXsXsXsXXXoXgXgXo x z.,   g.s.q.8.8.8.0.8.=.O $ j.0.1.8.w.:.c c x c m c y j j b X   j.t.w.N m y.s.-.O E 5X6XgXsX*X*X",
"oXoXoXoXoXoXoXoXoXoXoXXXoXoX# n 5.& . w.t.8.q.=.N 8.$.O g p.q.8.s =.t.q.6.c c v V y . . X o . ; 0.0.0.8.8.9.8.C * P [. XOX+XoXoX",
"oXoXoXoX&XoXoXoXoXoX! o o o   y <.* o j.g.f.=.s c N -.  < h.0.6.3.8.8.q.8.x s >.;   7.7.;.G 9.n X y.g.8.w.8.B v B @ U ]. X X+XoX",
"jXjXsXsXgXgXsXgX! Q I b n Z 7.: @     > = b V v &.C : j 9.q.0.0.i.q.0.8.8.:.#.< : Z p.s.t.t.a.8.g $ j u.9.V c c -.X J -X.X@X|.XX",
"jXjXsXsXgXsXgXI f - -.z.0.j z g 7 g j , > y *.x : $   > 7.t.8.8.C :.t.q.q.;.-.  , c.,.V 3.w.q.p.u.< t $.=.i c s M y 7 / :X1X X|.",
"jXjXjXjXgXgX).; t.j.i.C t     ;.x.p.y.g.j.>.i ; . O $ X j s.0.8.i C 9.8.:.i N = g g.3.c ;.3.:.3.t.j.,.i x c V C v -.r   ;X<X[.|.",
"jXjXjXjXgX_.. u.m ,.,.O . y.t.8.w.C m q.w.=.@ < s.8.t.w.9.8.9.8.M c M c c M c :.y.0.9.q.B s x N 8.8.w.C a B 8.9.V N r 4 ;X-X]. X",
"sXgXjXjXsX!   u.M v -.* . p.t.0.8.8.8.q.i.; < g.3.N q.t.q.8.9.8.M c c c B 9.c ;.i.9.8.B v v c v v M v M v c M B M v B b 3 =X`.[.",
"sXgXjXjX! g 8.*.m B * , 8.0.8.w.q.q.>.m f.$ t j.3.1.M c 7.9.C q.B c c a M V M M B V B s c v v M V c c c A 8.c c v c #.x   ~.T.'.",
"oXoXoXoX$ r j.O i %.  : z.8.0.V =.y.6.%.,.X f g.q.9.s a V C s %.m s =.6.c x %.B x p m 6.C s M a < c M c C =.v v v v %.x   U.Y.].",
"oXoXoXoX|.W , g A :.j Z t.8.0.C ;.t.y.8.d - n y.q.q.M M M s v s c c =.;.m v t y N m b :.C s %.j   x B m v s v v v B a z L ] Y.T.",
"gXsXgXgXsX! X j.y.w.s.y.8.0.8.w.9.1.8.3.c m 6.w.w.:.B y x V N v b B s s #.V   * -.M V c N C M < @ c B v v v v M v -.- 4 @.+.~.-X",
"sXsXjXgXE t j.8.8.8.8.8.0.6.8.t.C i V 8.m s *.d.6.c V * : B x M m m M s b b @ < C a v x b B : O C B c M v m v m m V * 4 X.+.!.=X",
"jXgXgXgXI - j.8.8.8.8.w.:.m 9.y.m N i.8.c N N m m m c =.:     C $.$.-.i   . Z.G .           > =.C M c M M v M V -.& 4 O.@.@.=X;X",
"gXgXgXW I B %.0.w.t.0.q.6.c B 8.w.=.=.C c * t -.V $.-.& 2 l.H       @ I ( . Z.D K _ . H e.r.D = + V %.$.$.&.V * * J R.O.@.W.=X<X",
"gXsXgX  A g.V 8.C B :.y.:.c s B 6.C y c 4.j @ < - O < h b.eXD.F F H . K ..o b.F _  .. H.P.iXD   ^ + O O O + O w L `  ...@.Q.=X:X",
"sXgXjX  j j.d.,.m c ;.y.8.c c B v x v B 8.3.g     0   k.eXb.A.L.L.eXh 0 o.o b.F w _ S m.G.b.T ( ..U J 0 0 0 K  . .X.X.@.E.~.-X1X",
"oXoXoX8 f =.0.0.t.w.q.0.;.c c 6.-.m B m s N V - K ) 0 G S.B.B.C.B.L., 0  .. C.F   l K.B.P.2 L ) `  . . .` ` ` ` ` ` +.} U.T.].}.",
"oXoXoXoXE + -.8.8.8.w.=.p m c m c x c m m C O L ) ) ) 9 D L.C.C.A.K.h 0 ' # v.h h P.B.B.H.h w ` ` ` ' ] ] ] ] ] } } | U.T.].{.OX",
"dXdXfXdXP & >.m M M c p p M M %.=   O =.>.O ~  .o.O.O.4 D eXM.A.C.B.H.R   J.. l K.S.A.P.u L ] o.+.+.+.!.!.!.!.Q.^./.;X>X>X2X[.XX",
"dXdXdXdX+XI * $.c c C 8.;.c c B g j t X X D q _ o.O.@.Q.Y D S.m.m.m.G.S.G g k b.H.S.M.l / @.+.+.+.!.~.`.=X=X].=X;X>X<X<X@X%X|.XX",
"jXhXdX*XfX.Xq - V #.%.1.;.c v s >.r * e.R F.l.S ( ( ^./.[   H.K.K.0XZ.G.A.h 0XP.b.H.C.  } @.o.+.E.=X=X{.>X.X1X2X4X4X8XfX8XgXXXXX",
"gXjXdXdXfX8X,Xq r t a N N V C %.p 7 K V.m.B.iXk.    ( T.U X 0XuXuXaXJ.l.N.P.uXF.N.B.r.P | @.+.E.T.=X:X2X@X3X5X6X8X6XfXhXhXgXXXoX",
"gXgXgXgX9X6X1X-X6 3 2 c y x x B @ _ ..% % R C.M.L.S.2 # X S aXyXwXuXJ.m.D.tXS.m.L.r.o ..@.@.+.^.=X>X3X6X7X7X7X7XdXgXgXjX*X*XXXoX",
"gXsXgXgX9X7X3X>X-X!.U           ^  ...X.o.q   S qXH.B.m.b.D.yXrXrXrXrXwXrXuXD.m.P.l.. ..@.+.^.;X{.@X6X7X9X*XgXgXhXgXhXjX*X*XXXXX",
"&XoXoXoX#X+X X{.].T.Y.( } ^ ~ ^ `  .`  .] _ _ Y 1 2 H.iXaXrXwXrXwXrXrXuXwXD.C.H.G q _ `  .} | ].]. X+X+XoXoXoXoX#XoXoXoXoXoXoXoX",
"oXoXoXoX#X#X+X}.{.].T.| } } X...' ] ] | +.| | | / / S S b.aXuXrXwXrXrXyXqXm.m.eXu #  .` ] | Y.]..XOXoXoXoXoXoXoXoXoXoXoXoXoXoXoX",
"gXsXsXsXsXsX&X%X%X2X`.Y.=X!.Q.W.E.Q.!.^.=X=X=X^.^.^.K q S k.qXtXrXrXwXyXwXC.S.b.q L  .` +.=X-X2X%X*XsXgXgXsXgXsXjXgXgXgXjXgXjXgX",
"sXgXsXsXsXsXsX&X7X%X[.'.:X-X=X/.^.=X=X;X:X>X:X-X;X;X~.Q.(   L.uXrXrXrXyXqXC.L.2 w  .) ' !.=X:X5X7XsXsXsXsXgXsXgXhXgXgXgXgXgXgXgX",
"gXgXjXjXsXsX*X&XhXfX|.[.@X.X,X>X>X<X1X2X4X4X4X4X<X>X;X;X[ o F.tXrXrXrXyXqXC.J.l w X.` } !.-X2X6X9XgXgXjXgXgXjXgXgXgXjXjXjXjXjXjX",
"gXgXjXjXsXsXsXsXhXgXXXXX%X@X5X3X5X5X5X6X7X8X8X6X5X4X<X<X;X( 1 yXyXwXrXyXqXA.H.l w X.' } =X:X5X8XgXgXgXgXgXjXgXgXhXgXjXjXjXjXjXjX",
"sXsXgXgXsXsXsXsXsXsXoXXXdX8X9X8X7X8X7X9X9X*X9X7X7X6X3X2X>X{ # yXuXrXrXuXrXC.H.l w o.} { ;X2X6XdXgXgXdXgXgXsXgXsXgXjXgXgXjXgX*X*X",
"sXgXgXgXsXgXsXsXgXgXXXXXhXgXgXgXgXgXdXgXdXdXsXdXhXhX6X5X1XI.> yXyXrXtXqXF.C.L.l w +.| | <X4X8XdXhXgXgXdXgXgXsXgXgXgXsXjXgXgX*XsX",
"oXoXoXoXoXoXoXoX&XoXoXoX#XoXoXoX#XoXoXoXoXoXoXoXoX#X+X+X XI.> yXuXrXyX0Xb.B.L.l w ' | Y.].}.+X#XoXoXoXoX&XoXoXoXoXoXoXoXoXoXoXoX",
"oXoXoXoXoXoXoXoXoXoXoXoXoXoXoXoXoXoXoXoXoXoXoXoXoXoXoX#X+XI.> yXuXrXyX0XM.M.L.h w ' | T.]. X+XoXoXoXoXoXoXoXoXoXoXoXoXoXoXoXoXoX",
"jXjXgXgXgXsXgXsXgXsXgXjXgXsXgXsXgXsXgXgXgXgXjXgXgXgXgXsXsX_.$ yXyXwXyX0XM.M.J.l e +.^.;X2X5X7XgXgXdXgXgXgXgXgXgXgXjXgXsXsXsXoXXX",
"jXjXsXgXsXgXsXgXsXgXgXgXsXgXsXgXsXgXjXgXgXgXgXgXgXjXgXsXdX|.. yXyXwXpX0XC.C.L.l e +.^.;X,X5X*XsXgXgXhXhXgXgXgXjXgXgXgXgXsXsXXXoX",
"jXjXjXjXgXgXgXjXgXgXgXjXgXgXgXsXgXgXgXgXjXjXgXsXjXjXgXgXoXz n.yXyXwXpXwXM.N.K.l e +.!.;X2X6X7XsXgXgXgXgXjXjXgXsXjXjXjXgXjXgXXXoX",
"gXjXgXjXjXgXgXgXgXjXgXgXgXgXsXgXgXjXgXgXjXjXsXgXjXjXjXgXQ   kXuXwXuX0XD.C.N.eXh 0 W.^.;X2X6X7XsXgXjXgXhXjXjXsXgXjXjXjXgXjXgXoXXX",
"sXsXjXjXjXgXgXgXgXgXjXgXgXgXgX*XsXgXgXjXgXsXsXsXgXsXsXoXW T uXuXwXpXF.m.N.A.l.T ^ +.^.-X,X5X7X9XgXgXjXgXgXgXsXsX*X*XsXsXsXsXoXoX",
"sXsXjXjXgXgXgXgXsXgXgXjXgXgXgXgXgXjXjXgXsXgXsXsX*XsXsX8 T kXrXtXrXrXF.m.S.A.  _ @.@.^.-X1X5X*XgXsXgXgXjXgXsXsXgXsXsXsXsXsXgXoXXX",
"oXoXoXoXoXoXoXoXoXoXoXoXoXoXoXoXoXoXoXoXoXoXoXoXoXoXoXE t P.uXyXpXF.m.A.S.S.O ^ ` ] | `.{. X+XoXoXoXoXoXoXoXoXoXoXoXoXoXoXoXoXoX",
"oXoXoXoXoXoXoXoXoXoXoXoXoXoXoXoXoXoXoXoXoXoXoXoXoXoX8 r.B.B.F.D.D.A.M.V.S.L.X ^ ..} !.`.{.OX#XoXoXoXoXoXoXoXoXoXoXoXoXoXoXoXoXoX",
"sXsXgXjXsXgXsXsXsXsXoXXX*X*XsXsXsXsX*X*XsXsXsXsXgXjX[.2 k.P.H.H.M.V.C.D.b.h ( o.o.E.Y.T. X%X9XsXsXsX*X*XsXsXsXsXgXgXjXgXgXgXsXsX",
"sXsXgXgXgXsXsXsXsXsXXXoX*XoXsXsXsXsX*X*XsXsXsXsXgXhXgXI.2 2.Z G H.L.J.P.v.. ..X.+.Q.Y.'.@X%X*X*XsXsX*X*XsXsXsXsXjXgXjXjXgXgXsXsX",
"gXjXgXgXgXgXgXjXgXgXoXXXsXsXjXjX*X*X*X*X*X*X*X*XjXjXjXhX Xq J P r.k.r.k.2.P @.@.E.~.T.'.%X7XhXhX*X*X*X*X*X*X*X*XjXjXjXjXgXgXjXjX",
"gXgXjXgXjXgXjXjXgXjXXXoXsX*XjXjX*X*X*XsX*X*X*X*XjXjXjXhX5X2X-X^.% # # o 9 O.O.@.Q.=XT.[.6X*XjXjX*X*X*X*X*X*X*X*XjXjXjXjXjXsXjXjX",
"sXgXgXjXsXsXgXgXsXsXoXoX*X*XgXjXgXgXsXsX*X*XsXsXgXsX*X&X@X,X-X~.Q.@.@.@.O.o.+.+.!.-X'.[.oX*XgXjXsXgXsXsX*X*XsXgXsXsXsXsXsXsXsXsX",
"gXsXgXgXgXgXsXsXgX*XoXoX*X*XgXgXgXjXsXsX*X*XgXgXsXsX9X&X5X2X>X-X^.Q.Q.W.@.@.W.~.=X>X'.[.*XsXgXjXgXgXsXsXsXgXgXsXsXsXsXgXsXsXgXsX",
"oXoXoXoXoXoXoXoXoXoXoXoXoXoXoXoXoXoXoXoXoXoX&XoXoXoX#X#XOXOX{.].`.Y.U.| | +.| T.`.{.XXXXoXoXoXoXoXoXoXoXoXoXoXoXoXoXoXoXoXoXoXoX",
"oXoXoXoXoXoXoXoXoXoXoXoXoXoXoXoXoXoXoXoXoXoXoXoXoXoXoX#X+XOX}.{.{.].`.`.T.T.T.].]. XOXoXoXoXoXoXoXoXoXoXoXoXoXoXoXoXoXoXoXoXoXoX"
};
