/* XPM */
static char *result[] = {
/* columns rows colors chars-per-pixel */
"64 64 153 2 ",
"   c black",
".  c #1E1E1E",
"X  c #202020",
"o  c #202021",
"O  c gray13",
"+  c #353535",
"@  c gray22",
"#  c #383839",
"$  c #393939",
"%  c gray28",
"&  c gray29",
"*  c #4B4B4B",
"=  c #4C4C4C",
"-  c #565656",
";  c gray34",
":  c #5A5A5A",
">  c #5B5B5B",
",  c gray36",
"<  c #5C5C5D",
"1  c #5D5D5E",
"2  c gray37",
"3  c #5E5E5F",
"4  c #5F5F5F",
"5  c #5F5F60",
"6  c gray45",
"7  c #787879",
"8  c #797979",
"9  c gray48",
"0  c #7B7B7B",
"q  c #7C7C7D",
"w  c #7E7E7E",
"e  c gray53",
"r  c #888889",
"t  c #89898B",
"y  c gray54",
"u  c #8B8B8C",
"i  c gray55",
"p  c gray57",
"a  c #919192",
"s  c #929292",
"d  c #939393",
"f  c #939394",
"g  c #959595",
"h  c gray59",
"j  c #979797",
"k  c #969698",
"l  c #989899",
"z  c #9F9F9F",
"x  c #9F9FA0",
"c  c #A1A1A2",
"v  c #A9A9A9",
"b  c #AAAAAA",
"n  c gray68",
"m  c #AFAFAF",
"M  c gray69",
"N  c #B2B2B2",
"B  c #B3B3B4",
"V  c #B4B4B4",
"C  c gray71",
"Z  c #B6B6B6",
"A  c #B6B6B7",
"S  c #B7B7B7",
"D  c #B7B7B8",
"F  c gray72",
"G  c #B9B9B9",
"H  c #B9B9BB",
"J  c gray73",
"K  c #BABABB",
"L  c #BBBBBB",
"P  c #BBBBBC",
"I  c #BCBCBC",
"U  c #BCBCBD",
"Y  c #BDBDBE",
"T  c gray",
"R  c #BEBEBF",
"E  c gray75",
"W  c #BFBFC0",
"Q  c #C0C0C0",
"!  c #C0C0C1",
"~  c #C1C1C1",
"^  c #C1C1C2",
"/  c gray76",
"(  c #C2C2C3",
")  c #C3C3C4",
"_  c #C4C4C5",
"`  c #C4C4C6",
"'  c #C5C5C6",
"]  c #C5C5C7",
"[  c #C6C6C7",
"{  c gray78",
"}  c #C7C7C8",
"|  c #C8C8C8",
" . c #C8C8C9",
".. c gray79",
"X. c #C9C9CA",
"o. c #C9C9CB",
"O. c #CACACA",
"+. c #CACACB",
"@. c #CBCBCB",
"#. c #CBCBCC",
"$. c #CCCCCD",
"%. c #CDCDCD",
"&. c #CCCCCE",
"*. c #CDCDCE",
"=. c #CDCDCF",
"-. c #CECECE",
";. c #CECECF",
":. c gray81",
">. c #CECED0",
",. c #CFCFD0",
"<. c #CFCFD1",
"1. c #D0D0D0",
"2. c #D0D0D1",
"3. c gray82",
"4. c #D0D0D2",
"5. c #D1D1D2",
"6. c #D2D2D3",
"7. c LightGray",
"8. c #D2D2D4",
"9. c #D3D3D4",
"0. c #D3D3D5",
"q. c gray83",
"w. c #D4D4D5",
"e. c #D5D5D5",
"r. c #D5D5D6",
"t. c #D5D5D7",
"y. c gray84",
"u. c #D6D6D7",
"i. c #D7D7D7",
"p. c #D6D6D8",
"a. c #D8D8D8",
"s. c #D8D8D9",
"d. c gray85",
"f. c #D9D9DA",
"g. c #DADADA",
"h. c #DADADB",
"j. c gray86",
"k. c #DBDBDC",
"l. c #DBDBDD",
"z. c gainsboro",
"x. c #DCDCDD",
"c. c #DDDDDD",
"v. c #DCDCDE",
"b. c #DDDDDE",
"n. c gray87",
"m. c #DFDFDF",
"M. c #DFDFE0",
"N. c #E0E0E1",
"B. c #E1E1E1",
"V. c #E2E2E4",
"C. c #E3E3E4",
"Z. c #E4E4E4",
"A. c #E5E5E6",
/* pixels */
"^ ^ ` ` ~ ~ ' ' ^ ^ ^ ^ W W W W W W U U W W W W ' ' ' ' U U v v ^ ^ ` ` ~ ~ ' ' ^ ^ ^ ^ W W W W W W U U W W W W ' ' ' ' U U v v ",
"^ ^ ` ` ~ ~ ' ' ^ ^ ^ ^ W W W W W W U U W W W W ' ' ' ' U U v v ^ ^ ` ` ~ ~ ' ' ^ ^ ^ ^ W W W W W W U U W W W W ' ' ' ' U U v v ",
" . .^ ^ =.=.' ' ' ' ' ' ' ' U U U U U U U U ' ' [ [ =.=. . .v v  . .^ ^ =.=.' ' ' ' ' ' ' ' U U U U U U U U ' ' [ [ =.=. . .v v ",
" . .^ ^ =.=.' ' ' ' ' ' ' ' U U U U U U U U ' ' [ [ =.=. . .v v  . .^ ^ =.=.' ' ' ' ' ' ' ' U U U U U U U U ' ' [ [ =.=. . .v v ",
"^ ^ ' ' ( ( ^ ^ ^ ^ ^ ^ ' ' ' ' U U ^ ^ ^ ^ ^ ^ [ [ } } U U v v ^ ^ ' ' ( ( ^ ^ ^ ^ ^ ^ ' ' ' ' U U ^ ^ ^ ^ ^ ^ [ [ } } U U v v ",
"^ ^ ' ' ( ( ^ ^ ^ ^ ^ ^ ' ' ' ' U U ^ ^ ^ ^ ^ ^ [ [ } } U U v v ^ ^ ' ' ( ( ^ ^ ^ ^ ^ ^ ' ' ' ' U U ^ ^ ^ ^ ^ ^ [ [ } } U U v v ",
"G N m m m m m m N G G G G Z m m m M G G G G G G G G G G G G G G G G G Z m m m V G G G G G G G G G G G G G G Z m m m m m m m m m ",
"7.7.{ m m m m { 7.7.7.7.7.7.@.m C -.7.7.7.7.7.7.7.7.7.7.7.7.7.7.7.7.7.7.@.m ..7.7.7.7.7.7.7.7.7.7.7.7.7.7.7.7.@.m m m m m m m m ",
"Z q.c.^ W W R k.7.C b b Z Q n.,.i.n.Z Z Z Z Z Z D D A A D D D D Z Z C E c.-.k. .C C b b Z Z Z Z Z Z Z Z Z Z Q n.6.' ) ) ] ] ] ] ",
"  Z c.} W W _ k.C         , n.u.n.n.                                  , c.e.k.a                             , n.f.6.) ) ] ] ] ] ",
"  D V.4.W W _ k.G         > N.f.N.N.                                  3 c.e.k.a                             1 N.N.N.m.#.=.=.;.;.",
"  D V.4.W W _ k.G         > N.f.N.N.          g D D L L P P P P D D H _ c.-.k.a         & B D D D D D D =   o 1 1 ( Z.2.=.=.;.;.",
"  C n.X.^ ^ } c.Z         1 N.f.N.N.          Z B.B.n.n.c.c.z.z.c.c.n.n.a.:.c.d         1 N.N.N.N.N.n.n.,         F n.X.W W Y Y ",
"  C n.X.^ ^ } c.Z         1 N.f.N.N.          Z B.*.X.X.} } ' ' } } X.} ^ :.c.d         1 N.f.$.$.$.u.n.,         F n.X.W W Y Y ",
"  n 7.G m m G 7.n         ; 7.O.7.7.          n 7.O.O.O.O.O./ J m m m m m Q 7.i         ; 7.O.O.O.O.O.7.;         n 7.G m m m m ",
"  n 7.G m m G 7.n         ; 7.O.7.7.          n 7.7.7.7.7.7.7.7.J m m m m Q 7.i         ; 7.7.7.7.7.7.7.;         n 7.G m m m m ",
"  P c.} ^ ^ X.n.Z         , n.u.n.n.          = 1 1 , , , , w 1.h.;.W W ^ :.n.d         X , , , , , 1 1 X   = D D u.n.) W W v v ",
"  P c.} ^ ^ X.n.Z         , n.u.n.n.                        - 1.M.;.W W ^ :.n.d                             1 N.N.N.q.^ W W v v ",
"  H V.4.' ' $.N.D         1 n.u.N.N.          * 5 5 1 1 3 3 w 1.p.o.o.o.' 6.N.g         o 1 , , 1 1 1 1 O   * Z P k.N.} o.o.v v ",
"  H V.p.*.*.w.N.D         1 n.u.N.N.          Z A.A.N.N.V.V.1.1.4.o.o.o.' 6.N.g         1 N.n.n.N.N.N.N.4         P N.$.o.o.v v ",
"  C A.A.n.n.n.n.Z         , n.u.n.n.          C z.q.e.e.u.u.T C W W ;.;.^ :.n.d         , n.u.u.u.u.g.B.,         V c.} ^ ^ v v ",
"  * 5 u n.n.e , *     g Z Q n.,.n.n.          C z.' W W ^ ^ v v W W ;.;.^ :.n.d         , n.u.^ ^ ^ g.B.,         V c.} ^ ^ v v ",
"      ; 7.7.;         n 7.7.@.m 7.7.          n 7.G m m m m m m m m m m m Q 7.i         ; 7.O.m m m O.7.;         n 7.G m m m m ",
"      ; 7.7.;         n 7.G m m 7.7.          n 7.G m m m m m m m m m m m Q 7.i         ; 7.O.m m m O.7.;         n 7.G m m m m ",
"c.,             , c.1.1.r.P W W c.c.          C N.6.6.6.:.:.*.*.*.*.6.2.[ :.c.d         : g.e.W W W 9.k.,         D N.&.^ ^ W W ",
"c.,             , c.1.{ Q K W W c.c.          C N.N.N.N.n.n.c.c.c.c.N.N.n.:.c.d         : g.e.W W W 9.k.,         D N.&.^ ^ W W ",
"N.c g 0     q k c N.I v ! ! +.+.k.k.          7 l l l l g g k k g g g c N.6.V.k         , b.x.+.U U 9.k.>         P A.w.' ' o.o.",
"N.N.N.D     H V.N.N.m v ! ! +.+.k.k.                                  1 N.f.V.k         , b.x.+.U U 9.k.>         P A.w.' ' o.o.",
"[ %.N.D     Z n.%.[ v v U U ] ] M.M.                                  1 c.e.n.d         > k.f.] ) ) e.c.>         C z.' W W ^ ^ ",
"^ ( x.N.c.c.n.g.( ^ v v U U ] ] s.M.c.c.k.k.n.n.c.c.z.z.c.c.n.n.n.n.N.N.c.-.n.n.n.n.1.1.k.k.8.] ) ) -.c.k.k.n.n.c.c.a.R W W ^ ^ ",
"m m C @.7.7.@.C m m m m m m m m C @.7.7.7.7.7.7.7.7.7.7.7.7.7.7.7.7.7.@.~ m S @.7.7.7.7.@.~ m m m m m ~ @.7.7.7.7.@.C m m m m m ",
"m m m m m m m m m m m m m m m m m m m m m m m m m m m m m m m m m m m m m m m m m m m m m m m m m m m m m m m m m m m m m m m m ",
"^ ^ ` ` ~ ~ ' ' ^ ^ ^ ^ W W W W W W U U W W W W ' ' ' ' U U v v ^ ^ ` ` ~ ~ ' ' ^ ^ ^ ^ W W W W W W U U W W W W ' ' ' ' U U v v ",
"^ ^ ` ` ~ ~ ' ' ^ ^ ^ ^ W W W W W W U U W W W W ' ' ' ' U U v v ^ ^ ` ` ~ ~ ' ' ^ ^ ^ ^ W W W W W W U U W W W W ' ' ' ' U U v v ",
" . .^ ^ =.=.' ' ' ' ' ' ' ' U U U U U U U U ' ' [ [ =.=. . .v v  . .O.3.M.f.X.6.f.f.6.' ' ' U U U U U U U U ' ' [ [ =.=. . .v v ",
" . .^ ^ =.=.' ' ' ' ' ' ' ' U U U U U U U U ' ' [ [ =.=. . .v v  .1.n.n.A.A.N.N.N.N.N.h.' ' U U U U U U U U ' ' [ [ =.=. . .v v ",
"^ ^ ' ' ( ( ^ ^ ^ ^ ^ ^ ' ' ' ' U U ^ ^ ^ ^ ^ ^ [ [ } } U U v v ^ 3.N.r < x n.n., , Q n.+.' ' ' U U ^ ^ ^ ^ ^ ^ [ [ } } U U v v ",
":.:.6.6.*.} ^ ( X.:.:.:.6.6.#.' U ) :.:.:.:.:.X.} [ #.5.#.#.L L %.u.N.1   f n.n.    Z n.$.' ' ' U U ^ ^ ^ ^ ^ ^ [ [ } } U U v v ",
"7.7.7.7.7.7.C -.7.7.7.7.7.7.7.S S 7.7.7.7.7.7.7.-.C 7.7.7.7.7.7.7.7.7.;   i 7.7.i i Q 7.V m m m m m m m m m m m m m m m m m m m ",
"i i i i j 7.@.7.n i i i i i 7.-.7.7.i i i i i n 7.-.7.j i i i i j 7.7.;   i 7.7.i i Q 7.V m m m m m m m m m m m m m m m m m m m ",
"* , , @ * E k.T 8 @ - - *   Z n.q.Z   , , , X 9 $.N.A = = 1 1 # * Q c.,   d k.k.    b 1.X.X.) ^ ^ ^ ^ ^ ^ ^ ^ ^ ' ' ) ) ] ] ] ] ",
"Z n.c.d   , k.>   d 1.1.Q , , n.Z     n.n.n.e , c N.    D N.N.g   , c.,   d k.k.    b 1.n.n.n.q.^ ^ ^ ^ ^ ^ ^ ^ ' ' ) ) ] ] ] ] ",
"D N.V.k   , k.>   h 1.1.5.B D N.D     N.N.N.( D $.N.    P A.A.l   1 V.3   d k.k.    b 1.B B u.N.} ' ' ' ' ' ' ' ' ' #.#.=.=.;.;.",
"D N.V.k   , k.>   h 1.1.B     N.D     N.N.N.1   g N.    P A.A.l   1 V.3   d k.k.    b 1.    D N.$.' ' ' ' ' ' ' ' ' #.#.=.=.;.;.",
"        , n.c.c.d           N.N.N.N.          d B.B.n.,         , c.n.n.d   d c.    b 1.    D N.$.' ^ ^ ^ ^ ^ ^ [ [ ^ ^ W W Y Y ",
"c.c.n.n.n.n.-.c.n.n.1.1.N.N.N.h.h.N.n.n.n.n.n.n.B.j.n.n.c.c.z.z.c.c.,.n.n.n.c.c.n.n.1.1.N.N.N.x.[ ' ^ ^ ^ ^ ^ ^ [ [ ^ ^ W W Y Y ",
"7.7.7.7.@.~ m S @.7.7.7.7.7.@.C C @.7.7.7.7.7.@.S m ~ @.7.7.7.7.@.~ m S @.7.@.@.7.7.@.@.7.7.@.C m m m m m m m m m m m m m m m m ",
"m m m m m m m m m m m m m m m m m m m m m m m m m m m m m m m m m m m m m m m m m m m m m m m m m m m m m m m m m m m m m m m m ",
"h.r.W W ^ ^ ^ ^ ^ ^ ' ' ^ ^ ^ ^ ^ ^ ' ' ) ) ] ] ] ] ^ ^ W W v v ;.;.W W ,.u.u.,.^ ,.f.w.O.^ ^ ^ ^ ^ ' ' ) ) ] ] ] ] ^ ^ W W v v ",
"A.A. .W ^ ^ ^ ^ ^ ^ ' ' ^ ^ ^ ^ ^ ^ ' ' ) ) ] ] ] ] ^ ^ W W v v ;.;.W i.n.n.n.n.a.n.N.N.n.O.^ ^ ^ ^ ' ' ) ) ] ] ] ] ^ ^ W W v v ",
"t V.p.o.' ' ' ' ' ' ' ' ' ' ^ ^ ' ' ' ' #.#.^ ^ ;.;.' ' o.o.v v o.o.>.V.( 1 1 N.N.( 1 r N.w.^ ^ ' ' ' ' #.#.^ ^ ;.;.' ' o.o.v v ",
"3 V.l.<.' #.6.6.6.6.6.$.[ ' ^ ^ ' ' [ $.i.i.:.:.f.9.[ $.t.0.m v <.t.t.V.D     N.N.D   1 N.f.| ^ ' ' ' ' #.#.^ ^ ;.;.' ' o.o.v v ",
", c.A.A.| n.n.n.n.n.B.B.g.( ^ ^ ^ ( c.B.n.n.c.c.z.z.d.c.n.n.1.N c.c.A.A.O.d d n.n.Z   2 n.n.n.| ^ ^ [ [ ^ ^ W W Y Y W W ^ ^ v v ",
"@ d l A.n.n.d d d d g F n.y.^ ^ ^ a.B.F d d d d s z.c.C d z 1.O.c.d l 5.O.d d n.Z 9   $ d d n.,.^ ^ [ [ ^ ^ W W Y Y W W ^ ^ v v ",
". ; ; 7.O.n   ; ; ; . 6 Q 7.S m ~ 7.S 6 + ; ; %   n 7.j % % S 7.n   % S n     7.j %   . ; ; 7.O.G G M m m m m m m m m m m m m m ",
"; 7.7.7.n     7.7.7.;   i 7.Q m O.7.;   6 n n i     7.7.S % . ;   ; S 7.n     7.7.n   ; 7.7.7.7.7.7.-.C m m m m m m m m m m m m ",
", c.N.N.Z     c.c.c.-   p g.*.W e.c.>   @ , , , 1 1 N.N.q.d       C u.N.Z     c.c.C   - g.g.c.7.C C k.w.W W W W ] ] ] ] ^ ^ W W ",
", c.N.N.Z     c.c.c.-   p g.*.W e.c.>   d c.c.c.N.N.N.N.Z   * C     D N.Z     c.c.C   - g.g.c.C     k.k.W W W W ] ] ] ] ^ ^ W W ",
"      N.N.N.          y b.b.2.+.#.k.k.a           A.A.l   1 V.V.N.    D D     V.N.N.b       C.K     k.k.U U U U =.=.;.;.' ' o.o.",
"N.N.N.N.h.N.V.V.N.N.1.1.b.} +.+.U #.k.k.k.k.k.k.A.A.A.A.N.N.V.v.N.N.N.N.N.N.V.V.h.x.1.1.b.b.C.C.k.k.k.w.U U U U =.=.;.;.' ' o.o.",
"n.n.N.h._ y.n.n.n.n.1.{ ) U ] ] ) ) [ y.k.k.n.n.c.y._ e.c.y.,.[ i.n.N.h.y.c.n.i.[ [ { 1.k.k.h.h.M.M.y._ U U ^ ^ W W Y Y W W ^ ^ ",
"^ ^ ' ' W W ^ ^ ^ ^ v v U U ] ] ) ) W W U U ^ ^ W W Y Y W W ^ ^ ^ ^ ' ' W W ^ ^ ^ ^ v v U U ] ] ) ) W W U U ^ ^ W W Y Y W W ^ ^ ",
"m m m m m m m m m m m m m m m m m m m m m m m m m m m m m m m m m m m m m m m m m m m m m m m m m m m m m m m m m m m m m m m m ",
"m m m m m m m m m m m m m m m m m m m m m m m m m m m m m m m m m m m m m m m m m m m m m m m m m m m m m m m m m m m m m m m m "
};
