/* XPM */
static char *result[] = {
/* columns rows colors chars-per-pixel */
"64 64 152 2 ",
"   c black",
".  c #1E1E1E",
"X  c #202020",
"o  c #202021",
"O  c #343434",
"+  c #373737",
"@  c gray22",
"#  c #464646",
"$  c gray28",
"%  c gray29",
"&  c #4B4B4B",
"*  c #4C4C4C",
"=  c gray30",
"-  c #565656",
";  c gray34",
":  c #5A5A5A",
">  c #5B5B5B",
",  c gray36",
"<  c #5D5D5D",
"1  c #5D5D5E",
"2  c gray37",
"3  c #5E5E5F",
"4  c #5F5F5F",
"5  c #5F5F60",
"6  c #727272",
"7  c gray45",
"8  c #787879",
"9  c #797979",
"0  c #79797A",
"q  c gray48",
"w  c #7B7B7B",
"e  c #858586",
"r  c #888888",
"t  c #888889",
"y  c #898989",
"u  c #89898B",
"i  c gray54",
"p  c gray55",
"a  c #919192",
"s  c #939393",
"d  c #959595",
"f  c #979797",
"g  c #969698",
"h  c #979798",
"j  c #989899",
"k  c #9D9D9E",
"l  c #9F9F9F",
"z  c #A4A4A5",
"x  c #A9A9A9",
"c  c #AAAAAA",
"v  c gray68",
"b  c #AFAFAF",
"n  c gray69",
"m  c #B2B2B2",
"M  c #B3B3B4",
"N  c #B4B4B4",
"B  c gray71",
"V  c #B6B6B6",
"C  c #B7B7B7",
"Z  c #B7B7B8",
"A  c gray72",
"S  c #B9B9B9",
"D  c #B9B9BB",
"F  c gray73",
"G  c #BABABB",
"H  c #BBBBBC",
"J  c #BCBCBC",
"K  c #BCBCBD",
"L  c gray74",
"P  c #BDBDBE",
"I  c gray",
"U  c gray75",
"Y  c #BFBFC0",
"T  c #C0C0C0",
"R  c #C0C0C1",
"E  c #C1C1C1",
"W  c #C1C1C2",
"Q  c gray76",
"!  c #C2C2C3",
"~  c #C3C3C4",
"^  c #C4C4C5",
"/  c #C4C4C6",
"(  c #C5C5C6",
")  c #C5C5C7",
"_  c #C6C6C6",
"`  c #C6C6C7",
"'  c gray78",
"]  c #C7C7C8",
"[  c #C8C8C8",
"{  c #C8C8C9",
"}  c gray79",
"|  c #C9C9CA",
" . c #C9C9CB",
".. c #CACACA",
"X. c #CACACB",
"o. c #CBCBCB",
"O. c #CBCBCC",
"+. c #CBCBCD",
"@. c gray80",
"#. c #CCCCCD",
"$. c #CDCDCD",
"%. c #CCCCCE",
"&. c #CDCDCE",
"*. c #CDCDCF",
"=. c #CECECE",
"-. c #CECECF",
";. c gray81",
":. c #CECED0",
">. c #CFCFD0",
",. c #D0D0D0",
"<. c #D0D0D1",
"1. c gray82",
"2. c #D0D0D2",
"3. c #D1D1D2",
"4. c #D2D2D2",
"5. c #D2D2D3",
"6. c LightGray",
"7. c #D3D3D4",
"8. c #D3D3D5",
"9. c gray83",
"0. c #D4D4D5",
"q. c #D5D5D5",
"w. c #D5D5D6",
"e. c #D5D5D7",
"r. c gray84",
"t. c #D6D6D7",
"y. c #D7D7D7",
"u. c #D6D6D8",
"i. c #D7D7D8",
"p. c #D8D8D8",
"a. c #D8D8D9",
"s. c #D9D9DA",
"d. c #DADADA",
"f. c #DADADB",
"g. c gray86",
"h. c #DBDBDC",
"j. c #DBDBDD",
"k. c gainsboro",
"l. c #DCDCDD",
"z. c #DDDDDD",
"x. c #DDDDDE",
"c. c gray87",
"v. c #DFDFDF",
"b. c #DEDEE0",
"n. c #DFDFE0",
"m. c #E0E0E1",
"M. c #E1E1E1",
"N. c #E2E2E2",
"B. c #E2E2E4",
"V. c #E3E3E4",
"C. c #E4E4E4",
"Z. c #E5E5E6",
/* pixels */
"W W / / E E ( ( W W W W Y Y Y Y Y Y K K Y Y Y Y ( ( ( ( K K x x W W / / E E ( ( W W W W Y Y Y Y Y Y K K Y Y Y Y ( ( ( ( K K x x ",
"W W / / E E ( ( W W W W Y Y Y Y Y Y K K Y Y Y Y ( ( ( ( K K x x W W / / E E ( ( W W W W Y Y Y Y Y Y K K Y Y Y Y ( ( ( ( K K x x ",
"{ { W W *.*.( ( ( ( ( ( ( ( K K K K K K K K ( ( ` ` *.*.{ { x x { { W W *.*.( ( ( ( ( ( ( ( K K K K K K K K ( ( ` ` *.*.{ { x x ",
"{ { W W *.*.( ( ( ( ( ( ( ( K K K K K K K K ( ( ` ` *.*.{ { x x { { W W *.*.( ( ( ( ( ( ( ( K K K K K K K K ( ( ` ` *.*.{ { x x ",
"W W ( ( ! ! W W W W W W ( ( ( ( K K W W W W W W ` ` ] ] K K x x W W ( ( ! ! W W W W W W ( ( ( ( K K W W W W W W ` ` ] ] K K x x ",
"W W ( ( ! ! W W W W W W ( ( ( ( K K W W W W W W ` ` ] ] K K x x W W ( ( ! ! W W W W W W ( ( ( ( K K W W W W W W ` ` ] ] K K x x ",
"V S V b b b n S S S S S S S S S S S S S S S S S V b b b b b b b b b b b b b b b n S S S S S S S S S S S S V b b b b b n S S S S ",
"6.6.6.o.b B =.6.6.6.6.6.6.6.6.6.6.6.6.6.6.6.6.6.6.o.b b b b b b b b b b b b b B =.6.6.6.6.6.6.6.6.6.6.6.6.6.o.b b b B =.6.6.6.6.",
"T V U z.=.r.h.M B B c c V V V V V V V V V V V V ! m.3.~ ) ) ) ) W W Y Y Y Y K 0.z.B c c V V V V V V V V V T c.>.( ( a.n.Z Z Z Z ",
",   , z.q.z.h.                                  1 m.a.~ ) ) ) ) W W Y Y Y ^ O.h.z.                        , c.t.5.( n.n.        ",
"1   3 B.q.z.h.                                  1 m.x.O.*.*.-.-.( (  . .^ z.h.h.N.                        1 m.m.m.f.C.C.        ",
"o   3 B.q.z.h.          a M Z Z Z Z Z Z Z Z Z Z ! m.i.O.*.*.-.-.( (  . .O.z.k > 2     # M M Z Z Z Z Z *   o 1 1 ! m.C.C.        ",
"    , c.t.c.z.          Z m.m.m.m.m.c.c.c.c.c.c.M.g.W W Y Y P P Y Y W W ;.c.s         - m.m.m.m.m.m.c.,         A M.c.c.        ",
"    , c.t.c.z.          Z m.#.#.#.#.| | | | | | O.` W W Y Y P P Y Y W W ;.c.s         - m.s.#.#.#.s.c.,         A M.c.c.        ",
"    ; 6...6.6.          v 6...........Q F b b b b b b b b b b b b b b b T 6.p         ; 6...b b b ..6.;         v 6.6.6.        ",
"    ; 6...6.6.          v 6.6.6.6.6.6.6.6.F b b b b b b b b b b b b b b T 6.p         ; 6...b b b ..6.;         v 6.6.6.        ",
"    , z.t.c.c.          & , , , , , 1 t n.5.) ) ) ) W W Y Y x x -.-.Y Y ;.c.s         1 c.t.W W W t.m.1         Z m.c.c.        ",
"    , z.t.c.c.                        1 n.a.) ) ) ) W W Y Y x x -.-.Y Y ;.c.s         1 c.t.W W W t.m.1         Z m.c.c.        ",
"    3 B.s.m.m.          * 1 , , 1 1 1 t C.a.W W -.-.( (  . .x x  . . . .5.m.d         1 m.s.W W ( s.m.1         H Z.m.m.        ",
"    3 B.s.m.m.          Z m.c.c.m.m.m.m.C.5.W W -.-.( (  . .x x  . . . .5.m.d         1 m.s.W W ( s.m.1         H Z.m.m.        ",
"    5 Z.t.c.c.          V c.t.t.t.t.d.q...W Y Y P P Y Y W W x x Y Y -.-.;.c.s         2 c.t.W W W t.M.2         N k.z.z.        ",
"    5 Z.t.c.c.          V c.| W W W ` ` W W Y Y P P Y Y W W x x Y Y -.-.;.c.s         2 c.t.W W W t.M.2         N k.r.z.V V 6   ",
"    ; 6...6.6.          v 6.S b b b b b b b b b b b b b b b b b b b b b T 6.p         ; 6...b b b ..6.;         v 6.S =.6.6.p   ",
"    ; 6...6.6.          v 6.S b b b b b b b b b b b b b b b b b b b b b T 6.p         ; 6...b b b ..6.;         v 6.S n T 6.p   ",
"    1 m.t.c.z.          m d.&.&.&.&.O.O.&.&.&.&.<. .) ) W W Y Y Y Y ( ( ;.c.s         - d.4.&.&.&.q.h.>         Z m.%.) [ c.z.z.",
"    1 m.t.c.z.          m d.z.z.z.z.h.h.z.z.z.z.m.m. .) W W Y Y Y Y ( ( ;.c.s         - d.d.z.z.z.z.h.>         Z m.%.) W [ r.z.",
"    1 m.s.m.B.          0 s h h a a a a a a a a z Z.s.-.( (  . .( ( ( ( #.m.D g d     O s s h h a a a +   + a a 3.Z.3.-.( (  .e.",
"    1 m.s.m.B.                                  5 Z.n.-.( (  . .( ( ( ( ` l.B.B.m.                        > h.h.Z.b.-.-.( (  .*.",
"    1 m.q.z.c.                                  , z.9.P Y Y W W W W ( ( Y R | c.c.                        > c.t.` Y P P Y Y W W ",
"c.c.m.m.=.r.c.c.c.c.,.,.h.h.m.m.n.n.z.z.h.h.c.c.z.z.#.P Y Y W W W W ( ( Y Y W y.c.c.,.,.h.h.m.m.n.n.z.z.h.h.c.>.Y Y P P Y Y W W ",
"6.6.o.E b B o.6.6.6.6.6.6.6.6.6.6.6.6.6.6.6.6.6.o.E b b b b b b b b b b b b b B o.6.6.6.6.6.6.6.6.6.6.6.6.o.E b b b b b b b b b ",
"b b b b b b b b b b b b b b b b b b b b b b b b b b b b b b b b b b b b b b b b b b b b b b b b b b b b b b b b b b b b b b b b ",
"W W / / E E ( ( W W W W Y Y Y Y Y Y K K Y Y Y Y ( ( ( ( K K x x W W / / E E ( ( W W W W Y Y Y Y Y Y K K Y Y Y Y ( ( ( ( K K x x ",
"W W / / E E ( ( W W W W Y Y Y Y Y Y K K Y Y Y Y ( ( ( ( K K x x W W / / E E ( ( W W W W Y Y Y Y Y Y K K Y Y Y Y ( ( ( ( K K x x ",
"{ { W W *.*.( ( ( ( ( ( ( ( K O.7.7.O.K K O.s.s.7.` *.*.{ { x x { { W W *.*.( ( ( ( ( ( 5.s.7.O.K K K K K K ( ( ` ` *.*.{ { x x ",
"{ { W W *.*.( ( ( ( ( ( ( ( O.h.h.h.h.O.0.h.m.m.M.7.*.*.{ { x x { { W W *.*.( ( ( ( ( f.m.m.h.h.O.K K K K K ( ( ` ` *.*.{ { x x ",
"W W ( ( ! ! W W W W W W ( ( f.m.> > c.y.c.T , , M.g.] ] K K x x W W ( ( ! ! W W W W ] c.! 1 1 m.0.K W W W W W W ` ` ] ] K K x x ",
"! ` <.5.>.>.;.$.` W W W ( ( m.m.    c.c.c.V     M.M.7.7.^ P x b $.;.5.5.>.&.` W W W | c.Z     m.h.O.;.| ! [ ;.;.#.1.7.7.{ W b S ",
"=.6.6.6.6.6.6.6.6.B b b b } 6.6.    6.6.6.v     6.6.6.6.6.=.B 6.6.6.6.6.6.6.6.B b b S 6.v     6.6.6.6.6.=.6.6.6.6.6.6.6.6.6.6.6.",
"6.6.f p p p p f 6.o.b b N 6.T p     p p T v     p p p p v 6.=.6.f p p p p f 6.o.b b S 6.v     p p p p v 6.6.p p T f p p f 6.6.f ",
"c.V & & , , + % U z.J x ] c.T ,     , , T V     1 1 < X w #.m.Z & & , , @ & I h.=.Y N ,.V     , , , X q ..c.    d w < < t m.Z * ",
"c.    s B B 8   , z._ x W p.c.c.    c.c.c.V     m.m.n.<   d m.    s B B 9   > h.q.Y N ,.V     c.c.c.,   s c.    * ! n.n.m.m.    ",
"m.    = , , > > y N.I x K K m.m.    m.m.m.Z     m.m.C.4   j Z.    * 3 3 , , e h.r.{ N ,.M     m.m.m.1   d m.    Z m.v.x.Z.Z.    ",
"m.    D z.z.h.h.N.N.B x K K m.m.    m.m.m.Z     m.m.C.4   j Z.    Z B.B.z.z.h.h.,.{ N ,.M     m.m.m.1   d m.    Z m.4.O.Z.Z.    ",
"z.z.,         , c.t.x x ( ( f.m.m.      V V     M.M.c.,   s k.k.,         , z.q.W W N ,.Z             s c.c.    A M.| W r.z.k.> ",
"z.z.c.c.c.c.z.z.c.>.x x ( ( X.f.m.m.c.c.c.c.c.c.M.g.c.c.z.z.k.k.z.z.c.c.c.c.z.=.W W c ..m.m.m.m.m.m.c.c.c.c.c.c.M.z.! W ^ r.k.k.",
"C E o.6.6.6.6.o.E b b b b b b B o.6.6.6.o.o.6.6.o.B E o.6.o.C E o.6.6.6.6.o.E b b b b B o.6.6.6.6.6.6.o.C o.6.6.o.B b b b b E o.",
"b b b b b b b b b b b b b b b b b b b b b b b b b b b b b b b b b b b b b b b b b b b b b b b b b b b b b b b b b b b b b b b b ",
"-.-.Y Y W W W W W W ( ( W W W W W W ( ( ~ ~ ) ) ) ) W W Y ^ J _ f.w.Y Y W W W W W W ( ( W W W W W W ( ( ~ ~ ) ) ) ) W W Y Y J _ ",
"-.-.Y Y W W W W W W ( ( W W W W W W ( ( ~ ~ ) ) ) ) W W ^ z.,.,.Z.Z.{ Y W W W W W W ( ( W W W W W W ( ( ~ ~ ) ) ) ) W W Y y.,.,.",
" . . . .( ( ( ( ( ( ( ( ( ( W W ( ( ( ( O.O.W W -.-.( ( 8.B.d - u B.u. .( ( ( ( ( ( ( ( ( ( W W ( ( ( ( O.O.W W -.-.( ( :.B.N - ",
"e.e.e.e.5.O.` #.5.5.5.5.5.5.[ W O.5.5.O.O.>.$.;.0.>.( ( e.B.i   3 B.j.e.5.O.( O.5.5.5.5.5.#.! [ 5.5.O.( #.4.;.$.5.-.( ( 2.B.c   ",
"z.z.Z.Z.c.c.d.c.c.c.M.M.c.c.c.r.c.c.M.M.[ c.z.z.k.p.R Y ;.c.i   , z.Z.Z.c.c.r.c.c.c.M.M.c.c.d.c.c.c.M.s.d.c.z.z.k.! Y R d.c.c   ",
"s s j j s c.c.V s s d d s s ..c...s d M.y.c.l s N k.] Y ;.c.i   , z.Z.j s ..c.c.s s d d s V c.c.s s $.M.c.V s l k.#.Y ] c.V 6   ",
"; ; ; $   v 6.p   . ; ; ;   p ..v     6.6.6.;   p 6.T b T 6.p   ; ..v   ; C ..v   ; ; ; . 7 T 6.    v 6.6.p   ; 6...b L 6.f $   ",
"v v v p     6.p   ; 6.6.6.    v v     6.6.6.;   p 6.T b T 6.p   $ p   ; 6.6.v     v v v $   p 6.    v 6.6.p   ; 6...b B 6.6.v   ",
"@ , 1 *     z.s   , ,.,.d.    B B     h.z.z.,   d m.5.) ;.c.s   X &   Z c.c.B     , - - : : l z.    M h.z.s   , m.s.) ) | c.B   ",
"s z.m.Z     z.s   , ,.,.d.    B B     h.z.z.,   d m.5.) ;.c.s   , B     c.c.B     z.,.,.d.d.z.z.    M h.z.s   , m.s.) ) | c.B   ",
"            B.g   1 ,.,.x.    G h.h.            j Z.s.-.5.m.g   1 m.m.    Z B.B.          s V.V.h.>           > Z.n.-.-.` l.B.D ",
"m.m.m.m.m.m.B.B.m.m.,.' x.x.V.V.i.h.h.h.h.h.>   j Z.s.-.O.m.B.B.m.m.m.m.m.m.b.B.m.m.,.,.x.x.V.x.h.h.h.h.h.a   > Z.n.-.-.( X.b.B.",
"c.c.m.m.z.z.y.y.c.y.J n 0.h.m.f.3.n.z.z.h.h.,   s z.@.P Y ` y.c.y.>.f.m.z.r.` y.c.c.,.,.h.0.+.*.n.n.z.z.h.a   , z.q.P P Y Y ` y.",
"W W ( ( Y Y W W W W x x K K ) ) a.n., , > > X q ..z.^ P Y Y W W W W ( ( Y Y W W W W x x K K ) 0.n.r , , > + & T z.=.P P Y Y W W ",
"b b b b b b b b b b b b b b b b E 6.v v v v v T 6.} b b b b b b b b b b b b b b b b b b b b b F 6.C v v v v C 6.o.b b b b b b b ",
"b b b b b b b b b b b b b b b b n =.6.6.6.6.6.6.} b b b b b b b b b b b b b b b b b b b b b b b o.6.6.6.6.6.6.o.b b b b b b b b "
};
