/* XPM */
static char *result[] = {
/* columns rows colors chars-per-pixel */
"64 64 223 2 ",
"   c #020103",
".  c #0C0000",
"X  c #030509",
"o  c #0D0B0B",
"O  c #110201",
"+  c #120D0C",
"@  c #16110E",
"#  c #060A13",
"$  c #0A0C14",
"%  c #0F1015",
"&  c #141314",
"*  c #1D1612",
"=  c #1F1812",
"-  c #13151C",
";  c #16191D",
":  c #1B1A1C",
">  c #231A14",
",  c #291E16",
"<  c #281E19",
"1  c #2C211A",
"2  c #36271D",
"3  c #3B261D",
"4  c #041325",
"5  c #161923",
"6  c #1A1D24",
"7  c #101E31",
"8  c #1C212B",
"9  c #172232",
"0  c #262527",
"q  c #22262D",
"w  c #352A25",
"e  c #3D2C22",
"r  c #232731",
"t  c #252A34",
"y  c #252B3C",
"u  c #292F3A",
"i  c #2B313C",
"p  c #373633",
"a  c #412E25",
"s  c #493427",
"d  c #563A29",
"f  c #503831",
"g  c #6B3B2E",
"h  c #6C3C33",
"j  c #414626",
"k  c #464B2A",
"l  c #5E422B",
"z  c #5B4333",
"x  c #6E462C",
"c  c #624837",
"v  c #6F4F33",
"b  c #644C3A",
"n  c #6A4E3B",
"m  c #754532",
"M  c #7D4B35",
"N  c #734838",
"B  c #7D4D39",
"V  c #6C513C",
"C  c #7B5439",
"Z  c #1F3049",
"A  c #282E41",
"S  c #2D3243",
"D  c #28354A",
"F  c #323844",
"G  c #373D4D",
"H  c #383E4E",
"J  c #393F50",
"K  c #3C414C",
"L  c #3B4152",
"P  c #46434B",
"I  c #444A55",
"U  c #454B5A",
"Y  c #555151",
"T  c #68544D",
"R  c #7A5B44",
"E  c #706C58",
"W  c #6B7058",
"Q  c #4F5461",
"!  c #5B5D63",
"~  c #595E6B",
"^  c #5E626D",
"/  c #656566",
"(  c #6B6B6B",
")  c #72776C",
"_  c #6C6D71",
"`  c #737373",
"'  c #777778",
"]  c #7C7C7D",
"[  c #BF4815",
"{  c #814E35",
"}  c #804F38",
"|  c #845439",
" . c #835D3D",
".. c #945F3A",
"X. c #8A603C",
"o. c #94633C",
"O. c #98663D",
"+. c #9D6B3E",
"@. c #9D703F",
"#. c #A36D3F",
"$. c #A86F3E",
"%. c #C14E1C",
"&. c #C65927",
"*. c #CD6938",
"=. c #D1703F",
"-. c #86664F",
";. c #966341",
":. c #996543",
">. c #9D6D44",
",. c #9E6F4B",
"<. c #967345",
"1. c #9A7144",
"2. c #95724D",
"3. c #9B714C",
"4. c #936E53",
"5. c #987253",
"6. c #A36D42",
"7. c #A86F40",
"8. c #A87146",
"9. c #AE7750",
"0. c #B57C52",
"q. c #B87E53",
"w. c #826364",
"e. c #8D6C65",
"r. c #947B68",
"t. c #C57F4C",
"y. c #7E887C",
"u. c #E6863F",
"i. c #BD8154",
"p. c #998777",
"a. c #A6876E",
"s. c #B88967",
"d. c #A78C78",
"f. c #AC917D",
"g. c #CD844E",
"h. c #CE8D5F",
"j. c #DA8A53",
"k. c #DD895A",
"l. c #DD9158",
"z. c #E98D48",
"x. c #EA904D",
"c. c #E89353",
"v. c #E8975B",
"b. c #F79A57",
"n. c #FFA45A",
"m. c #DF9864",
"M. c #D7986A",
"N. c #E69C67",
"B. c #EA9D64",
"V. c #F49E60",
"C. c #DDA474",
"Z. c #EBA067",
"A. c #ECA26C",
"S. c #F9A565",
"D. c #F2A56C",
"F. c #ECA572",
"G. c #EDA976",
"H. c #E4A578",
"J. c #EDAB7A",
"K. c #FDAF72",
"L. c #F4B875",
"P. c #FFB978",
"I. c #7D8892",
"U. c #848484",
"Y. c #8B8B8B",
"T. c #908E83",
"R. c #919586",
"E. c #9E9387",
"W. c #8F8F90",
"Q. c #949494",
"!. c #96999C",
"~. c #9B9B9C",
"^. c #B69C86",
"/. c #A7A296",
"(. c #99A9B3",
"). c #A3A3A3",
"_. c #A6A7A9",
"`. c #AFAFAF",
"'. c #AEAFB0",
"]. c #B4B4B5",
"[. c #B7B8B8",
"{. c #BBBBBC",
"}. c #D2AD91",
"|. c #EDAF81",
" X c #EFB385",
".X c #EFB589",
"XX c #F0B486",
"oX c #FFBE83",
"OX c #F0B78A",
"+X c #F1B88D",
"@X c #FBBC8C",
"#X c #EEBA92",
"$X c #F2BD93",
"%X c #CABBAF",
"&X c #FFC08E",
"*X c #FFD289",
"=X c #F5C296",
"-X c #FEC592",
";X c #FFCA95",
":X c #FECD99",
">X c #FFD49D",
",X c #8BADC4",
"<X c #AFBCC2",
"1X c #BFBFC0",
"2X c #BEC6C8",
"3X c #BDC6CB",
"4X c #BBC9D1",
"5X c #C3C3C4",
"6X c #CDCAC5",
"7X c #C3CACC",
"8X c #CACBCC",
"9X c #C6CFD3",
"0X c #C9D4D7",
"qX c #D0D5D7",
"wX c #D5DADC",
"eX c #D1DCE1",
"rX c #DDE0E1",
"tX c #C0E0F4",
"yX c #E4E8EA",
"uX c #E9ECED",
"iX c #E1FEFF",
"pX c #F5F8FC",
"aX c #FBFCFD",
/* pixels */
"5X5X5X5X1X5X5X5X5Xo X   X                 .                 s A.N.m.N.m.m.N.m.m.N.m.m.m.m.m.N.m.m.m.m.m.N.N.N.A.F.N.H.5X{.{._._.",
"5X1X5X5X5X5X5X6X2X. + w w 3 3 e 3 e 3 w 2 2 2 e 3 e 3 w e w N A.N.B.A.Z.B.N.B.B.N.N.B.B.B.B.N.N.B.B.B.B.B.N.N.N.B.B.H.1X].[._._.",
"5X8X5X5X8X8X5X5X5XO e 4.4.,.,.,.3.,.,.,.,.8.3.,.,.6.,.,.q.i.h.N.A.B.A.A.A.B.F.J.J.J.J.G.G.J.J.J.J.J.G.G.G.G.G.G.G.G.J.}.}.%X).).",
"8X5X5X5XqX8X6X5X5X. 3 ,.6.$.$.$.7.7.7.7.6.7.6.7.6.$.$.#.D.D.D.D.D.A.N.A.N.N. X=X$X$X#X$X+X#X$X$X$X#X$X.X X+X+X+X+X+X|.N.N.}.~.).",
"5X5X5X5X5X5X5X1X5X. 3 2.,.1.#.6.6.6.6.>.1.6.>.6.6.6.6.>.N.D.B.D.A.D.A.N.A.B.J.$X+X+X.X$X+X#X+X+X#X+X+X.X|. X X X X X XB.N.^.Q.!.",
"1X5X6X5X5X5X5X5X2X. 3 4.,.6.+.| h N N m m m m m m d > * s c s e 1 q.K.A..X.X.X.X X X.X.X X X X X.X.XXX X X X X X X X X XJ.}.Y.Q.",
"`.`.`.`.`.'.'.`.`.. 3 2.>.#.+.{ h B B B B B M M B s > > < 1 > .   0.K.F.$X$XOX X X XXX X X X X X|. X X X XXX X X X XXX X$X^.Y.W.",
"`.`.'.'.`.'.'.'.`.. 3 3.1.#.+.{ B ;.6.6.6.6.#.M | d , , e a w > + 0.K.F.+X+X X X X X X X X X XXX X X X X X X X XXX XXXXX:X-.! / ",
"1X1X1X1X1X1X1X2X{.. 3 1.6.#.#.{ M o.6.#.#.#.#., = 2 s e 3 a 2 = + 0.K.A. X X X X XOXXXXXXX XXXXX X XXX X X X X XXXXXXXXX:XC   1 ",
"5X1X1X1X1X1X{.%X2X. 3 3.1.6.#.| } ..6.#.#.#.#., = 1 e e e a 2 = + q.K.F. X X X X X@X&X@X@X@X@X-X@X X X X X X X X@X@X@X@X>X-.  1 ",
"5X5X8X8X1X1X{.{.5X. 3 <.+.#.#.} } o.#.#.#.#.#., = 1 e 3 1 1 , = + 0.K.A..X X X@X|.n b n n n n d 5.-X X X X X X&X4.z b n R a + 1 ",
"8X5X8X7X1X1X{.{.6X. 3 <.+.6.6.} B ..#.#.$.#.#., = 1 s e > = > = + q.K.F. X X X&XC.+ . + + + +   n :X X X X X X;Xz   + + o & > 1 ",
"1X1X5X1X5X5X{.{.2X. 3 <.1.#.#.| B o.#.#.#.#.#., > 1 3 2 > > > > + 0.K.A.OXXX X@X}.c d b c c c f 5.&XXX X X X X&X4.d c c V 3 @ 1 ",
"1X1X1X5X5X5X{.5X1X. 3 1.@.#.6.} B o.+.#.#.#.+., > > > > > = > > + 0.K.A. X X X X XoX@X@X@X@X@X@XOXXX X X X X X XOX@X@X@X>X-.  1 ",
"'.`.`.`.`.`.`.`.`.. 3 1.#.$.#.{ M :.6.6.#.#.#., > & X X = , @ o   9.K.F..X X XXX XXXXXXXXXXX:X>X-X|. X X XXX.XJ.-X>X:XXX>XR   > ",
"'.`.`.`.`.`.`.`.`.O 3 <.+.6.6.{ M o.#.#.#.#.#., o l 0.8.2 o s $.O.l.D.F..X X X X X XXX XOX Xn 2 4.-X XXX X X X-X-.2 V XX:XR   1 ",
"8XqX1X1X1X1X5X5X5X. 3 <.@.6.6.} } o.#.#.#.#.#.,   X.*XP.a   v K.S.D.B.N. XXX X X X X X X@XJ.+   z :X X X X X X;Xf   > XX>XR   1 ",
"qX8X1X1X1X5X5X1X5X. 3 <.@.#.6.} B ..#.#.#.#.#., X C P.A.e   l n.v.B.A.F. X X X X X X X X@X X1   V :X X X X X X;Xz   e XX>XV X w ",
"6X8X8X8X5X8X5X5X5X. 3 <.@.#.6.B B ..6.#.#.#.+., X C P.A.e   l n.c.J.OXXX X X X X X X X X X X X X X X X X XXX X X XXXXX X&Xp./ / ",
"8X8X5X8X5X5X5X8X5X. 3 1.@.6.6.| B ..+.6.#.#.#., X C oXD.>   s n.x.G.#X X X X XXXXX=X=X.X X X@X@XXX X XXX X X X XOX@X@XJ.J.^./ ( ",
"1X1X8XqX5X5X1X5X1X. 3 1.#.6.7.{ M :.6.#.#.#.#., X C P.A.+.x 8.L.A.J.OXXX X X XOX Xk.k.H.+XXXXXXXXXXX XXX X X X X X X X X.Xd.( ( ",
"1X5X8X8X1X5X5X1X5XO 3 1.#.6.6.{ M o.#.#.#.#.+., X C P.D.S.n.K.#X+XXX XXX X X X+XJ.&.[ k.=XOXOXOXOXXXOXOXOXOXOXOX X X X X Xd./ ) ",
"`.`.`.'.`.`.`.`.`.O 3 <.@.#.6.} M o.#.#.#.#.#., . C P.N.v.c.Z..X X X X XXX XXX+XJ.=.&.l.+X X|.|. X X XJ. X X XJ. X X X X Xd._ ' ",
"`.`.`.`.`.`.`.`.`.. 3 <.@.6.8.} B ..#.#.#.6.+., > , 1 1 g.n.Z..X X XXX X X X X X X|.+Xk.*.=.=.=.=.=.=.=.=.=.=.*.N.+X X X Xd._ y.",
"5X1X5X6X5X1X1X1X1X. e <.@.#.6.} B o.#.#.#.#.#.1 > = o o g.b.Z..X X X XXX X X X X X+X:Xj.[ &.&.&.&.&.&.&.&.&.&.%.m.=X X X Xf.r.I.",
"1X1X8X5X5X5X1X1X1X. 3 <.@.#.6.} B X.#.#.#.#.+.d d 3 = = g.n.Z. X X X X X X X X X X XOXH.t.k.k.k.k.k.k.k.k.j.k.j.G.+X X X XE.] U.",
"8X5X5X5X5X5X8X8X5X. 3 1.+.6.6.{ M ;.#.#.#.#.#.+.o.l * = g.b.Z.OX X X X X X X XXX X.X X+X-X$X@X$X+X$X$X@X$X+X$X=X.X X.X X Xf.U.W.",
"5X5X5X8X5X5X8X8X5X. 3 <.6.6.7.{ M o.>.#.#.#.#.+.O.l = + g.n.Z.OXXX X X X X X X X X X.X XXXXXXXXX X X XXXXXXX X.X X.X X X Xf.U.W.",
"1X5X5X8X%X1X5X1X5XO 3 <.@.6.6.} M ..#.6.#.#.+.+.O.X.v V j.n.Z.OX X X X X XXX X.XJ.B.v.F.OX X X X X X X X X X X.XA.c.B. X Xf.] Y.",
"5X1X5X8X1X1X1X5X5X. 3 <.@.#.6.} B o.#.#.#.#.#.+.@.o.X.X.v.j.Z.OX X X X X X X XOX Xx.u.A.$XOX+X.XOXOX.X+XOX.XOX$XB.z.c. X.Xf.] Y.",
"`.`.`.`.'.'.'.'.`.. 3 <.@.6.6.{ m :.6.#.+.#.#.#.+.o.o.X.j.c.Z.OX XXX XXX X X X.X XZ.B.A.J.J.G.G.J.G.J.J.G.J.G.J.A.v.A. X.Xd.` ] ",
"`.`.`.`.'.'.'.'.`.. 3 <.@.#.8.M m 6.,.3.2.3.#.#.+.+.;.X.j.c.Z.XX X X X X X X X X X.X#XF.x.c.c.c.c.c.c.c.c.c.c.x.J.$XOX X Xd.` U.",
"5X5X7X5X5X5X6X5X5X. 3 1.#.6.7.{ N :.d.(.(.d.#.#.#.+.+.O.l.c.Z.+X.X X XXX X X X X X X#XA.z.c.c.c.c.c.c.c.c.c.c.x.G..X X X Xf._ ] ",
"1X5X5X5X1X5X5X5X5X. 3 1.#.6.6.{ m :.T.,X(.Q.:.$.#.#.+.+.j.c.B.J.J.|. X X X X X X X X X|.G.J.J.J.J.G.J.G.J.J.J.G. X X X X Xf.) ] ",
"5X8X%X2X8X8X5X7X5X. 3 1.+.6.6.} { ..p.(.,XE.+.#.#.#.@.#.l.x.Z.F.A.|.XX X X X.X X X X X.XOXOXOX.XOX.X.XOX.XOX+X+X.X X.XJ.XXE._ ] ",
"6X8X5X5X8XqX5X6X5X. 3 <.@.#.6.{ { :.5.r.r.5.#.$.#.#.#.+.g.c.l.A.A.|..X X X X X X|. X X|. X X X X X X X X|. X X X XJ. X}.|.d.) ] ",
"1X1X7X5X5X5X1X1X5X. 3 <.@.#.6.} m O.#.$.$.$.#.#.#.#.#.#.+.o.8.v.c.G.OXXX XXXJ.A.F.F.F.A.A.F.A.F.H.A.A.F.F.A.F.A.F.F.M.` _ ` ` r.",
"1X5X8X5X5X5X1X5X5X. 3 <.@.6.6.} } ..#.#.$.$.#.#.#.#.#.#.+.O.8.c.c.oX:X-X-X:XK.b.S.G.G.G.G.G.G.F.G.F.G.A.V.V.F.H.F.D.M.` ` ' ' ] ",
"`.`.'.`.`.`.'.'.'.. 3 <.+.6.6.} B ..#.#.6.#.#.#.#.6.#.#.+.O.#.i.8.-.T w.E T ^.6X}.Z.v.B.B.B.v.B.B.v.v.#X%X}.r.a.a.a.p.( _ ` ] Y.",
"`.`.`.`.`.`.`.'.'.. 3 1.6.7.6.{ M ;.#.#.#.6.#.#.#.#.#.#.+.+.o.X. .0 4 4 4 X I.iX0Xx.z.x.x.x.b.b.c.z.x.6XtX<X/ ( ( ( ( _ ` ' I.W.",
"5X1X1X1X1X1X{.{.{.O 3 1.@.6.6.{ M ..#.#.#.#.#.#.$.#.#.#.@.#.O. .X.p u u y 5 I.0X[.B.v.N.v.B.l.l.v.B.v.%X4X!.` _ ' ] ] U.Y.Q.~._.",
"5X5X1X{.1X1X{.{.5X. 3 1.@.#.6.} B ..#.6.#.#.6.$.#.#.#.#.#.#. .G K J G G G G i 8 G 5X8X2X7X2XW k p.wX8XU 6 t S J ( ] U.Y.!.~._.].",
"5X5X8X8X1X1X1X{.5X. 3 <.@.#.7.| B ..#.#.#.#.#.#.6.#.#.#.#.#.C G G J L L G L y $ i 4X0X4X4X3XW k y.0X9XH # r J G _ Y.Q.~._.'.{.1X",
"5X8X8X8X1X1X{.{.8X. 3 <.@.6.6.} B ..#.#.#.#.#.#.#.#.#.#.R T Y H G F i F G L F r K 5X7X9XwX9XW k I.yXwXQ 9 F H G _ Y.!._.'.[.1X8X",
"1X1X5X5X1X5X1X1X5X. 3 <.+.$.6.} B ..#.#.#.6.#.#.#.#.#.#.P G G G J u 8 u G G J F U 7X7XqXpXrXW j R.aXuX^ A J G G _ W.Q.)._.].].{.",
"1X1X1X5X5X1X1X1X5X. 2 1.+.6.8.{ M ;.>.#.#.$.#.#.#.#.#.#.P G G G G u q u G G J S I 2X7XqXuXrXW j R.pXuX~ y G H H ( W.Q.).'.].[.{.",
"`.`.`.`.`.`.`.`.`.O 3 1.1.#.6.{ M o.6.#.#.#.#.#.#.#.#.#.P K G G L i q u K G G S I 2X7XqXuXrXW j R.pXuX~ y H H J S t P W.~.)._.`.",
"`.`.'.`.`.`.`.`.`.O 3 1.@.#.6.} M ..#.#.#.#.#.#.#.#.#.#.P G G G G i r i G G G S U 2X7XqXuXrXW j R.pXuX~ y G G H i t F Y.~.)._.'.",
"8X8X5X1X1X5X1X5X1XO 3 <.+.#.6.| B ..+.#.#.#.#.#.#.#.#.#.P G G G K i q u K G G D I 2X7XqXuXrXW j R.pXyX~ y G G L u r p !.)._.).).",
"qX8X1X1X1X1X5X1X5XO 3 <.1.#.6.B B ..#.#.#.#.#.#.#.#.#.#.P G G G L i q i G G G S I 2X7XqXuXrXW j R.pXuX~ y G G L i 9 i Y.!._.~.).",
"8X8X8X8X5X8X5X6X5X. 3 <.@.6.6.} B ..#.#.#.#.#.#.6.#.#.#.P D G K K y 8 i G G K A I 2X7XqXuXrXW j R.pXuX~ y G G L y 7 u Y.~._.~.~.",
"8X8X6X8X5X8X5X5X8X. 3 <.@.6.6.} B o.#.#.#.#.#.6.#.#.#.#.f.C.r.9 u F F G G G G D U 2X7XqXuXrXW j R.pXyX~ y G G D 5.M.s.U.Q.~.~.~.",
"1X1X8XqX5X1X5X1X5XO 3 1.#.#.6.{ M :.6.#.#.#.#.#.#.#.#.#.L.>Xs.4 8 F L K L G G y U eXrXyXaXpX) j /.aXaX^ y K G Z s.P.F.] Y.Q.Q.~.",
"1X1X8X8X1X5X5X5X5XO 3 <.@.6.7.{ { ..+.#.#.#.#.6.#.#.6.#.M.|.s.7 u G L G G G G D I !.!._.[.'.Y j ) 2X].Q A G G Z s.C.s.] U.Q.Q.~.",
"`.'.'.`.`.`.`.`.`.. 3 1.+.6.6.{ M o.#.6.#.#.#.$.#.#.#.#.1.o.R D G G G G K G K L F $ $ - # $ 5 5 - # # S L L G D / / _ _ ] U.Q.~.",
"`.`.`.`.`.`.`.`.`.. 3 <.@.6.6.| M o.#.#.$.#.#.#.$.#.#.#.O.o.T K G L L L L L L L K 8 5 8 6 6 5 6 5 5 ; G L L L G Y ( _ _ p.Y.~.).",
"1X1X8X5X5X1X1X1X1X. 3 <.1.@.7.} B ..6.#.#.#.#.#.#.#.#.#.+.O. .T T p q q r t 8 8 8 ; ; 5 - ; 5 - 5 6 6 q q u ~ ! _ ' ] Y.W.!._.].",
"1X1X5X5X1X5X1X5X1X. 3 <.@.#.6.} B ..>.#.#.#.#.#.#.#.#.#.+.+.o.X. .0 ; - ; : & $ $ - - % % - - % ; 6 6 ; - 0 ` ) ` y.U.W.!.).`.].",
"5X8X5X7X5X5X8X5X5X. 3 <.+.6.6.{ M ;.:.6.#.#.#.#.#.#.#.#.#.+.O.o. .w 8 8 6 6 5 - ; : : < 6 6 5 - ; 6 6 6 6 0 _ ` I.U.Q.~.).`.{.1X",
"5X5X5X8X5X6X8X8X5XO 3 1.+.$.#.| } o.6.6.#.#.#.#.#.#.#.#.#.+.+.O.o.w 8 : 6 6 6 6 6 b b c b s - % 5 6 6 6 6 t ` ` p.Y.!._.`.].5X5X",
"5X1X5X5X1X1X1X1X5X. 3 >.1.#.#.} B ..6.6.6.6.$.6.#.6.#.#.$.6.+.:.@.w 8 8 6 8 6 8 q c c c b f ; - 5 8 6 6 6 r ` ] U.W.!.).`.].1X1X",
"5X5X5X8X2X%X2X1X1X. 3 4.1.6.6.} B ;.6.6.6.6.6.6.8.6.8.6.6.8.6.>.1.e - ; ; ; ; ; 6 c n T T z & & & & - ; ; 0 ' U.Y.Q.).`.].{.1X1X",
"'.'.`.`.`.].`.`.`.O 3 4.>.6.7.} h h g g g g g h h h g g g g g g g > & & & & @ & & f f f f f + o o o o + & 1 ` ' U.W.~._._.`.'.`.",
"'.'.`.`.`.`.`.`.].O 3 E.a.a.a.e.w.w.w.w.w.w.w.w.w.w.w.E w.w.w.w.( w & * : ; * & > Y Y T T T : o + & & * & 0 ` ] U.Q.~.).`.`.`.`."
};
