/* XPM */
static char *result[] = {
/* columns rows colors chars-per-pixel */
"64 64 224 2 ",
"   c #000001",
".  c #0C0000",
"X  c #040509",
"o  c #0D0B0B",
"O  c #100100",
"+  c #160806",
"@  c #120D0C",
"#  c #16110E",
"$  c #070C16",
"%  c #0B0D14",
"&  c #100F12",
"*  c #0E1216",
"=  c #131314",
"-  c #1D1612",
";  c #1B1816",
":  c #13151B",
">  c #16191D",
",  c #1A191E",
"<  c #221A15",
"1  c #281E18",
"2  c #321D1C",
"3  c #22241F",
"4  c #2D211A",
"5  c #34251D",
"6  c #3C261C",
"7  c #39291D",
"8  c #041325",
"9  c #161A24",
"0  c #1A1D24",
"q  c #101E31",
"w  c #1D222B",
"e  c #19242B",
"r  c #0B3937",
"t  c #22262E",
"y  c #242829",
"u  c #362720",
"i  c #3D2C22",
"p  c #232731",
"a  c #252A35",
"s  c #252B3C",
"d  c #292F3A",
"f  c #203634",
"g  c #2B303B",
"h  c #44251E",
"j  c #412E25",
"k  c #433125",
"l  c #4C3629",
"z  c #563E2C",
"x  c #4A3733",
"c  c #493734",
"v  c #414626",
"b  c #464B2A",
"n  c #574031",
"m  c #5B4333",
"M  c #66452B",
"N  c #72492A",
"B  c #624837",
"V  c #674B35",
"C  c #6A4F3B",
"Z  c #6D513D",
"A  c #7A553A",
"S  c #173448",
"D  c #282E41",
"F  c #2C3243",
"G  c #2A384B",
"H  c #323845",
"J  c #373D4D",
"K  c #383E4E",
"L  c #393F50",
"P  c #004343",
"I  c #004949",
"U  c #0F4E4E",
"Y  c #1B4545",
"T  c #194748",
"R  c #144B4C",
"E  c #1A494A",
"W  c #0E4F50",
"Q  c #174E51",
"!  c #025556",
"~  c #0B5353",
"^  c #065758",
"/  c #005A5B",
"(  c #0A5A5A",
")  c #125253",
"_  c #105758",
"`  c #23454A",
"'  c #26494E",
"]  c #38414C",
"[  c #22554B",
"{  c #3B4152",
"}  c #005F60",
"|  c #016364",
" . c #006769",
".. c #006869",
"X. c #444A55",
"o. c #454B5A",
"O. c #525855",
"+. c #785B44",
"@. c #6D5A50",
"#. c #5A694F",
"$. c #60604D",
"%. c #686D56",
"&. c #776D57",
"*. c #6B7058",
"=. c #4F5461",
"-. c #595E6B",
";. c #566D68",
":. c #6B7767",
">. c #BF4815",
",. c #835C3D",
"<. c #94623D",
"1. c #9C713F",
"2. c #A36D3F",
"3. c #A86E3C",
"4. c #C14E1C",
"5. c #C65927",
"6. c #C85C2A",
"7. c #CD6938",
"8. c #D1703F",
"9. c #855E46",
"0. c #845E48",
"q. c #866349",
"w. c #9D6F44",
"e. c #956A49",
"r. c #9C6F48",
"t. c #967345",
"y. c #9C7044",
"u. c #96714B",
"i. c #9A704A",
"p. c #826553",
"a. c #936E54",
"s. c #957151",
"d. c #997254",
"f. c #A36D41",
"g. c #A17041",
"h. c #A77148",
"j. c #AE764E",
"k. c #B57B52",
"l. c #B87E53",
"z. c #947764",
"x. c #C57F4C",
"c. c #7E887C",
"v. c #E6863F",
"b. c #B68155",
"n. c #8F8970",
"m. c #AE8A6B",
"M. c #CD844E",
"N. c #C88957",
"B. c #D68655",
"V. c #DD895A",
"C. c #DA935B",
"Z. c #E98D48",
"A. c #EA904D",
"S. c #E69557",
"D. c #E89353",
"F. c #EA9A5E",
"G. c #F79A57",
"H. c #FFA45A",
"J. c #C5946F",
"K. c #D89866",
"L. c #DF9864",
"P. c #E69B62",
"I. c #EA9D64",
"U. c #E69C6A",
"Y. c #F49E60",
"T. c #DAA475",
"R. c #EBA067",
"E. c #ECA26B",
"W. c #F9A565",
"Q. c #F3A56C",
"!. c #FFBA6B",
"~. c #ECA572",
"^. c #EDA976",
"/. c #E5A678",
"(. c #EDAB7A",
"). c #FDAF72",
"_. c #FFB675",
"`. c #FFBB7A",
"'. c #7D8892",
"]. c #8B918E",
"[. c #919586",
"{. c #B29884",
"}. c #9BA3A1",
"|. c #AFAEAC",
" X c #B6B8B8",
".X c #D3B393",
"XX c #EBAE81",
"oX c #EFB385",
"OX c #EFB589",
"+X c #F0B486",
"@X c #FFBE83",
"#X c #F0B78A",
"$X c #F1B88D",
"%X c #FBBC8C",
"&X c #EEBA92",
"*X c #F2BD93",
"=X c #CEBFB2",
"-X c #FFC08E",
";X c #FFD289",
":X c #F5C296",
">X c #FEC592",
",X c #FFCA95",
"<X c #FECD99",
"1X c #FFD49D",
"2X c #DFCAB7",
"3X c #FFD9A1",
"4X c #BEC6C8",
"5X c #BDC6CB",
"6X c #BBC9D1",
"7X c #C6CAC9",
"8X c #C3CACC",
"9X c #C6CFD3",
"0X c #C9D4D7",
"qX c #D0D5D7",
"wX c #D5DADC",
"eX c #D1DCE1",
"rX c #DDE0E1",
"tX c #C0E0F4",
"yX c #E4E8EA",
"uX c #E9ECED",
"iX c #E1FEFF",
"pX c #F0F1F3",
"aX c #F5F8FC",
"sX c #FEFEFF",
/* pixels */
"/ / } } / / | / / o X   X   X       X   X   X   X X   X b.E.P.P.L.L.P.L.L.P.L.L.U.L.L.P.L.L.L.L.L.U.P.L.P.U.L.E.;./ } } ! ! P P ",
"/ / } } / / / | / X @ u 6 6 u u 6 h 6 6 6 6 6 h 6 5 6 6 B.I.I.U.I.P.I.U.P.I.P.P.I.I.P.P.P.P.I.I.I.U.U.U.E.E.R.R.;.} / } ! ! P P ",
"| | / / ....| / / . 6 s.h.f.f.f.f.h.f.f.f.f.f.f.3.j.N.x./.^.^.^.^.^.^.^.(.XX(.(.(.(.(.XX(.(.(.XX~.I.U.R.E.I.E.U.n.*.c...} } P P ",
"| | / / ..../ | | . h s.h.3.3.f.f.f.f.f.f.h.f.f.f.N.I.U.oX$X+X$X$XOX+XOX*X*X*X*X*X&X*X&X*X&X*X:X+XI.R.R.I.E.Q.Q.R.R.K.} } } P P ",
"/ / | / / / / } / . 6 s.r.f.f.,.q.0.q.9.9.9.0.0.0.k.I.I.+X+XoXoXoXoXoX+X$X#X&X#X$X$X$X$X$X$X#X*XXXY.U.R.E.E.E.E.Q.Q.K.( ~ ~ P P ",
"/ / / | / } / / / . 6 s.r.w.f.h . .   . . .   . . Z XXXXoX+XoXoXoXoXoXoXOXOXOXOX+X+XoXoX+X+XoXoX+X#XOX~.).x.2 6 v B i # < r P P ",
"I I I I I I I I I . u s.w.2.f.h   .   X . X   . X +.$X+XoXoXoXoXoXoXoXoXoXoXXXoXoXoX+XXXXX+XoXoX#X&X&X~.).j.X o < 5 1 - - r I I ",
"I I I I I I I I I . 6 r.f.2.w.6     . . X X X o X z ,X+X+XoXoXoXoXoXoXoXoXoXoXoXoXoXoXOX+X+XoXoX+X#X&X~.).k.@ < 5 j 7 4 4 f r r ",
"/ / / / ! / / ! / . 6 i.w.2.f.6               <   +.<X+X+X+X+X+XoXoXoXoXoXoX+X$X+X+X+X+X#X#XoXoX+XoX+XE.).k.@ < 5 j 7 k k 4 - 3 ",
"/ / ! / / / ! ! / . h t.1.2.1.6               -   q.3X%X%X%X%XoX+XoXoXoX+XoX%X%X%X%X%X%X%X%X+XoXoXoXoX~.).k.@ - 5 j i i k 4 - < ",
"| } | | / / ! ! | . 6 t.1.2.2.6               < # k A C Z n a.%XoXoXoX+XoX%Xd.z C C +.B B C XX%XoXoX+XE.).k.@ < 1 1 1 i j 4 < < ",
"} } | | / ! ! ! | . 6 t.1.2.2.6               < < - o @ @   m ,XoXoXoXoXXX,X+.  @ @ @ @ X @ T.%XoXoX+XE.).k.@ < < - < h k 5 - < ",
"/ / / / / } / ! / . 7 t.1.2.y.6               < # i Z B m l s.-XoX+XoXoX+X%Xd.l B B B B m B XX#XoXoXOXE.).k.@ < < < < 7 7 4 < < ",
"/ ! / / / / / / / . 7 t.1.2.2.6               <   q.1X%X%X-X$XoXoXoXoXoX+X+X#X%X%X%X%X%X%X%X+XOXoXoX+X~.).l.@ < < < < < < < < < ",
"I I I I I I I I I . 6 1.1.2.1.6               <   0.<X+X:X1X>XoXoXoXoXoXoXXX:X3X,X+X+X+X+X+X+X+XoXoXOXE._.j.  X # 1 < X   # 1 < ",
"I I I I I I I I I O h t.1.2.2.6               <   +.1X+X+.7 q.-XoXoX+XoX+X>Xa.6 B XX%XXX+X+XXX+XoXoXOX~.W.C.<.h.l . 5 h.b.n o < ",
"..../ / / / / / / . h u.y.f.1.6               <   +.1X#X<   l ,XoX+XoXoX+X<Xm   @ XX%XoXoXoX+XoXoXoX+XE.P.R.W.!.N   j _.;X,.  3 ",
"..../ / / / / / / . 6 s.r.f.2.6               <   B 3X+X7   B >XoXoXoXoXoX,XZ   4 XX%XoXoXoXoXoXoXoXOX~.E.R.D.W.M   j E.`.A   < ",
"| | | | } } | | } . 7 s.r.2.f.6                   z >XoX+XoXoX+XoXoXoXoXoXoX+X+X+XoX+X+XoXoXoXoXoXoXoXoX#X(.D.W.M   7 Q.`.A X < ",
"| | | | } } | / }   7 u.y.w.g.6                   +.oXoX%X%X+XoXoXoXoXoXoXoX#X%X%XoX+X$X:X*X+X+XoXoXoXoX$X^.A.H.l   < Q.`.A X < ",
"/ / ..../ / / / / . 6 u.y.2.2.6                   C oXoX+X+X+X+XoX+XoXoX+X+XoXoXoXoX$X/.B.V.oX+XoX+XoXoXOXoXE.).j.N <.Q._.A X 3 ",
"/ / ..../ / / / / O h i.y.2.2.6                   C oXoX+XXX+X$X#X#X#X#X+X+X+X$X+X+X:XV.>.5.(.$XoXoXoXoXoXoX$X&X).H.W.Q.`.,.  - ",
"I I I I I I I I I O 6 t.y.2.2.7                   C oX+XoXoX+XXXoX(.oXoXXX+X+XXXoXXX%XL.6.8.(.$XoXoXoX+XoXoXoX#XR.D.S.I.!.A X 3 ",
"I I I I I I I I I . 7 s.y.2.2.6                   C oXoX+X$XU.7.8.8.8.8.8.8.8.8.8.8.7.V.$XXXoXoXoXoXoXoXoXoXoX#XI.H.M.1 5 < < < ",
"/ / / | / / / / / . 7 s.i.2.g.6                   C oXoXoX:XP.4.5.5.5.5.5.5.5.5.5.5.>.V.,X+XoXoXoXoXoXoXoXoXoX#XR.G.M.@ o - < < ",
"! / } } / / / / ! . 6 u.y.2.g.6                   C oXoXoX$X/.B.V.V.V.B.V.B.V.V.B.B.B.U.$X+XoXoXoXOXoXoXoXoXoX#XI.H.M.; - 3 e y ",
"} } } } } } | | | . 6 u.y.2.2.6                   C oXoXoXoX#X:X%X:X*X:X$X:X%X*X:X:X:X$XoXoX+XoXoXoXoXoXoXoXoX#XR.G.M.; - f E [ ",
"} } } } } | | | / . 6 u.y.2.2.6                   C oXoXoXoXoXoXoXoXoXoXoXoXoXoXoXoXoXoXOXOXoXoXoXoXoXoXoXoXoX#XI.H.M.o - f Y E ",
"/ / } } / / / / / . 6 i.y.2.1.6                   C oXoXR.S.E.#XoXoXoXoXoXoXoXoXoXoX$X/.S.R.oXOXoXoXoXoXoXoXoX#XR.G.N.f f Y Y Y ",
"/ / } } / ! / / / . 6 s.y.2.2.6                   C OXoXD.Z.F.*X#X#X#X#X#X#X#X#X#X#X:XE.v.A.(.OXoXoXOXoXoXoXoX#XR.D.S.Y Y Y T T ",
"I I I I I I I I I . 6 s.r.f.g.6                   C oXoXR.F.E.(.(.^.^.^.(.(.(.(.(.^.(.E.F.R.oXOXoXoXoXoXoXoXoX#XR.D.N.I I I I I ",
"I I I I I I I I I . 6 u.r.f.g.6                   C oXoX+X*X(.A.D.D.D.D.D.D.D.D.D.D.A.E.:X#XoXoXoXoXoXoXoXoXoXOXR.D.N.I I I I I ",
"/ / } } / / } } / . 7 u.y.2.2.6                   C oXoXoX$X^.A.D.D.S.D.D.S.D.D.D.D.Z.E.$X+XoX+XoXoXoXoXoXoXOX$XU.D.B.E Y T P P ",
"/ / } } / / } } / . 6 u.y.2.1.6                   Z oXoXoXOXXX^.(.^.^.^.^.^.^.^.^.^.^.XXoX+XoXoXoXoXoXoXoXoX^.(.I.D.N.E T R P P ",
"| | / / ....} } | . h t.y.2.2.6                   C OXoXoXoX+X$X$XOX$XOX$X#X$X&X$X$X$X$XoXoX+X+XoXoXoXoX+X(.E.^.F.D.N.Q R U P P ",
"| | / /  ...} } } O 6 t.y.2.2.6                   n /.J.XXoXXXoXoXoXoXoXoXoXoX(.oXXXoXXXXX+XXXoXoXoXoX+X+XoXE.E.C.N.b.E R ) P P ",
"/ / | } / / / / / . 6 s.i.f.y.6                         K.E.~.E.~.E.~.E.~.E.E.^.~.U.~.Q.~.~.~.~.^.OX+X+X#X(.D.F.$.Y T E E U P P ",
"/ / } } } / / } / . 6 s.y.2.g.6                         N.E.~./.~.W.Y.R./.^.^.^.^.~.^.^.~.^.Y.G.).<X>X>X<X@XD.S.$.Y E E R R P P ",
"I I I I I I I I I . 6 u.y.2.2.6                         z V M V z m.=X&XF.F.F.P.I.F.I.I.I.P..X2X{.@.@.&.@.p.#.&.[ I I I I I I I ",
"I I I I I I I I I . 6 u.y.2.2.6                                 X |.tX7XZ.Z.D.G.G.A.Z.A.Z.A.0XiX'.$ 8 8 8 q I I I I I I I I I I ",
"/ / / / / / ! ! / O h i.w.2.2.7                                   ].6X|.S.P.C.C.S.P.P.P.S.I. X0X'.9 d d d g Y Y E R R U _ ( / / ",
"/ / / / ! / ! ! / . 6 t.w.2.2.6                             : { F s 0 X.9XeXn.b *.8X8X7X9X4XJ w g J J J J L L J ' R ) ~ ( ( / | ",
"} } |  ./ / ! ! | . 6 s.w.2.f.6                             : J L p $ ] 9XeXc.v %.5X6X5X0X5Xd $ d L J L { L J J ` R _ _ ( |  . .",
"} } | | / / ! ! | . 6 s.w.w.y.6                             = J L H w =.rXrX[.b %.qXwX9X8X8X{ a H K J H g H K K ' ' Q ( | |  . .",
"/ / / / / / / / / . 6 u.y.2.2.6                             : J J L D -.pXsX[.v %.yXpXwX8X7Xo.H K K K d w g ] J J J ] ^ _ ^ ! ! ",
"/ / / / / / / ! / . 7 u.y.2.2.6                             = L J J D -.yXaX[.v *.wXuXqX8X4Xo.F J J J d w g ] J J J J ~ ~ ^ ! ! ",
"I I I I I I P I I . 6 i.y.f.g.6                         w t d K J J s -.uXaX[.v *.rXuXqX5X4Xo.F K J K d p g J ] J J G I I I I I ",
"I I I I I I I I I O 6 t.y.2.g.6                         t p D L J J s -.uXaX[.v *.rXuXqX8X4Xo.D J J J d p g ] J J J ] I I I I I ",
" . ./ / / / / / / . 6 i.w.2.f.6                         t a D L J J s -.uXaX[.v *.rXuXqX8X5Xo.F J J K d p d L J J J K R R W S P ",
" . ./ / / / / / / . 6 s.r.w.2.6                         w p d L J J s -.uXaX[.v *.rXuXqX8X5Xo.F K J K d p d J J J J G T R W P P ",
"| | | | / | } } | . 6 s.y.2.1.6                         q w D L J ] s -.uXaX[.v *.rXuXqX8X4Xo.F J K K d t d L L H G G R R _ P P ",
"| | | | | / | | | . 7 s.y.2.2.6                         d.V.a.G J J d -.uXaX[.v *.rXuXqX7X5Xo.F J J K H J H s w z.XXm.R ) _ P P ",
"/ / ..../ / / / / . 6 u.y.2.y.6                         C.`.N.S J J s -.sXsX}.b &.aXsXuXeXwXo.D J K J K { H t 8 m.1XXXT E R P P ",
"/ /  . ./ / / / / O 6 t.w.f.2.6                         e.N.d.S J J F =.|.4X:.i O.|. X}.}.}.{ H J J J J { H d q m.T.n.T R R P P ",
"P I I I I I I I I . 6 i.y.2.2.6                             , G J J { F % % : 9 9 $ * * % % J L K K J J K K K F Q I I I I I I I ",
"I I I I I I I I I . 7 s.y.2.2.6                             * J J L X.J 9 9 9 0 0 0 0 0 0 0 L { { L { { { { K J I I I I I I I I ",
"! / } } / / / / / . 6 s.i.f.g.6                             X : : w p t 0 0 9 > 9 : 9 9 : : w w t p p p t d ` ` ` E E Q R W ~ ! ",
"/ / } } / / / / / . 7 u.w.f.f.6                                   & : > 0 0 : = & : & : : : % o & 0 , > > 4 Y Y E E R Q ) ~ ~ ! ",
"} } } } / | | | | . 6 u.y.2.y.6                                   : 0 0 0 0 9 : : , 9 < 9 9 : : 9 0 0 0 0 y Y Y E Q ) _ ~ ( } | ",
"} } } } } } | | / O 6 i.y.2.2.6                                   : 0 0 0 9 9 * , x x x x c 0 0 0 0 0 0 0 p Y Y Q Q _ ( ( ( } | ",
"/ / | / / / / / / . h i.y.2.g.6                                   : w 0 w w 9 : 9 x x x c c y 0 0 0 0 0 0 p Y T R U U ~ ^ ! / / ",
"/ / } | / / / / / . 6 s.y.2.f.6                                   = > > = = = & = x x x x k > > > > , , ; y T T R U U ~ ^ ! / / ",
"I I I I I I I I I O u s.y.2.2.6 X X X     X X   X     X   X   X   = = # o o o o @ h h h j h - = = = = = # y I I I I I I I I I I ",
"I I I I I I I I I + u a.s.y.i.7 X   X   X X   X X X X   X X X   X o = = o o o o @ 2 2 2 2 2 ; = ; ; ; ; # y I I I I I I I I I I "
};
