/* XPM */
static char *result[] = {
/* columns rows colors chars-per-pixel */
"64 64 22 1 ",
"  c #A9A9A9",
". c #AFAFAF",
"X c #BABABB",
"o c #BCBCBD",
"O c #BDBDBE",
"+ c #BFBFC0",
"@ c #C0C0C1",
"# c #C1C1C1",
"$ c #C1C1C2",
"% c #C2C2C3",
"& c #C3C3C4",
"* c #C4C4C6",
"= c #C5C5C6",
"- c #C5C5C7",
"; c #C6C6C7",
": c #C7C7C8",
"> c #C8C8C9",
", c #C9C9CB",
"< c #CACACB",
"1 c #CBCBCC",
"2 c #CDCDCF",
"3 c #CECECF",
/* pixels */
"$$**##==$$$$++++++oo++++====oo  $$**##==$$$$++++++oo++++====oo  ",
"$$**##==$$$$++++++oo++++====oo  $$**##==$$$$++++++oo++++====oo  ",
">>$$22========oooooooo==;;22>>  >>$$22========oooooooo==;;22>>  ",
">>$$22========oooooooo==;;22>>  >>$$22========oooooooo==;;22>>  ",
"$$==%%$$$$$$====oo$$$$$$;;::oo  $$==%%$$$$$$====oo$$$$$$;;::oo  ",
"$$==%%$$$$$$====oo$$$$$$;;::oo  $$==%%$$$$$$====oo$$$$$$;;::oo  ",
"................................................................",
"................................................................",
"$$++++oo++  $$$$$$$$$$$$==&&----$$++++oo++  $$$$$$$$$$$$==&&----",
"$$++++oo++  $$$$$$$$$$$$==&&----$$++++oo++  $$$$$$$$$$$$==&&----",
"==,,++oo>>  oo============112233==,,++oo>>  oo============112233",
"==,,++oo>>  oo============112233==,,++oo>>  oo============112233",
"++$$$$++$$  ======$$$$$$;;$$++OO++$$$$++$$  ======$$$$$$;;$$++OO",
"++$$$$++$$  ======$$$$$$;;$$++OO++$$$$++$$  ======$$$$$$;;$$++OO",
"................................................................",
"................................................................",
"33++$$$$$$==$$$$$$==&&----$$++  33++$$$$$$==$$$$$$==&&----$$++  ",
"33++$$$$$$==$$$$$$==&&----$$++  33++$$$$$$==$$$$$$==&&----$$++  ",
",,,,==========$$====11$$33==,,  ,,,,==========$$====11$$33==,,  ",
",,,,==========$$====11$$33==,,  ,,,,==========$$====11$$33==,,  ",
"++33$$$$$$;;$$$$$$;;$$++OO++$$  ++33$$$$$$;;$$$$$$;;$$++OO++$$  ",
"++33$$$$$$;;$$$$$$;;$$++OO++$$  ++33$$$$$$;;$$$$$$;;$$++OO++$$  ",
"................................................................",
"................................................................",
"++==$$++++  XX++++oo++++----$$++++==$$++++  XX++++oo++++----$$++",
"++==$$++++  XX++++oo++++----$$++++==$$++++  XX++++oo++++----$$++",
"======,,==  @@<<oooooooo2233==,,======,,==  @@<<oooooooo2233==,,",
"======,,==  @@<<oooooooo2233==,,======,,==  @@<<oooooooo2233==,,",
"$$==++$$$$  oo--&&++oo$$++OO++$$$$==++$$$$  oo--&&++oo$$++OO++$$",
"$$==++$$$$  oo--&&++oo$$++OO++$$$$==++$$$$  oo--&&++oo$$++OO++$$",
"................................................................",
"................................................................",
"$$**##==$$$$++++++oo++++====oo  $$**##==$$$$++++++oo++++====oo  ",
"$$**##==$$$$++++++oo++++====oo  $$**##==$$$$++++++oo++++====oo  ",
">>$$22========oooooooo==;;22>>  >>$$22========oooooooo==;;22>>  ",
">>$$22========oooooooo==;;22>>  >>$$22========oooooooo==;;22>>  ",
"$$==%%$$$$$$====oo$$$$$$;;::oo  $$==%%$$$$$$====oo$$$$$$;;::oo  ",
"$$==%%$$$$$$====oo$$$$$$;;::oo  $$==%%$$$$$$====oo$$$$$$;;::oo  ",
"................................................................",
"................................................................",
"$$++++oo++  $$$$$$$$$$$$==&&----$$++++oo++  $$$$$$$$$$$$==&&----",
"$$++++oo++  $$$$$$$$$$$$==&&----$$++++oo++  $$$$$$$$$$$$==&&----",
"==,,++oo>>  oo============112233==,,++oo>>  oo============112233",
"==,,++oo>>  oo============112233==,,++oo>>  oo============112233",
"++$$$$++$$  ======$$$$$$;;$$++OO++$$$$++$$  ======$$$$$$;;$$++OO",
"++$$$$++$$  ======$$$$$$;;$$++OO++$$$$++$$  ======$$$$$$;;$$++OO",
"................................................................",
"................................................................",
"33++$$$$$$==$$$$$$==&&----$$++  33++$$$$$$==$$$$$$==&&----$$++  ",
"33++$$$$$$==$$$$$$==&&----$$++  33++$$$$$$==$$$$$$==&&----$$++  ",
",,,,==========$$====11$$33==,,  ,,,,==========$$====11$$33==,,  ",
",,,,==========$$====11$$33==,,  ,,,,==========$$====11$$33==,,  ",
"++33$$$$$$;;$$$$$$;;$$++OO++$$  ++33$$$$$$;;$$$$$$;;$$++OO++$$  ",
"++33$$$$$$;;$$$$$$;;$$++OO++$$  ++33$$$$$$;;$$$$$$;;$$++OO++$$  ",
"................................................................",
"................................................................",
"++==$$++++  XX++++oo++++----$$++++==$$++++  XX++++oo++++----$$++",
"++==$$++++  XX++++oo++++----$$++++==$$++++  XX++++oo++++----$$++",
"======,,==  @@<<oooooooo2233==,,======,,==  @@<<oooooooo2233==,,",
"======,,==  @@<<oooooooo2233==,,======,,==  @@<<oooooooo2233==,,",
"$$==++$$$$  oo--&&++oo$$++OO++$$$$==++$$$$  oo--&&++oo$$++OO++$$",
"$$==++$$$$  oo--&&++oo$$++OO++$$$$==++$$$$  oo--&&++oo$$++OO++$$",
"................................................................",
"................................................................"
};
