/* XPM */
static char *e036b70fa1524382af25f447216a83b0592VmMe8l1jSiLYx[] = {
/* columns rows colors chars-per-pixel */
"64 64 22 1 ",
"  c #A9A9A9",
". c #AFAFAF",
"X c #BABABB",
"o c #BCBCBD",
"O c #BDBDBE",
"+ c #BFBFC0",
"@ c #C0C0C1",
"# c #C1C1C1",
"$ c #C1C1C2",
"% c #C2C2C3",
"& c #C3C3C4",
"* c #C4C4C6",
"= c #C5C5C6",
"- c #C5C5C7",
"; c #C6C6C7",
": c #C7C7C8",
"> c #C8C8C9",
", c #C9C9CB",
"< c #CACACB",
"1 c #CBCBCC",
"2 c #CDCDCF",
"3 c #CECECF",
/* pixels */
"$$**$$**$$$$++++++oo++++****oo  $$**$$**$$$$++++++oo++++****oo  ",
"$$**$$**$$$$++++++oo++++****oo  $$**$$**$$$$++++++oo++++****oo  ",
">>$$22********oooooooo****22>>  >>$$22********oooooooo****22>>  ",
">>$$22********oooooooo****22>>  >>$$22********oooooooo****22>>  ",
"$$**$$$$$$$$****oo$$$$$$**::oo  $$**$$$$$$$$****oo$$$$$$**::oo  ",
"$$**$$$$$$$$****oo$$$$$$**::oo  $$**$$$$$$$$****oo$$$$$$**::oo  ",
"................................................................",
"................................................................",
"$$++++oo++  $$$$$$$$$$$$**&&****$$++++oo++  $$$$$$$$$$$$**&&****",
"$$++++oo++  $$$$$$$$$$$$**&&****$$++++oo++  $$$$$$$$$$$$**&&****",
"**>>++oo>>  oo************112222**>>++oo>>  oo************112222",
"**>>++oo>>  oo************112222**>>++oo>>  oo************112222",
"++$$$$++$$  ******$$$$$$**$$++oo++$$$$++$$  ******$$$$$$**$$++oo",
"++$$$$++$$  ******$$$$$$**$$++oo++$$$$++$$  ******$$$$$$**$$++oo",
"................................................................",
"................................................................",
"22++$$$$$$**$$$$$$**&&****$$++  22++$$$$$$**$$$$$$**&&****$$++  ",
"22++$$$$$$**$$$$$$**&&****$$++  22++$$$$$$**$$$$$$**&&****$$++  ",
">>>>**********$$****11$$22**>>  >>>>**********$$****11$$22**>>  ",
">>>>**********$$****11$$22**>>  >>>>**********$$****11$$22**>>  ",
"++22$$$$$$**$$$$$$**$$++oo++$$  ++22$$$$$$**$$$$$$**$$++oo++$$  ",
"++22$$$$$$**$$$$$$**$$++oo++$$  ++22$$$$$$**$$$$$$**$$++oo++$$  ",
"................................................................",
"................................................................",
"++**$$++++  XX++++oo++++****$$++++**$$++++  XX++++oo++++****$$++",
"++**$$++++  XX++++oo++++****$$++++**$$++++  XX++++oo++++****$$++",
"******>>**  $$>>oooooooo2222**>>******>>**  $$>>oooooooo2222**>>",
"******>>**  $$>>oooooooo2222**>>******>>**  $$>>oooooooo2222**>>",
"$$**++$$$$  oo**&&++oo$$++oo++$$$$**++$$$$  oo**&&++oo$$++oo++$$",
"$$**++$$$$  oo**&&++oo$$++oo++$$$$**++$$$$  oo**&&++oo$$++oo++$$",
"................................................................",
"................................................................",
"$$**$$**$$$$++++++oo++++****oo  $$**$$**$$$$++++++oo++++****oo  ",
"$$**$$**$$$$++++++oo++++****oo  $$**$$**$$$$++++++oo++++****oo  ",
">>$$22********oooooooo****22>>  >>$$22********oooooooo****22>>  ",
">>$$22********oooooooo****22>>  >>$$22********oooooooo****22>>  ",
"$$**$$$$$$$$****oo$$$$$$**>>oo  $$**$$$$$$$$****oo$$$$$$**>>oo  ",
"$$**$$$$$$$$****oo$$$$$$**>>oo  $$**$$$$$$$$****oo$$$$$$**>>oo  ",
"................................................................",
"................................................................",
"$$++++oo++  $$$$$$$$$$$$**&&****$$++++oo++  $$$$$$$$$$$$**&&****",
"$$++++oo++  $$$$$$$$$$$$**&&****$$++++oo++  $$$$$$$$$$$$**&&****",
"**>>++oo>>  oo************112222**>>++oo>>  oo************112222",
"**>>++oo>>  oo************112222**>>++oo>>  oo************112222",
"++$$$$++$$  ******$$$$$$**$$++oo++$$$$++$$  ******$$$$$$**$$++oo",
"++$$$$++$$  ******$$$$$$**$$++oo++$$$$++$$  ******$$$$$$**$$++oo",
"................................................................",
"................................................................",
"22++$$$$$$**$$$$$$**&&****$$++  22++$$$$$$**$$$$$$**&&****$$++  ",
"22++$$$$$$**$$$$$$**&&****$$++  22++$$$$$$**$$$$$$**&&****$$++  ",
">>>>**********$$****11$$22**>>  >>>>**********$$****11$$22**>>  ",
">>>>**********$$****11$$22**>>  >>>>**********$$****11$$22**>>  ",
"++22$$$$$$**$$$$$$**$$++oo++$$  ++22$$$$$$**$$$$$$**$$++oo++$$  ",
"++22$$$$$$**$$$$$$**$$++oo++$$  ++22$$$$$$**$$$$$$**$$++oo++$$  ",
"................................................................",
"................................................................",
"++**$$++++  XX++++oo++++****$$++++**$$++++  XX++++oo++++****$$++",
"++**$$++++  XX++++oo++++****$$++++**$$++++  XX++++oo++++****$$++",
"******>>**  $$>>oooooooo2222**>>******>>**  $$>>oooooooo2222**>>",
"******>>**  $$>>oooooooo2222**>>******>>**  $$>>oooooooo2222**>>",
"$$**++$$$$  oo**&&++oo$$++oo++$$$$**++$$$$  oo**&&++oo$$++oo++$$",
"$$**++$$$$  oo**&&++oo$$++oo++$$$$**++$$$$  oo**&&++oo$$++oo++$$",
"................................................................",
"................................................................"
};
