/* XPM */
static char *result[] = {
/* columns rows colors chars-per-pixel */
"64 64 102 2 ",
"   c #030004",
".  c #0C0000",
"X  c #0C090D",
"o  c #100100",
"O  c #160806",
"+  c #150D0C",
"@  c #26130F",
"#  c #28130E",
"$  c #271510",
"%  c #37261F",
"&  c #3B261D",
"*  c #342721",
"=  c #3A2620",
"-  c #442C1E",
";  c #542F1D",
":  c #593B29",
">  c #643827",
",  c #683C24",
"<  c #6B3B2E",
"1  c #6B3C32",
"2  c #4C4038",
"3  c #6E412C",
"4  c #74442F",
"5  c #7A472E",
"6  c #65493B",
"7  c #754532",
"8  c #7D4B35",
"9  c #744439",
"0  c #7C4739",
"q  c #7D4C39",
"w  c #7E5038",
"e  c #755545",
"r  c #665F61",
"t  c #676364",
"y  c #6B6566",
"u  c #6C6768",
"i  c #6D696A",
"p  c #814E35",
"a  c #814F39",
"s  c #845136",
"d  c #83513B",
"f  c #945F3A",
"g  c #94613B",
"h  c #9B653C",
"j  c #9F6C3E",
"k  c #9D703F",
"l  c #A36D3F",
"z  c #A86F3E",
"x  c #805844",
"c  c #966341",
"v  c #996542",
"b  c #9D6B43",
"n  c #9C6F4B",
"m  c #967345",
"M  c #9A7144",
"N  c #96734E",
"B  c #9B714C",
"V  c #8D6D5E",
"C  c #946F50",
"Z  c #957152",
"A  c #9A7353",
"S  c #917359",
"D  c #A36D42",
"F  c #A86F40",
"G  c #A47043",
"H  c #A4744B",
"J  c #A8764C",
"K  c #A67451",
"L  c #826364",
"P  c #8D6C65",
"I  c #846E6B",
"U  c #947965",
"Y  c #8C877F",
"T  c #938376",
"R  c #9F8877",
"E  c #9D897B",
"W  c #A5876E",
"Q  c #A8886E",
"!  c #A28773",
"~  c #A28874",
"^  c #AB8B72",
"/  c #958B85",
"(  c #959187",
")  c #9B9285",
"_  c #969189",
"`  c #9B938C",
"'  c #949490",
"]  c #959997",
"[  c #9C9A95",
"{  c #939A9B",
"}  c #9A9B9F",
"|  c #989CA1",
" . c #97A2A7",
".. c #9BA8A9",
"X. c #97ABBC",
"o. c #AEAEAE",
"O. c #BCBCBD",
"+. c #8BADC4",
"@. c #BFBFC0",
"#. c #C3C3C4",
"$. c #C7C7C8",
"%. c #CBCBCD",
/* pixels */
"#.#.#.#.#.#.#.#.#.X                                                                                       i @.@.#.$.$.$.@.O.o.o.",
"#.@.#.#.#.$.#.#.#.. + * = % % % % = % % % & % % % & % = % % % & & % % % & & % % % % & % % % & = % & % * X y @.@.$.#.$.$.O.O.o. .",
"$.$.#.#.%.%.$.#.#.. & S Z n B H H n n H n n n H n n n n n H H n n B H n H n n n n H H n n n n B n n Z Z # u #.#.$.$.%.%.$.$.o.} ",
"%.$.@.@.%.%.#.#.$.. & A G z z z F F D G z z F z z z z z F z D G z D z z z z z z z z D G z z F F F D H Z # u #.#.#.$.%.%.$.@.o.o.",
"#.@.$.#.#.#.#.@.#.. & N n l l b b D b D M D b D D D D b H b D G b D D D b D n D D D n D M j j j D D n C $ u #.#.$.$.$.$.O.O.o.o.",
"@.#.$.$.#.#.#.#.@.. & Z n D k s 7 7 7 7 7 7 7 7 7 7 7 7 7 7 7 7 7 7 7 7 7 7 7 7 7 7 7 7 7 4 w h D D n C $ u #.#.$.$.$.$.O.O.} o.",
"o.o.o.o.o.o.o.o.o.. & N b l l 8 9 9 q q q a 8 0 q q q 8 0 q q 8 q q q q 8 q 0 q 0 q 8 q 8 9 q h D D n Z @ t o.o.o.o.o.o.o.o.o.o.",
"o.o.o.o.o.o.o.o.o.  & N b D j s q c D D D D D l D D D D D D D D D G D D D D D D D D D D b w 7 h z l n C @ r o.o.o.o.o.o.o.o.o.o.",
"@.#.@.@.O.#.O.O.@.. & n D l j s 8 g l l l l l l l l l D l l l l l l l l l l l l D l l l l s 4 j l l n Z # u #.#.$.$.#.#.#.#.$.$.",
"#.#.@.@.@.O.O.O.@.. - m b l j s a g l l l l l l l l l l l l l l l l l l l l l l l l l l M x e b l l n Z # y @.#.$.#.#.#.#.$.$.#.",
"#.#.$.%.@.@.O.O.$.. & m b l l a q g l D l l l l l l l l l l l l z l l l l l l l l z l l N ) [ K l k n N # u $.#.#.$.%.%.%.%.%.%.",
"#.#.%.$.@.@.O.O.$.o & m k D D a q f l l l z l l l l l l l l l l l l l l l l l l l z k b S ( { H z l n Z # u #.#.$.#.%.%.%.%.%.%.",
"#.@.#.#.#.#.O.O.#.. & m k l l s w g D l l l k l l l l l l l l l l l l l l l l l l l l b A _ ] J j j m Z # u #.@.$.$.@.#.$.@.@.@.",
"@.@.@.@.#.#.#.O.@.  & m k l D a q g D l l D z l l l l l l l l l l l l l l l l l l l l G S _ ] H l l n Z # y @.#.$.$.#.$.#.@.@.O.",
"o.o.o.o.o.o.o.o.o.. - b l D D p 8 c D l l l l l l l l l l l l l l l l D l l l l l l l b N `  .H l D n N # t o.o.o.o.o.o.o.o.o.o.",
"o.o.o.o.o.o.o.o.o.o & m j l D p 8 f j l l l l l l l l l l l l D l l l l l l l l l l l j N ` } H l D n C # y o.o.o.o.o.o.o.o.o.o.",
"%.%.@.@.#.@.#.@.#.. & m k z D a a f l l l l l l l l l l l l l l l l l l l l l l l l l l D 6 2 v D D m C $ y #.$.#.$.@.#.@.@.o.o.",
"%.%.@.@.#.@.@.#.#.. & m k D D a q f l l l l l l l l l l l l l l l l l l l l l l l l l D b , ; h G j n Z $ u #.$.$.$.#.@.@.@.o...",
"%.%.%.%.$.#.#.#.#.. & m k l D a q g D l l l l l l l D l l l l l l l l D l l l l l l z l v d 0 c D D n S # u @.#.%.%.$.$.$.#.} o.",
"%.%.%.%.#.$.#.$.#.. & m k l D a q g l l l l l l l l z l l l l l l l l l l l l l l l D D b a a h D D n C # u #.#.%.%.$.$.%.#.o.o.",
"#.#.%.%.#.@.#.@.#.. & b l l D a 8 c b l l l l l l l l l l l l l l l l l l l l l l l l l D a 0 f z l n N # u @.@.O.@.@.@.@.#.o.o.",
"#.$.%.%.#.#.@.#.#.o & m j l F a 8 g l l l l l l l l l l l l l l l l l l l l l l l l l l v a 0 h z l n Z # u @.@.O.@.@.@.#.@.o.} ",
"o.o.o.o.o.o.o.o.o.o & m k D D a 8 g j l l l l l l l l l l l l l l l l l l l l l l D l l v a 0 h l l b C # t o.o.o.o.o.o.o.o.o.o.",
"o.o.o.o.o.o.o.o.o.. & m k z D s q g l D l l l l l l l l l l l l l l l l l l l l l l l l D a 0 h z l n C # t o.o.o.o.o.o.o.o.o.o.",
"#.@.#.#.#.@.O.@.@.. & m k D D q q g l l l l l l l l l l l l D l l l l l l l l l z l l l v a 0 c l l n A $ y @.@.$.$.%.#.#.#.@.@.",
"O.@.#.$.#.#.@.@.@.. & m k l D s q g j l l l l l l l l l l l l l l l l l l l l l l l l l D a 0 h l D n C @ r @.@.$.$.%.%.#.@.@.@.",
"$.#.$.#.#.$.%.$.#.. & m l l D a 8 c D l l l D l l l l l l l l l l l D l l l l l l l l l h a 0 h z l n C @ y O.O.%.%.%.%.#.#.$.%.",
"#.$.#.$.$.#.$.$.#.o & M l D z p 8 g b l l l l l l l l l l l l l l l z l l l l l l l l l b a q h l l n C @ y @.@.%.%.%.%.$.#.%.$.",
"#.#.#.$.#.O.#.#.#.o & m k z D a 8 g l l l l l l l l l l l l l l l l l l l l l l l l l l b a q v z D n C @ y #.@.@.@.@.@.@.@.#.#.",
"@.#.$.$.@.@.#.#.#.. & m j D D a q g l l b l l l l l l l l l l l l l l l l l l D l l l l b w 9 h l l n C $ u @.#.@.@.O.#.@.@.#.@.",
"o.o.o.o.o.o.o.o.o.. & m k D D a 7 v D l j l D l l D l l l l l l l l l l l l l l l l l l j a 0 h D D n C @ r o.o.o.o.o.o.o.o.o.o.",
"o.o.o.o.o.o.o.o.o.. & m k l D 8 7 D H N N M z j l l l l l l l l l l l l l l l l l l l l b q 0 h F D n C @ y o.o.o.o.o.o.o.o.o.o.",
"#.#.#.#.@.#.#.$.#.. & m l D D 8 7 c T o...) l l l l l l l l l l l l l l l l l l l l l l j q 0 v z D n Z # u @.@.#.#.$.#.O.O.o.o.",
"#.#.#.#.@.#.$.#.@.. & b j z D p 8 v / +.+._ h l l l l l l l l l l l l D l l l l l l l l D q 1 D z l n Z $ y @.@.#.$.$.%.O.O.o.o.",
"#.$.#.#.%.%.#.$.#.. - m j D F p p f E X.X.` l l l l l l l l l l l l l l l l l l l l l l l q < G l l n N # y #.#.$.#.%.%.$.$.} o.",
"$.$.#.#.%.%.#.#.#.. & m k l D a p c A U U A l l l l l l l l l l l l l l l l l l l D l l l q < D l l n C # u $.#.$.$.%.%.$.#.} o.",
"#.@.#.#.#.#.#.@.#.. & m k D D a 8 h l l z l l l D l l l D l l l l l l l l l l l l l l l D 0 < H l l n Z # y #.@.$.$.$.%.O.O.o.o.",
"#.#.$.#.#.#.#.#.#.. & m k z D a 0 f l l z l l l l l l l z z l l l l l l l l l l l l l l l a < D z l n n # y #.#.#.$.$.%.O.O.} o.",
"o.o.o.o.o.o.o.o.o.. & m j D D a 0 g l l D z l l l l l l l k l l l l l l l l l l l l l l l 0 < D l l b Z # t o.o.o.o.o.o.o.o.o.o.",
"o.o.o.o.o.o.o.o.o.. & M l l D p 8 g j l l D l l l l l l l l l l l l D l l l l l l l l l z 0 1 D l l m Z $ t o.o.o.o.o.o.o.o.o.o.",
"#.#.@.@.@.@.O.O.@.o - b j D D a 8 g D l l l l l l l l l l l l l l l l l l l l l l l l l l q < H z D n Z @ u @.#.$.$.#.#.#.$.#.#.",
"#.#.@.@.@.@.O.O.@.o & m k l D s a g l l l l l l l l l l l D l l l l l l l l l l l l l l z q < D l D n Z @ y #.@.$.#.#.#.$.#.#.$.",
"#.#.%.%.@.@.O.O.$.. & m k D D q q f l l l l l l l l l l l l l l l l l l l l z k l l l l l 0 < D l D N C @ u #.$.#.$.%.%.%.%.%.%.",
"#.$.%.$.@.O.O.O.$.. & m k l D s q g l l l l l l l l l l l l l l l l l l l D z l l l l l D 0 < H l D N Z @ u $.#.$.#.%.%.%.%.%.%.",
"@.@.#.#.#.#.O.O.#.. % m j D D a q f j l l l l l l l l l l l l l l l l l l l l l l l l l l q < D l l n C # y @.#.$.$.#.#.%.@.O.O.",
"@.O.#.$.#.@.@.@.#.. & m j z F a 8 c D D l l l l l l l l l l l l l l l l l l l l l l l l l q < H z l n C # y #.@.$.$.@.$.#.#.O.@.",
"o.o.o.o.o.o.o.o.o.o - M k D G p 8 g D l l l l l l l l l l D l l l D l l l l l l D l l l l q < D l l n C # y o.o.o.o.o.o.o.o.o.o.",
"o.o.o.o.o.o.o.o.o.. & m k l D q 8 f j l l l l l l l l l l l l l l l l l l l l l l l l l l q < D l z n Z # y o.o.o.o.o.o.o.o.o.o.",
"%.%.$.#.#.#.@.#.O.. - m j l D 8 q g l l l l l l l l l l l l l l l l l l l l l l l l l l l q < H l l b N # u #.$.#.$.#.@.@.@.o.o.",
"%.%.O.#.#.#.#.@.#.. & m k l D s q g l l l l l l l l l l l l l l l l l l l l l l l l l l l q < G l l n Z # u $.#.$.#.@.#.@.@. .o.",
"%.$.$.%.$.#.$.#.#.. % m k D D d q g j l l l l l l l l l l l l l l l l l l l D l l l l l l q < D l z n N # i #.@.%.%.%.$.$.$.o.o.",
"%.%.%.$.#.$.#.#.#.. % m k D D q q g l l l l l l l l l l l l l l l l l l l l l l l l l l D 8 1 D l l n Z $ i @.#.%.%.$.$.$.$.o.} ",
"@.@.%.%.$.#.#.#.#.. & M l z D p 8 c D l l l l l l l l l l l l l l l l l l l l l l l D l M V I G l l C Z # y @.@.O.@.@.@.@.#.o.o.",
"@.@.%.%.#.#.#.#.@.o - m k D D p 8 g j l l l l l l l l l l l l l l l D l l l l l l l l b N ` ..H l l n Z # u @.@.O.@.@.#.#.@.} o.",
"o.o.o.o.o.o.o.o.o.. & m j z F a 8 g l l D l l l l l l l l l D l l z l l l l l l l l l D A (  .M l l n Z @ t o.o.o.o.o.o.o.o.o.o.",
"o.o.o.o.o.o.o.o.o.. & m k D D a q f l l l l l l l l l l l l l l l l l l l l l l l l l j A ( { H D D n C @ t o.o.o.o.o.o.o.o.o.o.",
"@.@.$.#.#.@.@.@.@.. & m j l D w q g l l l l l l l l l l l l l l l l l l l l l l l l l D A _ { J D D n C # y @.@.$.$.$.$.#.@.@.@.",
"@.#.#.$.@.#.@.@.@.. & m k D D q q g D l l l l l l l l l l l l l l l l l l l l D l l l b A _ ] J D D n C @ y @.@.#.$.%.%.@.#.@.@.",
"#.#.$.#.#.#.$.%.#.. & m j l z a 8 c b D l l l l l l l l l l l l l l l l l l l l l l l D A T / H D D n C @ y O.O.%.%.%.%.#.$.%.$.",
"#.$.#.$.#.$.%.$.#.o - m j l l s 0 f D D l l l l l l l l l l l D l l l l l l l l l l l D b : & g z l n C # y O.O.%.%.%.%.$.#.%.%.",
"#.#.#.#.@.@.#.@.#.o & N M D l a a f D D D D l z l D D z D l l D l D l l l D l D D D z j B 3 > h l l n C # y #.#.@.@.@.@.@.@.@.@.",
"#.@.$.#.#.#.@.#.@.. & C m F D a 0 c D D D D D F D M D D G b D G D G b G D D b D D D D H n q 9 b D l n C # y #.@.@.@.@.#.@.@.@.#.",
"o.o.o.o.o.o.o.o.o.o - C v l D a 1 1 < < < < < < < < 1 < < < < < 1 < < < < < 1 < < < < < 1 1 3 c j l b Z # y o.o.o.o.o.o.o.o.o.o.",
"o.o.o.o.o.o.o.o.o.O = ~ ! W ^ P L L L L L L L L i L L L L L L L L L L L L L L L L L L L L L V W Q W ! S $ i o.o.o.o.o.o.o.o.o.o."
};
