/* XPM */
static char *result[] = {
/* columns rows colors chars-per-pixel */
"64 64 247 2 ",
"   c #370706",
".  c #343513",
"X  c #4A0405",
"o  c #590407",
"O  c #580814",
"+  c #4F1417",
"@  c #670307",
"#  c #750407",
"$  c #6B0B12",
"%  c #750B16",
"&  c #6C1514",
"*  c #761518",
"=  c #7C141B",
"-  c #652622",
";  c #73342E",
":  c #3C4812",
">  c #394A26",
",  c #576917",
"<  c #4E532B",
"1  c #784935",
"2  c #5A6F2B",
"3  c #63762A",
"4  c #687736",
"5  c #6B723D",
"6  c #6A5045",
"7  c #706D4F",
"8  c #7C6B6B",
"9  c #860712",
"0  c #87181D",
"q  c #971A1D",
"w  c #A4161D",
"e  c #950C29",
"r  c #891A23",
"t  c #941D23",
"y  c #971B27",
"u  c #9C1C23",
"i  c #A21D24",
"p  c #AD1C23",
"a  c #A71B2A",
"s  c #B21D28",
"d  c #B00D36",
"f  c #992225",
"g  c #8E3030",
"h  c #A92127",
"j  c #B22228",
"k  c #A62638",
"l  c #B52C38",
"z  c #BD323F",
"x  c #C60033",
"c  c #975F3A",
"v  c #C05D3F",
"b  c #AE0B42",
"n  c #BA2C4A",
"m  c #B93447",
"M  c #BA3C54",
"N  c #C80246",
"B  c #D30D4F",
"V  c #EA0F5B",
"C  c #C92752",
"Z  c #D52857",
"A  c #CE3650",
"S  c #D63359",
"D  c #E7235F",
"F  c #F30B6D",
"G  c #DB3865",
"H  c #925E4E",
"J  c #B34F4D",
"K  c #916C57",
"L  c #B77050",
"P  c #8A7672",
"I  c #C44958",
"U  c #D14953",
"Y  c #C87053",
"T  c #C64B63",
"R  c #D9536D",
"E  c #E94E74",
"W  c #D56E69",
"Q  c #E66B73",
"!  c #658310",
"~  c #698227",
"^  c #74912A",
"/  c #6B8537",
"(  c #758939",
")  c #7A9635",
"_  c #7C943B",
"`  c #7CA834",
"'  c #5C8E47",
"]  c #788A44",
"[  c #6E9449",
"{  c #7D9442",
"}  c #7B9A46",
"|  c #68AC48",
" . c #7CAA46",
".. c #6ABD4E",
"X. c #7DAD57",
"o. c #6DBE52",
"O. c #74BD5C",
"+. c #78B85A",
"@. c #7FA668",
"#. c #7BBA66",
"$. c #6DC351",
"%. c #71C755",
"&. c #75C65B",
"*. c #75C959",
"=. c #76C85B",
"-. c #7BC562",
";. c #7DC864",
":. c #829337",
">. c #839B3B",
",. c #A1993F",
"<. c #88A73A",
"1. c #92AE37",
"2. c #A3BC3C",
"3. c #96CA3C",
"4. c #AFD13C",
"5. c #829545",
"6. c #859D43",
"7. c #879B49",
"8. c #96914C",
"9. c #879955",
"0. c #B18D4F",
"q. c #87A643",
"w. c #8AA344",
"e. c #8CA449",
"r. c #93AA45",
"t. c #93A648",
"y. c #93AA4B",
"u. c #8BB64E",
"i. c #98B847",
"p. c #88AB57",
"a. c #98AB56",
"s. c #99BA55",
"d. c #A2BA47",
"f. c #B2AC51",
"g. c #A8BA55",
"h. c #88996B",
"j. c #959668",
"k. c #949676",
"l. c #94AD6F",
"z. c #84B76B",
"x. c #87B875",
"c. c #8CB77D",
"v. c #ADB56D",
"b. c #CC9358",
"n. c #C9B05A",
"m. c #D18D6D",
"M. c #CFB263",
"N. c #E3A16F",
"B. c #97C94E",
"V. c #A5C747",
"C. c #ABCB45",
"Z. c #AAC54B",
"A. c #ACCA4B",
"S. c #B1C949",
"D. c #AAD84A",
"F. c #B7D74A",
"G. c #ABC655",
"H. c #B5C957",
"J. c #ACD553",
"K. c #B8D855",
"L. c #9FE444",
"P. c #B9E74C",
"I. c #AEF64C",
"U. c #A8E554",
"Y. c #B9E755",
"T. c #87C567",
"R. c #82C56B",
"E. c #82C96B",
"W. c #9BC76E",
"Q. c #8AC376",
"!. c #8AC677",
"~. c #92C97D",
"^. c #B1CA6B",
"/. c #C2DE4A",
"(. c #C7C658",
"). c #C6DA56",
"_. c #C3E348",
"`. c #C8E558",
"'. c #D3E65A",
"]. c #C8F859",
"[. c #D1F358",
"{. c #C6DD67",
"}. c #D9D967",
"|. c #C8DC7B",
" X c #CDE96B",
".X c #D5EB65",
"XX c #CBFB67",
"oX c #D7FA66",
"OX c #CCE077",
"+X c #DAFC74",
"@X c #E6FF6C",
"#X c #FB588B",
"$X c #F26E8D",
"%X c #ED6D93",
"&X c #999191",
"*X c #95AC8A",
"=X c #8EB482",
"-X c #95B887",
";X c #95B58A",
":X c #9BAD95",
">X c #9CB394",
",X c #9FB597",
"<X c #A3B786",
"1X c #A2AA9B",
"2X c #A2B29D",
"3X c #A3BD99",
"4X c #B3BB96",
"5X c #A6AAA4",
"6X c #AEAEAE",
"7X c #A6B1A2",
"8X c #A9B0A6",
"9X c #ACBEA7",
"0X c #ACB0AA",
"qX c #B1BCAE",
"wX c #B5BDB4",
"eX c #B9BDB5",
"rX c #BCBCBD",
"tX c #F18789",
"yX c #93C483",
"uX c #97C787",
"iX c #9AC58C",
"pX c #9DC492",
"aX c #9FCB91",
"sX c #A1C496",
"dX c #A5C49B",
"fX c #A5CA99",
"gX c #B5C494",
"hX c #ABC4A4",
"jX c #AEC5A7",
"kX c #B2C2AD",
"lX c #B3CEAA",
"zX c #B6C2B3",
"xX c #B9C3B6",
"cX c #BCCDB7",
"vX c #BDC2BC",
"bX c #CBDB84",
"nX c #D8E494",
"mX c #C8D1A8",
"MX c #C1C8BC",
"NX c #BFBFC0",
"BX c #BFC1C0",
"VX c #C3C3C4",
"CX c #C5CBC5",
"ZX c #C7C7C8",
"AX c #C7C9C9",
"SX c #CBCBCC",
"DX c #D2D2C7",
/* pixels */
"VXVXVXVXVXNXZXVXVXNXVXNXNXNXNXNXNXNXrXrXNXNXNXNXZXVXZXVXrXrX5X5XNXVXVXZXNXVXVXZXVXNXVXNXNXNXNXNXNXNXrXrXNXNXNXNXNXVXZXZXNXrX5X5X",
"VXNXVXVXVXZXVXZXNXVXNXVXNXNXNXNXNXNXrXrXNXNXNXNXVXZXVXZXrXrX6X5XVXNXVXVXVXNXZXVXNXVXNXVXNXNXNXNXNXNXrXrXNXNXNXNXVXZXZXSXNXrX5X6X",
"ZXZXVXVXSXSXZXVXZXVXZXVXVXZXrXrXNXrXrXrXrXrXVXVXZXZXSXSXZXZX5X6XZXZXVXVXSXSXVXZXVXZXVXVXVXZXrXrXrXrXrXrXNXrXZXVXZXVXSXSXZXZX5X5X",
"AXZXVXNXSXSXVXZXVXZXVXZXZXZXrXrXrXrXrXrXrXrXVXVXZXMX4X4X4XgX1X5XZXZXNXNXSXSXZXVXZXVXZXVXZXVXrXrXrXNXrXrXNXNXVXVXZXZXSXSXZXZX5X6X",
"VXNXZXVXVXVXVXNXVXNXVXVXVXZXVXZXrXrXVXNXVXNXVXNXZXmX<.2.i.1.s.5XvXrXVXVXZXCXVXMXNXVXNXVXVXZXVXZXrXrXNXVXNXVXVXVXZXZXZXZXrXrX6X6X",
"NXVXZXSXNXVXVXZXNXVXNXZXZXVXZXVXrXNXNXVXNXVXNXrXv.g.7.m.Q 8.u.v.gXeXMX*Xk.j.1XVXVXVXVXNXVXVXZXSXrXrXVXVXVXNXVXVXZXZXZXSXrXrX5X5X",
"6X6X6X6X6X6X6X6X6X6X6X6X6X6X6X6X6X6X6X6X6X6X6XmX1.<.9.#X#X0.` <.g.2X,X( ^ ~ k.0X0X0X0X6X6X6X6X6X6X6X6X6X6X6X6X6X6X6X6X6X6X6X6X6X",
"6X6X6X6X6X6X6X6X6X6X6X6X6X6X6X6X6XqXj.j.l.k.h.a.g.r.<.a.M.e.` w.y.v.^.3 7 { e.j.h.9.4X0X6X6X6X6X6X6X6X6X6X6X6X6X6X6X6X6X6X6X6X6X",
"NXVXNXNXNXNXrXrXNXNX6X5XNXNXVXNXNXeX3 ^ ^ ( ~ 1.v.y.<.d.B.p.7.6.q.2.1.4 4 } _ ( ^ , c.2XeXrXvXVXNXMXVXVXVXVXNXVXZXZXVXVXZXZXZXVX",
"VXNXNXNXNXNXrXrXNXNX5X5XNXNXNXNXh.9.5._ 5.( ( r.^.y.6.i.g.Q Q 0. .q.a.a.r.2 / 5.{ { 5.5.9XxXmX{.|.OX|.bX|.|.|.bXVXVXVXMXVXVXVXZX",
"VXZXZXSXNXNXrXrXSXSX5X6XrXrXZXNX3 ) :.5.] 5.] y.g.r.6.u.s.#X#Xj.` 7.e.G.a.5 7 { 5.7.{ , <XjXnX4././._._././.F.`.NXrXVXZXSXSXSXSX",
"ZXVXSXSXNXNXrXrXZXZXbX{.OXOXOX}..Xg.< 4 5.t.g.y.<.w.q. .q.$X#Xf.B.w.w.w.y.G.r.3 ] 4 a.[..XOXK.V.S.S.S.C.S.C.Z.A.|.bXCXVXDXSXSXSX",
"NXNXNXVXVXNXNXNXVXDX{.4././././.oXg.3 ( ] e.H.i.5.e.q.<.t.Q Q v.s.<.w.6.r.H.e.2 ( ) 1.oX_.).S.V.C.V.A.Z.V.C.Z.A._. XjXkXxXeXrXrX",
"NXNXVXNXVXZXNXNXk.>.G.A.C.Z.V.C.4.S.+Xd.< 5.^.y.6.q.w.e.w.q.q.g.g.q.w.t.r.d.7.< 5.+X).C.G.S.C.Z.D.L.L.D.Z.3.).'._.^.sXhXkXzXxXrX",
"6X6X6X6X6X6X6XeXr.<.Z.A.A.A.S.A.V.F.@Xd.< 7.G.y.7.e.q.e.t.8.8.i.i.w.w.>.r.H.i.3 w..XK.d.Z.A.C.J.f.f.f.f.H.F._.'._.`.uX-X>X,X7X6X",
"6X6X6X6X6X6Xl.) A.F.4.C. X].XX`.2.S.@Xi.> 7.H.r.q.e.q.u.g.D B p...>.5.4 6. X`..X).4.Z.Z.C.C.V.K.I N F x M.XXY.).`.`.[.^.=X>X2X8X",
"SXSXNXNXNXNXk.>.g.Z.C.A.).).M.n.F.F.].i.3 9.g.e.<.e.7.i.g.U S L 8.1.i.7.y.`._.`.K.C.G.G.C.S.D.F.Y A G I (.[.`.'.`./.4.|.gXfX*X1X",
"DXSXNXNXVXNXv.>._ ) A.J.D.f.x U +XP.D.F.).y.~ 7.e.w.w.w. .B.g.C Z }.[..X'.V.V.Z.A.C.V.s.S.U.Y.`.[.XX[.[.'.[.'.'.oX).^ ) ! l.*X2X",
"SXSXSXSXVXZXl.>.-Xv.g.V.D.f.J Y XX(.L f.Y.r.( 7.e.w.w.w.7.B.g.Z Z }.].).F.A.Z.A.A.A.C./.f.0.n.]._.P._.Y.D.J.H.H.J.^.W.l.a.iXc.:X",
"SXSXSXSXZXVX5.^ kXsX} ^ H.F.K.K.oXn.x L U.e.] 7.y.w.w. .7.B.G.C N }.I.V.Z.G.Z.C.C.d.K.oXY x b.+X'..XF.D.` _ >.>.^ 6.%.=.!.yXx.*X",
"NXVXDXSXNXBX4X<XhXiXc.^.g.3.B.D.[.b.B W ].i./ } 7.w.t.y.a.0.Y Y Y ).F.A.C.C.C.Z.C.F.F.].n.U n.Y.K.K.d.d.s.X.X. .p.+.&.-.;.!.x.=X",
"NXZXSXSXVXNXxXzXhXpXuX!.( 1.A.A.J.0.x W oX2.3 ] ( 6.e.i.G.Z N .XoXC.d.S.D.P.J.V.H..X].].oX+XP.2.A.J.<.7.$.%.%.%.%.%.-.;.E.~.c.=X",
"6X6X6X6X6X0X8X7X,X-X=X#.] 6.S.A.J.f.J n.[.g.e.w.( <.e.u.g.G D ).I.C.G.J.d.Y 0.)./.].M.W n.Y.C.C.d.s.e.7.x.T.o.o.o.#.#.#.#.x.=X*X",
"6X6X6X6X6X0X8X7X,X;X=Xh.: 3 {.K.F.D.P._.].P.J.y./ w.y.s.v.C x }.XXC.V.U.b.B U [.I.oXb.d v L.H.F.r.>.w.<.:.{ +.O.O.#.#.#.=X=X;X,X",
"VXNXZXZXVXBXrXzXkXhX*X=X3X-X>.1.i.d.3.n.tXM.].i.( { 5.r.g.L L m.b.).F.U.f.B E ].(.W Y Y v.J.V.i.r.w.e.<.<.7.;.;.Q.yXuXaXaXhXhXkX",
"NXNXVXZXBXBXvXrXwXzX:X:XdX>X: , ( <.I.m.F N.nXJ.4 ] _ } q.B.^.G G }.I.`.g.x U oXb.x L I.K.K.a.>.<._ >.:._ } Q.Q.yXiXfXhXjXkXzXwX",
"ZXVXZXVXVXVXZXZXBXBX5X:XjX3X3XyX~.W.3.f.N.0.c 2.Z.6.( } } i.g.R E '._.Y Y b.M.].n.V Y I.i.i.7.3 X.T.T.T.T.x.#.Q.uXfXlXcXcXBXBXAX",
"VXZXVXZXZXVXAXSXAXBX5X5XzXjXhXaX!.~.4.D.I.J # c XXt.( 5.7.i.g.R R .X}.N S @X].XXM.N L ].i.w.~ < #.$.%.%.&.-.;.Q.aXlXcXcXBXBXAXAX",
"NXVXZXVXNXNXNXVXBXBX5X5XrXqXjXdXuX~.3 r.D.d.,.0.W 8.| c ; w.g.S S f.y.b m I.S.Q W n.8.^ ] 4 X.+.;.*.&.=.-.;.Q.yXpXdXjXzXBXvXBXBX",
"VXNXZXSXNXNXNXZXBXBX6X5XwXwXxXjXgXaX> >.).F.I.m.F 8. .k e 5.a.C C e._ 9 g I.b.V W ].<.> 4 , #.%.%.=.-.R.;.Q.yXiX,XhXqXxXBXBXBXBX",
"6X6X6X6X6X6X6X6X6X6X6X6X6X0X5X,X>X<X2 _ u.i.`.L b M T Z B 5._ A Z ] ( C C U W f.f.3 z.| | | o.o.$.O.#.#.x.c.=X;X>X,X7X0X6X6X6X6X",
"6X6X6X6X6X6X6X6X6X6X6XwX6X6X0X7X2X<X< ] 7.B. Xc % B D V A 8.5.S Z 5 7 S D V U I.3.. z...$...o.o.#.#.x.=X=X;X>X,X2X7X0X6X6X6X6X6X",
"NXVXVXZXVXNXZXVXVXNXVXNXNXNXNXNXxXqX*X@.3 / ^ 5 5 g b G E c g D D g g #X#Xd g ( ' | %.%.&.=.;.R.!.yX-XpXhXhXqXkXvXBXBXCXrXrX5X5X",
"VXNXZXVXVXNXVXZXNXVXNXVXNXNXNXNXNXwXqXh.4 7 2 ' [ 1 e R #Xb e Z Z y n %XR ; ; 4 ' %.%.=.-.R.R.yXiXpX,X9XwXwXxXrXBXBXAXSXrXrX5X6X",
"ZXZXVXVXSXSXZXVXZXVXZXVXNXNXNXNXrXwXqX9XpXyX~.;.T.H 9 C G G E k k Z Z d g ;.;.=.-.*.;.;.!.~.yX-X,XhXjXwXwXwXVXVXCXVXSXSXZXZX6X5X",
"ZXZXVXVXSXSXZXVXVXZXVXVXVXNXNXNXrXrXwXhX,XiXyXE.T.j.g C Z E E k y G Z ; H *.*.=.;.;.;.!.~.iXiX3XhX9XwXwXrXNXVXZXAXAXSXSXZXVX6X5X",
"VXNXZXVXNXVXNXVXVXNXVXNXVXVXZXVXrXrXwXzXhXpXiXyXQ.T.E.L e k b E E d J %.$.*.*.;.;.;.!.yXaXdXjXkXqXwXBXBXBXBXNXVXZXZXZXZXNXNX5X5X",
"VXVXVXZXVXVXVXNXNXVXNXVXVXNXVXZXrXwXBXxXkXhXpX,X-XuXuXP 9 y g R E e 6 &.*.=.T.Q.!.yXiXpXhXkXcXvXwXwXBXVXBXVXVXBXVXVXZXVXNXNX5X5X",
"NX6X6X6X6X6X6X6X6XNX6X6X6X6X6X6X6X6X0X0X7X2X:X6 + O + & 0 r f u r o o - = g r = < =X=X>X,X7X8X6X6X6X6X6X6X6X6X6X6X6X6X6X6X6X6X6X",
"6X6X6X6X6X6X6X6X6X6X6X6XNX6X6X6X6X6X6X0X0X0X7X1 X @ @ = 0 u q i q $ % 9 9 t q # ; ;X,X,X7X8X8X6X6X6X6X6X6X6XwX6X6X6X6XNX6X6X6X6X",
"NXNXNXNXNXNXNXNXNXNX6X5XNXNXNXVXBXBXBXBXBX8   % = 0 f y t h j p p q i w w t q q f X k.:XzXxXvXBXNXVXNXVXNXVXNXVXZXZXVXVXZXZXVXZX",
"NXNXNXVXNXNXNXNXNXNX6X5XVXNXVXNXZXBXBX6X&X6 O = 0 t h u u h s w j z z z l u q f q o k.*XkXzXvXNXNXNXVXNXVXNXVXNXVXZXVXVXZXVXZXVX",
"VXZXZXSXNXNXNXNXZXZX6X5XNXNXNXVXZXVXZXP O % r r f u t h h j j w a %X$XtXQ u w q 0 o k.c.3X9XxXCXZXVXVXZXVXZXVXZXZXVXSXSXSXSXSXSX",
"ZXVXZXZXNXNXNXNXZXZX5X5XNXNXVXVXVXZXBXP O % = r u u t i j s s m m R R %XR l h q u @ k.l.pX3XcXvXVXZXZXVXZXVXZXVXVXZXSXSXSXSXSXSX",
"NXNXVXNXNXNXNXNXVXNX6X5XVXZXZXZXVXZXVXP O $ = r f q q h s p a Q $XI J T T R I p p # j.#.iXdXjXxXNXVXVXNXNXVXNXVXVXSXNXNXSXNXNXNX",
"NXNXNXVXNXNXNXNXVXZX5X6XZXVXZXZXZXZXVXP O % = r i q f h p p k R %XT T A M T M s w 9 j.#.yXsXhXcXNXVXNXVXNXNXVXNXVXVXNXNXVXNXNXNX",
"6X6X6X6X6X6X5X6X6X6X6X6X6X6X6X6X6X6X6X8 O % = r h t q h j p j I J T T n n m m j p 9 8.O.z.=X>X7X6X6X6X6X6X6X6XNX6X6X6XNX6X6X6X6X",
"6X6X6X6X6X6X6X6X6X6X6X6X6X6X6X6X6X6X6X8 o % = 0 0 y u f h p p m m M M M n m k t w # j.O.#.c.;X2X6X6X6X6X6X6X6X6X6X6X6X6X6X6X6X6X",
"SXSXSXNXVXNXVXNXVXNXVXZXNXVXNXVXBXBXVX8 o $ r * & r k y q h j i i m M M m p i i y X k.;.Q.iXdXkXNXBXVXVXVXVXVXVXZXZXNXVXNXNX5X6X",
"SXSXNXNXNXVXNXVXNXVXZXVXVXNXVXNXBXBXAX5XP ; $ & = = r t f u i p p l l l j i i 9 ; 2 #.;.Q.iXdXkXrXBXAXVXVXVXZXZXZXVXVXNXNXNX5X5X",
"ZXSXSXSXZXVXZXZXZXVXZXZXVXZXNXVXAXAXAXBXcX7 X & r = = t a u t s s p p s j f q % < &.=.;.yXiXdXkXvXAXVXVXSXSXVXNXSXSXSXZXSXSX5X6X",
"SXSXSXSXVXZXVXVXVXZXVXVXZXVXVXNXAXAXBXBXvX*X8 ; $ # $ = 0 t y u f i u h f 0 g / ' &.;.;.yXpXhXzXBXVXVXAXSXSXNXVXSXSXZXZXZXVX6X5X",
"NXNXSXSXSXVXNXVXVXNXZXZXNXVXNXVXBXBXAXBXzXjXpX6   X   o & f p t q q t f 0 o . %.*.=.E.!.yXpXjXkXvXBXZXVXVXVXNXNXNXNXNXNXNXVX6X5X",
"NXNXSXSXVXVXVXZXNXVXZXSXVXNXVXNXBXBXBXAXBXkXdX*Xc.h.@.1 @ 0 0 t t u q 9 & +.T.=.*.-.E.~.iXdXkXBXvXBXAXSXBXVXVXVXNXNXNXNXNXNX5X6X",
"6X6X6X6X6X6X6X6X6X6X6X6X6X6X6X6X6X6X6X6X8X7X,X;Xc.z.#.K X % = t i i f o - ..$.o.O.-.z.c.;X,X2X0X0X6X6X6X6X6X6X6X5X6XNX6X6X6X6X6X",
"6X6X6X6X6X6X6X6X6X6X6X6X6X6X6X6X6X6X6X6X6X8X2X>X;Xc.x.z.z.; @ 0 0 % 1 p.O.....O.#.z.c.-X>X2X5X0X6X6X6X6X6X6X6X6X6X6X6X6X6X6X6X6X",
"NXNXVXZXNXNXNXNXVXNX5X5XrXrXNXNXNXNX6XNXNXwXwXqXlXhXaXuX=X7 X % = @ 1 %.%.*.-.;.Q.iX=X*XqXqXNXNXNXNXNXNXNXNXNXNXVXVXSXSXVXNXNXNX",
"NXNXZXVXNXNXNXNXNXNX6X5XrX6XNXNXNXNXNXNXNXNXNXwXzXlXhXfXiX=Xx.O @ # 1 *.-.-.;.!.iXpX:X:X6XwXBXBXNXNXNXNXNXNXNXNXVXVXSXSXNXVXNXNX",
"VXZXVXZXZXZXSXSXZXVX6X5XNXNXZXSXNXNXNXNXNXNXNXNXBXBXcXcXhXpXiX. + @ 1 ;.;.;.yXiXaXjX:X5XBXBXBXSX6XNXNX6XNX6XNXNXSXSXSXSXVXZXSXSX",
"NXZXZXVXZXZXSXSXVXZX6X6XNXNXZXSXNXNXNXNXNX6XNX6XSXDXCXBXkXhXhX=Xh.$ $ ; 7 !.iXaXhXzX5X5XBXBXSXSXNXNXNXNXNXNXNXNXSXSXSXSXZXVXSXZX",
"NXVXZXZXNXNXVXNXNXrX5X6XNXrXVXVXZXBXNXNXNXNXBXBXBXBXxXzXzXqXhXpXuX+ X   + !.uXpX9XzX5X5XNXNXZXZXNXVXNXNXNXNXNXNXNXNXNXNXNXNXNXVX",
"VXNXVXZXNXVXNXVXNXrX6X6XNXrXSXVXBXZXNXNXNXNXBXBXBXBXBXBXBXwXkXhXaXuXyX!.!.yXpXhXqXrX5X5XNXNXZXSXNXVXNXNXNXNXNXVXNXNXNXVXNXNXVXNX",
"6X6X6X6X6X6X6X6X6X6XrX6X6X6X6X6X6X6X6X6X6X6X6X6X6XqX0X6XqX6X8X2X,X;X=Xx.x.c.=X>X5X5X6X6X6X6X6X6X6X6X6X6X6X6X6X6X6X6X6X6X6X6X6X6X",
"6X6X6X6X6X6X6X6X6X6X6X6X6X6X6X6X6X6X6X6X6X6X6X6X6X6X6X6X6X6X0X8X2X>X-X=X=X=X=X>X5X5X6X6X6X6X6X6X6X6X6X6X6X6X6X6X6X6X6X6X6X6X6X6X"
};
