/* XPM */
static char *result[] = {
/* columns rows colors chars-per-pixel */
"64 64 248 2 ",
"   c #000002",
".  c #090805",
"X  c #00020B",
"o  c #020A0A",
"O  c #000313",
"+  c #010918",
"@  c #061216",
"#  c #04141B",
"$  c #0A1A1D",
"%  c #141614",
"&  c #2F1210",
"*  c #000826",
"=  c #001524",
"-  c #051A27",
";  c #0B102A",
":  c #2B0D23",
">  c #05232A",
",  c #122126",
"<  c #15252A",
"1  c #1A272B",
"2  c #022635",
"3  c #0D2B3E",
"4  c #142936",
"5  c #1C2D33",
"6  c #083539",
"7  c #16353C",
"8  c #27292D",
"9  c #223135",
"0  c #25353A",
"q  c #2A383C",
"w  c #4A1E01",
"e  c #560B1D",
"r  c #4A101D",
"t  c #680819",
"y  c #770A1B",
"u  c #4F260B",
"i  c #74320C",
"p  c #6B2E18",
"a  c #753216",
"s  c #780624",
"d  c #522226",
"f  c #155C19",
"g  c #3A7512",
"h  c #36582F",
"j  c #69581F",
"k  c #4E4738",
"l  c #073149",
"z  c #1A3944",
"x  c #283942",
"c  c #333F45",
"v  c #4E3F49",
"b  c #004946",
"n  c #2D444A",
"m  c #364549",
"M  c #344951",
"N  c #334F56",
"B  c #3D4D53",
"V  c #4A544F",
"C  c #425256",
"Z  c #44555A",
"A  c #4A5758",
"S  c #4A5A5D",
"D  c #54645D",
"F  c #4F7053",
"G  c #435962",
"H  c #4D5D62",
"J  c #516166",
"K  c #55666B",
"L  c #596869",
"P  c #586E70",
"I  c #5D6D72",
"U  c #677370",
"Y  c #637175",
"T  c #64757A",
"R  c #6A787C",
"E  c #8A0519",
"W  c #9A0118",
"Q  c #A90116",
"!  c #B90115",
"~  c #B40C13",
"^  c #933311",
"/  c #B2360B",
"(  c #D70109",
")  c #D0050E",
"_  c #C60013",
"`  c #E40102",
"'  c #E70108",
"]  c #F70205",
"[  c #FE0000",
"{  c #F30C15",
"}  c #CC2D0C",
"|  c #EF3107",
" . c #C10020",
".. c #FE3433",
"X. c #904814",
"o. c #AA5010",
"O. c #A46720",
"+. c #D3480A",
"@. c #E44E07",
"#. c #FD4902",
"$. c #FD5701",
"%. c #D27013",
"&. c #FF6905",
"*. c #FF7707",
"=. c #E87110",
"-. c #FF7616",
";. c #FF7B1D",
":. c #E97628",
">. c #F67B27",
",. c #FE7D21",
"<. c #F45756",
"1. c #078E09",
"2. c #319A07",
"3. c #0AAF01",
"4. c #4CB10A",
"5. c #00C107",
"6. c #51C605",
"7. c #72CF0B",
"8. c #60FD0A",
"9. c #5F935A",
"0. c #69BE4C",
"q. c #69AB59",
"w. c #6EBC54",
"e. c #6CB45A",
"r. c #73BB5B",
"t. c #7CB85A",
"y. c #748877",
"u. c #79B766",
"i. c #7ABB64",
"p. c #77A570",
"a. c #6DC450",
"s. c #72C656",
"d. c #76C65B",
"f. c #7AC562",
"g. c #7DC765",
"h. c #A4843B",
"j. c #CD840E",
"k. c #FB9107",
"l. c #FF8419",
"z. c #FDA503",
"x. c #F7B402",
"c. c #DD953F",
"v. c #FE852C",
"b. c #FF8935",
"n. c #E7903C",
"m. c #EB943D",
"M. c #F69133",
"N. c #FFA739",
"B. c #9AF104",
"V. c #FFD201",
"C. c #B7A654",
"Z. c #81BA6E",
"A. c #86B975",
"S. c #89B77A",
"D. c #A3B66A",
"F. c #DD9D4C",
"G. c #D69951",
"H. c #EB974B",
"J. c #D3A65D",
"K. c #EBAD4E",
"L. c #D8A975",
"P. c #82C66B",
"I. c #8AC677",
"U. c #92C97D",
"Y. c #677C82",
"T. c #6D7E83",
"R. c #727E83",
"E. c #728186",
"W. c #74858A",
"Q. c #73868D",
"!. c #78868B",
"~. c #79898E",
"^. c #778A90",
"/. c #7D8D92",
"(. c #84908C",
"). c #819196",
"_. c #8A9794",
"`. c #84959A",
"'. c #89999E",
"]. c #959B9A",
"[. c #90AB8B",
"{. c #94B58A",
"}. c #99A997",
"|. c #9CB395",
" X c #9DBA95",
".X c #9EB399",
"XX c #A1AC9D",
"oX c #A2B29D",
"OX c #A6BB9E",
"+X c #8D9DA2",
"@X c #959FA3",
"#X c #8FA2A8",
"$X c #92A2A6",
"%X c #94A4A9",
"&X c #9CA6A8",
"*X c #9EAEB3",
"=X c #A5AAA4",
"-X c #A4A8A8",
";X c #AEAEAE",
":X c #A5B1A2",
">X c #A9B0A6",
",X c #AABCA7",
"<X c #ACB0AA",
"1X c #AEB3B0",
"2X c #AAB7BA",
"3X c #B3B9B4",
"4X c #BCBDBD",
"5X c #F68F90",
"6X c #D3A996",
"7X c #EBB792",
"8X c #94C484",
"9X c #9AC48C",
"0X c #99CA89",
"qX c #9EC492",
"wX c #A5C49C",
"eX c #A4C899",
"rX c #ABC4A4",
"tX c #AECDA5",
"yX c #AEC2A9",
"uX c #B2C3AD",
"iX c #B5CDAD",
"pX c #B6C3B2",
"aX c #B9C4B6",
"sX c #BBCBB7",
"dX c #BDC2BC",
"fX c #C0C9BE",
"gX c #FFD1B3",
"hX c #ADBCC1",
"jX c #B2BEC1",
"kX c #BFBFC0",
"lX c #BAC4C6",
"zX c #B8CBD0",
"xX c #C3C3C4",
"cX c #C4CAC3",
"vX c #C7C7C8",
"bX c #CBCBCC",
"nX c #C7D5D9",
"mX c #CDD5D8",
"MX c #FBCECD",
"NX c #D4DFE3",
"BX c #D9E4E7",
"VX c #D7ECF2",
"CX c #E3EAEC",
"ZX c #E8ECED",
"AX c #F1EFED",
"SX c #EBF5F7",
"DX c #F4FAFB",
"FX c #FEFFFF",
/* pixels */
"xXxXxXxXkXkXvXxXxXkXkXxXkXkXkXkXkXkX4X4XkXkXkXkXxXxXvXxXkX4X-X-XkXkXvXxXxXkXvXxXxXkXxXkXkXkXkXkXkXkXkX4XkXkXkXkXvXvXvXxX4X4X;X-X",
"xXkXxXxXxXxXxXvXkXxXxXkXkXkXkXkXkX4X4X4XkXkXkXxXxXvXvXvXkXkX-X;XxXkXxXxXkXxXxXvXkXxXkXxXkXkXkXkXkXkX4X4XkXkXkXkXxXxXvXbX4X4X-X;X",
"bXvXxXkXbXmXxXxXvXxXvXxXkXvX4X4X4X4X4X4X4X4XxXxXvXvXbXbXvXvX-X;XvXbXkXkXbXbXvXxXvXxXvXxXvXxX4X4X4X4X4X4X4X4XvXxXvXxXbXbXvXvX-X;X",
"vXvXkXxXbXbXvXxXxXvXxXvXvXvX4X4X4X4X4X4X4X4XxXvXvXbXbXbXvXvX-X;XvXvXxXxXbXbXxXvXxXvXxXxXxXvX4X4X4X4X4X4X4X4XxXvXvXvXbXbXvXxX;X-X",
"xXkXvXxXxXxXxXxXkXxXkXxXvXxXvXxX4X4XlXkXxXkXkXxXvXxXvXvX4X4X-X-XkXkXvXvXvXkXkXkXkXkXkXkXvXxXvXxX4X4XkXkXxXkXxXkXvXvXvXvX4X4X;X-X",
"kXxXvXvXxXxXxXxXxXkXxXxX4X8 8 1X4X4XfXkXkXkXxXxXvXvXvXbX4X4X;X;XxXkXvXR.q c x x x 9 Y.kXxXxXxXvX-X: q 3XkXxXkXkXvXvXvXbX4X4X;X-X",
";X;X1X;X;X;X;X;X;X;X;X;X-X  X ].<X<X<X<X;X;X1X;X;X;X;X;X;X;X;X;X;X;X;XA O O * * + O x XX=X<X<X<X@X    -X;X<X<X;X;X;X;X;X;X;X;X;X",
";X;X;X1X;X;X;X;X;X;X;X;X;XL L -X>X>X<X-Xm C Y ;X;X;X;X;X;X;X;X;X;X;X;XR O h 7.7.4.1.f o H :X:X<X&XL U >X>X>X>X>X;X;X;X;X;X;X;X;X",
"xXkXkXkXkXkX4X4XxXkX;X].4X4X4X3XpXpXaX].- 9 A dXfXfXfXxXvXxX;X3X;X;X3XR.O g B.B.6.3.f + B rXuXpXdXaXaXpXpX3XaXdXkXxXxXxXvXxXvXxX",
"kXxXkXkXkXkX4X4XkXkX].. L 4XaXpXuXuXpX(.  o A aXaXaX4XfXxX3X+ = ; ; * h B.4.3.g ; > > + M qXrXyXuXaXpXR   }.pXaXxXxXxXfXvXvXxXvX",
"xXxXbXvXkXkX4X4XvXvX].% U 3XpXiXuXuXuX_.q m R uXuXuXsXcX3XR.- - - > * g B.6.1.f * O X X B 8XeXrXuXaXaX_.< }.pXaXdXkXbXbXMXbXbXbX",
"xXvXbXbXkXkX4X4XvXvX;X=X4X].y.,XuXiXpXpXpXiXtXrXrXyXsXlXM + X & ' } 7.6.2.1.b > F P.w.q.u.I.0XeXOXy.(.iXuXuXiXpXdXfXfXbXmXbXbXbX",
"xXkXxXkXkXkX4X-X-XlX=X=XfXm   U uXiXpXpXpX,XrXwXeXtX_.[.v & x v [ @.8.6.1.f l # V f.e.w.P.I.8XeX[.X $ uXuXyXuXoX=XdXfXlXkXkX4X4X",
"kXkXkXxXxXfX-X    -X=X=XaX8 . U uXuXuXpXuXrXrXwXwXtXN X ( ..FXMX[ / 5.3.3.1.b 6 =   F w.P.U.0XeX_.  $ uXyXrX,XX   _.4XdX4XkX4X4X",
";X;X;X;X;X;X-X1 8 }.>X=X:Xy.D [..X.XoXoX:X.X|.|.k V z = ` ..FXMX[ } g g 2.h 8 8 : X F r.f.A.S.{.[.q C oXoX|.|.8 1 _.>X>X<X<X;X;X",
";X;X;X;X;X;X;X;X;X>X:X:X:XoX|.|.|..XoX:X:X:X:X[.    # 2 ` ..FXMX[ [ [ ] ! ! Q _ t X p.i.u.S.{.{.XXoXoXoXoX|.oXoXoXoX:X:X:X=X;X;X",
"bXmXkXkXkXkXkXkXaXpXpXiXuXyXyXyXrX(.V D D D V L _.(.- = ` ..FXMX] [ ] ] ) _ Q ! t = n h h V L rX,XpXpXpXyXyXiXuXpXaXpXpXpXaX=X=X",
"bXbXkXkXkXxXkX4X4XpXpXpXuXuXyXuXrXD       X   q FXFX2 O ` ..DXMX] [ ] ] [ ( W ! t 2 +   o   . rXuXpXuXiXyXyXuXiXpXiXuXuX3XpX=X=X",
"bXbXbXbXxXvXxXfXaXaXsXpXpXL D L k R 2X+XY.W.E.!.&X'.> = ` ..FXMX[ [ ] ] ] ( W ! t + N ^.).1X].J J D D ,XiXsXuXuXfXfXiXaXfXfX=X=X",
"bXbXbXbXvXxXxXxXfXfXaXaXfX        2XFXFXnXBXSXlXn x - - ` ..FXMX[ [ ] ] [ ' E _ E   Y.SXDXFXFX        yXiXsX3XaXfXcXsXsXfXxX=X=X",
"kXxXbXbXkXxXkXkXfX4XdXJ D 2XlX%X`.!.R R Y I I H B m - = ` ..FXMX] [ [ ' _ _ Q E : + n Y.I T.~.lXxXxXxXL V oX,XpX3XpX3X4XdX4X=X=X",
"kXvXbXmXxXkXfXkXkXkXfX    FXFXDXVXE.< m Z M q x m n 2 = ` { DXAX[ [ [ ) E W  .r > # 4 m c 9 K FXFXFXFX$   |.rXuXuX3XaXfXkXfX=X=X",
";X;X;X;X;X;X;X;X;XA C *X3X`.(.R I S m m 0 0 9 5 7 z y E 7X5X....[ [ [ ( W Q ! e - - < 5 x B C R.!._./.*X;XU m .XoX>X<X;X;X;X;X;X",
";X;X;X;X;X;X;X;X;X  @ FXFXK m n 5 c C 3 O + + * - $ [ [ FXFX[ [ [ [ [ ' W Q ) t - = * + - C c < 5 B M FXFX<   OXoXoX;X;X;X;X;X;X",
"xXkXvXxXkX4X&X-X@X$ , FXFXm , 5 , 1 4 8 a p p p * 4 5X5X5X<.] ] ' ' _ ! Q s e : 8 a p a d 5 < 4 4 5 5 2XBX5 o /.[.[.,XlXfXkXkXkX",
"kXkXxXvXkX_.      o , FXFX,   + * * ; & $.#.&.$.O l FXDX] [ [ [ ' ( Q ! ' e - * a &.#.$.o.* * * * + . '.zX9 o       _.aX4XdX4X4X",
"xXxX;X-X3X`.8 q q o , FXFX1 o d a p p ^ #.+.a p t y 5X5X{ [ ) _ _ W r e t d p p ^ } } #.} p p i p $ @ %XnX0   9 c 9 y..X}.}.cXvX",
"vXvX1 O   H VXnX2X+ # FXFX5 O ^ $.$.$.$.| ^ ; * ] [ [ [ [ [ ! ! ) t 2 = ; & #.#.} t Q @.#.$.$.#.#.% # &XnX5   '.NXVXI   X < fXfX",
"xXkX, 1 V Y !.R.I + - FXFX$ X ^ $.} ~ } k.O.* 2 ' [ ( _ t e r : r r e p X.O.*.k.+.Q } k.@.~ / *.*.@   %XNX5   J ~.R.Y A 1 - yXpX",
"fXkX% x FX].      o < DXFX0 + ^ $.~ s / V.%.* ; ' [ _ W * = * = * : _ #.V.x.z.V.@._ | V.=.s Q k.k.1 + &XnX9 O       U FXZ . eXrX",
";X;X% q FX-X# R ~.+ $ hXnXCXZXm   X.x.@.| #.j.j.k.*.*.*.j.%.j.j.%.j.*.k.| | ' | *.z.$.} ) ] )   @ %XhXbXnX9   Y (., E.FXC . S.{.",
";X;X% c FX-XX T.(.X $ /.#XFXFXW.x O.x.+.! ) x.z.z.z.z.z.z.z.z.z.z.z.x.k.' ( ! ! =.V.=. .) ` ~ l n zXnX2X*X9   I (.% !.FXC . Z.S.",
"xXkX, 9 nXT       @ , T !.CXFXFXFXI   X X X o o o o   o o . o o + . . o   X X X o   L FXxX  > VXBXnXzXH B , #       S bXn @ t.u.",
"xXfX, 5 R lXFXFXFXNX- Y /.CXFXSXCXT.1 x z z 3 3 3 3 3 3 3 3 3 3 3 l l 3 z 6 z 7 3 * Q.DXzX1 N *X%X#X+XZ M   -XFXDXFXnX^.0 $ r.u.",
"vXxX, , 0 `.BXNXmX&X4 T /.ZXFX/.B mXFXFXFXFXFXFXFXFXFXFXFXFXFXFXFXFXFXFXFXFXFXFXSXhXzXzXzXBXlXB Z C C Z Z $ W.mXmXBX$Xx - $ w.i.",
"vXvX@ o   m /.E.R x q E./.ZXFX%XY nXSXDXFXFXZXSXSXSXSXSXSXBXCXCXCXCXCXZXCXBXCXCXzX%X&X+X%X*X/.K J H H Z Z 0 q T W.).C     + w.r.",
"kXkX=X}.[.L 9 q q , < E./.SXFXBXFX2XI lXFXnXI T.E.E.E.E.H B Z G Z G Z Z Z C Z B C Z C Z C C C K K H H H Z 1 , q q 1 F e.q.q.r.i.",
"xXkXdXiXeXF       o - E./.ZXDXBXFXhXT hXSXlXT E.E.W.!.W.K J K K L K K K K L K K K K L K K K K K J J J Z Z , o       h s.s.s.r.u.",
";X;X>XoX{.[.p.p.q.$ $ T./.FXFXBXFXhXQ././.^.~././.~.^.~.~././.~./././.^././././././././.!./.W.K J J H C B , X 9.e.q.q.a.w.r.r.Z.",
";X;X>XoX|.{.A.A.i.$ @ E./.nXnXBXFXhXW.^.!.~./././././.~././.)./././././././././.)././.)./.).W.K J H H Z C , o e.0.0.0.s.r.r.Z.S.",
"xXfX4XpX,XOXqX8XS.$ $ W.`./.Q.lXBX*XW././././././././././././././././././././././././././.).W.K J J J Z Z - X q.d.d.d.P.I.0X0XeX",
"kXkX4XaXaXuXOX X9X, # E.`.+X#X+X'.'.+X)./././././././././././././././././.~./././././././.).E.K J H S C C , X q.d.g.P.I.U.0XeXtX",
"vXxXvXvX3XaXuX,XrX$ # E.`.+X/.zXFXlXW.^././././.)./././././././././././.~.!./././././././.).W.J H Z C C C , X u.g.P.U.0XeXtXiXsX",
"xXvXbXvXfXdX3X,XuX> @ W.).+X`.2XNX2X~./././././././././.)./././././././././.~././././././.).E.J H Z C C C -   u.g.P.0XeXtXsXcXcX",
"kXkXxXkXkXkX4X4XpX, @ W.+X+X%X`./.^./.W.)./././././././././././././././.)./.^.)././././.!./.W.K J Z Z C C , X t.g.I.0XqXtXpXaX4X",
"kXkXkXkXxXkXdX7XL.& # I T.+X$X+X).lXBX2XT././././././././././././././././././.^././.^.!.~.).W.H S A Z B C - X h.L.0X0XeXiXpX4X4X",
"1X;X;X1X;X1X<X-.$.& # J I +X%X+X^.BXFXnXI !.W./././././././././././././././././.!.~.~.~.^.`.~.H Z Z Z B B - O %.k.U./.0X.X>X<X;X",
"1X;X1X;X;X6XL.v.;.& . H I '.%X+X+X*XjX$XE.!./././././././././././././././././././.!./.'.!.K K S Z Z Z B B 2 X %.v.G.L.{..X:X<X;X",
"bXbXxXkXkXH.&.b.>..   K Y.$X*X@X+X`.)./.^.~./.)././././././.)./././././././././././.W.Y.I m B C Z Z Z Z Z #   O.H.&.>.qXrXyX-X=X",
"bXmXkXkXkXL.>.>.>.o.X.x z Y.!.`.$X+X#X).!.^.^./././.)./.^.!.!.~.~.~.~./././././.).'.R B Z Z C Z Z C B x 5 X.X.:.v.-.H.9XqX,XXX=X",
"vXbXbXbXxXL.;.&.&.N.b.    P Y.`.2X+X#X).!.!.~./././.~./.+X+X%X$X$X$X2X+XW.^.^.E.Y.E.Y J J C C S Z C B O . >.N.-.&.&.F.U.eXtX.XXX",
"bXvXbXbXvXJ.v.gXgXb.>.o.X.c x I ~.`.%X/.!.^.~.~.~.~.!.~./._.`.).`.`.`.)./.).`.Y Z H H K J Z C M c 5 z j X.:.l.7XgXb.H.I.0XwX|.}.",
"kXkXbXbXxXH.;.FXFX>.-.N.b.    M R +XlX#X/./././.).).).)./.~././././.`.R.I Y Y K J K L I L J S m x O   >.K.v.*.AXFXM.:.g.I.9X[.XX",
"kXkXmXbXkX4X6XH.b.;.-.>.>.o.X.k m K Y.Y.E.E.E.E.T.T.T.T.T.R.T.T.T.T.E.L B Z Z H J J H S C n n 5 z j X.:.v.;.;.b.b.C.P.g.I.9X[..X",
";X;X;X;X;X=X>X>.>.H.H.v.>.M.N.u       2 T J J J J J J K K J J J J J H H H S G H H J B x 2     . O H.N.v.,.v.n.%.=.P.w.r.Z.S.{.oX",
";X;X;X;X;X;X:X|.{.A.i.;.-.v.v.o.u i i k M M M M M M M M M M M M M M n n M n n n n M x 5 k i i p ^ >.b.-.-.Z.0.0.0.0.s.t.Z.S.{.oX",
"kXkXvXxXfX4X3XrX XU.u.C.G.-.&.l.l.l.l.O.  + X X O X X X X X X X X X   o     X         o i k.l.l.;.*.&.c.C.s.s.s.P.d.P.I.U.eXeXpX",
"kXkXxXvXkXfXaX,XeX XZ.u.u.G.F.F.F.F.K.O.% & u w w w w w w w w w w w w w w w w w w w w % j K.F.K.F.F.c.P.a.s.d.d.P.P.U.U.0XeXyXaX",
"xXvXvXxXxXxXfXfXyXwX{.A.I.I.I.P.i.d.s.s.s.D.k.;.,.v.,.;.;.;.l.,.,.;.;.;.;.;.,.,.l.-.J.0.s.s.d.d.a.s.s.s.d.d.g.Z.U.0X0XeXeXuXsXcX",
"vXxXxXvXxXxXvXfXaXuX{.{.9X8X0XU.g.f.f.f.d.U.M.m.m.m.m.m.m.m.m.m.m.m.m.m.m.m.m.m.m.M.C.0.s.s.d.g.d.d.d.d.P.Z.P.I.0XeXtXiXiXaXfXcX",
"kXxXxXvX4X4XxXkX4XaX}.|.rXqXqX9X8XI.I.P.P.P.P.g.f.d.d.s.s.s.s.s.s.d.d.d.s.s.s.s.s.s.a.0.d.f.P.P.P.I.P.I.I.I.U.9XeXwXrXuX3X3XfXkX",
"xXkXxXvXxXxXxXkXdXdXXX&XyX,XtXqXqX9X8X8X{.I.U.I.I.g.i.f.f.f.f.f.f.d.g.g.f.f.f.f.f.g.w.e.g.P.I.I.8X8X8X8X8X{.OXwX,XuX3X3XdXdX4XxX",
";X;X;X;X1X;X;X;X;X;X;X>X>X:X:X.X|.{.{.{.{.{.{.S.A.A.Z.u.i.i.i.i.f.i.i.i.i.i.f.i.i.i.i.i.A.A.S.{.{.{.[.{.{.oXoXoX:X>X<X;X;X;X;X;X",
";X;X;X;X;X;X1X;X;X;X;X1X1X<X<X:X:XoX.X.X.X|.|.{.{.{.S.S.S.A.A.A.A.A.A.A.A.A.A.A.A.A.S.S.S.{.{.|.|..X.X.XoXoXoX>X<X;X;X;X1X;X1X;X"
};
