/* XPM */
static char *_a4ae5a4a6a24197a0dc809c75146b4ckoQr4pmLKJmdOCU0[] = {
/* columns rows colors chars-per-pixel */
"64 64 135 2 ",
"   c None",
".  c #3A3A50",
"X  c #3F4056",
"o  c #404057",
"O  c #45465D",
"+  c #47485F",
"@  c #49495F",
"#  c #474960",
"$  c #4A4B63",
"%  c #4E4F68",
"&  c #4E5067",
"*  c #4F516A",
"=  c #54556C",
"-  c #57586F",
";  c #555770",
":  c #565972",
">  c #5A5D75",
",  c #5D5F78",
"<  c #5E6179",
"1  c #63657D",
"2  c #65687F",
"3  c #676782",
"4  c #666980",
"5  c #6B6D85",
"6  c #6D6D89",
"7  c #6E7087",
"8  c #6F7189",
"9  c #70718D",
"0  c #70708D",
"q  c #70728C",
"w  c #71738C",
"e  c #71728D",
"r  c #72738C",
"t  c #72738D",
"y  c #70718E",
"u  c #70728E",
"i  c #71728E",
"p  c #71728F",
"a  c #72738E",
"s  c #72738F",
"d  c #72748C",
"f  c #72748D",
"g  c #73748D",
"h  c #73758E",
"j  c #74758E",
"k  c #74768F",
"l  c #70728A",
"z  c #727390",
"x  c #727490",
"c  c #737490",
"v  c #737491",
"b  c #747590",
"n  c #747591",
"m  c #757690",
"M  c #757691",
"N  c #767791",
"B  c #747692",
"V  c #757692",
"C  c #757792",
"Z  c #767793",
"A  c #767891",
"S  c #767892",
"D  c #777892",
"F  c #777893",
"G  c #777993",
"H  c #777894",
"J  c #787993",
"K  c #787994",
"L  c #787995",
"P  c #787A94",
"I  c #797A94",
"U  c #787A95",
"Y  c #797A95",
"T  c #797B95",
"R  c #787996",
"E  c #787997",
"W  c #797A96",
"Q  c #797A97",
"!  c #7A7B96",
"~  c #7A7B97",
"^  c #7A7C97",
"/  c #7B7C97",
"(  c #7A7B98",
")  c #7A7B99",
"_  c #7B7C98",
"`  c #7B7C9A",
"'  c #7C7D98",
"]  c #7C7D99",
"[  c #7D7D99",
"{  c #7D7E99",
"}  c #7C7D9A",
"|  c #7D7E9A",
" . c #7D7E9B",
".. c #7E7E9B",
"X. c #7E7F9B",
"o. c #7D7E9C",
"O. c #7E7F9C",
"+. c #7F7F9C",
"@. c #7E7F9D",
"#. c #7F7F9E",
"$. c #7F809C",
"%. c #7F809D",
"&. c #80809D",
"*. c #80819D",
"=. c #80809E",
"-. c #80819E",
";. c #81819E",
":. c #80809F",
">. c #81819F",
",. c #81829F",
"<. c #8181A0",
"1. c #8282A0",
"2. c #8283A0",
"3. c #8282A1",
"4. c #8383A1",
"5. c #8384A2",
"6. c #8484A2",
"7. c #8485A3",
"8. c #8585A3",
"9. c #8585A4",
"0. c #8586A4",
"q. c #8586A5",
"w. c #8686A4",
"e. c #8687A5",
"r. c #8686A6",
"t. c #8787A6",
"y. c #8787A7",
"u. c #8888A7",
"i. c #8888A8",
"p. c #8989A8",
"a. c #8989A9",
"s. c #8A8AA9",
"d. c #8A8AAA",
"f. c #8B8BAA",
"g. c #8B8BAB",
/* pixels */
": # O O O O O O O O O O O O O O O O O O O O O O O O O O O O O O O O O O O O O O O O O O O O O O O O O O O O O O O O O O O O # : ",
": # O O O O O O O O O O O O O O O O O O O O O O O O O O O O O O O O O O O O O O O O O O O O O O O O O O O O O O O O O O O O # : ",
"% 6 0 0 0 0 0 0 0 0 0 0 0 0 0 0 0 0 0 0 0 0 0 0 0 0 0 0 0 0 0 0 0 0 0 0 0 0 0 0 0 0 0 0 0 0 0 0 0 0 0 0 0 0 0 0 0 0 0 0 0 0 6 % ",
"O <.g.g.g.g.g.g.g.g.g.g.g.g.g.g.g.g.g.g.g.g.g.g.g.g.g.g.g.g.g.g.g.g.g.g.g.g.g.g.g.g.g.g.g.g.g.g.g.g.g.g.g.g.g.g.g.g.g.g.g.g.<.O ",
"O <.g.g.g.t.<.-.` ` ` ` ` ` ` ` ` ` ` ` ` ` ` ` ` ` ` ` ` ` ` ` ` ` ` ` ` ` ` ` ` ` ` ` ` ` ` ` ` ` ` ` ` ` ` ` -.<.t.g.g.g.<.O ",
"O <.g.g.g.] 5 2 : : : : : : : : : : : : : : : : : : : : : : : : : : : : : : : : : : : : : : : : : : : : : : : : 2 5 ] g.g.g.<.O ",
"O <.g.g.g.] 5 2 : : : : : : : : : : : : : : : : : : : : : : : : : : : : : : : : : : : : : : : : : : : : : : : : 2 5 ] g.g.g.<.O ",
"O <.g.g.g.6 % , <.<.<.<.<.<.<.<.<.<.<.<.<.<.<.<.<.<.<.<.<.<.<.<.<.<.<.<.<.<.<.<.<.<.<.<.<.<.<.<.<.<.<.<.<.<.<.<., % 6 g.g.g.<.O ",
"O <.g.g.g.6 O > g.g.g.g.g.g.g.g.g.g.g.g.g.g.g.g.g.g.g.g.g.g.g.g.g.g.g.g.g.g.g.g.g.g.g.g.g.g.g.g.g.g.g.g.g.g.g.g.> O 6 g.g.g.<.O ",
"o -.g.g.g.3 o % 0 0 / / 0 0 H / n 0 c / U 0 0 U / n 0 n / U 0 0 / / c 0 n / H 0 z / / 0 0 U / n 0 n / U 0 0 U / = o 3 g.g.g.-.o ",
". -.g.g.g.2 . o : > 5 5 > : 2 5 1 : , 5 5 : : 4 5 < : < 5 4 : : 5 5 > : 1 5 1 : > 5 5 : : 4 5 1 : < 5 4 : : 5 5 # . 2 g.g.g.-.. ",
". ( 8.8.8.1 . o : > 4 4 , > 1 4 1 > < 4 4 > > 2 4 1 > 1 4 2 > > 4 4 < > 1 4 1 > < 4 4 > > 2 4 1 > < 4 2 > > 4 4 @ . 1 8.8.8.( . ",
". 2 5 5 5 = . o : : : : 4 5 < : 1 5 4 : : 5 5 > : 1 5 1 : > 5 5 : : 4 5 < : < 5 4 : : 5 5 , : 1 5 2 : > 5 5 > : o . = 5 5 5 2 . ",
". 2 5 5 5 = . o : : : : 4 5 < : 1 5 4 : : 5 5 > : 1 5 1 : > 5 5 : : 4 5 < : < 5 4 : : 5 5 , : 1 5 2 : > 5 5 > : o . = 5 5 5 2 . ",
". 2 5 5 5 = . o : > 4 4 < , 1 4 1 , < 4 2 , , 2 4 1 , 1 4 2 , , 4 4 < , 1 4 1 , < 4 4 , , 1 4 1 , 1 4 2 , , 2 4 + . = 5 5 5 2 . ",
". 2 5 5 5 = . o : > 5 5 > : 2 5 1 : , 5 5 : : 4 5 < : < 5 4 : : 5 5 > : 1 5 1 : > 5 5 : : 4 5 < : < 5 4 : : 5 5 # . = 5 5 5 2 . ",
". 2 5 5 5 = . o : : 1 1 1 < 1 1 1 < 1 1 1 < < 1 1 1 < 1 1 1 < < 1 1 1 < 1 1 1 < 1 1 1 1 < 1 1 1 < 1 1 1 < < 1 1 O . = 5 5 5 2 . ",
". 2 5 5 5 = . o : : : : 4 5 < : 1 5 4 : : 5 5 > : 1 5 1 : > 5 5 : : 4 5 < : < 5 4 : : 5 5 , : 1 5 2 : > 5 5 > : o . = 5 5 5 2 . ",
". 2 5 5 5 = . o : : > > 4 5 < > < 5 2 > > 4 5 , > 1 5 1 > , 5 4 > > 2 5 1 > < 5 4 > > 4 5 < > 1 5 1 > > 5 5 > > O . = 5 5 5 2 . ",
". 2 5 5 5 = . o : > 5 5 > : 2 5 1 : , 5 5 : : 4 5 < : < 5 4 : > 5 5 , : 1 5 1 : > 5 5 > : 4 5 1 : < 5 4 : : 4 5 @ . = 5 5 5 2 . ",
". 2 5 5 5 = . o : > 5 5 > : 2 5 1 : , 5 5 : : 4 5 < : < 5 4 : : 5 5 > : 1 5 1 : > 5 5 : : 4 5 1 : < 5 4 : : 5 5 # . = 5 5 5 2 . ",
". 2 5 5 5 = . o : : < < 1 2 1 < 1 2 1 < < 1 2 < < 1 2 1 < < 2 2 < < 1 2 1 < 1 2 1 < < 2 2 1 < 1 2 1 < < 2 2 < < O . = 5 5 5 2 . ",
". 2 5 5 5 = . o : : : : 4 5 < : 1 5 4 : : 5 5 > : 1 5 1 : > 5 5 : : 4 5 < : < 5 4 : : 5 5 , : 1 5 2 : > 5 5 > : o . = 5 5 5 2 . ",
". 2 5 5 5 = . o : : < < 1 2 1 < 1 2 1 < < 2 2 < < 1 2 1 < < 2 2 < < 1 2 1 < 1 2 1 < < 2 2 < < 1 2 1 < < 2 2 < < O . = 5 5 5 2 . ",
". 2 5 5 5 = . o : > 5 5 > : 2 5 1 : , 5 5 : : 4 5 < : < 5 4 : : 5 5 > : 1 5 1 : > 5 5 : : 4 5 1 : < 5 4 : : 5 5 # . = 5 5 5 2 . ",
". 2 5 5 5 = . o : > 5 5 > : 2 5 1 : , 5 5 : : 4 5 < : < 5 4 : : 5 5 > : 1 5 1 : > 5 5 > : 4 5 1 : < 5 4 : : 4 5 # . = 5 5 5 2 . ",
"O : > > > * O # : : > > 4 4 < > 1 4 2 > > 4 4 , > 1 4 1 > , 4 4 > > 2 4 1 > < 4 4 > > 4 4 < > 1 4 1 > , 4 4 > > # O * > > > : O ",
"O = : : : * O $ : : : : 4 5 < : 1 5 4 : : 5 5 > : 1 5 1 : > 5 5 : : 4 5 < : < 5 4 : : 5 5 , : 1 5 2 : > 5 5 > : $ O * : : : = O ",
". 6 c c c > . o # # % % = : = % = : = % % : : * % = : = % = : - % % = : = % = : = % % = : = % = : = % * : : # + o . > c c c 6 . ",
". -.g.g.g.2 . . . . O O O O O O O O O O O O O O O O O O O O O O O O O O O O O O O O O O O O O O O O O O O O . . . . 2 g.g.g.-.. ",
". -.g.g.g.2 . . o o # # # $ # # # # # # # # # # # $ # # # # # # # # # # # $ # # # # # # # # # # # $ # # # # o o . . 2 g.g.g.-.. ",
". -.g.g.g.2 . o : : : : : : : : : : : : : : : : : : : : : : : : : : : : : : : : : : : : : : : : : : : : : : : : o . 2 g.g.g.-.. ",
". -.g.g.g.2 . o : : : : : : : : : : : : : : : : : : : : : : : : : : : : : : : : : : : : : : : : : : : : : : : : o . 2 g.g.g.-.. ",
". -.g.g.g.2 . + 4 6 #.#.5 4 n #.n 4 6 #.] 4 4 ( #.0 4 0 #.U 4 4 #.#.5 4 n #.n 4 5 #.#.4 4 U #.0 4 8 #.( 4 4 ] #.% . 2 g.g.g.-.. ",
". -.g.g.g.2 . # 5 8 g.g.0 5 -.g.] 5 k g.g.5 5 8.g.U 5 U g.8.5 5 g.g.h 5 ] g.$.5 h g.g.8 5 <.g.U 5 F g.t.5 5 u.g.= . 2 g.g.g.-.. ",
". -.g.g.g.2 . # 5 5 ] ] / U ] ] ] U / ] ] U U ] ] ` U ` ] ] U U ] ] / U ] ] ] U / ] ] U U ] ] ` U / ] ] U U ] ] % . 2 g.g.g.-.. ",
". -.g.g.g.2 . # 5 5 5 5 t.g.F 5 U g.<.5 8 g.g.h 5 $.g.] 5 h g.g.5 5 8.g.U 5 U g.8.5 5 g.g.k 5 ] g.-.5 0 g.g.8 5 # . 2 g.g.g.-.. ",
". -.g.g.g.2 . # 5 5 l l <.t.U l / t.-.l h t.t.n l ] t.] l n t.t.0 l -.t.U l U t.<.l l t.t.F l ] t.#.l k t.t.h l # . 2 g.g.g.=.. ",
". -.g.g.g.2 . # 5 8 g.g.0 5 -.g.] 5 k g.g.5 5 8.g.U 5 U g.5.5 7 g.g.k 5 ] g.$.5 h g.g.8 5 <.g.U 5 F g.t.5 5 t.g.= . 1 g.g.g.=.. ",
". -.g.g.g.2 . # 5 8 g.g.0 5 -.g.] 5 k g.g.5 5 8.g.U 5 U g.8.5 5 g.g.h 5 ] g.$.5 h g.g.8 5 <.g.U 5 F g.t.5 5 u.g.= . 2 g.g.g.=.. ",
". -.g.g.g.2 . # 5 5 F F $.-.U F / -.] F F -.-.U F ] -.] F U -.-.F F ] -./ F U -.#.F F -.-.U F ] -.] F U -.-.F F $ . 2 g.g.g.-.. ",
". =.g.g.g.2 . # 5 5 5 5 t.g.F 5 U g.<.5 8 g.g.h 5 $.g.] 5 h g.g.5 5 8.g.U 5 U g.8.5 5 g.g.k 5 ] g.-.5 0 g.g.8 5 # . 2 g.g.g.-.. ",
". 0 U U U , . $ 5 5 F F #.-.U F / -.] F J -.-.U F ] -.] F U -.$.J F ] -./ F / -.] F F $.-.U F ] -.] F U -.-.U F & . , U U U 0 . ",
"O = : : : * O = 5 8 g.g.0 5 -.g.] 5 k g.g.5 5 8.g.U 5 U g.8.5 5 g.g.h 5 ] g.$.5 h g.g.8 5 <.g.U 5 F g.t.5 5 u.g.> O * : : : = O ",
"O ; : : : * O = 5 5 u.u.8 5 ] u.U 5 0 u.t.5 5 <.u.n 5 F u.-.5 5 t.u.0 5 ` u.] 5 l u.t.5 5 -.u.U 5 n u.<.5 5 8.u.: O * : : : ; O ",
". 1 5 5 5 = . . X o % % # # % % % # # % % # # % % $ # % % % # # % % # # % % % # # % % # # % % % # $ % % # # % % o . = 5 5 5 1 . ",
". 2 5 5 5 = . . . . O O O O O O O O O O O O O O O O O O O O O O O O O O O O O O O O O O O O O O O O O O O O O O . . = 5 5 5 2 . ",
". 2 5 5 5 = . . o o * * * * * * * * * * * * * * * * * * * * * * * * * * * * * * * * * * * * * * * * * * * * * * o . = 5 5 5 2 . ",
". 2 5 5 5 = . . O # : : : : : : : : : : : : : : : : : : : : : : : : : : : : : : : : : : : : : : : : : : : : : : o . = 5 5 5 2 . ",
". 2 5 5 5 = . . O # : : : : : : : : : : : : : : : : : : : : : : : : : : : : : : : : : : : : : : : : : : : : : : o . = 5 5 5 2 . ",
". 2 5 5 5 = . . O # : : : : : : : : : : : : : : : : : : : : : : : : : : : : : : : : : : : : : : : : : : : : : : o . = 5 5 5 2 . ",
". 2 5 5 5 = . . O # : : : : : : : : : : : : : : : : : : : : : : : : : : : : : : : : : : : : : : : : : : : : : : o . = 5 5 5 2 . ",
". 2 5 5 5 = . . . . o o o o o o o o o o o o o o o o o o o o o o o o o o o o o o o o o o o o o o o o o o o o o o . . = 5 5 5 2 . ",
". 2 5 5 5 = . . . . . . . . . . . . . . . . . . . . . . . . . . . . . . . . . . . . . . . . . . . . . . . . . . . . = 5 5 5 2 . ",
"o , 1 1 1 & . . . . o o o o o o o o o o o o o o o o o o o o o o o o o o o o o o o o o o o o o o o o o o o o o o . . & 1 1 1 , o ",
"O = : : : # . . . . O O O O O O O O O O O O O O O O O O O O O O O O O O O O O O O O O O O O O O O O O O O O O O . . # : : : = O ",
"O = : : : # . . . . # # # # # # # # # # # # # # # # # # # # # # # # # # # # # # # # # # # # # # # # # # # # # # . . # : : : = O ",
"            . . O # : : : : : : : : : : : : : : : : : : : : : : : : : : : : : : : : : : : : : : : : : : : : : : o .             ",
"            . . O # : : : : : : : : : : : : : : : : : : : : : : : : : : : : : : : : : : : : : : : : : : : : : : o .             ",
"            . . O # : : : : : : : : : : : : : : : : : : : : : : : : : : : : : : : : : : : : : : : : : : : : : : o .             ",
"            . . O # : : : : : : : : : : : : : : : : : : : : : : : : : : : : : : : : : : : : : : : : : : : : : : o .             ",
"            . . o o $ $ $ $ $ $ $ $ $ $ $ $ $ $ $ $ $ $ $ $ $ $ $ $ $ $ $ $ $ $ $ $ $ $ $ $ $ $ $ $ $ $ $ $ $ $ X .             ",
"            . . . . . . . . . . . . . . . . . . . . . . . . . . . . . . . . . . . . . . . . . . . . . . . . . . . .             ",
"            . . . . . . . . . . . . . . . . . . . . . . . . . . . . . . . . . . . . . . . . . . . . . . . . . . . .             "
};
