/* XPM */
static char *result[] = {
/* columns rows colors chars-per-pixel */
"64 64 238 2 ",
"   c #010002",
".  c #0A0809",
"X  c #110D0C",
"o  c #100C12",
"O  c #0E1118",
"+  c #111215",
"@  c #191717",
"#  c #131519",
"$  c #16181E",
"%  c #24120E",
"&  c #351409",
"*  c #2A1711",
"=  c #331C13",
"-  c #352115",
";  c #3D251A",
":  c #050B26",
">  c #161727",
",  c #1A1D24",
"<  c #231E30",
"1  c #1D2127",
"2  c #2A2728",
"3  c #353135",
"4  c #45271A",
"5  c #442A1D",
"6  c #492D1F",
"7  c #562F1F",
"8  c #452D22",
"9  c #4D2D21",
"0  c #4E3122",
"q  c #533223",
"w  c #5B3525",
"e  c #5D3927",
"r  c #55392C",
"t  c #522D33",
"y  c #613B27",
"u  c #643C2A",
"i  c #693E2B",
"p  c #75382C",
"a  c #792F36",
"s  c #554337",
"d  c #64412A",
"f  c #6C422D",
"g  c #73482E",
"h  c #6D4632",
"j  c #65493A",
"k  c #744630",
"l  c #764932",
"z  c #7B5335",
"x  c #473C43",
"c  c #673A4B",
"v  c #375767",
"b  c #484A5D",
"n  c #534850",
"m  c #5A5B5C",
"M  c #705450",
"N  c #765858",
"B  c #73625B",
"V  c #465663",
"C  c #545D6B",
"Z  c #6D5B6C",
"A  c #53636C",
"S  c #5B6676",
"D  c #676767",
"F  c #6A6466",
"G  c #6C6C6C",
"H  c #79686A",
"J  c #786E71",
"K  c #737374",
"L  c #7C7577",
"P  c #7B7B7C",
"I  c #AA3C3C",
"U  c #CD3A36",
"Y  c #894E37",
"T  c #8D553A",
"R  c #895A39",
"E  c #91583C",
"W  c #946A34",
"Q  c #9C7532",
"!  c #C14D1C",
"~  c #C75A28",
"^  c #CC5438",
"/  c #CE6738",
"(  c #D06C3C",
")  c #D0703D",
"_  c #94394E",
"`  c #B43E50",
"'  c #8B534C",
"]  c #874757",
"[  c #AD4B4F",
"{  c #996849",
"}  c #8E6A55",
"|  c #AD6E49",
" . c #A97755",
".. c #B67D56",
"X. c #865864",
"o. c #935665",
"O. c #B4576C",
"+. c #8C6C6D",
"@. c #887A75",
"#. c #B36C75",
"$. c #D84947",
"%. c #DB4B4D",
"&. c #DC5549",
"*. c #D25157",
"=. c #DC5656",
"-. c #DE5B5D",
";. c #C6684E",
":. c #D67849",
">. c #DB6859",
",. c #E16B5A",
"<. c #E3785C",
"1. c #C85975",
"2. c #D3696E",
"3. c #E16963",
"4. c #E37867",
"5. c #C88E34",
"6. c #F48537",
"7. c #B4825E",
"8. c #ACAF53",
"9. c #9E8E65",
"0. c #978D76",
"q. c #AC876A",
"w. c #B28F6F",
"e. c #AD8C79",
"r. c #D5914F",
"t. c #C68658",
"y. c #D98655",
"u. c #E9965A",
"i. c #F79453",
"p. c #D8A656",
"a. c #D9B65A",
"s. c #FFA75D",
"d. c #C58B66",
"f. c #CA956C",
"g. c #D99566",
"h. c #D28F77",
"j. c #D49C75",
"k. c #E58967",
"l. c #E49B66",
"z. c #EA9C65",
"x. c #E69768",
"c. c #EA9E68",
"v. c #F39960",
"b. c #E78D74",
"n. c #E89876",
"m. c #D5A273",
"M. c #EBA06A",
"N. c #EAA16A",
"B. c #F3A36A",
"V. c #F4A469",
"C. c #E7B168",
"Z. c #ECA773",
"A. c #EDA976",
"S. c #E5A77A",
"D. c #EEAD7D",
"F. c #FAAC73",
"G. c #FFB375",
"H. c #FCB67B",
"J. c #DAC75D",
"K. c #DBD05F",
"L. c #DBD560",
"P. c #DCDC62",
"I. c #FFC07C",
"U. c #DCE163",
"Y. c #6F6D84",
"T. c #857F81",
"R. c #B87788",
"E. c #C57487",
"W. c #6FC5CC",
"Q. c #78CCD5",
"!. c #59CFE5",
"~. c #6FD7E7",
"^. c #838384",
"/. c #888787",
"(. c #8B8B8C",
"). c #958B8A",
"_. c #949494",
"`. c #9C9593",
"'. c #9B9B9B",
"]. c #AA9383",
"[. c #B88795",
"{. c #AF959A",
"}. c #A6B39B",
"|. c #B69AA1",
" X c #A3A3A4",
".X c #AEAEAE",
"XX c #B2A6AA",
"oX c #B7AEB1",
"OX c #B8B4B6",
"+X c #BCBCBD",
"@X c #C48796",
"#X c #C38C98",
"$X c #C8AC93",
"%X c #ECAD81",
"&X c #E8A986",
"*X c #EFB385",
"=X c #EFB588",
"-X c #F0B486",
";X c #FFBD87",
":X c #F0B689",
">X c #F2BA8C",
",X c #FABD8D",
"<X c #E9B392",
"1X c #F2BB93",
"2X c #F3BD97",
"3X c #C49CA7",
"4X c #C4A4AA",
"5X c #D8B8A6",
"6X c #C4ABB1",
"7X c #C3B4B9",
"8X c #C2BBBE",
"9X c #A9C2B6",
"0X c #FFCB8F",
"qX c #FFC492",
"wX c #FDC997",
"eX c #FDD4A1",
"rX c #FFE9AE",
"tX c #BFBFC0",
"yX c #C2BEC1",
"uX c #C8BFC9",
"iX c #8ACFD6",
"pX c #B8CECD",
"aX c #8DDEEE",
"sX c #9EDBE4",
"dX c #A2DEE9",
"fX c #90E3F7",
"gX c #ADE6F0",
"hX c #C3C3C4",
"jX c #C4C9C9",
"kX c #CACACC",
"lX c #C5DCE2",
"zX c #C7E5ED",
"xX c #C6EBF3",
"cX c #CAEDF5",
"vX c #CEF3FB",
"bX c #C6FAFF",
"nX c #D8F6FC",
"mX c #E6FDFE",
/* pixels */
"hXhXhXhXhXhXhXhXhXhXyXyXyXtXtXtXoX0 0 r l h h h h h h h h h h h h i i y i u i i i u i i i i i u q - - _.+X`.- - - - - - - H  X X",
"hXtXjXhXhXhXkXhXhXhXyXhXtXtXtXtX+X; ; 0 i e y y u u u u u u y y u u u y y u f f i i i i f i i d w - - ).oX`.- - - - - - - G  X X",
"kXkXyXhXkXkXhXhXhXhXkXkXkXhX'.0.0.0 6 y z g z g l l g k l g l l k l k l l l e e y y y y e y i i y 6 5 M B M 9 q ; - - - - s B B ",
"hXhX8XpXkXkXkXhXhXhXhXhXhXhXn 5 4 g d z Q Q W Q W T E R T T T T T T T T E R 0 5 6 8 6 6 8 6 i i d i d 4 - 5 i i 4 - - - - - = = ",
"hXyXhXhXhXhXpX8XpX8XhXhXhXhXB 4 ; y w g Q Q W W W T T T T E T T T T T T E T q 4 8 6 6 6 8 9 i h f i f 4 - 4 p i 5 - - - - - - - ",
"yXhXjXjXhXhXhXhX8XhXhX'.B B d w w R R R R R R R T g g g k l k g l k k g l k u w y w y y y w w q w f f f k g - - e d q - - - - - ",
".X.XoX.X.X.X.X.X.X.X.XJ 5 ; e f f Q Q W Y Y R T Y y u i u u e e e w e e e e y i u u u u u u 4 4 7 f f q 4 6 = = e d d - - - - - ",
".XoX.X.X.XoX.X.X.X.X.X0.5 4 e f i W W W Y T Y T Y d u d i i f f f f k f f f f f g f f f g f q 6 q f f q 4 6 p p p i d d d 0 - - ",
"yXhXtXtXtXtX+X+XyXyX X@.5 ; e f f R T R T T k f u 6 6 8 5 4 t.B.l.l.l.l.l.l.l.l.l.l.l.l.c.x.g y i i f q 4 9 ,.<.Y p Y c.c.E = - ",
"pXyXtXtXtXtX+X+XyXyX X@.6 4 e f i R Y T T T g f e * * * % % t.G.B.B.B.B.B.B.B.B.B.B.B.B.V.B.u 4 e f g q 4 9 ,.,.Y p T z.c.{ - - ",
"hXhXjXkXtXtX+X+XjXhX X@.5 4 e f f Y T Y l Y y q u z Y z z z g.H.Z.Z.Z.Z.Z.Z.Z.A.Z.Z.Z.Z.A.Z.{ W R q e 0 4 6 3.3.,.:.<.x.M.{ e e ",
"hXhXkXkXtXtX+X+XkXkX.X@.5 ; e i f T E l y i 5 * e G.G.F.G.G.-X:X:X:X:X:X:X:X:X:X:X:X:X:X:X-XG.H.t.* ; 4 6 6 -.3.,.<.g.x.c.| d i ",
"yXyXyXyXpX8X8XtX+XpXXX^.; ; e d d E { Y i g 4 X 8 B.B.z.z.z.D.*X-X*X*X*X*X*X*X*X*X*X*X*X:X*XM.F.| = 6 6 4 9 -.3.<.<.k.x.c. .j l ",
"yXyXyXhXhXhXtXtX8XB M j e e i f i e y q q 9 E ....D.D.A.D.D.*X*X*X*X*X*X*X*X*X*X*X*X*X*X*X*XD.;X7.= 6 6 8 9 -.3.4.b.n.x.c.q.G K ",
"OX.X.X.X.X.XoX.X.X5 ; q g f d f u ; ; - = % t.I.G.=X*X>X1X,X>X,X,X,X,X:X*X*X*X*X*X*X*X*X*X*X:XwXw.* 4 5 4 4 -.,.4.b.n.z.x.q.G G ",
".X.X.X.X.X.X.X.X.Xr 8 q f i i f u 6 4 6 0 4 t.G.N.*X*X*X%XS.D.&XS.%XS.*X=X*X*X*X*X*X*X:X*X*X*X0Xd.= 5 6 7 7 =.=.,.4.k.x.x.q.G K ",
"kXkXtXtXhXhXtXhXyXOX7X@.k p f f u 4 * R Z.l.D.-X*X*XqX .e f k k g f 7 7.wX*X*X*X-X-X-X-X-X*X-X0X7.= 4 I $.$.%.=.,.<.k.v.z.q.G J ",
"lXkXtX8XhXtXhXtXyX8X8X{.f f w 7 7 4 * W H.V.-X=X*X*XwX .& 5 4 6 4 4 &  .wX*X*X*X%X-X%X,XqXqXqXeXf.= 6 I %.%.*.=.,.k.k.x.z.q.G K ",
"kXkXkXkXhXkXhXhXhX).(.} f y R { W 6 % ' G.c.D.-X*X*XqXd.R { { { { { ' d.qX*X*X*X-X-X>Xj.7.d.d.f.{ = 4 p a a _ _ ] N B F F D D D ",
"kXkXkXkXhXhXjXhXhX8 ; 0 f w t.0Xc.6 % R G.c.D.:X*X*X*X,XqXqXqX,XqX0XqX>XD.*X*X*X*X-X0X{ - 7 7 7 q ; 8 ; 8 8 _ ] ] N Z F F D D D ",
"tXhXkXkXhXhXtXhX8X0 ; q f w 7.G.g.5 % R G.c.D.-X*X*X*X*X*X*X*XD.-X0X0X,X*X*X*X*X*X-XqX .w g w 7 9 4 4 4 4 8 _ ] #.#.e.].e.@.D D ",
"tXjXkXkXhXhXhXtXhX8 ; q f 7 t.G.g.5 % { G.c.D.=X*X*X*X:X*X*X*XqXj.s s  .0X-X*X*X*X*XwXz X * 7.m.{ = 4 Y _ [ ] ] 2.&X<X1XwX].D D ",
".X.X.XOXoX.X.X.X.X4 4 7 f w t.G.g.6 % R G.c.D.:X*X*X*X*X*X*X*XwXw.    j eX-X*X-X-XD.eXs     %XrXj.= 8 I =.*.] ] h.&X<X1X2X].D D ",
".X.X.X.X.X.X.X.X.Xr 8 q f w t.G.g.6 % R G.M.D.=X*X*X*X*X*X*X*XqXf..   } wX*X*X-X-X-XeXj . X m.eX .* 8 _ =.*._ ] ,   3 <X2X].D D ",
"hXtXhXjXyXhXtXtX+XoX{.} f w t.G.u.6 % R G.c.D.=X*X*X*X*X=X*X*X-XD.S.S.*X*X*X*X*X*X*X*X%XS.&X*XqX#.I _ *.-.*._ ] @   ; wX2X].D D ",
"tXtXkXhXhXhXtXtX+X7X|.@.i q t.0XN.*   z G.z.D.*X*X=X:X=X%X*X1X1X,XqX,X>X*X*X*X*X*X*X*X>X,XqX*XD.b.` ` *.>.3.O.#.c 3 n e.].@.G G ",
"kXhXhXhXhXhXjXkXhX).+.N i e | t...R f  .H.Z.*X=X*XD.D.%X=X*Xl.x.N.=X*X*X*X*X*X*X=X*X*X*X*X*X*X*Xb.*.*.-.3.3.4.n.+.B F F D G K P ",
"hXhXhXkXjXhXkXkXhX5 4 7 h i w 4 y F.G.H.=X-X*X=XD.z.z.Z.=X=X:.! ) =X*X*X*X*X*X*X*X*X*X=X*X*X*X*Xb.%.-.3.4.4.b.n.+.B F D D G K P ",
"hXhXhXhXhXtXhXhXhX5 4 q g f i e g z.B.Z.-X*X-X=XD.M.z.Z.:X:X) ! ) 1X1X1X1X,X1X>X1X1XqX=X*X*X*X:Xb.=.-.3.4.b.n.n.j.j.$Xm.$X0.J P ",
"hXhXjXjXtXtXhXhX8X).+.N q 0 y y g c.B.A.:X*X*X=X*XM.z.A.:X:XS.l.x.y.y.y.y.y.y.y.y.y.:.N.>X*X*X*X&X*.3.3.k.n.&XS.&X%X%X*XD.e.L P ",
"}..X.X.X.XoX.X.X.XXXXX@.; ; e y g c.B.Z.:X*X*X*XD.M.z.Z.:X*X>XwXD.~ ~ ~ ~ ~ ~ ~ ~ ~ ! y.2X-X*X*Xb.%.-.3.4.k.x.n.%X:XD.D.D.e.G P ",
"oX.X.XoX.X.X.X.X.XXXXX+.0 5 e y l c.c.Z.:X*X*X=X*XM.z.Z.:X-X-X>XZ./ ) ( ( ) ) ) ( ( / x.>X-X*X%Xb.U U ^ ^ ^ / / n.-XD.M.M.q.K P ",
"yXyXhXjXhXyXhXkXhX8X7X4X[.[.M e g c.M.A.:X-X%X=XD.M.z.A.:X*X*X*X*X%X*X*XD.*X*XD.%X%X%X-X-X-X*X*Xk.U U ^ ^ ^ ( / Z.-X%Xc.B.q.K L ",
"yXhXjXhXyXyXhXhXyXyX7X6X3X#XY e g c.B.D.>X:X:X=X*Xc.u.A.1X:X*X-X*X:X:X>X:X:X:X:X:X:X>X:X%X-X:X:Xn.=.-.>.4.k.c.n.D.-X%Xc.c.w.G P ",
"kXjXhXhXkXkXhXjXhXhX8X7X6X3X .] ' b.b.g.%XD.%X>X*XZ.Z.A.D.D.-X-X*X*X*X*X*X*X*X*X*X*X*X*X-X*XD.A.b.-.3.4.b.&X%X-X-X*XD.c.c.w.K P ",
"jXkXhXjXkXkXhXjXhXhXuXuX7X6X#X@XR.E.1.2.z.z.D.=X*X*X>XD.u.z.D.:X*X*X*X*X*X*X*X*X*X-X*X-X-X-Xc.z.k.-.3.4.b.n.%X%X-X*X%XB.Z.e.K P ",
"yXyXjXhXhXhXhXtXhXyXyX8X8X7X4X3X@XE.E.h.c.c.%X>X=X:X>XD.u.M.-X:X:X:X:X-X:X:X:X:X:X:X:X:X:X:XB.c.x.-.3.4.b.A.&X%X*X*X*X*X-Xe.K P ",
"yXhXhXjXhXjXtXhXhXyXyXyXhX8X7X6X[.#X@XE.h.2.n.A.Z.Z.A.N.M.M.M.A.Z.Z.Z.Z.A.Z.Z.Z.Z.Z.Z.Z.A.Z.3.,.,.-.3.4.b.n.%X%X*X*X*X*X-Xe.K P ",
".X.X.X.X.X.X.X.X.X.XoX.X.XXXXX|.|.[.[.R.R.R.x.z.M.u.v.z.C.M.z.z.M.z.c.z.c.c.N.z.z.z.z.z.z.z.%.%.%.-.,.4.b.b.Z.Z.D.A.m.e.e.0.K 0.",
".X.XoX.X.X.X.X.XOX.X.X.X.X.X.XXXXX|.|.[.[.R.g.z.v.N.S.M.z.N.z.V.M.M.c.c.z.u.c.l.c.z.x.z.z.z.%.%.%.=.,.<.k.v.z.c.M.M.f.D D G P Y.",
"jXhXtXtXtXtX+X+XtXtX X.XhXyXtX8XOX7X7X6X4X3X#X@X@XQ.~.}.i.i.u.u.u.u.u.>.*.%.%.%.%.%.%.%.&.&.%.%.&.>.>.<.k.x.c.M.M.M.f.K K Y.)._.",
"hXtXtXtXtXtX+X+XtX+X.X XyXyXhXhXyX8X8X7X6X6X3X#X#XW.!.}.:.6.i.s.i.6.6.;.` ` $./ ^ $.$.$.$.$.$.&.*.] X.H H G J G K K K K P ^.(.'.",
"hXjXkXjXtXtX+X+XjXkX.X X+X+XhXhXhXhXhXhXyX7XuXuXuXiXaXOXN.$X7.{ 7.<X&X4X[.[.;.) ( &.&.&.^ &.&.>.[ X.X.+.+.K P P P P ^.^./._. X X",
"jXhXkXkXtXtX+X+XkXkX X.X+X+XjXhXhXjXhXhXuXyXzXcXcXcXmXdX!.~.v : v bXbXbXxXxXt.:.:.:.:.;.[ [ y.y.t.7.w.@.P @.^./.^.^.(.(._. X XOX",
"tXtXhXhXhXhX+XtXyXhX X.XhXjXhXhXhXjXyXyX8X8XlXcXxXxXnXsXW.Q.V < A vXcXxXxXcXy.r.r.p.p. .c c m.a.J.J.L.0.^./.(.(._._._._.'.'. X.X",
"tXtXtXhXhXtXtXtXyXpX.X XhXhXjXjXjXhXhXjXlXlXzXcXcXxXxXgXsXgXV : V vXcXxXxXxXy.r.p.a.a.9.b b J.J.K.L.U.0./._._.'.'. X X X X.X.XOX",
".X.XOX.X.X.X.X.XOX.X.X.XoX.XoXoX.X.X.XpXcXxXcXcXxXcXcXcXvXnXb . b vXcXxXxXcXr.5.5.a.J.9.Y.Y.a.L.P.P.U.0.P /._.'.'.'.'. X X X X.X",
".X.X.X.X.X.X.XoX.X.X.X.XoX.X.X.X.X.X.XpXxXxXxXxXxXxXxXxXvXvXb o V vXcXxXcXcX7.5.5.a.J.e.Y.Y.L.P.P.U.U.0.^./._.'. X X X.X X.X.X.X",
"kXkXkXhXhXhXhXtXhXtXhXkXhXtXhXhX8XpX8XpXdXdXgXdXdXQ.Q.sXvXvXC > C vXcXxXcXxXiXQ.}.a.K.9.Y.Y.U.U.U.U.U.9.).]. X.X+XpX+XtX+XtX X.X",
"kXkXtXhXhXhXtXhXtXhXhXkXtXhXhXtXhXhXhXpXfXfXfXfXfXQ.W.sXnXvXC > A vXcXxXcXcX~.!.W.p.J.} b b U.P.U.U.U.C.N.j. XOXOX+XtXhXtXtX.X X",
"kXkXkXkXjXhXhXjXhXjXkXhXhXhXtXhXhXkXhXhXpXpXjXjXpXQ.W.sXnXvXA > C vXcXxXcXxX9X}.}.r.a.9.b b P.U.U.U.U.C.N.j.'. X+XhXhXhXjXkX X.X",
"jXkXjXkXhXjXhXhXhXhXhXhXhXhXhXtXhXkXhX5XH.F.F.F.&XQ.W.sXvXvXA > C vXcXxXxXcXV.i.i.r.g.+.C Y.P.P.U.U.U.C.N.j._. XOXhXtXhXkXkX X.X",
"tXtXkXkXkXhXhXtXhXhXjXjXhXhXhXhXhXyXhX5X*X*XqX0XeX~.~.gXmXmXS > S nXnXmXmXnX*Xu.u.y.r.q.Z Y.J.L.U.U.U.C.N.j.(.'.'..XOX+XyXtX X.X",
"tXtXkXkXhXhXhXhXtXhXjXkXhXhXhXtX8XpXhX5X*X-X} r M v v V G S 3 , 3 S S A A A g.V.g.| | { Z C 8.8.8.8.8.p.N.f./.(.'..XOX+XtXhX.X X",
".X.X.X.X.X.X.X.X.X.X.X.XoX.X}.oX.XoX.X$X-XqX2     . . .     # , #           t.F.t., , , , , , , 1 1 , 7.N.f.L P _._. X X.X.X.XoX",
".X.XOX.X.X.XOX.XoX.X.X.X.X.X.X.XoX.X.X$X%XwXn   # , , , 1 , , , , , , 1 > 1 g.B..., , , , , , , 1 1 , 7.N.f.K 0._._. X.X.X.X.X.X",
"tXtXhXhXyXhXtXtXtXtX.X X+X+XtXtXtXtX+X7X6X4Xx O , , < $ + + O > # # O $ , O 3 2 1 # # # # # # # # , , B @.0.P /._..XOX+XtX8X8XtX",
"tXtXkXjXhXyXtXtXtXtX X.X+X+XtXtXyXyX+XOX6XXX3 2 , , , $ O + O O O O o $ , > > > , O + # + # + + $ , , m G K P /.'..XOX8XtXpXtXtX",
"hXhXjXhXhXjXjXkXhXhX}. XtXtXkXkX+X+X+XOX6XXXx , , , , 2 t t t t 8 # O @ , 1 $ , > O O + + + # # $ , , m K K P (. X.XpXjXhXhXkXkX",
"kXjXhXhXjXhXkXjXhXjX.XXXtXtXkXkX+X+X+X+XOX4Xx , , , < c 1.1.1.1.O.O O > , , , , 3 o._ N X.J O + $ , , m K P ^._. XOXhXjXhXhXkXjX",
"hXhXhXhXtXtXhXhXhXhX.X X+X+XjXhXhXhXtX+XOXOXn 1 , , < c 1.1.1.1.o.O + , 1 1 , , 3 o.N X.H K # + $ , , m K P _.'. X.XOXOXyXtXhXyX",
"8XtXhXjXtXyXyXhXpXhX X.X+X+XhXjXhXhXtXtX+XOX3 # @ + + c 1.1.1.E.O.. . X @ # # # 3 o.] Z @.P . . O + $ m P ^._.'..X.X+X+XtXtX8XpX",
".XOXoX.X.XoX.X.X.X.X.X.XOX.XoX.X.X.X.X.X.XXX2 . X X X t O.1.O.R.o.      + X X X 2 X.X.H J @.    . + + m K ^.(._. X X.X.X.X.X.X.X",
".X.X.X.X.X.X.X.XoX.X.X.X.X.X.X.XoX.XoX.X.X.Xt @ @ + % c 1.O.E.R.+.. . X X X X + 2 X.X.L T./.    . X X m K ^.(._. X.X.XoX.XoX.X.X"
};
