/* XPM */
static char *result[] = {
/* columns rows colors chars-per-pixel */
"64 64 226 2 ",
"   c #020201",
".  c #090C08",
"X  c #160B0E",
"o  c #0C130B",
"O  c #081B08",
"+  c #131B0E",
"@  c #171B14",
"#  c #241919",
"$  c #0B250B",
"%  c #14290D",
"&  c #0A310C",
"*  c #132412",
"=  c #122B12",
"-  c #1C2819",
";  c #143B13",
":  c #183718",
">  c #232619",
",  c #263719",
"<  c #231E23",
"1  c #371A27",
"2  c #1E3C20",
"3  c #2B2929",
"4  c #362C2B",
"5  c #273A24",
"6  c #373C26",
"7  c #373636",
"8  c #441C2D",
"9  c #462833",
"0  c #61273B",
"q  c #104D0E",
"w  c #164717",
"e  c #195618",
"r  c #21581F",
"t  c #32541D",
"y  c #1D631B",
"u  c #21651E",
"i  c #236B1E",
"p  c #274724",
"a  c #374728",
"s  c #2A582A",
"d  c #3D552A",
"f  c #3A4C37",
"g  c #2F5530",
"h  c #296327",
"j  c #256C23",
"k  c #296E25",
"l  c #30642E",
"z  c #257224",
"x  c #297426",
"c  c #257A23",
"v  c #297A26",
"b  c #2C762A",
"n  c #2C7B2B",
"m  c #35742F",
"M  c #317B2D",
"N  c #356A34",
"B  c #347D32",
"V  c #387937",
"C  c #4C5435",
"Z  c #4D752E",
"A  c #4C6636",
"S  c #503745",
"D  c #713B4B",
"F  c #484547",
"G  c #4C4B47",
"H  c #575757",
"J  c #6B4852",
"K  c #785859",
"L  c #67665B",
"P  c #685D60",
"I  c #686567",
"U  c #787175",
"Y  c #883D56",
"T  c #903B51",
"R  c #89465A",
"E  c #904859",
"W  c #A2455D",
"Q  c #8A4D61",
"!  c #9C4C64",
"~  c #925868",
"^  c #9A586C",
"/  c #A84B65",
"(  c #B54965",
")  c #BF4E6A",
"_  c #AD566E",
"`  c #B3546D",
"'  c #BE526D",
"]  c #BB5B74",
"[  c #BD5B74",
"{  c #8A6E77",
"}  c #A36777",
"|  c #BB647A",
" . c #BA677C",
".. c #C85673",
"X. c #C65A76",
"o. c #C75E79",
"O. c #C5647D",
"+. c #C9647E",
"@. c #2E822B",
"#. c #2C862A",
"$. c #31842D",
"%. c #328B2E",
"&. c #358333",
"*. c #388435",
"=. c #348A34",
"-. c #3B853A",
";. c #3C8A3A",
":. c #399736",
">. c #3D923B",
",. c #3BA53A",
"<. c #418D3F",
"1. c #5B8938",
"2. c #42933E",
"3. c #429A3F",
"4. c #66983E",
"5. c #3F9240",
"6. c #438D42",
"7. c #449442",
"8. c #459A44",
"9. c #499C46",
"0. c #479548",
"q. c #4C9E4A",
"w. c #658548",
"e. c #6E984B",
"r. c #4AA247",
"t. c #49A747",
"y. c #4DA34B",
"u. c #51A94D",
"i. c #4DB24B",
"p. c #51B44E",
"a. c #53AB51",
"s. c #55B453",
"d. c #57BC55",
"f. c #77AF4C",
"g. c #7AA653",
"h. c #5AC556",
"j. c #5FD15E",
"k. c #62CC5F",
"l. c #85B259",
"z. c #9BA67A",
"x. c #87C457",
"c. c #8DCD5B",
"v. c #8ED259",
"b. c #91D25D",
"n. c #93CD61",
"m. c #93D362",
"M. c #97D466",
"N. c #9ADC65",
"B. c #9BDC6A",
"V. c #A2DA6D",
"C. c #A2D973",
"Z. c #9DE266",
"A. c #A1E46E",
"S. c #A4EA6D",
"D. c #A4F169",
"F. c #A9E776",
"G. c #B5EB79",
"H. c #AEF773",
"J. c #B6F87A",
"K. c #8E7984",
"L. c #B96E80",
"P. c #A57886",
"I. c #B57687",
"U. c #B97384",
"Y. c #B47D8B",
"T. c #C56B82",
"R. c #C96A82",
"E. c #C67589",
"W. c #C47A8D",
"Q. c #C47E90",
"!. c #8A888B",
"~. c #9B888F",
"^. c #9A979A",
"/. c #B7808E",
"(. c #AA8A93",
"). c #B58591",
"_. c #B68B97",
"`. c #B58C96",
"'. c #AA9A9F",
"]. c #B4959D",
"[. c #AA9DA2",
"{. c #B39CA2",
"}. c #BF9CA6",
"|. c #A9A5A6",
" X c #AEAEAE",
".X c #B1A2A6",
"XX c #B1A6A9",
"oX c #BEA4AC",
"OX c #B0AAAC",
"+X c #BEACB2",
"@X c #B9B4B6",
"#X c #BCBCBD",
"$X c #C48394",
"%X c #CB8497",
"&X c #C48B9A",
"*X c #C0909D",
"=X c #C595A2",
"-X c #C49BA6",
";X c #CA9CA8",
":X c #C5A3AC",
">X c #C2A8AF",
",X c #CAA7B1",
"<X c #C4ACB3",
"1X c #CCACB5",
"2X c #C4B2B7",
"3X c #C4B5B9",
"4X c #CBB6BD",
"5X c #C2BBBE",
"6X c #B6EC87",
"7X c #B7F583",
"8X c #BFF790",
"9X c #C3F985",
"0X c #CFF797",
"qX c #C3FA94",
"wX c #C5FB98",
"eX c #CBFF9C",
"rX c #CEFFA1",
"tX c #D9FFA6",
"yX c #E5F8AF",
"uX c #BFBFC0",
"iX c #C3BEC0",
"pX c #CBBCC1",
"aX c #C3C3C4",
"sX c #C7C7C8",
"dX c #CAC5C8",
"fX c #CBCBCC",
/* pixels */
"aXaXaXaXaXaXaXsXuXaXuXuXuXuXuXuXuXuX#X#XuXuXuXuXaXsXaXsX#X#X X|.uXuXsXaXaXuXsXaXuXaXuXaXuXuXuXuXuXuX#X#XuXuXuXuXsXaXsXsX#X#X|.|.",
"aXuXaXaXaXaXsXaXaXuXaXuXuXuXuXuXuXuX#X#XuXuXuXuXsXaXsXaX#X#X|. XaXuXaXaXuXaXaXsXaXaXaXuXuXuXuXuXuXuX#X#XuXuXuXuXaXsXsXfX#X#X|. X",
"fXsXaXaXfXfXaXsXaXsXaXsXsXaX#X#X#X#X#XuX#X#XuXsXsXsXfXfXsXsX X|.sXfXuXaXfXfXsXaXsXaXsXaXaXaXuX#X#X#X#X#X#X#XsXaXsXaXfXfXsXsX|. X",
"sXsXuXuXfXfXsXaXsXaXsXaXaXsX#X#X#X#X#XuX#X#XaXaXsXfXfXfXsXsX|.|.sXsXaXuXfXfXaXsXaXsXaXaXaXsX#X#X#X#X#X#X#X#XaXsXsXsXfXfXsXsX|.|.",
"aXuXsXaXaXaXuXaXuXaXaXaXsXaXsXaXuXuXuXaXaXuXaXaXsXaXsXsX#X#X|. XaXuXsXsXsXaXaXuXuXaXuXaXaXsXaXsX#X#XaXuXaXuXaXuXsXsXsXsXuX#X X|.",
"uXaXsXfXuXaXaXsXaXuXaXaXaXsXaXsXuXaXuXuXuXaXuXaXsXsXsXfX#X#X X XuXaXsXfXaXaXuXaXaXaXaXuXsXaXsXsX#X#XaXaXuXaXaXsXsXsXsXfX#X#X|. X",
" X X X X X X X X X X X X X X X X X X X X X X X X X X X X X X X X X X X X X X X X@X X X X X X X X X X X X X X X X X X X X X X X X",
" X X X X X X X X X X X X@X X X X X X X X X X X X X X X X X X X X X X X X X X X X X X X X X X X X X X X X X X X X X X X X X X X X",
"uXaXuXuXuXuX#X#XuXuX|. XuXuXaXuXuXaXuXaXuXaXaXuXaXsXaXaXsXaXsXsXaXuXuXuXuXuX#X#XuXuX|.|.aXuXaXuXaXuXaXuXaXuXaXuXsXsXaXaXsXaXsXaX",
"aXuXuXuXuXuX#X#XuXuX X|.uXuXaXuXaXaXaXuXuXuXuXaXsXsXaXuXaXsXsXdXaXaXuXuXuXuX#X#XuXuX|.|.uXaXuXaXuXaXuXaXuXaXuXaXsXsXaXaXsXsXaXsX",
"aXsXsXfXuXuX#X#XsXsX X X#X#XsXsXsXaXsXaXaXsXaXsXaXsXfXfXfXfXfXfXsXsXfXsXuXuX#X#XsXsX X|.#X#XsXaXsXaXsXaXsXaXsXaXuXsXsXfXfXfXfXfX",
"sXaXfXfXuXuX#X#XsXsX|.|.#X#XsXaXaXsXaXaXsXaXsXaXsXaXsXuX4 < 3 3 < < < : ^.uX@X@XaXaX|.|.#X#XaXsXsXaXaXsXaXsXaXsXsXsXfXfXfXfXfXfX",
"uXuXuXaXaXuXuXuXuXuX X XaXaXsXaXsXaXaXaXaXuXaXaXsXiX XF B -.B V 5.z k -.f F F F F F 7 I |.uXaXaXaXaXaXuXaXuXaXuXsXaXaXaXsXuX#X#X",
"uXuXaXuXaXaXuXuXuX#X X XaXsXaXsXsXsXaXuXuXaXaXaXuXuX< =.h.k.i.:.i.d.g . h =.@.n c c :.y   I iXiXaXaXuXuXaXsXuXaXsXsXaXsXsXaXuX#X",
" X X X X X@X X X X X X X X X X X X X X X|.!.^.H p f 2 N e N s e :.; 2 6.0.p.s.s.:.t.a.a.5.V L |. X X X X X X X X X X X X X X X X",
" X X X X X X X X X X X X X X X X X X X XH = = 8.-.l V O . o + ; r O p h.8.5.;.-.8.y.8.5.t.p.= S ~.^. X X X X X X X X X X X X X X",
"fXfXuXuXaXuXaXuXuXaXaXsXuXaXaXuXaXuXaXH y h.B N : O - 8.y.t.t.p . * N a.q.y.&.z 6.8.*.z z & * = = P {.3X5XaXaXdXaXsXiXaX#X#X|. X",
"fXfXuXuXuXaXuXaXaXuXsXaXaXuXuXaXuXaX^.& h.c * * V s.y.u.p.c . s s.a.t.*.&.;.;.5.c c #.j $ p s.r.,.l o U +X4XiXaXaXaXaXiX#XaX|.|.",
"fXfXfXfXaXsXsXsXaXsXaXaXaXsXuXuXsXsX|.& i.  s d.y.r.7.9.=.* 2 s.>.>.y.-.j y z @.; $ w . o h.r.=.=.s.:.  ~.4X3X#XfXfXdXaXsXfX|. X",
"fXfXfXfXsXaXsXaXsXaXsXsXsXaXaX@XI I 7 w ,.  N j.y.M i :.e . a.y.&.&.q.q.b j @.$ - p 5 p : s d.y.q.5.c w F oX<X3XdXfXdXdXfXsX X|.",
"uXaXfXfXuXuXaXuXaXuXsXaXuXuXK.H l r h p $   * 2 b x n k - N y.3.q.y.8.8.>.n ; - u.h.u.h.7.* w 9.q.z i c o { -X>X+X3X#X5XuXuX|. X",
"uXsXfXfXuXaXuXaXaXaXsXsXaXF r m h.*.- p g N g 2 x @.O     s i.r.&.&.y.y.>.x   6.p.n 9.y.p.6.5 x n y j b s 4 ).-X+X@X5X#XuXaX X|.",
" X X X@X X X X X X X X|.I w t.d.w $ : -.h.>.t.h.=.O p l s s 9.y.n j *.*.j y s 0.9.&.b b B u.s.b e B 7.&.c   /.).].{. X X X X X X",
" X X X X X X X X X X X^.< :.x =.O - j.u.7.&.5.q.= p p.:.s.i.7.q.*.u y y -.b r.a.7.&.u j x B b M j n *.b j r H U.`.].|. X X X X X",
"aXuXsXsXaXuXuXuXuXuX^.p -.&.z ; * 5.8.8.8.9.$.;.o <.s.B i &.7.;.;.u x j b M n b b i k k x k i u ;.V y j n %.+ W.&X:X1XpXiXiX#XuX",
"uXuXaXsXuXaXuXuXuXuX^.g B : n w - d.9.M *.y.2.x . -.s.7.i z k k z j ;.-.u x j y k 2.k v r % x x b b j k x b 4 T.&X;X1X4X5XaXuXuX",
"aXsXsXaXsXaXsXfXaXsX X^.< V y.q.8.0.8.7.7.0.9.j u 8.y.6.j y v v j z z c @.O w =.x v v @.: + n b j j k n c = ! L.%X;X1XpXiXaXsXfX",
"sXaXaXsXaXsXfXsXsXsX^.F -.s.8.8.y.>.8.y.n j 8.n @.7.<.v s & w r %.$.n e r - p y e w r ; ; b j j j j n %.e X ` O.%X=X1XpXiXsXsXfX",
"uXaXsXsXuXuXaXaXuXaX!.- 5.a.q.8.8.&.B y.&.=.9.j e n @.$.@.& X = w q j d X g.C 1 # X + % u i $.@.$.%.x e - / X.+.W.$X}.<X3X#XaXaX",
"aXuXsXsXuXuXaXaXaXuX3 0.#.>.;.<.y.*.e n 0.b j M $ : u w ; C J.g.o >   _ K 1.C ..8 l.9Xl.X 4 q w w q > 8 ` ..o.T.W.&X}.+X3X#XuXaX",
" X X X X X X X X X Xo t.d.5.j n a.6.y x b j j 2.;.$   # : J.G.N.A.G., / Q 1.C W C S.J.L E / 1 8 8 8 T ....) [ | U.).].{.OX X X X",
" X X X X X X X X X XH p 5.y.8.y.8.n j B =.$.x j =.w 0 ( 0 f.N.m.Z.J.% / ~ 4.6 , Z.H.x.1 ( ....) ..( ..( ' [ |  .Y.`.{.XXOX X X X",
"aXaXaXaXuXaXaXsXaXuX X@ z :.=.;.i y k v w O j :.$ Y ....W % G.B.c.Z.e.S L A t B.H.H.A D ..X.X.o.o.O.O.O.T.R.W.$X=X>X2XiX@X#X|.|.",
"uXaXaXaXaXuXsXaXuXiXiX{ ; i i i ;.*.i b p & $ = , ! ......K w.b.c.x.H.w.t a x.H.n.Z ~ X.o.o.T.R.T.E.T.U.W.Q.&X=X,X2XpXpX#X#X X|.",
"sXsXaXaXfXfXaXsXsXaX5X4X{ O c @.<.$.x v #.& A g.F.e.S Y O. .# B.7X6XB.D.Z C.G.b.v.4 T.+.T.R.E.U.Q.Y.$X_._.=X;X<X2XpXdXfXsXfX|. X",
"sXsXaXaXfXfXsXaXsXaXuX2X:X{ % q v v M $.w J K 1.V.9X1., D 9 - qXeXtXC.f.8X8XZ.b.C ~ +.+.T.E.W.$X&X}.=X=X}.}.2X3XpXiXfXfXsXfX|.|.",
"aXuXaXaXaXaXuXaXiXiXuX2X<X;X} J : O O O D ..( Y 9 t G.9Xe.1.l.eX8XqX6XF.eXM.N.A.- ] O.+.E.$X&X;X-XoX<X<X+X3X3X5XaXaXsXfX#X#X|.|.",
"aXaXaXsXaXaXaXuXiXuXuX3X2X:X=X$X^ ^ R E X...X.X._ Q C Z J.tXtX9X8X8XeXrXF.B.N.C E o.O.+.W.&X;X>X+X+X3X3X3XuXiXaXsXsXsXfX#X#X|. X",
"@X X X X@X X X X X X X X.X{.`./.U. .X.[ ] ' ' ] ] ] _ Q 3 A 9XrX8XqXwXeXM.N.n.  W ' X. .E.).]..XXX X X X X X X X X X X X X X X X",
" X X X X X X X X X X XOXOX.X].`.).U. . .| | | L.L.L.L.L.} J a 7XrX8XqXeXA.Z.a T ) ' |  .Y.`.].XX X X XOX X X X X X X X X X X X X",
"aXaXuXuXuXuXuXuXuXuX X|.uX#X2X>X:X=X&X$X$X$X$X$X&X&X&X%X%XY.4 m.rX8XwXeXF.M.6 W ..o.] I.*X>X2X#XuXuXaXuXaXuXaXuXsXsXuXaXsXaXsXaX",
"aXaXuXuXuXuX#X#XuXuX|.|.uXuX5X2X>X:X:X=X&X=X=X-X:X:X:X=X&X&X^ f tXqX8XrXF.N.6 W X.T. .I.-X>X3X5XuXaXuXaXuXaXuXaXsXaXaXaXsXsXaXsX",
"aXaXfXfXuXuX#X#XsXsX|.|.#X#XuXaX4X4X2X<X,X>X<X2X1X2X4X1X1X;XP.d tXqX8X8XA.B.a W +.T.L./.oX+XaXaXsXsXsXaXsXaXsXaXaXsXfXfXfXfXfXfX",
"aXaXsXfXuXuX#X#XsXsX X X#X#XaXaXaX5X3X5X3X3X5X4X5X5XpX4X4X1XP.A tXwXrXC.c.A.6 W +.W.I.(.:X<XaXaXsXaXaXsXaXsXaXsXsXaXfXfXfXfXfXfX",
"uXuXaXaXuXuXuXuXaXuX|.|.sXaXsXsXaXaXiXiXiXiX5XiXaXaX5X5X@X<X{ G tXeXrXC.c.A.6 / +.W.Y.(.2X5XaXaXaXsXuXuXaXuXaXuXsXsXaXaXfXuXuXuX",
"uXaXaXaXuXaXuXuXaXaX|. XaXsXaXfXaXsXuXaXuXuXuXuXsXsXuXuX5X5X'.7 tXwX8XA.v.A.6 / T.W.Y.(.1XaXdXdXsXaXuXaXaXsXuXaXsXsXuXsXaXuXuX#X",
" X X X X X X X X X@X X X X X X X X X X X X X X X X@X X X X|.H e.tX8XrX6Xc.S.a ! | L.).]..XOX X X X X X X X X X X X X X X X X X X",
" X X X X X X X X X X X X X X X X X X@X X X X X X X X X X X!.< yX8XeX6Xm.m.G.p T | L./.]..XOX X X X X X X X X X X X X X X X X X X",
"fXfXaXaXuXaXuXaXuXaXaXsXaXuXuXuXuXaXsXsXaXaXsXsXaXsXuXuX XL z.eXqXrXC.x.N.w.R [ R.W.=X,X2X#XaXuXsXuXsXaXaXaXsXaXsXaXuXaX#X#X X|.",
"fXfXuXaXaXaXaXuXaXuXsXaXuXaXuXaXaXuXaXaXaXaXsXsXsXaXuXaX^.: 0XrXrX6Xc.b.Z.5 / o.R.$X=X:X2X5XuX5XaXaXaXsXaXaXaXsXaXsXaXuX#XaX X|.",
"fXsXsXfXaXsXaXsXaXsXaXsXsXsXaXuXsXaXsXaXfXfXuXuXfXfXsXuXF g.D.7XF.n.x.n.S., ! +.E.$X=X1X5XaXaXaXsXaXsXaXfXfXaXuXfXfXfXsXfXsX|.|.",
"fXfXfXsXsXaXsXaXaXaXsXaXaXsXuXaXaXsXaXsXfXfXuXaXfXfXsXsXz.t Z.v.b.Z.H.H.d ^ X.+.E.%X-X1X5XiX#XaXaXsXaXsXfXfXuXaXfXfXfXsXfXsX|. X",
"uXuXfXfXsXsXaXaXaXuXsXsXuXuXaXuXuXaXsXaXaXuXuXuXuXuXuXuXaXU f > w.A.Z.Z.p o.X.+.E.&X:X2X3XaX#XuXaXuXsXsXaXuXuXuX#XuXuXuXaXaX|. X",
"uXuXfXfXaXaXaXaXuXaXsXsXuXaXuXaXaXaXsXsXuXaXuXuXuXuXuXuXuX5X(.P.K @ 3 # E ..o.T.W.&X,X2X5XaXaXaXuXaXsXfXuXaXaXaXuXuXuXaXaXuX|.|.",
" X X X X X X X X X X X X X X X X X X X X X X X X X X X X X.X{.).Y. .] ' ' ' X. .U._.]..XOX X X X X X X X X X X X X X X X X X X X",
" X X X X X X X X X X X@X X X X X X@X X X X X X X X X X XOX.X{.`.Y.L. .| [ |  .U./._.{..XOX X X X X X X X X X X X X X X X X X X X",
"uXuXsXaXuXaXuXuXuXuX|. X@X#X#X#XuXuX#X#XuXuXuXuXsXaXdXdX5X3X+X:X=X$X%XW.E.E.$X$X-XoX[.|.#X@XiXuXuXuX#X#XuXuXuXuXsXsXsXsXuXuXuXuX",
"uXuXaXsXuXuXuXuXuXuX X|.#X#XuX#XuXuX#X#XuXuXuXuXaXsXsXfXaX5X@X+XoX-X-X&X&X&X&X-XOX@X[.|.#X#X#XaXuXuX#X#XuXuXuXuXsXsXfXfXuXaXuXuX",
"sXaXsXaXsXaXsXfXsXaX|. XuXuXsXfX#X#X#X#X#X#X#X#XfXfXfXfXaXaXdX4X2X1X:X:X-X:X1X<X#X#X|.|.#XaXsXfX#X#X#X#X#X#X#X#XfXfXfXfXsXaXfXfX",
"aXsXaXsXaXsXfXsXsXsX X|.uXaXsXfX#X#X#XuX#X#X#X#XfXfXfXfXaXaXdXdXiX5X4X2X2X2X4XpXuXuX|.|.aX#XsXfX#X#X#X#X#X#X#X#XfXfXfXfXaXaXfXfX",
"aXuXsXaXuXuXaXaXuXaX X X#X#XsXsXaXaXuXuX#X#XuXaXaXuX#XuXuX#XaX#X5X5XiXaX3X#X3X5XuXuX X|.#X#XsXsXaXaXuXuX#X#XuXaXuXuXuXuXuXuXuXaX",
"uXaXaXsXaXaXaXuXaXuX|. X#X#XsXaXaXaXuXuX#X#XaXaXaXuX#X#XaXaXaXaXaXaXaXsX#X5X#XaXaXsX|. X#X#XsXfXaXaXuXuXuXaXaXuXuXuXuXaXuXuXaXuX",
" X X X X X X X X X X X X X X X X X X X X X X X X X X X X X X X X X X X X X XOX X X X X X X X X X X X X X X X X X X X X X X X X X",
" X X X X X X X X X X X X X X X X X@X X X X X@X X X X X X X X X X X X X X@X X X X X X X X X X X X X X X X X X X X X X X X X X X X"
};
