/* XPM */
static char *result[] = {
/* columns rows colors chars-per-pixel */
"64 64 90 1 ",
"  c #001414",
". c #001C1D",
"X c #091C1C",
"o c #001F20",
"O c #002223",
"+ c #0E2222",
"@ c #002728",
"# c #002B2C",
"$ c #0E2C2D",
"% c #102424",
"& c #162929",
"* c #1A2D2D",
"= c #002F30",
"- c #003233",
"; c #0F3334",
": c #003738",
"> c #003B3C",
", c #123333",
"< c #1D3233",
"1 c #1A3738",
"2 c #1C3A3B",
"3 c #253737",
"4 c #2C3D3D",
"5 c #003F40",
"6 c #004343",
"7 c #004749",
"8 c #004949",
"9 c #005657",
"0 c #005758",
"q c #005A5B",
"w c #274344",
"e c #2A4444",
"r c #2D4748",
"t c #344545",
"y c #324A4B",
"u c #3E4E4E",
"i c #365353",
"p c #3C5657",
"a c #3B595A",
"s c #005F60",
"d c #006264",
"f c #006769",
"g c #006869",
"h c #425252",
"j c #455C5C",
"k c #495A5B",
"l c #476062",
"z c #4F6566",
"x c #566464",
"c c #556B6C",
"v c #5C6F6F",
"b c #586F70",
"n c #5F7172",
"m c #626F6F",
"M c #617474",
"N c #6B7B7B",
"B c #717D7D",
"V c #6F8181",
"C c #728484",
"Z c #778A8A",
"A c #7D8D8D",
"S c #7D9293",
"D c #818B8B",
"F c #849393",
"G c #8D9696",
"H c #8A9B9B",
"J c #919C9C",
"K c #94A2A2",
"L c #9CA5A5",
"P c #9EAAAA",
"I c #A4ADAD",
"U c #ABB5B6",
"Y c #ACB7B8",
"T c #B2BCBD",
"R c #BCC3C3",
"E c #C1C6C6",
"W c #C5CBCB",
"Q c #CACFCF",
"! c #CDD4D4",
"~ c #D1D6D6",
"^ c #D6DADA",
"/ c #DCDFDF",
"( c #DEE2E2",
") c #E2E5E5",
"_ c #E6E9E9",
"` c #EBEEEE",
"' c #EEF0F0",
"] c #F3F4F4",
"[ c #F7F8F8",
"{ c #FFFFFF",
/* pixels */
"qqssqqssqqqqq0qqq099qq0qqdss9966qqssqqssqqqqqqqq9099q9qqqdss9966",
"qqssqqssqqqqqqq0qq99q0qqdqss9966qqssqqssqqqqqqqqqq99qqq0dqsq9966",
"ddqqffssdsssss99999099qsqdggdd66ddqqggssssqdqs99999999dqddggdd66",
"ddqqffsdssssss99099099dsdsffdd66ddqqggssssddds9999999qqdqdggdd66",
"qqssqqqqqqqqssss90qqqqqqdssd9966qqssqqqsqqqqssss99qqqqdqdsdd9966",
"qqsdsqqqqqqqssss00qqsqqqssdd9966qqssqqqqqqqqsssd99qqqqqqsssd9966",
"8888888888888888888888888888888888888888888888888888888888888888",
"8888888888888888888888888888888888888888888888888888888888888888",
"qqqqq099qq66qqqqqqqqqqqqsssqssssqqqqq0090q66qqqqqqqqqqqqqdsssdqd",
"qq0qqq990q66qqqqqqqqqqqqsssqsssssqq00q00q066qqqqqqqqqqqqssqqssqd",
"ssdd0q99dd6690dsdddqddqsssdfffggssdd0q99dd6699ssddssddqdssgggggg",
"ssddq099dd6690ssqssddqdsssffffffssdfq090dd6690ssdqdqdqddssddgggg",
"q0qqqqqqqq66ssssssqqqqqqssqq0q000qqqqqqqqq66ssssqqqqqqqqsdqqqq00",
"qqqqqqqqqq66ssssddqqqqqqsdqqqq00q0qqqqqqqq66ssssddqqqqqqssqqq000",
"8888888888888888888888888888888888888888888888888888888888888888",
"8888888888888888888888888888888888888888888888888888888888888888",
"ggq0qqqqqqdsqqqqsqssqqdsdsqqqq66ggq0sqqqqqssqqsqqqddqsdsdqqqq966",
"ggqqqqqqqqssqqqqqqssqdssqdqqqq66gg0qqqqqqqssqqqqqqsssqsssdqqqq66",
"fdfdssdsssssssqqdsssdgqqggssdd66dffdssssdqssddqqssssgdqqggsdgd66",
"ddddssssssssssqqssssggqqggsqdd66ddddsssdsdssssqqssssdgqqggqddd66",
"0qggqqqqqqdsqsqqqqssqqq099qqqq66qqggqqqqqqdsqqqqqqdsqq0q00qqqq66",
"qqggqqsqqqsdqqqqqqdsqqqq9qqqqq66q0ggqqqqqqsdqqqqqqsdqqqq090qqq66",
"8888888888888888888888888886O.   .# #>88888888888888888888888888",
"888888888888888888888888886O  uCx+ m< >8888888888888888888888888",
"00ssqqq0qq669900qq99q0qqq0-Oc`{{{)H{F.>qqq6699q9q090q00qssssqqqq",
"qqssqqqq0q669900q099qqq9d6Ob{`GzI{{{KO:q0q6699qqqq990qqqssdqqqqq",
"ssssssdfss66qqdf999999998#i{`e@OOZ{{KO6dds659qff99999900ggggsddd",
"ssssssddss66qqdd999999995#T{aO69>O!{KO5dq>  ..O##90q8#..8-##>8#O",
"qqssqqqqqq6600ssqsqq99qqOy{Q.#9q>oF{Ko>9-o Xyy2@O57q#.Ooo.eeo.Oe",
"qqssq0qqqq6690sssqqq99q6.A{cO>qqq-2Tlo7=ox/{{{{_NOo7.A{{G){{Ip`{",
"88888888888888888888888@ I{& 8888-   -7  ]{TDJE[{F #OkU{{[J^{]{I",
"88888888888888888888888o !{X 88888-O-88O W[4   %){4 - *{{h t{{x ",
"qqssqqssqqqq0qq0qq99qqqOO_{O.96#:.OOO#>6OOooooooF{C.6o2{RO:,{~ .",
"qqssqqssqqqqq0q00q990qq#O!{2.9- wAFSAuO>>-oOpFLU^{J.>o2{GO6;{L O",
"ddqqggssdsssss90990999s:OY{aOqO P{{{{!O-OOC){{{{{{Ho:.2{VO#;{S #",
"ddqqggsdssssss00999999s6OH{S@>- OaP{Y#O-;W{'Pvy1M{J.:O2{C@#;{G O",
"qqdssqqqqqqqssss99qqqqq8Oa{_.O>#:OU{KO>.N{T$OOOOv{JO>O3{ZOO;{F #",
"qqssqqqqqqsqssss99qqqqqq>OR{M..#.$`{KO>OT{hO>>-OM{Jo>o2{VOO,{F @",
"888888888888888888888888- t{{k   P{{J # G{IX . %R{G   <{V  +{D  ",
"8888888888888888888888888- x{{WG!{[{J # *({_IJW[{{[WUNW{(L4E{)I3",
"qqq0qq000q66qqqqqqqqqqqqs9-Oc){{'Fj{Vo66o$D_{{)KrM!]{T{{{`c{{{[l",
"qq0qq099qq66qqqqqqqqqqqqdq9#OO,yO.o..#99-@  e2OOOOOO.oOOOOOOOO@O",
"ssddq090dd6600ssddssddddqdfd6-##@59@#999dq. ..#>8>-OO:OOO#>O###>",
"ssgdq099dd6609ssdqssqqssdqfgfffgssddqq99dd6699ssssqdqdsddsfdffgg",
"0qqqqqqqqq66sssdqdqsqqqqdqqq0q09qqqqqqqqqq66ddssssqqqqqqsdqqqq90",
"qqqqqqq0qq66sssqddqqqqqqssqqqq090qqqqqqqqq66dqdqssqqqqqqsdqq0q00",
"8888888888888888888888888888888888888888888888888888888888888878",
"8888888888888888888888888888888888888888888888888888888888888888",
"gg0qqqqqqqssqqqsqqddqqdqdsqq0q66ggq0qqqqqqqdqqqqqqddqsdsdqqqqq66",
"gg0qqqqqqqssqqqqqqqddqsdssqqqq66gg0qqqqqqqddqqsqqqdqsqsssdqqqq66",
"dfdfssssdsssssqqdssdfdqqggdsdd66dffdddssdqsqddqqdqqdfdqqggqsdd66",
"ddddsssdsssssdqqqssqfdqqgfssfd66ddddsssdqdssdqqqsdqddfqqggdsdd66",
"q0ggqqqqqqsdqqqqqqdsqqq0000qqq66qqfgqqqqqqddqqqsqqqdqqqq00qqqq66",
"qqggqqqqqqssqqqsqqddqq0q00qqqq66q9ggqqqqqqsdqqqqqqddqqqq09qqqq66",
"8888888888888888888888888888888888888888888888888888888888888888",
"8888888888888888888888878888888888888888888888868888888888888888",
"q0ssqq0qqq669990q009q0qqssdqqq0qq0ssqqqq0q66990qq0090qq0sssssqqq",
"0qssqqq0qq6699000q99qq0qsssdqqqqqqssqqqqqq6699qqq099qq00ssssqqq0",
"ssssssdfss66qqdg09999999ffggqdddqsssssddss669qdd09990090ffggssdd",
"ssssssdgss66qqdd99999999ffggssdfsssssqfdsd660qdf09099900ffggssdd",
"qqdsq0qqqq6699ssqsqq00qqq000qqqqqqssq0qqqq6600ssqs0q09qq0q00qqqq",
"qqssqqqqqq6690sssqq090qqqq00qqqqqqssqqqqqq6600ssqsq000qqqq00qqqq",
"8888888888888888888888888888888888888888888877888878888878888878",
"8888888888888888888888888888888888888888888888888888888888888888"
};
