/* XPM */
static char *result[] = {
/* columns rows colors chars-per-pixel */
"64 64 235 2 ",
"   c #005B5C",
".  c #005E60",
"X  c #005B5B",
"o  c #005F60",
"O  c #00595A",
"+  c #005657",
"@  c #004343",
"#  c #006263",
"$  c #006769",
"%  c #006061",
"&  c #005C5D",
"*  c #006162",
"=  c #004949",
"-  c #005D5E",
";  c #005F61",
":  c #006365",
">  c #006566",
",  c #006869",
"<  c #005758",
"1  c #004444",
"2  c #002525",
"3  c #001919",
"4  c #001515",
"5  c #002222",
"6  c #004040",
"7  c #122626",
"8  c #677474",
"9  c #223434",
"0  c #005455",
"q  c #002324",
"w  c #072526",
"e  c #ECEFEF",
"r  c white",
"t  c #FDFDFD",
"y  c #243F40",
"u  c #001F20",
"i  c #213C3D",
"p  c #536969",
"a  c #005A5B",
"s  c #006465",
"d  c #1E3D3E",
"f  c #506869",
"g  c #002628",
"h  c #003C3D",
"j  c #002E2F",
"k  c #003031",
"l  c #003E3F",
"z  c #005253",
"x  c #003839",
"c  c #00292A",
"v  c #001D1E",
"b  c #003435",
"n  c #004243",
"m  c #003334",
"M  c #002526",
"N  c #002A2B",
"B  c #004041",
"V  c #004E4F",
"C  c #143435",
"Z  c #465F60",
"A  c #003637",
"S  c #0B292A",
"D  c #364F50",
"F  c #072627",
"G  c #002021",
"H  c #002828",
"J  c #003B3B",
"K  c #002D2E",
"L  c #002325",
"P  c #002223",
"I  c #0C2A2B",
"U  c #374F50",
"Y  c #102D2E",
"T  c #001E1E",
"R  c #004142",
"E  c #0A292A",
"W  c #3C5454",
"Q  c #5C7273",
"!  c #D0D6D6",
"~  c #C7CECE",
"^  c #354E4F",
"/  c #001212",
"(  c #005152",
")  c #526A6B",
"_  c #F5F6F6",
"`  c #96A3A3",
"'  c #5D6F70",
"]  c #DADFDF",
"[  c #A6B0B0",
"{  c #011F1F",
"}  c #324B4C",
"|  c #021717",
" . c #B0B7B7",
".. c #F9F9F9",
"X. c #899393",
"o. c #BBC1C1",
"O. c gray99",
"+. c #5A6868",
"@. c #002626",
"#. c #314242",
"$. c #ABB2B2",
"%. c #C0C5C5",
"&. c #C9CDCD",
"*. c #CFD3D3",
"=. c #909999",
"-. c #FEFEFE",
";. c #CED2D2",
":. c #A1A9A9",
">. c #283A3A",
",. c #001717",
"<. c #293B3B",
"1. c #778282",
"2. c #D6D9D9",
"3. c #213333",
"4. c #2C3D3D",
"5. c #F0F1F1",
"6. c #EBEDED",
"7. c #0B1F1F",
"8. c #003232",
"9. c #243636",
"0. c #C1C6C6",
"q. c #263838",
"w. c #727E7E",
"e. c #A5ACAC",
"r. c #002727",
"t. c #1F3131",
"y. c #274243",
"u. c #F8F9F9",
"i. c #F9FAFA",
"p. c #2A4748",
"a. c #002020",
"s. c #748586",
"d. c #003F40",
"f. c #003233",
"g. c #254040",
"h. c #D5DADA",
"j. c #032223",
"k. c #00393A",
"l. c #002728",
"z. c #E1E5E5",
"x. c #153232",
"c. c #7D8D8E",
"v. c #A3B0B0",
"b. c #3A5353",
"n. c #B0BABA",
"m. c #003132",
"M. c #243F3F",
"N. c #465C5D",
"B. c #004647",
"V. c #D7DCDD",
"C. c #0B2A2A",
"Z. c #8B9C9C",
"A. c #D3D9D9",
"S. c #253E3F",
"D. c #021F20",
"F. c #003333",
"G. c #012B2C",
"H. c #7A8E8E",
"J. c #DDE1E1",
"K. c #C0C8C8",
"L. c #C0CACB",
"P. c #C0C9C9",
"I. c #768989",
"U. c #003B3C",
"Y. c #243D3E",
"T. c #D7DCDC",
"R. c #002627",
"E. c #254041",
"W. c #405859",
"Q. c #2B4E4F",
"!. c #496061",
"~. c #B1BCBC",
"^. c #002122",
"/. c #004344",
"(. c #CCD2D3",
"). c #002C2D",
"_. c #005556",
"`. c #FBFCFC",
"'. c #395455",
"]. c #092829",
"[. c #B2BCBC",
"{. c #6D7F80",
"}. c #002B2C",
"|. c #002F30",
" X c #003D3E",
".X c #005051",
"XX c #183839",
"oX c #6B7F80",
"OX c #254142",
"+X c #364747",
"@X c #EFF0F0",
"#X c #465555",
"$X c #AEB5B5",
"%X c #B4BABA",
"&X c #002424",
"*X c #253737",
"=X c #CCD0D0",
"-X c #091D1D",
";X c #EDEEEE",
":X c #001616",
">X c #002A2A",
",X c #576565",
"<X c #E9EBEB",
"1X c #CACECE",
"2X c #97A0A0",
"3X c #9FA7A7",
"4X c #E8EAEA",
"5X c #DEE1E1",
"6X c #1A2D2D",
"7X c #2E3F3F",
"8X c #B5BBBB",
"9X c #F3F4F4",
"0X c #818B8B",
"qX c #002F2F",
"wX c #182B2B",
"eX c #4B5A5A",
"rX c #0F2C2D",
"tX c #869595",
"yX c #D4D9D9",
"uX c #EAEDED",
"iX c #919E9F",
"pX c #102121",
"aX c #647778",
"sX c #ECEEEE",
"dX c #95A2A2",
"fX c #C8CFCF",
"gX c #082627",
"hX c #1F3839",
"jX c #005859",
"kX c #003738",
"lX c #005153",
"zX c #002B2B",
"xX c #004C4D",
"cX c #004A4B",
"vX c #003F41",
/* pixels */
"    . . X X o o         O O O O O O + + O O O O o o o o + + @ @     . . X X o o         O O O O O O + + O O O O o o o o + + @ @ ",
"    . . X X o o         O O O O O O + + O O O O o o o o + + @ @     . . X X o o         O O O O O O + + O O O O o o o o + + @ @ ",
"# #     $ $ o o o o o o o o + + + + + + + + o o % % $ $ # # @ @ # #     $ $ o o o o o o o o + + + + + + + + o o % % $ $ # # @ @ ",
"# #     $ $ o o o o o o o o + + + + + + + + o o % % $ $ # # @ @ # #     $ $ o o o o o o o o + + + + + + + + o o % % $ $ # # @ @ ",
"    o o & &             o o o o + +             % % * * + + @ @     o o & &             o o o o + +             % % * * + + @ @ ",
"    o o & &             o o o o + +             % % * * + + @ @     o o & &             o o o o + +             % % * * + + @ @ ",
"= = = = = = = = = = = = = = = = = = = = = = = = = = = = = = = = = = = = = = = = = = = = = = = = = = = = = = = = = = = = = = = = ",
"= = = = = = = = = = = = = = = = = = = = = = = = = = = = = = = = = = = = = = = = = = = = = = = = = = = = = = = = = = = = = = = = ",
"    O O O O + + O O @ @                         o o - - ; ; ; ;     O O O O + + O O @ @                         o o - - ; ; ; ; ",
"    O O O O + + O O @ @                         o o - - ; ; ; ;     O O O O + + O O @ @                         o o - - ; ; ; ; ",
"o o : : O O + + # # @ @ + + o o o o o o o o o o o o > > $ $ , , o o : : O O + + # # @ @ + + o o o o o o o o o o o o > > $ $ , , ",
"o o : : O O + + # # @ @ + + o o o o o o o o o o o o > > $ $ , , o o : : O O + + # # @ @ + + o o o o o o o o o o o o > > $ $ , , ",
"O O         O O     @ @ o o o o o o             % %     O O < < O O         O O     @ @ o o o o o o             % %     O O < < ",
"O O         O O     @ @ o o o o o o             % %     O O < < O O         O O     @ @ o o o o o o             % %     O O < < ",
"= = = = = = = = = = = = = = = = = = = = = = = = = = = = = = = = = = = = = = = = = = = = = = = = = = = = = = = = = = = = = = = = ",
"= = = = = = = = = = = = = = = = = = = = = = = = = = = = = = = = = = = = = = = = = = = = = = = = = = = = = = = = = = = = = = = = ",
", , O O             o o             o o - - ; ; ; ;     O O @ @ , , O O             o o             o o - - ; ; ; ;     O O @ @ ",
", , O O             o o             o o - - ; ; ; ;     O O @ @ , , O O             o o             o o - - ; ; ; ;     O O @ @ ",
": : : : o o o o o o o o o o     o o o o > >     , , o o : : @ @ : : : : o o o o o o o o o o     o o o o > >     , , o o : : @ @ ",
": : : : o o o o o o o o o o     o o o o > >     , , o o : : @ @ : : : : o o o o o o o o o o     o o o o > >     , , o o : : @ @ ",
"O O , ,             % %             % %     O O < < O O     @ @ O O , ,             % %             % %     O O < < O O     @ @ ",
"O O , ,             % %             % %     O O < < O O     @ @ O O , ,             % %             % %     O O < < O O     @ @ ",
"= = = = = = = = = = = = = = = = = = = = = = = = = = = = = = = = 1 2 3 4 4 5 6 = = = = = = = = = = = = = = = = = = = = = = = = = ",
"= = = = = = = = = = = = = = = = = = = = = = = = = = = = = = = = 2 4 7 8 9 4 5 = = = = = = = = = = = = = = = = = = = = = = = = = ",
"O O o o     O O O O @ @ 0 0 O O O O + + O O O O ; ; ; ;     O O q w e r t y u O O O @ @ 0 0 O O O O + + O O O O ; ; ; ;     O O ",
"O O o o     O O O O @ @ 0 0 O O O O + + O O O O ; ; ; ;     O O u i r r r p u O O O @ @ 0 0 O O O O + + O O O O ; ; ; ;     O O ",
"o o o o o o : : o o @ @ a a s s + + + + + + + + $ $ , , o o : : q d r r r f g : o o @ @ a a s s + + + + + + + + $ $ , , o o : : ",
"o o o h j q g g k l @ @ a z x c v v v b n m M v N N B V o o : : q C r r r Z g : o o @ @ a a s s + + + + + + + + $ $ , , o o : : ",
"  B A q u S D F G G H J + K L L P P u u v v G I U Y T T R O     G E r r r W G       @ @ + + ; ; - - O O + +     O O < < O O     ",
"B G q Q ! r r t ~ ^ / T ( u ) _ r r t ` v ' ] r r r [ { m O     G G r r r } G       @ @ + + ; ; - - O O + +     O O < < O O     ",
"2 |  .r .. .X.o.r O.+.4 2 @.#.$.%.&.r *.=.r -.;.:.r r >.4 = = = ,.4 _ r r <.4 = = = = = = = = = = = = = = = = = = = = = = = = = ",
"4 1.r 2.3.4 4 4 4.5.6.7.3 8.4 4 4 9.r r r 0.q.4 4 w.e.| r.= = = 3 4 6.r r t.4 = = = = = = = = = = = = = = = = = = = = = = = = = ",
"y.u.i.p.a.a.q q G s.r s.u d.B f.K g.r r h.j.u N k.q q q d.+ @ @ l.G z.r r x.q o         O O O O O O + + O O O O o o o o + + @ @ ",
"c.r v.q a.a.q q G b.r n.u m.O O u M.r r N.u A O o B.x B.+ + @ @ c G V.r r C.q o         O O O O O O + + O O O O o o o o + + @ @ ",
"Z.r r r r r r r r r r A.q K + + v S.r t D.v o o % % $ $ # # @ @ F.@.~ r t G.q o o o o o o o + + + + + + + + o o % % $ $ # # @ @ ",
"H.r J.K.L.L.P.P.P.P.P.I.q U.+ + v Y.r T.v R.o o % % $ $ # # @ @ R @.E.W.Q.N f.o o o o o o o + + + + + + + + o o % % $ $ # # @ @ ",
"!.r ~.q ^.^.G G G G G G /.o o o v S.r (.G ).    % % * * + + @ @ _.f.l.q P k z           o o o o + +             % % * * + + @ @ ",
"F h.`.'.^.K x A G ].[.{.q /./.b }.S.r (.G ).|. X.X% * * + + @ @ f.G XXoXOX^.|.          o o o o + +             % % * * + + @ @ ",
"4 +Xt @X#X4 4 4 | $Xr %X4 &X4 4 4 *Xr =X4 4 4 4 4 J = = = = = = 3 -X;Xr O.*X:X= = = = = = = = = = = = = = = = = = = = = = = = = ",
">X4 ,X<Xr 1X2X3X4Xr 5X6X4 &X7X8X%.&.r 9X%.%.%.0X4 qX= = = = = = 4 wXr r r eX4 = = = = = = = = = = = = = = = = = = = = = = = = = ",
"( j u rXtXyXr r uXiXpX/ A G aXr r r r r r r r sXq l.- - ; ; ; ; k.G dXr fXgXc + O O @ @                         o o - - ; ; ; ; ",
"  + f.u u u Y.hXu u / F.jXj G G G G G G G G G G q A - - ; ; ; ; B.G u u u u kX+ O O @ @                         o o - - ; ; ; ; ",
"o o : lXU.c v v zX6 F.@ + xXm.q q q q q q q q l.A O > > $ $ , , o cXvXg ).k.+ + # # @ @ + + o o o o o o o o o o o o > > $ $ , , ",
"o o : : O O + + # # @ @ + + o o o o o o o o o o o o > > $ $ , , o o : : O O + + # # @ @ + + o o o o o o o o o o o o > > $ $ , , ",
"O O         O O     @ @ o o o o o o             % %     O O < < O O         O O     @ @ o o o o o o             % %     O O < < ",
"O O         O O     @ @ o o o o o o             % %     O O < < O O         O O     @ @ o o o o o o             % %     O O < < ",
"= = = = = = = = = = = = = = = = = = = = = = = = = = = = = = = = = = = = = = = = = = = = = = = = = = = = = = = = = = = = = = = = ",
"= = = = = = = = = = = = = = = = = = = = = = = = = = = = = = = = = = = = = = = = = = = = = = = = = = = = = = = = = = = = = = = = ",
", , O O             o o             o o - - ; ; ; ;     O O @ @ , , O O             o o             o o - - ; ; ; ;     O O @ @ ",
", , O O             o o             o o - - ; ; ; ;     O O @ @ , , O O             o o             o o - - ; ; ; ;     O O @ @ ",
": : : : o o o o o o o o o o     o o o o > >     , , o o : : @ @ : : : : o o o o o o o o o o     o o o o > >     , , o o : : @ @ ",
": : : : o o o o o o o o o o     o o o o > >     , , o o : : @ @ : : : : o o o o o o o o o o     o o o o > >     , , o o : : @ @ ",
"O O , ,             % %             % %     O O < < O O     @ @ O O , ,             % %             % %     O O < < O O     @ @ ",
"O O , ,             % %             % %     O O < < O O     @ @ O O , ,             % %             % %     O O < < O O     @ @ ",
"= = = = = = = = = = = = = = = = = = = = = = = = = = = = = = = = = = = = = = = = = = = = = = = = = = = = = = = = = = = = = = = = ",
"= = = = = = = = = = = = = = = = = = = = = = = = = = = = = = = = = = = = = = = = = = = = = = = = = = = = = = = = = = = = = = = = ",
"O O o o     O O O O @ @ 0 0 O O O O + + O O O O ; ; ; ;     O O O O o o     O O O O @ @ 0 0 O O O O + + O O O O ; ; ; ;     O O ",
"O O o o     O O O O @ @ 0 0 O O O O + + O O O O ; ; ; ;     O O O O o o     O O O O @ @ 0 0 O O O O + + O O O O ; ; ; ;     O O ",
"o o o o o o : : o o @ @ a a s s + + + + + + + + $ $ , , o o : : o o o o o o : : o o @ @ a a s s + + + + + + + + $ $ , , o o : : ",
"o o o o o o : : o o @ @ a a s s + + + + + + + + $ $ , , o o : : o o o o o o : : o o @ @ a a s s + + + + + + + + $ $ , , o o : : ",
"    o o O O         @ @ + + ; ; - - O O + +     O O < < O O         o o O O         @ @ + + ; ; - - O O + +     O O < < O O     ",
"    o o O O         @ @ + + ; ; - - O O + +     O O < < O O         o o O O         @ @ + + ; ; - - O O + +     O O < < O O     ",
"= = = = = = = = = = = = = = = = = = = = = = = = = = = = = = = = = = = = = = = = = = = = = = = = = = = = = = = = = = = = = = = = ",
"= = = = = = = = = = = = = = = = = = = = = = = = = = = = = = = = = = = = = = = = = = = = = = = = = = = = = = = = = = = = = = = = "
};
