/* XPM */
static char *result[] = {
/* columns rows colors chars-per-pixel */
"64 64 87 1 ",
"  c #001414",
". c #011C1D",
"X c #091D1D",
"o c #001F20",
"O c #002223",
"+ c #0A2223",
"@ c #002729",
"# c #002B2B",
"$ c #0C2A2B",
"% c #132626",
"& c #112E2F",
"* c #192C2C",
"= c #002F30",
"- c #0E2F30",
"; c #122F30",
": c #003334",
"> c #0E3637",
", c #003738",
"< c #003A3B",
"1 c #133233",
"2 c #1E3131",
"3 c #1C393A",
"4 c #223E3E",
"5 c #2C3C3C",
"6 c #003F40",
"7 c #004343",
"8 c #004748",
"9 c #004949",
"0 c #1E4344",
"q c #004F50",
"w c #005657",
"e c #005758",
"r c #005A5B",
"t c #2B4546",
"y c #2E4748",
"u c #2E4849",
"i c #334343",
"p c #314B4C",
"a c #3C4C4C",
"s c #3C5455",
"d c #005F60",
"f c #006264",
"g c #006769",
"h c #006869",
"j c #415353",
"k c #475E5E",
"l c #445F60",
"z c #456162",
"x c #4B6465",
"c c #556C6D",
"v c #586D6E",
"b c #567272",
"n c #5C7273",
"m c #677474",
"M c #6B7575",
"N c #617778",
"B c #657878",
"V c #6B7D7E",
"C c #748384",
"Z c #7A8585",
"A c #7D8D8D",
"S c #859192",
"D c #8B9595",
"F c #939C9C",
"G c #95A2A3",
"H c #9DA5A5",
"J c #9EABAC",
"K c #A1ACAD",
"L c #A6B1B2",
"P c #ACB5B5",
"I c #B5BDBD",
"U c #BAC2C2",
"Y c #C0C7C7",
"T c #C2CACA",
"R c #C9CECE",
"E c #CFD3D3",
"W c #D3D7D7",
"Q c #D5D9D9",
"! c #DBDDDD",
"~ c #DDE1E1",
"^ c #E2E5E5",
"/ c #E6E8E8",
"( c #EAEDED",
") c #EEF0F0",
"_ c #F2F4F4",
"` c #F7F8F8",
"' c #FEFEFE",
/* pixels */
"rrddrrfdrrrrrererewwrrerrfddww77rrddrrddrrrrrrrerrwwrerrrfddwe77",
"rrddrrrfrrrrrrrrrrwwrerrfrddww77rrddrrddrrrrrrrrrewwrrrefrdrww77",
"ffrrggddfdddddwwwwwwwwrddfhhff77ffrrhhddddddddwwwwwwwwddffhhff77",
"ffrrggdfrfddddwwwwwrwwfdffhffd77ffrrhhdddddfddwwwwwwwwdfrfhhff77",
"rrddrrrrrrrrddddewrrrrrrrfffww77rrddrrrrrrrrddddwwrrrrdrfrfrww77",
"rrdfdrrrrrrrdddderrrrrrrdfdfww77rrddrrrdrrrrdddfwwrrrrrrffffww77",
"9999999999999999999999999999999999999999999999999999999999999999",
"9999999999999999999999999999999999999999999999999999999999999999",
"rrrrrewwrr77rrrrrrrrrrrrddrdddddrrrrerwwre77rrrrrrrrrrrrrfdrfffr",
"rrerrrweer77rrrrrrrrrrrrdddrdddddrrerrwwer77rrrrrrrrrrrrddrrfrdf",
"fdfferwwff77eeddddfrfrfdddfgggghddffrewwff77wwddffddfdddddhfhhhh",
"ddffreweff77eedddddfffrfddggggggdffferwwff77wedddddddddfddfhhhhh",
"rrrrrrrerr77ddddddrrrrrrddrrereerrrrrrrrrr77dddddrrrrrrrddrreree",
"errrrrrrrr77ddddffrrrrrrfdrrrreererrrrrrrr77ddddddrrrrrrffrrreee",
"9999999999999999999999999999999999999999999999999999999999999999",
"9999999999999999999999999999999999999999999999999999999999999999",
"hhrrrrrrrrfdrrrrdrddrddffdrrrr77hhrrrrrrrrfrrrrrrrffdrfffrrrrr77",
"hhrrrrrrrrddrrrrrrdddrddrfrrrr77hhrrrrrrrrdfrdrrrdfrrrfrdfrrrr77",
"ffhfddfdrffrddrrfdddfhrrhhrfff77fffffdddfdfrffrrfrrfhfrrhhddff77",
"ffffddddfrffddrrddddhfrrhhfrff77ffffdddfddfrfrrrrffrfhrrhhddff77",
"rrhhrrrrrrfrrrrrrrddrrrrwererr77rrhhrrrrrrfdrrrrrrfdrrrreerrrr77",
"rrhhrrrrrrffrrrrrrfdrrrrwrrrrr77rrhhrrrrrrdfrrrrrrffrrrrewrrrr77",
"9999999999999999999999999999999999999999999999999999999999999999",
"9999999999999998999999999999999899999999999999999999999999999999",
"eeddrrrrer77wwwrrrwwrerrddfrrrrrrrfdrrrrer77wwrrerewreerddddrrrr",
"rrddrrrrre77wwwrrewwreerdddfrrrrrerfrrrrrr77wwrrrrwwerrrddfdrrrr",
"ddddfdgfdd77rrffewweeweegghhddffrfrrddffdd77wrffwwewwwrwhhhhrfff",
"O,7drfff6#  o#7fwwwwwwwegghhddgffrffd9<#O@ Owrfr#oo...=9<=##@@,r",
"3OO8rew#Oo i&.@69dreewrrrreerrrrrrrr:oOOy1  #<d:OO.o..O#.O...O.:",
"'P@,r9#.sT'''QvO@9rewwrrrewwwrrrrrf,.;K_''!Mo.7#>)'''`sOt('''_1O",
"E'a 9# A''IDP`'S #9999999999999999@ i('RDK^'UXO# GR'^P*#*H~'RH #",
"2'C , j'_a   %Q'i :999999999999999.XQ'Z   %R'Z O  X(I  :  P_X  :",
"O'GO,$^'vooOO.s'PO:wrerrdddfww77r,OA'U@:<:O3``4O7,.G';Or@$`Ko:: ",
"O'GO,k'~OoOO.OO'/.Owererdfrrww77r#@Q'j@7rr,OK'CO98oj'B.<@n'x.7: ",
"@`GO8b'''''''''''+.ewwddfrggff77f#O^'>Ordd9OC'S.,eOo/UO:OI):#f@ ",
"@'Go7z'(UTTUTTTUJ.:wwwdfffggff77f:OW'0Offr7OA'Co8e:.G'1O-`J#<f# ",
".`G@,1'/@OoO@OOO..8rrrrrfffrew77r:@L'co,re:OI'xOee8Os'CoN'k@7w7 ",
"O'GO,OL'VO#:<#@GGO,rrrrrrfffee77r7Ox'QOO,#op'~$#wer@O(U.U)@#ww7 ",
" `G   %('M    Z'^X.999999999999999O Y'IX  i/'j #899# D'5'F #999#",
"U'/PX@ iW'!KFW'_a @999999999999999# i('_KU'`C o9999, a'W'a ,9999",
"''''&O=.OVT''_P4o:rrrrrrrfrrfdddrrr<.;K_'`P5o=qrrrrr#OR'T@:rfrfd",
"OOooo#w:@o %uooo7wrrrrrrfrrfddddrrrw:..oy$  6wrrrrrr<oOoOO6ddfdd",
"OO@##qeef7. .o,8rdddddfdffgfgghhddffr7:o@@O#wwddffddf<:O:6ffgghh",
"rfffrrwwdf77eeddrfddddddrffggghhdffferwwff77wwddfrdfrfdfrfhfgghh",
"rrrrrrrrrr77ddddddrrrrrrddrrereerrrrrrrrrr77rfddrrrrrrrrfdrrrrwe",
"errrrrerrr77dddddfdrrrrrfdrrrreeerrrrrrrrr77ddddffrrrrrrdfrrreee",
"9999999999999999999999999999899999999999999999999999999999999999",
"9999999999999999999999999999999999999999999999999999999999999999",
"ghrrrrrrrrddrrrrrrddrdddddrrre77hhrrrrrrrrfrrdrrrrffrdffrfrrrr77",
"hherrrdrrrddrrrrrrdddrffddrrer77hfrrrrrrrrddrrrrrrdddrddddrrrr77",
"ffffddddfdddddrdddddfgrrhhfdfg77ffffffddfrddfddrddddfhrrhhdfff77",
"fgffdddddddddfrrddddhfrrhgddff77fgfffrdfffddddrrddddhfrrhhdrff77",
"rrhhrrrrrrffrrrrrrfdrrreeeerrr77rrggrrrrrrfrrrrrrrdfrrerwwerrr87",
"erhhrrrdrrrfrrrrrrdfrrrreerrrr77rrhhrrrrrrffrrrrrrdfrrrrrwrrrr77",
"9999999999999999999999999999999999999999999999999999999999999999",
"9998999999999999999999999999999999999999999989999999999999999999",
"erddrrrrrr77wwwwerewrereddddrrrrrrddrrrrer77wwrrreewreerrfddrder",
"rrddrrrrrr77wwrrrewwerredddfrrrrrwddrrrrre77wwrrrewwerreddddrrer",
"rfddddffdd77rrffweewewwwgghhfrffrfddfrffdd77erffewwweewwgghhddff",
"frddddffdd77rrffwwweewewgghhrffffrddrfffdd77erffewewweeegghhdfff",
"rrfrrrrrrr77wwfddrreeerrreeerrrrrrddrrrrrd77eeddrdereerrrreerrrr",
"rrdfrrrrrr77wwddrdrreerrrreerrrrrrddrrrrrr77eedddrreeerrereererr",
"9999999999999999999989999999999999999999999988999989999989999999",
"9999999999999999999999999999999999999999999999999999999999999999"
};
