/* XPM */
static char *result[] = {
/* columns rows colors chars-per-pixel */
"64 64 165 2 ",
"   c black",
".  c #1D1D1D",
"X  c #202020",
"o  c #202021",
"O  c #343434",
"+  c #353535",
"@  c gray22",
"#  c #383839",
"$  c #393939",
"%  c #464646",
"&  c gray28",
"*  c gray29",
"=  c #4B4B4B",
"-  c #4C4C4C",
";  c gray30",
":  c #4E4E4E",
">  c #565656",
",  c gray34",
"<  c #5A5A5A",
"1  c #5B5B5B",
"2  c gray36",
"3  c #5D5D5D",
"4  c #5D5D5E",
"5  c gray37",
"6  c #5E5E5F",
"7  c #5F5F5F",
"8  c #5F5F60",
"9  c gray45",
"0  c #787879",
"q  c #797979",
"w  c gray48",
"e  c #7E7E7E",
"r  c #808080",
"t  c gray53",
"y  c #888889",
"u  c #898989",
"i  c gray54",
"p  c gray55",
"a  c #919192",
"s  c #929292",
"d  c #939393",
"f  c #949495",
"g  c #959595",
"h  c gray59",
"j  c #979797",
"k  c #969698",
"l  c #979798",
"z  c #989899",
"x  c #9D9D9E",
"c  c gray62",
"v  c #9F9F9F",
"b  c #A1A1A2",
"n  c #A2A2A2",
"m  c #A4A4A4",
"M  c #A9A9A9",
"N  c #AAAAAA",
"B  c #ACACAC",
"V  c gray68",
"C  c #AFAFAF",
"Z  c gray69",
"A  c #B1B1B1",
"S  c #B2B2B2",
"D  c #B3B3B4",
"F  c #B4B4B4",
"G  c gray71",
"H  c #B5B5B6",
"J  c #B6B6B6",
"K  c #B6B6B7",
"L  c #B7B7B7",
"P  c #B7B7B8",
"I  c gray72",
"U  c #B9B9B9",
"Y  c #B9B9BB",
"T  c gray73",
"R  c #BBBBBB",
"E  c #BBBBBC",
"W  c #BCBCBC",
"Q  c #BCBCBD",
"!  c gray74",
"~  c #BDBDBE",
"^  c gray",
"/  c #BEBEBF",
"(  c gray75",
")  c #BFBFC0",
"_  c #C0C0C0",
"`  c #C0C0C1",
"'  c #C1C1C1",
"]  c #C1C1C2",
"[  c gray76",
"{  c #C2C2C3",
"}  c #C3C3C3",
"|  c #C3C3C4",
" . c #C4C4C5",
".. c #C4C4C6",
"X. c #C5C5C6",
"o. c #C5C5C7",
"O. c #C6C6C7",
"+. c gray78",
"@. c #C7C7C8",
"#. c #C7C7C9",
"$. c #C8C8C8",
"%. c #C8C8C9",
"&. c gray79",
"*. c #C9C9CA",
"=. c #C9C9CB",
"-. c #CACACA",
";. c #CACACB",
":. c #CBCBCB",
">. c #CACACC",
",. c #CBCBCC",
"<. c #CBCBCD",
"1. c #CCCCCD",
"2. c #CDCDCD",
"3. c #CCCCCE",
"4. c #CDCDCE",
"5. c #CDCDCF",
"6. c #CECECE",
"7. c #CECECF",
"8. c gray81",
"9. c #CFCFD0",
"0. c #D0D0D0",
"q. c #D0D0D1",
"w. c gray82",
"e. c #D0D0D2",
"r. c #D2D2D2",
"t. c #D2D2D3",
"y. c LightGray",
"u. c #D2D2D4",
"i. c #D3D3D4",
"p. c #D3D3D5",
"a. c gray83",
"s. c #D4D4D5",
"d. c #D5D5D5",
"f. c #D4D4D6",
"g. c #D5D5D7",
"h. c gray84",
"j. c #D6D6D7",
"k. c #D7D7D7",
"l. c #D7D7D8",
"z. c #D8D8D8",
"x. c #D8D8D9",
"c. c gray85",
"v. c #D9D9DA",
"b. c #DADADA",
"n. c #DADADB",
"m. c gray86",
"M. c #DBDBDC",
"N. c #DBDBDD",
"B. c gainsboro",
"V. c #DCDCDD",
"C. c #DDDDDD",
"Z. c #DDDDDE",
"A. c gray87",
"S. c #DEDEE0",
"D. c #DFDFE0",
"F. c #DFDFE1",
"G. c #E0E0E1",
"H. c #E1E1E1",
"J. c #E1E1E2",
"K. c #E2E2E2",
"L. c #E2E2E3",
"P. c #E2E2E4",
"I. c #E3E3E4",
"U. c #E4E4E4",
"Y. c #E5E5E6",
/* pixels */
"] ] ....' ' X.X.] ] ] ] ) ) ) ) ) ) Q Q ) ) ) ) X.X.X.X.Q Q M M ] ] ....' ' X.X.] ] ] ] ) ) ) ) ) ) Q Q ) ) ) ) X.X.X.X.Q Q M M ",
"] ] ....' ' X.X.] ] ] ] ) ) ) ) ) ) Q Q ) ) ) ) X.X.X.X.Q Q M M ] ] ....' ' X.X.] ] ] ] ) ) ) ) ) ) Q Q ) ) ) ) X.X.X.X.Q Q M M ",
"%.%.] ] 5.5.X.X.X.X.X.X.X.X.Q Q Q Q Q Q Q Q X.X.O.O.5.5.%.%.M M %.%.] ] 5.5.X.X.X.X.X.X.X.X.Q Q Q Q Q Q Q Q X.X.O.O.5.5.%.%.M M ",
"%.%.] ] 5.5.X.X.X.X.X.X.X.X.Q Q Q Q Q Q Q Q X.X.O.O.5.5.%.%.M M %.%.] ] 5.5.X.X.X.X.X.X.X.X.Q Q Q Q Q Q Q Q X.X.O.O.5.5.%.%.M M ",
"] ] X.X.{ { ] ] ] ] ] ] X.X.X.X.Q Q ] ] ] ] ] ] O.O.@.@.Q Q M M ] ] X.X.{ { ] ] ] ] ] ] X.X.X.X.Q Q ] ] ] ] ] ] O.O.@.@.Q Q M M ",
"] ] X.X.{ { ] ] ] ] ] ] X.X.X.X.Q Q ] ] ] ] ] ] O.O.@.@.Q Q M M ] ] X.X.{ { ] ] ] ] ] ] X.X.X.X.Q Q ] ] ] ] ] ] O.O.@.@.Q Q M M ",
"C C C C C C C C C C C J U U U U U U U U U S C C C C C C C C C C S U U U U U U U S C C C C C C C Z U U F C C C C C C C C C C C C ",
"C C C C C C C C C C :.y.y.y.y.y.y.y.y.y.y.y.+.C C C C C C C C +.y.y.y.y.y.y.y.y.y.+.C C C C C G 6.y.y.y.&.C C C C C C C C C C :.",
"] ] ) ) ) ) Q Q ) 6.0.F J J J J J J J J J a.A.| X.X.| | o.o.#.G.a.J G G G G D D y.C.B M ] ] ] k.A.J J -.A.$.] ] X.X.| | o.o.u.G.",
"] ] ) ) ) ) Q ] 6.d.0.>                   J A.w.4.X.| | o.u.v.G.J               G C.^ G ] ] ] A.A.    d A.j.9.] X.X.| | o.u.v.G.",
"X.X.=.=.) ) ] M.K.K.0.>                   P G.G.G.4.,.,.v.Y.Y.Y.P               U K.0.0.X.Q X.G.G.    g G.G.G.n.X.X.,.,.G.Y.Y.Y.",
"X.X.=.=.) ` %.M.n 5 > .   * P P P P g     - 4 y G.s.,.7.F.Y.8 8 -     k G d     ; 5 e 0.4./ X.G.G.    # 4 4 { G.;.X.,.q.Y.O.8 8 ",
") ) ] ] O.b.C.C.d         4 G.G.G.G.J         2 H.b.h.A.C.C.          J A.J         > 0.G.G.l.G.G.          J A.H.m.z.A.C.G     ",
") ) ] ] k.A.G G w     % 4 y G.s.1.G._ 2 2 2 2 t H.d.A.-.G G     X 2 2 _ A._ 2 2 X   % N P j.G.G.G.          d J } H.A._ G d     ",
"C C C C y.y.          V y.y.y.T C :.y.y.y.y.y.y.y._ y.p         , y.y.y.:.y.y.y.,         V y.y.y.              , y.y.,         ",
"C C C C y.y.          V y.[ _ _ _ _ ' -.-.-.-.[ T _ y.p         , y.-.' C ' -.y.,         V y.y.y.              , y.y.,         ",
"7.7.) ) A.A.          P A.A.A.A.A.A.G.G.D.D.G.G.G.t.A.d         8 Y.d.@.*.*.j.A.2         J A.A.A.              o 4 2 X         ",
"7.7.) ) A.A.          P A.-.d d d d g g f f g b G.u.A.d         8 Y.C.C.A.A.A.A.2         J A.A.A.                              ",
"=.=.=.=.G.G.          P G.P                   2 Y.D.G.g         ; Y Y Y P P P P -         P A.A.G.          = 2 :     - 6 ;     ",
"=.=.=.=.G.G.          P G.P                   2 Y.D.G.g                                   P A.A.G.          J A.E     P P.Y     ",
") ) 7.7.A.A.          I A.A.A.A.A.A.I         2 B.a.C.d                                   J A.A.A.          G C.F     G A.J     ",
") ) 7.7.A.A.          I A.k.A.A.A.A.I         2 B.a.C.d         = G E E J J J J =         J A.A.A.          G C.r.F G y.A.J     ",
"C C C C y.y.          V y.:.' C U y.V         , y.-.y.p         , y.y.y.y.y.y.y.,         V y.y.y.          V y.y.y.y.y.y.V     ",
"C C C C y.y.          V y.y.y.' U y.V         , y.-.y.p         , y.-.U U U -.y.,         V y.y.y.          V y.U U U U y.V     ",
") ) X.X.k.A.C.C.d         < C.d.4.C.D         2 G.v.G.g         2 C.v.X.] ] d.C.2         S C.C.C.          G C.3.o.o.3.A.J     ",
") ) X.X.O.k.C.C.d         < C.C.C.C.D         2 G.v.G.g         2 C.v.X.] ] d.C.2         S C.C.C.          G C.3.o.o.3.A.J     ",
"X.X.X.X.X.X.e.P.P g i O   @ l l a a 0         1 Y.D.Y.z         4 G.v.X.X.X.N.P.4         H I.I.M.          D M.p.5.7.s.G.P     ",
"X.X.X.X.X.X.>.S.G.G.0.>                       1 Y.D.Y.z         4 G.v.X.X.X.N.P.4         H I.I.M.          D M.p.5.7.s.G.P     ",
"] ] X.X.) ) ] { *.j.0.>                       2 C.d.B.s         2 A.v.X.) ) j.A.2         D G.G.D.          J A.@.) ~ X.C.G     ",
"] ] X.X.) ) ] ] ] 9.0.0.M.M.G.G.D.D.C.C.M.M.A.A.C.6.B.B.C.C.A.A.A.A.t.X.) ) 9.A.A.A.0.0.M.M.V.n.D.D.C.C.M.M.A.b.` ) ~ / c.C.A.A.",
"C C C C C C C C C C ' :.y.y.y.y.y.y.y.y.y.y.y.:.' C L :.y.y.y.y.:.' C C C C C ' :.y.y.y.y.:.G G :.y.y.y.y.y.:.G C C C C G :.y.y.",
"C C C C C C C C C C C C C C C C C C C C C C C C C C C C C C C C C C C C C C C C C C C C C C C C C C C C C C C C C C C C C C C C ",
"] ] ....' ' X.X.] ] ] ] ) ) ) ) ) ) Q Q ) ) ) ) X.X.X.X.Q Q M M ] ] ....' ' X.X.] ] ] ] ) ) ) ) ) ) Q Q ) ) ) ) X.X.X.X.Q Q M M ",
"] ] ....' ' X.X.] ] ] ] ) ) ) ) ) ) Q Q ) ) ) ) X.X.X.X.Q Q M M ] ] ....' ' X.X.] ] ] ] ) ) ) ) ) ) Q Q ) ) ) ) X.X.X.X.Q Q M M ",
"%.%.] ] 5.5.X.X.X.X.X.X.X.X.Q ] ,.i.4.X.Q ,.v.v.i.O.5.5.%.%.M M %.%.] ] 5.5.X.X.X.X.X.X.X.X.Q Q Q Q Q Q Q Q X.X.O.O.f.n.m.d.M M ",
"%.%.] ] 5.5.X.X.X.X.X.X.X.X.] M.M.M.M.M.,.M.G.G.H.m.5.5.%.%.M M %.%.] ] 5.5.X.X.X.X.X.X.X.X.Q Q Q Q Q Q Q Q X.X.O.7.Y.Y.K.K.$.M ",
"] ] X.X.{ { ] ] ] ] ] ] X.X.q.G.x 1 t A.k.A.2 2 } H.1.@.Q Q M M ] ] X.X.{ { ] ] ] ] ] ] X.X.X.X.Q Q ] ] ] ] ] ] O.d.J.u 1 ^ 0.A ",
"] ] X.X.{ { ] ] ] ] ] ] X.X.t.G.a   2 A.A.A.    I H.7.i.,.,.R R *.{ ,.t.9.%.] { *.8.2.O.X.X.X.X.Q | 8.8.8.8.8.*.@.b.J.5   D 0.F ",
"C C C C C C C C C C C C C C _ y.p   , y.y.y.    V y.y.y.y.y.y.y.y.6.y.y.y.y.&.6.y.y.y.y.G C C C L y.y.y.y.y.y.y.6.y.y.,   V y.y.",
"C C C C C C C C C C C C C C U y.V 9 + j y.p   9 _ y.y.p p p p p V y.y.p p _ y.y.V p j y.' C C C ' y.p p p p p V y.y.p +   9 p V ",
"] ] ) ) ) ) Q Q ) ) M M ] ] { b.A._ = = J   2 _ G.j.K   4 4 4 o w -.C.    G M.M.d   > 0.j.] ] ] j.A.2 2 2 2 X w 1.G.3 X   - 4 b ",
"] ] ) ) ) ) Q Q ) ) M M ] ] ] { z.A._ X   @ A.A.G.P     G.G.G.4   d C.    G M.M.d   > 0.j.] ] a.A.A.J J J J =   g G.D.3   P G.G.",
"X.X.=.=.) ) Q Q %.%.M M Q Q X.X.X.n.G.4   g G.j.G.P     Y.Y.Y.8   g P.    G M.M.h   > 0.i.Q @.G.j.P   4 4 4 o   g G.U.7   E Y.Y.",
"X.X.=.=.) ) Q Q %.%.M M Q Q X.X.X.v.G.4   g G.t.G.P     Y.Y.Y.8   g P.    G M.M.h   > 0.i.Q 1.G.P     G.G.G.4   g G.U.7   E Y.Y.",
") ) ] ] ] ] ) ) ] ] M M X.X.X.X.X.v.A.2   d A.8.C.H.A.          d C.A.A.2         2 0.0.t.X.O.V.G.G.            g H.A.A.2     s ",
") ) ] ] ] ] ) ) ] ] M M X.X.X.X.X.t.A.A.A.A.A.$.:.m.A.A.C.C.B.B.C.C.k.A.A.A.C.C.A.A.0.W X.X.X.;.n.G.A.A.A.A.A.A.H.H.9.A.C.C.B.B.",
"C C C C C C C C C C C C C C C C C C ' :.y.:.L C C G :.y.y.y.y.y.:.L C ' :.y.y.y.y.:.' C C C C C G :.y.y.y.y.y.y.:.L C ' :.y.y.:.",
"C C C C C C C C C C C C C C C C C C C C C C C C C C C C C C C C C C C C C C C C C C C C C C C C C C C C C C C C C C C C C C C C ",
"7.7.) ) ] ] ] ] ] ] X.X.9.j.j.j.j.j.v.t.%.| o.o.o.o.] ] ) ) M M 7.7.) ) ] ] ] ] ] ] X.X.] ] ] ] ] ] X.X.| | o.o.o.o.] ] ) ) M M ",
"7.7.) ) ] ] ] ] ] ] X.n.A.A.A.A.A.A.G.G.D.%.o.o.o.o.] ] ) ) M M 7.7.) ) ] ] ] ] ] ] X.X.] ] ] ] ] ] X.X.| | o.o.o.o.] ] ) ) M M ",
"=.=.=.=.X.X.X.X.X.X.;.G.{ 4 2 2 4 4 4 b U.U.O.] 7.7.X.X.=.=.M M =.=.=.=.X.X.X.X.X.X.X.X.X.X.] ] X.X.X.X.,.,.] ] 7.7.X.X.=.=.M M ",
"=.=.=.=.X.X.X.X.X.X.1.G.P     J P P - # m U.8.8.i.l.t.t.p.5.C U g.g.g.g.q.*.X.O.1.t.t.t.t.t.$.] X.,.t.t.k.k.8.*.9.7.X.X.=.=.N F ",
") ) 7.7.] ] ] ] ] ] 4.H.J     A.A.A.5   d A.C.C.B.B.C.C.A.A.0.0.C.C.Y.Y.A.A.O.b.A.A.H.H.A.A.A.$.$.A.H.H.A.A.C.C.z./ ) ) ] { -.0.",
") ) 7.7.] ] ] ] ] ] 4.H.J     d d d $ 5 J A.d d &.c d d v A.0.g d d z z v A.z.A.J d g g d d A.a.A.A.g g d d d G B.X.) ) ] *.0.N ",
"C C C C C C C C C C U y.V     , , , , j y.y.    p 9 , , r y.V & & , , + & L y.L 9 + , , , , y.y.-.V   , , , , j y.! C C C ! y.j ",
"C C C C C C C C C C U y.V     y.y.y.y.y.y.y.    & L y.y.y.y.    p V V 9   , y.r + 9 V V V V y.y.L ,   V V V V _ y.&.C C C :.y._ ",
") ) X.X.] ] ) ) ) ) F 0.S     C.C.d.i.,.C.C.    P G.n.v.A.A.    = 2 4 4 2 t C.C.v 2 > > *   G C.C.C.1 1 2 2 X q 1.G.<.o.9.A.( q ",
") ) X.X.] ] ) ) ) ) F 0.S     C.C.) Q Q C.C.    P G.3.o.A.A.    G C.G.G.A.A.C.C.C.C.0.0.S     C.C.C.M.M.C.C.2   g G.t.o.j.A.2   ",
"X.X.X.X.X.X.=.=.X.X.F 0.H     I.M.Q Q Q M.M.    E Y.s.7.n.G.P.6         4 G.P.6             I.I.D             a Y.Y.i.7.t.G.P.k ",
"X.X.X.X.X.X.=.=.X.X.N -.Z.Z.I.I.s.Q Q Q s.M.M.M.Y.L.9.7.;.n.P.P.G.G.G.G.G.G.P.P.G.G.0.0.Z.Z.I.D.M.M.M.M.M.M.M.M.Y.i.7.7.X.t.P.P.",
"] ] X.X.) ) ] ] ] ] M Z s.M.G.n.%.| ) ) ] s.A.A.h. .~ ~ ) ) 9.k.A.A.G.G.h.6.9.k.A.A.0.0.M.M.n.;.x.D.C.C.M.M.A.k.O.) ~ ~ ) ) $.k.",
"] ] X.X.) ) ] ] ] ] M M Q Q o.o.| | ) ) Q Q ] ] ) ) ~ ~ ) ) ] ] ] ] X.X.) ) ] ] ] ] M M Q Q o.o.| | ) ) Q Q ] ] ) ) ~ ~ ) ) ] ] ",
"C C C C C C C C C C C C C C C C C C C C C C C C C C C C C C C C C C C C C C C C C C C C C C C C C C C C C C C C C C C C C C C C ",
"C C C C C C C C C C C C C C C C C C C C C C C C C C C C C C C C C C C C C C C C C C C C C C C C C C C C C C C C C C C C C C C C "
};
