/* XPM */
static char *result[] = {
/* columns rows colors chars-per-pixel */
"64 64 157 2 ",
"   c black",
".  c #1E1E1E",
"X  c #202020",
"o  c #202021",
"O  c gray13",
"+  c #353535",
"@  c gray22",
"#  c #393939",
"$  c gray28",
"%  c gray29",
"&  c #4B4B4B",
"*  c #4C4C4C",
"=  c #565656",
"-  c gray34",
";  c #5A5A5A",
":  c #5B5B5B",
">  c gray36",
",  c #5C5C5D",
"<  c #5D5D5E",
"1  c gray37",
"2  c #5E5E5F",
"3  c #5F5F5F",
"4  c #5F5F60",
"5  c gray45",
"6  c #787879",
"7  c gray48",
"8  c #7B7B7B",
"9  c #7C7C7D",
"0  c #7E7E7E",
"q  c gray53",
"w  c #878788",
"e  c #888889",
"r  c #89898B",
"t  c gray54",
"y  c #8B8B8C",
"u  c gray55",
"i  c gray57",
"p  c #919192",
"a  c #929292",
"s  c #939393",
"d  c #959595",
"f  c #979797",
"g  c #969698",
"h  c #989898",
"j  c #989899",
"k  c #9F9F9F",
"l  c #A1A1A2",
"z  c #A9A9A9",
"x  c #AAAAAA",
"c  c gray68",
"v  c #AFAFAF",
"b  c gray69",
"n  c #B2B2B2",
"m  c #B3B3B4",
"M  c #B4B4B4",
"N  c gray71",
"B  c #B6B6B6",
"V  c #B6B6B7",
"C  c #B7B7B7",
"Z  c #B7B7B8",
"A  c gray72",
"S  c #B9B9B9",
"D  c #B9B9BB",
"F  c gray73",
"G  c #BABABB",
"H  c #BBBBBB",
"J  c #BBBBBC",
"K  c #BCBCBC",
"L  c #BCBCBD",
"P  c #BDBDBE",
"I  c gray",
"U  c #BEBEBF",
"Y  c gray75",
"T  c #BFBFC0",
"R  c #C0C0C0",
"E  c #C0C0C1",
"W  c #C1C1C1",
"Q  c #C1C1C2",
"!  c gray76",
"~  c #C2C2C3",
"^  c #C3C3C4",
"/  c #C4C4C5",
"(  c #C5C5C5",
")  c #C4C4C6",
"_  c #C5C5C6",
"`  c #C5C5C7",
"'  c #C6C6C6",
"]  c #C6C6C7",
"[  c gray78",
"{  c #C6C6C8",
"}  c #C7C7C8",
"|  c #C8C8C8",
" . c #C8C8C9",
".. c gray79",
"X. c #C9C9CA",
"o. c #C9C9CB",
"O. c #CACACA",
"+. c #CACACB",
"@. c #CBCBCB",
"#. c #CACACC",
"$. c #CBCBCC",
"%. c #CCCCCD",
"&. c #CDCDCD",
"*. c #CCCCCE",
"=. c #CDCDCE",
"-. c #CDCDCF",
";. c #CECECE",
":. c #CECECF",
">. c gray81",
",. c #CECED0",
"<. c #CFCFD0",
"1. c #CFCFD1",
"2. c #D0D0D0",
"3. c #D0D0D1",
"4. c gray82",
"5. c #D0D0D2",
"6. c #D1D1D2",
"7. c #D1D1D3",
"8. c #D2D2D3",
"9. c LightGray",
"0. c #D2D2D4",
"q. c #D3D3D4",
"w. c #D3D3D5",
"e. c gray83",
"r. c #D4D4D5",
"t. c #D5D5D5",
"y. c #D4D4D6",
"u. c #D5D5D6",
"i. c #D5D5D7",
"p. c gray84",
"a. c #D6D6D7",
"s. c #D7D7D7",
"d. c #D6D6D8",
"f. c #D8D8D8",
"g. c #D8D8D9",
"h. c gray85",
"j. c #D9D9DA",
"k. c #DADADA",
"l. c #DADADB",
"z. c #DBDBDC",
"x. c #DBDBDD",
"c. c gainsboro",
"v. c #DCDCDD",
"b. c #DDDDDD",
"n. c #DCDCDE",
"m. c #DDDDDE",
"M. c gray87",
"N. c #DEDEDF",
"B. c #DFDFDF",
"V. c #DFDFE0",
"C. c #E0E0E1",
"Z. c #E1E1E1",
"A. c #E2E2E2",
"S. c #E2E2E4",
"D. c #E3E3E4",
"F. c #E4E4E4",
"G. c #E5E5E6",
/* pixels */
"Q Q ) ) W W _ _ Q Q Q Q T T T T T T L L T T T T _ _ _ _ L L z z Q Q ) ) W W _ _ Q Q Q Q T T T T T T L L T T T T _ _ _ _ L L z z ",
"Q Q ) ) W W _ _ Q Q Q Q T T T T T T L L T T T T _ _ _ _ L L z z Q Q ) ) W W _ _ Q Q Q Q T T T T T T L L T T T T _ _ _ _ L L z z ",
" . .Q Q -.-._ _ _ _ _ _ _ _ L L L L L L L L _ _ ] ] -.-. . .z z  . .Q Q -.-._ _ _ _ _ _ _ _ L L L L L L L L _ _ ] ] -.-. . .z z ",
" . .Q Q -.-._ _ _ _ _ _ _ _ L L L L L L L L _ _ ] ] -.-. . .z z  . .Q Q -.-._ _ _ _ _ _ _ _ L L L L L L L L _ _ ] ] -.-. . .z z ",
"Q Q _ _ ~ ~ Q Q Q Q Q Q _ _ _ _ L L Q Q Q Q Q Q ] ] } } L L z z Q Q _ _ ~ ~ Q Q Q Q Q Q _ _ _ _ L L Q Q Q Q Q Q ] ] } } L L z z ",
"Q Q _ _ ~ ~ Q Q Q Q Q Q _ _ _ _ L L Q Q Q Q Q Q ] ] } } L L z z Q Q _ _ ~ ~ Q Q Q Q Q Q _ _ _ _ L L Q Q Q Q Q Q ] ] } } L L z z ",
"S n v v v v v v n S S S S B v v v b S S S S S S S S S S S S S S S S S B v v v M S S S S S S S S S S S S S S B v v v v v v v v v ",
"9.9.[ v v v v [ 9.9.9.9.9.9.@.v N ;.9.9.9.9.9.9.9.9.9.9.9.9.9.9.9.9.9.9.@.v ..9.9.9.9.9.9.9.9.9.9.9.9.9.9.9.9.@.v v v v v v v v ",
"B e.b.Q T T U z.9.N x x B R M.<.s.M.B B B B B B Z Z V V Z Z Z Z B B N Y b.;.z. .N N x x B B B B B B B B B B R M.8._ ^ ^ ` ` ` ` ",
"  B b.} T T / z.N         > M.a.M.M.                                  > b.t.z.p                             > M.j.8.^ ^ ` ` ` ` ",
"  Z S.5.T T / z.S         : C.j.C.C.                                  2 b.t.z.p                             < C.C.C.B.$.-.-.:.:.",
"  Z S.5.T T / z.S         : C.j.C.C.          d Z Z H H J J J J Z Z D / b.;.z.p         % m Z Z Z Z Z Z *   o < < ~ F.3.-.-.:.:.",
"  N M.X.Q Q } b.B         < C.j.C.C.          B Z.Z.M.M.b.b.c.c.b.b.M.M.f.>.b.s         < C.C.C.C.C.M.M.>         A M.X.T T P P ",
"  N M.X.Q Q } b.B         < C.j.C.C.          B Z.=.X.X.} } _ _ } } X.} Q >.b.s         < C.j.%.%.%.a.M.>         A M.X.T T P P ",
"  c 9.S v v S 9.c         - 9.O.9.9.          c 9.O.O.O.O.O.! F v v v v v R 9.u         - 9.O.O.O.O.O.9.-         c 9.S v v v v ",
"  c 9.S v v S 9.c         - 9.O.9.9.          c 9.9.9.9.9.9.9.9.F v v v v R 9.u         - 9.9.9.9.9.9.9.-         c 9.S v v v v ",
"  J b.} Q Q X.M.B         > M.a.M.M.          * < < > > > > 0 2.l.:.T T Q >.M.s         X > > > > > < < X   * Z Z a.M.^ T T z z ",
"  J b.} Q Q X.M.B         > M.a.M.M.                        = 2.V.:.T T Q >.M.s                             < C.C.C.e.Q T T z z ",
"  D S.5._ _ %.C.Z         < M.a.C.C.          & 4 4 < < 2 2 0 2.d.o.o.o._ 8.C.d         o < > > < < < < O   & B J z.C.} o.o.z z ",
"  D S.d.=.=.r.C.Z         < M.a.C.C.          B G.G.C.C.S.S.2.2.5.o.o.o._ 8.C.d         < C.M.M.C.C.C.C.3         J C.%.o.o.z z ",
"  N G.G.M.M.M.M.B         > M.a.M.M.          N c.e.t.t.a.a.I N T T :.:.Q >.M.s         > M.a.a.a.a.k.Z.>         M b.} Q Q z z ",
"  & 4 y M.M.q > &     d B R M.<.M.M.          N c._ T T Q Q z z T T :.:.Q >.M.s         > M.a.Q Q Q k.Z.>         M b.} Q Q z z ",
"      - 9.9.-         c 9.9.@.v 9.9.          c 9.S v v v v v v v v v v v R 9.u         - 9.O.v v v O.9.-         c 9.S v v v v ",
"      - 9.9.-         c 9.S v v 9.9.          c 9.S v v v v v v v v v v v R 9.u         - 9.O.v v v O.9.-         c 9.S v v v v ",
"b.>             > b.2.2.u.J T T b.b.          N C.8.8.8.>.>.=.=.=.=.8.3.] >.b.s         ; k.t.T T T q.z.>         Z C.*.Q Q T T ",
"b.>             > b.2.[ R G T T b.b.          N C.C.C.C.M.M.b.b.b.b.C.C.M.>.b.s         ; k.t.T T T q.z.>         Z C.*.Q Q T T ",
"C.l d 8     9 g l C.K z E E +.+.z.z.          6 j j j j d d g g d d d l C.8.S.g         > m.v.+.L L q.z.:         J G.r._ _ o.o.",
"C.C.C.Z     D S.C.C.v z E E +.+.z.z.                                  < C.j.S.g         > m.v.+.L L q.z.:         J G.r._ _ o.o.",
"] &.C.Z     B M.&.] z z L L ` ` V.V.                                  < b.t.M.s         : z.j.` ^ ^ t.b.:         N c._ T T Q Q ",
"Q ~ v.C.b.b.M.k.~ Q z z L L ` ` g.V.b.b.z.z.M.M.b.b.c.c.b.b.M.M.M.M.C.C.b.;.M.M.M.M.2.2.z.z.0.` ^ ^ ;.b.z.z.M.M.b.b.f.U T T Q Q ",
"v v N @.9.9.@.N v v v v v v v v N @.9.9.9.9.9.9.9.9.9.9.9.9.9.9.9.9.9.@.W v C @.9.9.9.9.@.W v v v v v W @.9.9.9.9.@.N v v v v v ",
"v v v v v v v v v v v v v v v v v v v v v v v v v v v v v v v v v v v v v v v v v v v v v v v v v v v v v v v v v v v v v v v v ",
"Q Q ) ) W W _ _ Q Q Q Q T T T T T T L L T T T T _ _ _ _ L L z z Q Q ) ) W W _ _ Q Q Q Q T T T T T T L L T T T T _ _ _ _ L L z z ",
"Q Q ) ) W W _ _ Q Q Q Q T T T T T T L L T T T T _ _ _ _ L L z z Q Q ) ) W W _ _ Q Q Q Q T T T T T T L L T T T T _ _ _ _ L L z z ",
" . .Q Q y.l.j.8.X._ _ _ =.r.q.$.Q L L L L L _ _ ] ] -.-. . .z z  . .Q Q -.7.8.j.j.j.j.j.8.8.q.=._ L L L L L _ _ ] ] -.-. . .z z ",
" . .Q O.G.G.C.C.C.X._ =.C.C.z.z.z.Q L L L L _ _ ] ] -.-. . .z z  . .Q Q 7.G.C.C.C.C.C.C.C.C.z.z.z._ L L L L _ _ ] ] -.-. . .z z ",
"Q Q _ r.N.w > k M.&.Q 4.C.e < l z. .Q Q Q Q Q Q ] ] } } L L z z Q Q _ _ =.N.k > > > > > C.l < e z.=.Q Q Q Q Q Q ] ] } } L L z z ",
"| >.8.j.N.,   s M.>.Q a.C.<   d z.$.>.>.| Q | >.9.%.} $. .$.M x Q Q _ _ } N.O.B B s     C.d   < z.q.>.>.>.>.>.>.%.] } } L L z z ",
"9.9.9.9.9.-   u 9.R v O.9.-   u 9.9.9.9.9...9.9.9.9.C 9.9.9.9.;.b v v v v ..9.9.9.c     9.c u f 9.9.9.9.9.9.9.9.9.C v v v v v v ",
"9.u u u u +   u 9.R v O.9.-   - u u u u 9.9.R u u 9.@.9.f u c 9.S v v v B S M S 9.c     9.c u f 9.f u u u u u u 9.;.N v v v v v ",
"B   > > > X   p b.=.z ' M.>   @ > > &   B M.B     C.V.V.<   d C.>.Q T s.b.b.z.8.b.N     M.s   > M.>   @ @ X &   Z C.g.$.#.` ` ` ",
"    b.b.b.>   p b.=.z ' M.>   s M.M.B     M.B     C.V.V.<   d C.>.Q ;.b.Y N  .z.b.N     M.s   > M.>   s s > B     C.V.V.C.l.` ` ",
"    S.S.b.>   p A.r.z ' z.:   d C.C.Z     C.Z     C.F.F.4   j G.8._ x.S.>   p z.A.S     z.p   < C.<   d d < Z     C.2.H ] G.j.:.",
"    S.S.b.>   p A.r.z ' z.:   d C.C.Z     C.Z     C.F.F.4   j G.8._ x.S.>   p z.A.S     z.p   < C.<   d d < Z     C.h   4 G.V.:.",
"b.            s M.>.z ' C.<             M.M.M.M.            a c.=.T <.M.M.s           2.C.d   < C.<   s s > B     Z.s   > b.e.P ",
"b.b.M.M.M.M.b.b.M.| z K C.C.C.C.C.C.M.M.M.s.s.M.Z.Z.M.M.>   a c.=.T Q <.M.M.b.b.M.M.2.2.C.C.C.C.C.C.M.M.M.M.M.M.Z.Z.M.M.b.b.%.P ",
"@.9.9.9.9.9.9.@.C v v v W @.9.9.9.9.9.9.@.N W 9.9.9.9.9.-   u 9.R v v v C @.9.9.9.9.9.@.C @.9.@.W @.9.@.W O.@.9.9.@.@.9.@.W v v ",
"v v v v v v v v v v v v v v v v v v v v v v O.9.- - - - . 5 R 9.C v v v v v v v v v v v v v v v v v v v v v v v v v v v v v v v ",
"l.u.T T Q Q Q Q Q Q _ _ Q Q Q Q Q Q _ _ ^ ^ 0.C.Z Z B B N O.2.( :.:.T T <.a.a.<.Q <.j.r.O.Q Q Q Q Q _ _ ^ ^ ` ` ` ` Q Q T T z z ",
"G.G. .T Q Q Q Q Q Q _ _ Q Q Q Q Q Q _ _ ^ ^ { v.C.C.M.M.b.b.( z :.:.T s.M.M.M.M.f.M.C.C.M.O.Q Q Q Q _ _ ^ ^ ` ` ` ` Q Q T T z z ",
"r S.d.o._ _ _ _ _ _ _ _ _ _ Q Q _ _ _ _ $.$.Q ~ r.r.%.%.5.*.z z o.o.,.S.~ < < C.C.~ < e C.r.Q Q _ _ _ _ $.$.Q Q :.:._ _ o.o.z z ",
"2 S.x.1._ $.8.8.8.8.8.%.] _ Q Q _ _ ] %.s.s.>.>.j.q.] %.i.w.v z 1.i.i.S.Z     C.C.Z   < C.j.| Q _ _ _ _ $.$.Q Q :.:._ _ o.o.z z ",
"> b.G.G.| M.M.M.M.M.Z.Z.k.~ Q Q Q ~ b.Z.M.M.b.b.c.c.h.b.M.M.2.n b.b.G.G.O.s s M.M.B   1 M.M.M.| Q Q ] ] Q Q T T P P T T Q Q z z ",
"@ s j G.M.M.s s s s d A M.p.Q Q Q f.Z.A s s s s a c.b.N s k 2.O.b.s j 6.O.s s M.B 7   # s s M.<.Q Q ] ] Q Q T T P P T T Q Q z z ",
". - - 9.O.c   - - - . 5 R 9.C v W 9.C 5 + - - $   c 9.f $ $ C 9.c   $ C c     9.f $   . - - 9.O.S S b v v v v v v v v v v v v v ",
"- 9.9.9.c     9.9.9.-   u 9.R v O.9.-   5 c c u     9.9.C $ . -   - C 9.c     9.9.c   - 9.9.9.9.9.9.;.N v v v v v v v v v v v v ",
"> b.C.C.B     b.b.b.=   i k.=.T t.b.:   @ > > > < < C.C.e.s       N a.C.B     b.b.N   = k.k.b.9.N N z.r.T T T T ` ` ` ` Q Q T T ",
"> b.C.C.B     b.b.b.=   i k.=.T t.b.:   s b.b.b.C.C.C.C.B   & N     Z C.B     b.b.N   = k.k.b.N     z.z.T T T T ` ` ` ` Q Q T T ",
"      C.C.C.          t m.m.3.+.$.z.z.p           G.G.j   < S.S.C.    Z Z     S.C.C.x       D.G     z.z.L L L L -.-.:.:._ _ o.o.",
"C.C.C.C.l.C.S.S.C.C.2.2.m.} +.+.L $.z.z.z.z.z.z.G.G.G.G.C.C.S.n.C.C.C.C.C.C.S.S.l.v.2.2.m.m.D.D.z.z.z.r.L L L L -.-.:.:._ _ o.o.",
"M.M.C.l./ p.M.M.M.M.2.[ ^ L ` ` ^ ^ ] p.z.z.M.M.b.p./ t.b.p.<.] s.M.C.l.p.b.M.s.] ] [ 2.z.z.l.l.V.V.p./ L L Q Q T T P P T T Q Q ",
"Q Q _ _ T T Q Q Q Q z z L L ` ` ^ ^ T T L L Q Q T T P P T T Q Q Q Q _ _ T T Q Q Q Q z z L L ` ` ^ ^ T T L L Q Q T T P P T T Q Q ",
"v v v v v v v v v v v v v v v v v v v v v v v v v v v v v v v v v v v v v v v v v v v v v v v v v v v v v v v v v v v v v v v v ",
"v v v v v v v v v v v v v v v v v v v v v v v v v v v v v v v v v v v v v v v v v v v v v v v v v v v v v v v v v v v v v v v v "
};
