/* XPM */
static char *df9c399dc3164da794efee4da8d13d92oFPOLluR5GhKcCSZ[] = {
/* columns rows colors chars-per-pixel */
"64 64 155 2 ",
"   c None",
".  c #010101",
"X  c #080404",
"o  c #050904",
"O  c #0F0A07",
"+  c #060509",
"@  c #09040B",
"#  c #0C0D0D",
"$  c #110C0A",
"%  c #15130E",
"&  c #1D140E",
"*  c #141414",
"=  c #1A1310",
"-  c #171817",
";  c #1A1A17",
":  c #1B1B1B",
">  c #262217",
",  c #2D241D",
"<  c #262626",
"1  c #292422",
"2  c #272826",
"3  c #2B2B2B",
"4  c #342922",
"5  c #34312B",
"6  c #2D2F33",
"7  c #343434",
"8  c #3C3C3C",
"9  c #403124",
"0  c #40342B",
"q  c #443828",
"w  c #4A3D38",
"e  c #5D5F14",
"r  c #605D19",
"t  c #7A6E0E",
"y  c #717405",
"u  c #75720A",
"i  c #50412F",
"p  c #464130",
"a  c #4C4332",
"s  c #4E463D",
"d  c #4C493F",
"f  c #544536",
"g  c #53463A",
"h  c #56483E",
"j  c #62583F",
"k  c #706625",
"l  c #424242",
"z  c #4B4542",
"x  c #464A45",
"c  c #4B4C4B",
"v  c #524B40",
"b  c #545454",
"n  c #5E5E5D",
"m  c #625746",
"M  c #635844",
"N  c #60584C",
"B  c #5F605D",
"V  c #6F664E",
"C  c #6E6352",
"Z  c #60615E",
"A  c #6B655F",
"S  c #776B58",
"D  c #616060",
"F  c #686560",
"G  c #6C6C6C",
"H  c #7C7C7C",
"J  c #847719",
"K  c #82791A",
"L  c #887152",
"P  c #84755F",
"I  c #8A765D",
"U  c #837462",
"Y  c #887461",
"T  c #837867",
"R  c #8D7C62",
"E  c #8D7E6A",
"W  c #917F62",
"Q  c #B09A7E",
"!  c #B2A36B",
"~  c #DBBF76",
"^  c #DBC473",
"/  c #838383",
"(  c #A59781",
")  c #A89881",
"_  c #A39F97",
"`  c #B6A382",
"'  c #B5AA89",
"]  c #A1A09F",
"[  c #A2A1A1",
"{  c #A7A9A7",
"}  c #C5B484",
"|  c #C8B185",
" . c #C3B08C",
".. c #CCB38D",
"X. c #C0AD90",
"o. c #C6B093",
"O. c #D3BA95",
"+. c #C3B8AB",
"@. c #D5C092",
"#. c #DAC197",
"$. c #D7C39E",
"%. c #D9C39D",
"&. c #E6C794",
"*. c #E8CD9D",
"=. c #F6CF9B",
"-. c #F3D491",
";. c #FCD695",
":. c #F6D997",
">. c #FBDA95",
",. c #F4D69D",
"<. c #FCD69B",
"1. c #F6D99C",
"2. c #FCD89B",
"3. c #D6C3A1",
"4. c #DBC5A5",
"5. c #D4C8A6",
"6. c #D1C6AA",
"7. c #D9CCAA",
"8. c #DDD0B6",
"9. c #E6D2AE",
"0. c #EBD4AA",
"q. c #EFD9AE",
"w. c #F4D6A5",
"e. c #FAD7A1",
"r. c #FAD5A3",
"t. c #F5D9A6",
"y. c #F5DAA4",
"u. c #F8D9A2",
"i. c #F9DCA3",
"p. c #F9DBA5",
"a. c #FADAA4",
"s. c #F3D5AA",
"d. c #F6D7AB",
"f. c #F3D7AD",
"g. c #F4D7A9",
"h. c #F9D6A9",
"j. c #F4DBAA",
"k. c #EBD5B2",
"l. c #ECD9B2",
"z. c #E5D7B9",
"x. c #EAD6B8",
"c. c #F7DBB6",
"v. c #FADAB4",
"b. c #F1D9B8",
"n. c #F7E1AD",
"m. c gray80",
"M. c #DBD3C2",
"N. c #D5D5D5",
"B. c #DDDCDA",
"V. c #F7EED6",
"C. c #F7EFDD",
"Z. c #F9F2DD",
"A. c #F7F8F7",
"S. c #F5FAF8",
"D. c #FDFDFD",
/* pixels */
"                                                  8 # # # # # # # # # # # # # # # # # :                                         ",
"                                                  7 . . . . . . . . . . . . . . . . X *                                         ",
"                                                  x . . . . . . . . . . . . . . . . . *                                         ",
"                                      3 : : : : : * . . . . . . . . . . . . . . . . . X : : 3                                   ",
"                                      - . . . . . . . . . . . . . . . . . . . . . . . . . . -                                   ",
"                                      - . . . . . . . . . . . . . . . . . . . . . . . . . . -                                   ",
"                                      - . . . . . . . . p 5.3.$.$.$.$.$.$.%.$.3.$.%.%.6._                                       ",
"                                      - . . . . . . . . a t.,.<.<.,.<.<.<.1.1.<.<.<.,.0.                                        ",
"                                      - . . . X X X . . a u.;.u.g.g.g.g.w.w.e.,.u.t.j.l.                                        ",
"                                      - . . g o. .S X . i e.;.` 4 4 4 4 4 f j.1.#.9 4 5                                         ",
"                                      - . . M t.,.W X . i e.;.) X . . X . , j.1.O.O + *                                         ",
"                                      - . . j y.u.W o o i r.r.( X X . . . > n.,.O.$ . =                                         ",
"                                      - . . m d.;.&.| } @.2.;.*.} } ! r e k 1.;.=.......0.0.z.                                  ",
"                                      - . . m t.;.;.;.1.1.1.2.,.,.:.^ u y K >.;.;.<.<.<.,.,.f.                                  ",
"                                      - . . N b.h.e.1.:.1.1.1.2.<.1.^ t u J >.;.;.;.;.<.;.<.f.                                  ",
"                                            F 0 q W p.<.;.;.2.;.<.<.-.~ ^ ^ >.;.;.<.;.;.;.<.g.                                  ",
"                                            n . X C i.;.;.;.<.;.<.<.<.;.>.>.;.<.;.;.;.;.;.<.g.                                  ",
"                                            D . . V 1.2.<.<.2.2.<.;.;.;.;.2.2.;.;.;.<.e.e.t.k.                                  ",
"                                                  ' 1.<.<.2.2.2.2.;.;.;.;.2.2.2.2.<.<.d.4.7.                                    ",
"                                                  7.1.<.<.2.<.<.2.;.;.;.;.2.2.2.2.2.u.l.                                        ",
"                                                  8.f.r.a.,.e.<.<.2.2.2.2.2.2.>.2.a.t.x.                                        ",
"                                                  A g f L 1.;.<.2.2.2.2.2.2.2.>.w.3.4.                                          ",
"                                                  6 + @ f 1.;.;.<.;.;.;.;.2.2.1.0.                                              ",
"                                                  x X X a d.e.p.a.a.p.p.p.p.u.y.k.                                              ",
"                                      l 3 3 3 7 8 < X X d Z.C.+.h h h h h C Z.V.M.z 8 8                                         ",
"                                      - . . . . . . . . c D.A.{ X . . . . 3 D.D.N.$ X *                                         ",
"                                      - . . . . . . . . c D.S.{ + . . . . < D.D.N.# . #                                         ",
"                                c 3 3 * . . . . . . . . c D.D.B.] [ / . . < D.D.N.# . #                                         ",
"                                7 . . . . . . . . . . . c D.D.D.D.D.m.X . < D.D.N.+ . #                                         ",
"                                8 . . . . . . . . . . . c D.D.D.D.D.m.X . < D.D.N.+ . *                                         ",
"                            X + * . . . . . . . . . . . c D.D.D.D.D.m.X . < D.D.N.+ . + + X :                                   ",
"                          * . . . . . . . . . . . . . . c D.D.D.D.D.m.X . < D.D.N.+ . . . . -                                   ",
"                          * . . . . . . . . . . . . . . c D.D.D.D.D.m.X . < D.D.N.+ . . . . -                                   ",
"                          - . . . . . . . . . . . . . . c D.D.D.D.D.m.X . < D.D.N.+ . . . . -                                   ",
"                          - . . . . . . . . . . . . . . c D.D.D.D.D.m.X . < D.D.N.+ . . . . -                                   ",
"                          - . X . . . @ X @ + X . . X . x D.D.D.D.D.m.X . < D.D.N.# X X X . ;                                   ",
"                            x b 3 X X w U U U U U s X . 2 H H [ D.D.m.X . < D.D.N.+ . $ T P T                                   ",
"                                7 X X Y j.p.u.y.y.R X . . . X b D.D.m.X . < D.D.N.+ X & v.1.q.                                  ",
"                                7 . X I ,.;.;.;.:.R X . . . X b D.D.m.X . < D.D.N.+ . & v.;.g.                                  ",
"                                  : 1 Q 1.1.1.<.,.R . . . . . 3 / / G . . - / / G + . & v.;.g.                                  ",
"                                      k.u.1.1.<.,.R . . . . . . . . . . . . . X . . X & v.;.g.                                  ",
"                                      9.t.u.u.u.p.E . . . . . . . . . . . . . . . . X & c.,.g.                                  ",
"                                        9.9.X.R R v . . . . . . . . . . . . . . . . . % x.                                      ",
"                                            D . . . . . . . . . . . . . . . . . . . X %                                         ",
"                                            Z . . . . . . . . . . . . . . . . . . . . *                                         ",
"                                            B . . . . . . . . : # # + . . . . . . . . *                                         ",
"                                            D . . . . . . . . l       . . . . . . . . *                                         ",
"                                            D . . . . . . . . l       . . . . . . . . *                                         ",
"                                            D . . . . . . . . l       . . . . . . . . *                                         ",
"                                            D . . . . . . . . l       . . . . . . . . *                                         ",
"                                            D . . . . . . . . l       . . . . . . . . *                                         ",
"                                            8 . . . . . + - : l       . . . . . # - X :                                         ",
"                                      - . . . . . . . . -             . . . . . :                                               ",
"                                      - . . . . . . . . -             . . . . . :                                               ",
"                                      - . . . . . . . . -             . . . . . :                                               ",
"                                      - . . . . . . . . -             . . . . . :                                               ",
"                                      - . . . . . . . . -             . . . . . :                                               ",
"                                      : . . . . . . . . -             . . . . . - G                                             ",
"                                8 X . X . . . . . . . . -             . . . . . . . X *                                         ",
"                                8 . . . . . . . . . . . -             . . . . . . . . *                                         ",
"                                8 . . . . . . . . . . . - n n         . . . . . . . . # G n n n n D                             ",
"                                8 . . . . . . . . . . . . . X 8       . . . . . . . . . . . . . . X                             ",
"                                7 . . . . . . . . . . . . . X 8       . . . . . . . . . . . . . . +                             ",
"                                b 3 3 3 3 3 3 3 3 3 3 3 3 3 3 b       3 3 3 3 3 3 3 3 3 3 3 3 3 3 3                             "
};
