/* XPM */
static char *_c88ac5624414f3fe1666e6ccdfa3f95sEwY0HlL6Dlk7jxH[] = {
/* columns rows colors chars-per-pixel */
"64 64 176 2 ",
"   c #010101",
".  c #080404",
"X  c #050904",
"o  c #0F0A07",
"O  c #060509",
"+  c #09040B",
"@  c #0D0D0D",
"#  c #110C0A",
"$  c #15130E",
"%  c #1D140E",
"&  c #121212",
"*  c #1A1310",
"=  c #171817",
"-  c #1C1C1C",
";  c #1A1A17",
":  c #262217",
">  c #2D241D",
",  c #262626",
"<  c #272826",
"1  c #2B2B2B",
"2  c #342922",
"3  c gray20",
"4  c #393630",
"5  c #373738",
"6  c #3B3B3B",
"7  c #403124",
"8  c #443828",
"9  c #40342B",
"0  c #4A3D38",
"q  c #5D5F14",
"w  c #605D19",
"e  c #7A6E0E",
"r  c #75720A",
"t  c #717405",
"y  c #50412F",
"u  c #464130",
"i  c #4C4332",
"p  c #4C493F",
"a  c #4E463D",
"s  c #53463A",
"d  c #56483E",
"f  c #544536",
"g  c #62583F",
"h  c #706625",
"j  c #434343",
"k  c #4B4C4C",
"l  c #4B4542",
"z  c #524B40",
"x  c #555555",
"c  c #5B5B5B",
"v  c #625746",
"b  c #635844",
"n  c #60584C",
"m  c #6F664E",
"M  c #6E6352",
"N  c #776B58",
"B  c #646465",
"V  c #676966",
"C  c #676768",
"Z  c #6B6B6B",
"A  c #6D6A66",
"S  c #737373",
"D  c #7B7B7B",
"F  c #787373",
"G  c #847719",
"H  c #82791A",
"J  c #887152",
"K  c #87765E",
"L  c #837462",
"P  c #887461",
"I  c #837866",
"U  c #8D7C62",
"Y  c #877D6E",
"T  c #8D7E6A",
"R  c #917F62",
"E  c #B2A36B",
"W  c #DBBF76",
"Q  c #DBC473",
"!  c #838383",
"~  c #878788",
"^  c #8D8D8D",
"/  c #8C8885",
"(  c #919192",
")  c #9C9C9D",
"_  c #A59781",
"`  c #A89881",
"'  c #B09D84",
"]  c #B6A382",
"[  c #A4A29E",
"{  c #BBB299",
"}  c #9F9FA0",
"|  c #A3A3A4",
" . c #A7A9A7",
".. c #AEAEAE",
"X. c #B5B2AC",
"o. c #B2B2B3",
"O. c #BCBCBD",
"+. c #C5B484",
"@. c #C8B185",
"#. c #CCB38D",
"$. c #C3B08C",
"%. c #C0AE92",
"&. c #C6B093",
"*. c #D3BA95",
"=. c #C3B8AB",
"-. c #C1BFBE",
";. c #DAC197",
":. c #D7C39E",
">. c #D8C39C",
",. c #D5C092",
"<. c #E6C794",
"1. c #E8CD9D",
"2. c #F6CF9B",
"3. c #FCD695",
"4. c #F6D997",
"5. c #FBDA95",
"6. c #F4D69D",
"7. c #FCD69B",
"8. c #F6D99C",
"9. c #FCD89B",
"0. c #F3D491",
"q. c #D6C3A2",
"w. c #D4C8A6",
"e. c #D4C5AC",
"r. c #C4C1BE",
"t. c #CEC7BD",
"y. c #D2C6B3",
"u. c #DBCCB5",
"i. c #D4CCBA",
"p. c #DDD2BC",
"a. c #E7D1AB",
"s. c #EBD5AB",
"d. c #EDD8AF",
"f. c #F4D6A5",
"g. c #FAD6A2",
"h. c #F5D9A4",
"j. c #FADAA4",
"k. c #F2D6AA",
"l. c #F5DBAA",
"z. c #F9D6A9",
"x. c #E7D6B0",
"c. c #EAD6B4",
"v. c #E6D8B1",
"b. c #EFD8B3",
"n. c #F7DBB6",
"m. c #FADAB4",
"M. c #F1D9B8",
"N. c #F7E1AD",
"B. c #BFBFC0",
"V. c #BFBFC0",
"C. c #C1C1C1",
"Z. c #C1C1C2",
"A. c #C2C2C3",
"S. c #C3C3C4",
"D. c #C5C5C6",
"F. c #C5C5C7",
"G. c #C6C6C7",
"H. c #C3C3C4",
"J. c #C7C7C8",
"K. c #C7C7C8",
"L. c #C8C8C9",
"P. c #C9C9CB",
"I. c #CBCBCC",
"U. c #CDCDCF",
"Y. c #CECECF",
"T. c #CBCBCC",
"R. c #CCC8C1",
"E. c #DBD3C2",
"W. c #D5D5D5",
"Q. c #DDDCDA",
"!. c #F7EED6",
"~. c #F7EFDD",
"^. c #F9F2DD",
"/. c #F7F8F7",
"(. c #FDFDFD",
"). c #F5FAF8",
/* pixels */
"Z.Z.F.F.Z.Z.F.F.Z.Z.Z.Z.B.B.B.B.B.B.O.O.B.B.B.B.F.S @ @ @ @ @ @ @ @ @ @ @ @ @ @ @ @ @ - B.B.B.B.B.B.O.O.B.B.B.B.F.F.F.F.O.O. . .",
"Z.Z.F.F.Z.Z.F.F.Z.Z.Z.Z.B.B.B.B.B.B.O.O.B.B.B.B.F.Z                                 . & B.B.B.B.B.B.O.O.B.B.B.B.F.F.F.F.O.O. . .",
"L.L.Z.Z.U.U.F.F.F.F.F.F.F.F.O.O.O.O.O.o.o.o.O.O.O.C                                   & O.O.o.O.O.O.O.O.O.O.F.F.F.F.U.U.L.L. . .",
"L.L.Z.Z.U.U.F.F.F.F.F.F.F.F.O.O.O.O.O.C - - - - - &                                   . - - 3 o.O.O.O.O.O.O.F.F.F.F.U.U.L.L. . .",
"Z.Z.F.F.Z.Z.Z.Z.Z.Z.Z.Z.F.F.F.F.O.O.Z.c                                                     = o.O.O.Z.Z.Z.Z.Z.Z.F.F.K.K.O.O. . .",
"Z.Z.F.F.Z.Z.Z.Z.Z.Z.Z.Z.F.F.F.F.O.O.Z.c                                                     = o.O.O.Z.Z.Z.Z.Z.Z.F.F.K.K.O.O. . .",
"......................................x                 u w.q.:.:.:.:.:.:.>.:.q.:.>.>.e.[ ) ) ..................................",
"......................................x                 i h.6.7.7.6.7.7.7.8.8.7.7.7.8.s.X.......................................",
"Z.Z.B.B.B.B.O.O.B.B. . .Z.Z.Z.Z.Z.Z.Z.c       . . .     i j.3.f.k.k.k.k.f.f.g.6.j.h.l.v.-.Z.Z.Z.Z.Z.Z.Z.Z.Z.Z.Z.F.F.S.S.F.F.F.F.",
"Z.Z.B.B.B.B.O.O.B.B. . .Z.Z.Z.Z.Z.Z.Z.c     s &.$.N .   y g.3.] 2 2 2 2 2 f l.8.;.7 2 4 Z.Z.Z.Z.Z.Z.Z.Z.Z.Z.Z.Z.F.F.S.S.F.F.F.F.",
"F.F.L.L.B.B.O.O.L.L. . .O.O.F.F.F.F.F.c     b h.6.R .   y g.3.` .     .   > l.4.*.o O & O.O.F.F.F.F.F.F.F.F.F.F.F.F.I.I.U.U.U.U.",
"F.F.L.L.B.B.O.O.L.L. . .O.O.F.F.F.F.F.c     g h.f.R X X y g.g._ . .       : N.6.*.#   * O.O.F.F.F.F.F.F.F.F.F.F.F.F.I.I.U.U.U.U.",
"B.B.Z.Z.Z.Z.B.B.Z.Z. . .F.F.F.F.F.F.Z.c     v z.3.<.@.+.,.9.9.1.+.+.E w q h 8.3.2.#.#.#.s.a.p.D.F.F.Z.Z.Z.Z.Z.Z.F.F.Z.Z.B.B.O.O.",
"B.B.Z.Z.Z.Z.B.B.Z.Z. . .F.F.F.F.F.F.Z.c     v h.3.3.3.8.8.8.9.6.6.4.Q r t H 5.3.3.7.7.7.6.6.k.D.F.F.Z.Z.Z.Z.Z.Z.F.F.Z.Z.B.B.O.O.",
"......................................x     n M.z.g.8.4.8.8.8.9.7.8.Q e r G 5.3.3.3.3.7.3.7.k.X.................................",
"......................................) ^ ^ A 9 8 R j.7.3.3.9.3.7.7.0.W Q Q 5.3.3.7.3.3.3.7.k.X.................................",
"U.U.B.B.Z.Z.Z.Z.Z.Z.F.F.Z.Z.Z.Z.Z.Z.F.F.S.S.S   . M j.3.3.9.7.3.7.7.7.3.5.5.3.7.3.3.3.3.3.7.k.r.Z.Z.F.F.S.S.F.F.F.F.Z.Z.V.B. . .",
"U.U.B.B.Z.Z.Z.Z.Z.Z.F.F.Z.Z.Z.Z.Z.Z.F.F.S.S.S     m 8.9.9.7.9.9.7.3.3.3.3.9.9.3.3.3.7.g.g.h.c.r.Z.Z.F.F.S.S.F.F.F.F.Z.Z.V.B. . .",
"L.L.L.L.F.F.F.F.F.F.F.F.F.F.Z.Z.F.F.F.F.I.I. .~ ( { 8.7.7.9.9.9.9.3.3.3.3.9.9.9.9.7.7.z.e.y.t.Z.F.F.F.F.I.I.Z.Z.U.U.F.F.I.I. . .",
"L.L.L.L.F.F.F.F.F.F.F.F.F.F.Z.Z.F.F.F.F.I.I.Z.Z.U.i.8.7.7.9.7.7.9.3.3.3.3.9.9.9.9.9.j.b.F.F.Z.Z.F.F.F.F.I.I.Z.Z.U.U.F.F.I.I. . .",
"B.B.U.U.Z.Z.Z.Z.Z.Z.F.F.Z.Z.Z.Z.Z.Z.F.F.Z.Z.B.B.O.i.l.g.j.6.g.7.7.9.9.9.9.9.9.5.9.j.h.c.Z.Z.Z.Z.Z.Z.F.F.Z.Z.B.B.O.O.B.B.Z.Z. . .",
"B.B.U.U.Z.Z.Z.Z.Z.Z.F.F.Z.Z.Z.Z.Z.Z.F.F.Z.Z.B.B.O./ s f J 8.3.7.9.9.9.9.9.9.9.5.f.q.y.t.Z.Z.Z.Z.Z.Z.F.F.Z.Z.B.B.O.O.B.B.Z.Z. . .",
"..................................................B O + y 8.3.3.7.3.3.3.3.9.9.8.s.X.............................................",
"..................................................V . . i z.g.j.j.j.j.j.j.j.j.h.x.X.............................................",
"B.B.F.F.Z.Z.B.B.V.V. . .O.O.B.B.B.B.O.D j j j j j , . . p ^.~.=.d d d d d M ^.!.E.l j k O.O.B.B.B.B.O.O.B.B.B.B.F.F.F.F.Z.Z.B.B.",
"B.B.F.F.Z.Z.B.B.B.B. . .O.O.B.B.B.B.O.c                 k (./. ..         1 (.(.W.# . & O.O.B.B.B.B.O.O.B.B.B.B.F.F.F.F.Z.Z.B.B.",
"F.F.F.F.F.F.L.L.F.F. . .Z.Z.L.L.O.O.O.c                 k (.). .O         , (.(.W.@   @ Z.Z.L.L.O.O.O.O.O.O.O.O.U.U.U.U.F.F.L.L.",
"F.F.F.F.F.F.L.L.F.F. . .Z.Z.L.L.S j j ,                 k (.(.Q.[ | !     , (.(.W.@   @ Z.Z.L.L.O.O.O.O.O.O.O.O.U.U.U.U.F.F.L.L.",
"Z.Z.F.F.B.B.Z.Z.Z.Z. . .O.O.F.F.k                       k (.(.(.(.(.U..   , (.(.W.@   @ O.O.F.F.S.S.B.B.O.O.Z.Z.B.B.O.O.V.B.Z.Z.",
"Z.Z.F.F.B.B.Z.Z.Z.Z. . .O.O.F.F.k                       k (.(.(.(.(.U..   , (.(.W.@   & O.O.F.F.S.S.B.B.O.O.Z.Z.B.B.O.O.V.B.Z.Z.",
"..........................S k k -                       k (.(.(.(.(.U..   , (.(.W.@   O k k x  .................................",
"..........................j                             k (.(.(.(.(.U..   , (.(.W.@         =  .................................",
"Z.Z.F.F.Z.Z.F.F.Z.Z.Z.Z.B.k                             k (.(.(.(.(.U..   , (.(.W.@         = o.B.B.O.O.B.B.B.B.F.F.F.F.O.O. . .",
"Z.Z.F.F.Z.Z.F.F.Z.Z.Z.Z.B.k                             k (.(.(.(.(.U..   , (.(.W.@         = o.B.B.O.O.B.B.B.B.F.F.F.F.O.O. . .",
"L.L.Z.Z.U.U.F.F.F.F.F.F.F.k                             k (.(.(.(.(.U..   , (.(.W.@         = ..O.O.O.O.O.O.F.F.F.F.U.U.L.L. . .",
"L.L.Z.Z.U.U.F.F.F.F.F.F.F.k   .       + . + O .     .   k (.(.(.(.(.U..   , (.(.W.@ . . .   ; ..O.O.O.O.O.O.F.F.F.F.U.U.L.L. . .",
"Z.Z.F.F.Z.Z.Z.Z.Z.Z.Z.Z.F.~ C C 1 . . 0 L L L L L a .   < D D | (.(.U..   , (.(.W.@   # I K Y O.O.O.Z.Z.Z.Z.Z.Z.F.F.K.K.O.O. . .",
"Z.Z.F.F.Z.Z.Z.Z.Z.Z.Z.Z.F.F.F.F.k . . P l.j.j.h.h.U .       . x (.(.L..   , (.(.W.@ . % m.8.d.D.O.O.Z.Z.Z.Z.Z.Z.F.F.K.K.O.O. . .",
"..............................o.k   . K 6.3.3.3.4.U .       . x (.(.L..   , (.(.W.@   % m.3.k.X.................................",
"................................D x c ' 8.8.8.7.6.U           1 ! ! C     = ~ ! Z O   % m.3.k.X.................................",
"Z.Z.B.B.B.B.O.O.B.B. . .Z.Z.Z.Z.Z.Z.Z.u.j.8.8.7.6.U                           .     . % m.3.k.r.Z.Z.Z.Z.Z.Z.Z.Z.F.F.S.S.F.F.F.F.",
"Z.Z.B.B.B.B.O.O.B.B. . .Z.Z.Z.Z.Z.Z.Z.u.h.j.j.j.j.T                                   % n.6.d.r.Z.Z.Z.Z.Z.Z.Z.Z.F.F.S.S.F.F.F.F.",
"F.F.L.L.B.B.O.O.L.L. . .O.O.F.F.F.F.F.R.i.u.%.U U z                                   $ i.y.i.F.F.F.F.F.F.F.F.F.F.F.I.I.U.U.U.U.",
"F.F.L.L.B.B.O.O.L.L. . .O.O.F.F.F.F.F.F.F.F.F                                         $ O.O.F.F.F.F.F.F.F.F.F.F.F.F.I.I.U.U.U.U.",
"B.B.Z.Z.Z.Z.B.B.Z.Z. . .F.F.F.F.F.F.Z.Z.Z.Z.S                                         & F.F.F.F.F.F.Z.Z.Z.Z.Z.Z.F.F.Z.Z.V.V.O.O.",
"B.B.Z.Z.Z.Z.B.B.Z.Z. . .F.F.F.F.F.F.Z.Z.Z.Z.S                 - x x j                 & F.F.F.F.F.F.Z.Z.Z.Z.Z.Z.F.F.Z.Z.V.V.O.O.",
"............................................S                 j ....^                 & ........................................",
"............................................S                 j ....^                 & ........................................",
"U.U.B.B.Z.Z.Z.Z.Z.Z.F.F.Z.Z.Z.Z.Z.Z.F.F.S.S.S                 j U.U.)                 & Z.Z.Z.Z.Z.Z.F.F.S.S.F.F.F.F.Z.Z.B.B. . .",
"U.U.B.B.Z.Z.Z.Z.Z.Z.F.F.Z.Z.Z.Z.Z.Z.F.F.S.S.S                 j U.U.)                 & Z.Z.Z.Z.Z.Z.F.F.S.S.F.F.F.F.Z.Z.B.B. . .",
"L.L.L.L.F.F.F.F.F.F.F.F.F.F.Z.Z.F.F.F.F.I.I.S                 j L.L.|                 & F.F.Z.Z.F.F.F.F.I.I.Z.Z.U.U.F.F.L.L. . .",
"L.L.L.L.F.F.F.F.F.F.F.F.F.F.Z.Z.F.F.F.) ! ! k           = k j C L.L.|           @ k x c F.F.Z.Z.F.F.F.F.I.I.Z.Z.U.U.F.F.L.L. . .",
"B.B.U.U.Z.Z.Z.Z.Z.Z.F.F.Z.Z.Z.Z.Z.Z.F.c                 5 Z. . .B.B. .          - O.F.F.Z.Z.Z.Z.Z.Z.F.F.Z.Z.B.B.O.O.B.B.Z.Z. . .",
"B.B.U.U.Z.Z.Z.Z.Z.Z.F.F.Z.Z.Z.Z.Z.Z.F.c                 5 Z. . .B.B. .          - O.F.F.Z.Z.Z.Z.Z.Z.F.F.Z.Z.B.B.O.O.B.B.Z.Z. . .",
"......................................x                 3 ..........^           -  .............................................",
"......................................x                 3 ..........^           -  .............................................",
"B.B.F.F.Z.Z.B.B.B.B. . .O.O.B.B.B.B.O.c                 5 Z.B.B.B.B.}           - o. . .O.O.B.B.B.B.O.O.B.B.B.B.F.F.F.F.Z.Z.B.B.",
"B.B.F.F.Z.Z.B.B.B.B. . .O.O.B.B.) ~ ~ j                 5 Z.B.B.B.B.}           = ~ D D O.O.B.B.B.B.O.O.B.B.B.B.F.F.F.F.Z.Z.B.B.",
"F.F.F.F.F.F.L.L.F.F. . .Z.Z.L.L.k .   .                 5 F.L.L.F.F.}               . & Z.Z.L.L.O.O.O.O.O.O.O.O.U.U.U.U.F.F.L.L.",
"F.F.F.F.F.F.L.L.F.F. . .Z.Z.L.L.k                       5 F.L.L.F.F.}                 & Z.Z.L.L.O.O.O.O.O.O.O.O.U.U.U.U.F.F.L.L.",
"Z.Z.F.F.B.B.Z.Z.Z.Z. . .O.O.F.F.k                       1 ^ ( | Z.Z.}                 @ ^ ^ ( ( ( ( B.B.O.O.Z.Z.B.B.O.O.B.B.Z.Z.",
"Z.Z.F.F.B.B.Z.Z.Z.Z. . .O.O.F.K.k                           . 6 Z.Z.}                             . B.B.O.O.Z.Z.B.B.O.O.B.B.Z.Z.",
"..............................o.k                           . 6 ....^                             @ ............................",
"..............................o.B 1 1 1 1 1 1 1 1 1 1 1 1 1 1 c ....( 1 1 1 1 1 1 1 1 1 1 1 1 1 1 1 ............................"
};
