/* XPM */
static char *result[] = {
/* columns rows colors chars-per-pixel */
"64 64 110 2 ",
"   c #010001",
".  c #0B0100",
"X  c #070B0B",
"o  c #0C090C",
"O  c #100100",
"+  c #160806",
"@  c #150D0C",
"#  c #1D1114",
"$  c #13171F",
"%  c #26130F",
"&  c #28130E",
"*  c #351C0F",
"=  c #271510",
"-  c #2C1A14",
";  c #2E1F1E",
":  c #331B11",
">  c #391D16",
",  c #321D1C",
"<  c #3B1D19",
"1  c #3D2617",
"2  c #34241E",
"3  c #3B261C",
"4  c #3B281C",
"5  c #0F1520",
"6  c #161A25",
"7  c #342721",
"8  c #3D2621",
"9  c #3B2A2A",
"0  c #3A343E",
"q  c #44251E",
"w  c #412723",
"e  c #442A26",
"r  c #412B29",
"t  c #4C342F",
"y  c #54332D",
"u  c #5B352D",
"i  c #433534",
"p  c #4B3C3E",
"a  c #5A3631",
"s  c #5B3C35",
"d  c #563A3B",
"f  c #5E3E3B",
"g  c #663D35",
"h  c #683C34",
"j  c #623E39",
"k  c #6B3D38",
"l  c #5C403C",
"z  c #774D2F",
"x  c #61413C",
"c  c #7C4E35",
"v  c #7C5135",
"b  c #7F5138",
"n  c #7B583D",
"m  c #5F4142",
"M  c #5B494F",
"N  c #5D504E",
"B  c #5F5457",
"V  c #5E5458",
"C  c #644241",
"Z  c #625455",
"A  c #655358",
"S  c #67585C",
"D  c #665F61",
"F  c #5E6377",
"G  c #5A647B",
"H  c #676364",
"J  c #6B6566",
"K  c #6C6768",
"L  c #6D696A",
"P  c #646472",
"I  c #805238",
"U  c #80593E",
"Y  c #8D613F",
"T  c #9D6A3E",
"R  c #9C713F",
"E  c #A36D3E",
"W  c #A86E3C",
"Q  c #855E46",
"!  c #845E48",
"~  c #866245",
"^  c #8C6242",
"/  c #9D6F44",
"(  c #966F4F",
")  c #9C6F48",
"_  c #967345",
"`  c #9C7044",
"'  c #96714B",
"]  c #9A704A",
"[  c #957151",
"{  c #997251",
"}  c #907058",
"|  c #A36E42",
" . c #A17041",
".. c #A27048",
"X. c #9E836C",
"o. c #A1846E",
"O. c #A28770",
"+. c #5B6681",
"@. c #596A86",
"#. c #52698B",
"$. c #5A6B89",
"%. c #97A4AF",
"&. c #9CA2AC",
"*. c #9DA3B1",
"=. c #AEAEAE",
"-. c #BCBCBD",
";. c #BFBFC0",
":. c #C3C3C4",
">. c #C7C7C8",
",. c #CBCBCD",
/* pixels */
":.:.:.:.:.:.:.:.:.o     X   X                   X   X     .       X   . X     X   X         .         X o J ;.;.:.:.>.:.;.-.=.&.",
":.;.:.:.:.>.:.:.:.. @ 7 7 3 7 8 8 3 8 8 8 8 3 q 8 2 2 8 3 3 8 7 8 3 8 < 2 3 2 8 3 q 8 3 7 8 3 q 8 8 7 7 o D ;.;.:.>.>.>.;.-.=.=.",
">.>.:.:.,.,.>.:.:.. 3 [ ..| E | | | | | | | | | | | | W | | | | | | | | | | | | | | | | | | | | | | | [ % L :.>.>.>.,.,.>.:.&.&.",
",.>.;.;.,.,.:.:.>.. q { ..W W W W | W | | | | W | W | | | W | | | | | W W | | W W W | W | | | | | | | [ % J >.>.>.>.,.,.>.;.=.=.",
":.;.>.:.:.:.:.;.:.. 3 [ ) / E Q Q Q Q Q Q ! ! ! Q Q ! ! ! ! Q Q Q ! ! ! Q Q Q Q ~ ^ ^ ^ Y Y Y T | | ..[ % D :.;.>.:.>.>.-.-.=.=.",
";.:.>.>.:.:.:.:.;.. 3 ( ) | | q o . . . .   . . . . . .   . . . . . . . . . . % - : : : : * * z | | | } % L :.>.>.>.>.>.-.-.&.=.",
"=.=.=.=.=.=.=.=.=.. 3 ( / | | 1 .   X . . X   .     X     X   X . X       . . 2 t y y y y e 1 c E W | [ % D =.=.=.=.=.=.=.=.=.=.",
"=.=.=.=.=.=.=.=.=.. 3 ) / | | 1         o   X   o     X o   o   X   X o     . w j h h h g y < v | | ..( % D =.=.=.=.=.=.=.=.=.=.",
":.;.;.;.;.;.-.-.;.. 3 ] | E ` 1                                           . . e j h h h h u < v | | | [ & K :.;.>.:.:.:.>.>.:.>.",
";.:.;.;.;.-.-.-.;.. 3 _ ` E | 1                                             . 9 x h h h x l N ^ | | / { & K ;.:.:.>.:.:.:.:.>.:.",
":.>.>.,.;.;.-.-.>.. q _ R E ` 1                                             . r j h h h x A %.X.E W | ' & K >.:.>.:.,.,.,.,.,.,.",
">.:.,.>.;.;.-.-.,.. 3 _ R |  .3                                               r x h h h x V %.X.W E | ] & K :.>.:.>.,.,.,.,.,.,.",
";.;.;.:.:.:.;.;.:.. 4 _ R E ` 1                                             . r g h h h j V &.O.| E / [ & J :.;.>.>.;.>.>.;.;.;.",
";.;.:.;.:.:.;.;.;.. 4 _ R E | 3                                               e g h h h j B &.o. .W | [ & J ;.:.:.:.:.>.>.;.-.-.",
"=.=.=.=.=.=.=.=.=.. 1 _ T E ` 1                                               e g h h h j Z &.o.| E / [ & D =.=.=.=.=.=.=.=.=.=.",
"=.=.=.=.=.=.=.=.=.O 4 _ R |  .1                                               e g g h h j A &.X.T | | [ * J =.=.=.=.=.=.=.=.=.=.",
",.,.;.;.:.:.;.:.:.. 3 ' / | | 3                                               e h h h h g a ; v | | | } = J >.:.>.:.;.:.;.;.=.=.",
",.,.;.;.;.;.:.;.:.. 3 { ) | | 3                                               e h h h h g u > v | | | [ = K :.>.>.>.:.;.;.;.&.=.",
",.,.,.,.:.>.:.>.:.. 3 ' ) | ` 1                                               e h h h h g a < c | | / [ = K :.;.,.,.,.:.>.>.=.&.",
",.,.,.,.>.:.>.:.:.. 2 ' / E R 1                                               e h h h h g a < c | E ..[ & L ;.:.,.,.>.>.,.:.&.=.",
":.:.,.,.;.:.;.:.:.. 3 ' / E | 3                                               e h h h h g a < b | E | [ = J ;.;.;.-.;.;.;.:.=.=.",
";.>.,.,.:.;.:.;.:.O q ' / E ` 1                                               e h h h h g a < b | E / [ = K ;.;.-.-.;.;.:.;.&.=.",
"=.=.=.=.=.=.=.=.=.O 3 ' / E  .3                                               e h h h h h a < I | E | ( & H =.=.=.=.=.=.=.=.=.=.",
"=.=.=.=.=.=.=.=.=.. 3 ' ) E | 1                                               e h h h h h a < b | E | ( & H =.=.=.=.=.=.=.=.=.=.",
":.;.:.>.:.;.;.;.;.. 3 [ ) E / 1                                               e h h h h j y < I | E / ' & K :.-.>.>.>.>.;.;.;.;.",
";.;.>.:.:.:.;.;.;.. 3 ' ) | R 1                                               e h h h h h a < b | E | [ % K -.-.>.>.,.,.;.>.;.;.",
":.>.:.>.>.:.>.,.:.. 3 ' ` E | 1                                               w h h h h h a < I | W | [ & J -.-.,.,.,.,.>.>.>.>.",
":.:.>.:.:.:.,.>.:.O 3 ' / | ` 3                                             . w j h h h h a < I | E / [ & J -.-.,.,.,.,.>.>.>.,.",
":.:.:.>.:.-.:.:.:.. q _ / E  .1                                             . 8 j h h h h a < I | | | [ & J :.:.;.;.;.;.-.;.;.:.",
";.:.>.>.;.;.:.:.:.. 3 [ ) E | 3                                               8 j h h h h a < I | | / [ & K :.-.;.;.-.:.-.;.:.;.",
"=.=.=.=.=.=.=.=.=.O 3 [ ) E ` 1                                             . e j k g h h a < I | | ..[ & S =.=.=.=.=.=.=.=.=.=.",
"=.=.=.=.=.=.=.=.=.. 3 ' ) E R 1                                             o 9 f h h h h a < I | | / [ * J =.=.=.=.=.=.=.=.=.=.",
":.:.:.:.;.:.:.>.:.. 3 ' ) | ` 1                                           $ G G P x h h h a < I | E / ( = J ;.;.:.:.>.>.-.-.=.=.",
":.:.:.:.;.:.>.:.:.. 1 ' / W R 3                                           6 $.#.G m h h h a < I | W | } = J ;.;.:.>.>.>.-.-.&.=.",
":.>.:.:.,.,.:.>.:.O 4 ' T E | 3                                           6 +.@.G j h h g a < b | E | [ & J :.:.>.>.,.,.>.:.&.=.",
">.>.:.:.,.,.:.:.:.. 3 ' ` E | 3                                           X 6 0 M g h h h a < I | E | [ & K >.:.>.>.,.,.>.:.=.&.",
":.:.:.:.:.:.:.;.:.. 3 [ ) E  .1                                             . q j h h h h a < b | W | ' & K ;.:.:.>.>.>.-.-.=.=.",
":.:.:.:.:.:.:.:.:.. 3 ' ) | ` 1                                             . 8 j h h h h a < I | E / [ & K :.:.>.>.>.>.-.-.&.=.",
"=.=.=.=.=.=.=.=.=.. 3 [ ` | E 3                                             . 8 f h h h g a < I | E / [ & H =.=.=.=.=.=.=.=.=.=.",
"=.=.=.=.=.=.=.=.=.. 3 ' ` E R 3                                             . 9 j h h h h a < I | W | [ = H =.=.=.=.=.=.=.=.=.=.",
":.:.;.;.;.;.-.-.;.O q _ ` |  .3                                             . e x h h h h a < I | E ) [ & J :.:.>.>.:.:.>.:.>.:.",
":.:.;.;.;.;.-.-.;.. 3 ] ` E | 3                                             . r j h h h g a > I | | | [ & J :.:.>.:.:.:.:.>.:.>.",
":.>.>.,.;.;.-.-.>.O 3 [ ) E ` 1                                             . r j h h g h a < I  .| | [ & J :.:.:.>.>.,.,.,.,.,.",
">.:.,.>.;.-.-.-.>.. 3 [ ) E  .1                                               r j h h h g a > I | | ` ' % K :.:.>.:.,.,.,.,.,.,.",
";.;.:.:.:.:.-.;.:.. 3 ' ) | | 1                                             . r j h h h g a < I  .W / [ & J :.:.>.>.:.:.,.;.;.;.",
";.;.:.:.:.;.;.;.:.. 2 ' ` | ` 3                                               e g h h h g a < I | W | } & J :.;.>.>.;.>.:.;.-.-.",
"=.=.=.=.=.=.=.=.=.O 1 ' / E  .1                                               e g h h h h a < I | E | [ & S =.=.=.=.=.=.=.=.=.=.",
"=.=.=.=.=.=.=.=.=.O 3 _ R E | 1                                               e g h h h g a < I | E | [ * J =.=.=.=.=.=.=.=.=.=.",
",.,.>.:.:.;.:.;.:.. 3 ' ) E  .1                                               e h h h h h a < b | E | [ & K >.>.:.>.;.:.;.;.=.=.",
",.,.-.:.:.:.;.:.:.. 3 [ ) | | 1                                               e h h h h h a < b | W / [ & K >.:.>.:.:.;.;.;.&.=.",
",.>.>.,.>.:.>.:.:.. 3 [ ) | ` 1                                               e h h h h g a < b W E | [ = K :.;.,.,.,.>.>.>.=.&.",
",.,.,.>.:.>.:.:.:.. 3 ' ` | | 3                                               e h h h h h a < b | E / [ = K ;.:.,.,.>.>.>.:.=.&.",
";.;.,.,.>.:.:.:.:.. 3 ' / E R 1                                               e h h h h h a i U  .| / [ & J ;.;.-.-.-.-.:.;.=.=.",
";.;.,.,.:.:.:.:.:.. q ' / T  .1                                               e h h h h g A &.X.T E ) [ = J ;.;.-.-.;.-.;.:.=.=.",
"=.=.=.=.=.=.=.=.=.. 3 ' / |  .3                                               e h h h h j D *.O.E E | [ % H =.=.=.=.=.=.=.=.=.=.",
"=.=.=.=.=.=.=.=.=.. 3 ' ) |  .1                                               r h h h h j A *.O.E / / [ = H =.=.=.=.=.=.=.=.=.=.",
";.;.>.:.;.:.;.;.;.. 3 [ ` E ` 1                                               e g h h h j B &.} E / ) [ & J ;.;.>.>.>.>.;.:.;.;.",
";.;.:.:.:.;.;.;.;.. 3 ' ) | | 3                                               e g h h h j Z &.O.| | | [ & J ;.-.>.>.,.,.:.;.;.;.",
">.:.:.>.:.>.>.,.>.. 3 ' ` | ` 1                                               e g h h h j A &.O.E E / [ & J -.-.,.,.,.,.>.:.,.>.",
":.>.>.:.>.:.,.>.:.O q ' / E | 1                                               e g h h h g d p n E | | ( & J -.-.,.,.,.,.:.>.>.,.",
":.:.:.:.;.;.:.:.:.O 1 ' ` T R 1                                             . r j h h h h y 3 v | E / [ & J :.;.;.;.;.;.;.;.:.;.",
":.;.:.>.:.:.;.;.:.. 3 [ ) E  .1                                             . r x h g h g y 3 v | T | [ & J :.:.;.;.-.:.;.;.;.:.",
"=.=.=.=.=.=.=.=.=.O 3 ( / | | 1 X     X   X     X         X   X   X   X   X . - w q q q q w < v E E | ' & D =.=.=.=.=.=.=.=.=.=.",
"=.=.=.=.=.=.=.=.=.+ 8 } { ) ' 4 X   X     X X X   X     X   X   X     X       # , , , , , , , c / ) ) } * L =.=.=.=.=.=.=.=.=.=."
};
