/* XPM */
static char *result[] = {
/* columns rows colors chars-per-pixel */
"64 64 225 2 ",
"   c #010102",
".  c #080305",
"X  c #030509",
"o  c #0D0B0B",
"O  c #120D0C",
"+  c #17110E",
"@  c #060A13",
"#  c #0A0C14",
"$  c #0F1015",
"%  c #141414",
"&  c #1E1612",
"*  c #1F1812",
"=  c #13151C",
"-  c #16191D",
";  c #1B1A1B",
":  c #231A14",
">  c #271E18",
",  c #291E18",
"<  c #21201F",
"1  c #2C211B",
"2  c #34251D",
"3  c #38291E",
"4  c #041325",
"5  c #171921",
"6  c #151924",
"7  c #1A1D24",
"8  c #101E31",
"9  c #1F2127",
"0  c #16202E",
"q  c #1D212B",
"w  c #1B2635",
"e  c #22262E",
"r  c #282929",
"t  c #3D2C22",
"y  c #342D29",
"u  c #3A392A",
"i  c #252932",
"p  c #252A34",
"a  c #252B3C",
"s  c #292F3A",
"d  c #2F3032",
"f  c #2B303C",
"g  c #333539",
"h  c #412E25",
"j  c #443126",
"k  c #4D3728",
"l  c #513F32",
"z  c #414626",
"x  c #464B2A",
"c  c #46413E",
"v  c #574031",
"b  c #5D4433",
"n  c #66452B",
"m  c #72492A",
"M  c #624837",
"N  c #654B39",
"B  c #6A4E3B",
"V  c #6D513D",
"C  c #7B553A",
"Z  c #1F3049",
"A  c #282E41",
"S  c #2C3243",
"D  c #28354A",
"F  c #313644",
"G  c #333945",
"H  c #393E46",
"J  c #303648",
"K  c #373D4D",
"L  c #383E4E",
"P  c #373F50",
"I  c #393F50",
"U  c #3C414A",
"Y  c #3C4152",
"T  c #474545",
"R  c #434854",
"E  c #454B59",
"W  c #4E545E",
"Q  c #595C54",
"!  c #6A594F",
"~  c #7A5B44",
"^  c #686D56",
"/  c #786B59",
"(  c #6B7058",
")  c #4F5461",
"_  c #575A62",
"`  c #595E6B",
"'  c #5E616B",
"]  c #5E6370",
"[  c #666465",
"{  c #6B6B6B",
"}  c #77736B",
"|  c #6C6D71",
" . c #6D737D",
".. c #737373",
"X. c #77777B",
"o. c #7B7B7C",
"O. c #BF4815",
"+. c #835C3D",
"@. c #98643D",
"#. c #C14E1C",
"$. c #C65927",
"%. c #C85C2A",
"&. c #CD6938",
"*. c #D1703F",
"=. c #85644B",
"-. c #936E54",
";. c #957057",
":. c #A97148",
">. c #AE7750",
",. c #B57C52",
"<. c #B87E53",
"1. c #997C66",
"2. c #817E7D",
"3. c #C57F4C",
"4. c #7E887C",
"5. c #E6863F",
"6. c #BD8156",
"7. c #8F8676",
"8. c #AA8A6D",
"9. c #B98A69",
"0. c #B7947B",
"q. c #CD844E",
"w. c #D88855",
"e. c #DD895A",
"r. c #D9905A",
"t. c #DA915B",
"y. c #EA8C46",
"u. c #E78E4B",
"i. c #EA904D",
"p. c #E69557",
"a. c #E89353",
"s. c #EA9A5E",
"d. c #F79A57",
"f. c #FFA45A",
"g. c #C58E67",
"h. c #D89361",
"j. c #C19A7E",
"k. c #E69B62",
"l. c #EA9D64",
"z. c #E69C6B",
"x. c #F49E60",
"c. c #DAA37A",
"v. c #EBA067",
"b. c #EBA26C",
"n. c #F9A565",
"m. c #F3A56C",
"M. c #E2A477",
"N. c #ECA572",
"B. c #EDA976",
"V. c #EDAB7A",
"C. c #FDAF72",
"Z. c #F5AF7A",
"A. c #F7B674",
"S. c #FDB576",
"D. c #FFBB7A",
"F. c #7D8892",
"G. c #848384",
"H. c #85868A",
"J. c #8B8B8C",
"K. c #8D908B",
"L. c #919586",
"P. c #8E8F92",
"I. c #939393",
"U. c #96989B",
"Y. c #9C9C9C",
"T. c #B29A89",
"R. c #9FA492",
"E. c #969DA1",
"W. c #A3A3A3",
"Q. c #A5A7A9",
"!. c #AEAEAE",
"~. c #BFB5AC",
"^. c #AEAFB0",
"/. c #B3B3B5",
"(. c #B7B7B8",
"). c #BCBCBD",
"_. c #D9A884",
"`. c #C7AC97",
"'. c #D7B594",
"]. c #D7B59B",
"[. c #EDAF81",
"{. c #EFB385",
"}. c #E4B38F",
"|. c #EFB589",
" X c #F0B486",
".X c #FFBE83",
"XX c #F0B78A",
"oX c #F1B88D",
"OX c #FBBC8C",
"+X c #EEBA92",
"@X c #F2BD93",
"#X c #CDB5A4",
"$X c #D4B9A6",
"%X c #D4BAA6",
"&X c #CEBFB3",
"*X c #FFC08E",
"=X c #FFD289",
"-X c #F5C296",
";X c #FEC592",
":X c #FFCA95",
">X c #FECD99",
",X c #FFD49D",
"<X c #DDC5B1",
"1X c #FFD9A1",
"2X c #BFBFC0",
"3X c #BEC6C9",
"4X c #BDC6CB",
"5X c #BBC9D1",
"6X c #C3C3C4",
"7X c #C9C8C7",
"8X c #C3CACC",
"9X c #CBCBCC",
"0X c #C6CFD3",
"qX c #C9D4D7",
"wX c #D0D5D7",
"eX c #D5DADC",
"rX c #D1DCE1",
"tX c #DDE0E1",
"yX c #C0E0F4",
"uX c #E4E8EA",
"iX c #E9ECED",
"pX c #E1FEFF",
"aX c #F0F1F3",
"sX c #F5F8FC",
"dX c #FEFEFF",
/* pixels */
"6X6X6X6X6X2X7X7X2X2X3X2X2X2X2X2X2X2X).).2X2X2X2X7X7X6X6XM.b.z.b.b.b.b.b.b.b.b.N.l.b.b.b.b.b.z.b.b.b.b.b.b.z.b.l.%X6X6X6X).).Q.Q.",
"6X2X6X6X2X6X6X6X2X6X2X3X2X2X2X2X2X2X).).2X2X2X2X6X6X6X7Xz.z.l.l.l.z.l.l.z.k.l.k.z.z.l.l.z.k.l.z.l.b.b.z.b.b.b.b.#X2X2X2X).).!.Q.",
"8X7X6X6X9X9X6X8X7X7X6X6X6X7X).).).).2X2X).).2X8X6X&X$X$XV.B.B.B.B.B.B.B.V.V.V.V.V.V.V.V.V.V.V.[.B.l.b.l.b.l.b.z._.`.#X6X2X6XQ.Q.",
"7X7X2X6XwX9X6X6X7X6X7X6X6X7X).).).).).2X2X).6X6X7X$Xl.x.{.oXXXXX|.XX|.oX+X@X@X@X@X@X+X@X@X@X@X@X{.l.l.b.l.b.m.m.b.l.Z.).).&XW.!.",
"2X2X6X6X6X6X6X&X6X2X6X2X7X7X6X6X).).2X2X6X2X2X&X7X].l.z.[. X{.{.{.{.{.{.+X|.@X|.oX@X|.oXoXoX|.@XV.l.z.l.b.b.l.m.b.m.B.Q.Q.^.W.Q.",
"2X6X7X7X6X6X6X6X2X6X2X6X6X6X6X7X2X&X2X2X2X2X3X6X7X$X[.[. X X{.{.{.{.{.{.{.|.|.|.{.{.|.{.|.{.|.{.|. X|.N.C.q.2 3 k M j < : } Y.W.",
"^.^.^.^.!.^.!.^.^.^.^.^.^.^.^.^.^.^.^.^.^.^.!.^.!.#XOX|. X X X{.{.{.{. X{.{.{.{.{.{.{.{.{.{.{. X X@X@XN.C.>.  o : 2 , * : ! Y.W.",
"^.^.^.^.!.!.^.!.^.^.^.^.^.^.^.^.^.^.^.^.^.^.!.2.G.1.>X{.[. X{.{.{. X{.{.{.{.{.{.{.{.{.{.{.{.{.{.|.oX+XN.C.,.O & 2 h t 1 1 c o...",
"2X2X2X2X2X2X(.2X2X2X!.W.6X6X2X6X2X6X2X6X2X6X2Xr   ~ >X|. X X{.{.{.{.{.{.{.{. X X X X X X X X X X{.{. XN.C.,.O * 2 h t t h y & , ",
"2X2X2X2X2X2X2X2X2X2X!.Q.&X2X6X2X2X3X6X2X6X2X6X,   =.1XOXOXOXOX{.{.{.{.{.{.{.OXOXOXOXOXOXOXOX X|.{.{. Xb.C.<.O & t h t t h , : , ",
"6X9X9X9X2X2X2X(.7X7XQ.Q.2X2X7X6X7X6X6X6X7X7X6X, O j C B V v -.*X{.{. X{.{.;X>.l B B V B M B [.OX{.{. XN.C.,.O : : : , t h 2 & , ",
"6X6X9X6X2X2X2X&X7X9X!.Q.(.2X7X6X6X6X7X7X6X6X6Xr : & o O O   b ;X{.{.{.{.{.>XN   O O O O . O c.OX{.{. Xb.C.,.O : : & , h j , * , ",
"2X2X3X2X2X6X2X2X6X2XQ.Q.6X7X6X6X6X7X6X2X3X&X2X1 & t B M M k -.*X{.{.{.{.{.;X;.k M M M M l B M.OX{.{.{.b.C.<.O : : : , 2 t , : > ",
"2X2X6X6X6X2X2X2X2X6XQ.!.6X6X6X7X7X6X2X6X2X3X).1   =.,XOXOXOXoX{.{. X X{.{.{.oXOXOXOXOXOXOXOX X X{. X XN.C.<.O : : : : : : : : > ",
"!.^.^.!.^.^.^.^.~.!.^.^.^.^.^.^.^.!.^.!.^.^.!.1   =.>X X>X,X;X{.{.{.{.{.{.[.;X,X:X X X X X X X X{. X{.N.C.>.  . & , & X   & > > ",
"^.!.^.!.^.^.^.!.!.!.^.^.^.^.^.^.!.^.!.^.^.^.!.,   ~ ,X XV 3 =.*X{.{.{.{.{.;X-.2 N {.XX X[. X X[.{.{. Xb.m.r.@.:.j . 2 :.<.l o > ",
"9XwX2X2X2X6X2X6X6X6X6X6X6X6X2X6X2X6X7X6X6X6X6X1   ~ ,XXX:   k :X{. X{.{. X>XM   O [.OX X{.{.{.|.{.{.XXb.k.v.n.S.m   j S.=X+.  1 ",
"9X9X2X2X6X2X6X2X6X6X6X6X6X6X6X2X6X2X6X7X6X6X4Xj o ! ,X X3   M ;X{.{.{.{. X:XB   1 [.OX X{.{.{.{.{.{.{.N.b.b.a.f.n   t b.D.C   1 ",
"9X9X9X7X6X7X6X7X7X6X6X6X6X7X6X6X6X6X6X6X9X9X2X2X2XT.OX{. X[.{. X{.{.{.{.{.{. X X{.{. X[.[. X X X{.{.{.{. XV.a.n.n   3 m.D.C   1 ",
"9X9X7X9X6X6X7X6X6X6X6X7X6X6X6X6X6X6X9X6X9X6X2X2X2X$X{.{.OXOX X X{.{.{.{.{.{. XOXOX{. XoX-X@X X[.{.{.{. XoXB.i.f.k   : m.D.C X : ",
"2X2XwX9X6X6X2X6X6X6X7X6X2X6X2X6X6X6X7X7X2X2X2X2X!.`.{.{. X X X X{. X{.{. X[. X X{.{.oXM.w.e.{. X{.{.{.{.XXV.b.A.>.m @.v.D.C X 1 ",
"2X6X9X9X6X2X6X2X6X6X6X7X6X2X6X6X6X6X6X6X2X2X2X2X/.`.{.{. X[. X X X XoX X XOX X X XoX-Xe.O.$.V.oX{.{.{.{.{.XXoX+XA.f.n.m.D.C   1 ",
"!.!.!.^.!.^.^.^.^.!.^.^.!.!.!.!.!.!.^.^.^.^.Q.Q.Q.`.{.{.[. X X X[.{.{.{.[. X[.[.[.Z.OXh.%.*.[.oX{.{. X{.{.{.{.XXv.i.a.v.C.C   1 ",
"!.!.^.!.^.^.^.^.!.^.!.^.^.!.!.Q.!.!.^.^.^.!.!.!.Q.`.{.{.{.OXz.*.*.*.*.*.*.*.*.&.3.3.&.e.oX[.[.[.{.{.{.{.{.{.{.oXv.f.q.1 1 1 * < ",
"6X2X7X7X6X2X2X2X2X2XQ.!.2X2X2X2X2X2X).).2X2X2X2X2X$X{.{.{.@Xk.#.$.$.$.$.$.$.$.$.$.$.#.e.:XXX X X{.|.{.{.{.{.{.XXv.f.q.o o & : > ",
"2X2X6X6X6X6X2X2X2X2X!.Q./.2X2X2X2X2X).).2X2X2X2X6X#X{.{.{.oXM.3.e.e.w.w.e.e.e.e.w.w.3.b.oX X X[.{.{.{.{.{.{.{.XXl.d.q.& & y l c ",
"7X6X7X6X6X7X9X7X6X7XW.!.2X2X9X9X).).).).2X/.2X2X9X<X{.{. X{.oXOX@XOX@X-X-X@XOX@X-X-X-XoX[. X[. X{. X{.{.{.{.{.XXv.d.q.: > T  .X.",
"6X6X6X7X6X6X9X7X6X6X!.W.2X6X9X9X).).2X).2X2X/.2X9X$X{.{.|. X X X{.{.{.{.{.{.{.{.{.{.{.{.XX X X X{.{.{.{.{.{.{.XXv.f.3.O : T ..X.",
"6X6X7X6X2X2X6X2X6X6XQ.!.&X2X9X6X6X6X2X2X&X2X2X6X2X#X X[.x.s.z.oX{.{.{.{.{.{.{.{.{.{.oXB.p.k.{.|.{.{.{.{.{.|. XoXz.d.e.^ _ { X.o.",
"6X2X6X7X2X2X6X6X6X2XQ.!./.2X6X6X6X6X2X6X2X2X6X6X).#XXX[.d.*.l.@XXXXXoXXX{.XXXXXX XoX@Xb.5.i.{. X{.{. X{.{.{.{. Xv.u.z.| } ..o.G.",
"^.^.!.^.^.^.!.^.!.!.!.!.!.!.!.^.!.^.!.^.Q.!.!.^.!.`.XXXXm.l.b.B.V.B.V.B.B.B.V.V.B.V.V.b.s.v. X{.{.{.{.{.{.{. X Xl.a.r.[ { ....4.",
"^.!.^.!.^.!.^.!.!.!.!.^.!.!.^.^.^.^.^.!.!.!.!.!.!.`.XX[.XX@XB.i.a.p.a.a.a.a.a.a.a.p.i.b.@XoX{.{.{.{.{.{.{.{.{.oXl.a.r.{ | ..o.H.",
"2X6X7X6X2X2X7X6X6X2X6X2X2X2X2X2X2X2X).).2X2X2X2X6X%X{.{.{.oXB.u.a.a.p.a.a.p.a.a.p.p.u.b.oX{.{.{.{.{.{.{.{.{.|.oXz.a.r.X.X.G.G.J.",
"6X2X6X6X6X2X6X7X2X6X2X6X2X2X2X2X2X2X).).2X2X2X2X6X%X{.{.{.|.[.B.B.B.B.B.B.B.B.B.B.B.B.V.|. X{.{.{.{.{.{. X[.B.V.l.a.t.X.o.H.G.P.",
"7X9X2X6X9X9X7X6X6X9X7X6X6X6X2X(.).).).).2X).6X8X6X$X{.{.|.{.|.oXoXXXoX|.+XoXoX+X|.oXoX|.{.{.{.{.{.{.{.{.{.[.b.B.s.a.t.2.H.I.J.U.",
"7X7X6X6X9XwX6X7X6X6X6X6X7X6X2X2X).).).).).).7X6X6X&X{.}.{.[.[.{.{.{.{.{.V.{.{.V.[.{.{.{.{.{.{.{.{.{.{.{.|.[.b.b.h.p.g.2.H.I.L.U.",
"6X2X6X6X6X6X6X2X6X2X6X2X6X6X7X7X).).2X2X6X&X2X2X7X2X).!.M.z.N.m.b.N.N.b.N.b.N.N.b.b.N.b.N.b.N.b.V.{. X XoXV.a.p.1...X.2.G.I.K.Y.",
"2X6X6X7X6X6X2X6X2X6X2X6X7X7X6X6X2X).2X6X6X6X3X2X6X2X).^.M.z.N.N.N.m.d.b.B.B.N.B.B.B.B.B.B.B.n.l.C.,X;X;X>X.Xp.p.1...o.2.H.I.I.Y.",
"^.^.^.^.!.!.^.^.^.^.^.^.!.^.^.^.^.^.^.^.!.^.!.!.!.!.W.Y.T.T.0.0.8.`.<X'.s.s.k.l.s.s.v.s.s.z.].<XT.! / ! ! =.7.6.} { } X.G.K.Y.W.",
"^.^.^.^.^.^.^.^.^.^.^.^.^.!.^.^.^.^.^.^.!.!.!.!.!.!.Q.W.U.P.o.o.| 4XyX7Xy.i.i.d.d.i.i.i.y.i.0XpXF.X 4 4 4 a { { { ..X.2.J.I.Y.W.",
"6X2X2X2X2X2X2X(.2X2XQ.!.&X2X2X6X6X6X2X2X6X2X6X2X7X6X2X(.^.Q.U.J.H.Q.5X~.s.k.t.t.t.k.k.s.s.s.(.qXG.6 p p p H ..| X.G.J.U.W.^.(.2X",
"6X6X2X2X2X2X).).2X2X!.Q.6X2X6X2X2X&X3X2X2X6X2X6X6X6X2X2X).^.H.I J p q E 8XrX7.x ( 7X8X8X9X3XU q S I L L L L L K { H.I.Y.Q.(.).2X",
"6X6X9X9X2X2X).).7X7X!.W.2X2X6X6X7X7X6X7X6X7X7X6X6X6X7X7X6X2XP.P Y i @ U qXrX4.z ^ 3X5X5XqX5Xs # p I L Y Y I K L | P.Y.^.).2X6X9X",
"7X6X9X9X2X2X).).7X7XW.!.2X(.6X7X6X6X6X8X7X6X6X7X7X6X9X7X7X7XU.P K J 0 W tXtXL.z ^ qXtX9X8X3XY i J I L F f F L K ) | X.^.2X6X9X9X",
"2X2X6X6X6X2X2X2X6X2X!.!.7X6X6X7X7X6X2X6X2X6X2X6X7X6X6X6X).).I.L K L A ] iXdXL.z ^ tXaXeX8X3XE J I K I s 9 s I K K K E W.!./.(.2X",
"2X2X2X6X2X6X2X2X2X6XQ.Q.6X7X6X7X6X7X6X2X3X2X6X2X7X7X2X2X).2XP.I K L a ` iXsXL.z ( tXiXwX8X3XE S I K K s e f I L K K E Y.Q.!./.(.",
"!.!.!.^.^.!.!.^.!.!.^.^.!.!.!.^.!.^.^.^.^.^.^.^.^.^.!.^.R p F I K K a ` iXsXL.z ( tXiXwX8X3XE S K K K s e f I K K K R J.I.Y.Q.Q.",
"!.!.!.^.!.^.^.^.!.!.^.^.^.^.^.^.^.^.^.^.^.!.^.!.^.^.^.!.H i f I K K a ` iXsXL.z ( tXiXwX8X3XE S K K I s e f I L K K R G.J.I.W.Q.",
"9X9X6X2X6X2X6X2X6X6X6X7X6X2X6X2X3X2X7X6X3X6X6X6X9X9X2X2XH i s I K U w ` uXsXL.z ( tXiXwX8X4XE S K L L s e f L K L K R H.P.Y.I.Y.",
"wX9X2X2X2X2X2X6X6X2X6X9X6X6X2X6X2X2X6X7X6X6X7X7X6X6X6X2XK p A P K Y a ' iXsXL.z ( tXiXwX6X4XE S K K L s e f L K K K Y 2.J.U.I.Y.",
"7X9X9X9X6X7X7X6X6X6X6X6X6X6X6X2X6X7X7X6X9X9X2X2X9X9X6X6XJ 0 p I K K a ' uXsXL.z ( tXiXwX8X4XE S K K L s e s I I J S P 2.J.Y.I.Y.",
"9X7X7X9X7X6X6X7X6X7X7X6X9X6X2X6X7X6X7X6X9X9X2X6XwXwX6X6Xg.h.;.D K K a ' iXsXL.z ( tXiXwX8X4XE S K L L J K F s 0 1._.0.o.H.Y.I.Y.",
"2X2X9XwX7X6X6X2X6X2X6X7X6X6X2X6X6X2X8X7X2X2X2X2X2X).2X).Z.S.9.Z K K w ] dXdXR.z } aXdXiXeXeXE A L K K I Y J e 4 9.,X|.X.G.I.K.Y.",
"2X2X9X9X6X2X2X6X2X6X7X7X6X2X6X2X&X6X7X6X2X2X2X2X2X).2X)._.Z.9.Z P K D ) /.3X} u Q !.(.W.E.E.R J K K K K L K s 8 8.}.j.o.G.I.P.Y.",
"!.^.^.!.!.!.!.!.!.^.^.^.^.!.!.!.^.^.^.^.^.^.^.^.^.!.^.!.Q.Y.G.D L Y Y S @ @ = - = @ # $ # = J I K K K I L K K D [ { { } o.J.I.W.",
"^.^.!.^.!.!.!./.^.^.^.^.^.!.!.!.^.^.^.^.^.^.^.^.!.^.!.!.Q.W. .I L Y Y G - 5 9 9 0 5 9 9 7 7 P R R I I I I R K K W [ { ..2.J.I.W.",
"2X2X7X6X6X2X2X2X2X2X!.W.&X/.2X2X2X2X).).2X2X2X2X7X6X7X6X).(.E. .X.G e e 5 7 5 = - = - = = 5 q q e p e e e g [ _ | X.2.H.K.Y.Q./.",
"2X2X6X6X2X2X2X2X2X2XW.!.2X2X2X2X2X2X).).2X2X2X2X6X7X6X6X).(.^.E.I.g - - 7 9 = = $ = = = = = # o $ 5 5 - - d | ....4.H.K.I.W.!.(.",
"9X6X6X9X7X6X9X7X6X6X!.Q.2X2X6X9X).).).2X).).).).9XwXwX9X3X).2XQ.W.H 7 7 7 7 - = = 9 9 7 7 7 - = - 7 7 7 7 g | ..2.H.I.Y.W.^.).6X",
"6X6X6X6X9X6X7X7X7X6XQ.!.2X2X7X9X).2X).2X).).).).9X9X9X9X6X2X2X2X^.U 7 7 7 7 = = 7 ..[ [ ..| e 7 7 7 7 7 7 f | X.H.I.Y.Q.^./.&X6X",
"6X2X9X6X2X2X6X6X6X2XQ.Q.2X).6X9X6X6X&X2X).).2X6X2X2X2X2X2X2X2X^.^.T 7 9 q q - = 7 | [ { ....e 7 7 7 7 9 7 g X.o.G.P.Y.W.^./.2X2X",
"2X6X6X6X2X2X6X2X2X2X!.!.).).6X6X6X6X2X2X).).6X6X2X2X2X2X2X<X2X2X(.U - = % = % # ; ..{ { o.o.e - - - - - ; d X.2.J.U.W.!./.2X2X2X",
"^.^.^.^.~.!.^.!.^.!.^.^.^.^.^.^.^.^.^.^.!.!.!.!.!.!.^.^.!.!.!.!.Q.g % + o o o o % { | ..X.o.; % % % % % % r { o.G.K.Y.W.Q.!.Q.^.",
"^.^.^.^.!.^.!.^.!.^.!.^.^.^.^.^.^.^.^.^.^.!.!.!.!.^.!.^.!.!.!.!.!.T % ; % % % o ; { ..X.7.G.r & ; ; ; ; % y ..o.H.I.Y.W.!.^.^.^."
};
