/* XPM */
static char *result[] = {
/* columns rows colors chars-per-pixel */
"64 64 165 2 ",
"   c black",
".  c #09090A",
"X  c #1D120C",
"o  c #0E0F12",
"O  c #111215",
"+  c #13161A",
"@  c #16181E",
"#  c gray10",
"$  c #22160E",
"%  c #2A1A11",
"&  c #321F14",
"*  c #352115",
"=  c #3B2518",
"-  c #1A1D24",
";  c #2D2D2D",
":  c #3C3027",
">  c #343434",
",  c #313339",
"<  c #42291B",
"1  c #4F3020",
"2  c #553523",
"3  c #5B3826",
"4  c #463D39",
"5  c #673F2B",
"6  c #683F2B",
"7  c #63412A",
"8  c #544A44",
"9  c #575451",
"0  c #5A5A5B",
"q  c #725B4F",
"w  c #7A5C4D",
"e  c #6A5C54",
"r  c #6B615A",
"t  c #444B60",
"y  c #5E5F61",
"u  c #505871",
"i  c #676767",
"p  c #6C6765",
"a  c #6D6D6D",
"s  c #736863",
"d  c #786E68",
"f  c #7E746E",
"g  c #6F6F70",
"h  c #737373",
"j  c #777778",
"k  c #7B7B7B",
"l  c #89573B",
"z  c #84593B",
"x  c #90613F",
"c  c #CE6A39",
"v  c #8A5C42",
"b  c #97715C",
"n  c #A26B47",
"m  c #A7734D",
"M  c #AA704A",
"N  c #A87F5F",
"B  c #B57E58",
"V  c #897668",
"C  c #8B7B6F",
"Z  c #997D68",
"A  c #877B73",
"S  c #907E70",
"D  c #7E8562",
"F  c #A29C37",
"G  c #9DA42C",
"H  c #C6CE26",
"J  c #D0C73E",
"K  c #D7C93F",
"L  c #CCD335",
"P  c #D1DA36",
"I  c #BE8054",
"U  c #BD965D",
"Y  c #ACB153",
"T  c #909762",
"R  c #8C867A",
"E  c #9A8472",
"W  c #968579",
"Q  c #98997A",
"!  c #AC8569",
"~  c #BC8662",
"^  c #BB8B67",
"/  c #B88B6A",
"(  c #A48873",
")  c #AB8D76",
"_  c #B18C70",
"`  c #9DA575",
"'  c #A9AC6C",
"]  c #B1B475",
"[  c #CA8A5D",
"{  c #D28E5D",
"}  c #E99658",
"|  c #E3BC5E",
" . c #C4906B",
".. c #CD966E",
"X. c #D79769",
"o. c #C19B7F",
"O. c #D59C73",
"+. c #D89F77",
"@. c #D0AC64",
"#. c #CDA07E",
"$. c #D6A57F",
"%. c #DCA47B",
"&. c #EBA069",
"*. c #E7B168",
"=. c #E7A172",
"-. c #ECA570",
";. c #EDAA77",
":. c #E3A77A",
">. c #E0A87F",
",. c #EEAE7E",
"<. c #B9C045",
"1. c #D4D751",
"2. c #C8CD6E",
"3. c #CDC575",
"4. c #E1D66C",
"5. c #DCE263",
"6. c #5B6480",
"7. c #626C8A",
"8. c #838384",
"9. c #878788",
"0. c #8B8B8C",
"q. c #9A8E84",
"w. c #97928F",
"e. c #8E8E90",
"r. c #949494",
"t. c #9A9795",
"y. c #9B9B9C",
"u. c #AC9381",
"i. c #AE9A8B",
"p. c #AE9D90",
"a. c #A8A989",
"s. c #AEAF90",
"d. c #BCA799",
"f. c #B2B494",
"g. c #9F9FA0",
"h. c #A3A3A4",
"j. c #A7A7A8",
"k. c #AEAEAE",
"l. c #BBACA0",
"z. c #AFAFB0",
"x. c #B3B3B4",
"c. c #B7B7B8",
"v. c #BCBCBD",
"b. c #C29D81",
"n. c #C8A48A",
"m. c #CFA98D",
"M. c #D1A482",
"N. c #DEAA81",
"B. c #D4A989",
"V. c #C9AA92",
"C. c #CDB898",
"Z. c #D6B095",
"A. c #D4B49C",
"S. c #E1A980",
"D. c #EEAF80",
"F. c #EFB385",
"G. c #F1BF9A",
"H. c #C6B6AC",
"J. c #D2B7A4",
"K. c #F4CDB1",
"L. c #F5D2B8",
"P. c #BFBFC0",
"I. c #C3C3C4",
"U. c #C7C7C8",
"Y. c #CBCBCC",
/* pixels */
"I.I.I.I.P.I.I.U.P.I.P.I.v.P.P.P.P.P.v.v.P.P.P.P.I.U.I.U.v.d * * * * * * * t.I.p.* * * * * * * * * * 3 6 3 * * $ $ 4 P.I.v.H.z.j.",
"I.P.I.I.I.U.U.I.I.P.I.P.P.P.P.P.P.P.v.v.P.P.P.P.U.I.U.I.v.d * * * * * * * w.v.r.* * * * * * * * * * 3 6 3 * * $ X 4 v.v.c.c.j.j.",
"U.U.I.I.Y.Y.U.I.I.U.I.U.I.U.v.v.v.v.v.v.v.H.U.U.U.U.Y.j f 8 * * * * = 1 1 e s e * * < 1 1 * * < 2 < 1 1 < 2 2 & % : p p r.I.j.j.",
"U.U.I.P.Y.Y.I.U.U.I.U.I.U.U.v.v.v.v.v.v.v.v.U.U.U.U.Y.* * * * * * * < 7 7 < * * * * 1 5 6 * * 1 6 6 < * < 6 6 < * % X X i c.g.h.",
"I.I.I.U.I.I.v.I.P.I.P.I.I.U.I.I.v.v.P.I.I.P.I.P.U.U.U.* * * * * * * < 7 6 = & & * * 1 5 6 * * 1 6 6 < * < 6 6 < * % X X 9 h.y.p.",
"I.P.U.U.I.P.I.I.I.P.I.I.U.I.I.U.v.v.I.P.P.I.P.I.U.I.U.* * * * * 3 6 3 * * [ &.&.&.&.x * * 6 6 1 * * 3 6 3 * * 3 6 3 * * % X o g.",
"k.z.k.z.k.k.k.z.k.k.k.z.k.z.z.z.z.k.z.z.k.k.x.k.k.z.k.* * * * * 3 6 3 * & [ &.&.&.&.x * * 6 6 2 * * 3 6 3 * * 3 6 3 * * % X X r.",
"k.k.z.k.k.k.z.z.k.k.z.k.z.k.z.z.z.z.z.z.z.k.k.k.k.k.k.* * 1 7 7 6 6 7 3 5 [ -.-.-.-.m 5 5 6 6 7 7 7 6 6 3 * * 3 6 3 * * % X X e.",
"P.I.P.P.P.P.v.v.P.P.k.j.P.I.P.I.P.I.P.I.P.I.P.P.U.U.P.* * v &.&.l 6 l &.&.,.F.F.F.F.,.&.&.6 6 M &.&.l 6 3 * & 3 6 3 * * % X X r.",
"I.P.P.P.P.P.v.v.P.P.j.j.I.P.I.P.I.P.I.P.I.P.I.P.I.U.P.* * v &.&.l 6 l &.&.,.F.F.F.F.;.&.&.7 6 M &.&.l 6 3 * * 2 6 3 * * % X X 0.",
"I.U.U.Y.P.P.P.v.U.U.k.j.P.v.I.I.I.U.I.U.I.U.I.U.U.I.U.3 3 n &.&.{ [ X.,.D.F.F.F.F.F.D.,.D...X.X.&.&.l 6 l B B l 6 3 * * % X X 9.",
"U.I.U.U.P.P.v.P.U.U.k.j.v.P.I.U.U.I.U.I.U.I.U.I.I.U.U.6 6 M &.&.&.&.-.D.F.F.F.F.F.F.F.F.F.F.F.;.&.&.l 6 l } &.l 6 3 * * % X X 8.",
"P.P.P.I.P.I.P.P.I.P.j.j.I.U.I.U.I.U.P.I.P.I.P.P.U.I.H.w w B &.&.&.-.;.F.F.F.F.F.F.F.F.F.F.F.F.,.-.-.n l n &.&.l 7 3 * * % X X j ",
"P.P.I.P.I.I.P.P.P.P.k.k.I.I.U.I.U.U.I.P.I.P.I.P.U.U.P.P.z.b.&.&.,.F.F.F.F.F.F.F.F.F.F.F.F.F.F.F.F.F.-.&.&.&.&.l 7 3 * * % X X j ",
"k.k.k.k.k.k.k.k.k.k.k.k.k.k.k.k.z.k.z.k.z.z.k.z.z.z.z.j.g.b.&.&.,.F.F.F.F.F.F.F.F.F.F.F.F.F.F.F.F.F.-.&.&.&.&.l 6 5 * * % X X g ",
"x.k.k.k.x.k.k.x.k.k.k.k.x.k.k.k.k.z.k.z.k.z.z.z.z.z.z.j.s.i.&.&.&.;.-.-.&.-.-.-.-.-.-.-.-.-.-.-.-.-.&.&.&.&.&.l 6 2 $ $ X X X g ",
"Y.Y.P.P.I.P.P.I.I.P.U.I.I.P.I.P.I.P.I.U.I.I.U.I.U.U.P.P.x.n.&.&.&.&.&.&.&.&.&.&.&.&.&.&.&.&.&.&.&.&.&.&.&.&.&.l 6 2 X X X X X a ",
"Y.Y.P.I.P.I.I.P.P.I.I.U.P.I.P.I.P.I.U.I.I.I.I.U.U.Y.P.P.c.V.&.&.&.&.&.&.&.&.&.&.&.&.&.&.&.&.&.&.&.&.&.&.&.&.&.l 6 2 X X X X X a ",
"Y.Y.Y.U.I.U.I.U.U.I.U.I.U.I.I.P.U.I.I.U.Y.Y.I.P.Y.Y.I.i i i i i i i i i i i i i i i i i i i i i i i i i i i i i i 9 X X X X X a ",
"Y.Y.Y.Y.U.I.U.I.I.U.I.I.I.U.P.I.I.U.U.I.Y.Y.P.I.Y.Y.I.i i i i i i i i i i i i i i i i i i i i i i i i i i i i i i 9 X X X X X g ",
"I.I.Y.Y.P.I.P.I.I.P.U.U.I.P.I.P.I.P.U.U.I.P.P.P.I.P.P.i i A u.u.u.u.W p i E ) E i i S u.u.u.u.u.u.u.i.p.q.p i E ( V X X 1 z z g ",
"P.U.Y.Y.I.P.I.P.I.I.U.U.P.I.P.I.P.P.U.Y.P.I.P.P.H.v.P.i i u.G.G.G.G.m.i i #.F.#.i i u.G.G.G.G.G.G.G.K.L.J.i i +.D.^ X X z &.&.a ",
"k.k.k.k.k.k.k.k.z.k.z.z.k.k.k.k.k.k.z.k.z.k.k.k.k.z.k.i i u.G.G.G.G.m.i i #.F.o.i i u.G.G.G.G.G.G.G.K.L.J.i i o.F.^ X X z &.&.g ",
"k.k.k.x.k.k.k.k.k.z.z.z.z.k.k.k.k.k.k.z.k.k.k.k.k.k.k.i i u.G.G.:   # i i #.F.M.i i >     G.G.G.G.G.K.L.J.i i M.F.^ X X z &.&.g ",
"I.P.U.I.P.P.P.P.P.P.l.j.v.v.P.P.I.P.v.v.P.P.P.P.U.U.I.r i u.G.G.:   # i i #.F.#.i i >     G.G.G.G.G.K.L.J.i p o.F.^ $ $ l &.&.k ",
"P.P.U.I.I.P.P.P.P.P.j.k.c.v.P.P.P.P.P.v.P.P.P.P.U.I.I.r.0.q.u.u.8 > 8 ) ) N.F.N.) ) r > > u.u.u.u.u.i.p.i.) ) N.F. .< < v &.&.j ",
"I.U.I.U.I.U.U.Y.I.U.j.j.I.P.Y.Y.v.v.v.v.v.v.v.v.Y.Y.Y.I.x.9.i i i i A F.F.F.F.F.F.F.) i p i i i i i i i C F.F.F.F...7 6 M &.&.A ",
"U.I.U.I.U.I.Y.Y.U.I.j.k.P.P.U.Y.v.v.v.v.v.P.v.v.Y.Y.Y.I.x.9.i i i i C F.F.F.F.F.F.F.) i i i i i i i i i C F.F.F.F...6 6 M &.-.7.",
"P.I.I.U.P.P.P.P.P.I.j.k.v.v.U.I.I.I.P.P.v.v.I.P.I.I.v.c.z.s.#.#.#.#.M.F.F.F.F.F.F.F.S.#.#.#.#.o.o.$.+.M.N.F.F.F.F...6 6 v E C j ",
"I.P.U.U.P.P.I.I.I.P.j.k.v.v.U.U.I.I.P.I.v.P.P.I.P.I.v.c.c.C.F.F.F.F.F.F.F.F.F.F.F.F.F.F.F.F.F.F.F.F.F.F.F.F.F.F.F...6 7 q g j D ",
"k.k.k.k.k.k.k.k.k.z.k.z.k.k.k.z.k.k.k.k.k.k.k.x.k.k.k.k.j.V.,.,.D.F.D.=.=.=.-.=.=.=.=.=.=.F.F.F.F.F.D.D.D.F.F.+...~ z l w a g j ",
"k.k.x.k.k.k.k.x.k.k.z.k.k.k.k.z.k.k.k.z.k.k.k.k.k.k.z.k.j.M.&.&.F.F.=.c c c c c c c c c c F.F.F.F.F.=.&.-.F.F.v 7 l &.&.! a f 7.",
"I.P.I.U.I.P.U.I.P.I.P.I.P.P.P.P.P.P.v.v.P.P.P.P.I.U.I.U.c.m.&.&.,.D.=.c c c c c c c c c c F.F.F.F.F.-.&.-.F.F.z 7 l &.&._ j g k ",
"P.I.I.I.P.P.I.U.I.P.I.P.P.P.P.P.P.P.v.v.P.P.P.P.U.I.U.U.v.m.&.&.,.F.D.-.=.=.=.=.=.=.=.=.=.F.F.F.F.F.-.&.-.F.F.%...X.&.&.! j h R ",
"U.U.I.I.Y.Y.U.I.I.U.I.U.I.U.v.v.v.v.v.v.v.v.I.U.U.U.Y.Y.I.Z.&.&.,.F.F.F.F.F.F.F.F.F.F.F.F.F.F.F.F.F.-.&.-.F.F.F.F.,.&.&._ k j 8.",
"U.U.I.U.Y.Y.I.U.U.I.U.I.U.I.v.v.v.v.v.v.v.v.U.I.U.I.Y.Y.U.A.-.-.D.F.F.F.F.F.F.F.F.F.F.F.F.F.F.F.F.F.;.-.;.F.F.,.,.:.....( 8.j 8.",
"I.P.U.I.I.I.I.P.P.I.P.I.I.U.I.U.v.v.I.I.P.I.P.I.U.U.U.U.v.J.F.F.F.F.F.F.F.F.F.F.F.F.F.F.F.F.F.F.F.F.F.F.F.F.F.-.&...h j j k k 9.",
"I.I.I.U.I.I.P.I.I.P.I.P.U.U.U.I.v.v.I.P.I.I.I.P.U.I.U.U.c.J.F.F.F.F.F.F.F.F.F.F.F.F.F.F.F.F.F.F.F.F.F.F.F.F.F.-.&. .h j j 8.D 0.",
"k.z.k.k.k.z.k.z.k.z.k.k.z.z.k.k.z.z.k.k.z.z.k.k.z.k.z.k.z.l.V.n.>.;.;.;.;.;.;.;.;.;.;.;.;.;.;.;.;.;.;.;.;.;.;./ ! Z a a j 8.0.r.",
"z.k.k.k.z.k.z.k.z.z.k.k.z.k.k.k.k.z.k.k.z.k.k.x.k.z.k.z.z.j.s.y.O.&.&.&.&.&.&.&.&.&.&.&.&.&.&.&.&.&.&.&.&.&.&.C i p a j A 7.e.g.",
"I.I.v.P.P.P.v.v.P.P.j.j.P.I.P.I.I.I.P.I.P.I.P.I.I.U.I.I.I.P.c.k.+.&.&.&.&.&.&.&.&.&.&.&.&.&.&.&.&.&.&.&.&.&.&.C j j k 9.e.y.j.x.",
"P.I.I.I.P.P.v.v.P.I.j.k.I.P.I.P.v.I.I.P.I.P.I.P.U.I.I.I.I.I.v.z.h.r.9.8.k j h h g h N } } } } } } } K P <.g h h k k 9.r.y.j.x.c.",
"U.I.U.U.P.v.v.v.U.U.j.j.v.v.I.U.U.U.I.U.I.U.I.U.I.U.Y.Y.Y.Y.U.P.k.g.y.e.7.8.j j k k N } } } } } } } J P <.h j j k 9.r.y.k.c.I.U.",
"I.U.U.Y.P.I.v.v.U.U.k.j.v.v.U.I.U.I.U.I.U.I.U.I.U.I.Y.Y.Y.Y.Y.I.x.k.h.y.e.0.D R ] ] @.| | b b U | | 1.1.1.' ' R 9.e.y.k.x.P.U.U.",
"P.P.P.I.I.I.v.P.P.I.f.k.I.U.I.U.U.I.I.I.v.I.v.I.U.U.I.P.P.P.v.c.x.z.j.g.y.r.e.a.5.5.5.5.5.t t T 5.5.5.5.5.5.5.Q 0.t.h.j.x.c.v.v.",
"P.P.I.I.I.P.P.P.I.I.j.j.U.I.U.U.I.I.I.I.I.I.v.I.U.U.P.I.P.P.v.v.v.x.x.k.j.h.h.s.5.5.5.5.5.t t T 5.5.5.5.5.5.5.Q e.y.j.k.c.c.v.v.",
"k.k.x.k.z.k.k.k.z.z.k.x.k.k.z.z.k.k.z.k.z.k.k.k.k.z.z.k.k.k.z.k.k.j.j.j.h.g.y.s.5.5.5.5.5.7.7.` 5.5.L H L 5.5.5.5.2.y.h.j.k.k.k.",
"k.k.k.z.k.z.k.k.z.k.k.k.k.k.z.z.k.k.k.z.k.z.k.z.z.k.z.k.k.k.k.k.k.k.k.j.j.j.j.f.5.5.5.5.5.7.7.` 5.5.L H L 5.5.5.5.2.r.y.h.j.k.k.",
"Y.Y.U.I.I.P.I.P.I.P.U.I.I.P.I.P.P.I.I.U.I.I.I.U.I.U.I.P.P.P.j.j.Y.Y.P.v.I.H.J.C.5.5.5.5.5.6.6.` 5.5.L H L 4.4.4.4.3.y.j.k.c.h.j.",
"Y.Y.P.P.P.I.P.I.P.I.I.U.P.I.P.I.I.P.U.I.I.I.U.I.U.I.P.I.P.P.k.j.Y.Y.P.P.I.S.&.*.5.5.5.5.5.t t T 5.5.L H J F.F.F.F.B.r.g.j.x.h.j.",
"Y.U.Y.U.U.I.U.I.U.I.U.I.U.I.I.P.I.U.U.I.Y.Y.P.I.Y.Y.I.U.Y.U.j.j.Y.Y.Y.Y.I.N.&.*.5.5.5.5.5.t t T 5.5.L H J F.F.F.F.B.0.t.j.x.g.h.",
"U.Y.U.Y.I.U.I.U.I.U.I.U.I.U.P.I.I.U.I.U.Y.Y.I.P.Y.Y.U.I.Y.Y.j.j.Y.Y.U.U.U.>.&.*.5.5.5.5.5.6.u ` 5.5.L H J F.F.F.F.B.9.w.h.x.g.h.",
"I.P.Y.Y.U.U.I.P.P.I.U.U.I.P.I.P.I.P.U.I.P.I.P.P.I.P.P.P.I.I.j.k.I.v.Y.Y.P.%.&.*.5.5.5.5.5.6.7.a.5.5.L H J F.F.F.F.M.A 0.y.j.y.h.",
"P.P.Y.Y.I.I.P.I.I.P.U.U.P.I.P.I.P.I.U.U.I.I.P.P.P.P.P.P.I.P.j.k.v.I.Y.Y.P.%.&.@.Y Y Y Y Y u u D Y Y G G F / / %.F.M.k 0.r.h.y.h.",
"k.k.z.k.k.k.k.k.k.k.k.k.k.k.k.k.k.z.z.z.k.k.k.z.z.z.k.z.k.k.k.k.z.k.x.x.k.%.=.I - - - - - - - - - - - - - O + / F.#.h 7.9.r.g.j.",
"k.k.k.z.k.k.k.x.k.k.x.k.k.x.k.k.z.k.z.z.k.k.k.k.z.k.z.k.k.k.k.z.z.k.k.x.k.$.=.I - - - - - - - - - - - - @ O + / F.#.j D 9.r.h.j.",
"P.P.I.U.P.I.P.P.P.P.j.j.P.c.I.P.P.P.v.P.P.P.P.P.U.I.U.U.I.P.P.P.P.P.I.U.v.H.d.R - - - + + + + + + + - - - @ - s W R D e.r.h.z.P.",
"P.P.U.I.I.P.P.P.P.P.k.j.v.H.P.P.P.P.v.v.P.P.P.P.I.U.U.Y.P.I.P.I.P.P.U.I.P.v.z.8.- - + O + + + + + + @ - - - - 0 h j 8.0.g.g.z.x.",
"I.U.I.U.I.U.U.Y.U.U.j.j.P.P.Y.Y.v.v.v.v.v.v.v.v.Y.Y.Y.Y.U.I.Y.U.U.U.I.U.I.P.v.0.- - # O o + o + o + - - - - - 0 j 7.q.r.g.z.P.P.",
"U.I.U.I.U.I.Y.Y.U.I.j.j.P.P.Y.Y.v.v.v.v.v.v.v.v.Y.Y.Y.Y.I.U.U.U.U.I.U.I.I.P.P.e.- - - O + g h h g g , - - - - 0 k 8.w.g.g.x.P.P.",
"P.I.I.U.P.P.I.P.P.I.k.j.P.v.I.I.I.I.I.P.v.v.I.I.I.P.v.H.P.P.P.I.P.I.U.I.P.v.c.e.- - # + O g h j h 7., - # - - y R 7.0.r.g.z.P.P.",
"I.P.U.I.P.I.P.I.I.P.j.j.c.P.U.U.I.I.P.P.v.v.P.I.I.I.P.I.P.P.I.P.I.I.I.U.v.P.v.0.+ O o . . j j j k D , # + O # y k 8.e.g.z.x.P.P.",
"k.k.k.k.z.k.z.k.k.k.k.z.z.z.k.z.k.z.x.k.k.k.z.k.z.k.z.z.z.z.z.k.k.k.k.k.z.k.k.7.O O .     h a h j k ; o o o o 0 j R 0.r.g.j.j.j.",
"k.k.k.k.k.z.k.z.k.k.z.z.z.z.z.z.k.k.k.z.k.k.k.z.k.z.k.z.z.z.z.k.k.k.x.k.z.z.x.R O . .     h j j R 9.; o X o o 0 R 7.0.g.g.j.z.z."
};
