/* XPM */
static char *result[] = {
/* columns rows colors chars-per-pixel */
"64 64 216 2 ",
"   c #010102",
".  c #080305",
"X  c #030509",
"o  c #0D0B0A",
"O  c #120D0C",
"+  c #17110E",
"@  c #060A13",
"#  c #0A0C14",
"$  c #0F1015",
"%  c #141414",
"&  c #1D1612",
"*  c #1F1812",
"=  c #13151C",
"-  c #16191D",
";  c #1B1A1B",
":  c #231A14",
">  c #261F1A",
",  c #291E18",
"<  c #2B211B",
"1  c #34251D",
"2  c #38291E",
"3  c #041325",
"4  c #171921",
"5  c #151924",
"6  c #1A1D24",
"7  c #101E31",
"8  c #1F2026",
"9  c #16202E",
"0  c #1D212B",
"q  c #172232",
"w  c #22262E",
"e  c #272829",
"r  c #312822",
"t  c #3D2C22",
"y  c #363C25",
"u  c #242832",
"i  c #252A34",
"p  c #252B3C",
"a  c #292F3A",
"s  c #2A3138",
"d  c #2B313C",
"f  c #31343A",
"g  c #3A3A3A",
"h  c #412E25",
"j  c #493427",
"k  c #503D30",
"l  c #414626",
"z  c #464B2A",
"x  c #5D4433",
"c  c #66452B",
"v  c #72492A",
"b  c #624837",
"n  c #654B39",
"m  c #6A4E3B",
"M  c #6C513D",
"N  c #7B553A",
"B  c #1F3049",
"V  c #282E41",
"C  c #2D3243",
"Z  c #28354A",
"A  c #323643",
"S  c #353A45",
"D  c #373D4D",
"F  c #393F50",
"G  c #3C414A",
"H  c #3C4152",
"J  c #404244",
"K  c #58574D",
"L  c #454B5A",
"P  c #474C58",
"I  c #4E545E",
"U  c #6B564A",
"Y  c #7A5B44",
"T  c #675E59",
"R  c #686D56",
"E  c #786B59",
"W  c #6B7058",
"Q  c #4F5461",
"!  c #5B5D63",
"~  c #595E6B",
"^  c #5E616B",
"/  c #5E6370",
"(  c #656464",
")  c #67676A",
"_  c #6B6B6B",
"`  c #70716F",
"'  c #6D6E71",
"]  c #6A6E79",
"[  c #737373",
"{  c #76787C",
"}  c #7C7C7C",
"|  c #BF4815",
" . c #835C3D",
".. c #98643D",
"X. c #C14E1C",
"o. c #C65927",
"O. c #C85C2A",
"+. c #CD6938",
"@. c #D1703F",
"#. c #85644B",
"$. c #936E54",
"%. c #917059",
"&. c #A97148",
"*. c #AE7750",
"=. c #B57C52",
"-. c #957C6A",
";. c #827F7D",
":. c #C57F4C",
">. c #7E887C",
",. c #E6863F",
"<. c #938673",
"1. c #A6866D",
"2. c #B88967",
"3. c #A88D79",
"4. c #AC917D",
"5. c #B49276",
"6. c #CD844E",
"7. c #DA8353",
"8. c #DD895A",
"9. c #DA915A",
"0. c #EA8C46",
"q. c #E78E4B",
"w. c #EA904D",
"e. c #E69557",
"r. c #E89353",
"t. c #EA9A5E",
"y. c #F79A57",
"u. c #FFA45A",
"i. c #DC9866",
"p. c #E49A63",
"a. c #EA9D64",
"s. c #E69C6B",
"d. c #F49E60",
"f. c #DCA375",
"g. c #ECA067",
"h. c #EBA26C",
"j. c #F9A565",
"k. c #F3A56C",
"l. c #FFBA6B",
"z. c #ECA572",
"x. c #EDA976",
"c. c #E4A578",
"v. c #EDAB7A",
"b. c #FDAF72",
"n. c #FDB577",
"m. c #FFBB7A",
"M. c #7F7F80",
"N. c #7D8892",
"B. c #848484",
"V. c #8B8B8B",
"C. c #8D918C",
"Z. c #919586",
"A. c #8E8E91",
"S. c #949494",
"D. c #94979B",
"F. c #9B9B9C",
"G. c #B69C86",
"H. c #A79B91",
"J. c #9FA492",
"K. c #BEA592",
"L. c #9C9EA0",
"P. c #9EA2A5",
"I. c #A3A3A3",
"U. c #A6A7A9",
"Y. c #AEAEAE",
"T. c #AEAFB0",
"R. c #B3B4B5",
"E. c #B7B8B8",
"W. c #BCBCBD",
"Q. c #C79F83",
"!. c #D8A782",
"~. c #C8A992",
"^. c #D1AE95",
"/. c #D8B59A",
"(. c #EDAF81",
"). c #EFB385",
"_. c #EFB589",
"`. c #F0B486",
"'. c #FFBE83",
"]. c #F0B78A",
"[. c #F1B88D",
"{. c #FBBC8C",
"}. c #EEBA92",
"|. c #F2BD93",
" X c #D0B9A9",
".X c #FFC08E",
"XX c #F5C296",
"oX c #FEC592",
"OX c #F6CC91",
"+X c #FFCA95",
"@X c #FECD99",
"#X c #FFD49D",
"$X c #DFCAB7",
"%X c #FFD9A1",
"&X c #BFBFC0",
"*X c #BEC6C8",
"=X c #BCC6CB",
"-X c #BBC9D1",
";X c #C3C3C4",
":X c #CDCAC5",
">X c #C7C7C8",
",X c #C3CACC",
"<X c #CBCBCC",
"1X c #C6CFD3",
"2X c #C9D4D7",
"3X c #D0D5D7",
"4X c #D5DADC",
"5X c #D1DCE1",
"6X c #DDE0E1",
"7X c #C0E0F4",
"8X c #E4E8EA",
"9X c #E9ECED",
"0X c #E1FEFF",
"qX c #F0F1F3",
"wX c #F5F8FC",
"eX c #FEFEFF",
/* pixels */
";X;X;X;X X*X>X>X&X*X&X;XW.&X&X&X&X&XW.W.&X&X&X&X>X;X>X>XW.W.~.s.z.h.z.z.s.h.z.h.h.h.h.h.s.z.s.z.s.h.h.h.s.z.s.z.s.h.c.;XE.W.U.U.",
";X&X;X;X;X;X>X;X&X&X;X;X&X&X&X&X&X&XW.W.&X&X&X&X;X>X>X;XW.W.K.s.s.s.a.k.g.h.a.p.a.s.a.a.a.p.a.a.a.a.p.a.a.a.a.a.a.a.f.&XR.E.U.U.",
">X>X;X;X3X<X;X;X;X>X;X>X;X>XW.W.&XW.W.W.W.&X;X;X>X>X<X1X X/.!.g.h.a.s.s.s.a.z.v.v.v.v.v.v.v.v.v.v.v.v.v.x.x.x.x.x.v.v.^.^. XI.U.",
">X>X;X&X<X<X>X;X>X;X>X;X>X;XW.W.E.&XW.W.W.W.;X;X>X<X<X<Xn.h.h.k.k.k.k.a.h.p._.XX|.}.|.|.|.|.|.}.}.|.|.].]._.].`.].[.).a.a.~.F.I.",
";X;X;X>X;X;X&X;X*X=X;X;X;X>X>X;X&X&X&X=X&X*X*X&X>X;X>X;Xv.k.h.h.h.s.s.a.h.a.v.|.[.].}.].}.].].].}.}.]._.).).).`.)._.).a.a.G.S.F.",
"&X;X;X;X;X;X;X;X&X X;X;X>X;X;X>X&X X&X&X&X&X&X&X>XB.: r j x j t 1 6.b.h.].].`.`.).).`.).`._._.).`.`.).).).).).).).).).(.v.K.C.S.",
"Y.Y.T.Y.Y.Y.T.T.T.T.Y.Y.Y.Y.T.Y.Y.R.T.Y.T.T.T.T.Y._ : : , 1 : .   =.b.z.|.|.].).).).).).).).).).).).).`.).).).).).).)._.[.G.V.A.",
"T.Y.Y.R.Y.Y.T.T.T.Y.T.T.Y.Y.Y.R.Y.T.Y.Y.T.Y.T.<.V.K , , t h 1 : o =.b.z.}.].).).).`.).).).).`.`.).).).).).`.).).).).).).@X%.T ( ",
" X*X&X&X&X&XW.W.&X&XY.U.;X X*X*X&X;X&X&X;X&X;X< & < h h 2 t 1 * O =.b.h.).).).).).`.`.`.`.`.`.`.).).).).).).).`.`.`.`.`.@XY   < ",
"=X;X&X;X&X&XW.W.&X&XU.U.;X;X&X&X;X&X;X;X&X;X;X< * 1 h t h h 1 * % =.b.z._.).).).`.{..X{.{.{.{..X{.).).).).`.).).{.{.{.{.%X#.  > ",
">X*X<X>X&X&XW.W.>X<XU.U.W.W.>X;X;X>X;X>X;X>X;X< * < h 2 < , : : + =.b.h.).).).{.c.m n m m m M k $.oX`.).).).).{.$.k m m Y h + > ",
">X;X>X<X&X&XW.W.>X>XY.U.W.W.;X>X>X;X>X;X>X;X;X< * < j h : * : : O =.b.z.).).).oXc.O . O O O O   m +X).).).).).+Xx   O O O + : < ",
"&X&X&X*X&X;XW.&X;X;XU.Y.>X;X>X;X>X>X&X;X;X;XW.< * , t 2 : : : : O =.b.h.].`.).{.!.n x b b b b j $.oX`.).).).)..X$.k b n m t + > ",
"&X&X&X&X;X;X&X&X X;XU.U.;X>X;X>X;X:X;X&XW.;X&X< : : * : : : : : O =.b.z.).`.).).].{.{.{.{.{.{.{.{.).).).).).).).`.{.{.{.#X#.  > ",
"Y.Y.T.Y.T.T.T.T.T.T.Y.Y.Y.T.R.Y.Y.Y.Y.T.T.T.Y., , + . . * , & X   *.b.h.).).).).`.`.`.`.).`.+X#XoX(.).).).).).).oX#X+X`.#XY   , ",
"T.T.Y.T.T.T.T.T.T.T.Y.Y.R.Y.Y.Y.Y.Y.T.Y.T.T.Y.< O k =.&.2 . j &...9.k.z.).).).`.).).`.).`.).m 2 $.oX).).).).)..X#.2 M `.@XY   , ",
"<X3X&X&X&X;X&X;X&X;X;X>X&X;X&X;X&X;X;X>X;X;X;X<    .OXl.j   c l.j.k.a.h._.).`.).).).).).{.v.O   x #X).).).).).+Xk   : `.#XY   , ",
"<X<X&X&X&X&X;X&X;X&X>X;X;X&X;X&X;X&X>X;X;X;X;X< X N m.k.t   c u.r.a.s.z.).).).).).).).).{.).<   M +X).).).).).+Xx   2 `.#XM . r ",
"<X<X:X<X>X;X>X>X;X>X>X>X;X>X&X;X;X>X;X>X<X<X&X<   N m.h.t   c u.r.v.]._.).).).).).).).).).).).).).).).).).).).).).`.`.)..X<.( _ ",
"<X<X:X<X;X>X;X>X>X;X*X;X>X;X;X&X>X;X>X;X<X<X&X< X N m.k.:   j u.w.v.].`.).).).).`.XXXX].).).{..X`.).).).).).).).`.{.{.).).G.( _ ",
"&X X3X<X&X&X;X&X;X X,X>X&X;X&X;X&X;X>X>X*X&XW.< X N m.h...v &.b.h.v.].`.).).).].v.i.7.z.[.).).).`.).`.).).).`.).).).).).).3.) _ ",
"&X;X:X<X&X;X&X;X;X;X>X>X;X&X;X;X;X&X>X>X&X&X&X<   N m.k.j.j.b.}.[.`.).`.).).).[.v.O.| 8.XX).].].].`.].].].].].].).).).).).3.) ` ",
"R.T.T.R.Y.T.T.T.T.T.Y.T.Y.Y.T.T.Y.Y.Y.T.T.Y.Y.> . N n.a.t.w.h.].).).).).).)._._.v.@.o.8.].).).).).).).v.).).).v.).).).).).3.` [ ",
"T.T.Y.Y.T.T.T.T.T.T.T.Y.Y.Y.T.T.Y.Y.Y.T.Y.Y.Y.< : , < < 6.u.a.].).).).`.).).).).).(.|.8.+.@.@.@.@.@.@.@.@.@.@.+.s.[.).).).3.[ } ",
"&X&X>X;X;X&X&X&X&X&XU.Y.W.E.&X&X&X&XW.W.&X&X&X> : & o O 6.u.a.].).).`.).).).).).).[.@X8.| o.o.o.o.o.o.o.o.o.o.X.p.XX).).`.4.} B.",
"&X&X;X>X&X;X&X&X&X&XU.U.E.W.&X&X&X&X XW.&X&X&X! T g & & 6.y.h.].).).).).).).).).).).[.h.6.8.8.8.8.8.8.8.8.8.8.7.c.].).).).4.} V.",
">X;X>X;X>X;X<X:X;X>XY.U.&X&X<X<XR.&X&X&X&XE.E.T.E._ & & 6.y.g._.`.).).).).).`.).).).).[.|.|.|.{.[.XXXX[.{.|.|.|.].).).).).4.B.V.",
";X>X;X>X;X>X>X<X>X:XU.U.&X&X<X<X&X&X&X&XE.&X&XR. X_ : O :.u.a.[.).).).).).).).).).).].).`.).`.`.).).).).).).).).).)._.).).4.B.A.",
";X&X>X;X&X&X;X&X&X&XU.U. X&X>X;X&X=X&X&XW.W.=X&XR.L.M.} 8.y.a.[.).).).).).).)._.).a.e.x.].).).).).).).).`.`.)._.a.e.a.).).4.} V.",
"&X;X;X>X&X&X;X;X&X;XU.Y.&X&X;X>X*X&X&X&XW.W. XW.E.U.L.S.a.r.g.].`.).).).).`.).].v.q.,.h.XX].].].].].].].].].].|.a.0.e.)._.4.>.V.",
"T.T.T.T.T.T.Y.Y.Y.Y.Y.Y.T.T.Y.Y.T.Y.T.T.Y.T.Y.Y.U.P.F.S.9.r.a.].).).).).).).)._.).g.a.h.v.v.v.x.x.v.v.v.v.x.x.v.h.t.h.`.).3.[ M.",
"T.T.T.T.Y.Y.T.Y.Y.T.R.Y.T.T.Y.T.T.T.Y.Y.T.Y.Y.Y.T.U.L.F.i.r.a.].).).`.).).).).).).].|.h.q.r.r.r.r.r.r.r.r.r.r.q.v.|.].).).3.[ M.",
"&X;X>X;X&X;X>X;X&X;X&X*X&X&X&X=X&X&X&X&X&X&X&X&X;X&X&XR.p.r.a.[._.).).).).`.).).).).[.g.q.r.r.r.r.r.r.r.r.r.r.q.z.].).).).4.' } ",
";X&X;X>X;X&X;X>X;X&X&X&X&X&X&X X&X&XR.R.&X&X&X X;X&X&X&Xp.r.a.v.x.).).).).).).).).)._.(.x.v.v.v.v.v.z.v.v.v.v.v.).).).).).4.` } ",
"<X>X;X&X<X<X>X;X>X;X;X>X>X;XW.W.&X&X&X&X&X&X;X>X;X>X<X>Xp.e.p.z.h.).).).).).)._.).).).].[._._._.[._.[.[.[.[.[.[._.)._.).v.H.` } ",
">X>X&X&X3X<X>X;X>X>X>X>X;X>XW.W.R.&X&XR.&X&X>X>X>X;X<X>Xf.p.s.h.g.(._.).).).).).).(.).(.).).).).).).(.).v.).).).).v.).!.).3.` } ",
"&X;X>X;X;X;X;X*X&X&X;X&X;X>X;X>X&XR.&X&X;X&X;X&X>X>X>X;XR.Y.4.e.r.v.].).).).v.h.h.z.k.z.h.h.z.z.h.z.h.z.z.h.h.z.z.z.s.` ' [ [ N.",
";X&X;X>X;X;X X=X&X;X&X;X>X>X>X;X&X&X&X&X;X;X&X;X>X;X>X;XR.Y.4.r.r.'.@X{.+X+Xb.y.g.x.x.x.v.v.z.z.z.z.z.j.d.j.z.z.z.z.i.[ ` [ [ ;.",
"Y.Y.T.T.Y.Y.R.Y.Y.Y.T.T.Y.Y.Y.T.T.T.R.T.Y.Y.T.T.T.Y.T.T.U.I.H.5.5.%.T E E U H.$X/.a.t.a.p.t.t.a.a.a.t./. X~.-.1.1.1.<._ ` [ } V.",
"T.T.Y.T.Y.Y.Y.Y.T.T.T.T.T.Y.T.T.T.T.T.T.Y.T.T.T.T.T.Y.Y.Y.U.L.L.V.p 3 3 3 X N.0X2Xw.0.w.w.w.y.y.r.q.0.:X7X-X) ) _ _ _ ` [ } B.V.",
";X&X&X&X&X&XW.W.=X&XU.Y.*X&X;X&X&X&X;X&X;X&X;X&X;X>X;X;X&X&XR.L.L.L u i i 5 N.2XE.a.t.p.t.t.9.e.9.p.e. X=XP.` ' [ } M.B.V.S.F.U.",
"&X;X&X&X&X&XW.W. X;XU.U.;X&X&X;X;X&X&X&X&X;X&X;X>X;X;X;X;X&XA.D F F D D D H d 0 S ;X<X*X,X*XW z <.4X1XP 6 p A F ) B.V.V.S.L.U.T.",
":X>X>X>X&X&XW.W.<X>XU.U.W.W.>X;X>X;X>X;X>X;X>X>X;X>X<X<X<X,XL.D D H H F D H p # s -X2X-X-X=XR z N.2X1XD @ i F D ) V.S.F.U.T.W.&X",
";X>X<X<X&X&XW.W.>X>XU.Y.W.W.;X>X>X>X;X>X;X>X;X>X>X;X<X1XD.A.] D D A d A D H A i G *X1X<X4X2XR l Z.8X6XQ q C F D ] V.F.I.T.E.&X>X",
"&X*X;X;X;X&X&X&X*X&XU.U.>X;X>X>X;X>X&X;X&X;X&X;X>X;X;X=XL D D D F a 0 a D D H C P *X,X4XqX8XW l Z.wXqX^ V F F D ' S.S.I.Y.T.E.W.",
"&X X&X;X&X;X&X&X>X XY.U.;X>X;X:X>X>X;X;X;X&X;X&X>X;X;X XQ D D F D d w a D D D C L *X*X3X9X6XW l Z.wX8X^ p D D F ) A.S.I.Y.R.E.W.",
"T.T.T.Y.Y.T.T.T.T.R.Y.Y.Y.Y.Y.Y.Y.Y.Y.Y.T.Y.T.T.R.Y.T.Y.L D D D F d w a H D D C L *X*X3X9X6XW l Z.wX9X^ p D F F A u G S.F.I.U.Y.",
"T.T.Y.Y.T.Y.Y.T.Y.Y.T.T.Y.T.Y.Y.Y.Y.T.Y.Y.T.Y.T.Y.T.Y.T.L D D D F d w d D D D C L *X1X3X9X6XW l Z.wX6X^ p D D F a u f A.F.I.U.Y.",
"<X<X;X&X;X&X;X&X;X&X;X>X&X;X&X;X;X&X>X;X;X;X>X>X;X;X&X&XQ F D D H d w s H D D C P *X1X3X9X6XW l Z.wX9X^ p H S H a u A S.P.Y.L.I.",
"3X<X&X&X&X&X&X;X&X;X>X>X&X&X;X&X&X&X>X>X;X;X>X>X>X>X&X&XL F D D D d w d D D D C P *X*X3X9X6XW l Z.wX6X^ p D D H d q C A.D.U.F.I.",
"<X>X<X<X&X>X&X>X,X;X>X;X;X>X&X;X;X>X;X>X<X<X&X&X<X3X>X&XH Z D G H s w p D D D C L *X*X3X9X6XW l Z.wX9X/ p D D H p 7 d B.F.U.F.L.",
">X<X<X>X>X>X>X>X>X>X;X>X>X>X;X&X>X;X>X;X<X<X&X;X<X<X>X;XQ.f.-.9 s C S S D D D Z P *X1X3X9X6XW z Z.wX6X/ p D D B %.i.2.<.S.I.S.F.",
"&X&X<X3X;X;X X>X&X&X>X>X&X;X&X;X X=X,X>X&X;X&X&X&X&X&XW.{.#X5.3 0 S H H D D D a L 4X5X9XeXwXE z J.eXeX/ p D H B 2.l.h.>.V.S.S.F.",
"&X&X<X<X&X;X;X;X;X&X>X:X&X&X;X&X;X;X>X>X;X&X&X&XW.&X&XW./.XX5.7 d S F D D D D Z H L.L.P.R.T.K y ` =XE.Q V D D B 2.c.2.} B.S.S.F.",
"Y.T.T.T.Y.R.Y.Y.T.T.Y.T.T.T.T.T.Y.Y.Y.T.T.Y.T.Y.Y.T.Y.Y.U.L.B.Z F D D D G D H H S # # # @ # 4 5 = @ @ C H H D Z ( ( _ [ } V.S.F.",
"Y.Y.T.T.Y.Y.Y.Y.T.Y.T.Y.Y.T.T.T.Y.R.Y.Y.Y.T.T.T.T.T.Y.Y.U.I.[ D D H H H H H H H H 8 6 9 6 6 6 5 8 - - S H H H S I _ ' ] <.V.S.I.",
"&X&X;X>X&X&X&X&X&X&XU.U. XW.&X&X&X&XW.W.&X&X&X&X>X>X>X;XE.R.F.} { A w u u u w 0 0 - - 4 = 4 4 = 4 6 6 w w g ~ ! _ { } B.S.F.U.R.",
"&X&X>X;X;X&X&X&X&X&XU.Y.W.E.&X&X&X&XW.W.&X&X&X&X>X;X>X;XW.E.Y.I.D.f = - ; 4 % # # = $ = = $ = $ - 6 6 - = s ` ` [ } B.A.D.I.Y.R.",
";X>X;X>X>X>X<X<X>X;XU.U.&X&X<X,XW.W.W.W.W.W.W.W.<X<X3X<X;XW.W.T.I.S 8 6 6 6 - = = 6 w 6 8 8 = = 4 6 4 6 6 f ` [ B.V.S.L.I.T.W. X",
">X;X>X;X>X;X<X:X>X>XU.Y.&X&X<X<XW.W.W.&XW.W.W.W.3X<X<X<X;X&X;XE.Y.G 6 6 6 6 6 5 w ' R ( ' [ 6 = - 6 6 6 6 f [ [ B.A.F.I.T.E.&X-X",
"&X;X;X>X&X&X&X;X&X*XU.U.&XW.>X>X;X;X&X&X&X&X&X;X&X&XW.W.&XW.W.E.R.J 6 8 6 6 6 0 w ` ( _ [ [ 6 = 4 w 6 6 6 f [ } B.A.F.I.T.E.&X&X",
";X&X>X;X&X&X;X&X*X XY.Y.W.W.>X;X;X&X&X&X&X X;X;X&X&X&XW.&XW.&XW.E.J - ; - - - - 8 [ _ _ { } ; % $ = % - ; f } M.V.D.I.Y.R.E.&X&X",
"Y.Y.Y.T.Y.T.T.T.T.T.Y.Y.Y.T.T.Y.T.Y.Y.T.T.T.T.Y.Y.T.Y.Y.Y.T.Y.Y.U.g % % % % % % ; ( _ [ } } = o o o o O % e ` } B.A.F.I.U.Y.T.T.",
"T.T.Y.T.T.Y.T.Y.Y.T.T.Y.T.Y.Y.T.Y.T.Y.T.T.T.Y.T.Y.Y.T.T.Y.Y.Y.Y.Y.J % ; ; ; ; % e _ [ } B.B.> o + % % - & e ` } B.S.F.I.Y.Y.Y.Y."
};
