/* XPM */
static char *result[] = {
/* columns rows colors chars-per-pixel */
"64 64 226 2 ",
"   c #000001",
".  c #0C0000",
"X  c #040509",
"o  c #0C0709",
"O  c #0D0B0B",
"+  c #100100",
"@  c #160806",
"#  c #120D0C",
"$  c #15110E",
"%  c #1A130F",
"&  c #0A0D14",
"*  c #040D18",
"=  c #0F1015",
"-  c #131414",
";  c #1D1612",
":  c #1F1812",
">  c #13151C",
",  c #16191D",
"<  c #1A191E",
"1  c #22160C",
"2  c #221A14",
"3  c #271E19",
"4  c #321D1C",
"5  c #21231D",
"6  c #2D211A",
"7  c #34251D",
"8  c #3C261C",
"9  c #39291D",
"0  c #041325",
"q  c #171921",
"w  c #151924",
"e  c #1A1D24",
"r  c #101E31",
"t  c #1B202A",
"y  c #1D222B",
"u  c #122F36",
"i  c #252628",
"p  c #22262D",
"a  c #362720",
"s  c #3D2C22",
"d  c #363C25",
"f  c #232731",
"g  c #252A34",
"h  c #242B3C",
"j  c #292F3A",
"k  c #26313A",
"l  c #2B303B",
"z  c #44251E",
"x  c #4D311D",
"c  c #412E25",
"v  c #433025",
"b  c #4C3628",
"n  c #583D29",
"m  c #433434",
"M  c #4A3733",
"N  c #4B3834",
"B  c #414626",
"V  c #464B2A",
"C  c #5C4333",
"Z  c #66452B",
"A  c #734C2E",
"S  c #624837",
"D  c #654C39",
"F  c #6A4E3B",
"G  c #6D513D",
"H  c #7B553A",
"J  c #173549",
"K  c #272E41",
"L  c #2D3342",
"P  c #28354A",
"I  c #323845",
"U  c #373D4D",
"Y  c #383E4E",
"T  c #393F50",
"R  c #004343",
"E  c #004949",
"W  c #0E4E4F",
"Q  c #1B4445",
"!  c #1B4748",
"~  c #144C4D",
"^  c #194A4A",
"/  c #0F4F50",
"(  c #154F50",
")  c #025556",
"_  c #0B5253",
"`  c #085758",
"'  c #005A5B",
"]  c #0B5A5B",
"[  c #125254",
"{  c #105758",
"}  c #23444A",
"|  c #224B4E",
" . c #3C424C",
".. c #3B4152",
"X. c #005F60",
"o. c #016364",
"O. c #006769",
"+. c #006869",
"@. c #326B61",
"#. c #444A55",
"$. c #454B5A",
"%. c #545952",
"&. c #7A5B45",
"*. c #6D5A50",
"=. c #576B57",
"-. c #676B56",
";. c #786B59",
":. c #6B7159",
">. c #4F5461",
",. c #595E6B",
"<. c #5D6270",
"1. c #697060",
"2. c #6A7964",
"3. c #797662",
"4. c #BF4815",
"5. c #835C3D",
"6. c #94623D",
"7. c #9C713F",
"8. c #A36D3F",
"9. c #A86E3C",
"0. c #C14E1C",
"q. c #C65927",
"w. c #C85C2A",
"e. c #CD6938",
"r. c #D1703F",
"t. c #855E46",
"y. c #845E48",
"u. c #866349",
"i. c #9D6F44",
"p. c #966F4F",
"a. c #9C6F48",
"s. c #967345",
"d. c #9C7044",
"f. c #96714B",
"g. c #9A704A",
"h. c #936E54",
"j. c #957151",
"k. c #9A7558",
"l. c #A46D41",
"z. c #A17041",
"x. c #A77148",
"c. c #A97B58",
"v. c #B57C52",
"b. c #B87E53",
"n. c #947764",
"m. c #C67F4C",
"M. c #7E887C",
"N. c #E6863F",
"B. c #858874",
"V. c #B58968",
"C. c #CB834D",
"Z. c #C68352",
"A. c #D88754",
"S. c #DD895A",
"D. c #DB9159",
"F. c #E98D48",
"G. c #EA904D",
"H. c #E89353",
"J. c #E8975B",
"K. c #F79A57",
"L. c #FFA45A",
"P. c #CA9667",
"I. c #DF9864",
"U. c #DD9A67",
"Y. c #C79F72",
"T. c #E69B62",
"R. c #EA9D64",
"E. c #E69C6A",
"W. c #F49E60",
"Q. c #CAA17C",
"!. c #DBA377",
"~. c #EBA067",
"^. c #ECA26B",
"/. c #F9A565",
"(. c #F2A56C",
"). c #FFBA6B",
"_. c #ECA572",
"`. c #EDA976",
"'. c #EDAB7A",
"]. c #FDAF72",
"[. c #FFB675",
"{. c #FFBB7A",
"}. c #7D8892",
"|. c #919586",
" X c #929794",
".X c #A29E93",
"XX c #B3B3B2",
"oX c #D3AE92",
"OX c #ECAF82",
"+X c #EFB385",
"@X c #EFB589",
"#X c #F0B486",
"$X c #FFBE83",
"%X c #F0B78A",
"&X c #F1B88D",
"*X c #FBBC8C",
"=X c #EEBA92",
"-X c #F2BD93",
";X c #CEBFB2",
":X c #FFC08E",
">X c #FFD289",
",X c #F5C296",
"<X c #FEC592",
"1X c #FFCA95",
"2X c #FECD99",
"3X c #FFD49D",
"4X c #DFCAB7",
"5X c #AFBCC2",
"6X c #BEC6C8",
"7X c #BDC6CB",
"8X c #BBC9D1",
"9X c #C6CAC9",
"0X c #C3CACC",
"qX c #C6CFD3",
"wX c #C9D4D7",
"eX c #D0D5D7",
"rX c #D5DADC",
"tX c #D1DCE1",
"yX c #DDE0E1",
"uX c #C0E0F4",
"iX c #E4E8EA",
"pX c #E9ECED",
"aX c #E1FEFF",
"sX c #F0F1F3",
"dX c #F5F8FC",
"fX c #FEFEFF",
/* pixels */
"' ' X.X.' ' o.X.' O X .     X     . X .     .       X       b R.E.T.E.I.I.T.I.I.I.I.I.I.I.I.T.I.I.E.I.I.E.E.I.E.U.E.V.X.) ) R R ",
"' ' X.X.' ' ' o.' . # a a a a a 8 8 a a a a 8 z a a a a 7 9 G R.E.E.R.^.E.~.E.R.R.R.R.R.R.R.R.T.T.T.T.T.R.R.T.T.R.R.P.] ) ) R R ",
"o.o.' ' O.O.X.X.o.. 8 j.x.l.l.l.l.l.l.l.l.l.l.x.9.x.l.l.Z.Z.D.E.R.E.~.^.~.E._.'.'.'.'.'.'.'.'.'.'.'.'.`.`.`.`.`.`.'.!.2.M.@.R R ",
"o.o.' ' O.O.X.o.' . z j.x.9.9.l.l.l.l.8.x.l.l.l.l.l.l.9.(.^.^.(.(.(.^.R.R.R.+X,X=X-X-X-X-X=X-X-X-X-X-X&X%X%X%X%X&X&X+XR.R.:.R R ",
"' ' X.X.' ' ' ' ' . a j.a.l.l.5.t.y.y.y.y.y.y.y.t.t.u.y.E.(.(.~.(.E.E.R.~.R.'.-X-X&X@X=X@X&X&X&X=X&X=X+X+X+X+X+X+X@X+X~.R.-.R R ",
"' ' X.o.' ' X.' ' + a j.a.i.l.z o . . . . . . . . @ : o v C b a 7 Z.].^.&X&X@X+X+X+X@X+X@X@X+X+X+X+X+X+X+X+X+X+X+X+X+XOX'.M.R R ",
"E E E E E E E E E . a a.i.l.l.8       .       o . O ; : 3 7 2 o   v.]._.-X-X@X+X+X+X+X+X+X+X+X+X+X+X+X+X+X+X+X+X+X+XOX@X).M.R E ",
"E E E E E E E E E . a a.l.l.l.8 .   o   X o   O O ; 4 6 s c 9 ; & v.]._.=X&X+X+X+X+X+X+X+X+X+X#X+X+X+X+X+X+X+X+X+X+XOXOX>X%.R u ",
"' ' ' ) ' ' ) ) ' . 8 g.i.8.l.8               2 ; 7 v s s s 7 : # v.].^.+X+X+X+X+X#X#X#X#X#X#X#X+X+X+X+X+X+X+X+X+X@X#X#X3X&.  2 ",
"' ' ' ' ' ' ) ) ' . z s.7.8.7.8               : ; 6 c s s c 9 2 # b.]._.@X+X+X+X#X*X*X*X*X*X*X:X*X+X#X+X+X+X+X+X%X:X*X*X3Xu.  2 ",
"X.X.o.o.) ' ) ) o.. 8 s.7.8.7.z               2 ; 6 c s 6 3 3 1 # b.].^.@X+X+X*XOXF D F F F *.n k.:X+X+X+X+X+X:Xj.C D F H v - 2 ",
"X.o.o.o.' ' ) ) o.. 8 s.7.8.8.8               2 ; 7 v c 2 ; 2 2 # b.]._.+X+X+X:X!.$ . # O @ o   F 1X+X+X+X+X#X<XC   # # O % 3 5 ",
"' ' ' ' ' ' ' ' ' . 9 s.7.8.8.8               2 2 3 8 a 3 : 1 2 $ b.].^.@X+X+X*XOXC C S S S S b k.<X#X+X+X+X+X:Xh.b S S G s - 2 ",
") ' ' ' ' ' ' ' ' . 9 7.7.7.7.8               2 2 2 2 2 : : 2 2 O v.]._.+X+X+X+X#X&X*X*X*X*X*X*X#X+X#X+X+X+X+X+X*X*X*X*X3Xu.  2 ",
"E E E E E E E E E . 8 s.7.8.7.z               2 3 $   X : 6 ; X   v.].^.@X+X+X+X+X%X#X#X+X#X2X3X<XOX+X+X+X+X+X+X,X3X1X#X3X&.  2 ",
"E E E E E E E E E + 8 s.7.8.8.8               2 O C b.x.7 o b x.6.D.(._.@X+X+X+X+X+X#X+X#X+XF 9 h.<X+X+X#X+X+X<Xu.9 G #X3X&.X 2 ",
"+.+.) ' ' ' ' ' ' . 8 g.d.l.z.8               2   5.>X[.v   Z )./.(.T._.+X+X+X+X+X+X+X#X:X+X$   C 2X+X+X+X+X+X<Xb   2 #X3X&.X 2 ",
"+.+.' ' ' ' ' X.' . a j.a.l.8.8               2 X H {.^.9   Z L.H.R.E._.+X+X+X#X+X+X+X+X&X'.6 X G 1X+X+X+X+X+X<XS   9 %X3XD X 5 ",
"o.o.o.o.X.X.X.X.X.. 8 f.a.l.d.8               2 X H {.^.v   Z /.H.'.@X+X+X+X+X+X+X+X+X+X+X+X#X'.+X+X+X+X+X#X+X#X+X+X+X#X:X-.R R ",
"o.o.O.o.X.X.X.X.X.. 9 f.d.l.z.8 .             2 X H {.(.2   x L.G.'.&X+X+X#X+X#X#X,X,X%X+X+X%X:X%X+X+X+X+X+X+X+X*X*X#X+X'.B.R R ",
"' ' +.+.' ' X.' ' . 8 f.i.8.8.8               2 X H {.^.6.A x.].(.OX#X+X+X+X+X#X'.D.S._.&X#X+X+X#X#X#X+X+X+X#X#X+X#X+X+X+X3.R R ",
"' ' +.+.' ' ' ' ' + z f.i.8.7.8               2   5.{.(././.].=X&X@X+X#X+X+X+X&X'.w.4.S.,X#X&X%X%X#X#X*X%X#X#X#X#X+X+X+X+X3.R R ",
"E E E E E E E E E + 8 f.i.8.z.8               2   H [.~.J.G.R.&X+X+X+X+X+X#X+X&XOXe.q.S.%X+X+X+X+X+X'.'.+X+X+XOX+X+X+X+X+X2.E E ",
"E E E E E E E E E . 8 f.i.8.9.8               2 : 3 6 7 C.L.~.%X+X+X+X+X+X+X+X+X+XOX@XI.e.r.r.r.r.r.m.r.r.r.r.e.E.&X+X+X+X2.E E ",
") ) X.X.' ' ' ' ' . 8 j.a.l.d.8 .             2 2 : O # C.K.~.%X#X+X+X+X+X+X#X+X+X&X2XS.4.q.q.q.q.q.q.q.q.q.q.0.E.-X+X+X+X3.! ~ ",
"' ' X.X.' ' ' ' ' . 8 f.i.8.7.8               # # % ; ; C.L.~.&X+X+X+X+X+X+X+X+X+X+X&X^.A.S.S.S.S.A.S.S.A.S.A.A.`.%X+X+X+X3.Q ~ ",
"X.X.X.X.X.X.o.o.X.. 8 f.d.8.7.8                   O ; : C.K.~.&X+X+X+X+X#X+X+X+X+X#X+X&X=X-X,X&X*X,X-X-X*X-X-X,X%X+X+X+X@X3.~ ( ",
"X.X.o.X.X.X.o.O.X.. 8 f.i.8.9.8                   # : # C.L.~.@X+X+X+X#X+X+X+X+X+X#X+X#X+X+X+X+X+X+X+X#X#X#X+X+X+X@X@X+X+X3.^ [ ",
"' ' X.X.' ' ' ' ' . 8 g.d.8.7.8                       X C.K.~.@X+X+X+X+X+X+X+X@X+XR.J._.&X+X+X+X+X+X+X+X+X+X+X%X~.H.E.+X+X3.^ ~ ",
"' ' X.X.) ' ' ' ' . 8 f.d.8.8.z                         A.G.~.@X+X+X#X+X+X+X+X%X'.G.N.^.-X@X&X@X%X%X@X%X&X%X%X-XR.F.H.+X@X3.! ~ ",
"E E E E E E E E E . 8 j.a.l.d.8 .                       C.H.T.@X+X+X+X+X+X#X+X@X+XE.J._.'.'.`.'.`.'.'.'.'.`.`.'.~.R.~.+X+X2.E E ",
"E E E E E E E E E . 8 j.a.l.7.8                         C.H.~.@X+X+X+X+X+X+X+X+X+X&X-X_.F.H.H.H.H.H.H.H.H.H.H.G.`.-X%X+X+X2.E E ",
"' ' X.' ' ' ' o.' . 8 g.s.8.9.8                         C.H.~.&X+X#X+X+X+X+X+X#X#X+X&X^.G.H.H.H.H.H.H.H.H.H.H.G._.-X+X+X+X3.R R ",
"' ' X.o.' ' o.' ' . 8 f.i.8.z.8                         m.H.R.'._.+X+X+X+X+X+X+X+X+X+XOX_.'.`.'.'.`.'.`.'._.'._.OX+X+X+X+X3.R R ",
"o.o.' ' +.+.' o.o.. 8 f.i.9.7.8                         C.H.R.`._.OX%X#X+X+X+X@X#X#X#X#X=X&X&X&X&X&X&X@X&X&X=X@X@X#X+X+X+X3.R R ",
"o.o.' ' +.+.o.o.' . 8 f.i.8.8.8                         9.C.Z.^.^.'.@X+X+X+X+X+XOXOX+X#XOX#XOXOX+XOX+X+X+XOXOXOXOX+XOXQ.OX1.R R ",
"' ' o.' ' X.' ' ' . 8 k.a.l.d.8 .                           x J.H.'.&X#X+X@X'.^._.^._._._._.^._.^._.(.(._._._._._.(.P.! Q Q R R ",
"' ' X.o.' ' ' ' ' . 8 f.i.8.z.8                             x H.H.$X2X<X<X1X].K.(.'._._._.`.`.`.`.`.`./.W.W._._._._.P.Q Q Q R R ",
"E E E E E E E E E . 8 j.d.8.8.8                             1 A n &.*.;.*.*..X4XoXR.J.R.R.T.R.J.R.R.J.oX;XoX=.:.:.:.=.E E E E E ",
"E E E E E E E E E . 8 f.d.8.7.8                                   * 0 0 0 X }.aXeXG.F.G.G.F.K.K.G.F.F.9XuX5XE E E E E E E E E E ",
"' ' ' ' ) ' ) ) ' + z f.i.8.7.z                               X   p g j j w }.wXXXT.J.T.T.R.D.H.J.T.J.;X8X X} Q ! ^ ! ~ ~ [ _ ` ",
"' ' ' ' ' ' ) ) ' . 8 s.i.8.8.8                             - U U U U U U T j e  .9XqX9X0X6X-.V B.rX9X$.t g L T } ^ ~ ~ [ [ ` ` ",
"o.X.o.o.' ' ) ) o.. 8 j.i.l.i.8 .                           > U U T ..U U ..h * j 7XwX7X0X7X-.B }.wXqXY * f T U | ( [ { ] ] X.o.",
"' o.o.o.) ' ) ) o.. 8 j.i.l.7.8                         , e f U U I l I Y T I f ..9X0XqXrXeX-.V |.iXtX>.t I U U } ( { { ] ] o.o.",
"' ' ' ' ' ' ' ' ' . 8 f.i.8.9.8                         L U U U ..j y j U U T I $.6X0XeXsXiX:.B |.dXpX<.K T U U | [ W _ ] ` ) ) ",
"' ' ' ' ' ' ' ' ' . 9 f.s.8.z.8                         L U Y U U j f j U U Y L $.6X0XeXpXrX:.B |.dXpX,.h U T T Q ( W _ { ` ) ' ",
"E E E E E E E E E + z s.i.8.z.8                         I U U U  .l f j U U U L $.6X0XeXpXrX:.B |.dXpX,.h T T T j f k E E E E E ",
"E E E E E E E E E . 8 s.i.8.z.8                         L U U U T l p j  .U U L $.6X0XeXpXiX:.B |.dXpX,.h U U T j g h E E E E E ",
"o.+.' ' ' ' ' ' ' . 8 f.g.8.d.8                         L U U U T l p j U U U K $.6X0XeXpXyX:.B |.dXpX,.h U U T K g h W _ _ R R ",
"+.+.) ' ' ' ' ' ' . 8 j.a.l.8.8                         L I U U U j p j T U U P $.6X6XeXpXyX:.B |.dXpX,.h U U T j p h / W _ R R ",
"o.o.o.o.X.X.' o.o.. 8 j.i.l.7.8                         h L U ....j p j U U U L #.6X0XeXpXyX:.B |.dXpX,.h U U T h r h ~ [ ] R R ",
"o.o.o.o.o.' o.o.o.. 8 f.i.9.7.8                         V.oXn.y j I U U U U Y L $.6X9XeXpXyX:.B |.dXpX,.K U U P h.D.c.~ [ _ R R ",
"' ' +.+.' ' ' ' ' . 8 f.i.8.l.8                         !.3XV.0 p I ....Y U U K $.tXyXpXfXdX3.V .XfXfX<.h U U P V.).U.! ~ _ R R ",
"' ' +.+.' ' ' ' ' + 8 f.i.8.z.8                         j.Y.n.r j I T U  .U U I #. X XXXXXXX%.d 2.6XXX>.L U U J k.P.V.Q ^ W R R ",
"E E E E E E E E E + 8 g.i.8.z.8                             3 P U U U U U U U ..I = * * & & w w = & & L ..T Y P | E E E E E E E ",
"E E E E E E E E E . 8 j.i.8.7.8                             *  .T ................t w e e e w e e w , I ....Y U R E E E E E E E ",
"' ' X.X.' ' ' ' ' . 8 j.s.l.i.8 .                           X , > y p g g g p y e < , q > q q > q e e p f j } } } ! ^ ( ~ _ _ ) ",
") ' X.X.' ' ) ' ' . 8 f.i.l.8.8                                   & > , , < = O & > > = > = > = < e e < < 6 Q Q ! ^ | ( / _ _ ) ",
"X.X.X.X.o.X.o.o.' . 8 f.i.l.z.8                                   > e e e e q > < < < < q w > = , e e e e i Q Q | ( [ { _ ] X.o.",
"X.X.X.X.X.X.o.o.o.. z f.i.9.7.8                                   > e e e e e w e M M M M m q > q e e e e f Q Q ( [ { ] ] ] X.o.",
"' ' o.X.' ' ' ' ' + 8 f.7.i.8.8                                   > 5 t e e y e p M M M M m , > q t t e t i ! ! ^ W W _ _ ) ' ' ",
"' ' X.X.' ' ' ' ' . 8 p.i.l.l.8                                   - , < < , < , < m M M N v - = - > - , < i ! ^ ~ W _ _ ) ) ' ' ",
"E E E E E E E E E + c p.i.l.8.8 o   X     X X   X         X   X   - - - - - - - ; z z z z c # O O O o - - 5 E E R E E E E E E E ",
"E E E E E E E E E @ a h.p.i.s.9 X X     X X   X X X X X X X X     & - - - - - - ; 4 4 4 4 4 $ & # # $ ; - i E E E E E E E E E E "
};
