/* XPM */
static char *result[] = {
/* columns rows colors chars-per-pixel */
"64 64 184 2 ",
"   c #020003",
".  c #0C0000",
"X  c #09090B",
"o  c #100100",
"O  c #130909",
"+  c #1D120C",
"@  c #0E0F12",
"#  c #111215",
"$  c #13161A",
"%  c #16181E",
"&  c gray10",
"*  c #22160E",
"=  c #2A1A11",
"-  c #321F14",
";  c #352115",
":  c #37241B",
">  c #3B261D",
",  c #1A1D24",
"<  c #2C2827",
"1  c #372821",
"2  c #3C3027",
"3  c #343434",
"4  c #42291B",
"5  c #4F3020",
"6  c #47362F",
"7  c #573826",
"8  c #5B3826",
"9  c #4A3B35",
"0  c #513730",
"q  c #673F2B",
"w  c #693E2C",
"e  c #6C3C33",
"r  c #5A4437",
"t  c #63412B",
"y  c #684C36",
"u  c #664D38",
"i  c #754532",
"p  c #744733",
"a  c #7D4C35",
"s  c #7D4D39",
"d  c #6C5139",
"f  c #745237",
"g  c #725439",
"h  c #7B583A",
"j  c #4C494A",
"k  c #574C49",
"l  c #575451",
"z  c #5A5A5B",
"x  c #70584E",
"c  c #6B615A",
"v  c #796554",
"b  c #444B60",
"n  c #5E5F61",
"m  c #505871",
"M  c #676767",
"N  c #6C6765",
"B  c #6C6C6C",
"V  c #737374",
"C  c #777778",
"Z  c #7B7B7C",
"A  c #814E35",
"S  c #804F38",
"D  c #83513A",
"F  c #865738",
"G  c #89573B",
"H  c #835A3B",
"J  c #945F3A",
"K  c #8C613D",
"L  c #93623C",
"P  c #98673E",
"I  c #9D6B3E",
"U  c #9D703F",
"Y  c #A36D3F",
"T  c #A86F3E",
"R  c #CE6A39",
"E  c #8A5C42",
"W  c #966341",
"Q  c #996543",
"!  c #9E6D44",
"~  c #9E6F4B",
"^  c #967345",
"/  c #9A7144",
"(  c #957749",
")  c #9B714C",
"_  c #846B59",
"`  c #946F50",
"'  c #967152",
"]  c #987256",
"[  c #A36D42",
"{  c #A86F40",
"}  c #A26B48",
"|  c #A87247",
" . c #AB714A",
".. c #B3784A",
"X. c #826364",
"o. c #8D6C65",
"O. c #897668",
"+. c #8B7B6F",
"@. c #957B67",
"#. c #8C7D73",
"$. c #7E8562",
"%. c #A29C37",
"&. c #9DA42C",
"*. c #A6A82C",
"=. c #C6CE26",
"-. c #D0C73E",
";. c #CCD335",
":. c #D1DA36",
">. c #998B4F",
",. c #AA844F",
"<. c #A79B4F",
"1. c #BD8154",
"2. c #BD9457",
"3. c #ACB153",
"4. c #909762",
"5. c #9A8677",
"6. c #918F7A",
"7. c #AB876B",
"8. c #BC8662",
"9. c #BC8B66",
"0. c #B88B6A",
"q. c #A38873",
"w. c #AB8D76",
"e. c #B18C70",
"r. c #9DA575",
"t. c #C58757",
"y. c #D28F5E",
"u. c #D5915E",
"i. c #D8935E",
"p. c #E99658",
"a. c #C4AB55",
"s. c #E3BC5E",
"d. c #C58E62",
"f. c #C4906B",
"g. c #CD966E",
"h. c #D79769",
"j. c #D69D74",
"k. c #CDA07E",
"l. c #D8A576",
"z. c #EBA069",
"x. c #E7B168",
"c. c #E7A172",
"v. c #ECA570",
"b. c #EDAA77",
"n. c #E3A87C",
"m. c #EEAE7E",
"M. c #D1D34D",
"N. c #C9CA70",
"B. c #E1D66C",
"V. c #DCE263",
"C. c #5B6480",
"Z. c #626C8A",
"A. c #838384",
"S. c #8B8B8B",
"D. c #958E89",
"F. c #9E9387",
"G. c #949494",
"H. c #979798",
"J. c #9B9B9C",
"K. c #AC9381",
"L. c #AE9A8B",
"P. c #AE9D90",
"I. c #9F9FA0",
"U. c #99A9B3",
"Y. c #A4A4A4",
"T. c #A7A7A8",
"R. c #AEAEAE",
"E. c #AFAFB0",
"W. c #B2B2B3",
"Q. c #B7B7B8",
"!. c #BBBBBC",
"~. c #CFA98D",
"^. c #D3A684",
"/. c #DEAA81",
"(. c #EEAF80",
"). c #EFB385",
"_. c #F1BF9A",
"`. c #D2B7A4",
"'. c #F4CDB1",
"]. c #F5D2B8",
"[. c #8BADC4",
"{. c #BFBFC0",
"}. c #C3C3C4",
"|. c #CACACC",
/* pixels */
"}.}.}.}.}.{.}.}.}.X                                       + ; ; ; ; ; ; ; X   O ; ; ; ; ; ; ; ; ; ; 8 w 8 ; ; * * 6 }.}.!.!.T.T.",
"}.{.}.}.}.|.}.|.}.. @ 1 1 1 1 1 > 1 1 > 1 > > 1 1 > 1 1 > ; ; ; ; ; ; ; ; > : > ; ; ; ; ; ; ; ; ; ; 8 t 8 ; ; * + 9 !.!.Q.!.T.T.",
"}.|.}.}.|.|.|.}.}.. 1 ] ' ) }  .~ ~ ~ ~ ~ ~ ~ ~ ~ } ~ y y 5 ; ; ; ; : 5 5 t t 7 ; ; 4 5 5 ; ; 4 5 5 5 5 5 5 5 - = 2 N N G.{.Y.T.",
"|.}.}.}.|.|.}.}.}.. 4 ) } T { { { { { T { { { { T T T ; ; ; ; ; ; ; 4 w q 4 ; : ; ; 5 w w ; ; 5 w w 4 ; 4 q w 4 ; = + + c Q.Y.Y.",
"}.}.}.|.}.}.}.!.{.. > ' ) Y Y [ ! } ! [ ! ! [ } [ ! [ - ; ; ; ; ; ; 4 q q > ; ; ; ; 5 w t ; ; 5 w t 4 - 4 q w 4 ; - + + l T.J.I.",
"{.}.}.}.}.}.}.}.}.. > ' ) [ I F i i i i i i i i i i i ; ; ; ; ; 8 q 8 ; ; 1.z.z.z.z.L ; ; w w 5 ; ; 8 q 8 - ; 8 t 8 ; ; = + + J.",
"R.R.W.R.R.R.W.R.R.. > ( ! Y I a e s s s a s a s s s s ; ; - ; ; 8 q 7 ; ; t.z.z.z.z.L ; ; w w 5 ; ; q q 8 ; ; 8 t 8 ; ; = + + H.",
"R.R.R.R.R.R.R.R.R.  : ) ! Y I D s W ! [ [ [ [ Y [ [ ! ; ; 5 t t q q q q q d.v.v.v.v. .t t w w t t t q q 8 ; ; 8 w 8 ; ; = + + S.",
"}.{.{.{.{.{.`.!.}.. > ~ [ Y I A a L { Y Y Y Y Y Y Y Y ; : L z.z.F w F z.z.m.).).).).b.z.z.w t  .z.z.F w 8 ; ; 8 w 8 ; ; = + + G.",
"{.{.{.{.{.{.{.!.{.. 4 ^ ! [ I F s J [ Y Y Y Y Y T Y I ; ; K z.z.F w G z.z.m.).).).).b.z.z.t e  .z.z.G w 8 ; ; 8 t 8 ; ; = + + S.",
"}.|.|.|.{.{.!.!.|.. > ^ ! Y Y S s J Y Y Y T Y Y [ Y [ 8 7 [ z.z.y.y.h.m.(.).).).).).).m.m.g.g.h.z.z.F w a t.1.A w 8 - ; = + + A.",
"}.}.|.|.{.{.!.!.}.. > ^ I [ Y D s J Y Y Y Y Y Y Y Y { t t  .z.z.z.z.z.(.).).).).).).).).).).).b.z.z.F w F z.z.G w q ; ; = + + A.",
"{.{.}.}.{.}.{.{.}.. : ^ U Y Y D s L Y T Y Y Y Y Y Y I p p | z.z.z.v.b.).).).).).).).).).).).).m.v.v.} G } z.z.G w 8 ; ; = + + C ",
"{.{.}.{.}.{.{.{.}.. : ^ U Y I D s L I Y Y Y Y Y Y Y Y I L 1.z.z.(.).).).).).).).).).).).).).).).).).v.z.z.z.z.F t 8 ; ; = + + V ",
"E.E.E.E.E.R.E.E.R.. 4 / Y [ Y A a Q [ [ Y Y Y T Y Y Y I L 1.z.z.(.).).).).).).).).).).).).).).).).).v.z.z.z.z.F w 8 ; ; = + + V ",
"E.E.E.E.E.E.E.E.R.o > ^ I [ { A a L I Y Y Y Y Y Y Y I I P 1.z.z.z.v.v.v.v.v.v.v.v.v.v.v.v.v.v.v.v.v.z.z.z.z.z.F w 8 * * * + + B ",
"|.|.{.{.}.}.{.}.}.. > ^ I Y [ s s L Y Y Y Y Y Y Y Y Y I I 1.z.z.z.z.z.z.z.z.z.z.z.z.z.z.z.z.z.z.z.z.z.z.z.z.z.G w 7 + + + + + B ",
"|.|.{.{.}.{.}.{.}.. > ^ U [ { S a L Y Y Y Y Y Y [ T Y I I t.z.z.z.z.z.z.z.z.z.z.z.z.z.z.z.z.z.z.z.z.z.z.z.z.z.F w 5 + + + + + B ",
"|.|.|.|.}.|.}.}.|.. : ^ U [ [ s s J Y Y Y T Y Y Y Y I M M M M M M M M M M M M M M M M M M M M M M M N N M M M M N l + + + + + B ",
"|.|.|.|.}.}.}.|.}.  > ^ U Y [ D s L Y Y Y Y Y Y Y Y Y M M M M M M M M M M M M M M M M M M M M M M M M M M M M M M l + + + + + B ",
"{.}.|.|.}.}.{.}.}.. > ! ! [ { A a Q [ Y Y Y Y Y Y Y Y M M #.K.K.w.K.5.M M 5.w.5.M M #.K.K.K.K.K.K.K.P.P.D.M M 5.w._ + + 7 H H B ",
"{.}.|.|.}.{.}.{.}.o 4 / I { [ A a L I Y Y Y Y Y T Y Y M M K._._._._.~.M M k.).k.M M K._._._._._._._.'.].`.M M k.).9.+ + F z.z.B ",
"E.E.R.R.E.E.E.E.R.. > ^ U T [ S a L Y Y Y Y Y Y Y Y [ M M K._._._._.~.M M k.).k.M M K._._._._._._._.'.].`.M M k.).0.+ + H z.z.B ",
"E.E.E.E.E.E.E.E.R.. > ^ U [ { s s J Y Y Y [ Y Y Y [ I M M K._._.2   & M M k.).k.M M 3     _._._._._.'.].`.M M k.).0.+ + F z.z.V ",
"{.{.}.|.}.{.{.{.{.. > ( U [ { D s J I Y [ Y Y Y Y Y Y M M K._._.2   & M M k.).k.M M 3     _._._._._.'.].`.M M k.).9.* * F z.z.C ",
"{.{.}.}.}.}.{.{.{.  : ^ U Y [ s s J Y Y Y Y Y Y Y Y I _ v @.K.K.j 3 k w.w.n.)./.w.w.c 3 3 w.K.K.K.K.L.P.L.w.q.(.).f.4 4 Q z.z.C ",
"}.}.}.|.|.}.|.}.}.. : ^ U Y { a a W [ Y Y Y T Y Y Y Y I L v M M M M +.).).).).).).).w.M M M M M M M M M +.).).).).g.t t ..z.z.#.",
"}.|.}.}.}.}.|.|.}.o 4 / ! [ { A a L ! Y Y Y Y Y Y Y I I L v M M M M +.).).).).).).).w.M M M M M M M M M +.).).).).g.w w { z.v.Z.",
"}.}.}.}.}.{.{.}.}.. > ^ U [ [ S a J I Y Y Y Y Y Y Y Y I P 8.k.k.k.k.k.).).).).).).)./.^.k.k.k.k.^.k.k.k.^.).).).).g.w w v +.@.Z ",
"}.}.|.}.{.{.}.}.}.. > ^ U T { D s L Y Y Y Y Y Y Y Y Y I W 2.).).).).).).).).).).).).).).).).).).).).).).).).).).).g.w w x B V Z ",
"R.R.R.R.R.R.E.E.W.. > ^ U Y [ a i Q { Y I Y [ Y T Y Y I P t.m.m.).).(.c.c.c.c.c.c.c.c.c.c.).).).).).n.m.(.).).j.g.8.D G v N B C ",
"R.R.E.R.R.R.E.E.R.. > ^ U [ [ s i } ~ ) ( ) T I Y Y Y Y [ t.z.z.m.).c.R R R R R R R R R R ).).).).).v.z.v.).).E w G z.z.7.B V Z ",
"}.{.|.}.{.}.|.}.}.. : ^ I Y } A s Q q.T.I.F.Y Y Y Y Y Y Y t.z.z.m.).c.R R R R R R R R R R ).).).).).v.z.v.).).E t G z.z.7.V V Z ",
"{.}.}.}.}.}.}.}.{.. 4 / Y [ T A i Q D.[.[.D.Y Y Y Y Y Y Y t.z.z.m.).m.c.c.c.c.c.c.c.c.c.c.).).).).).v.z.v.).).l.g.h.z.z.e.C B 6.",
"|.|.}.}.|.|.|.}.}.. > / U { [ S a L 5.[.U.G.Y Y Y Y Y Y Y t.z.z.m.).).).).).).).).).).).).).).).).).v.z.v.).).).).m.z.z.0.Z.C A.",
"|.}.}.}.|.|.}.}.}.o > ^ U [ [ A a P ) @.@.] Y Y Y Y Y Y Y t.b.z.).).).).).).).).).).).).).).).).).).b.v.b.).).m.m.n.g.g.w.A.C A.",
"{.}.}.}.}.}.{.}.}.. > ^ U Y { S a J Y Y T Y Y Y Y Y Y Y ! d.).).).).).).).).).).).).).).).).).).).).).).).).).v.z.g.V V C Z Z A.",
"}.{.|.}.}.}.}.{.}.. > ^ U [ [ S S J Y Y T Y Y Y Y Y Y Y Y d.).).).).).).).).).).).).).).).).).).).).).).).).).v.z.g.V C C 6.Z.S.",
"R.R.R.R.R.R.R.R.R.. > ^ I [ [ S s J Y Y T Y Y Y Y Y Y Y Y ..d.9.l.b.b.b.b.b.b.b.b.b.b.b.b.b.b.b.b.b.b.b.b.b.b.0.7.@.B B Z.$.D.G.",
"R.W.R.R.E.R.E.E.R.. > / [ [ { A a W Y Y T Y Y Y Y Y Y Y Y I I K u.z.z.z.z.z.z.z.z.z.z.z.z.z.z.z.z.z.z.z.z.z.z.O.N N B V 6.A.D.J.",
"}.}.{.{.{.{.{.!.}.o > / I [ [ A a J Y Y Y Y Y Y Y Y Y Y Y I P L u.z.z.z.x.z.z.z.z.z.z.z.z.z.z.z.z.z.z.z.z.z.z.5.V C Z.D.G.P.T.W.",
"}.{.{.{.{.{.{.!.!.. 4 ^ U [ [ A s J Y Y Y Y Y Y Y Y Y Y [ I I L K H g g d u y y u u [ p.p.p.p.p.p.p.M.:.*.j M V 6.Z.A.G.J.T.W.Q.",
"}.}.|.|.{.{.!.!.|.. > ^ U Y [ S s J [ Y Y [ Y Y T [ Y Y Y U I P K K h h g d y y d d | p.p.p.p.p.p.p.:.:.*.j V C Z A.H.I.R.Q.{.}.",
"}.}.|.|.{.{.!.!.|.. > ^ U Y [ D s J Y Y Y T Y Y Y Y Y Y Y Y Y I P K K H h h f h <.<.a.s.x.] @.2.s.s.M.M.-.4.r.6.A.D.I.T.Q.}.}.|.",
"{.{.{.}.}.}.{.{.{.. > ^ ! [ [ S s J I Y Y Y Y Y Y Y Y Y Y Y Y I I L K K H h F >.V.V.V.V.V.b b 4.V.V.V.V.V.V.V.6.S.H.Y.T.W.Q.!.!.",
"{.{.}.}.}.{.{.{.}.. : ^ U { [ a a W [ [ Y Y Y Y Y Y Y Y Y Y Y ! I I P L L K F >.V.V.V.V.V.b b 4.V.V.V.V.V.V.V.r.G.J.T.E.Q.Q.!.!.",
"R.R.R.R.R.R.R.R.E.o > / Y [ { A a L [ Y Y Y Y Y Y Y T Y Y Y Y Y I I I I P L L ,.V.V.V.V.V.Z.Z.r.V.V.;.=.;.V.V.V.V.N.H.Y.T.T.R.R.",
"R.R.R.W.R.R.R.R.E.. 4 ^ U Y [ A a L I T Y Y Y Y Y Y Y Y Y Y Y Y Y Y U Y I I / ,.V.V.V.V.V.Z.Z.r.V.V.;.=.;.V.V.V.V.N.G.I.T.T.R.R.",
"|.|.}.}.}.}.}.}.{.. > ^ U Y [ F s J Y Y Y Y Y Y Y [ Y Y Y Y Y Y Y Y Y Y U ....2.V.V.V.V.V.C.C.r.V.V.;.=.-.B.B.B.B.N.J.T.E.Q.Y.T.",
"|.|.}.}.}.}.}.{.}.. > ^ U [ [ s s J Y Y Y Y Y Y Y T Y Y Y Y Y T Y Y Y T Y i.z.x.V.V.V.V.V.b b 4.V.V.;.=.-.(.).).).^.G.I.T.W.Y.T.",
"|.|.|.|.}.}.}.}.}.. > ^ / [ [ D s J I Y Y Y Y Y Y Y Y Y Y Y Y Y Y Y Y Y Y i.z.x.V.V.V.V.V.b b 4.V.V.;.=.-.(.).).).^.G.H.U.W.I.Y.",
"|.|.|.}.}.|.}.}.}.. > ^ U { [ a s L Y Y Y Y Y Y Y Y Y Y Y Y Y Y Y Y Y Y Y i.z.x.V.V.V.V.V.C.m r.V.V.;.=.M.).).).).^.A.G.Y.W.P.Y.",
"{.{.|.|.|.}.}.}.}.. > ! Y Y [ A i Q { [ Y Y Y Y Y Y Y Y Y Y Y Y Y Y Y Y Y i.z.x.V.V.V.V.V.Z.Z.r.V.V.;.=.M.m.(.).).^.#.S.H.T.I.Y.",
"{.{.|.|.}.}.{.}.}.. 4 ^ U Y T S a J [ Y T Y Y Y Y Y Y Y Y Y Y Y Y Y Y Y Y i.z.h.3.3.3.3.3.m m $.3.3.&.&.%.9.e.(.).l.Z.A.H.Y.H.Y.",
"R.R.R.R.R.R.R.W.R.. > ^ U Y { s A J Y Y Y Y Y Y Y [ Y Y Y Y Y [ Y Y Y Y Y i.v.1., , , , , , , , & , , , , # # 0.).^.V C S.G.I.T.",
"R.R.R.R.W.R.R.R.E.. > ^ U [ [ D s J Y Y Y Y Y Y Y T Y Y Y Y Y T Y T Y Y I h.z.1., , , , , , , , , , , , % # # 0.).k.V C S.H.I.T.",
"{.{.}.}.}.{.{.{.`.X > ^ ! Y { s s J [ Y Y Y Y [ Y [ Y Y Y Y Y Y Y Y Y T I | | K , , % $ $ $ $ $ $ $ , , , , , c 5.6.Z.D.G.Y.R.Q.",
"{.{.|.|.{.}.{.{.{.  > ^ U Y { s s J Y Y Y Y Y Y Y Y Y Y Y Y Y Y Y Y Y Y Y I L g , , % $ # # $ # # # , , , , , z V V 6.S.H.T.R.Q.",
"}.}.}.}.}.|.|.}.}.. 1 ^ I Y [ a i Q } Y Y Y Y Y Y Y Y T Y Y Y Y Y Y Y Y Y I P g , , % # $ $ # $ # $ , , , , , z C Z.D.G.J.R.!.}.",
"|.}.|.}.}.}.|.|.}.O > ^ U Y Y D a J Y Y Y Y Y Y Y Y Y Y Y Y Y Y Y Y Y Y Y I I f , , % $ # 6 2 r u u < , , , , z Z A.G.J.Y.W.{.}.",
"{.{.}.}.{.{.}.}.}.. > ) / { Y S E G [ Y Y Y Y Y Y Y T [ Y Y Y Y Y Y Y Y Y I I f , , & $ # 9 6 u u u < , , , , n C A.S.H.T.R.!.!.",
"}.}.}.|.}.`.}.{.}.. > ` / { } S S J } [ } [ } [ } { ! [ [ [ } [ { } } { ! [ ! h $ $ @ X X r 0 u d d < % # & & n Z.A.S.I.T.W.!.}.",
"E.E.E.E.R.E.E.E.R.o 4 ` Q Y Y A e e w w w e e w e w w e w e w e w e e w e e w 5 @ @ X     9 9 d g g = # @ @ @ z $.A.S.H.P.T.R.R.",
"E.E.E.E.R.E.R.E.E.O 1 5.q.7.w.o.X.X.X.X.X.X.X.X.X.X.X.X.X.X.X.X.X.X.X.X.X.X.X.k O @ X     k k v v _ < @ @ @ @ z C A.S.J.I.T.R.R."
};
