/* XPM */
static char *result[] = {
/* columns rows colors chars-per-pixel */
"64 64 189 2 ",
"   c #020003",
".  c #0C0000",
"X  c #09090B",
"o  c #100100",
"O  c #140B09",
"+  c #1D120C",
"@  c #0E0F12",
"#  c #111215",
"$  c #13161A",
"%  c gray10",
"&  c #25140F",
"*  c #2A140F",
"=  c #241916",
"-  c #2A1A11",
";  c #321F14",
":  c #352115",
">  c #35241C",
",  c #3B261D",
"<  c #1A1D24",
"1  c #2D2827",
"2  c #362720",
"3  c #3C3027",
"4  c #343434",
"5  c #42291B",
"6  c #512F26",
"7  c #4F3020",
"8  c #44372F",
"9  c #553524",
"0  c #5B3826",
"q  c #593B28",
"w  c #4F3932",
"e  c #523832",
"r  c #673F2B",
"t  c #693E2C",
"y  c #6C3C33",
"u  c #5D402C",
"i  c #4F4136",
"p  c #4D4239",
"a  c #5B483C",
"s  c #624025",
"d  c #63412A",
"f  c #77452F",
"g  c #644D39",
"h  c #694D3C",
"j  c #754532",
"k  c #7D4C35",
"l  c #734139",
"z  c #7D4D39",
"x  c #6A513E",
"c  c #745237",
"v  c #7B573B",
"b  c #4D4B4C",
"n  c #564C4A",
"m  c #524F50",
"M  c #555252",
"N  c #595455",
"B  c #614E4A",
"V  c #675141",
"C  c #695955",
"Z  c #726352",
"A  c #444B60",
"S  c #505871",
"D  c #676767",
"F  c #6C6C6C",
"G  c #766C66",
"H  c #737373",
"J  c #777778",
"K  c #7B7B7B",
"L  c #814E35",
"P  c #804F38",
"I  c #83523A",
"U  c #865438",
"Y  c #89573B",
"T  c #845A3B",
"R  c #945F3A",
"E  c #8D623D",
"W  c #93623C",
"Q  c #98673E",
"!  c #9D6B3E",
"~  c #9D703F",
"^  c #A36D3F",
"/  c #A86F3E",
"(  c #CE6A39",
")  c #875D43",
"_  c #966341",
"`  c #996543",
"'  c #9D6D44",
"]  c #9E6F4B",
"[  c #86784C",
"{  c #967345",
"}  c #9A7144",
"|  c #95724D",
" . c #9B714C",
".. c #8E6F56",
"X. c #977254",
"o. c #A36D42",
"O. c #A86F40",
"+. c #A26B48",
"@. c #A77448",
"#. c #AA714A",
"$. c #B57B4C",
"%. c #AB7751",
"&. c #B67F56",
"*. c #826364",
"=. c #8D6C65",
"-. c #897A6F",
";. c #947965",
":. c #8B7E74",
">. c #7E8562",
",. c #A29C37",
"<. c #9DA42C",
"1. c #BAB937",
"2. c #C6CE26",
"3. c #D0C73E",
"4. c #D7C93F",
"5. c #CCD335",
"6. c #D1DA36",
"7. c #9E8752",
"8. c #AB924F",
"9. c #BE8054",
"0. c #B6A250",
"q. c #ACB153",
"w. c #909762",
"e. c #9C8777",
"r. c #AA866B",
"t. c #AF896E",
"y. c #BA8A68",
"u. c #A28773",
"i. c #AB8D76",
"p. c #B38E73",
"a. c #B1937C",
"s. c #9DA575",
"d. c #C48758",
"f. c #D28F5E",
"g. c #D5915E",
"h. c #E99658",
"j. c #E3BC5E",
"k. c #C58C63",
"l. c #C4906B",
"z. c #CD956E",
"x. c #D79769",
"c. c #D69D74",
"v. c #D6B062",
"b. c #CDA07E",
"n. c #DBA174",
"m. c #D6A57F",
"M. c #EBA069",
"N. c #E7B168",
"B. c #E7A172",
"V. c #ECA570",
"C. c #EDAA77",
"Z. c #E1A97E",
"A. c #EEAE7E",
"S. c #D2CF53",
"D. c #E1D66C",
"F. c #DCE263",
"G. c #5B6480",
"H. c #626C8A",
"J. c #7F7F80",
"K. c #848484",
"L. c #878788",
"P. c #8B8B8C",
"I. c #958E89",
"U. c #9E9387",
"Y. c #949494",
"T. c #9B9B9B",
"R. c #AC9381",
"E. c #AE9A8B",
"W. c #AE9D90",
"Q. c #99A9B3",
"!. c #A3A3A4",
"~. c #AEAEAE",
"^. c #AFAFB1",
"/. c #B3B3B5",
"(. c #B7B7B8",
"). c #BCBCBD",
"_. c #CFA98D",
"`. c #DEAA81",
"'. c #EEAF80",
"]. c #EFB385",
"[. c #F1BF9A",
"{. c #D2B7A4",
"}. c #F4CDB1",
"|. c #F5D2B8",
" X c #8BADC4",
".X c #BFBFC0",
"XX c #C3C3C4",
"oX c #C7C7C8",
"OX c #CACACC",
/* pixels */
"XXXXXXXXXXXXXXoXXXX X                                             O + & : : 0 d 0 : : : : : : : : : : O . N : : : : : : : G !.!.",
"XX.XoXXXXXoXXXoXXX. O 2 2 2 2 2 , , , 2 2 , , 2 2 2 2 2 2 , 2 , 2 - + & : : 0 d 0 : : : : : : : : : : > X N : : : : : : : G !.!.",
"OXoXXX.XOXOXXXXXXX. , ..X. .+. .@.X.+. .]  .+. . .+.+.+. .] v u q > - ; 9 5 9 5 7 7 7 5 : : 7 7 , : : q - w 7 7 , : : : > a Z C ",
"oXoX.XXXOXOXoXXXoX. 5 X.@./ / O.O.O.o./ o.O.O.O.O./ O.O./ / s + + ; : 5 t f 5 : 5 t t 7 : : t t 7 : : : : 5 t r 5 : : : : : : > ",
"XXXXXXoXXXXX.XXXXX. 2 | ' o.^ ' ' ' o.' o.' o.+.@.' ' o.+.' u + & - ; 5 t t 5 : 5 t t 7 : : r t 7 : : : : 5 r r 5 : : : : : : : ",
"XX.XoXXXXXXXXXXXXX. , | ] o.! U f j j j j j j j j j j j + + - : ; 0 t 0 : : 0 t 0 ; : 7 r t : : E M.M.M.M.9.: : 0 d 0 : : : : : ",
"~.~.~.~.~.~./.~.~.. , | ' ! ! L l l z z k z k z z z z k + + - : : 0 d r : : 0 d r ; : 7 t d : : W M.M.M.M.d.; : 0 d 0 : : ; : : ",
"~.~./.~.~.~.~.~.~.  ,  .' ^ ! I z _ ' o.o.o.o.^ o.o.o.o.+ + - : : 0 t 0 : : 0 t d d d s t t u r @.V.V.V.V.k.r s t t d d u 7 : : ",
".XXX.X.X.X.X).).{.X , } o.^ ! L k W ^ ^ / ^ ^ ^ ^ ^ ^ ^ + + - : : 0 t 0 : : r r U M.M.#.r r M.M.C.].].].].A.M.M.Y f Y M.M.) : : ",
"XXXX.X.X.X.X.X)..X  ,  .' o.^ U z R o.^ ^ ^ ^ ^ ^ ^ ^ ^ + + - : : 0 t 0 : : 0 r U M.M.#.f t M.M.C.].].].].'.M.M.U r Y M.M.W : : ",
"XXoXoXOX.X.X).).OX. 2 { ' ^ ^ P z W ^ ^ / ^ ^ ^ ^ ^ ^ ^ + + - : : 0 t k &.9.L t Y M.M.x.z.z.A.A.].].].].].'.'.'.x.d.f.M.M.O.0 0 ",
"oXXXOXoX.X.X).).OX. , { ! o.^ I z R ^ ^ ^ ^ ^ ^ ^ ^ ^ ! + + - : : 0 d Y M.M.Y t Y M.M.C.].].].].].].].].].].].].M.M.M.M.M.#.t d ",
".X.XXX.XXX.X.X.XXX  , { ~ ^ ! I z W ^ ^ ^ ^ ^ ^ ^ ^ ^ ^ + + - : : 0 t Y M.M.O.Y +.V.V.A.].].].].].].].].].].].].V.V.V.M.M.%.h V ",
".X.X.XXX.XXX.X.X.X. , } ~ ^ ^ I z W o.^ ^ ^ ^ o.^ o.^ ! + + - : : 0 t Y M.M.M.M.V.].].].].].].].].].].].].].].].].].'.M.M.t.F H ",
"~./.~.~.~.~.^.^.~.o , } ^ ^ ^ L k Q o.o.^ ^ ^ ^ ^ ^ ^ ^ + + - : : 0 d Y M.M.M.M.V.].].].].].].].].].].].].].].].].].'.M.V.;.D F ",
"~.~.~.~.~.~.^.^.^.o 5 { ! o.o.L L W ^ ^ ^ ^ ^ ^ ^ ^ ^ ! + + + & & 9 d Y M.M.M.M.M.V.V.V.V.V.V.V.V.V.V.V.V.V.V.V.V.V.V.M.V.&.F H ",
"OXOX.X.XXX.XXX.XXX. , { ~ o.o.z z W ^ ^ ^ ^ ^ ^ ^ ^ ^ ! + + + + + 9 r Y M.M.M.M.M.M.M.M.M.M.M.M.M.M.M.M.M.M.M.M.M.M.M.M.M.t.D G ",
"OXOX.XXXXXXX.XXXXX. , { ~ ^ O.I z R ^ ^ ^ ^ ^ ^ ^ ^ ^ ^ + + + + + 9 r Y M.M.M.M.M.M.M.M.M.M.M.M.M.M.M.M.M.M.M.M.M.M.M.M.M.t.F H ",
"OXOXOXOXoXXXoXXXXX. , { ~ ^ o.z z R ^ o.^ ^ ^ ^ ^ ^ ^ ^ + + + + + M D D D D D D D D D D D D D D D D D D D D D D D D D D D D D D ",
"OXOXOXOXXXoXXXoXXX. , { ~ o.O.z z W ! ^ ^ ^ ^ ^ ^ ^ ^ ! + + + + + M D D D D D D D D D D D D D D D D D D D D D D D D D D D D D D ",
"XXXXOXOXXXXXXX.XXX. , ' ^ o.o.L k _ o.^ ^ ^ ^ ^ ^ ^ ^ ^ T T 9 + + ..i.e.D D I.W.E.R.R.R.a.R.R.R.:.D D ;.a.u.D D e.R.R.R.R.:.D D ",
".XoXOXOXXX.X.XXXXXo 5 { ^ o.o.L k W o.^ ^ ^ ^ ^ ^ ^ ^ ^ M.M.T + + y.].b.D D {.|.}.[.[.[.[.[.[.[.R.D D b.'._.D D _.[.[.[.[.R.D D ",
"~.~./.~.~.~.~.~.~.o , { ~ ^ o.P k W ^ ^ ^ ^ ^ ^ ^ ^ ^ ! M.M.T + + y.].b.D D {.|.}.[.[.[.[.[.[.[.R.D D b.'.b.D D _.[.[.[.[.R.D D ",
"~.~.~.~.~./.~.~.~.. , { ~ o.O.P z R ^ ^ ^ ^ / ^ ^ ^ ^ ' M.M.T + + y.].b.D D {.|.}.[.[.[.[.[.    4 D D b.'._.D D %   3 [.[.R.D D ",
"XX.XoXXXXXXX.X.X.X. , { ~ ^ o.P z R ^ ^ ^ ^ ^ ^ ^ ^ ^ ^ M.M.U + + y.].b.D D {.|.}.[.[.[.[.[.    4 D D b.].b.D D %   3 [.[.R.D D ",
".X.XXXoX.XXX.X.X.X. , { ~ o.@.L z W ! ^ ^ ^ ^ ^ ^ ^ ^ ^ M.M.` 5 5 k.].`.i.i.E.W.E.a.R.R.R.R.4 4 Z i.u.`.].'.i.i.b 4 b a.R.:.F F ",
"XXoXoXXXoXXXoXOXXX. , { ^ ^ o.z k ` ^ ^ ^ ^ ^ ^ ^ ^ ^ ^ M.M.O.f d z.].].].].-.D D D D D D D D D i.].].].].].].].-.D D D D F H J ",
"oXXXoXoXXXoXOXOXXXo , } ^ o.o.L k W ' ^ ^ ^ ^ ^ ^ ^ ^ ^ M.M.#.d t z.].].].].-.D D D D D D D D D i.].].].].].].].-.D D D D F H K ",
".XXXXXoX.X.XXX.XXXo , { ~ ^ O.z k R ^ ^ ^ ^ ^ ^ ^ o.^ ~ $.@.T d d z.].].].].m.b._.b.b.b.b.b.b._.`.].].].].].].].m.b.b.b._.u.H J ",
"XX.XoXoX.X.XXXXXXX. , { ~ o.O.P z W o.^ ^ ^ ^ ^ ^ ^ ^ ^ Q Q k d f z.].].].].].].].].'.].].].'.].].].].].].].].].].].].].A.a.J K ",
"~.~.~.~.~.~.~.^.^.. , { ~ o.o.k j ` o.^ ! ^ ^ ^ ^ ^ ^ ^ ! Q Y Y U y.z.c.].].'.A.'.].].].].].B.B.B.B.B.B.B.B.B.B.A.].'.A.A.i.H J ",
"~.~./.~.~.~.~.~.^.. , { ~ ^ O.z j +.'  .|  .^ ^ ^ ^ ^ ^ ! Q 9.M.M.Y t ) ].].V.M.M.].].].].].( ( ( ( ( ( ( ( ( ( B.].A.M.M.r.H K ",
"XXXXoXXX.XXXoXXXXX. , { ^ o.o.L j _ u.Q.Q.U.^ ^ / ^ ^ ^ ! ! 9.M.M.Y r ) ].].M.M.V.].].].].].( ( ( ( ( ( ( ( ( ( B.].A.M.M.t.H K ",
"XXXXXXXX.XXXoXoX.X. 5 } ^ ^ o.L j ] I. XQ.I.^ ^ ^ ^ ^ ^ ! ! d.M.M.x.z.c.].].V.M.V.].].].].].B.B.B.B.B.B.B.V.B.B.'.].A.M.M.t.F K ",
"oXoXXXXXOXOXoXXXXX. , { ~ ^ o.L L R e.Q.Q.Y.^ ^ ^ ^ ^ ^ ^ ! d.M.M.'.].].].].V.M.V.].].].].].].].].].].].].].].].].].A.M.M.p.H K ",
"oXoXXXoXOXOXXXXXXXo 5 { ~ ^ +.z k ` X.;.;.X.^ ^ ^ ^ ^ ^ ^ ^ 9.g.f.B.A.].].].C.V.C.].].].].].].].].].].].].].].].].].'.V.M.p.H K ",
"XXXXXXXXXXXXXX).XX. , { ~ ^ O.P k R ^ ^ / / ^ ^ ^ ^ ^ ^ o.^ ! Q E f.M.V.].].].].].].].].].].].].].].].].].].].].].].].].].a.H K ",
"XXXXXXXXXXXXXXXXXX. , { ~ ^ O.P P R ^ ^ / ^ ^ ^ ^ ^ ^ ^ ^ ^ ! Q E x.M.V.].].].].].].].].].].].'.].].].].].].].].].].].].].a.H K ",
"^.~./.~.~.~.~.~.~.. , { ! o.o.P z R ^ ^ ^ ^ ^ ^ ^ ^ ^ ^ ^ ^ ! ! Q @.&.9.C.C.C.C.C.C.C.C.C.C.A.A.C.C.C.C.C.C.C.C.C.C.n.i.i.:.H K ",
"^.~./.~.~.~.~./.~.. , { ^ o.o.L j ` ^ ^ ^ ^ ^ ^ ^ ^ / ^ ^ ^ ^ ! Q W T ] M.M.M.M.M.M.M.M.M.M.M.M.M.M.M.M.M.M.M.M.M.M.z.D D H J K.",
".XXX.X.X.X.X).)..Xo , ' ~ o.o.L L W ^ ^ ^ ^ ^ ^ ^ ^ ^ ^ ^ ^ ^ ! ! Q E ' M.M.M.M.M.M.M.M.M.M.M.M.M.M.M.M.M.M.M.M.M.M.z.H J K L.Y.",
"XX.X.XXX.X.X).)..X. 5 { ~ ^ o.I P R ^ ^ ^ ^ ^ ^ ^ ^ ^ ^ ^ ^ ^ ^ ! Q Q E T v 1.6.4.h.h.h.h.h.h.h.} g g B & b H H H H H H K K.P.T.",
"XXXXOXOX.X.X).).oX. , { ~ ^ o.P z R o.^ ^ ^ ^ ^ ^ ^ ^ ^ ^ ^ ^ ^ ^ ! Q E E T 1.6.4.h.h.h.h.h.h.h.@.g a a & b J K K K K L.L.Y.T.~.",
"XXoXOXoX.X.X).).oX. , { ~ o.O.z z R ^ ^ o.^ ^ ^ ^ / ^ ^ / o.^ ^ ^ ^ ~ } 0.0.S.S.S.j.j.0.X.X.j.j.q.8.8.Z & m K.L.L.L.P.P.Y.T.!./.",
".X.XXXXXXXXX)..XXX. , { ! o.O.P z R ^ ^ ^ ^ ^ ^ ^ ^ ^ o.^ ^ ^ o.^ ^ ^ 8.F.F.F.F.F.F.F.w.A A F.F.F.F.F.[ & M P.P.Y.Y.Y.Y.T.!.!.~.",
".X.XXXXXXX.X.X.XXX. , { ~ +.O.k k _ o.^ ^ ^ ^ ^ ^ ^ ^ ^ ^ ^ ^ ^ ^ ^ ^ 7.F.F.F.F.F.F.F.w.A A F.F.F.F.F.[ & N Y.T.!.!.T.!.!.~.~./.",
"~.~.~.~.~./.~.~.~.o 5 } ~ o.o.L k W o.^ ^ ^ ^ ^ ^ ^ / ^ ^ ^ ^ ^ ^ S.D.F.F.F.2.2.6.F.F.s.H.H.F.F.F.F.F.[ & N Y.Y.T.T.!.!.T.!.!.~.",
"~.~.~.~.~.~.~.~.~.o , { ~ ^ O.L z R ^ ^ ^ ^ ^ ^ ^ ^ ^ ^ ^ ^ ^ / ^ S.F.F.F.F.5.2.5.D.F.s.H.H.F.F.F.F.F.[ & N Y.T.!.!.!.!.~.~.~.~.",
"OXOXoXXXXX.XXXXX.Xo , { ~ o.o.z z R ^ ^ ^ ^ ^ o.^ ^ ^ ^ ^ ^ ^ ^ o.v.D.D.D.D.2.2.5.F.F.s.G.G.F.F.F.F.F.7.6 Z !./.)..X.X.X.X.X!.!.",
"OXOX.XXX.XXX.XXXXX. , { ~ ^ @.L z R ! ^ ^ ^ ^ ^ ^ ^ ^ ^ ^ ^ ^ ^ ^ n.].].'.'.3.2.5.F.F.w.A A F.F.F.F.F.N.M.l.!./.(..X.XXX.X.X~.!.",
"OXOXOXoXoXXXXXoXXX. , { ~ ^ o.L z R ^ ^ ^ ^ ^ ^ ^ ^ ^ ^ ^ ^ ^ ^ ^ n.].].].].3.2.5.F.F.w.A A F.F.F.F.F.N.M.k.T.!..XXXXXXXOXOX!.~.",
"oXoXOXOXoXXXoXXXoX. , { ^ o.o.z z W ^ ^ ^ ^ ^ ^ ^ / ^ ^ ^ ^ ^ ^ ^ n.].].].].3.2.5.F.F.s.G.G.F.F.F.F.F.N.M.l.Y.!./.XX.XXXoXOX!.~.",
"XX.XOXOXoXoX.XXXXX. 5 } ~ ^ O.L k ` o.^ ^ ^ ^ ^ ^ ^ ^ ^ ^ ^ / o.^ n.].].].].S.2.5.F.F.s.H.H.F.F.F.F.F.N.M.k.P.T.!.!..X{..XXX!.~.",
".X.XOXOXXXXXXXXXXXo , { ~ o.o.L k R ! ^ ^ ^ ^ ^ ^ ^ / ^ ^ ^ ^ ^ ! n.].Z.y.p.,.<.<.q.q.>.S S q.q.q.q.q.n.M.k.K.Y.T.Q..X)..XXX~.!.",
"~.~.~.~.~.~.~.~.~.. , { } o.O.P L W ^ ^ / ^ ^ ^ ^ ^ ^ ^ ^ ^ ^ ^ } n.].y.$ # < < < < < < < < < < < < < 9.M.y.K K.P.T.!.!.~.^.~.^.",
"~.~.~./.~.~./.~.~.. , { ! o.O.P z R ^ ^ ^ ^ ^ ^ ^ ^ o.^ ^ ^ ^ ^ ^ n.].y.# # < < < < < < < < < < < < < 9.M.d.J >.P.Y.!.!.~.^.^.^.",
".X.XXXoXXX.X.X.X.X. , { ~ o.o.z z R o.^ ^ ^ ^ ^ ^ ^ ^ ^ ^ ^ ^ ^ ^ @.%.) < < < < < $ $ $ $ $ $ $ < < < V 9 C K L.T.~./..X.X.X.X.X",
".X.XoXXX.XXX.X.X.X. , { ~ ^ @.L z R ' ^ ^ ^ ^ ^ ^ ^ ^ ^ ^ ^ ^ ^ ^ ! Q c < < < < < @ # # $ # # $ < < < p * b J.L.T.!./..X.X.X.X.X",
"XXoXXXoXoXXXOXoXXX. , } ! ^ ^ L k _ o.o.^ ^ ^ ^ ^ ^ ^ ^ ^ ^ ^ ^ ^ ! Q c < < < < < $ @ $ # # # # $ < < p & b J.P.!./..XoXoX.XOXOX",
"oXXXoXoXXXoXOXOXoXo , { ~ ^ ^ L L W ^ ^ ^ ^ ^ ^ ^ / ^ ^ ^ ^ ^ ^ ^ ! Q c < < < < 1 g g g n 8 # $ < < < w & m K.P.~./..XOX.XoXOXOX",
"XX.XoXXX.X.XXX.XXX. , ] } o.^ P P _ o.^ ^ o.^ ^ ^ o.o.^ ^ ^ ^ ^ ^ ^ ! c < < < < 1 h g g g w # # $ < < w * m P.T.!.~./.)..X.X.X.X",
".XXXXXoXXX{.XXXXXX. , X.} O.O.P z R ` +.o.o.o.+.O.o.o.o.+.o.o.+.o.o.' c $ $ $ $ 1 V h h x a X X @ $ $ p * m Y.!.~./.(..X.X.XoX.X",
"^.^.^.^.~.~.~.~.~.o 5 ..` ^ o.P y y y t t y t y t y y t y t y t y t t 9 + @ @ @ = e e e e e     X # # i * m P.Y.T.!.!.^.^.^.^.^.",
"^.^.^.^./.~.~.~.~.O 2 u.u.u.t.=.*.*.*.*.*.*.*.*.*.*.*.*.*.*.*.*.*.*.*.B @ @ @ @ = B n n C C     X # @ i = N P.Y.!.^.^.^.^.^.^.^."
};
