/* XPM */
static char *result[] = {
/* columns rows colors chars-per-pixel */
"64 64 225 2 ",
"   c #020103",
".  c #0C0000",
"X  c #030509",
"o  c #0D0B0B",
"O  c #110201",
"+  c #120D0C",
"@  c #16110E",
"#  c #060A13",
"$  c #0A0C14",
"%  c #131313",
"&  c #1D1612",
"*  c #1B1815",
"=  c #13151C",
"-  c #16191D",
";  c #1C1B1C",
":  c #231A14",
">  c #291E16",
",  c #261E19",
"<  c #291E19",
"1  c #21201F",
"2  c #2C211A",
"3  c #35271D",
"4  c #3C261D",
"5  c #041325",
"6  c #161923",
"7  c #1A1D24",
"8  c #101E31",
"9  c #16212F",
"0  c #1D212B",
"q  c #172232",
"w  c #272628",
"e  c #22262D",
"r  c #362B26",
"t  c #3D2C22",
"y  c #383629",
"u  c #252932",
"i  c #252A34",
"p  c #252B3C",
"a  c #292F3A",
"s  c #2B303B",
"d  c #353338",
"f  c #412E25",
"g  c #483427",
"h  c #493A34",
"j  c #553A30",
"k  c #6B3B2E",
"l  c #6C3C33",
"z  c #414626",
"x  c #464B2A",
"c  c #46413E",
"v  c #5B4333",
"b  c #6E462C",
"n  c #624837",
"m  c #644C39",
"M  c #6A4E3B",
"N  c #754532",
"B  c #7D4B35",
"V  c #734139",
"C  c #7D4D39",
"Z  c #6C513C",
"A  c #795539",
"S  c #1F3049",
"D  c #282E41",
"F  c #2D3243",
"G  c #28354A",
"H  c #323845",
"J  c #373D4D",
"K  c #383E4E",
"L  c #373F50",
"P  c #393F50",
"I  c #3C424C",
"U  c #3C4152",
"Y  c #53504F",
"T  c #424855",
"R  c #454B59",
"E  c #604E4F",
"W  c #695344",
"Q  c #745742",
"!  c #7C5D45",
"~  c #675856",
"^  c #706C58",
"/  c #6B7058",
"(  c #4F5461",
")  c #595E6B",
"_  c #5E626D",
"`  c #656263",
"'  c #6B6B6B",
"]  c #77736B",
"[  c #6B6D71",
"{  c #737374",
"}  c #777779",
"|  c #7B7B7C",
" . c #BF4815",
".. c #814E35",
"X. c #804F38",
"o. c #83563A",
"O. c #945F3A",
"+. c #8C613D",
"@. c #94623C",
"#. c #99633B",
"$. c #9D6A3E",
"%. c #9D703F",
"&. c #A36D3F",
"*. c #A86F3E",
"=. c #C65927",
"-. c #C85C2A",
";. c #CD6938",
":. c #D1703F",
">. c #85644D",
",. c #966341",
"<. c #996543",
"1. c #9D6D44",
"2. c #926849",
"3. c #9E6F4B",
"4. c #967345",
"5. c #9A7144",
"6. c #95724D",
"7. c #9B714C",
"8. c #936E53",
"9. c #987253",
"0. c #A36D42",
"q. c #A86F40",
"w. c #A77248",
"e. c #AB7952",
"r. c #B57C52",
"t. c #B87E53",
"y. c #826364",
"u. c #8D6C65",
"i. c #977B66",
"p. c #C57F4C",
"a. c #7E887C",
"s. c #E6863F",
"d. c #BC855B",
"f. c #98897A",
"g. c #B28A6C",
"h. c #CD844E",
"j. c #C58555",
"k. c #C28A5D",
"l. c #D78856",
"z. c #DD895A",
"x. c #DA915A",
"c. c #E98D48",
"v. c #EA904D",
"b. c #E89353",
"n. c #E8975B",
"m. c #F79A57",
"M. c #FFA45A",
"N. c #DB9664",
"B. c #DF9864",
"V. c #E69B66",
"C. c #EA9D64",
"Z. c #F49E60",
"A. c #DCA57A",
"S. c #EAA166",
"D. c #ECA26B",
"F. c #F9A565",
"G. c #F2A56B",
"H. c #FFBA6B",
"J. c #ECA572",
"K. c #EDA976",
"L. c #E5A678",
"P. c #EDAB7A",
"I. c #FDAF72",
"U. c #FEB878",
"Y. c #7D8892",
"T. c #848484",
"R. c #878788",
"E. c #8B8B8C",
"W. c #908E8A",
"Q. c #919586",
"!. c #9E9387",
"~. c #939393",
"^. c #96989A",
"/. c #9C9C9C",
"(. c #A29E93",
"). c #99A9B3",
"_. c #A3A3A4",
"`. c #A5A7A9",
"'. c #AEAEAE",
"]. c #BFB5AC",
"[. c #AEAFB0",
"{. c #B4B4B5",
"}. c #B7B8B8",
"|. c #BBBBBC",
" X c #D4AF91",
".X c #EDAF81",
"XX c #EFB385",
"oX c #EFB589",
"OX c #F0B486",
"+X c #FFBE83",
"@X c #F0B78A",
"#X c #F1B88D",
"$X c #FBBC8C",
"%X c #EEBA92",
"&X c #F2BD93",
"*X c #CDB8A9",
"=X c #FFC08E",
"-X c #FFD289",
";X c #F5C296",
":X c #FEC592",
">X c #FFCA95",
",X c #FECD99",
"<X c #FFD49D",
"1X c #EFD2AC",
"2X c #8BADC4",
"3X c #BFBFC0",
"4X c #BEC6C8",
"5X c #BDC6CB",
"6X c #BBC9D1",
"7X c #C3C3C4",
"8X c #CAC9C7",
"9X c #C3CACC",
"0X c #CACBCC",
"qX c #C6CFD3",
"wX c #C9D4D7",
"eX c #D0D5D7",
"rX c #D5DADC",
"tX c #D1DCE1",
"yX c #DDE0E1",
"uX c #C0E0F4",
"iX c #E4E8EA",
"pX c #E9ECED",
"aX c #E1FEFF",
"sX c #F5F8FC",
"dX c #FBFCFD",
/* pixels */
"7X7X7X7X3X7X7X7X7Xo                   .               X d.S.B.B.B.B.B.B.B.B.B.B.V.N.V.B.B.B.V.B.B.V.B.B.V.V.L.J.*X7X7X7X|.|.`.`.",
"7X3X7X7X7X7X8X7X7X. + r t t 3 t 3 4 t 3 3 3 3 r 4 4 t 3 l.C.C.C.C.C.C.C.C.C.C.C.C.V.V.n.C.C.C.V.C.V.C.V.C.D.C.C.*X3X3X7X}.|.`.'.",
"8X0X7X7X0X0X8X7X7X. f 8.8.3.3.3.w.9.w.3.3.9.w.w.9.r.j.t.L.K.K.K.K.K.K.K.P.P.P.P..XP.P.P.K.P.P..XP.C.C.J.J.C.J.C. X X*X7X7X7X`.'.",
"7X7X7X7XeX0X7X7X7X. 4 9.0.*.*.*.q.0.0.q.q.q.0.*.q.j.C.C.XX#X@X@XoX@X@X@X&X&X%X&X%X&X&X&X%X&X&X&XXXC.C.C.C.C.G.G.Z.C.K.}.3X*X_.`.",
"7X7X7X7X7X7X3X7X7X. 4 8.3.0.&.1.0.1.0.5.0.5.0.1.0.t.C.C.XXoXXXXXXXXXXXOX%X#X%X#X@X&XoX@X#X#X@X&X.XC.C.C.J.C.G.C.G.G.L.`.`.'._.`.",
"7X7X8X7X7X7X7X7X7X. 4 8.3.0.&.o.N N N N N N N N V r..X.XXXXXXXXXXXXXXXXXoXXXXXXXXXXXoXoXoXXXoXOXOX#XXXJ.I.t.< t g v g , , { /._.",
"[.'.[.'.'.'.[.'.'.. 3 6.5.$.$.B V V C C C C B C X.d.#XoXXXXXXXXXXXXXXXXXXXXXXXXXXXXXXXXXXXXXXX.XOX&X%XJ.I.r.  o > 3 2 : & E /._.",
"[.[.'.'.{.'.'.'.'.. 4 7.0.&.&...C ,.1.0.0.0.&.B B 2.,XXXXXXXXXXXXXXXXXXXXXXXXXXXXXXXXXXXXXXXXXXXoX#X%XJ.I.t.+ * 3 f 4 2 > Y } { ",
"3X7X3X3X3X4X|.|.4X. 4 3.0.&.$...B @.0.&.&.&.*.>   Q ,XOXXXXXXXXXXXXXXXXXXXXXOXOXOX@XOXOXOXOXOXXXXXXXOXD.I.r.+ : 3 t t f f 2 : < ",
"7X3X3X3X3X5X*X|.|.. 4 4.$.&.&.o.X.O.&.&.&.&.&.>   >.<X$X$X=X$XXXOXXXXXXXXXXX$X$X$X$X$X$X:X$XOXXXXXXXXXJ.I.d.+ & r f t t f < : < ",
"7X8X0X9X3X3X|.|.0X. 4 4.1.&.&.X.C @.&.&.&.&.&.> @ f A M Z v 8.$XXXXXXXXXXX:X9.j M M M M n M L.$XXXXXXXD.I.r.+ & : > < t f 2 : < ",
"7X7X8X9X3X3X|.|.0X. 4 4.$.0.&.o.C O.&.&.&.&.&.> : & o o +   v >XXXXXXXOXOX,XZ   + + + + X + A.:XOXXXOXD.I.r.+ : : & : f g 2 & , ",
"7X3X7X7X7X3X3X3X4X. 4 4.%.&.&.X.C @.$.&.&.&.&.: & 4 Z n v j 6.=XXXXXXXXXXX$X9.g n n n n v n L.$XXXXXOXJ.I.t.+ : : & : 4 t > : , ",
"3X3X7X3X3X7X3X3X3X. 4 5.%.&.0.X.B @.0.&.&.&.$.2   >.<X$X$X=X@XXXOXXXXXOXOXoX$X$X$X$X$X$X$X$XOX.XXXXXOXD.I.t.+ : : : > : : : : , ",
"[.[.'.'.{.'.'.'.'.. 4 5.&.0.&...B $.&.&.&.&.&.2   ! ,X@X<X<X>XP.XXXXXXXXOX.X&X<X>XOXOXOXOXOXXXXXXXXXOXJ.I.e.. X & > & X   @ > > ",
"'.[.[.'.'.'.'.'.'.O 4 4.&.0.0...B @.&.&.&.&.&.2   ! ,XOXZ 3 >.=XXXXXXXXXoX:X8.4 M .X@XOXOXOXOXXXXXXXoXD.G.x.#.q.g X 3 w.t.j o , ",
"0XeX3X3X3X3X7X3X4X. 4 4.$.&.w...X.O.&.&.&.&.&.>   ! <XOX:   j >XXXXXOXXXOX,Xv   + XX$XXXXXXXXXXXXXXXoXD.V.G.M.H.b   f H.-X>.  > ",
"0X0X3X3X7X7X3X7X7X. 4 4.%.&.0.X.C O.&.&.&.&.&.3 o Z <X@X3   v >XXXXXXXXXXX>XZ   < .X$XXXXXXXXXXXXXXXXXJ.D.S.n.M.b   f D.U.A X : ",
"0X0X8X8X0X7X8X7X9X. 4 4.%.0.0.X.C O.&.&.&.&.&.#.#.7.:XXXOXP.XXXXXXXXXXXXXXXXOX.XOXOXXXXXOXXXXXXXXXXXXXXX@XP.b.F.v   4 D.U.A   2 ",
"0X0X0X8X7X7X8X7X7X. 4 5.%.&.0.X.C @.1.&.&.&.&.$.#.g.XXXX$X=X#XXXXXXXXXXXXXXX@X$X$XOXXX&X&X&XOXXXXXXXXXOXoXK.v.M.g   2 S.U.A   2 ",
"3X3XeX0X7X7X3X7X3X. 4 5.&.0.q...B <.0.&.&.&.&.$.$.d.oXXXOXXXOXOXOXXXOXXXXXXXXXXX.XOX@XD.l.z.XXOXOXXXXXXXoXXXJ.I.w.A #.D.U.A X 2 ",
"3X3X0X0X7X7X7X3X7XO 4 5.&.0.0...B @.$.&.&.&.&.$.<.d.oXXXXX.XOX@X@X@X@X@X@XoX@X@X@X@X;Xz. .=.P.#XXXXXXXXXXXXX#X%XI.M.F.G.+Xo.  1 ",
"'.'.[.[.'.'.[.[.'.O 4 4.%.0.w...B @.&.&.&.&.&.&.$.d.XXXXXXXXOXOXXXXXP.XXXX.X.XXX.X.X&Xz.-.:..X@XXXXXXXXXXXXXXX@XS.v.n.V.H.A   2 ",
"'.'.[.[.[.'.[.[.'.. 4 4.%.&.0.X.C O.&.&.&.0.&.&.0.d.OXXXOX#XV.;.:.:.:.:.:.:.:.:.:.:.;.V.@XP.XXXXXXXXOXXXXXXXXXoXV.M.h.2 2 2 & 2 ",
"3X3X8X8X3X7X3X3X3X. t 6.%.&.0.X.C O.$.&.&.&.&.q.&.d.@XXXXX;XV. .=.=.=.=.=.=.=.=.=.=. .z.>X@XXXXXXXXXXXXXXXXXXX#XS.M.h.+ o & : , ",
"3X3X7X7X7X7X3X3X3X. 3 4.%.0.0.X.C @.&.&.&.&.&.&.&.k.XXXXXX#XL.l.z.z.z.z.l.z.z.z.l.l.l.V.@XXXXXOXXXXXXXXXXXXXXXoXC.m.h.* & r h c ",
"8X7X8X7X7X7X8X0X7X. 4 1.$.0.0...B ,.0.&.&.&.&.&.&.k.XXOXXXXX@X;X#X;X;X;X;X;X#X;X;X;X;X#XXXoXXXXX@XXXOXXXXXXXXX@XS.m.h.: & T { } ",
"7X7X8X8X8X7X0X0X7X. 4 1.0.0.q...B @.1.&.&.&.&.&.&.k.XXXXoXXXXXXXOXXXP.XXP.OXOXP.XXXXXXXXOXoXXXXXXXXXXXXXXXXXXX@XS.M.p.+ & Y } | ",
"7X7X8X8X3X3X7X3X7XO 4 4.%.0.0.X.B @.&.&.&.&.&.&.&.k.XXoXS.n.D.#XXXXXXXXXOXXXXXXXOXXX#XK.n.C.XXOXXXXXXXOXOXXXXX@XS.m.x.` ~ ' { | ",
"7X3X7X7X3X3X3X7X7X. 4 4.%.&.0.X.C @.&.&.0.&.&.&.&.k.XXoXb.s.n.&X#X@XoXoX@X@X#X@XoXoX;XD.s.b.P.@XXXXXXXXXXXXXXX@XS.x.n.' [ { ] Y.",
"[.[.[.[.[.'.[.'.'.. 4 4.%.&.0...N <.0.&.$.0.0.&.&.k.XXXXD.n.D.P.P.K.P.P.P.K.P.K.K.P.P.J.n.S.XXXXXXXXXXXXXXXXXX@XS.v.x.' ' { } f.",
"[.[.[.'.[.[.'.'.'.. 4 4.%.0.0.X.N 0.3.7.6.5.&.&.&.k.XXXX@X&XP.v.b.b.b.b.b.b.b.b.b.b.v.D.&X@XXXXXOXXXXXXXXXXXXXoXC.b.x.' ' { } Y.",
"3X7X7X7X3X7X9X7X7X. 4 5.&.0.q...B ,.f.)._.!.$.&.%.k.OXP.oX#XK.v.b.b.b.b.b.v.b.b.b.b.v.D.oXoXXXXXXXOXXXXXXXXXoX#XC.b.x.} | T.| E.",
"7X7X7X9X7X7X7X7X7X. 4 5.&.0.0...N <.!.2X).~.$.&.&.d.oXoXoXoXP.K.P.K.P.P.P.P.P.P.P.K.K..XoXXXXXXXXXXXXXXXOX.XK.K.C.b.x.| | R.R.~.",
"9X0X*X4X0X0X7X8X7X. 4 5.$.0.0.X...O.f.).2X~.&.*.&.k.oXoXoXXX#X%X#XoX#X%XoXoXoXoX@X@X@X@XOXXXoXXXXXOXXXXXoX.XJ.J.C.b.x.| R.~.E.^.",
"7X8X7X7XeX0X8X7X7X. 4 4.%.&.0.....,.7.i.i.9.*.&.*.d.oXA.P.P.P.XXXXXXXXP.XXXXXXXX.XOX.X.XXX.XXX.XXXXXXXXXoX.XS.D.N.x.k.T.R.~.W.^.",
"7X7X7X7X7X3X7X3X7X. 4 4.%.&.0.X.B O.&.&.*.&.&.&.&.$.$.+.N.J.J.D.J.D.J.J.D.D.J.J.D.J.J.J.D.J.J.D.K.oXOXOX#XP.b.b.i.{ } | T.~.E./.",
"7X7X7X7X7X7X3X7X7X. 4 4.%.0.0.X.X.O.&.&.*.&.&.&.&.%.$.@.N.S.J.J.D.C.F.D.P.K.J.K.K.J.K.J.K.K.S.n.I.,X:X:X,X+Xb.b.i.} } Y.R.~.~./.",
"[.[.{.[.'.{.'.[.'.. 4 4.$.0.0...C O.&.&.0.&.&.&.&.$.$.@.e.d.e.d.7. X*X%Xn.C.V.C.C.C.C.C.C.C.*X1X(.E ^ >.~ >.i.g.] ' [ | T.~.^._.",
"[.[.[.[.'.[.'.'.'.. 4 5.&.0.q...B ,.&.&.0.q.&.&.&.$.%.@.+.! A A Z }.uX8Xc.c.v.m.m.c.c.c.c.v.qXaXE.X 5 5 5 q ' ' ' { } i.R.~./._.",
"7X7X3X3X3X3X3X|.5X. t 4.1.0.0...B O.0.&.&.&.&.&.&.&.&.#.@.+.o.Z A /.6X].n.C.n.x.x.n.V.n.n.n.}.wXT.6 a i a d { [ | T.E.^._.[.}.3X",
"7X3X3X3X3X3X|.|.*X. 3 1.%.&.w.X.C O.&.&.&.&.&.&.&.&.$.$.@.5.Q J F i 0 R qXtXf.x / 4XqX5X0X4XI 0 F K J J J K P J [ R.~./.`.{.3X3X",
"7X8X0X8X3X3X|.|.8X. 3 4.%.&.0.X.C O.0.&.&.&.&.&.&.&.&.0.$.@.Q K I i # I 6XtXa.z / 4X6X5XwX6Xs # p P J P P P J J [ E./.[.3X3X7X0X",
"7X7X0X0X3X3X3X|.0X. 4 4.%.0.0.X.C O.&.&.&.&.&.&.&.&.&.&.&.$.! K K s 9 ( yXyXQ.x / wXyXqXqX4XU i H P J H F H J J ( [ } [.3X7X0X0X",
"3X3X7X7X3X3X3X3X7X. 4 4.%.0.q.X.C @.&.&.&.*.0.&.&.&.&.&.&.$.! K K L D ) pXdXQ.z / yXpXrX9X4XR H P J P a e a P J J J R `.`.}.}.3X",
"3X3X7X7X3X7X3X3X7X. 3 5.&.0.0.X.N ,.0.0.&.&.&.&.&.&.&.&.&.&.! P K K p ) pXsXQ.z / yXpXeX9X4XR F J J J a e s P J J J R /.`.[.{.}.",
"'.'.'.'.'.'.[.[.'.O 4 5.&.0.0...B @.0.&.&.&.&.&.&.&.&.&.h u d P J K p ) pXsXQ.z / yXiXeX9X4XR F J J J a e a P J J J T E.~./._.`.",
"'.'.'.'.'.'.[.[.'.O 4 4.%.&.0...B @.&.*.&.&.&.&.&.&.&.0.d u s P J J p ) pXsXQ.z / yXpXeX9X4XR F J J J a u a P J J J T T.E.~._.`.",
"0X0X7X3X7X7X3X7X3XO 4 4.%.&.0.X.C O.&.&.&.&.&.&.&.&.&.&.d u d P J I p ) iXsXQ.z / yXpXeX4X4XR F P J P a u a K J J J T R.~./.~./.",
"eX0X3X3X3X7X7X3X7X. 3 4.%.&.0.X.C O.&.&.&.&.&.&.&.&.&.&.d e a P J I a ) pXsXQ.z / yXpXeX9X4XR F J J J a e a K K J J U | R.^.~./.",
"0X8X0X0X7X8X8X7X7X. t 2.$.0.w.X.C O.&.&.&.&.&.&.&.&.&.0.u 8 p J J J p ) iXsXQ.z / yXpXeX9X4XR F J J P a e a K K H S L T.E.^.~./.",
"0X0X8X8X8X7X7X8X7X. t 5.&.0.0...C @.$.&.&.0.&.&.&.&.&.&.d.N.8.G J J p ) pXsXQ.z / yXpXeX9X4XR F J J J J J H a q i..Xg.T.E.^.~./.",
"3X3X0X0X7X7X7X3X7XO 4 5.%.&.q...B <.&.&.&.&.&.&.&.&.&.&.D.H.g.S L J p ) dXdX(.z ] sXdXpXyXtXU G J J J P U J e 5 g.<XoX| T.~.E./.",
"3X3XeX0X7X7X7X7X3XO 4 4.%.0.0...B O.&.&.&.&.0.&.&.*.&.&.k.S.d.S J J G ( {.4X] z Y [.}.`./.^.U L J J J J P H a 8 g.;Xg.} T.~.~./.",
"'.[.'.'.'.'.'.'.'.O 4 5.%.0.q.X.C @.&.&.&.&.&.*.&.&.&.&.&.@.! G J U U F # # = - - $ $ $ $ % J U J J J J J P P G _ ' ' { u.R.~./.",
"[.[.'.'.'.'.'.'.'.. 4 4.%.0.0.X.B @.&.*.&.&.&.&.&.&.q.&.$.$.W I K U U H - - 9 7 0 7 7 7 6 7 J U T P P U U P J J ( ' [ } Y.R.^._.",
"3X3X0X7X7X3X3X3X3X. 4 4.5.&.q.C C O.&.&.&.&.&.&.&.&.&.&.$.@.+.W W d e e 7 7 - = = = 6 = = = 0 e 0 u u u e s ` ) ' { | R.~./.`.{.",
"3X7X7X7X3X7X3X3X3X. 4 4.%.&.q.C C @.$.&.&.&.&.&.&.&.&.&.$.5.@.+.o.w - - 7 9 = = = = = = = = $ $ = 6 - - - w [ [ { a.T.~.~._.'.{.",
"7X7X7X8X7X8X8X9X7X. 4 5.%.0.0.X.B ,.0.&.&.0.&.&.&.0.&.&.0.$.#.@.+.r 0 7 7 7 - = = ; , 7 7 - = % - 7 7 7 7 w [ [ Y.Y.W./._.'.|.4X",
"0X7X7X8X7X7X0X0X7XO 4 4.%.&.&.....@.1.0.&.&.&.&.&.&.&.&.&.$.$.<.+.y ; 7 7 7 = = 6 n n n n h 0 7 7 7 7 ; 0 u { { f.E./.`.'.{.|.7X",
"7X7X7X7X5X3X4X3X3XO 4 1.5.&.&.X.C @.0.0.&.$.&.$.&.&.&.&.0.0.#.<.@.y 7 0 0 0 6 = ; m M n m h 0 0 0 7 7 7 7 u { } T.~.^._.'.{.|.3X",
"7X3X8X7X*X|.3X4X7XO 4 8.5.q.0.X.C ,.1.0.0.w.0.w.0.w.0.0.0.0.0.1.1.r - - % = % $ = m M W Z v ; - - - - - - w } f.E.^./.'.{.|.3X3X",
"[.[.[.[.'.{.'.'.'.O 4 8.<.&.q.X.l l k k l k k k k k l k k k k k k , % % o o o o + g h j j j * % % % % % % w ] } T.~./._.'.'.'.'.",
"[.[.[.[.'.'.'.'.{.O r f.g.f.g.u.y.y.y.y.y.y.y.y.y.y.y.y.y.y.y.y.] r * * + % + o @ Y E E E ~ 1 * * - * * % w [ | T.~./._.'.'.'.'."
};
