/* XPM */
static char *_fe51d0198ab4c12a3c31ce7df14932das6lqBCqKLeunDmb[] = {
/* columns rows colors chars-per-pixel */
"64 64 22 1 ",
"  c #005B5C",
". c #005E60",
"X c #005B5B",
"o c #005F60",
"O c #00595A",
"+ c #005657",
"@ c #004343",
"# c #006263",
"$ c #006769",
"% c #006061",
"& c #005C5D",
"* c #006162",
"= c #004949",
"- c #005D5E",
"; c #005F61",
": c #006365",
"> c #006566",
", c #006869",
"< c #005758",
"1 c #005455",
"2 c #005A5B",
"3 c #006465",
/* pixels */
"  ..XXoo    OOOOOO++OOOOoooo++@@  ..XXoo    OOOOOO++OOOOoooo++@@",
"  ..XXoo    OOOOOO++OOOOoooo++@@  ..XXoo    OOOOOO++OOOOoooo++@@",
"##  $$oooooooo++++++++oo%%$$##@@##  $$oooooooo++++++++oo%%$$##@@",
"##  $$oooooooo++++++++oo%%$$##@@##  $$oooooooo++++++++oo%%$$##@@",
"  oo&&      oooo++      %%**++@@  oo&&      oooo++      %%**++@@",
"  oo&&      oooo++      %%**++@@  oo&&      oooo++      %%**++@@",
"================================================================",
"================================================================",
"  OOOO++OO@@            oo--;;;;  OOOO++OO@@            oo--;;;;",
"  OOOO++OO@@            oo--;;;;  OOOO++OO@@            oo--;;;;",
"oo::OO++##@@++oooooooooooo>>$$,,oo::OO++##@@++oooooooooooo>>$$,,",
"oo::OO++##@@++oooooooooooo>>$$,,oo::OO++##@@++oooooooooooo>>$$,,",
"OO    OO  @@oooooo      %%  OO<<OO    OO  @@oooooo      %%  OO<<",
"OO    OO  @@oooooo      %%  OO<<OO    OO  @@oooooo      %%  OO<<",
"================================================================",
"================================================================",
",,OO      oo      oo--;;;;  OO@@,,OO      oo      oo--;;;;  OO@@",
",,OO      oo      oo--;;;;  OO@@,,OO      oo      oo--;;;;  OO@@",
"::::oooooooooo  oooo>>  ,,oo::@@::::oooooooooo  oooo>>  ,,oo::@@",
"::::oooooooooo  oooo>>  ,,oo::@@::::oooooooooo  oooo>>  ,,oo::@@",
"OO,,      %%      %%  OO<<OO  @@OO,,      %%      %%  OO<<OO  @@",
"OO,,      %%      %%  OO<<OO  @@OO,,      %%      %%  OO<<OO  @@",
"================================================================",
"================================================================",
"OOoo  OOOO@@11OOOO++OOOO;;;;  OOOOoo  OOOO@@11OOOO++OOOO;;;;  OO",
"OOoo  OOOO@@11OOOO++OOOO;;;;  OOOOoo  OOOO@@11OOOO++OOOO;;;;  OO",
"oooooo::oo@@2233++++++++$$,,oo::oooooo::oo@@2233++++++++$$,,oo::",
"oooooo::oo@@2233++++++++$$,,oo::oooooo::oo@@2233++++++++$$,,oo::",
"  ooOO    @@++;;--OO++  OO<<OO    ooOO    @@++;;--OO++  OO<<OO  ",
"  ooOO    @@++;;--OO++  OO<<OO    ooOO    @@++;;--OO++  OO<<OO  ",
"================================================================",
"================================================================",
"  ..XXoo    OOOOOO++OOOOoooo++@@  ..XXoo    OOOOOO++OOOOoooo++@@",
"  ..XXoo    OOOOOO++OOOOoooo++@@  ..XXoo    OOOOOO++OOOOoooo++@@",
"##  $$oooooooo++++++++oo%%$$##@@##  $$oooooooo++++++++oo%%$$##@@",
"##  $$oooooooo++++++++oo%%$$##@@##  $$oooooooo++++++++oo%%$$##@@",
"  oo&&      oooo++      %%**++@@  oo&&      oooo++      %%**++@@",
"  oo&&      oooo++      %%**++@@  oo&&      oooo++      %%**++@@",
"================================================================",
"================================================================",
"  OOOO++OO@@            oo--;;;;  OOOO++OO@@            oo--;;;;",
"  OOOO++OO@@            oo--;;;;  OOOO++OO@@            oo--;;;;",
"oo::OO++##@@++oooooooooooo>>$$,,oo::OO++##@@++oooooooooooo>>$$,,",
"oo::OO++##@@++oooooooooooo>>$$,,oo::OO++##@@++oooooooooooo>>$$,,",
"OO    OO  @@oooooo      %%  OO<<OO    OO  @@oooooo      %%  OO<<",
"OO    OO  @@oooooo      %%  OO<<OO    OO  @@oooooo      %%  OO<<",
"================================================================",
"================================================================",
",,OO      oo      oo--;;;;  OO@@,,OO      oo      oo--;;;;  OO@@",
",,OO      oo      oo--;;;;  OO@@,,OO      oo      oo--;;;;  OO@@",
"::::oooooooooo  oooo>>  ,,oo::@@::::oooooooooo  oooo>>  ,,oo::@@",
"::::oooooooooo  oooo>>  ,,oo::@@::::oooooooooo  oooo>>  ,,oo::@@",
"OO,,      %%      %%  OO<<OO  @@OO,,      %%      %%  OO<<OO  @@",
"OO,,      %%      %%  OO<<OO  @@OO,,      %%      %%  OO<<OO  @@",
"================================================================",
"================================================================",
"OOoo  OOOO@@11OOOO++OOOO;;;;  OOOOoo  OOOO@@11OOOO++OOOO;;;;  OO",
"OOoo  OOOO@@11OOOO++OOOO;;;;  OOOOoo  OOOO@@11OOOO++OOOO;;;;  OO",
"oooooo::oo@@2233++++++++$$,,oo::oooooo::oo@@2233++++++++$$,,oo::",
"oooooo::oo@@2233++++++++$$,,oo::oooooo::oo@@2233++++++++$$,,oo::",
"  ooOO    @@++;;--OO++  OO<<OO    ooOO    @@++;;--OO++  OO<<OO  ",
"  ooOO    @@++;;--OO++  OO<<OO    ooOO    @@++;;--OO++  OO<<OO  ",
"================================================================",
"================================================================"
};
