/* XPM */
static char *result[] = {
/* columns rows colors chars-per-pixel */
"64 64 173 2 ",
"   c black",
".  c #000E0E",
"X  c #001212",
"o  c #001313",
"O  c #001414",
"+  c #001E1E",
"@  c #002222",
"#  c #002424",
"$  c #002425",
"%  c #002627",
"&  c #002B2B",
"*  c #002E2F",
"=  c #003030",
"-  c #003131",
";  c #003232",
":  c #003233",
">  c #003333",
",  c #003334",
"<  c #003535",
"1  c #003B3B",
"2  c #003B3C",
"3  c #003C3C",
"4  c #003D3D",
"5  c #003D3E",
"6  c #003E3E",
"7  c #003E3F",
"8  c #004040",
"9  c #004041",
"0  c #004142",
"q  c #004242",
"w  c #004343",
"e  c #004545",
"r  c #004848",
"t  c #004949",
"y  c #004B4B",
"u  c #004D4D",
"i  c #004E4E",
"p  c #005151",
"a  c #005152",
"s  c #005353",
"d  c #005454",
"f  c #005455",
"g  c #005555",
"h  c #005556",
"j  c #005656",
"k  c #005657",
"l  c #005758",
"z  c #005858",
"x  c #005959",
"c  c #00595A",
"v  c #005A5A",
"b  c #005A5B",
"n  c #005B5B",
"m  c #005B5C",
"M  c #005C5C",
"N  c #005C5D",
"B  c #005D5D",
"V  c #005D5E",
"C  c #005E60",
"Z  c #005F60",
"A  c #005F61",
"S  c #006060",
"D  c #006061",
"F  c #006161",
"G  c #006162",
"H  c #006262",
"J  c #006263",
"K  c #006363",
"L  c #006364",
"P  c #006365",
"I  c #006464",
"U  c #006465",
"Y  c #006566",
"T  c #006666",
"R  c #006667",
"E  c #006767",
"W  c #006768",
"Q  c #006769",
"!  c #006868",
"~  c #006869",
"^  c #00696A",
"/  c #006A6A",
"(  c #006A6B",
")  c #006B6B",
"_  c #006B6C",
"`  c #006C6D",
"'  c #006D6E",
"]  c #006D6F",
"[  c #006E6E",
"{  c #006F6F",
"}  c #006F70",
"|  c #006F71",
" . c #007070",
".. c #007071",
"X. c #007173",
"o. c #007272",
"O. c #007273",
"+. c #007374",
"@. c #007475",
"#. c #007575",
"$. c #007576",
"%. c #007577",
"&. c #007676",
"*. c #007677",
"=. c #007777",
"-. c #007778",
";. c #007779",
":. c #007878",
">. c #007879",
",. c #007979",
"<. c #00797A",
"1. c #007A7A",
"2. c #007A7B",
"3. c #007B7B",
"4. c #007B7C",
"5. c #007B7D",
"6. c #007C7C",
"7. c #007C7D",
"8. c #007D7E",
"9. c #007D7F",
"0. c #007F7F",
"q. c #007F80",
"w. c #007F81",
"e. c #008080",
"r. c #008081",
"t. c #008182",
"y. c #008282",
"u. c #008283",
"i. c #008383",
"p. c #008384",
"a. c #008485",
"s. c #008486",
"d. c #008586",
"f. c #008686",
"g. c #008787",
"h. c #008788",
"j. c #008888",
"k. c #008889",
"l. c #008989",
"z. c #008A8A",
"x. c #008A8B",
"c. c #008B8C",
"v. c #008C8C",
"b. c #008C8D",
"n. c #008C8E",
"m. c #008D8E",
"M. c #008E8E",
"N. c #008E8F",
"B. c #008F8F",
"V. c #008E90",
"C. c #008F90",
"Z. c #009090",
"A. c #009192",
"S. c #009393",
"D. c #009294",
"F. c #009394",
"G. c #009495",
"H. c #009596",
"J. c #009797",
"K. c #009798",
"L. c #009899",
"P. c #00999A",
"I. c #00999B",
"U. c #009A9B",
"Y. c #009C9C",
"T. c #009C9D",
"R. c #009D9E",
"E. c #009E9F",
"W. c #009FA0",
"Q. c #00A0A0",
"!. c #00A0A1",
"~. c #00A2A4",
"^. c #00A3A4",
/* pixels */
"m m C C n n Z Z m m m m c c c c c c k k c c c c Z Z Z Z k k w w m m C C n n Z Z m m m m c c c c c c k k c c c c Z Z Z Z k k w w ",
"m m C C n n Z Z m m m m c c c c c c k k c c c c Z Z Z Z k k w w m m C C n n Z Z m m m m c c c c c c k k c c c c Z Z Z Z k k w w ",
"J J m m Q Q Z Z Z Z Z Z Z Z k k k k k k k k Z Z D D Q Q J J w w J J m m Q Q Z Z Z Z Z Z Z Z k k k k k k k k Z Z D D Q Q J J w w ",
"J J m m Q Q Z Z Z Z Z Z Z Z k k k k k k k k Z Z D D Q Q J J w w J J m m Q Q Z Z Z Z Z Z Z Z k k k k k k k k Z Z D D Q Q J J w w ",
"m m Z Z N N m m m m m m Z Z Z Z k k m m m m m m D D G G k k w w m m Z Z N N m m m m m m Z Z Z Z k k m m m m m m D D G G k k w w ",
"m m Z Z N N m m m m m m Z Z Z Z k k m m m m m m D D G G k k w w m m Z Z N N m m m m m m Z Z Z Z k k m m m m m m D D G G k k w w ",
"t t t t t t t t t t t t t t t t t t t t t y v v v v v u t t t t t t u v v v v j t t t t t y v v v v v v v v v v v v j t t t t t ",
"t t t t t t t t t t t t t t t t t t t t d 0.j.j.j.j.j.j.o.t t t t o.j.j.j.j.j.j.3.t t t d 0.j.j.j.j.j.j.j.j.j.j.j.j.j.3.t t t d ",
"m m c c c c k k c c w w m m m m m m m m x.L.6.6.0.0.8.F.T.P A A Z L.Z.3.3.3.>.e.J.:.w w x.L.6.6.6.6.6.6.6.6.6.6.0.0.d.U.9.A A N.",
"m m c c c c k k c c w w m m m m m m m m L.L.          8.T...A A ` L.3.        1 J.g.i K L.L.                        6 U.b.9.A T.",
"Z Z P P c c k k J J w w k k Z Z Z Z Z Z Y.Y.          u.~.;.~ ~  .Y.t.        1 E.N.y.i.G.G.                        9 !.~.~.K.^.",
"Z Z P P c c k k J J w w k k Z Z Z Z Z Z Y.Y.          u.~.;.~ ~  .Y.t.        1 E.N.i.M 1 1     ; 0.0.0.0.0.0.0.;   O 9 0 n.^.^.",
"c c m m m m c c m m w w Z Z Z Z Z Z m m L.L.          6.J.( l l ( J.6.        3 L.k.i.g         6 Y.L.L.L.L.L.L.7         3.H.H.",
"c c m m m m c c m m w w Z Z Z Z Z Z m m L.L.          6.J.( l l ( J.6.        3 L.k.i.g         6 Y.k.` ` ` k.L.7         3.H.H.",
"t t t t t t t t t t t t t t t t t t t t j.j.          [ j.) M M ) j.[         < j.=.j.x         < j.=.t t t =.j.<         [ j.j.",
"t t t t t t t t t t t t t t t t t t t t j.j.          [ j.j.j.j.j.j.[         < j.=.j.x         < j.=.t t t =.j.<         [ j.j.",
"~ ~ c c m m m m m m Z Z m m m m m m Z Z b.U.q.q.d     - 3 v i.i.H q =     I 6.p.L.<.Y.T         4 L.v.Z V V b.T.7         3.i.i.",
"~ ~ c c m m m m m m Z Z m m m m m m Z Z ~ A.T.T.R         3 i.i.q         6.L.L.c.>.Y.T         4 L.v.Z V V b.T.7         3.i.i.",
"P P P P Z Z Z Z Z Z Z Z Z Z m m Z Z Z Z Y W +.L.@.q 6 o   , / / ,   O 8 6 g.Y._ Z 6.Y.T         6 Y.v.Z Y Y k.L.q         t.i.i.",
"P P P P Z Z Z Z Z Z Z Z Z Z m m Z Z Z Z Y Y Y K.^.^.Y.6             8 W.Y.Y.B.Z Z 6.Y.T         6 Y.v.Z Y Y k.L.q         t.i.i.",
"c c ~ ~ m m m m m m D D m m m m m m D D m m c L *.d.J.3             q ^.k.<.m m m >.T.R         4 L.b.D m m g.J.2         6.i.i.",
"c c ~ ~ m m m m m m D D m m m m m m D D m m c c l *.J.y.a         p m.^.<.m m m m >.T.R         4 L.b.D m m g.J.2         6.i.i.",
"t t t t t t t t t t t t t t t t t t t t t t t t t t 3.j.x         x j.3.t t t t t E j.x         < j.=.t t t =.j.<         [ j.j.",
"t t t t t t t t t t t t t t t t t t t t t t t t t t E j.x         x j.E t t t t t E j.x         < j.=.t t t =.j.<         [ j.j.",
"c c Z Z m m c c c c w w f f c c c c k k c c c c A A 7.T.I         K Y.6.m m c c c *.i.g         3 J.a.+.*.*.g.J.7         6.J.J.",
"c c Z Z m m c c c c w w f f c c c c k k c c c c A A 7.T.I         K Y.6.m m c c c *.i.g         3 J.G.G.J.J.J.J.7         6.J.J.",
"Z Z Z Z Z Z P P Z Z w w b b U U k k k k k k k k Q Q a.^.T         T Y.6.Z Z P P Z  .i./ L L     @ F F F F F F F %   % _ T M.W.A.",
"Z Z Z Z Z Z P P Z Z w w b b U U k k k k k k k k Q Q a.^.T         T Y.6.Z Z P P Z G 1.i.K.K.                        q ^.Y.Y.V.X.",
"m m Z Z c c m m m m w w k k A A V V c c k k m m c c @.H.K         I Y.6.c c m m m m e d G.G.                        2 H.g.W m m ",
"m m Z Z c c m m m m w w k k A A V V c c k k m m c c Y H.J.J.L.L.L.L.Y.' c c m m m m w w d.G.T.T.U.U.J.J.G.G.L.L.J.J.H.H.:.c m m ",
"t t t t t t t t t t t t t t t t t t t t t t t t t t t z ,.j.j.j.j.,.z t t t t t t t t t d ,.j.j.j.j.j.j.j.j.j.j.j.j.,.! t t t t ",
"t t t t t t t t t t t t t t t t t t t t t t t t t t t t t t t t t t t t t t t t t t t t t t t t t t t t t t t t t t t t t t t t ",
"m m C C n n Z Z m m m m c c c c c c k k c c c c Z Z Z Z k k w w m m C C n n Z Z m m m m c c c c c c k k c c c c Z Z Z Z k k w w ",
"m m C C n n Z Z m m m m c c c c c c k k c c c c Z Z Z Z k k w w m m C C n n Z Z m m m m c c c c c c k k c c c c Z Z Z Z k k w w ",
"J J m m Q Q Z Z Z Z Z Z Z Z k k k k k k k k Z Z D D Q Q J J w w J ` <.k.D.D.v.8.Z Z Z Z Z Z k k k k k k k k Z Z D D Q Q J J w w ",
"J J m m Q Q Z Z Z Z Z Z Z Z k k k k k k k k Z Z D D Q Q J J w w ` R.L.L.~.~.Y.Y.8.Z Z Z Z Z k k k k k k k k Z Z D D Q Q J J w w ",
"m m Z Z N N m m m m m m Z Z Z Z k k m m m m m m D D G G k k w i K.L.{ 6 5 5 4 L.L.<.m m Z Z Z Z k k m m m m m m D D G G k k w w ",
"m m Z Z N N m m m m m m Z Z Z Z k k m m m m m m D D G G k k i y.L.` # d 7.U   4 L.k.^ >.6.6.6.6.U k ^ >.>.>.>.>.7...L G D } F F ",
"t t t t t t t t t t t t t t t t t t t t t t t t t t t t t t ! j.S < < [ j.6.x x j.&.j.j.j.j.j.j.j.&.j.j.j.j.j.j.j.j.0.s g.j.j.j.",
"t t t t t t t t t t t t t t t t t t t t t t t t t t t t t t =.j.<   x j.0.j.j.j.j.j.6.x x x x x 6.j.6.x x x x x x [ j.0.j.S x x ",
"m m c c c c k k c c w w m m m m m m m m m m m m Z Z V V A A b.T.4   K J.*.W +.+.J.l.g . 4 4 4   I A.6.    4 4 4 o d b.U.q.: : 7 ",
"m m c c c c k k c c w w m m m m m m m m m m m m Z Z V V A A b.T.4   K J.f.J.G.G.J.K   > L.L.L.    6.6.    L.L.L.6   Y U.    q.T.",
"Z Z P P c c k k J J w w k k Z Z Z Z Z Z Z Z Z Z Z Z Y Y Q Q k.^.B # h A.J.Z.>.>.E.!   > G.G.Y.    0.0.    Y.Y.Y.6   ^ !.    d.^.",
"Z Z P P c c k k J J w w k k Z Z Z Z Z Z Z Z Z Z Z Z Y Y Q Q 2.^.Y.T   ~ J.3.    E.!   > G.G.Y.    0.0.    Y.Y.Y.6   ^ !.    d.^.",
"c c m m m m c c m m w w Z Z Z Z Z Z m m m m m m D D m m c c l ^ J.J.I         J.L.L./           0.Y.6.    L.L.L.7   I L.J.3     ",
"c c m m m m c c m m w w Z Z Z Z Z Z m m m m m m D D m m c c l l W J.L.L.L.L.J.J.x.C.i.i.Y.Y.Y.Y.Y.S.L.L.L.L.x.L.T.T.L.L.J.J.H.H.",
"t t t t t t t t t t t t t t t t t t t t t t t t t t t t t t t t t z ,.j.j.j.j.,.d d ,.j.j.j.j.j.,.d ,.j.j.,.d ! ,.j.,.M j.j.j.j.",
"t t t t t t t t t t t t t t t t t t t t t t t t t t t t t t t t t t t t t t t t t t t t t t t t t t t t t t t t t t t ) j.p < < ",
"~ ~ c c m m m m m m Z Z <.k.k.k.k.k.v.8.W V A A A A m m c c w w ~ ~ c c m m m m m m Z Z m m m m m m Z Z V V A A A A m ' J.y./ / ",
"~ ~ c c m m m m m m Z B.L.L.L.L.L.L.Y.Y.P.W A A A A m m c c w w ~ ~ c c m m m m m m Z Z m m m m m m Z Z V V A A A A m m z.J.i.i.",
"P P P P Z Z Z Z Z Z _ Y.g.6 4 4 6 6 6 { !.W.Y m ~ ~ Z Z P P w w P P P P Z Z Z Z Z Z Z Z Z Z m m Z Z Z Z Y Y m m ~ ~ Z Z P | d d ",
"P P P P Z Z Z Z Z Z  .Y.0.    6.0.0.; # O.!.>.>.*.r.6.6.5.] i B w.w.w.w.-.^ Z G  .6.6.6.6.6.^ m Z ' 6.6.t.t.>.` ( ~ Z Z P P e d ",
"c c ~ ~ m m m m m m ..T.6.    L.L.L.7   I L.J.J.H.H.J.J.L.K.y.i.J.J.^.^.L.K.Y C.L.L.T.T.L.L.L.^ ^ L.T.T.L.L.J.J.b.c c c m V 1.i.",
"c c ~ ~ m m m m m m ..T.6.    I I I $ 7 6.L.K K h./ K K ` L.i.M K K _ _ ` L.c.L.6.I R R I I L.p.L.L.R R I I K 3.H.~ c c m ` i./ ",
"t t t t t t t t t t v j.[     < < < < S j.j.    x r < < p j.[ & & < < + & #.j.#.r + < < < < j.j.y.[   < < < < S j.H t t t H j.S ",
"t t t t t t t t t t v j.[     j.j.j.j.j.j.j.    & #.j.j.j.j.    x [ [ r   < j.p + r [ [ [ [ j.j.#.<   [ [ [ [ 6.j.&.t t t 3.j.6.",
"c c Z Z m m c c c c d i.=.    J.J.g.a.$.J.J.    q.T.C.b.L.L.    = 3 6 6 4 n J.J.) 3 > > *   3.J.J.J.1 1 3 3 X p N.T.] A <.L.y.p ",
"c c Z Z m m c c c c d i.=.    J.J.c k k J.J.    q.T...A L.L.    3.J.Y.Y.L.L.J.J.J.J.i.i.=.    J.J.J.G.G.J.J.3   R T.7.A k.L.3   ",
"Z Z Z Z Z Z P P Z Z d i.4.    Q.G.k k k G.G.    s.~.>.~ M.Y.W.8         6 Y.W.8             Q.Q.>.            F ~.~.*.~ 8.Y.W.~ ",
"Z Z Z Z Z Z P P Z Z e 1.K.K.Q.Q.d.k k k d.G.G.G.~.I.( ~ / M.W.W.Y.Y.Y.Y.Y.Y.W.W.Y.Y.i.i.K.K.Q.J.G.G.G.G.G.G.G.G.~.%.~ ~ Z 8.W.W.",
"m m Z Z c c m m m m w i d.G.T.N.~ V c c G d.L.L.k.U l l c c <.x.L.L.Y.Y.k.:.<.x.L.L.i.i.G.G.N.( b.U.J.J.G.G.L.x.W c l l c c ^ x.",
"m m Z Z c c m m m m w w k k A A V V c c k k m m c c l l c c m m m m Z Z c c m m m m w w k k A A V V c c k k m m c c l l c c m m ",
"t t t t t t t t t t t t t t t t t t t t t t t t t t t t t t t t t t t t t t t t t t t t t t t t t t t t t t t t t t t t t t t t ",
"t t t t t t t t t t t t t t t t t t t t t t t t t t t t t t t t t t t t t t t t t t t t t t t t t t t t t t t t t t t t t t t t "
};
