/* XPM */
static char *result[] = {
/* columns rows colors chars-per-pixel */
"64 64 111 2 ",
"   c #001515",
".  c #011C1D",
"X  c #0B1F1F",
"o  c #001F20",
"O  c #002223",
"+  c #0C2324",
"@  c #012728",
"#  c #0B2728",
"$  c #002B2C",
"%  c #0B2A2A",
"&  c #122525",
"*  c #122D2E",
"=  c #002F30",
"-  c #0E2F30",
";  c #112F30",
":  c #003334",
">  c #083132",
",  c #003638",
"<  c #003B3C",
"1  c #143233",
"2  c #1C3233",
"3  c #143739",
"4  c #1A3738",
"5  c #143839",
"6  c #1D3B3C",
"7  c #243333",
"8  c #223F3F",
"9  c #2C3C3C",
"0  c #003F40",
"q  c #1D3F40",
"w  c #004343",
"e  c #004748",
"r  c #004949",
"t  c #004F50",
"y  c #005657",
"u  c #005758",
"i  c #005A5B",
"p  c #224344",
"a  c #2A4546",
"s  c #264648",
"d  c #2A4748",
"f  c #29494A",
"g  c #314242",
"h  c #324C4D",
"j  c #3C4C4C",
"k  c #354F50",
"l  c #355355",
"z  c #3A5354",
"x  c #3F5B5C",
"c  c #005F60",
"v  c #006263",
"b  c #006769",
"n  c #006869",
"m  c #404D4D",
"M  c #435353",
"N  c #415B5C",
"B  c #4A5F5F",
"V  c #505E5E",
"C  c #405F60",
"Z  c #476465",
"A  c #4B6262",
"S  c #516666",
"D  c #596767",
"F  c #546A6B",
"G  c #5B6C6C",
"H  c #5D6F70",
"J  c #5C7274",
"K  c #616E6E",
"L  c #637575",
"P  c #6B7676",
"I  c #667778",
"U  c #64797A",
"Y  c #6B7B7B",
"T  c #6E8081",
"R  c #738484",
"E  c #7B8686",
"W  c #718788",
"Q  c #74898A",
"!  c #7D8B8B",
"~  c #808C8C",
"^  c #849394",
"/  c #8C9595",
"(  c #8A9A9B",
")  c #919B9C",
"_  c #94A3A3",
"`  c #9AA5A5",
"'  c #98A9A9",
"]  c #A4AEAE",
"[  c #A4AFB0",
"{  c #A5B1B1",
"}  c #ABB3B3",
"|  c #AEBABA",
" . c #B3BBBB",
".. c #B9BFBF",
"X. c #B5C1C1",
"o. c #BCC4C4",
"O. c #BFC9C9",
"+. c #C0C7C7",
"@. c #C1CACB",
"#. c #CACFCF",
"$. c #CDD3D3",
"%. c #D1D7D7",
"&. c #D4DADA",
"*. c #DADDDD",
"=. c #DEE2E2",
"-. c #E1E5E5",
";. c #E6E9E9",
":. c #EAEDED",
">. c #EFF1F1",
",. c #F2F4F4",
"<. c #FDFDFD",
/* pixels */
"i i c c i i v c i i i i i u i u i y y y i i i y i i v i y y w w i i i v i i c c i i i i i i i u i i y y i u i i c c c c y y w w ",
"i i c c i i i v i i i i i i i i i i y y i u i i v v c v y y w w i i c v i i c c i i c i i u i u u i y y i u u i c i c c y y w w ",
"v v i i b b c c v c c c c v y y y y y y y y i v v i n b v v w w v v i i n n c c c c c c c c u y y y y y u y c c v c n n v v w w ",
"v v i i b b c v c c c c c i y y y y y i y y v i v v b b v v w w v v i i n n c c c c c c c c y y y y y y u u c v c v n n v v w w ",
"i i c c i i i i i i i i c c c c y y i i i i i i v i v c y y w w i i c v i i i i i c i i c c c c u y i i i i i i v c c v y y w w ",
"i i c v c i i i i i i i c c c c u i i i i i i i v v c v y y w w i i c v i i i i i i i i c c c c y y i i i i i i c c v c y y w w ",
"r r r r r r r r r r r r r r r r r r r r r r r r r r r r r r r r r r r r r r r r r r r r r r r r r r r r r r r r r r r r r r r r ",
"r r r r r r r r r r r r r r r r r r r r r r r r r r r r r r r r r r r r r r r r r r r r r r r r r r r r r r r r r r r r r r r r ",
"i i i i i u y y i i w w i i i i i i i i i i i i c c c i c c c c i i i i i u y y i i w w i i i i c i i i i i i i c c i v c c c c ",
"i i u i i i y y u i w w i i i i i i i i i i i i c c i c c c c c i i i i u i y y i u w w i i i i i i i i i i i i c c i v c c v c ",
"c c v v u i u y v v w w u u v c c c c c v c c c c c b v b b n n c c v v i u y y v v w w y y c c c c c c v c c c c c v v n n n n ",
"v c v v i u y y v v w w y u c c c c c c v c c c c c b b b b n b c v v v i u y y v v w w y y c c c c c c c c c v c c v n n n n n ",
"i u i i i i i i i i w w c c c c c c i i i i i i c c i i i u u u i i i i i i i i i i w w c c c c c c i i i i i i c c i i u u u u ",
"u i i i i i i i i i w w c c c w : O $ , e < e i v c i i u i u u u i i i i i i i i i w w c c c c c c i i i i i i v v i i i i u u ",
"r r r r r r r r r r r r r w O                 < r r r r r r r r r r r r r r r r r r r r r r r r r r r r r r r r r r r r r r r r ",
"r r r r r r r r r r r r 0 O   M  .,.*.E Y )   $ r r r r r r r r r r r r r r r r r r r r r r r r r r r r r r r r r r r r r r r r ",
"n n i i i i i i i i c c w o R >.A % z  .<.| @ , c c i i i i w w n n u i i i i i i i c c i i i i i i c c i i v c c c i i i i w w ",
"n n i i i i i i i i c w o d <.k O O @ @ >. .O , r < O $ O O O < n r $ O < @ = O : < c c i < $ O $ @ $ = = < r : : @ = , @ @   @ ",
"n v v v c c v i c c c , O  .} O , i < O _ { o , $ $ A Q U q   o w s N C % # k 8 O O 0 c 0 O O 6 d @ # S W p o z C Z - O @ d 7   ",
"v v v n c c c v c c c O # <.A O w v r O q 3 O , $ ' <.%.>.:.9   < ! O.<._ ;.o.<.O.# : 0 O d %.,.=.:.;.#.$.] a +.@.,.J Y ;.%.:./ ",
"i i n n i i i i i i v O 6 <.8 o i i v r < , w . I $.6 . O Y -.  @ o $ <.;.8 o 1 ;.A $ = o #.[ # o H <.1 1 1 . o . -.&.o.4 o M m ",
"i i n n i i i i i i v @ 8 <.1 O i i c c i i @ O :.j . $ O . ..P . O $ <.T O = o o.W : O # <.k o @ O -.G @ , w $ . -.;.# o $   @ ",
"r r r r r r r r r r r     <.g   w r r : O $   9 <..   r ,   ~ [   @   <.M   O   o.E O .   ,.D     & ,.M   r r .   -./   = r r r ",
"r r r r r r r r r r r .   *.E   @ r :   M K   9 <.&   w $   ) }   O   <.j   O   o.E O $   ) ;.M 2 ..#.. O r r .   =.P   < r r r ",
"i u c c i i i u i i w O . ! :.O o , = . | ( O O <.I O = O # -.! . O O <.z O $ o o.! o o .  .o.<.,.] 1 o , i < = O -.J $ : < i i ",
"u i c c i i i i i u w w O + -.X.% o . N <.h . O ^ :.h O O ` ,.; O . O <.z O o o o.!     . o.S o o . . . $ , o o O -.J @ o O < u ",
"c c c c c c v v c c w w : o 3 @.>.` ..,.I . $ . > | <.%.>.>.Z @ : L @.<.$._ l @.>.-. .X . ) ,.@.+. .^ S O . 6 ..@.<.&.O.o.d , v ",
"c c c c v v v v c c w w u : @ @ h R K 4 . : r r $ $ Z Q L 6 @ , w p N x N k 3 N N M m   L ;.Q C M F / $.&.# % M C C C C x 3 w v ",
"i i c c i i i i i i w w u u w : @ , : o $ t i i w : . $ O O : y i < : O $ , e = @ @ o   $.z @ > : O o o #.F $ : $ O @ $ = < i i ",
"i i c c i u i i i i w w u y c c i i i i u u i i u i u u u i i i i i c c i i i i i i .   #.A O O @ = o O #.B $ i i i u u i i i i ",
"r r r r r r r r r r r r r r r r r r r r r r r r r r r r r r r r r r r r r r r r r r $   M :.` M m m D #.} X O r r r r r r r r r ",
"r r r r r r r r r r r r r r r r r r r r r r r r r r r r r r r r r r r r r r r r r r r $   X K ] :.#.~ g     : r r r r r r r r r ",
"i i c c i i c c i i i i u i i u i y y y i u i i c c c c y y w w i i c c i i i v i i i u : O o o o o o . = 0 i i c c c c y y w w ",
"i i c c i i c c i i i i i i u u i i y y i i u i c c c c y y w w i i v v i i v i i i i c i i 0 : O $ < r i u u i c c c c y u w w ",
"v v i i n n c c v c c c c c u y y y y y y y v c c c b b v v w w v v i i b b v i c c c c c c y y y y y y u u c c c c n n v v w w ",
"v v i i n n c v c c c c c c u u y y y y y y i v v c b b v v w w v v i i b n c v c c c v c c y y y y y y u u c v c c n n v v w w ",
"i i v c c i i i i i i i c c c c y y i i i i i i c c v v u u w w i i v v i i i i i i i i c c c c y y i i i i i i v c c v y y w w ",
"i i c c i i i i i i c i c c c c y y i i i i i i c v v c u u w w i i i v i i i i i i i i c c c v y y i i i i i i c c v c y y w w ",
"r r r r r r r r r r r r r r r r r r r r r r r r r r r r r r r r r r r r r r r r r r r r r r r r r r r r r r r r r r r r r r r r ",
"r r r r r r r r r r r r r r r r r r r r r r r r r r r r r r r r r r r r r r r r r r r r r r r r r r r r r r r r r r r r r r r r ",
"i i u i u u u u i i w w i i i i i i i i i i i i c c i i v v c c i i i i i y y y i i w w i i i i i i i i i i i i c c c c c v i v ",
"i i i i i i y u u i w w i i i i i i i i i i i i c c i c c c c c i i i i i y y y i u w w i i i i i i i i i i < = O : 0 r 0 $ $ , ",
"c c v v u i y y v v w w u y c c v i v v v i v v c c v b b b b n v i v v i i y y v v w w y y c c v c c c v 0 % x N z $ @ p C N f ",
"c c n v i u y y v v w w u y c c i v v i c v v i c c b b b b n n i v b v u i y y v v w w y y c c c c c c c : F @.<.+.f $ ( =.;.X.",
"u i i i i i i i i i w w c c c c c v i i i i i i c c i i i u u u i i i i i i i i i i w w i v c c c c i i i 0 o o &.C o o O } J o ",
"i i i i i i i u i i w w c c c c c v i i i i i i v c i i u i u u i i i i i i i i i i w w c c c c c c i i i i < O Y { o : % >.# O ",
"r r r r r r r r r r r r r r r r r r r r r r r r r r r r r r r r r r r r r r r r r r r r r r r r r r r r r r r   X :.&   G }   @ ",
"r r r r r r r r r r r r r r r r r r r r r r r r r r r r r r r r r r r r r r r r r r r r r r r r r r r r r r r $   _ P    .V   = ",
"n n u i i i i i i i c c i i i i i i v c i i c c c c i i u i w w n n i i i i i i i i c v i i i i i i v c c i v r @ h $.* :.O   w ",
"n n u i i i i i i i c c i i i i i i c c c c v v c c i i i i w w n n i i i i i i i i c i c i i i i i c c c i c c = O $.' ` O @ w ",
"v n v v c c i v v c c c c c i i c c c c v b i i n n c c v v w w v v v v v v v c v c c c v c i c c c c c n v i i w $ I <.N $ = w ",
"v v v v v i v v v c c c c v i c c c c c b v i i n n c c b v w w v v v v v i i v i c c c c c i i c c c c v n i i n : h -.$ $ w w ",
"i i n n i i i i i i c v i i i i i i v c i i u i u u i u i i w w i i b b i i i i i i v v i i i i i i c v i t $ o $ o ! ^ . < w w ",
"i i n n i i i i i i c v i i i i i i c v i i i i u u i i i i w w i i n n i i i i i i v v i i i i i i v v i = O L % + =.1 O r w w ",
"r r r r r r r r r r r r r r r r r r r r r r r r r r r r r r r r r r r r r r r r r r r r r r r r r r r r r   & <.~ ] E   $ r r r ",
"r r r r r r r r r r r r r r r r r r r r r r r e r r r r r r r r r r r r r r r r r r r r r r r e r r r r r O   ! -.P   : w r r r ",
"u i c c i i i i i i w w y t u u u i u y u u u i c c c c i i u i i i c c i i i i i u w w y y u i i u y y i t $ o @ O < c i i i i ",
"i i c c i i i i i i w w y y i i i u u y i i i u c c c c i i i i i u c c i i i i i i w w y y i i i u y u i u u : $ < i c i i u i ",
"i c c c v c v v c c w w i i v v y y y u u y y y b b n n c c v b i c c c c c v v c c w w u i v b u y y y u y y y v b n n c c v b ",
"c c c c c c v v c c w w i i n v y y y u y y y y b b n n c c v v v c i v c v v v c c w w u i v v y y y y y y u u n b n n c c v v ",
"i i v c u i i i i i w w y y c c c i i i u u i i i i u u i u i i i i c c i i i i i i w w u u c c i c u i u u i i i u u u i i i i ",
"i i c c i i i i i i w w u y c c i c i u u u i i i i u u i i i i i i c c u i i i i i w w y u c c c i i u u u i i u i u u u i i i ",
"r r r r r r r r r r r r r r r r r r r r e r r r r r e e r r r r r r r r r r r r r r r r e e r r r r r r r r r r r r r r r r r r ",
"r r r r r r r r r r r r r r r r r r r r r r r r r r r r r r r r r r r r r r r r r r r r r r r r r r r r r r r r r r r r r r r r "
};
