/* XPM */
static char *result[] = {
/* columns rows colors chars-per-pixel */
"64 64 118 2 ",
"   c #001515",
".  c #001C1D",
"X  c #0B1E1E",
"o  c #001F20",
"O  c #002223",
"+  c #0D2324",
"@  c #002628",
"#  c #002B2C",
"$  c #0A2B2C",
"%  c #112222",
"&  c #142E2F",
"*  c #002F30",
"=  c #0B2F30",
"-  c #142F30",
";  c #003334",
":  c #0E3335",
">  c #003738",
",  c #003C3C",
"<  c #133334",
"1  c #1C3637",
"2  c #173738",
"3  c #1A3738",
"4  c #143A3A",
"5  c #1C3A3B",
"6  c #233C3D",
"7  c #2C3D3D",
"8  c #003F40",
"9  c #243F40",
"0  c #004343",
"q  c #004748",
"w  c #004949",
"e  c #1F4143",
"r  c #004F50",
"t  c #005657",
"y  c #005758",
"u  c #005A5B",
"i  c #254344",
"p  c #2A4344",
"a  c #254748",
"s  c #2A4748",
"d  c #264A4B",
"f  c #2C4A4A",
"g  c #344343",
"h  c #334D4E",
"j  c #3B4B4B",
"k  c #335252",
"l  c #3A5455",
"z  c #3F5758",
"x  c #3F595A",
"c  c #005F60",
"v  c #006263",
"b  c #006769",
"n  c #006869",
"m  c #404D4D",
"M  c #425656",
"N  c #405758",
"B  c #415B5C",
"V  c #495858",
"C  c #425F60",
"Z  c #476061",
"A  c #4D6364",
"S  c #4F6768",
"D  c #546565",
"F  c #526768",
"G  c #506A6B",
"H  c #5A6A6B",
"J  c #566F71",
"K  c #586F70",
"L  c #5C7171",
"P  c #5F7778",
"I  c #626F6F",
"U  c #617676",
"Y  c #6B7777",
"T  c #637A7A",
"R  c #6A7C7D",
"E  c #6A7F80",
"W  c #6E8283",
"Q  c #738484",
"!  c #798484",
"~  c #758788",
"^  c #74898A",
"/  c #7C8C8C",
"(  c #7B8F90",
")  c #838D8D",
"_  c #849393",
"`  c #839798",
"'  c #8B9A9A",
"]  c #949E9F",
"[  c #8FA1A2",
"{  c #95A4A4",
"}  c #9BA5A5",
"|  c #9DAAAA",
" . c #A4ACAC",
".. c #A8AFAF",
"X. c #A5B1B2",
"o. c #ADB4B4",
"O. c #AFBBBC",
"+. c #B0B7B7",
"@. c #B3BCBC",
"#. c #B9BFBF",
"$. c #B7C2C2",
"%. c #BBC3C3",
"&. c #BFC8C8",
"*. c #C0C6C6",
"=. c #C1CACA",
"-. c #C7D0D0",
";. c #CDD4D4",
":. c #D1D6D6",
">. c #D6DBDB",
",. c #DADEDE",
"<. c #DDE2E2",
"1. c #E3E7E7",
"2. c #E6E9E9",
"3. c #EAEDED",
"4. c #EEF1F1",
"5. c #F2F4F4",
"6. c #F7F8F8",
"7. c #FDFDFD",
/* pixels */
"u u c c u u v c u u u u u u y u u y t t u u y u u c c c t t 8 0 u u c c u u c c u u u u u u u u y t t t y u u u c c c c t t 8 0 ",
"u u c c u u u v u u u u u u u y u u t t u y u u v c c c y y 0 0 c u c c u u c c u u c u u y t u u u t t u u t u c c c c t t 0 0 ",
"v v u u b b c c v c c c c c t t t t t t t t u c c v n b v v 0 0 v v u u n n c c c c c c c c t t t t t t t t c c c c n n v v 0 0 ",
"v v u u b b c v c c c c c c t t t t t u t t v c c c b b v v 0 0 v v u u n n c c c c c c c c t t t t t t t t c c c c n n v v 0 0 ",
"u u c c u u u u u u u u c c c c y t u u u u u u c v c v t y 0 0 c u c c u c u u u u u u c c c c t t u u u u u u c c c v y y 0 0 ",
"u u v v c u u u u u u u c c c c y u u u u u u u c c v v t t 0 0 u u c c u u u u u u u c c c c c t y u c c u u u v c v v y t 0 0 ",
"w w w w w w w w w w w w w w w w w w w w w w w w w w w w w w w w w w w w w w w w w w w w w w w w w w w w w w w w w w w w w w w w ",
"w w w w w w w w w w w w w w w w w w w w w w w w w w w w w w w w w w w w w w w w w w w w w w w w w w w w w w w w w w w w w w w w ",
"u u u u y u t t u u 0 0 u u c u u u u u u u u u c c u c c c c c u u u u u y t t u u 0 0 u u u u u u u u u u u u c c u c c c c c ",
"u u y c u u t t y u 0 0 u u u u u u u u u v u u c c c u c c c c u u y u u y t t u y 0 0 u u u c u c u u u u c u c c c u c v c v ",
"v c v v u y t t v v 0 0 y y c c v u v u v v u c c c v b b b n n c c v v y u t t v v 0 0 t t c c c c c c c c c c c c v n n n n n ",
"c c v v y u t t v v 0 0 t y c c v u v v u v v c c c b b b b b b c c v b u u t y v v 0 0 y t c c c c c c c c c c c c n v n v n n ",
"u u u u u u u u c u w 8 c c c c u v u u u u u u c v u u u y y y u y u u u u u y u u 0 0 c c c c c c u u u u u u v c u u u u t t ",
"u t u u u u u y u u 8 8 c c c c v v u u u u u u v c u u u u y y 0 ; O O O ; 8 u u u 0 0 c c c c c c u u u u u u c v u u u u y y ",
"w w w w w w w w w w w w w , * , w w w w w w w w w w w w w w w ;               ; w w w w w w w w w w w w w w w , * , w w w w w w ",
"w w w w w w w w w w w w ,       , w w w w w w w w w w w w w w @    .7.7.7.+.  O w w w w w w w w w w w w w w ,       , w w w w w ",
"n n u u u u u u u u v c , O _ i , u c c u u v c c c u u u u 0 * # f N N ' >.o # u u c c u u u u u u c c c u 8 O ` p 8 u u u 0 0 ",
"t n * O * # O * 8 u c 8 # O ,.L o ; ; 8 c 8 ; # > 0 0 ; # O o , r 0 o o U >.o # u u c u ; O * @ O * 0 c c , ; O <.K o * # , 0 0 ",
"@ r @ e K W s O O 0 8 $ B x 1._ B x B $ q @ h B d # O i B a   o v b n * U >.O * c c c ; O e K W s O @ 0 w # z M 2.` B B B * # 8 ",
"@ 8 ( 5.=.:.7.$.= O ; G &.=.6.>.&.=.&.K > 4 =.<.$.# O X.:.4.    v v v * U >.O # c c c @ / 5.=.:.7.#.= O , G &.*.6.>.=.&.=.K o 0 ",
"o w ^ ^ o o 3 =.} o , O o O ,.I o o O O , O . ) %.. O . l 7.    u y n ; U >.o # u u c > Q Q o o 3 =.} O , o o o <.H o o o O # 8 ",
"w 8 , # o O o U ,.o # 0 # O ,.I # ; ; 0 u , # ( $.. # > M 6.    u u n > U >.O @ c u c w ; O O o O U >.O # , * O <.H @ # * , 0 0 ",
"*     Y +.:.2.7.1.  . w .   ,.H . w # . # w O / #.  O   j 7.    w w w . I >.  . w w *     Y @.:.2.7.1.  . w .   ,.H . w # o # w ",
"@   +.,.! V 7 D 1.  . w o   ,.H . #       @ O ) $.  O   m 6.    w w w . I >.  . w w @   +.,.! V 7 D 1.  . w     ,.H . #       # ",
"o h 7.3 . * o F 1.O   ; O . ,.L @ # 9 >.o @ * / %.O > O C 6.O O u , ; ; U >.o @ * ,   j 7.& o # o F 1.. @ 0 @ o ,.L # * 9 >.o @ ",
"o h 7.i O O O @.2..     @ . =.~ o o W 1.O O @ ~ ;.O O $  .6.o o , o O O U >.o o o .   g 7.6 o o O @.1.. o o # o =.Q @ @ Q 1.o @ ",
"8 O { 6.&.&.2.X.3.-.}   > . W 6.=.=.5.D . * O 6 3.:.=.2.;.7.&.P * ^ =.&.>.6.=.=.$.2 .   { 6.=.=.2. .3.-.} o ; o ^ 7.&.-.5.S @ 0 ",
"w O O s W S : O 6 V 7   q , @ k R U - . # t ; . 4 ^ ^ C $ x C a 8 s x B x x C B x $ #   o p W G + o 6 M h . 8 > * k W P < O > t ",
"u w , O # ; O > O # O ; t w > O ; * O * w y y ; @ # # O # O # , u , ; ; @ O * * * , 0 ; > o ; ; @ , O # ; 8 u t * o # # O * t u ",
"u u c v u u u u u u 0 q t u u v u u u u y y u u u u y t u u u u u u c c u u u u u u 0 0 t t c c c u u u y y u u y u y y u y u u ",
"w w w w w w w w w w w w w w w w w w w w w w w w w w w w q w w w w w w w w w w w w w w w w w w w w w w w w w w w w w w w w w w w ",
"w w w w w w w w w w w w w w w w w w w w w w w w w w w w w w w w w w w w w w w w w w w w w w w w w w w w w w w w w w w w w w w w ",
"u u c c u u c c u c u u u u y u u y t t u y u u u v c c t t 0 0 u u c c u u c c u u u u u u u y u u t t y u u y c c c c t t 8 w ",
"u u c c u u c c u u u u y y u u u u t t u u y u v v u c t t 0 0 u u c c u u c c c u u u u u u y y u t t u u y u c c c c t t 8 8 ",
"v v u u n v c c c c c c c c t t t t t t t t u v v c b b v v 0 0 b v u u n n c c c c c c c c t t t t t t y t c c c c n n v v w 8 ",
"v v u c n n c c c c c c c c y y t t t t t t v v u v b b v v 0 0 v v u u n n c c c c c c c c t t t t t t t y c c v c n n v v 0 0 ",
"c u c c u c u u u u c u c c c c t t u u u u u u v u v v y y 0 0 u u c c u u u c c u u u c c c c t t u u u c u u c v v v t y 0 0 ",
"u u c c c u u u u u u u c c c c t t u u u u u u v v v v y y 0 0 u u c c u u u u u u u u c c c c t y u u u u u u c c c v t t 0 0 ",
"w w w w w w w w w w w w w w w w w w w w w w w w w w w w w w w w w w w w w w w w w w w w w w w w w w w w w w w w w w w w w w w w ",
"w w w w w w w w w w w w w w w w w w w w w w w w w w w w w w w w w w w w w w w w w w w w w w w w w w w w w w w w w w w w w w w w ",
"u u u u u y t t y u 0 0 u u u u u u u u u u u u v v u v v c c c u u u u y u t y u u 0 0 u u u u u u u u u u u u c c c c c v v c ",
"8 u 8 > o # O O * t 0 # * o * r , ; O ; t u u u u v u u c c c u > O @ * , u > @ O # @ 0 0 > o # @ @ ; y u 8 * o , @ * O * 8 c c ",
"@ w @ @ A ! U 1 O , $ % N M @ * O x B $ > c v v v u b b b b n , < x B k o , & M x h   @ o o A ~ U 5 O > 8 s B N $ $ k e # # w n ",
"O * @ | 7.:.3.2.f @ . Y =.7.l O Z =.3.W O c v u v u v b b b n * ^ 4.>.&.& # Q *.6.-.% . o } 7.:.4.2.s O ; / =.7.{ 2.&.7.%.* , n ",
". . R -.5 o O R <.O .   O 7.l O O O =./ ; u u u c c u u u y y > o [ ~ o O > o O 6.$     R -.5 @ @ W ,.O @ O o 7.2.5 o - 3.V O y ",
"@ O 3.h o # O o %.R     O 7.l O ; O %./ * u u u v c u u u u y 0 o U ..o o o o 7 ,.o .   4.h O # @ @ %.R o O o 7.E O * o =.W * y ",
"  7 7.    w *   )  .  @   7.j   O   *.! O w w w w w w w q w w w . 7 >.  V } X D  .  @ g 7.    w *   ) ..  @   7.j   O   %.! O w ",
"  g 7.+   0 #   ] o.  @   7.j   O   %.! O w w w w w w w w w w w   . 7.X %.4.M ) !     7 7.%   w #   ] ..  @   7.j . O   *.! O w ",
"# * 7.U O @ O O 2./ O O O 7.l . * o =./ * 8 c c c c c u y u 0 0 > # ;.B 6./ { #.V ; O $ 7.U O @ o @ 2./ O O O 7.l O * o =.~ o # ",
"w # _ 3.f O O  .5.< @ @ O 5.A O O h 6./ O O 0 c c c u c u u 0 0 0 @  .%.%.6 <.2.< @ 0 O _ 2.f O + } 3.< @ O O 7.l O O O &.~     ",
"t O $ @.7.;.4.5.B O > , O ' 5.=.=.3.2.<.@.: ; u b b c c b v 0 0 w @ ^ 7.W O ,.2.O # r O $ @.7.:.5.5.C O > R =.7.:.[ l &.5.1.+.X ",
"v t @ @ Z ^ T 5 O > t w O O B / P 2 a B C # 0 u b b c c v v 0 0 b w : T @ O i C O > v w O O C ~ P 3 O > 0 a z M C k 4 x x V m   ",
"u u w , O # O O * t c c w , O ; * @ # # ; 8 u y y y u u u u 0 0 u r > # * > @ @ > y c v 0 ; . # O O > y u , * o @ > q # O @ O # ",
"t u n n u u u u u u v v u u u u u u c c u u y u y y y u u u 0 0 y u b b u u u u u u c c u u u u u u v c u u u u y t u u u u 0 q ",
"w w w w w w w w w w w w w w w w w w w w w w w w q w w w w w w w w w w w w w w w w w w w w w w w w w w w w w w w w w w w w w w w ",
"w w w w w w w w w w w w w w w w w w w w w w w q w w w w w w w w w w w w w w w w w w w w w w w w w w w w w w w w w w w w w w w w ",
"u u v u u u u u u u 0 0 t t t y y u y t y u u u c c c c u u u u u y c c u u u u u u 0 0 t t u t y u t t u u y u v u c c u u u u ",
"y u c v u u t y u y 0 0 t t u u u y y t u y y y c c c c u u y u y u c c u u u u y u 0 0 t t u u u y t y y y u y c v c c u u u u ",
"u v u v v u v b u v 0 0 u u v v t t t y y t t y b b n n c c v v c c c c c c v v c c 0 0 t u v v y y t t y y y t b b n n c c v v ",
"c c v u v v v b v u 0 0 u u v b t t y y t y t t b b n n c c b v c c c c c c b v c c 0 0 y u v b t t t t t y y y b b n n c c v b ",
"u u v u u y u u u u 0 0 t t u v u c y u t y u u c u t t u u u u u u c c y u u u u u q 0 y y c c u c y u y t u u u y y y u y u u ",
"u u v v u u u u u u 0 0 t t c v c c u y t y u c u u y t u u u u u u c c u y u u u u 0 0 t y c c c u y u y y u u y u y u y u u u ",
"w w w w w w w w w w w w w w w w w q w w q w w w w w q q w w w w w w w w w w w w w w w w q w w w w w w w w w w w w w w w w w w w ",
"w w w w w w w w w w w w w w w w w w w w w w q w w w w w w w w w w w w w w w w w w w q w w w w w w w w w w w w w w w w w w w w w "
};
