/* XPM */
static char *result[] = {
/* columns rows colors chars-per-pixel */
"64 64 179 2 ",
"   c black",
".  c #000F0F",
"X  c #001212",
"o  c #001313",
"O  c #001E1E",
"+  c #002222",
"@  c #002323",
"#  c #002424",
"$  c #002626",
"%  c #002B2B",
"&  c #002F30",
"*  c #003030",
"=  c #003131",
"-  c #003232",
";  c #003333",
":  c #003535",
">  c #003A3A",
",  c #003B3B",
"<  c #003B3C",
"1  c #003C3C",
"2  c #003D3D",
"3  c #003E3E",
"4  c #003E3F",
"5  c #004040",
"6  c #004041",
"7  c #004242",
"8  c #004343",
"9  c #004545",
"0  c #004848",
"q  c #004949",
"w  c #004B4B",
"e  c #004C4C",
"r  c #004D4D",
"t  c #004E4E",
"y  c #004F50",
"u  c #005151",
"i  c #005152",
"p  c #005252",
"a  c #005353",
"s  c #005454",
"d  c #005555",
"f  c #005556",
"g  c #005656",
"h  c #005657",
"j  c #005758",
"k  c #005858",
"l  c #005959",
"z  c #00595A",
"x  c #005A5A",
"c  c #005B5B",
"v  c #005B5C",
"b  c #005C5C",
"n  c #005C5D",
"m  c #005D5E",
"M  c #005E60",
"N  c #005F60",
"B  c #005F61",
"V  c #006060",
"C  c #006061",
"Z  c #006161",
"A  c #006162",
"S  c #006262",
"D  c #006263",
"F  c #006363",
"G  c #006364",
"H  c #006365",
"J  c #006464",
"K  c #006465",
"L  c #006565",
"P  c #006566",
"I  c #006666",
"U  c #006667",
"Y  c #006767",
"T  c #006768",
"R  c #006769",
"E  c #006868",
"W  c #006869",
"Q  c #006969",
"!  c #00696A",
"~  c #006A6A",
"^  c #006A6B",
"/  c #006B6B",
"(  c #006A6C",
")  c #006B6C",
"_  c #006C6D",
"`  c #006D6E",
"'  c #006D6F",
"]  c #006E6E",
"[  c #006F6F",
"{  c #006F70",
"}  c #006F71",
"|  c #007070",
" . c #007071",
".. c #007171",
"X. c #007172",
"o. c #007173",
"O. c #007272",
"+. c #007273",
"@. c #007374",
"#. c #007375",
"$. c #007474",
"%. c #007475",
"&. c #007575",
"*. c #007576",
"=. c #007676",
"-. c #007677",
";. c #007777",
":. c #007778",
">. c #007878",
",. c #007879",
"<. c #007979",
"1. c #00797A",
"2. c #00797B",
"3. c #007A7A",
"4. c #007A7B",
"5. c #007B7B",
"6. c #007B7C",
"7. c #007B7D",
"8. c #007C7C",
"9. c #007C7D",
"0. c #007D7E",
"q. c #007D7F",
"w. c #007E7F",
"e. c #007F7F",
"r. c #007F80",
"t. c #007F81",
"y. c #008080",
"u. c #008081",
"i. c #008182",
"p. c #008282",
"a. c #008383",
"s. c #008384",
"d. c #008385",
"f. c #008485",
"g. c #008486",
"h. c #008586",
"j. c #008687",
"k. c #008787",
"l. c #008788",
"z. c #008888",
"x. c #008889",
"c. c #008989",
"v. c #00898A",
"b. c #008A8A",
"n. c #008A8B",
"m. c #008B8C",
"M. c #008C8C",
"N. c #008C8D",
"B. c #008D8E",
"V. c #008E8E",
"C. c #008E8F",
"Z. c #008F90",
"A. c #009091",
"S. c #009192",
"D. c #009292",
"F. c #009293",
"G. c #009393",
"H. c #009294",
"J. c #009394",
"K. c #009495",
"L. c #009596",
"P. c #009696",
"I. c #009697",
"U. c #009797",
"Y. c #009798",
"T. c #009899",
"R. c #009A9B",
"E. c #009B9B",
"W. c #009B9C",
"Q. c #009C9C",
"!. c #009C9D",
"~. c #009D9E",
"^. c #009E9F",
"/. c #009FA0",
"(. c #00A0A0",
"). c #00A0A1",
"_. c #00A1A3",
"`. c #00A2A4",
"'. c #00A3A4",
/* pixels */
"v v M M c c N N v v v v z z z z z z h h z z z z N N N N h h 8 8 v v M M c c N N v v v v z z z z z z h h z z z z N N N N h h 8 8 ",
"v v M M c c N N v v v v z z z z z z h h z z z z N N N N h h 8 8 v v M M c c N N v v v v z z z z z z h h z z z z N N N N h h 8 8 ",
"D D v v R R N N N N N N N N h h h h h h h h N N C C R R D D 8 8 D D v v R R N N N N N N N N h h h h h h h h N N C C R R D D 8 8 ",
"D D v v R R N N N N N N N N h h h h h h h h N N C C R R D D 8 8 D D v v R R N N N N N N N N h h h h h h h h N N C C R R D D 8 8 ",
"v v N N n n v v v v v v N N N N h h v v v v v v C C A A h h 8 8 v v N N n n v v v v v v N N N N h h v v v v v v C C A A h h 8 8 ",
"v v N N n n v v v v v v N N N N h h v v v v v v C C A A h h 8 8 v v N N n n v v v v v v N N N N h h v v v v v v C C A A h h 8 8 ",
"w x x x x x r q q q q q q r x x x x g q q q q q q q q q q q q q w x x x x x r q q w x x p q q q g x x x x p q q q q q p x x x x ",
"e.z.z.z.z.z.z.O.q q q q O.z.z.z.z.z.z.5.q q q q q q q q q q q s e.z.z.z.z.z.z.O.s e.z.z.z.=.q 5.z.z.z.z.z.z.=.q q q =.z.z.z.z.z.",
"T.8.5.5.5.5.B.K.m z 8 0 T.S.8.8.8.8.s.T.1.v v v N N m m B B B C.T.8.5.5.5.5.B.K.x.U.~ ~ n.T.1.T.s.8.8.8.8.n.T.! N ` R.N.r.r.r.r.",
"T.          ,.K.^ z 8 s T.8.        2 T.x.v v v N N m m B B B !.T.          ,.K.U.U.    J T.x.T.2         J T.,.0.M.R.P         ",
"Q.          ,.K.+.D 8 s K.,.        3 Q.M.N N N N N P P R R W '.Q.          ,.K.^.^.    Z K.M.Q.3         I Q.0.Q.Q.).!         ",
"Q.          ,.K.+.D 8 s K.,.        3 Q.M.N N N N N P P R R W '.Q.          ,.K.^.^.    Z K.M.Q.3         I Q.V.Q.3 6 $     ) h.",
"U.          5.U._ v 8 s Q.e.        2 T.x.v v v C C v v z z j L.U.          5.U.T.T.    I Q.M.Q.3         J T.T.!.          1.L.",
"U.          5.U._ v 8 s Q.e.        2 T.x.v v v C C v v z z j L.U.          5.U.T.T.    I Q.M.Q.3         J T.T.!.          1.L.",
"z.          ] z.x q q x z.]         : z.;.q q q q q q q q q q z.z.          ] z.z.z.    l z.;.z.:         l z.z.z.          ] z.",
"z.          ] z.x q q x z.]         : z.;.q q q q q q q q q q z.z.          ] z.z.z.    l z.;.z.:         l z.z.z.          ] z.",
"'.          8.T._ v N | T.8.        3 Q.n.m B B B B v v z z 8 a.'.          8.T.T.T.    J T.x.T.2         P !.!.!.          ~ a.",
"'.          8.T._ v N | T.8.        3 Q.n.m B B B B v v z z 8 a.'.          8.T.T.T.    J T.x.T.2         P !.!.!.          ~ a.",
"/.          e.Q.| N N | Q.e.        3 Q.A.P v v W W N N H H 8 a./.          e.Q.Q.Q.    I Q.x.T.3         ! T.T.'.          ~ a.",
"/.          e.Q.| N N | Q.e.        3 Q.A.P v v W W N N H H 8 a./.          e.Q.Q.Q.    I Q.x.T.3         ! T.T.'.          ~ a.",
"U.          8.T._ v C  .T.8.        4 !.x.v z z j j z z v v 8 a.U.          8.T.T.T.    J T.T.T.2         J U.U.L.          ~ a.",
"U.          8.T._ v C  .T.8.        4 !.x.v z z j j z z v v 8 a.U.          = 2 2 2     @ 2 2 2 X         J U.U.L.          ~ a.",
"z.          ] z.x q q x z.]         : z.;.q q q q q q q q q q z.z.                                        l z.z.z.          ] z.",
"z.          ] z.x q q x z.]         : z.;.q q q q q q q q q q z.z.                                        l z.z.z.          ] z.",
"U.          5.U.-.-.Z Z F.;.        , K.k.z z z B B B B v v z U.U.              1 U.a.a.F.;.              F U.U.!.          5.U.",
"U.          5.U.U.U.a.a.F.;.        , K.k.z z z B B B B v v z U.U.              1 U.a.a.F.;.              F U.U.!.          5.U.",
"Q.I I 3     f W I I d d G u     y Z ! K.*.h h h R R W W N N H S.Q.I I 3     f W [ Q.F e Y.v.Q Q +   + Z Z ,.K.h.`.( ) 7     f W ",
"Q.Q.Q.I                         ,.K.K.J.C h h h R R W W N N H o.Q.Q.Q.I     i./.Q.E.t 8 j.Y.(.(.,   , K.K.K.m.K `.`.'.)         ",
"! ,.Q.I                         0.R.O.G h h v v z z j j z z v v ! ,.Q.I     8.T.@.P 8 8 h K N.!.3   1 U.f.T m v T -.L.A         ",
"v ! Q.Q.U.U.T.T.T.T.a.a.K.K.!.!.R.S.v z h h v v z z j j z z v v v ! Q.Q.U.U.T.Z.m v 8 8 h h q.!.R.R.U.U.*.h v v z T L.L.U.U.T.T.",
"q q k <.z.z.z.z.z.z.z.z.z.z.z.z.<.s q q q q q q q q q q q q q q q q k <.z.z.<.s q q q q q q q E <.z.<.E q q q q q q k <.z.z.z.z.",
"q q q q q q q q q q q q q q q q q q q q q q q q q q q q q q q q q q q q q q q q q q q q q q q q q q q q q q q q q q q q q q q q ",
"v v M M c c N N v v v v z z z z z z h h z z z z N N N N h h 8 8 v v M M c c N N v v v v z z z z z z h h z z z z N N N N h h 8 8 ",
"v v M M c c N N v v v v z z z z z z h h z z z z N N N N h h 8 8 v v M M c c N N v v v v z z z z z z h h z z z z N N N N h h 8 8 ",
"D D v v R R N N N N N N N N h h h h h h h h N 0.N.N.g.R D D 8 8 D D v v R R X.y.M.0.! N N N h h h h h h h C 0.M.w.^ R o.u.C.L g ",
"D D v v R R N N N N N N N N h h h h h h h h 0.Q.!.!.`.g.D D 8 8 D D v v R 2.Q.Q.Q.Q.E.! N N h h h h h h C J.Q.Q.!.W.o._.^.^.a.a.",
"v v N N n n v v v v v v N N N N h h v v v v n.T.4 4 ~.Z.h h 8 8 v v N N n 0.T.c 2 _ T.@.N N N N h h v v @.T._ 2 { !.1.~.! , r a.",
",.,.8.:.U %.,._ _ ,.,.,.` N ` 8.@.@.,.,.! v T.T.    ~.~.K K Z Z ! v A | 1.v.T.2   J T.,.! :.8.8.@.@.@.P ,.T.J   U !.0.~.Z   ; a.",
"z.z.z.z.k.z.z.z.z.z.z.z.z.=.z.z.z.z.z.z.z.=.z.z.    z.z.z.z.z.z.z.=.e.z.z.z.z.:   l z.Y k.z.z.z.z.z.z.k.k.z.l   l z.z.z.] l V z.",
"l l l V z.V l ] ] l l l z.z.8.l l l l l 8.z.8.l     l l 8.z.l l 8.z.z.] l V z.:   l z.Y z.V l l l l V z.z.V :   : l V z.] l V z.",
"2 @   1 U.1   y F 1 ; ; T.T.s.2 2 2 2   J S.s.2     3 3 k.!.    8.T.U.F   1 K.,   F a.L T.c 2 2 2 @ = s.T.c @   # 3 n R.U   4 !.",
"T.J   1 U.1   + / U.a.a.T.T.S.8.8.8.8.    8.T.T.    R.R.!.!.    8.T.U.F   1 K.,   F a.3.T.s.8.8.8.i   2 T.T.J   I Q.R.R.U   4 !.",
"Q.I   5 U.1   Z ^.~.O.O.K.k.I o 3 3 3     e.Q.Q.    ).).`.`.    e.Q./.W   1 K.,   E a.a.,.& - 3 3 #   3 Q.Q.I   I Q.F.).(   7 '.",
"Q.I   5 U.1   Z ^.w.8 Z K.Z   3 Q.Q.Q.    e.Q.Q.    ).).`.`.    e.Q./.W   1 K.,   E a.a.    e.Q.Q.I   3 Q.Q.I   I Q.).).(   7 '.",
"      2 T.2   F T.,.8 p Q.Q.e.            8.T.T.!.      5.U.L.<         2 T.U.U.J   d a.Q.3           2 T.T.T.J     2 T.F   < L.",
"U.F   2 T.T.U.U.T.! 8 8 ` G.Q.Q.Q.Q.T.T.T.T.Z.n.!.!.T.T.U.V.L.L.U.U.T.T.T.T.>.U.T.T.a.a.Q.Q.Q.Q.Q.Q.T.T.T.1.T.T.!.!.T.T.U.U.L.L.",
"z.l   : z.<.z.<.k q q q q s <.z.z.z.z.z.z.<.s s <.z.z.z.<.s E <.z.z.z.z.<.E q k <.z.<.k E <.z.z.z.z.z.<.E q k <.z.z.<.E <.z.<.E ",
": O % &.z.E q q q q q q q q q q q q q q q q q q q q q q q q q q q q q q q q q q q q q q q q q q q q q q q q q q q q q q q q q q ",
"h.h.p.U.m.v v v v v N N v v v v v v N N m m B B B B v v z G F O.x.4.z z v v v v v v N N v v v v v v N N m m B B B B v v z z F O.",
"'.'.U.b.v v v v v v N N v v v v v v N N m m B B B B v v G P.a.a.'.'.) z v v v v v v N N v v v v v v N N m m B B B B v v z b.a.a.",
"#.#.} H N N N N N N N N N N v v N N N N P P v v W W N N 7./.b ; N /.d.H N N N N N N N N N N v v N N N N P P v v W W N N } /...; ",
"t.t.t.t.8.` A | 8.8.8.8.8.8.! v ` 8.8.` P { @.,.,.^ N N t./.d   5 /.Z.t.8.` N ` 8.8.8.8.8.| m ! 8.8.` N T *.,.@.+.W N N #./.~   ",
"U.U.'.'.T.T.Z.T.T.T.!.!.T.T.T.l.T.T.!.!.! Y.U.U.L.N.v z ,.T.d   1 U.'.'.T.T.l.T.T.T.!.!.T.T.Z.T.T.T.!.m.Z.T.U.U.K.A z v Z.T.~   ",
"F F ) ) J T.T.8.J J U U J J n.T.n.J U !.n.T./ F 1.L.^ z ,.T.d   1 U.'.) J n.T.T.J J U U J 8.T.T.J J C.!.T.8.F / L.-.z ^ T.8.9   ",
": : : %   ] z.l   . : : :   l p.]     z.z.z.:   l z.Y q Y z.l   : p.]   : &.p.]   : : : . 0 8.z.    ] z.z.l   : z.;.q S z.V %   ",
"] ] ] l     z.l   : z.z.z.    ] ]     z.z.z.:   l z.Y q Y z.l   % l   : z.z.]     ] ] ] %   l z.    ] z.z.l   : z.;.q a k.z.]   ",
"@ 1 3 -     U.F   1 a.a.F.    5.5.    K.U.U.1   U !.9.B ,.T.F   X *   e.T.T.5.    1 ; ; > > / U.    ,.K.U.F   1 !.N.B B _ T.5.  ",
"F U.Q.e.    U.F   1 a.a.F.    5.5.    K.U.U.1   U !.9.B ,.T.F   1 5.    T.T.5.    U.a.a.F.F.U.U.    ,.K.U.F   1 !.N.B B _ T.5.  ",
"            /.W   3 a.a.Y.    p.K.K.            ( `.f.W 8.Q.W   3 Q.Q.    e././.          G (.(.K.,           , `.H.W W A G./.i.",
"Q.Q.Q.Q.Q.Q././.Q.Q.a.$.Y.Y.(.(.m.K.K.K.K.K.,   ( `.f.W ` Q././.Q.Q.Q.Q.Q.Q.I./.Q.Q.a.a.Y.Y.(.D.K.K.K.K.K.Z   , `.H.W W N ~ I./.",
"T.T.Q.Q.U.U.n.n.T.n.F t h.K.!.C.6.R.U.U.K.K.2   F U.%.j z T n.T.n.1.V.Q.U.x.U n.T.T.a.a.K.h.' o.R.R.U.U.K.Z   2 U.k.j j z z U n.",
"v v N N z z v v v v 8 8 h h B B n.R.1 1 , , X i c.U.P j z z v v v v N N z z v v v v 8 8 h h B u.R.n 1 1 , + = s.U.>.j j z z v v ",
"q q q q q q q q q q q q q q q q E z.] ] ] ] ] 8.z.=.q q q q q q q q q q q q q q q q q q q q q b z.&.] ] ] ] &.z.5.q q q q q q q ",
"q q q q q q q q q q q q q q q q w e.z.z.z.z.z.z.=.q q q q q q q q q q q q q q q q q q q q q q q 5.z.z.z.z.z.z.5.q q q q q q q q "
};
