/* XPM */
static char *result[] = {
/* columns rows colors chars-per-pixel */
"64 64 96 2 ",
"   c #001515",
".  c #011D1D",
"X  c #0A1E1E",
"o  c #001F20",
"O  c #002223",
"+  c #0C2020",
"@  c #002628",
"#  c #002B2C",
"$  c #0B2C2D",
"%  c #112525",
"&  c #122D2E",
"*  c #192A2A",
"=  c #002F30",
"-  c #003334",
";  c #003739",
":  c #003B3C",
">  c #143233",
",  c #1C3535",
"<  c #153738",
"1  c #12393A",
"2  c #1C3939",
"3  c #233535",
"4  c #233D3D",
"5  c #283A3A",
"6  c #263F40",
"7  c #004343",
"8  c #004748",
"9  c #004949",
"0  c #1D4142",
"q  c #004F50",
"w  c #005657",
"e  c #005758",
"r  c #005A5B",
"t  c #254344",
"y  c #2C4343",
"u  c #294648",
"i  c #2E4B4C",
"p  c #354646",
"a  c #324D4D",
"s  c #384848",
"d  c #335354",
"f  c #3B5455",
"g  c #3C5758",
"h  c #3C5A5B",
"j  c #005F60",
"k  c #006263",
"l  c #006769",
"z  c #006869",
"x  c #415353",
"c  c #415B5C",
"v  c #405F60",
"b  c #466163",
"n  c #4A6363",
"m  c #566B6B",
"M  c #596E6E",
"N  c #5D7374",
"B  c #637677",
"V  c #647B7C",
"C  c #6E8080",
"Z  c #738484",
"A  c #7A8585",
"S  c #75898A",
"D  c #7B8B8B",
"F  c #828C8C",
"G  c #808F90",
"H  c #839293",
"J  c #8B9595",
"K  c #8F9C9C",
"L  c #919F9F",
"P  c #909FA0",
"I  c #93A1A1",
"U  c #99A4A4",
"Y  c #97A8A9",
"T  c #9EA9A9",
"R  c #A0AAAA",
"E  c #A4AFB0",
"W  c #A7B2B2",
"Q  c #ABB5B6",
"!  c #AFB9B9",
"~  c #B5BCBC",
"^  c #B7C0C0",
"/  c #BCC3C3",
"(  c #BEC9C9",
")  c #C2CACA",
"_  c #CCD2D2",
"`  c #D0D6D7",
"'  c #D3DADA",
"]  c #DBDFDF",
"[  c #DCE0E1",
"{  c #E1E5E5",
"}  c #E6E9EA",
"|  c #EBEDED",
" . c #EEF1F1",
".. c #F3F5F5",
"X. c #F7F8F8",
"o. c #FEFEFE",
/* pixels */
"r r j j r r k k r r r r r r e r r r e w e r e r j j j j w w 7 7 r r j j r r j j r r r r r e r e r e w w r r e r j j j j w w 7 7 ",
"r r j j r r r k r r r r r r e r e e w w r e r r j j j j e e 7 7 r r j j r r j j r r j r r r r e e r w w e r r e j j j j w w 7 7 ",
"k k r r l l j k j j j j k r e e w w e e e w r j k j z z k k 7 7 k k r r z z j j j j j j j j w w w w w w w w j j j j z z k k 7 7 ",
"k k r r z z r k j j j j j r w e w w w e e w j j j k z k k j 7 7 k k r r z z j j j j j j j j w w w w w w w w j j j k z z k k 7 7 ",
"r r j j r r r r r r r r j j j j e e r r r r r r j k j k e e 7 7 r r j j r j r r r r r r j j j j w w j r r r j r k j j k w w 7 7 ",
"r r j k r j r r r r r r j j j j e e r r j r r r j j k k w w 7 7 r r j j r r r r r r j r j j j k w w r r r r r r j j k j w w 7 7 ",
"9 9 9 9 9 9 9 9 9 9 9 9 9 9 9 9 9 9 9 9 9 9 9 9 9 9 9 9 9 9 9 9 9 9 9 9 9 9 9 9 9 9 9 9 9 9 9 9 9 9 9 9 9 9 9 9 9 9 9 9 9 9 9 9 ",
"9 9 9 9 9 9 9 9 9 9 9 9 9 9 9 9 9 9 9 9 9 9 9 9 9 9 9 9 9 9 9 9 9 9 9 9 9 9 9 9 9 9 9 9 9 9 9 9 9 9 9 9 9 9 9 9 9 9 9 9 9 9 9 9 ",
"r r r r e r w w r r 7 7 r r r r r r r r r r r r k r r r k r j j j r r r e r e w e r 7 7 r r r r r j r r j r r r j j j r j j j j ",
"r r r r r e w w r r 7 7 r r r r r r r r r r r r r k k k j k j j r r r e r e e w e r 7 7 r r r r r r r r r r r r j j r j j j j j ",
"k j k k e r e w k k 7 7 e e k j j j j j k j j j k j z k l l z z j j k k r r w e k k 7 7 w w j j j j j j j j j j j j z k z z z z ",
"j j k k r e e e k k 7 7 e e j j j j j k k j j j j j k k l l z z j k k k e e w e k k 7 7 w e j j j j j j j j j j j j k z z z z z ",
"r e r r r r r e r r 7 7 r j j j r k r r r r r r k r r r r r e e r r r r r r r r r r 7 7 j j j j j j r r r r r r k j r r r e e e ",
"e r r 7 - 7 r r r r 7 7 j j j j k k r r r j r r j k r r e r e e r e r r r r r r r r 7 7 j j j j j j r r r r r j j k r r e r e e ",
"9 9 -       - 9 9 9 9 9 9 9 9 9 9 9 9 9 9 9 9 9 9 9 9 9 9 9 9 9 9 9 9 9 9 9 9 9 9 9 9 9 9 9 9 9 9 9 9 9 9 9 9 9 9 9 9 9 9 9 9 9 ",
"9 9 @ X R x # 9 9 9 9 9 9 9 9 9 9 9 9 9 9 9 9 9 9 9 9 9 9 9 9 9 9 9 9 9 9 9 9 9 9 9 9 9 9 9 9 9 9 9 9 9 9 9 9 9 9 9 9 9 9 9 9 9 ",
"z z - @ ~ n - r j r j j r r r j r r k j r r k j k r r r r r 7 7 z z r r r r r j r r j j r j r r r r j j r j j j j j r r r r 7 7 ",
"z 9 # O . o 7 r r r j r - O O # o : 9 j 7 = @ - - = # @ # w 7 7 7 - o # = O o - 9 r j j r r r r j r j j j r j j j j r r r e 7 7 ",
"7 1 v c h $ O 9 j j r : O 0 B Z n O O 9 $ c c t @ 0 a $ @ ; 7 @ @ @ h V Z f u i O 9 j j k j r r j j j j k z r r z z j j k k 7 7 ",
"- D ( ) } I @ : j k - O a  . .` o.L O 7 0 ( { _ ) ' ] ..n @ @ . 1 ' X.' _ X.o.L O 7 j j j j j r j j j j z z r r z z j j k k 7 7 ",
": o @ # R T o ; r r # $ } B O o 4 ` N @ O o G o.H o o H ) O . O D ^ # @ o $ [ L O ; k j r r r r r r k j r r r e e e r r j r 7 7 ",
"r : : # R Y O ; r 7 O D ! o - = o g } O @ o G } O . o c | O   . B _ d # o o M c o 9 k j r r r r r r j k r r r r e e e r r r 7 7 ",
"9 9 @   R U   @ 9 O   ! A   - 9   X o.3     F ^   O   x ..    ; X A ] X.) J s     - 9 9 9 9 9 9 9 9 9 9 9 9 9 9 9 9 9 9 9 9 9 9 ",
"9 9 O   R U   @ 9 O   ! J   # 9   * o.5     F ~   O   x X.      + %   s A L ..J   # 9 9 9 - @ - 9 9 9 9 9 9 9 9 9 9 9 9 9 9 9 9 ",
"9 : - O E Y o - : :   F { . o # o C X.. O o H ^ @ - : c X.o O o K _ @ O O O 2 o.& O 7 7 : . O . 7 q w w e r r e j j k j r r r r ",
"o o O O T U o o o :   * ..L . O a | D o o o H ~ O O @ c X.O o o I o.H $ O o g ..O O 7 7 = , W B o # w w r r e e j k j k r r e r ",
"@ H ) ( | } ) ( g = -   n .. .' o.Q + - & ^ {  .( d Y ` o.) N @ I _  .X.) ) ` c @ - 7 7 o c o.o.2 . w e e e e w z z z z j j k k ",
"O a h c c c h c 2 7 : . o 2 V S c . o : O x x x v 1 d v c h t @ a 2 < N Z a @ @ ; r 7 7 7 o c X.6 o w w w w e e k z z z j j l k ",
"9 : - - O @ = = : r 7 7 # o @ = O - 7 r ; # @ @ = : - @ O # : 9 ; # @ @ # # # : r r 7 - . o I _ o = e r e w r r r r e e r e r r ",
"r r j k e r r r r r 7 7 e e j j j r r r e e r r r r e e r r r r r r j k r r r r r r 7 @ o T ` u O : r e e e r r e r e e e r r r ",
"9 9 9 9 9 9 9 9 9 9 9 9 9 9 9 9 9 9 9 9 9 9 9 9 9 9 9 9 9 9 9 9 9 9 9 9 9 9 9 9 9 9 9 -         # 9 9 9 9 9 9 9 9 9 9 9 9 9 9 9 ",
"9 9 9 9 9 9 9 9 9 9 9 9 9 9 9 9 9 9 9 9 9 9 9 9 9 9 9 9 9 9 9 9 9 9 9 9 9 9 9 9 9 9 9 9 - @ o # 9 9 9 9 9 9 9 9 9 9 9 9 9 9 9 9 ",
"r r j r r r j j r r r r e r r e r e w w r e r r j j j j e e 7 7 r r j j r r j j r j r r r r r e r r w w r r e r j j j j w w 7 7 ",
"r r j j j r j j r r r r r e r e r e w w r r e r j j j j w e 7 7 r r j j r r j j r r r r r e e r r e w w e r r e j j j j w w 7 7 ",
"k k r r z z j j j j j j j j w w e w w w e w j j j j l l j k 7 7 k k j r z z j j j j j j j j w w w w w w w w j j j j z z k k 7 7 ",
"k k r r z z j j j j j j j j e e w w w w e w j j j k l l k k 7 7 k k r r z z j j j j j j j j w w w w w w e e j j j k z z k k 7 7 ",
"r r k j j r r r r r j r j j j j e w r r r r r r j j k k e e 7 7 r r j j r r r r r r j r j j j j w w r r r r r r k j j k w w 7 7 ",
"r r r - @ - 9 r r r r r j k j j w w r r r r r r k j k k e e 7 7 r r j j r r j r r r r r j j j j w w r r r j r r j j k j w w 7 7 ",
"9 9 @         : 9 9 9 9 9 9 9 9 9 9 9 9 9 9 9 9 9 9 9 9 9 9 9 9 9 9 9 9 9 9 9 9 9 9 9 9 9 9 9 9 9 9 9 9 9 9 9 9 9 9 9 9 9 9 9 9 ",
"9 9   y | K   # 9 9 9 9 9 9 9 9 9 9 9 9 9 9 9 9 9 9 9 9 9 9 9 9 9 9 9 9 9 9 9 9 9 9 9 9 9 9 9 9 9 9 9 9 9 9 9 9 9 9 9 9 9 9 9 9 ",
"j r O M o._ . @ r r 7 7 r r r r r r r r r r r r j j r r k j j j r j r r e r e w e r 7 7 r r r r j r r r j r r r j j r j j j j j ",
"r r . n o.) o # r r 7 7 r r r r r r r r r r r r j j r j j j j j r r r e r e e w r e 7 7 r r r r r r r r r r r r j j j j j j j j ",
"j j @ n o./ . # k k 7 7 e e r j j j j j j j k k j j k l l l z z j k k k r r e e k k 7 7 w w j j j j j j j j j j j j z k z z z z ",
"j j @ v o.^ . = k k 7 7 e e j j j j j j j j j j j j l l l l z z j k k k e e w e k k 7 7 w e j j j j j j j j j k j j k z k z z z ",
"r e . f o.Q o - r r 7 7 r k k r k k r r r r r r k j r r r e e e r e r r r r r r r r 7 7 j j j j j j r r r r r r k j r r r e e e ",
"r r O a o.W o - r r 7 7 k r k k r k r r r r r r j j r r e r e e e r r r r r r r r r 7 7 j j j j j j r r r r r r j k r r r r e e ",
"7 9   5 o.T   @ 9 9 9 9 9 9 9 9 9 9 9 9 9 9 9 9 9 9 9 9 9 9 9 9 9 9 9 9 9 9 9 9 9 9 9 9 9 9 9 9 9 9 9 9 9 9 9 9 9 9 9 9 9 9 9 9 ",
"9 9 . X D x   - 9 9 9 9 9 9 9 9 9 9 9 9 9 9 9 9 9 9 9 9 9 9 9 9 9 9 9 9 9 9 9 9 9 9 9 9 9 9 9 9 9 9 9 9 9 9 9 9 9 9 9 9 9 9 9 9 ",
"z z 7 O o O 7 r r r j j r r r r j r j j r j j j j j j r e r 7 7 z l e r r r r r r r j j r r j r r r j j r j j j j j r r r r 7 7 ",
"9 z - 2 Q N o : r j j j r r r r r r j j r j j k j j r r r e 7 7 z l r r r r r r r r j j r r r r r j j j j r j j j j r r r e 7 7 ",
": k @ b o./ O - j j j j j j r j j j j j l k r r z l j j k l 7 7 k k k l k j j j k j j j j j r r j j j j k z r r z z j j k k 7 7 ",
"9 k - @ f > O 7 j j j j j j r r j j j j k l r r z l j j k l 7 7 l k k k j j j k j j j j j j r r j j j j z z r r z z j j k k 7 7 ",
"r e j ; o - 7 e r r k j r r r r r r j j r r e r e e r e r r 7 7 r r l l r r r r r r k k r r r r r r k j r r r e e e r r j r 7 7 ",
"e r l l r r r r r r j k r r r j r r k j r r r r e e r r r r 7 7 e r l l r r r r r r k j r r r j r r j k r r r r e e r r r r 7 7 ",
"9 9 9 9 9 9 9 9 9 9 9 9 9 9 9 9 9 9 9 9 9 9 9 9 9 9 9 9 9 9 9 9 9 9 9 9 9 9 9 9 9 9 9 9 9 9 9 9 9 9 9 9 9 9 9 9 9 9 9 9 9 9 9 9 ",
"9 9 9 9 9 9 9 9 9 9 9 9 9 9 9 9 9 9 9 9 9 9 9 9 9 9 9 9 9 9 9 9 9 9 9 9 9 9 9 9 9 9 9 9 9 9 9 9 9 9 9 9 9 9 9 9 9 9 9 9 9 9 9 9 ",
"e r j j r r e r r r 7 7 e w e e e r w w e r r e j j j j r r r r r r j j r r r r r e 7 7 w w r e r e e w e r r e r k j j r r r r ",
"r r j j r r r r e r 7 7 w w e e r e e w e r e r j j j j r r r r r e j j r r r r r r 7 7 q w r e r e w w r r e e r k j j r r r r ",
"j j j j j j l k j j 7 7 r r k k w w w w e w w w l l z z j j k k r k j j r j k k j j 7 7 r r k l e w w w e e e w z z z z j j k k ",
"j j j j j j k k j j 7 7 r r k k w w w w w w w w l l z z j j k k k r j j k k k k j j 7 7 r r k k w w w w w w e e z z z z j j l k ",
"r r j j r e r r r r 7 7 r e j j j r r r w e r r r r e e r r r r r r j j r e r r r r 7 7 w e j j r j e r w w r r e r e e e r r r ",
"r r j j r r r r r r 7 7 e e j j r j e r w e r r r r e e r r r r r r j j r r r r r r 7 7 w e j j j r r e e e r r r r e e r e r r ",
"9 9 9 9 9 9 9 9 9 9 9 9 9 9 9 9 9 9 9 9 9 9 9 9 9 9 9 9 9 9 9 9 9 9 9 9 9 9 9 9 9 9 9 9 9 9 9 9 9 9 9 9 9 9 9 9 9 9 9 9 9 9 9 9 ",
"9 9 9 9 9 9 9 9 9 9 9 9 9 9 9 9 9 9 9 9 9 9 9 9 9 9 9 9 9 9 9 9 9 9 9 9 9 9 9 9 9 9 9 9 9 9 9 9 9 9 9 9 9 9 9 9 9 9 9 9 9 9 9 9 "
};
