/* XPM */
static char *result[] = {
/* columns rows colors chars-per-pixel */
"64 64 159 2 ",
"   c black",
".  c #000E0E",
"X  c #000F0F",
"o  c #001212",
"O  c #001313",
"+  c #001E1E",
"@  c #002323",
"#  c #002425",
"$  c #002B2B",
"%  c #003030",
"&  c #003131",
"*  c #003232",
"=  c #003233",
"-  c #003333",
";  c #003535",
":  c #003B3B",
">  c #003C3C",
",  c #003D3D",
"<  c #003E3E",
"1  c #003E3F",
"2  c #003F40",
"3  c #004040",
"4  c #004041",
"5  c #004343",
"6  c #004545",
"7  c #004848",
"8  c #004949",
"9  c #004B4B",
"0  c #004D4D",
"q  c #004E4E",
"w  c #005152",
"e  c #005252",
"r  c #005454",
"t  c #005455",
"y  c #005555",
"u  c #005656",
"i  c #005657",
"p  c #005758",
"a  c #005858",
"s  c #005959",
"d  c #00595A",
"f  c #005A5A",
"g  c #005A5B",
"h  c #005B5B",
"j  c #005B5C",
"k  c #005C5C",
"l  c #005C5D",
"z  c #005D5D",
"x  c #005D5E",
"c  c #005E60",
"v  c #005F60",
"b  c #005F61",
"n  c #006060",
"m  c #006061",
"M  c #006161",
"N  c #006162",
"B  c #006263",
"V  c #006363",
"C  c #006364",
"Z  c #006365",
"A  c #006464",
"S  c #006465",
"D  c #006565",
"F  c #006566",
"G  c #006666",
"H  c #006667",
"J  c #006767",
"K  c #006768",
"L  c #006769",
"P  c #006868",
"I  c #006869",
"U  c #006969",
"Y  c #00696A",
"T  c #006A6A",
"R  c #006A6B",
"E  c #006B6B",
"W  c #006B6C",
"Q  c #006C6D",
"!  c #006D6E",
"~  c #006E6E",
"^  c #006F6F",
"/  c #006F71",
"(  c #007070",
")  c #007071",
"_  c #007172",
"`  c #007173",
"'  c #007272",
"]  c #007273",
"[  c #007374",
"{  c #007375",
"}  c #007474",
"|  c #007475",
" . c #007575",
".. c #007576",
"X. c #007676",
"o. c #007677",
"O. c #007777",
"+. c #007778",
"@. c #007879",
"#. c #007979",
"$. c #00797A",
"%. c #007A7A",
"&. c #007A7B",
"*. c #007B7B",
"=. c #007B7D",
"-. c #007C7C",
";. c #007C7D",
":. c #007D7E",
">. c #007E7F",
",. c #007F7F",
"<. c #007F80",
"1. c #007F81",
"2. c #008080",
"3. c #008181",
"4. c #008182",
"5. c #008282",
"6. c #008283",
"7. c #008383",
"8. c #008384",
"9. c #008385",
"0. c #008485",
"q. c #008486",
"w. c #008586",
"e. c #008687",
"r. c #008787",
"t. c #008788",
"y. c #008888",
"u. c #008889",
"i. c #008989",
"p. c #008A8A",
"a. c #008A8B",
"s. c #008B8C",
"d. c #008C8C",
"f. c #008C8D",
"g. c #008E8E",
"h. c #008E8F",
"j. c #008F90",
"k. c #009090",
"l. c #009192",
"z. c #009292",
"x. c #009293",
"c. c #009393",
"v. c #009394",
"b. c #009495",
"n. c #009595",
"m. c #009596",
"M. c #009797",
"N. c #009798",
"B. c #009899",
"V. c #009A9B",
"C. c #009C9C",
"Z. c #009C9D",
"A. c #009E9F",
"S. c #009FA0",
"D. c #00A0A0",
"F. c #00A0A1",
"G. c #00A2A3",
"H. c #00A2A4",
"J. c #00A3A4",
/* pixels */
"j j c c h h v v j j j j d d d d d d i i d d d d v v v v i i 5 5 j j c c h h v v j j j j d d d d d d i i d d d d v v v v i i 5 5 ",
"j j c c h h v v j j j j d d d d d d i i d d d d v v v v i i 5 5 j j c c h h v v j j j j d d d d d d i i d d d d v v v v i i 5 5 ",
"B B j j L L v v v v v v v v i i i i i i i i v v m m L L B B 5 5 B B j j L L v v v v v v v v i i i i i i i i v v m m L L B B 5 5 ",
"B B j j L L v v v v v v v v i i i i i i i i v v m m L L B B 5 5 B B j j L L v v v v v v v v i i i i i i i i v v m m L L B B 5 5 ",
"j j v v l l j j j j j j v v v v i i j j j j j j m m N N i i 5 5 j j v v l l j j j j j j v v v v i i j j j j j j m m N N i i 5 5 ",
"j j v v l l j j j j j j v v v v i i j j j j j j m m N N i i 5 5 j j v v l l j j j j j j v v v v i i j j j j j j m m N N i i 5 5 ",
"f f f f f f f f 0 8 8 8 8 8 e f f 9 8 8 8 8 8 8 8 8 8 u f f f f 0 8 8 8 e f f f f u 8 8 8 8 8 8 8 8 8 8 8 8 8 8 8 8 8 8 8 8 8 8 ",
"y.y.y.y.y.y.y.y.y.' 8 8 8 X.y.y.y.,.r 8 8 8 8 8 8 8 *.y.y.y.y.y.y.' 8 X.y.y.y.y.y.y.*.8 8 8 8 8 8 8 8 8 8 8 8 8 8 8 8 8 8 8 8 8 ",
"-.-.*.*.*.*.@.@.k.M.7 5 Y B.a.-.-.B.a.j j j j j v :.V.w.<.<.<.<.l.B.K M.i.*.@.@.*.5.7.V j j j j j j j j j j j j v v x x b b b b ",
"                *.M.D u @.B.A     B.B.;.! j j j v d.V.<         -.B.o.M.V         > 7.' j j j j j j j j j j j j v v x x b b b b ",
"                3.A.7.7.[ b.G     C.C.C.C._ v v v d.F.4         ,.C.1.S.V         2 7.' i i v v v v v v v v v v v v F F L L I I ",
",.,.4.4.*.V     - 2 0 7.+.b.G     < < z C.2.C v v d.F.4         ,.C.1.S.V         2 7.' i i v v v v v v v v v v v v F F L L I I ",
"M.M.B.B.B.-.        - 7.d.C.G         , B.B.B.8.m f.B.,         *.M.@.B.A         , 7.' v v v v v v j j j j j j m m j j d d p p ",
"R R Q Q B.-.        - 7.d.C.G         & -.-.l.B.S f.B.,         *.M.@.B.A         , 7.' v v v v v v j j j j j j m m j j d d p p ",
"f 8 8 f y.~         ; y.O.y.s               ~ y.E O.y.;         ~ y.J y.s         ; y.O.8 8 8 8 8 8 8 8 8 8 8 8 8 8 8 8 8 8 8 8 ",
"f 8 8 f y.~         ; y.O.y.s               ~ y.y.y.y.;         ~ y.J y.s         ; y.O.8 8 8 8 8 8 8 8 8 8 8 8 8 8 8 8 8 8 8 8 ",
"@.I d R B.-.        < C.u.B.A               = 1 x Z.B.,         w.J.o.M.A         , C.d.j j j j j j v v x x b b b b j j d d 5 5 ",
"@.I d R B.-.        < C.u.B.A                   1 Z.B.,         w.J.o.M.A         , C.d.j j j j j j v v x x b b b b j j d d 5 5 ",
"{ Z Z { C.,.        < C.d.C.A         O 4 4 o   ; w.,.*         4.S.1.S.G         < C.d.v v j j v v v v F F j j I I v v Z Z 5 5 ",
"{ Z Z { C.,.        < C.d.C.A         < F.F.,                   4.S.1.S.G         < C.d.v v j j v v v v F F j j I I v v Z Z 5 5 ",
"R d I @.B.-.        1 Z.u.B.A         1 B.B.>                   *.M.0.J.A         , Z.f.j j j j j j m m j j d d p p d d j j 5 5 ",
"R d I @.B.-.        1 Z.u.B.A         1 B.B.5.*.N               *.M.@.J.a.-.-.-.-.8.Z.>.j j j j j j m m j j d d p p d d j j 5 5 ",
"f 8 8 f y.~         ; y.O.y.s         ; y.*.y.y.~               ~ y.f X.y.y.y.y.y.y.*.8 8 8 8 8 8 8 8 8 8 8 8 8 8 8 8 8 8 8 8 8 ",
"f 8 8 f y.~         ; y.O.y.s         ; y.O.f y.~               ~ y.f y.y.y.y.y.y.y.y.P 8 8 8 8 8 8 8 8 8 8 8 8 8 8 8 8 8 8 8 8 ",
"o.o.-.-.B.-.        - 7.6.x.V         : M.r.j g.Z.Z.Z.1         *.M.-.C.A         > 7.' t t d d d d i i d d d d b b b b j j d d ",
"M.M.C.C.B.-.        - 7.6.x.V         : M.r.d S h.Z.Z.1         *.M.-.C.A         > 7.' t t d d d d i i d d d d b b b b j j d d ",
"G G G G G r     r G k 7.@.N.U         : b.0.i i L q.J.| G r     ,.C.-.C.G         < 7.' g g S S i i i i i i i i L L I I v v Z Z ",
"                ,.C.7.5.+.N.U         : b.0.i i L ` G.J.C.,.    ,.C.-.C.G         < 7.' g g S S i i i i i i i i L L I I v v Z Z ",
"                -.B.z q [ b.H         > b.0.j j d d N ) M.*.    -.B.-.C.V         , 7.' i i b b x x d d i i j j d d p p d d j j ",
"B.B.C.C.M.M.B.B.B.j.6 5 S b.Z.Z.V.V.M.M.b...j j d d p d g.M.B.B.B.j.! C.M.M.B.B.B.B.7.V i i b b x x d d i i j j d d p p d d j j ",
"y.y.y.y.y.y.y.y.#.r 8 8 8 a #.y.y.y.y.#.P 8 8 8 8 8 8 8 r #.y.y.#.r 8 a #.y.y.y.y.#.P 8 8 8 8 8 8 8 8 8 8 8 8 8 8 8 8 8 8 8 8 8 ",
"8 8 8 8 8 8 8 8 8 8 8 8 8 8 8 8 8 8 8 8 8 8 8 8 8 8 8 8 8 8 8 8 8 8 8 8 8 8 8 8 8 8 8 8 8 8 8 8 8 8 8 8 8 8 8 8 8 8 8 8 8 8 8 8 ",
"j j c c h h v v j j j j d d d d d d i i d d d d v v v v i i 5 5 j j c c h h v v j j j j d d d d d d i i d d d d v v v v i i 5 5 ",
"j j c c h h v v j j j j d d d d d d i i d d d d v v v v i i 5 5 j j c c h h v v j j j j d d d d d d i i d d d d v v v v i i 5 5 ",
"B B j j L L v v v v v v v v i i i i i i i i v v m m L L B B 5 5 B B j j L L v v v v v v v v i i i i i i i i v v m m L L B B 5 5 ",
"| B j j L L v v v v v v v v i i i i i i i i v v m m L L B B 5 5 B B j j L L v v v v v v v v i i i i i i i i v v m m L L B B 5 5 ",
";.j v v l l j j j j j j v v v v i i j j j j j j m m N N i i 5 5 j j v v l l j j j j j j v v v v i i j j j j j j m m N N i i 5 5 ",
"u.Q -.-.$.$.@.Y x Q @.@.-.-.-.-.S i j Y @.@.@.@.;.) C N i i 5 5 j j v v l l j j j j j j v v v v i i j j j j j j m m N N i i 5 5 ",
",.y.y.y.y.y.y.y.,.y.y.y.y.y.y.y.y.X.a y.y.y.y.y.y.y.,.9 8 8 8 8 8 8 8 8 8 8 8 8 8 8 8 8 8 8 8 8 8 8 8 8 8 8 8 8 8 8 8 8 8 8 8 8 ",
"y.~ s s s s s y.y.~ s s s s s s -.y.y.y.s s s s s ~ y.f 8 8 8 8 8 8 8 8 8 8 8 8 8 8 8 8 8 8 8 8 8 8 8 8 8 8 8 8 8 8 8 8 8 8 8 8 ",
"8.w @ > > %   @.M.V   . , , ,   A l.l.-.  , , , < ^ V...) ) Z b j j d d d d i i d d 5 5 j j j j j j j j j j j j v v x x b b b b ",
",   V M.M.*.    M.V   - B.B.B.    -.8.,   -.-.-.,.g.V.l.Z.Z.Z.t.j j d d d d i i d d 5 5 j j j j j j j j j j j j v v x x b b b b ",
"<   I S.M.*.    A.P   - b.b.C.    ,.C.C.< < < < O r z.F.q.q.Z.J.C v Z Z d d i i B B 5 5 i i v v v v v v v v v v v v F F L L I I ",
"<   I S.M.*.    A.P   - b.b.C.    ,.C.C.C.C.C.C.<   Y F.    w.J.( v Z Z d d i i B B 5 5 i i v v v v v v v v v v v v F F L L I I ",
"M.V           M.B.A   - C.C.C.    ,.-.            H B.B.    $.m.R d j j j j d d j j 5 5 v v v v v v j j j j j j m m j j d d p p ",
"M.M.B.B.B.B.M.M.B.B.7.7.C.g.C.C.C.C.B.B.B.B.B.B.Z.Z.B.B.M.M.m.f.j d j j j j d d j j 5 5 v v v v v v j j j j j j m m j j d d p p ",
"a #.y.y.y.y.y.#.a #.y.#.P r #.y.y.#.#.y.y.y.y.y.y.#.a #.y.y.#.r 8 8 8 8 8 8 8 8 8 8 8 8 8 8 8 8 8 8 8 8 8 8 8 8 8 8 8 8 8 8 8 8 ",
"8 8 8 8 8 8 8 8 8 8 8 8 8 8 8 8 8 8 8 8 8 8 8 8 8 8 8 8 8 8 8 8 8 8 8 8 8 8 8 8 8 8 8 8 8 8 8 8 8 8 8 8 8 8 8 8 8 8 8 8 8 8 8 8 ",
"u.&.d d j j j j j j v v j j j j j j v v x x b b b b j j d d 5 5 I I d d $.u.u.$.j $.d.2.! j j j j j v v x x b b b b j j d d 5 5 ",
"J.J.W d j j j j j j v v j j j j j j v v x x b b b b j j d d 5 5 I I d p.B.B.B.B.s.B.C.C.B.! j j j j v v x x b b b b j j d d 5 5 ",
"v S.9.Z v v v v v v v v v v j j v v v v F F j j I I v v Z Z 5 5 Z Z / S.r.< < C.C.r.< z C.2.j j v v v v F F j j I I v v Z Z 5 5 ",
"3 S.j.` v ! -.-.-.-.-.( N v j j v v N ( 4.4.@.@.0.o.N ( 1.=.q 5 ` 1.1.S.,.    C.C.,.  < C.d.Y j v v v v F F j j I I v v Z Z 5 5 ",
"> M.J.J.Y B.B.B.B.B.Z.Z.j.x j j j x v.Z.B.B.M.M.m.m.g.M.B.B.5.e M.M.J.J.a.A A B.B.-.  1 B.B.B.Y j j m m j j d d p p d d j j 5 5 ",
"@ V W J.B.B.A A A A H <.B.t.j j j s.Z.<.A A V V N m.M.*.A Q 7.%.M.V W b.a.A A B.-.w   # A A B.$.j j m m j j d d p p d d j j 5 5 ",
"X ; ; y.5.~   ; ; ; X 7 -.y.a 8 P y. .7 + ; ; $   ~ y.n $ $  .y.~   $  .~     y.n $   X ; ; y.O.f f 9 8 8 8 8 8 8 8 8 8 8 8 8 8 ",
"; y.y.y.~     y.y.y.;   s y.J 8 O.y.;   7 ~ ~ s     y.y. .$ X ;   ;  .y.~     y.y.~   ; y.y.y.y.y.y.,.r 8 8 8 8 8 8 8 8 8 8 8 8 ",
"> M.C.C.-.    M.M.M.-   v x.o.d r.M.:   @ > > > 1 1 Z.Z.l.A       *.n.C.-.    M.M.*.  - x.x.M.k.*.*.b.w.d d d d b b b b j j d d ",
"> M.C.C.-.    M.M.M.-   v x.o.d r.M.:   V M.M.M.Z.Z.Z.Z.-.  % *.    ,.C.-.    M.M.*.  - x.x.M.*.    b.b.d d d d b b b b j j d d ",
"      C.C.C.          y N.N.] S ..b.b.M           H.J.W   < S.S.C.    ,.,.    S.C.C.T       D.5.    b.b.i i i i L L I I v v Z Z ",
"C.C.C.C.g.C.S.S.C.C.7.7.N.I S S i ..b.b.b.b.b.b.H.H.J.J.C.C.S.l.C.C.C.C.C.C.S.S.g.c.7.7.N.N.D.D.b.b.b.w.i i i i L L I I v v Z Z ",
"B.B.C.g.S u.B.B.B.B.7.} S i b b x x K u.b.b.B.B.M.u.F e.M.u.$.H a.B.C.g.u.M.B.a.H H } 7.b.b.h.h.V.V.u.S i i j j d d p p d d j j ",
"j j v v d d j j j j 5 5 i i b b x x d d i i j j d d p p d d j j j j v v d d j j j j 5 5 i i b b x x d d i i j j d d p p d d j j ",
"8 8 8 8 8 8 8 8 8 8 8 8 8 8 8 8 8 8 8 8 8 8 8 8 8 8 8 8 8 8 8 8 8 8 8 8 8 8 8 8 8 8 8 8 8 8 8 8 8 8 8 8 8 8 8 8 8 8 8 8 8 8 8 8 ",
"8 8 8 8 8 8 8 8 8 8 8 8 8 8 8 8 8 8 8 8 8 8 8 8 8 8 8 8 8 8 8 8 8 8 8 8 8 8 8 8 8 8 8 8 8 8 8 8 8 8 8 8 8 8 8 8 8 8 8 8 8 8 8 8 "
};
