/* XPM */
static char *result[] = {
/* columns rows colors chars-per-pixel */
"64 64 236 2 ",
"   c #17111D",
".  c #1F0C17",
"X  c #1A0E24",
"o  c #1D1324",
"O  c #18152A",
"+  c #1C1938",
"@  c #201525",
"#  c #22142A",
"$  c #27172B",
"%  c #3B172C",
"&  c #2A1933",
"*  c #2C1F3C",
"=  c #231A3A",
"-  c #2D1735",
";  c #1B223F",
":  c #2D223A",
">  c #292236",
",  c #36283A",
"<  c #3D343C",
"1  c #25121B",
"2  c #4C1B2B",
"3  c #592532",
"4  c #562630",
"5  c #4D2732",
"6  c #742B36",
"7  c #591927",
"8  c #1C1B42",
"9  c #392C41",
"0  c #3C3949",
"q  c #363C52",
"w  c #303A60",
"e  c #433B45",
"r  c #5F3B43",
"t  c #733548",
"y  c #3D4553",
"u  c #374463",
"i  c #4A4754",
"p  c #544D59",
"a  c #534D56",
"s  c #55555A",
"d  c #575559",
"f  c #464C4F",
"g  c #764B50",
"h  c #57675C",
"j  c #56705C",
"k  c #5C5662",
"l  c #4E5872",
"z  c #5E6D66",
"x  c #566274",
"c  c #646D66",
"v  c #6E7574",
"b  c #CD323D",
"n  c #CD383F",
"m  c #D0313D",
"M  c #963F49",
"N  c #CC3344",
"B  c #C53648",
"V  c #CB3947",
"C  c #D23A43",
"Z  c #99464A",
"A  c #AE4C47",
"S  c #B25978",
"D  c #B15877",
"F  c #8F6875",
"G  c #8E616D",
"H  c #D84447",
"J  c #CB4152",
"K  c #D45B5B",
"L  c #CE4D57",
"P  c #E85B57",
"I  c #F35F54",
"U  c #E95750",
"Y  c #DC635B",
"T  c #ED6255",
"R  c #EC635A",
"E  c #E6645A",
"W  c #F36154",
"Q  c #F1625A",
"!  c #EC614E",
"~  c #D06366",
"^  c #EA6865",
"/  c #F06563",
"(  c #E87777",
")  c #F17877",
"_  c #E7756C",
"`  c #DB5C62",
"'  c #79997A",
"]  c #718D74",
"[  c #7BB67B",
"{  c #73B073",
"}  c #7CAC7E",
"|  c #869B7A",
" . c #EC837A",
".. c #5C719F",
"X. c #6F7A87",
"o. c #5B72A1",
"O. c #667AA5",
"+. c #454996",
"@. c #556BCA",
"#. c #5572D5",
"$. c #556DD7",
"%. c #6274D3",
"&. c #9E6A9D",
"*. c #A97EA7",
"=. c #A4739F",
"-. c #D17689",
";. c #F27C84",
":. c #7EA481",
">. c #7D9491",
",. c #7396D8",
"<. c #7090CF",
"1. c #7DA6DC",
"2. c #7DABE5",
"3. c #74AEEA",
"4. c #7EACE9",
"5. c #7CA4E6",
"6. c #76B1E7",
"7. c #5C81D5",
"8. c #91948E",
"9. c #89A78A",
"0. c #83B583",
"q. c #8DB38D",
"w. c #94AC94",
"e. c #9AAA9B",
"r. c #97A897",
"t. c #93B393",
"y. c #9BB29B",
"u. c #94BF95",
"i. c #8DA990",
"p. c #8194AE",
"a. c #8599B4",
"s. c #A780A6",
"d. c #A980A5",
"f. c #BD8FA5",
"g. c #AEAEAE",
"h. c #A4ABA5",
"j. c #A4B1A4",
"k. c #A9B0A9",
"l. c #ABBEAC",
"z. c #A4BEA5",
"x. c #B3BDB4",
"c. c #BCBDBD",
"v. c #B7BCB8",
"b. c #AFBEB0",
"n. c #AAA59F",
"m. c #D48689",
"M. c #D18E94",
"N. c #F58487",
"B. c #F68D96",
"V. c #F6939B",
"C. c #E8918D",
"Z. c #CD98A5",
"A. c #EE9CA6",
"S. c #F59BA5",
"D. c #F99AA4",
"F. c #F695A4",
"G. c #F99CB5",
"H. c #F88FA2",
"J. c #D2A6B5",
"K. c #CFA8B2",
"L. c #EDA9B5",
"P. c #F5A2B6",
"I. c #F5A2BA",
"U. c #F6A6B7",
"Y. c #EAACB0",
"T. c #8DC28E",
"R. c #93C695",
"E. c #9AC49C",
"W. c #9ACA9C",
"Q. c #97C798",
"!. c #8FC290",
"~. c #9FC4A1",
"^. c #9FCBA0",
"/. c #A3C4A5",
"(. c #A2CAA4",
"). c #A7C4A8",
"_. c #ACC3AD",
"`. c #ACC9AD",
"'. c #A7C9A8",
"]. c #AFC5B0",
"[. c #B3C3B4",
"{. c #B1CAB3",
"}. c #B7C3B8",
"|. c #BBC3BC",
" X c #BACBBB",
".X c #B6D0B8",
"XX c #A9D1AB",
"oX c #F5C3BE",
"OX c #90B2C8",
"+X c #97BCD3",
"@X c #85ACD9",
"#X c #BFBFC0",
"$X c #82AAE3",
"%X c #88A9E1",
"&X c #81AAE9",
"*X c #8CBAE9",
"=X c #8AB5E7",
"-X c #92BDE8",
";X c #829DDC",
":X c #D9B5CE",
">X c #D1B9CE",
",X c #D7B5CD",
"<X c #D5B8D1",
"1X c #CFB9CD",
"2X c #F1B9CB",
"3X c #EEAFC1",
"4X c #BFC3C0",
"5X c #BECDC1",
"6X c #BFD0C0",
"7X c #98C9EA",
"8X c #9DD4EC",
"9X c #9DD0F1",
"0X c #A3CEEB",
"qX c #A4D3ED",
"wX c #A7D4EA",
"eX c #B7D9EC",
"rX c #A4D2F2",
"tX c #ACCEF1",
"yX c #C3C3C4",
"uX c #C3CCC5",
"iX c #C7C7C8",
"pX c #C7CCC9",
"aX c #CBCBCC",
"sX c #F2C5C3",
"dX c #EDC8D3",
"fX c #F9D7D5",
"gX c #F6CCD3",
"hX c #F9DDE4",
"jX c #E6DBE4",
"kX c #FBEAEB",
"lX c #FAEDF1",
"zX c #FDF3F4",
"xX c #FEFDFE",
"cX c #F8F8F9",
"vX c #EAF0F5",
"bX c #D9E4E9",
/* pixels */
"yXyXyXyXyX1X4XyX4XyX1X|.|.#Xc.|.v.}.x.x.}.v.v.|.yXuXyXiXc.c.h.g.1Xc.yXyX4X#XyXyX}.}.}.}.v.}.v.c.|.1Xv.v.#X#X#X#XyXiXiXyXc.c.h.h.",
"yX#XyXyXyXyXuXyX#XyX4XyX#Xc.v.[.[._.z.z.).)._.b.|.4XyXyXc.c.g.h.#X#XiXyX4X|.4X[.[._._._._._.].v.v.|.c.c.#X#X#X#XiXyXiXaX#Xc.g.h.",
"iXiXyX1XaXaXiXyXiXyXiXyX4X4Xl.z.E.R.!.q.T.!.(.`.{. XpXaXiXiXh.h.iXiX1X4XpXuX{.`.(.W.W.W.W.W.u.z.l.x.v.v.c.c.yXuXiXiXaXaXiXiXg.h.",
"iXiX4X|.aXaXiXiXyXiXyXyX5X[.z.R.T.T.T.R.T.T.W.W.(.{.6XpXiXiXg.g.iXiX}.[.uX.X(.W.W.W.W.^.W.W.R.u.~.l.}.v.c.c.yX4XiXyXaXaXiX1Xg.h.",
"yX4XiXiX1X|.yX#X4X4X4X}.[.`.W.W.i : & * = 9 & f W.^.{..Xx.v.h.h.|.|.|. X'.W.R.c , : : * : : $ Q.T.u.].}.4X4X4X1X1XiXaXaX#Xc.h.h.",
"4XyXiXaX4X4XyXiX#X4X4X[.`.^.W.W.f + + + 8 + + y W.W.^.XXz.l.e.e.}.[.{.XXQ.R.R.h 8 8 8 8 8 8 O R.q.R./.[.|.4XyXyX4XiXiX>X#Xc.g.h.",
"g.g.g.g.g.g.g.g.g.g.j.y.0.:.:.' g 4 4 4 3 3 4 g | :.:.[ 0.q.q.q.t.q.[ [ :.} ' G 3 3 3 3 3 3 4 | 9.:.| R.j.k.g.g.g.g.g.g.g.g.g.g.",
"g.g.g.g.g.g.g.g.g.k.y.u.:.h O X Y ! ! ! T T ! K 1 O j [ [ [ [ [ [ [ [ [ ' >   A W W Q W W Q ! 2 O f [ T.y.g.g.g.g.g.g.g.g.g.g.g.",
"#X#X#X#X#X#X#Xv.4X#Xw.0.Q.z + X Y ! T W W ! ! A # o z Q.W.W.W.W.R.R.R.R.i.> O A U ! W W I Q E 2 + s R.~.].|.#XyXaXiXyXyXiXiXiX1X",
"1X#X#X#X#X#Xv.#X#X|.w.9.Q.z + X E T ) B.S.sXkXsXK K G p s a a a a a a i g K K Y.hXfXA.B.) I ^ 2 + s R.~.b.4X4X#XiXiXyX4XyXiX4X4X",
"4XiXiXaX#X#X#X#XiX5Xe.0.q.z O X Y I ) D.S.kXxXfXW R Z + ; > > > > & + ; r R W sXcXzXY.D.;.I E 7 > s W.'.[.yXyXiX4XiXaXaXaXaXaXaX",
"iX4XiXiX#X#X#X#XiXiXe.i.R.] 0 9 ~ ^ -.L.L.fXzXgX_ E Z 2 2 e e e e f % 5 M ^ R sXzXlXL.U.C.` ~ r 0 v W.`.|.5XyXiXiXyXaXaXbXaXaXaX",
"#X#X4X4X4X4X#X#XyX|.e.w.(.W.W.W.5 & F xXxXL.A.S.S.D.N.T ( kXxXxXcXxX ./ ) V.D.A.A.L.lXcX8.$ . W.W.W.Q.`.}.4X#X4XyXiX4X4X#X#X#X#X",
"#X#XiX#XiX4X#X#XK.c.h.w.'.W.W.W.y > v xXzX2XS.D.S.D.;.Q _ kXcXxXcXzX .I ) D.S.A.S.U.lXcX8.= o E.W.W.~._.}.4X4X#XiXiX#X1X#X#Xc.#X",
"g.g.g.g.g.g.g.g.l.j.y.y.0.[ [ [ e > g Y.Y.A.S.F.;.) ^ H K 2XdXdXsXdX^ H P ) ) V.D.D.Y.A.G - o [ [ [ 0.t.y.j.k.g.g.g.g.v.g.g.g.g.",
"v.g.g.g.g.g.g.k.k.y.t.0.[ [ [ [ e 9 6 R R N.S.V./ Q H b V G.P.P.U.I.L b H W Q N.S.V./ Q Z $ o [ [ [ [ 0.q.t.j.k.k.g.g.g.g.g.g.g.",
"aXaX#X#X#X#X#X#X].).^.W.R.R.R.R.e o 6 ^ ^ B.F.B.R I U N V G.P.P.I.I.L b H P P N.S.B._ ^ M @   R.R.Q.W.W.R.^.{.4X4X5X#X4X#X#Xg.h.",
"aXaX#X#X#X#X#X]./.R.W.9 e e e < jXcXlXkXkXC.^ P n N N N B V J J V V V B N N C P E N.fXkXkXvXvXk < < < < j.Q.(.{.4X4X4X4X#X#Xh.g.",
"aXaXaXaX4X4X[.'.^.W.W.$ : , ,   vXxXxXxXzXC.Q U n n N N N N N b V N N N N N N U I _ kXcXxXxXcXe , , > @ h.(.R.^.6XpX5XiXiXiXg.h.",
"aXaXaXaX4X5X[.^.u.j.z.d k k s s vXxXxXxXzXA.C.( V H H C V V H V C C H V V H C _  .A.kXxXxXxXcXv d k k h k.).~.R.6X5X4XiXaX1Xg.h.",
"4X4XaXaX4X].~.Q.d & e xXxXxXxXxXxXxXxXxXxXxXcXfXE R R Q R R R Q / Q R R E R P oXcXxXxXxXxXxXxXxXxXxXxXxXv $ , T.~.l.#X#X#X1Xh.g.",
"4XpXaXaX4X_.~.R.s : i xXxXxXcXzXxXxXxXxXxXxXxXfXE P T P T T E ! / P P R T E ! sXxXxXxXxXxXxXxXxXxXxXxXxXv , < Q.!.z.x.#X#X#Xh.h.",
"g.g.g.g.k.y.:.[ s > y eXeXeXeXeXcXxXxXxXxXdX2XL.S.F.F.F.S.gXfXfXfXfXP.V.V.V.V.L.2XdXcXxXxXxXcXbXeXeXeXeXx * 9 [ :.u.k.g.g.g.g.g.",
"g.g.g.g.j.u.[ [ a * 0 qXqXwX8XwXcXxXxXxXxXdXU.U.I.G.I.I.L.zXcXxXxXxX2XU.I.L.U.I.U.3XvXxXxXxXcXeXqXqXqXwXx , 9 | :.q.h.g.v.g.g.g.",
"4X#XiXiX}._.R.R.s * 0 0XqX8X8XwXvXcXcXxXlX2XI.I.I.I.I.3X3XzXxXxXzXxX2XU.I.I.U.U.I.3XlXzXxXcXcXeXrXqXqXqXx : 9 R.W.XX5XiX#XiX#X#X",
"#X#XyXiX4X].Q.!.s = 0 qX0X0XqX8XwX8XJ.P ^ H.I.I.I.L.dXcXxXxXxXxXxXxXxXxXkXI.I.3XU.D._ I Z.wXqXqX8X8XqXqXx : 9 !.^.{.5X5X4X#X#X#X",
"iXyXiXyX4X[.`.XXd > q 8XwX0XqX8XwX8XJ.R E F.I.I.G.I.hXxXxXxXxXxXxXxXxXxXhXU.G.3XU.D./ I Z.wXwXwXqXqX8XqXx > 9 T.XX6XpXaXiXiXaXaX",
"yXiXyXiX4X5X.X^.] f j p.a.@X=X%XqX8XK.R T N.B.A.,X,XjXxXxXxXxXxXxXxXxXxXlX<X:XF.B.B.Q I Z.wX0X7X7X7Xa.a.] y h T.6X5XaXaXiX#XaXiX",
"#X#XiXiX#Xv.].~.R.R.{   # +.$.@.7X8XJ.R T T W -.tX0XbXcXxXxXxXxXxXxXxXxXvX8X8XM.T T T Q Z.qXrX@X5.<.    w.T.R.~.l.x.#X#X#X#X#X#X",
"4X1XiXpX#X4X}._.R.R.{   & +.$.@.9X8XJ.R T T W -.wXwXbXcXxXxXxXxXxXxXxXxXvX9XqXM.T T Q I Z.8XrX@X5.<.# @ w.T.R.~.l.#X#X#X#X#X#X#X",
"g.g.g.g.k.g.k.y.q.[ [ o & ..5.5.7.7.=./ T Q W m.wXqXwXeXwXeXeXeXeXeXeXwXwXqX8XM.R T W I Z.6.@X9X7XOXo # i.[ :.t.j.k.g.g.g.g.g.g.",
"g.g.g.g.g.g.k.y.q.[ [ o & ..2.5.#.#.&.E T T W m.tXqXwXwXqXqXqXqXqXqXwXwXwXqXwXM.R W U I f.2.2.rXtXOX# # q.[ :.t.j.g.g.g.g.v.g.g.",
"yX#XyXiXyX#XiX|.`.R.R.o & o.2.2.%.#.&.P P Q I -.tX7X9XqXrXqXqXqXqXqXqXqX8X8X8XM.Q R ^ ^ Z.6.%XrXwXOX# # r.R.R.l.|.yXyXiXc.c.g.h.",
"#XyXyXiX#X#XyX X).R.R.o & o.2.2.&X3.*.B N U I ~ @.@.;XqXwXwXwXqXwXqXqX8X7X2.1.-.W R D.U.1XwXrXrXwXOX# # r.R.R.l.uXyXiXpXc.c.g.h.",
"iXiXyX#XaXaXyX X_.W.W.o & ..2.2.&X3.*.N N U I -.@.@.5.wXwXwXtXqXqXqXqX8X7X2.6.-.T ^ S.P.,XqXrXrXtXOX# # r.T.^.[.4XiXaXaXiXiXh.g.",
"iXiXyXiXaXaXyX|.`.W.W.o & o.2.2.6.3.*.B N C H S ;X,.,.<.,.,.,.&X*X*X7X=X*X7X7XJ.B.V.G.P.>XqXrX0XqXOX# # r.T.^.{.4XiXaXaXiX1Xg.n.",
"yX#XiXiXyXyX#X}.).R.R.@ & o.4.2.=X3.s.B N N N D %X&X,.$.$.$.$.7.&X2.5.2.*X9X8X:XI.I.U.I.>XrXqXqXqXOX# # e.R.Q._.4XiX1XaX#Xc.h.h.",
"yXyXiXyXyXiX#X}.).R.R.o & o.&X2.3.3.s.B N N N D %X&X<.$.#.$.@.<.%X2.2.2.*XrXqX:XI.I.U.I.>XrXqXqXqXOX@ # e.R.W._.5XiXiXaXv.#Xh.g.",
"g.g.g.g.g.g.g.j.q.[ [ o & o.&X5.&X3.s.B N N N S %X4.5.5.&X&X4.*XrXrX9XrXrXqXqX,XI.G.I.I.>XrXrXqX0XOX# # i.[ 0.y.k.g.g.g.g.g.g.g.",
"g.g.g.g.g.g.k.j.q.[ [ o & o.4.2.&X3.s.B N N N S %X4.4.&X2.$X2.*XqXqXqXqXqXqXqX,XI.I.I.I.>XqXqXqXrXOX# # 8.[ [ y.j.g.g.g.g.g.g.g.",
"yXyX5X4X4X#X#Xb./.R.{ @ & o.4.2.&X6.s.B V N N S %X2.2.4.2.2.2.*XqXqXqXqXqXqXqX,XG.I.I.G.1XrXrXqXqXOX# # e.R.E.].4XiXyXyXiXiXiXiX",
"1XyXK.yX#X#X#Xb./.R.{   & o.4.2.&X3.s.B V V m S %X2.4.2.2.2.2.*XqXqXqXqXqXqXqX,XI.I.G.3X1XqXrXwXrXOX# # e.R.Q._.4X4XyX4XiXyX4X1X",
"4XiXpXiX#X#Xv.b.{.^.{ o & o.4.2.4.3.s.B B N m S %X2.4.&X$X2.2.*XwXqXqXqXwXqXrX,XI.I.G.I.<XrXrX0XqXOX# # e.W.^.[.4X4XaXaXaXaXaXaX",
"yXyXaXpX#X#X#Xb.{.W.{ o & o.4.2.4.3.s.B N N m S %X2.2.2.2.2.2.*XwXqXwXrXqXqX8X,XI.I.G.I.<XwXrXqXqXOX# # e.W.^.[.5XiXaXaXbXaXaXaX",
"#X#X4XiX#X#X#Xv._.R.{ o = o.4.4.&X3.*.B N N N S %X2.2.4.2.6.2.*XrXwXrXqXwXtXqX,XI.I.I.I.<X9XwX0XrXOX# # r.Q.E._.4XiXyXyX#X#Xc.c.",
"#X#X4X4X#X#X4Xv._.R.{ o & o.4.4.4.3.*.B V N m S %X2.4.2.2.2.2.*XwX0XwXrXwXqX9X,XI.I.I.I.,XrXrXrXqXOX# # r.R.E.[.4XiXyXiX#X#Xc.#X",
"g.g.g.g.g.g.g.j.t.0.[ o & o.4.3.4.3.*.N N N m S %X2.2.2.$X2.2.*XtXqXqXwXwX0XqX,XI.G.I.I.>XrXrXwXrXOX# @ i.[ q.y.k.g.g.g.g.g.g.g.",
"g.g.g.g.g.g.g.k.y.0.[ X $ o.&X3.4.3.*.N N N m S %X2.4.$X2.2.1.*XqXqXqXqXqXqXqX,XI.I.I.I.1X9XrX0X0XOXo # i.[ q.j.k.g.g.g.g.g.g.g.",
"aXjX#X#X4X4X4X4X[./.^.h z X.O.O.O.O.F B N N m S %X5.4.4.2.2.2.=XtXwXwXqXwXrXrX:XI.I.I.U.f.p.p.p.p.p.h h y.^.].|.yXiXyX#X#X#Xk.h.",
"aXaX#X#X1X4X4X#Xv.].^.^.R.c & # $ + 6 N N N N S %X%X&X5.2.2.2.7XwXqXrXqXqXqXqX:XI.I.I.U.&.# - $ $ d E.E.W.'. X4XyXiX#X#X#X#Xh.g.",
"iXaXiXaXiXyXiXyX4X4X{.^.W.z X O o O 6 V N B N S %X2.4.2.2.2.5.*XqX0XqXqXwXqXqX:X3XG.I.I.G # o @ 1 d W.E.{.6X|.4XaXaXaXiXiXiXn.g.",
"aXiXaXiXyXiXyXiX4X5X[.{./.^.E.E.W.E.8.% % 2 % w 1.2.2.2.2.6.2.*XwXqXqXqXqXqXrXv , e 5 , v /.Q.W.W.W.^.`. XuX|.#XaXaXiXiXaXiXh.g.",
"#X#XbXaX#X1X4X#X4X4X4X|._.).Q.Q.R.R.9.& & & & u $X2.=X2.2.6.6.*X0XqXqXqX8X8XqXx & * * & c R.R.R.Q.^.{.|.}.4X#X#Xc.c.#Xc.1X|.g.h.",
"#X#XaXaX4X4X4XiXyX4XiXuX}.[._./.Q.R.w.p a a f l a.<.<.<.<.$X2.=XrXrX+X+X+X+X+XX.p p p p >.R.R.~._.]. X5X4X#X#XyXc.c.#X1X1X}.h.h.",
"g.g.g.g.g.g.g.g.g.g.g.g.g.k.j.y.t.0.[ [ | [ [ { # O + O > 1.6.=XrX9Xq O o o X ' [ [ | [ [ 0.t.y.j.k.k.g.g.g.g.g.g.g.g.c.g.g.g.g.",
"g.g.g.g.g.g.g.g.g.g.g.g.k.k.g.k.j.u.q.T.[ [ [ ] $ @ @ @ ; 1.@X7XqXrXq o o o   ' [ [ [ T.q.y.j.j.k.g.g.g.g.g.g.g.g.g.g.g.g.g.g.g.",
"#X#XiXiX4X#X#X#XyX#Xh.g.c.v.#Xc.v.v.b.l.).E.R.u.w.t.e.t.r.l w w y u i.w.w.w.i.u.!.~.9.i._.x.v.#X#X#X#X#X#X#X#X#XiXiXaXiX1X4X#X#X",
"#X#XyXyX#X4X#X#X#X#Xg.h.g.1X#Xc.c.c.v.x.x.]./.~.^.W.W.W.y.e * * , > q.W.R.R.!.~.~.l.w.h.x.v.#X#X#X#Xv.v.#X#X#X#XiXiXaXaX4X4X#X#X",
"iXyXyXiXiXiXaXiXyXyXg.h.1X#XaXiXc.c.c.c.v.v.b.l. X.XXXXX~.0 9 9 , , q.W.^.(.{.5X#X4Xh.h.#X#XaXaX#X#Xc.c.c.c.c.c.aXaXaXaXiXyXiXaX",
"yXiXiXyXiXyXiXaXyXiXg.h.c.#XaXaXc.c.c.#Xc.c.v.v.uX6X.X{.W.E.^.^.W.W.^.(.].[.5X5X#X1Xh.g.#X#XaXaX#Xv.c.c.c.c.#Xv.aXaXaXaXyXyXaXiX",
"#X4X4XiX#X#X1X4X#X#Xh.h.v.c.yXiXyXyX#X#Xc.c.|.1X|.}.x.l.z.~.~.Q.^.~.`. Xb.}.4X#X#X#Xg.h.#X#XiXiX#X#X#X#X#Xv.#X1X#X#X#X#X#X#X4X1X",
"1X4XiXiX#X#X4X4X#X1Xg.g.c.c.yXiXyXyX#X#Xc.c.4XyX4Xc.v.v.].].].].].[.}.5X#X#X#X4X#X#Xg.h.#X#XiXaX#X1X#X#X#X#X#X#X#X#X#X#X#X#X4X4X",
"g.g.g.g.v.g.g.g.g.g.v.g.g.g.g.g.g.v.g.g.g.g.g.g.g.g.g.k.k.k.k.j.j.k.g.g.g.g.g.g.g.v.g.g.h.g.g.g.g.g.g.g.g.v.g.g.g.g.g.g.g.g.g.g.",
"g.g.g.g.g.g.g.g.g.g.g.g.g.g.g.g.g.g.g.g.g.g.g.v.g.g.g.g.g.g.g.g.g.g.g.g.g.g.g.g.g.g.g.g.g.g.g.g.g.g.g.g.g.g.g.g.g.g.x.g.g.g.g.g."
};
