/* XPM */
static char *result[] = {
/* columns rows colors chars-per-pixel */
"64 64 256 2 ",
"   c #02011E",
".  c #0A0519",
"X  c #14041D",
"o  c #18061B",
"O  c #18191A",
"+  c #120509",
"@  c #29040E",
"#  c #280418",
"$  c #380416",
"%  c #320C15",
"&  c #18261E",
"*  c #020221",
"=  c #0C0925",
"-  c #120422",
";  c #1B0423",
":  c #150924",
">  c #0D1423",
",  c #161827",
"<  c #171033",
"1  c #260524",
"2  c #370726",
"3  c #251835",
"4  c #381733",
"5  c #29122B",
"6  c #1A2527",
"7  c #1E3326",
"8  c #282829",
"9  c #243429",
"0  c #29283A",
"q  c #372839",
"w  c #3D3D3D",
"e  c #343335",
"r  c #392A2E",
"t  c #253D1F",
"y  c #48020A",
"u  c #460317",
"i  c #590519",
"p  c #540A14",
"a  c #670516",
"s  c #770214",
"d  c #480625",
"f  c #570524",
"g  c #461A28",
"h  c #591829",
"j  c #511134",
"k  c #670A26",
"l  c #750727",
"z  c #761536",
"x  c #6F102F",
"c  c #4B2C34",
"v  c #6F2A35",
"b  c #2B4726",
"n  c #365628",
"m  c #344C2D",
"M  c #3D622A",
"N  c #3F7B21",
"B  c #37581D",
"V  c #45721E",
"C  c #6A483A",
"Z  c #456B29",
"A  c #487727",
"S  c #52762D",
"D  c #507231",
"F  c #445B35",
"G  c #2A2A45",
"H  c #382A44",
"J  c #383546",
"K  c #35324E",
"L  c #36315E",
"P  c #43364A",
"I  c #4D314D",
"U  c #71344F",
"Y  c #692B5C",
"T  c #3B4150",
"R  c #424242",
"E  c #49474A",
"W  c #4A4657",
"Q  c #585858",
"!  c #574A55",
"~  c #714856",
"^  c #575665",
"/  c #534F72",
"(  c #6F566E",
")  c #686977",
"_  c #756C77",
"`  c #78777B",
"'  c #6D6A6C",
"]  c #5B6757",
"[  c #870116",
"{  c #9C0A11",
"}  c #B4081B",
"|  c #880532",
" . c #8F0C2C",
".. c #A80928",
"X. c #B90934",
"o. c #B4122D",
"O. c #99292D",
"+. c #912D32",
"@. c #AF3230",
"#. c #C80B36",
"$. c #CD1531",
"%. c #E11C38",
"&. c #CD2C30",
"*. c #E6282D",
"=. c #E93633",
"-. c #C60A1D",
";. c #914B35",
":. c #986833",
">. c #A46E35",
",. c #A45635",
"<. c #CD4D34",
"1. c #931743",
"2. c #8E2C4B",
"3. c #AC324D",
"4. c #A72952",
"5. c #D51949",
"6. c #E41A41",
"7. c #D13251",
"8. c #E33C59",
"9. c #F22E4D",
"0. c #914F51",
"q. c #B3495C",
"w. c #B96D56",
"e. c #8F556C",
"r. c #BC4D66",
"t. c #B15471",
"y. c #956D75",
"u. c #AD6870",
"i. c #D34A51",
"p. c #F64657",
"a. c #C66D59",
"s. c #C95470",
"d. c #FB4864",
"f. c #F15063",
"g. c #CA6A76",
"h. c #EF7069",
"j. c #4D8627",
"k. c #528A29",
"l. c #599528",
"z. c #598532",
"x. c #699A35",
"c. c #679329",
"v. c #68A62D",
"b. c #69A733",
"n. c #74B132",
"m. c #4C831E",
"M. c #7AC430",
"N. c #948F32",
"B. c #9AB839",
"V. c #8BAD31",
"C. c #A08C37",
"Z. c #85C734",
"A. c #95C937",
"S. c #8DD536",
"D. c #94DC34",
"F. c #95D839",
"G. c #84C72E",
"H. c #9AE33B",
"J. c #96E237",
"K. c #B18571",
"L. c #8EA65C",
"P. c #D0907A",
"I. c #FB8A74",
"U. c #EF8D77",
"Y. c #93D847",
"T. c #A8E54A",
"R. c #A3E053",
"E. c #C0E67F",
"W. c #5D5D89",
"Q. c #7A7687",
"!. c #6D6C8C",
"~. c #746798",
"^. c #997B85",
"/. c #927B8C",
"(. c #B57787",
"). c #AF7289",
"_. c #C86C84",
"`. c #C67589",
"'. c #D2768C",
"]. c #CA7E93",
"[. c #7D8689",
"{. c #8D8D8E",
"}. c #868487",
"|. c #958789",
" X c #9C9C9D",
".X c #959496",
"XX c #908E95",
"oX c #A79799",
"OX c #B79699",
"+X c #AE8A91",
"@X c #9E9EA0",
"#X c #9799AB",
"$X c #9293AC",
"%X c #A69BA7",
"&X c #BA9AA3",
"*X c #A79DB4",
"=X c #A4A4A5",
"-X c #A6A7A9",
";X c #ADADAD",
":X c #AAA5A7",
">X c #B4A9AA",
",X c #AEAEB0",
"<X c #A8A6B8",
"1X c #B6ABB7",
"2X c #B4B3B5",
"3X c #B7B6B8",
"4X c #BCBCBD",
"5X c #BCBAB5",
"6X c #B8B6AF",
"7X c #AAA5A0",
"8X c #C98797",
"9X c #D7889A",
"0X c #C2939B",
"qX c #D19A8B",
"wX c #F39887",
"eX c #F1AA8D",
"rX c #D999AA",
"tX c #D88EA1",
"yX c #E19AAE",
"uX c #CAACB4",
"iX c #D3A8B4",
"pX c #C5B7BC",
"aX c #CCAFAF",
"sX c #E4ABB2",
"dX c #D9A09F",
"fX c #CDC4B7",
"gX c #CCEB95",
"hX c #BFBFC0",
"jX c #B9B5C1",
"kX c #AAA7C3",
"lX c #AF9FC0",
"zX c #C7BDC4",
"xX c #DABAC5",
"cX c #E3BEC0",
"vX c #C3C3C4",
"bX c #CCC5CB",
"nX c #CBCBCC",
"mX c #C7C4C8",
"MX c #D4C9C5",
"NX c #DAD6C7",
"BX c #D5CCD4",
"VX c #DAD7D7",
"CX c #CACDD4",
"ZX c #EED8CE",
"AX c #E6E4DB",
"SX c #F2EBD4",
"DX c #EAEAE6",
"FX c #F0EFE4",
"GX c #FAFCE6",
"HX c #FCFDEB",
"JX c #F5F5E7",
"KX c #FCFDF2",
"LX c #FFFFFD",
"PX c #F7F4F2",
"IX c #DDE0D6",
"UX c #B5C49A",
/* pixels */
"vXvXvXvXvXvXvXvXvXvXvXhXhXhXhXhXhXhX4X4XhXhX4X4XhX4X2X;X@X@X}.}.-X-X:X:X=X-X;X;X%X=X-X2X3X4X4XhXhXhX4X4XhXhXhXhXvXvXvXvXhXhX-X-X",
"vXhXvXvXvXfXvXvXvXvXvXvXhXhXhXhXhXhX4X4X4X4X3X2X2X,X;X-XJ 4 H e P J P P P P J G G ^ -X-X,X2X4XhXhXhX4X4XhXhXhXhXvXmXfXnX4X4X;X-X",
"mXnXvXhXCXnXnXvXvXvXvXvXvXvX4X4X4X4XhX5X3X2X3X2X;X-X2X,XP o o o X X . . . . . = * W -X-X;X2X2X2X3X4X4X4X4X4XmXvXnXvXnXCXvXnX-X;X",
"mXmXhXvXnXnXvXvXvXvXnXvXvXvX4X4X4X4X4X3X2X;X,X=X@X X@X#XU z z x x k x h h k x h h e.;X:X-X;X-X,X3X3X4X4X4XhXvXvXvXnXnXCXnXnX-X-X",
"vXvXvXmXvXfXvXhXhXvXvXvXnXvXnXvX4X4X4X3X,X-X=XQ.X ; ; ; 4.d.d.d.d.d.d.d.d.d.d.d.f.q.0 G 0 {.;X,X,X3XhXvXvXhXhXvXvXvXvXnX5X4X;X-X",
"vXhXmXvXvXvXhXvXvXhXhXvXvXvXvXvX5X6X3X,X=X=X=X/.2 2 j x 5.9.9.9.9.9.p.p.p.p.p.d.p.3.1 < 3 XX:X-X=X,X5X4XhXvXvXhXnXnXvXvX4X4X;X-X",
";X,X,X,X,X,X,X;X;X;X;X6X,X,X,X,X-X-X X{.Q.J W ~ X.X.5.5.5.%.6.6.9.9.6.9.9.9.9.9.9.7.1.+.2.e._ Q.{..X@X-X;X;X;X,X,X,X;X6X,X,X;X,X",
",X,X,X;X,X,X,X,X;X,X,X;X;X,X;X;X-X X{.{.` o 1 f 5.#.5.#.X.#.#.#.6.6.6.6.%.%.%.%.%.6.6.9.6.v : G }.{..X@X=X;X;X;X;X,X,X;X,X;X6X;X",
"vXhXhXhXhXhXhX4XvXhX;X-XhXvXhX5X2X;X.X.X{.z 1.X.%.#.#.5.#.-.#.#.5.9.8.7.9.p.i.8.8.d.8.8.8.z 4 W #X=X=X;X2X4XhXhXfXvXvXvXvXnXvXnX",
"hXvXhXhXhXhX4X4XhXhX-X-XvXhXhX5X,X=XT 0 I 5.5.#.#.5.X.X.X.X.#.#.#.9XZXZXZXZXZXSXZXZXZXZXZXNXIXbXT J [.=X,X3X4XhXvXnXvXvXvXvXvXvX",
"vXvXnXvXhXhX4X4XnXvX;X;X4X4XvX5X;X:XG - d 5.6.X.#.#...X...O.o.4.@.dXGXGXGXGXGXGXGXHXPXKXHXGXGXnX6   Q.=X-X3XhXvXvXnXnXnXnXCXCXCX",
"vXnXnXnXhXhX4X4XvXnX-X-X4X4XhX3X<X-X0 ; k 5.5.#.X.X.| | q.tX9X9X'.cXGXGXGXHXHXHXHXHXHXHXGXGXGXfXG 8 ] ) -X,X3XvXvXvXnXnXCXNXCXnX",
"hXhXvXhXvXhXhXhXhXvX;X=XvXvXvX3X:X;X3 1 | |  . .l l l x y.GXGXPXKXHXHXGXHXHXHXHXHXGXGXGXGXGXGXGXKXDX> . {.;X6X4XvXnXvXhXhXhXhXhX",
"hXhXvXhXhXhXhXhXvXvX=X;XvXvXhX3X;X:X, 1 | | | x d j ~ Y ^.GXJXHXGXHXHXHXGXGXHXHXGXHXGXGXGXGXGXGXJXDX. . [.=X,X5XvXvXhXvXhXhX4X4X",
",X,X,X,X,X,X,X,X;X;X;X,X,X;X-X X{.{.3 1 | | d 2 1 4 &X>XNXGXJXNXAXNXMXfXfXNXNXZXZXSXNXfXUXNXSXGXHXDX+   ` {. X=X;X,X;X6X,X,X,X,X",
";X,X,X,X,X,X,X,X,XUX,X,X,X;X=X X{.{.< # | k 1 ; ; r oXOXpXSXSXaXxXpXuX1XuXNXMXNXNXfXfXOXOX>XfXZXJXIX+ . ` {..X=X;X,X;X;X,X;X6X;X",
"nXNXhXhXhXhXvXhXvXhXvXnXvX4X3X;X=X=X< # l d ; G /././.+X+X0XOX).(.u.u.(.+XOXOX0XOXoXoX+XK.|.y.' ;X-X. . [.=X2XjXvXmXvXvX4XhX-X-X",
"nXCXhXhXhXvXhXvXvXvXvXvXhX4X2X-X=X=X: # l d - 4 /.).).).(.'.`.s.s.q.s.q.q.q.r.w.w.u.w.w.y.e.y.oXjX;X.   [.-X3XhXvXmXvXvXhXhX-X;X",
"nXnXvXnXvXvXvXvXvXmXvXvXvX4X,X=X;X#X> - d o - 3 /.).)._.s.s.7.7.i.i.i.i.=.i.<.i.a.w.K.w.w.u.w.+X` }.,   {.2X,X4XCXCXmXvXvXnX-X;X",
"nXnXnXnXnXvXnXvXmXvXmXvXhX3X-X=X[.!.= = - - ; 4 t._.r.s._.4.# @ v v v v ;.h.I.I.I.U.eXeXU.eXP.0.. . T ^ .X3X2X4XnXnXvXmXnXnX;X-X",
"hXhXCXNXvXhXvXhXvXhXmXvX3X2X;X` / / P ! ! 2 ; j _.r.Y x p g 8 8 8 8 8 8 c ;.0.P.I.eXeXU.K.K.P.y.X . !.;X=X;X2X4XhX4XhXhXhXvX-X-X",
"hXvXnXCXhXvXhXvXhXfXmXvX3X;X=XI e..X%X+X&X2.f z 4.v 4 8 E ` ` R w ' ^ m R 8 9 0.a.I.I.a.% O P.K.. . ) ;X=X,X5XhX4X4XhXhXhXfX;X-X",
";X;X,X;X,X;X;X,X,X;X;X;X@X.X{.I ( |.+X+X`.4.x 2 $ 8 e P ' ;X XE E :X` P w R R 8 C a.I.i.% % qXK.+ . ^ {.{.@X-X;X,X,X,X,X,X,X,X,X",
",X,X,X6X;X,X;X,X6X;X;X-X X{.{.}.5 2 p i a y $ O 8 R w m P m R E vX] w R R e w w e C U.p.y g dXP.o . ^ .X{. X-X,X;X;X;X6X;X,X,X,X",
"vXhXvXvXhXhXhXhXhXhX=X@X-X XoXoX% $ y y y % 8 w w w w w P w R w c R m P E R w w w e C h.$.@.eXP.O . ) @X=X;X3X4XvXnXvXnXvXhXhXhX",
"hXhXnXvXfXvXhXhXhXhX@X X=XoXy.U y { { { % e R E R R w w J m E R R R R R w J e w R e c P.h.I.eXP.4 , W.@X%X-X2X3XvXvXvXnXhXvXhXhX",
"vXvXvXvXmXvXnXnXvXhX X{.%XoX0.@ + <.h g |.2X4X4XnXnXMXvX@XQ E R w R R P R R R w w R c Q dXwXeXU.+X` K ^  X X-X;XnXnXnXnXnXvXnXnX",
"nXvXnXvXvXvXmXmXpX4X{.}..XoXu.y y g _ fXAXGXJXKXLXLXLXLXDXBXnXnXvXvX[.m w w w w w R m w Q NXGXsXZXmX: J  X@X X-XvXvXnXnXvXvXvXnX",
"hXhXvXvXfXpXpX1X2X>X}.}.8 + a &.2 P pXHXHXHXHXHXHXHXKXLXLXLXLXLXLXLXAX4X7XQ w m w w R R m fXGXGXGXBXo ; : , -X=X;X,X2X5XhXhXhXvX",
"hXvXvXfXpXpXuXaX&XOXy./.g + s @.< /.AXHXFXJXKXHXHXHXHXHXHXHXKXKXLXLXLXLXDX{.}.^ R w w R c 7XSXGXPXxXo X : o =X-X=X-X,X5X4XhXhXhX",
";X,X;X>X&X8X].(.t.0.U U +.@.} @.G VXAXFXVXIXFXJXJXFXHXGXHXHXHXHXHXHXHXHXLXLXPX3X}.Q e w m e fXdX9X_.@ $ x 4 0 e E {..X@X=X-X;X,X",
";X6X;X&X8X).e.2.2.2.y y @.9.*.&.K zX*X%X%X1XzXxXbXbXDXFXJXJXJXGXJXGXHXHXHXKXVXDXDX;XR w R E fXu.v a @ i $.z + > T {.{.{. X=X;X;X",
"zXjXzXuXrXy.. # : 1.y y &.=.=.&.q $XG = > / %X%X*X*X<X1XjXhXvXnXBXDXPXJXHXKXKXBXVXPX%XP w E +Xc + . @ s o.+.p g Q {..X=X@X;X@X@X",
"zXzXzXxXtXy.2 $...# $ i -.=.=.=.+.< 3 D V M 0 q 0 0 G 0 G 0 0 K <XzXbXBXVXPXHXPXGXPXBX@XE R 8 O 9 8 % s -.@.w.w.c , & }.oX@X.X@X",
"mXmXuXrXsX).2 %.*...# o v =.&.@.0 e L.R.S.G.n.v.V V V V Z V V 7 G G ) jXjXCXBXFXPXPXzX%XE R m e e & O [ -.<.>.w.g . + .X,X,X}..X",
"mXzXzXrXsX).$ $.*.$...o & @.+.w NXNXR.D.D.D.D.D.G.G.M.G.M.G.V.j.A A n G K K G 1XAXVXzX%XR c E 8 r O @ [ } } ,.0.r 5 5 c E ' ` {.",
"vXzXuXyXrX^.$ -.*.*.*.[ 2 % ( 5XE.R.H.J.D.D.D.D.D.D.D.S.D.F.S.G.G.G.v.V n b m Q !.=XzX%XE R R e e & @ a [ s i d v 3.@.@.g o e }.",
"pXpXiXyX8X~ o k  .&.*.} d Q UXE.J.D.S n n n z.H.D.D.D.D.F.D.D.J.F.S m b 9 n.l.M e K / K 8 R R J 8 O @ @ y y u d +.<.<.@.h . 8 }.",
">X>X0X9XI d z x k k &...d /.gXD.A.Z L.XX.X` 8 c.H.J.D.D.D.D.D.S.S ` {.XX/.D n.M.c.9 * ; d 8 r @XpX3X.X% $ u $ d v @.@.@.h X 8 .X",
">X>X0X].P +.@.*.&.k l l g L.gXD.x.* 4XPXHXMX, 9 n.D.D.D.D.D.F.b.O 7XHXHXVX0 z.A.Z.S , 1 l 5 ^ IXKXKXAXy.2.j u f h @.@.@.h : 8 {.",
"zXpXuXrX9Xe.g o.o.$.i X S F.D.Z.* =  XDXIX5XJ   > n.J.D.D.D.b., * }.CXJX-X0 * x.H.A.Z , k ( nXHXHXHXHXJXQ.U a y d @.1.x d - H -X",
"vXpXpXrXtX9Xe.; d l | o S H.D.Z.  * * .X'       > m.D.D.J.v..   *   ^ ;X* *   x.H.Y.x., 4 zXIXHXHXHXHXHXHX_ 4.$ 2 z z j < - J ;X",
"vXvXbXxXtX9Xe.$ -...l ; S H.D.S.      , >       . l.M.D.J.n..   * * > < * * = x.H.H.b.5 P ZXHXHXKXHXHXKXHX_ 4.$ # 2 1 1 ) -X;X3X",
"mXvXbXiXrX9Xe.d *.$.l o S H.H.S.9               & n.J.D.D.G.B > *     * * * 8 n.H.T.b., K AXHXHXHXHXHXKXzXW p % # ; ; ; ) 3X3XhX",
"hXhXzXuXiX(.3 d X.} ..1 A H.Y.Y.M.. * *       & D S.D.S.D.D.M.n . * * * * * b.Y.Y.Y.b.3 | ( ZXKXHXHXHXJXW a l 2.~ ( ' ' }.@X;X2X",
"hXhXzXpXiXtX(.e.; = - * D C... .J.v.6 *     7 c.D.J.D.D.D.J.D.n.7 * * * > l.A.;...>.n., 1 3 ) AXKXHXAX^ $ u x +X:X-X@X=X-X2X2X2X",
",X,X>X>X&X]._.s.0.f $ - D C.| c N.Y.x.j.A A x.S.J.J.D.D.D.D.J.S.b.S A j.x.B.C.j j ,.n., $ $ 2 ' }.}.y.d i i v ^.|.{..X X@X=X-X;X",
",X,X>X>X&X].'.s.t.3.3.3 D C.2.~.K @.N.Y.B.V.B.B.B.B.B.A.B.A.B.B.B.B.B.B.Y.+.I W.Y ,.n.5 l [ [ i # o U q.q.t.^.|..XoX=X=X;X;X;X,X",
"nXVXpXpXuXyXtX(.H 3 3 = D C.1.W.CX< = z ........o.X.&.o.o.o.o.o.o.......j 3 $X~.2.,.n.O 1 # 1 } s # t.'.8XOX%X2X4XzXhXhXhX4X-X-X",
"nXnXhXpXuXyX].I m x.A > S A.:.1.CXBXkX*XY ( kXXX5 j j 4 Y ).^.I $XlX( W.lXjXBX/.0.B.b.6 S z.F g l l | j oX&X1XjXhXvXvXvXhXhX;X-X",
"mXnXnXzXiX0X! n B.T.v.& A J.N.@.0.PXJXFX~.$XDXCXL jXjXL Q.DXCXW.BXDX$X*XPXPX(.o.:.H.v.8 c.D.A.Z W e.o - %X2X,X4XnXnXvXmXnXmX-X-X",
"nXmXmXMXuXtXe.n Y.T.v.O n Z.F.N.O.y.NXJX$X<XPXCXW.DXLXW.#XKXDXW.IXLXkXkXPX+XO.>.B.S.S & c.H.A.n !.).1 = 1X3X3X4XnXBXvXmXnXnX-X;X",
"pXhXBXMXuXrX(.0 z.S.v.> b v.D.F.>.C +XaXW.#XKXCX/ DXHXW.<XKXDXW.VXPX#X/.aX0.;.B.Y.n.Z & l.G.c.9 z 1.; < %X<X3X5XhX4XvX4XhXvX-X-X",
"hXhXnXMXuXrX(.I q N N e e j.n.F.H.F.:.;.j y.sX0XY uXiX( /.fXrX( uXiXe.j ;.C.A.F.n.k.m O Z Z 8 o f e.OX>X:X2X5XhX4X4X4XvXvXhX-X;X",
",X,X,X>X>X0X8X'.'.P 4 t.~ m j.l.F.F.F.F.:.,.+.O.+.O.+.+.O.O.O.O.+.O.+.>.H.H.D.v.j.n # [ 2 $ a $ k ).^.|..X-X-X;X6X;X;X,X;X6X;X6X",
",X,X;X;X>X0X0X8X'._.(.'._.! m k.v.H.Y.F.Y.A.A.A.V.V.V.N.N.c.N.V.A.A.A.F.H.H.n.l.n , 4  .{ ..[ % g ^.^.{.%X=X;X;X,X,X,X,X;X;X;X;X",
"hXhXvXmXvXpXpXuXiXrX`._.9X`.~ 9 k.b.b.b.M.S.S.S.D.D.D.D.S.F.D.S.F.D.S.M.b.b.l.b O i 4.q.s.g.2.# c  X X-X2X4XhXhXvXvXnXvXvXhXhXhX",
"hXhXmXvXhXzXpX4X3XuXOX8XtX9X`.( 9 9 A k.l.l.b.b.b.b.v.v.b.b.b.v.b.v.v.v.j.b 7 r # a o.q.u.u.~ : J =X@X-X3X4XhXhXnXvXmXmXhXvXhXhX",
"vXmXvXmXvXvXmXmXzXzX&XOXiXrXyX0XI I M M M n N k.k.l.j.k.k.k.k.k.j.M n M n W Q 2.$ y $ # # o o : '  X@X=X,X2X3X4XnXCXCXnXnXvXnXnX",
"nXvXmXvXmXmXnXnXvXvX:X:XuXiXsXyX9X^.3 , 6 > 9 M n n n n n n n n n 7 & > 0 /.xX).@ @ # o : O - . ` @X X@X;X2X3X4XnXnXNXCXvXvXvXnX",
"vXhXvXvXhXhXfXvXhXhX:X:XpXuXiXyX).> b l.k.A n > = 4 - o o X . = & A k.l.z.7 y.).@ # o - X = - = T ^ ` -X=X,X4XhXhXhXhXhXhXhXvXhX",
"hXvXvXvXhXhXhXhXhXfX;X:X1XuXiXyXG b M.H.n.l.m.n < 2.$ $ $ $ @ o N l.n.J.F.z.0 2.@ o X - - X = = - X 0 #X.X;X5X4XhXhX4X5XhXhXhXvX",
",X,X2X,X,X,X,X;X2X,X;X2X>X>X0X].e.> 9 9 6 6 6 q t.3.l a l l k f , 6 6 7 9 , U t.h q q J J e 0 e 0 0 J #X[. X=X;X,X,X,X,X,X,X,X,X",
"6X,X,X,X,X,X,X,X,X,X;X;X1X>X&X0X9X'.'.'.`._._.s.r.t.u.u.u.u.r.r.r.r.r.s.r.s.t.y.^.|.{.{.{.{.{.{.{.{.{.{. X=X-X;X;X,X;X;X6X,X,X,X"
};
