/* XPM */
static char *result[] = {
/* columns rows colors chars-per-pixel */
"64 64 256 2 ",
"   c #02011E",
".  c #090419",
"X  c #17041A",
"o  c #181819",
"O  c #10050B",
"+  c #28020C",
"@  c #280419",
"#  c #340113",
"$  c #380519",
"%  c #311116",
"&  c #18261E",
"*  c #020221",
"=  c #0B0725",
"-  c #130422",
";  c #180624",
":  c #0D1423",
">  c #171826",
",  c #1A1334",
"<  c #250623",
"1  c #370924",
"2  c #271529",
"3  c #251B37",
"4  c #351531",
"5  c #1A2527",
"6  c #1E3326",
"7  c #282728",
"8  c #233429",
"9  c #282839",
"0  c #34283B",
"q  c #3D3D3D",
"w  c #343336",
"e  c #352C2F",
"r  c #253D1F",
"t  c #4A0418",
"y  c #550616",
"u  c #4E1017",
"i  c #6E0719",
"p  c #69271C",
"a  c #470625",
"s  c #571A37",
"d  c #520E2D",
"f  c #670926",
"g  c #770826",
"h  c #69122B",
"j  c #711433",
"k  c #452636",
"l  c #522830",
"z  c #6E2932",
"x  c #365628",
"c  c #30492A",
"v  c #3D6629",
"b  c #37581D",
"n  c #45721E",
"m  c #764438",
"M  c #456B29",
"N  c #487727",
"B  c #52762D",
"V  c #507231",
"C  c #445B35",
"Z  c #2A1B44",
"A  c #2A2A46",
"S  c #352B46",
"D  c #383546",
"F  c #352F52",
"G  c #3E3A6A",
"H  c #44384B",
"J  c #4D2E4C",
"K  c #6E304C",
"L  c #692B5C",
"P  c #424242",
"I  c #48454A",
"U  c #4A4858",
"Y  c #575759",
"T  c #554957",
"R  c #6F4856",
"E  c #54516C",
"W  c #6E546D",
"Q  c #756B77",
"!  c #77777B",
"~  c #6C686E",
"^  c #5A6E40",
"/  c #39404F",
"(  c #8F081E",
")  c #B40A1B",
"_  c #86072A",
"`  c #950525",
"'  c #8C1031",
"]  c #A70927",
"[  c #B90934",
"{  c #B3112B",
"}  c #992A2C",
"|  c #9B342B",
" . c #8D2D38",
".. c #AD2F2E",
"X. c #C80B36",
"o. c #CE142F",
"O. c #E11C38",
"+. c #D02D34",
"@. c #E62B30",
"#. c #C21F1C",
"$. c #904A36",
"%. c #A74F35",
"&. c #986833",
"*. c #A46E35",
"=. c #D04839",
"-. c #E54F37",
";. c #921943",
":. c #94314A",
">. c #B0364B",
",. c #B11A41",
"<. c #D51949",
"1. c #E41A41",
"2. c #D0374C",
"3. c #E33C59",
"4. c #F22E4D",
"5. c #914E4B",
"6. c #B14854",
"7. c #90556C",
"8. c #BE4F68",
"9. c #B54B60",
"0. c #B55E75",
"q. c #B5556A",
"w. c #926978",
"e. c #A76779",
"r. c #B06776",
"t. c #BE6758",
"y. c #CD4D51",
"u. c #F04D53",
"i. c #DA7954",
"p. c #D46F50",
"a. c #E46849",
"s. c #E37C54",
"d. c #E66C49",
"f. c #C55B6D",
"g. c #FB4864",
"h. c #F15063",
"j. c #C7667A",
"k. c #F47462",
"l. c #4D8627",
"z. c #528A29",
"x. c #599528",
"c. c #598532",
"v. c #699A35",
"b. c #679329",
"n. c #68A62D",
"m. c #69A733",
"M. c #74B132",
"N. c #4C831E",
"B. c #7AC430",
"V. c #948F32",
"C. c #9AB839",
"Z. c #8BAD31",
"A. c #A08C37",
"S. c #85C734",
"D. c #95C937",
"F. c #8DD536",
"G. c #94DC34",
"H. c #95D839",
"J. c #84C72E",
"K. c #9AE33B",
"L. c #96E237",
"P. c #8EA65C",
"I. c #DA8655",
"U. c #DD955D",
"Y. c #E28257",
"T. c #E3905D",
"R. c #DD9562",
"E. c #93D847",
"W. c #A8E54A",
"Q. c #A3E053",
"!. c #C0E67F",
"~. c #5D5D89",
"^. c #7A7787",
"/. c #6E6B8C",
"(. c #746798",
"). c #897A8A",
"_. c #97788B",
"`. c #B2778A",
"'. c #C87489",
"]. c #D2778D",
"[. c #CC7289",
"{. c #868686",
"}. c #8E8D8E",
"|. c #85848C",
" X c #8C8894",
".X c #968C98",
"XX c #9B9B9C",
"oX c #959596",
"OX c #93888B",
"+X c #A58C96",
"@X c #A7969A",
"#X c #B3989B",
"$X c #B1878E",
"%X c #BAA39C",
"&X c #9E9EA0",
"*X c #9798AB",
"=X c #9293AC",
"-X c #A79BA7",
";X c #BA9BA3",
":X c #A79DB4",
">X c #9DA1A9",
",X c #A4A4A4",
"<X c #ADADAD",
"1X c #A9A6A8",
"2X c #B1ACAD",
"3X c #B7A5A8",
"4X c #ABABB4",
"5X c #B6ABB8",
"6X c #B3B3B4",
"7X c #B6B6B9",
"8X c #BBBBBC",
"9X c #BCB7B6",
"0X c #B9B5AD",
"qX c #C88897",
"wX c #CC8B99",
"eX c #DB8EA3",
"rX c #D998AA",
"tX c #CB94A4",
"yX c #CCACB5",
"uX c #C6ABB3",
"iX c #D4A8B4",
"pX c #C4BABE",
"aX c #C6B4B9",
"sX c #D2B7BA",
"dX c #CBABAB",
"fX c #E3A6B5",
"gX c #DE96A2",
"hX c #D1C6BB",
"jX c #CCEB95",
"kX c #BFBFC0",
"lX c #BCB5C2",
"zX c #AAA7C3",
"xX c #AF9FC0",
"cX c #C7BDC4",
"vX c #D9BAC1",
"bX c #E3BEC0",
"nX c #C3C3C4",
"mX c #CBCBCC",
"MX c #C9C5C9",
"NX c #D5CAC5",
"BX c #DAD6C8",
"VX c #DAD7D7",
"CX c #CFCDD4",
"ZX c #EED7CE",
"AX c #E6E5DB",
"SX c #F0EAD6",
"DX c #EAEAE6",
"FX c #FAFCE6",
"GX c #FCFDEB",
"HX c #F5F5E7",
"JX c #FCFDF2",
"KX c #FFFFFD",
"LX c #F1F1F1",
"PX c #F0EFE4",
"IX c #DDE0D6",
"UX c #B5C49A",
/* pixels */
"nXnXnXnXkXkXnXmXnXnXnXkXkXkXkXkXkXkXkX8XkXkXkXkXnXnXnXkX<X,X{.|.1X1X<X1X,X1X<X<X,X,X1X,X,X1X6X9X8XkX8X8XkXkXkXkXnXnXmXnXkX8X<X1X",
"nXkXnXnXnXhXnXnXkXkXkXnXkXkXkXkXkXkX8X8XkXkXkXkXnXkX8X6X,XXXU A D D H D D H D D H S 0 D ,X,X1X4X6X7X7X8XkXkXkXkXnXnXnXnX8X8X<X,X",
"MXMXnXnXCXmXnXnXnXnXnXnXmXnXkX8X8X8X8X8X8X8XnXnXnXkXkX6X4X6XH = * X . . . . X X - - - S ,X2XXXXX1X<X6X7X8XkXnXnXmXnXCXmXmXmX1X1X",
"MXMXnXkXmXCXnXnXnXmXnXmXnXnX8X8X8X8X8X8X8X8XnXkX7X6X7X7X6X5XR d s f f h h h h h j j j :.oXXX X.XXX,X<X6X7XkXnXnXnXmXmXCXnXmX,X<X",
"kXkXnXmXnXnXkXnXnXkXkXnXnXnXnXnX8XkXkXnXkX8X8X6X6X<X}.A A 9 9.h.g.g.g.g.g.g.g.4.g.4.g.>.< < ; - ~ &X1X6X7X8XkXkXnXmXmXnX8X8X<X,X",
"kXnXnXnXnXkXnXnXkXnXnXnXnXmXnXmX8X8XnXkXkX8X6X1X<X<X}.3 , ; >.g.g.u.g.4.g.u.g.4.4.4.4.<.j d 1 1 ).&X,X1X<X7X8XhXmXnXnXmX8X8X,X<X",
"6X6X<X<X<X<X6X<X<X<X<X<X<X<X<X6X<X6X<X<X,X&XoX}.! ! ~ ;.;.,.2.@.4.@.4.4.1.4.4.4.1.1.o.<.<.<.X.,.R U q ^.}.XX,X1X<X<X0X<X<X<X6X<X",
"<X<X<X6X6X<X<X<X<X6X6X<X<X6X<X<X<X<X<X,X&XoX}.|.9 = h 4.4.1.O.O.O.1.1.1.1.1.1.1.X.X.X.[ <.<.X.1.d < X ! }.}.XX,X<X<X<X<X6X<X6X<X",
"nXkXkXkXkXkX8X8XkXkX<X,XnXkXnXkXkXkX8X6X<X,X1X&XH S j 3.3.3.3.g.3.3.3.3.4.2.4.o.X.X.X.X.<.X.X.1.[ ;.;. XXXoX<X6XkXkXnXnXnXnXnXnX",
"kXnXkX8XkXkXkX8XkXkX,X<XnXnXkXnXkX8X6X<X>X}.D / CXZXNXZXZXZXZXZXZXSXZXZXZXZXwXo.X.X.[ [ [ [ X.X.<.<.<.s 5 / ,X<XkXkXnXnXnXmXnXmX",
"nXnXmXmXkXkX8X8XmXmX,X,XkX8XnXnXnXkX6X<X<X^.  > CXFXGXGXGXGXGXFXFXGXFXFXFXFXgX,.,.[ { ] [ [ [ X.[ <.<.a = A 1X<X8XkXmXmXmXBXmXCX",
"mXnXmXmXkXkX8X8XmXnX<X<X8XkXhXnXnX7X4X<X~ Y 5 D mXFXGXGXGXGXFXGXGXFXGXFXFXFXZXwXwXwXwX7.' _ [ [ [ <.<.f - 9 <X<X7XkXmXmXmXmXmXCX",
"kXkXnXkXnXkXkXkXkXnX<X,XnXmXnXnXkX7X,X}.. : DXJXFXFXFXFXFXFXFXGXGXFXFXGXFXGXFXGXJXGXHXe.f g g g ` ' ' ;.< 3 ,X,X7XnXkXnXnXkX8X8X",
"kXkXkXnXnXnXkXkXnXnX,X<XnXnXnXnXkX6X,X}.. . DXGXHXFXFXFXFXFXGXFXGXGXFXFXGXGXFXFXFXFXFXOXL R d a g _ _ _ < , ,X1X7XkXkXnXnXkXkX8X",
"6X<X<X<X<X<X<X6X<X<X6X<X6X<X6X<X1XXX|.! . O PXFXSXFXBX0XdXhXAXZXZXZXBXhXNXhXBXAXBXFXFXNXuX#X0 < 1 a ;._ @ 3 }.}.XX,X<X<X<X<X6X<X",
"<X<X<X6X6X<X<X4XUX<X<X<X<X<X<X<X,XoX}.~ O O SXFXBXhX%X#X%XhXhXcXBXhXNXuX5XuXhXMXuXSXSXhX;X@Xe X ; < d g < 5 }.}.XX,X<X6X<X6X<X<X",
"mXmXkXkXkXnXkXnXkXnXnXnXnXkXnXkX7X<X>X|.. O 1X<XQ w.P.`.`.$XqXR.qX$XqXqX`.$X$X+X$X#X%X@X+X+X_.).Z ; a _ < > 2X4X2X8XkXkXkXkX<X1X",
"VXmXkX8XnXkXnXkXkXkXmXnXkXnXnXkX7X6X<X|.  : 4X7X$X7.q.9.6.y.6.2.2.+.y.>.6.q.7.r.$X#X#X+X+X+X*X.XZ - a g @ = 1X4X4X7X8XkXkXkX1X1X",
"mXmXnXmXmXnXnXnXnXmXnXMXnXnXnXkXkX7X<X|.* > ).Q r.f.y.y.+.2.@.3.=.2.y.2.2.y.f.j.r.w.$X+X+XoX.X_.3 = ; a - - &X,X7XpX8XnXmXnX<X1X",
"mXmXmXmXnXnXmXnXnXnXmXnXmXnXkXkXkX8X<X XW H O X ..u.k.Y.k.p.m m $.m $.z 5.y.k.y.t $ w.@X+X.X=X).3 = - - = = /.).7X7X7XkXmXmX<X1X",
"kXkXmXmXkXnXkXnXhXkXnXnXnXkXnXnXpX7X6X1X@XW + + <.a. .z $.m 7 7 7 & 7 7 e z 5.+.i a K k W  X X XZ = 3 E T U E E ! ,X<X7XkXnX1X<X",
"kXkXVXmXnXkXnXkXnXnXnXMXkXnXkXcXkX9X9X3X#X7.+ + y.$.2 7 I ! ! P q ~ Y P P 7 7 z ..{ y X W ).(.^.F Z T 1X-X&X.XQ H ,X,X6X8XkX,X1X",
"<X6X6X<X6X<X<X<X<X<X6X<X4X<X2X2X2X-X@Xe.0.;.+ + :.e w q ~ 6X,XI P ,X! q P q c 7 z ..[ _ :.5.2 , , F /.,X@XoXOXW I }.oX,X<X<X<X<X",
"<X<X<X<X<X<X<X6X6X<X<X<X<X6X2X2X;X#X`.q.8. .+ o 7 H c q H c P I hX~ q P q q H q w h +.+.a.t.@ . = = < 2 7 7 > 2 |.}.}.,X,X<X<X6X",
"kXkXmXnXkXkXkXkXkXkX1X1X8X9XcXuXuXtX[.j.0.l 7 q q q q k k P P I c H q P P P q c q e h @.-.y.u X o + O O X o O 7 1X<X1X6X8XkX8XkX",
"kXkXmXnXhXnXkXkXkXkX1X<X8X5XuXuXtX].[.f.k w I I P P P c H c I c H P H H q q q H q q % ..` } y y p p p p p p p . T }.<X<X6X8X8XkX",
"nXnXnXnXMXnXmXmXnXnX1X<X5XaXvXfX].0.k 4 _.0X8XkXmXmXmXmXXXY I P c H P c P P k c P I w l y y ..=.a.i.I.I.U.I.I.O O ! 0X7X6X8XnXMX",
"nXnXmXnXnXMXMXMXMXnX1X,XcXcXiX].q.S ^.9XAXHXGXJXKXKXKXKXLXCXmXmXMXMX{.q c H P P c P k w % y #.-.d.d.I.I.U.I.I.O O }.6X<X1X6XkXnX",
"nXkXMXnXpXpXpXpXpXnX,X-X0XtXtX`.Z J cXFXGXGXGXGXGXJXJXKXKXKXKXKXKXKXIX8X-XT q P k c I P % =.-.-.d.I.I.I.I.U.p.t.p.% O 7 &X,X<X7X",
"kXnXnXnXaXyXyXyXyXaX;X#X3X;X].e., ).ZXGXPXHXGXGXGXGXGXGXGXJXJXJXKXKXKXKXDXoX{.Y I q P P b %.d.-.d.Y.T.T.U.U.I.p.p.% O 8 ,X>X,X6X",
"6X<X<X2X%XwXqXwXqX'.#X$X`.r.f.j F VXAXPXVXVXPXHXHXPXGXGXGXGXGXGXGXGXGXGXKXKXLX8X{.Y w C k % | -.-.-.a.a.I.I.I.i.i.R 5.R Y U ! }.",
"<X<X<X%XwX`.7.7.7.[.[.j.0.f.8.f A cX:X:X-X5XcXMXMXMXAXPXPXHXHXFXHXGXGXGXGXGXVXDXDX1XP k P c ..#.| | =.-.d.i.i.i.i.p.i.5.X . ~ }.",
"kXcXcXvXrXw.= @ ; r.].[.j.9.8.j A oXA = = E -X-X-X4X:X4XlXkXcXmXCXPXHXHXJXGXJXCXVXLX-XH q k | u O O p -.a.a.i.i.i.i.p.%.X X Y |.",
"kXcXcXiXeX_.$ { ] 1 7.0.>.t t ( z , 3 V N v 9 0 9 A 9 A A 9 A D 4XcXCXVXVXLXJXLXJXLXVX@XT c 7 o e 7 p ) ..p.i.i.I.I.I.6.< ; P |.",
"MXMXaXrXfX`.$ @.@.] 4 2 K # + f 0 e P.Q.F.J.M.n.n M n n n n n 6 A A ~ zXcXCXCXPXKXPXcX-XI H k w e o u ) #.a.s.Y.s.s.s.6.d > A {.",
"MXMXaXrXfX`.# o.@.O.` ; > u # w BXBXQ.G.G.G.G.G.J.J.J.S.B.B.Z.l.N N x A A A F 5XVXVXcX-XI c I 8 e o y ) ) 2.p.Y.Y.Y.s.p.6.4 9 {.",
"pXpXsXrXgX`.$ X.@.@.o.( 1 @ W 9X!.Q.H.L.G.G.G.G.G.G.G.F.G.H.H.J.J.Z.n.n x b c E /.4XcX-XI H P w w & y ] ) ( ..I.Y.Y.Y.d.y.k 3 P.",
"pXpXsXrXwXT X f ( #.@.) t Y UX!.L.G.B x x x c.K.G.G.G.G.G.G.G.G.K.B x c 8 M.b.x 8 F E F e c I q 7 o % ) ) ) =.d.Y.s.Y.p.f.4 3 ).",
"<X3XtX].J s j j h i +.] a ).jXH.H.C P..XoX! 7 v.L.L.G.G.G.H.L.F.B ! oX X^.^ M.B.b.6 = ; a 7 0 @X9X7XoXy #.o.-.a.s.i.i.p.f.k 3  X",
"<X3XtX].k z +.+.o.h _ g k P.jXG.v.* 9XJXGXhX> 8 M.G.G.G.G.G.G.v.& XXGXGXBXw B H.S.V > < g 2 Y IXJXJXAX~  .+.@.a.d.i.i.p.t.k 3 }.",
"cXpXyXrXeX7.a ] { o.d X B H.G.S.  = XXDXIX0XD * : B.L.G.G.F.m.:   |.CXHX1X9 * v.K.D.M > f W CXGXGXGXGXPX! :.@.-.a.p.a.p.q.k 9 4X",
"kXpXaXrXeXeX7.; t i ` X B K.G.S.    * oX~ . *   . N.F.G.G.M..       E <X* *   v.K.E.v.> 0 MXVXGXJXGXGXGXGX~ o.@.=.y.%.6.h < 9 <X",
"nXMXcXsXeXeXe.< X.] g X B K.G.F.      > :       : x.F.G.G.M..   *   : : * * * v.K.W.m.2 H AXGXGXGXGXGXJXGX~ o.o.+.y.>.:.j @ 0 7X",
"nXnXNXvXrXeXe.t @.o.g X B K.K.F.8 .             o n.G.G.G.F.b : * * * * * * 7 M.K.K.m.> S AXGXGXGXGXGXJXcXT #.{ }  . . .K 2 A 7X",
"8XcXcXaXiX`.3 a ) [ ] < B K.E.E.B.. * *       5 V F.G.F.G.F.B.x :   * * *   v.E.E.E.m.2 ' W AXGXGXGXGXHXI g { { } :.K :.s < w >X",
"kX8XcXaXuXeX`.e.< - X   B A.] ' L.n.5 *     6 b.G.G.G.G.G.L.L.M.6 * * * : x.D.%.] *.m.5 < , ~ AXJXGXIXW g ] ] } j z z z d - A &X",
"<X<X<X3XtXqX].[.7.7.7.2 V V._ k V.E.v.l.N N v.F.L.L.L.L.L.L.L.F.v.B N l.v.C.A.J s %.M.> y t $ Q |.|.Q j ` ] ' j z 4 2 4 4 > D }.",
"<X6X4X3X;XwX].].[.[.[.A V A.:.(.F ..V.E.C.Z.C.C.C.C.D.C.C.S.C.C.C.C.C.C.E. .J E L %.m.3 # # # X $ $ y ( ` ' j j K 1 . > ! ! ! oX",
"CXmXhX8XyXrXeXqXS Z 3 = B A.;.(.nX, = j ] ] { { { { o.{ { { { { { ] [ ] s Z =X).:.%.M.> . - . # g ` ` ` g j j s J a . > .X-X{.oX",
"CXmX8XaXiXrXqXJ c v.N : B D.&.;.mXCXzX4XL W zX X3 s a 4 L _.`.J =X:X~.~.xXlXVX7.5.C.n.5 B c.M 2 y ` ( g j h s 4 X > 9 D oX,X}.XX",
"mXmXMXNXiXtXT x C.K.n.& V G.V.| 7.FXHXPX(.=XLXnXG lXMXG ^.AXCX~.CXLX=X=XLXLX'.} &.L.n.7 b.G.F.C 1 f _ f s s s 1 . w &X,X<X7XXX,X",
"MXMXMXcXiXtX7.x E.W.n.& x J.H.A.} w.CXHX=XzXLXmX~.DXLX~.*XJXAX/.VXJXzXzXKX`. .*.C.F.B & b.K.D.x 1 g g d s s J 0 9 I 1X1X8XkX,X1X",
"kXcXCXNXiXrX`.7 x.G.n.: c n.G.H.*.m @XdX/.*XJXCXE VXGX~.4XJXDX~.AXLX:X^.iX5.$.C.E.M.v & x.J.b.7 a t @ @ ; ; ; U XX&X,X<X6X8X,X1X",
"kXkXmXNXyXrX`.J 0 v N 0 w l.M.H.K.H.&.| d 7.sX;XL cXsXE _.bXsXL uXiX7.d $.A.D.H.M.z.c & M M e ).:.X O . .   . U ,X,X,X6X8XkX1X1X",
"<X6X<X2X3X;X].].'.H 4 e.R x l.x.H.H.E.D.&.| | | } |  .}  .} } } } } | *.K.K.H.n.z.x @ i ; X j 8.:.s k 0 S 0 A ~ }.oX,X,X<X<X<X6X",
"<X<X<X6X3X;X;XqX[.'.'.].'.T c z.m.K.K.K.H.E.D.D.Z.Z.Z.V.&.b.Z.Z.D.D.D.H.K.K.M.x.x > 4 ` i $ ' 0.`._.OXOX}.}.}.}.oX,X,X<X<X6X<X<X",
"kXkXnXnXcX8XaXyXiXrX].[.eX'.R 8 x.m.m.n.B.F.F.F.F.G.G.G.F.G.F.G.H.H.F.B.n.n.x.c l 6.6.>.g # 5.$X#X,XXX&X,X,X<X<X8XkXnXnXnXnXkXkX",
"kXkXMXMXkXhX8XpXaXuX$XqXeXeX'.W 8 8 N z.x.x.n.m.M.m.n.n.m.m.m.m.m.n.n.n.z.c r J :.y.2.6.d @ W -X@X,X<X<X7X7X7X7XnXnXnXmXnXkXkXkX",
"nXmXnXnXnXnXMXMXnXMX#X#XiXeXfXwXJ J C x v x v x.z.z.l.z.z.z.z.z.l.v x x x I @ % + # # @ @ - w.<XXX1X<X7X7X7X7X7XmXmXCXmXnXnXmXmX",
"nXnXMXnXnXMXmXmXnXnX1X1XaXdXfXfXeXw.3 o 5 : 6 v v x x x x x x x x 6 : 5 9 ).# # # @ @ - ; - |.4XXX<X6X7X8X8XkXkXmXmXmXCXmXkXmXmX",
"nXkXnXmXkXkXkXkXhXnX1X1XaXuXrXrX_.: c z.l.l.x : * . X X X X . = : N z.x.c.8 @ # # @ X - = = ! >X,X<X7XkX8X8XkXnXkXkXkXkXkXkXkXkX",
"kXnXnXnXkXkXkXnXkXnX<X1X9XuXiXrXA c S.K.n.x.N.x * # # # # # # . n n.M.H.H.x.5 # @ @ - - = : ~ =XoX6X6X8X8XkXkXkXkXkX8XkXkXkXkXnX",
"<X<X6X<X<X6X<X6X4X<X2X<X2X3XtXqX7.: 8 8 5 5 5 2 y i g g g g f t 6 5 5 8 8 5 1 f l 0 0 w 9 D ! XXoXXX,X<X<X<X<X6X<X<X<X<X<X6X<X6X",
"6X<X6X<X<X6X<X<X<X<X2X4X<X2X;XtX].[.[.f.f.8.8.8.8.q.r.e.r.r.8.8.8.q.8.8.8.8.q.r.e.OX X}.}.}.}.}.XX,X,X<X<X6X<X<X<X0X<X6X<X<X<X<X"
};
