/* XPM */
static char *result[] = {
/* columns rows colors chars-per-pixel */
"64 64 253 2 ",
"   c #02011E",
".  c #070B1D",
"X  c #1B031D",
"o  c #181A1B",
"O  c #0E0E0E",
"+  c #38071D",
"@  c #18261E",
"#  c #020221",
"$  c #0B0B25",
"%  c #160323",
"&  c #0D1423",
"*  c #141B23",
"=  c #141829",
"-  c #161433",
";  c #230523",
":  c #271A36",
">  c #2F0F2C",
",  c #1A2527",
"<  c #1E3326",
"1  c #1C2236",
"2  c #252525",
"3  c #2B2B2B",
"4  c #262929",
"5  c #233429",
"6  c #282939",
"7  c #32253A",
"8  c #333334",
"9  c #3D3D3D",
"0  c #3A3536",
"q  c #302E2E",
"w  c #253D1F",
"e  c #490522",
"r  c #51102E",
"t  c #670A28",
"y  c #770C29",
"u  c #46353A",
"i  c #482A36",
"p  c #430A1F",
"a  c #2B4726",
"s  c #365628",
"d  c #354C2F",
"f  c #3D622A",
"g  c #3F7B21",
"h  c #37581D",
"j  c #45721E",
"k  c #456C2A",
"l  c #487727",
"z  c #52762D",
"x  c #507231",
"c  c #555735",
"v  c #2B2C46",
"b  c #392A48",
"n  c #38344C",
"m  c #35324C",
"M  c #3E3A6A",
"N  c #251F46",
"B  c #452B46",
"V  c #4A344D",
"C  c #573946",
"Z  c #4E3553",
"A  c #69354E",
"S  c #763969",
"D  c #4F1041",
"F  c #424242",
"G  c #4A4548",
"H  c #575759",
"J  c #564554",
"K  c #64434D",
"L  c #6D4E57",
"P  c #75485A",
"I  c #76555E",
"U  c #514E6D",
"Y  c #72516B",
"T  c #726D76",
"R  c #7A7979",
"E  c #6A696F",
"W  c #5A6E40",
"Q  c #8F102C",
"!  c #A80928",
"~  c #B7162A",
"^  c #B20C28",
"/  c #992A2C",
"(  c #99352D",
")  c #8B2533",
"_  c #A2332F",
"`  c #89061F",
"'  c #C3192B",
"]  c #D1192C",
"[  c #CD242E",
"{  c #E6282D",
"}  c #E01C29",
"|  c #914B34",
" . c #A45635",
".. c #9C6A34",
"X. c #88612F",
"o. c #A46E35",
"O. c #982449",
"+. c #901749",
"@. c #885768",
"#. c #96576B",
"$. c #995A72",
"%. c #8C566E",
"&. c #A25D71",
"*. c #8B6475",
"=. c #98677B",
"-. c #93616E",
";. c #A66579",
":. c #B16476",
">. c #8A4D55",
",. c #4D8627",
"<. c #538C29",
"1. c #518728",
"2. c #599528",
"3. c #598532",
"4. c #629528",
"5. c #699A35",
"6. c #7E8D2A",
"7. c #68A62D",
"8. c #6AAA32",
"9. c #68A433",
"0. c #72A633",
"q. c #77B636",
"w. c #72B22D",
"e. c #4C831E",
"r. c #7AC430",
"t. c #948F32",
"y. c #A08C37",
"u. c #9AB839",
"i. c #8BAD31",
"p. c #83C42E",
"a. c #85C734",
"s. c #95C937",
"d. c #8DD536",
"f. c #93D435",
"g. c #94DC34",
"h. c #93D63A",
"j. c #94DB3B",
"k. c #9ADB3A",
"l. c #8CD62E",
"z. c #94E135",
"x. c #9AE33B",
"c. c #99E43A",
"v. c #95BA48",
"b. c #839073",
"n. c #94A95A",
"m. c #95DB48",
"M. c #8DD045",
"N. c #A6D054",
"B. c #97E945",
"V. c #A8E54A",
"C. c #BDE37E",
"Z. c #C0E67F",
"A. c #5D5D89",
"S. c #7C7487",
"D. c #6C6B8F",
"F. c #746798",
"G. c #93798B",
"H. c #A36D81",
"J. c #AB7487",
"K. c #B6778C",
"L. c #BB7D92",
"P. c #B1748B",
"I. c #C46E83",
"U. c #C37186",
"Y. c #C9768B",
"T. c #D3788E",
"R. c #D0738A",
"E. c #D07C91",
"W. c #CF7E92",
"Q. c #848487",
"!. c #979698",
"~. c #938B95",
"^. c #B7949D",
"/. c #B68895",
"(. c #9A9AA7",
"). c #9392AE",
"_. c #A69AAA",
"`. c #BC9CA3",
"'. c #B79AA1",
"]. c #A79DB4",
"[. c #AEAEAE",
"{. c #A9A4A5",
"}. c #B5A5A9",
"|. c #B1ACAD",
" X c #B9A1A6",
".X c #A8A6B8",
"XX c #B4AABA",
"oX c #BCBCBD",
"OX c #BBB8B6",
"+X c #B8B6AF",
"@X c #9EA1B2",
"#X c #CB8495",
"$X c #C68D9B",
"%X c #C78697",
"&X c #D6889D",
"*X c #C2929E",
"=X c #DC8EA3",
"-X c #D38DA1",
";X c #DE92A6",
":X c #D59CAC",
">X c #DC9BAC",
",X c #D795A7",
"<X c #CD99A7",
"1X c #E098AC",
"2X c #E29EB2",
"3X c #CAA3AE",
"4X c #D4A6AF",
"5X c #CCACB5",
"6X c #C9AAB3",
"7X c #D3A4B1",
"8X c #D4AAB5",
"9X c #D8A7B5",
"0X c #C5B5BA",
"qX c #CBB4BA",
"wX c #C4BABE",
"eX c #C9B6BC",
"rX c #D2B2BB",
"tX c #D9B0BC",
"yX c #E2A5B6",
"uX c #E1B9B8",
"iX c #B5C49A",
"pX c #CBDDA2",
"aX c #BFBFC0",
"sX c #BCB5C2",
"dX c #AAA7C3",
"fX c #AF9FC0",
"gX c #C3BEC1",
"hX c #CCBDC2",
"jX c #C8BCC9",
"kX c #D7BBC2",
"lX c #E3BEC0",
"zX c #C3C3C4",
"xX c #C9C1C4",
"cX c #C6C6C9",
"vX c #CCC5CB",
"bX c #CBCBCD",
"nX c #D2C6C7",
"mX c #D8D6CC",
"MX c #D4CDD5",
"NX c #DAD7D7",
"BX c #CACDD4",
"VX c #E2DCDC",
"CX c #DDE1CF",
"ZX c #E6E5DB",
"AX c #EAEAE5",
"SX c #F0EFE4",
"DX c #F3F3E5",
"FX c #FCFEEC",
"GX c #F5F5EA",
"HX c #FDFEF2",
"JX c #FFFFFD",
"KX c #F1F1F1",
"LX c #DFDDE5",
/* pixels */
"zXzXzXzXaXzXzXzXzXaXzXaXaXaXaXaXaXaXoXoXoXzXaXaXcXcXzXcXoXoX[.{.aXaXzXzXzXaXzXzXaXzXaXzXaXaXaXaXaXaXoXoXaXaXaXaXcXzXcXzXoXoX[.[.",
"zXaXzXzXzXzXcXzXaXzXaXzXaXaXaXaXaXoXoXoXaXoXaXaXzXzXcXcXoXoX{.[.aXzXzXzXzXaXzXcXzXaXzXaXaXaXaXaXaXaXoXoXaXaXaXaXzXcXzXzXoXoX[.{.",
"cXcXzXaXbXbXzXcXcXcXzXzXcXzXaXoXoXoXoXoXoXoXcXzXcXcXbXbXcXcX{.{.cXcXzXzXmXBXzXcXcXzXzXcXzXcXoXoXoXoXoXoXoXoXzXcXcXcXbXBXcXcX{.{.",
"cXcXaXzXbXbXcXcXzXzXcXcXcXzXoXoXoXoXoXoXoXoXcXzXzXcXBXbXcXcX[.[.cXbXzXaXbXBXcXzXzXcXzXcXcXzXoXoXoXoXoXoXoXoXzXzXcXcXbXmXcXcX{.[.",
"zXzXcXzXzXzXaXzXzXaXzXaXzXcXcXzXoXoXzXzXzXaXaXzXbXzXcXzXaXoX[.{.zXzXzXcXzXzXaXzXzXaXzXaXcXzXzXcXoXoXaXzXaXzXzXzXcXcXcXcXoXoX[.[.",
"zXzXcXcXzXzXzXaXaXzXaXaXcXzXcXcXoXaXzXaXaXzXaXaXbXzXbXcXoXoX{.[.aXzXcXcXzXaXzXaXzXcXaXzXzXzXcXcXoXoXzXzXzXaXzXzXcXcXcXBXoXoX{.{.",
"[.[.[.[.|.[.[.[.+X[.[.[.[.[.+X[.+X[.[.[.[.[.[.[.+X[.[.[.+X[.[.[.[.[.[.[.+X[.[.[.[.[.[.+X[.[.[.+X+X[.[.[.[.[.[.[.[.[.[.[.[.[.iX[.",
"[.[.[.[.[.[.[.+X[.[.[.+X[.[.[.[.[.[.[.[.+X[.[.+X[.[.[.[.[.[.[.[.[.[.[.[.[.[.[.[.[.[.[.[.[.[.[.[.[.[.[.[.[.[.[.[.[.[.[.[.[.[.[.[.",
"aXzXaXaXaXaXoXoXaXaX{.{.zXaXzXaXzXaXzXzXaXzXaXzXzXcXzXzXzXcXcXzXzXaXaXaXaXaXoXoXaXaX[.{.zXaXzXaXzXaXaXzXzXaXzXaXcXcXzXzXcXzXcXcX",
"zXaXaXaXaXaXoXoXaXaX{.[.aXzXaXzXaXzXaXaXzXaXzXzXzXzXzXzXcXcXzXcXzXzXaXaXaXaXoXoXaXaX[.{.aXaXaXzXaXaXzXzXaXzXaXzXcXzXzXzXzXcXcXzX",
"cXzXcXcXaXaXoXoXcXbX[.{.oXoXcXzXcXzXcXcXzXzXcXzXcXzXbXbXbXbXbXbXzXcXcXcXaXaXoXoXcXcX{.[.oXoXzXcXzXcXzXcXzXcXcXzXzXzXbXbXbXbXbXBX",
"zXcXBXcXaXaXoXoXcXcX{.[.oXoXcXzXzXzXcXcXcXzXzXcXzXcXbXbXMXbXmXbXcXcXcXbXaXaXoXoXcXzX[.{.oXoXcXzXzXcXcXcXzXzXzXcXcXzXbXbXBXbXmXBX",
"aXaXzXaXzXzXaXaXaXaX{.[.zXzXcXcXcXcXaXaXzXaXzXaXcXcXzXaXaXaXaXaXaXaXaXzXaXzXaXaXzXaX{.{.cXcXcXzXzXcXzXzXaXzXaXzXzXcXaXzXzXaXaXaX",
"aXaXaXzXzXcXaXaXaXoX[.[.cXzXcXzXcXcXaXaXaXzXaXzXcXcXaXzXaXaXoXoXaXaXgXgXzXaXoXzXaXzX[.[.zXzXcXBXcXzXzXaXaXzXzXaXcXcXzXzXaXaXaXoX",
"[.+X[.[.[.[.[.+X[.[.[.+X[.[.+X[.+X[.[.[.[.+X[.[.[.[.+X+X[.[.[.[.iX[.[.[.[.[.[.[.[.+X[.[.[.[.[.[.[.[.[.[.[.+X[.[.[.[.[.[.[.+X[.[.",
"[.[.[.[.[.[.[.[.[.[.[.[.[.[.[.[.[.[.[.[.[.[.[.[.[.[.[.[.|.|.|.|.[.[.|.|.|.|.|.[.[.[.[.[.[.[.[.[.[.[.[.iX[.[.[.[.[.+X[.[.[.[.[.[.",
"BXBXaXaXzXaXzXaXoXzXzXcXzXzXzXaXzXaXzXcXzXzXzXcXcXxXgXwX0X0X^.^.nXnX5XqXeXwXwXxXzXzXzXzXzXaXaXzXzXzXzXcXzXzXzXcXzXcXzXaXaXaX[.{.",
"BXmXaXaXaXzXaXzXzXzXzXzXaXzXaXzXzXaXcXcXzXzXzXxXxXjXeXqX3X7X#XY.yXyX:X:X4X7XqXeXwXwXcXxXaXaXzXaXzXaXzXcXzXzXcXcXzXcXaXaXaXaX{.[.",
"cXbXcXbXcXzXcXzXzXzXcXzXzXcXzXaXzXcXzXzXcXbXgXeXkXkX9X9XyX2XR.R.yX2X9X1X1X>X4X8XqXeXxXcXzXcXaXzXcXcXzXcXbXbXaXzXbXBXcXcXcXbX{.[.",
"bXcXbXcXzXcXzXcXcXzXcXcXzXzXzXzXzXzXcXzXnXnXeXqXlXuX1X1X2X%XA C L L L L @.&X1X>X8XtXhXxXzXzXzXaXzXzXcXzXBXcXzXzXbXBXcXcXbXzX[.{.",
"aXaXbXBXzXzXaXzXaXzXcXcXzXaXzXzXzXzXzXxXwXqX4X,X=X&X-.>.I L 3 4 2 @ 2 q B I @.#X;X:XtXeXwXzXzXzXaXaXcXcXzXaXaXaXoXoXaXaXzXaX[.{.",
"aXaXBXmXzXaXzXaXzXzXcXzXaXzXaXgXzXwXcXhXqX4X,X;X&X@.q 2 G R R F V E H F d 3 q I J.;X9XrXwXwXwXaXaXzXcXcXaXzXaXzXaXoXaXzXaXzX[.{.",
"+X[.[.[.[.[.[.[.[.OX[.[.[.[.[.[.|.}.`.*X%XT.I.#.@.q 0 9 E +X(.G G {.R F d V F 3 K :.T.#X`. X|.[.[.[.[.+X[.[.[.+X[.[.[.[.[.[.[.[.",
"[.[.[.[.[.[.+X[.[.[.[.[.[.[.|.}.}.^.*X#XT.Y.>.o 2 n 9 9 9 d F G oXE u d V 0 d u q u Y.T.$X`.}.[.[.[.[.[.[.[.[.[.[.[.[.[.[.[.[.iX",
"aXaXzXcXzXaXaXaXaXaX[.{.OXoX0X0X5X4X&X&X#X@.2 d V 9 9 d d V F F d V d V F F 0 d d 8 A I.&X:XqX0XgXaXoXoXaXaXaXaXcXcXzXcXaXzXaXaX",
"aXaXcXzXaXzXaXaXaXaX[.{.oXOX0X6X:X=X#X&Xu q F G F F 9 9 9 F F F F F V d n F 9 u u b q :.&X-X5X0XoXoXoXoXaXaXaXaXcXcXcXcXzXaXaXaX",
"cXzXcXzXcXzXcXbXzXzX{.[.wX0XkX9X&XK.Z i ~.}.oXoXcXvXvXcX!.H G F 9 d V F F V F 0 9 d 9 u #X;XtXhX0XoXoXoXOXaXoXoXBXbXBXbXzXzXbXbX",
"cXzXcXcXzXxXbXcXzXaX[.{.wXqXtX2XY.b S.OXSXDXGXFXJXJXJXJXAXNXbXcXcXzXQ.9 n d F 9 9 F F 0 C #XyXtX6XOXoXoXoXoXoXOXBXbXBXmXcXzXcXbX",
"zXaXzXzXwXwXwXwXwXwX{.{.0X6X4X%Xb n eXFXFXFXFXFXFXHXHXJXJXJXJXJXJXJXNXoX{.H d n F d V F 3 Y.1X4XrXeX0XwXoXoXzXzXaXaXaXaXaXaXaXzX",
"aXzXzXxXwX5X5X5X5XqX'. X6X3X>XP.- G.CXFXDXGXFXFXFXFXFXFXFXHXHXHXJXJXJXJXZX!.Q.H F 0 9 F 0 -.&X1X:X8X5X0X0XoXzXoXaXaXaXaXaXaXzXaX",
"[.+X[.}.^.<X$X#X#X$X$X*X^.#XT.;.v MXAXSXmXVXSXDXDXSXFXFXFXFXFXFXFXFXFXFXHXJXGXOXQ.H 0 d 9 3 &.R.T.T.$X`. X}.[.[.[.[.[.[.[.+X[.[.",
"[.[.[.'.$X:.&.#.@.R.T.#X#X#XT.:.m jX]._._.XXjXvXvXvXZXSXDXDXDXDXDXFXFXFXHXHXNXAXAX[.V 9 u u :.&.@.#.:.%X X|.[.[.[.[.[.[.[.[.[.[.",
"aXgXhXrX>X*.. ; % P.;X,X=X;X;XP.n !.N - $ U _._._.XX.XXXXXgXgXvXMXAXGXGXHXHXHXMXLXSX_.G 9 G ;.u O O K =X4X0XwXaXcXcXcXzXOXOX[.{.",
"aXgXhX9X1X;.+ ' ! > ;.Y.&X=X=X&XY - 1 x l f 6 q 1 6 6 6 v v 6 m .XjXBXMXNXGXFXKXKXHXNX!.G 9 q o q 4 L =X3X6X0XaXzXzXzXcXaXaX{.[.",
"cXvXeX7XyXP.+ } { ! > : *.-XW.=.v 0 n.V.l.p.w.7.l j j k j j l , 6 v E sXsXMXMXSXGXSXkX_.G 9 u 8 q 2 K &X,X6XxXzXcXcXbXBXcXcX[.{.",
"vXxX5X7XyXP.+ ] { } ! X 1 G.@.n mXCXN.g.g.g.k.g.p.p.p.r.p.a.p.1.l l f N v v m XXVXVXjX_.F 9 F 4 q @ K =X;X4XeXzXcXzXbXmXcXcX[.{.",
"gXwXrX>X1X;.+ ' { { } ` p : T +XC.V.k.g.g.g.g.g.g.g.g.g.g.f.f.p.i.p.7.j s s d H D.].hX).G V V 0 q 2 P ;X;X4XqXwXcXzXcXcXoXoX[.{.",
"gXwXrX1X$XU X t Q [ { ^ e H iXZ.g.g.z s s s 3.x.z.g.g.g.g.g.g.c.c.z s a 5 0.2.f a v U V 3 d F d 2 o u =X;X1X5XeXcXcXcXBXoXoX[.{.",
"|.}.*XT.G r y y t t [ ! p b.pXk.f.k b.~.!.R 2 5.c.z.g.g.g.g.g.d.1.R ~.~.Q.W 0.r.4.5 # % e 3 8 (.OX+X_.P I.T.$X X[.[.[.[.[.[.[.[.",
"|.}.*XE.9 ) [ [ [ t y y i n.pXl.5.  wXFXFXnX$ 5 q.g.g.g.g.k.f.5., !.FXFXmX7 3.h.s.z = X y : H VXHXJXZXR -.I.T.*X}.[.[.[.[.[.[.[.",
"gXwX5X:X=X$.r ! ~ ' e X z k.g.a.  $ !.AXCX+Xn   * q.z.z.g.d.5.*   Q.MXGX{.6   5.x.a.k > t Y MXFXFXHXFXDXS.=.1X7XeXxXzXzXzXcXcXzX",
"zXwX5X:X=X-X@.% e t ` ; z k.z.a.  # # !.T       . <.l.z.z.w.. #     U [.$ # # 5.x.k.5.= 7 nXNXFXFXFXFXFXFXT =X,XrXxXzXzXzXzXcXcX",
"xXxXnXrX;X;XH.+ ' ! y X z x.k.d.  #   - &       . 2.l.g.z.q.  # #   $ = # # # 5.x.x.9.= b ZXFXFXFXFXFXFXFXT 1X9XrXxXnXbXbXBXmXbX",
"zXzXxXkX:X;X=.e } ] y X z x.c.d.w               * 8.l.g.g.a.h o # #     #   2 q.V.B.0.= b ZXFXHXFXFXFXHXcXJ 1X9XeXzXbXbXbXbXmXbX",
"aXaXwXqX7XL.: e ^ ^ ^ ; l c.m.m.r.. # #       @ x l.z.g.g.g.a.s $   # # # . 5.m.m.B.9.2 Q Y VXFXFXFXFXDXJ *.,X8XeXxXaXzXaXaXaXaX",
"aXaXwXeX5X,XL.;.- % X   z y.! Q z.8., #     4 4.z.z.g.l.g.z.d.w.< # # # . 2.s. .!  .0.= ; - E ZXFXFXZXT H.&X:X5XhXcXzXzXaXaXaXaX",
"[.[.|.}.`.#XT.U.&.&.#.: x y.Q 7 t.N.5.,.l g 4.j.z.z.z.z.g.z.j.m.9.z l ,.5.v.o.i r  .8.6 @.$.%.G.~.Q.G.%.Y.T.$X X|.|.[.[.[.[.[.[.",
"[.[.|. X`.%XT.T.U.U.U.7 x y.O.F.n / t.M.u.u.u.u.u.u.u.u.s.u.u.v.u.u.u.u.M.| B A.S  .0.6 &.I.I.%.P P @.Y.T.*X`.}.|.|.+X[.[.[.[.[.",
"MXmXaX0X5X:X;XY.b : N $ z y.+.F.jX- % y ^ ! ! ! ~ ~ ' ' ~ ~ ~ ~ ! ! ^ ! r - ).F.O. .0., : 7 7 P.;X=X1X2X8XrXxXxXcXcXzXaXaXaX[.{.",
"bXBXaX0X8X>X%XJ d 5.l & z s...Q BXMX.X].Z Y dX~.> D D > A J.G.B ).dXY A.fXjXLX;.>.u.7.2 x x f G P.=X>X9XqXeXxXcXcXzXaXaXaXaX[.{.",
"cXbXcXnX8X$XK s u.V.7.@ k c.t._ #.GXDXDXF.).KXcXM sXjXM S.LXMXA.MXKX).).KXHXL.Q ..z.5.< 4.k.s.k Z J.2XrXnXcXoXzXbXMXcXcXbXbX{.[.",
"bXcXvXhXrX,XY d d.B.7.o s a.k.t./ *.mXFX).dXJXBXA.AXKXA.(.HXAXA.NXJXdXdXHX/./ o.u.g.z @ 4.x.f.s U K.8XqXnXcXzXzXbXbXcXzXcXbX{.{.",
"zXoXMXnX5X;XP.4 2.d.9.o a 8.g.k...c /.4XD.).HXbXU LXGXD.@XHXZXA.LXGX@XS.8X| | v.m.r.f @ 4.a.4.8 H.1XtXeXzXzXaXaXoXaXaXaXaXaX[.{.",
"oXzXBXnX5X4X%XB 7 f l 8 0 1.w.j.c.h.X.| r %.uX'.Z 6XrXY G.kX7XY 3X8X-.r | o.f.j.q.e.s q k k 0 *.&X:XrXxXwXzXaXzXoXaXaXzXaXzX{.[.",
"[.[.[.}. X*X#XT.R.u 7 ;.P d ,.<.h.z.k.k..._ ( ( / ( / ) / ) / ( / / _ o.x.x.j.7.l s 7 $.u b $.R.#X*X X}.[.[.[.[.[.[.[.[.[.[.[.[.",
"[.[.[.+X}.`.*X%XE.U.U.T.Y.J a <.7.x.m.k.m.s.s.s.u.i.i.t.t.6.6.i.s.s.s.k.x.B.w.2.s = V K.U.U.R.#X*X X X|.[.[.[.[.[.[.+X[.[.[.[.[.",
"aXaXzXzXgXwX0X5X7X:XY.R.&XY.L 5 <.9.9.8.r.r.d.d.h.h.g.l.f.f.h.d.j.d.z.r.8.8.2.a G P.I.R.&X&X4X6XOXaXoXoXaXaXaXaXcXcXcXcXaXaXaXaX",
"aXzXcXzXgXgXgX0X0X6X/.%X&X&XK.*.< 5 ,.<.2.9.9.9.8.8.8.8.7.8.8.7.7.7.8.2.,.a < H J.;XR.Y.3X3XqX0XoXoXoXoXaXaXaXaXcXcXcXcXaXzXaXaX",
"zXzXzXzXcXzXcXvXxXxX'.'.8X,XyX$XZ Z f f s s g <.<.<.,.<.<.,.<.<.,.f s f s G J /.1X1X%X^.qX0XcXbXoXoXoXoXoXoXoXoXBXbXBXbXcXzXbXbX",
"zXcXzXcXcXcXcXbXzXzX{.{.0X7X1XyX-XH.: * , * < f f s s s s s s s s < * * 1 *.,X2X1X7X/. XwXwXbXbXoXoXoXoXoXoXoXoXBXbXmXbXzXzXbXcX",
"zXzXzXzXaXaXzXaXzXaX{.|.0X6X9X;XJ.& a <.,.,.s . $ B V V Z V B $ @ l <.2.3.< *.-X;X8X'.{.oXoXcXcXzXzXoXzXaXoXaXzXaXaXaXaXaXaXzXaX",
"zXzXzXzXzXzXaXzXaXaX[.[.OX6X8X1Xv a a.c.w.2.e.s : %X=X=X;X=X%X6 g 2.w.k.j.3.4 P.7XqX{.{.oXoXcXbXzXzXwXoXaXaXzXaXaXaXoXzXaXaXaXzX",
"[.[.[.[.[.[.[.[.[.[.[.[.|.}.*X%X%.- 5 5 , , , u :.R.T.T.T.T.R.$.6 , , < 4 , L Y.*X}.|.[.[.[.[.[.[.[.[.[.[.[.[.[.[.[.[.[.[.+X[.[.",
"[.+X[.[.[.+X[.[.[.[.[.[.|.}.`.*XW.T.T.T.Y.T.T.T.R.#X%X$X$X%XW.T.E.Y.T.T.E.E.W.$X`.}.|.[.[.[.[.[.[.+X[.[.+X[.[.[.[.[.[.[.[.[.[.[."
};
