/* XPM */
static char *result[] = {
/* columns rows colors chars-per-pixel */
"64 64 256 2 ",
"   c #09030B",
".  c #1B060D",
"X  c #0D041C",
"o  c #0A0417",
"O  c #13041C",
"+  c #1B031B",
"@  c #130A1C",
"#  c #180614",
"$  c #1D1015",
"%  c #26061C",
"&  c #37061D",
"*  c #24131B",
"=  c #2F1515",
"-  c #0C0423",
";  c #0D0626",
":  c #120522",
">  c #1B0424",
",  c #130923",
"<  c #140329",
"1  c #1B042B",
"2  c #190B28",
"3  c #1A1528",
"4  c #190634",
"5  c #1D1434",
"6  c #080835",
"7  c #240324",
"8  c #290726",
"9  c #360826",
"0  c #271427",
"q  c #39182A",
"w  c #240636",
"e  c #251B36",
"r  c #381C33",
"t  c #360B34",
"y  c #28222A",
"u  c #2C2C3C",
"i  c #282336",
"p  c #322D3D",
"a  c #372637",
"s  c #32323D",
"d  c #4E0B1E",
"f  c #63101C",
"g  c #6A281C",
"h  c #480526",
"j  c #570628",
"k  c #431827",
"l  c #59192B",
"z  c #550733",
"x  c #4A1937",
"c  c #57193A",
"v  c #460532",
"b  c #660629",
"n  c #760528",
"m  c #68122B",
"M  c #6B0A33",
"N  c #760734",
"B  c #661838",
"V  c #761839",
"C  c #492535",
"Z  c #572538",
"A  c #4F2E33",
"S  c #67243B",
"D  c #752837",
"F  c #6D312E",
"G  c #271642",
"H  c #2A2844",
"J  c #342C44",
"K  c #383646",
"L  c #383255",
"P  c #091142",
"I  c #582644",
"U  c #443A4B",
"Y  c #4B3453",
"T  c #752943",
"R  c #70334B",
"E  c #5D1441",
"W  c #3C4251",
"Q  c #44434E",
"!  c #4A4858",
"~  c #544A5A",
"^  c #57535B",
"/  c #544F4E",
"(  c #6E4B56",
")  c #5A5966",
"_  c #555068",
"`  c #645B67",
"'  c #6E536E",
"]  c #5D626A",
"[  c #63646A",
"{  c #676976",
"}  c #746A77",
"|  c #76767B",
" . c #726A71",
".. c #76695A",
"X. c #86052B",
"o. c #860633",
"O. c #990A34",
"+. c #960D30",
"@. c #A8072A",
"#. c #B6052B",
"$. c #A30D34",
"%. c #BA0934",
"&. c #A81838",
"*. c #873537",
"=. c #902E37",
"-. c #AD3233",
";. c #C70B35",
":. c #D80B38",
">. c #D41234",
",. c #E50D3A",
"<. c #E5183B",
"1. c #EB1535",
"2. c #EE2D3B",
"3. c #8D4B36",
"4. c #A9513B",
"5. c #A4673F",
"6. c #C84434",
"7. c #941742",
"8. c #852D43",
"9. c #922C45",
"0. c #AE3247",
"q. c #B11A41",
"w. c #D21747",
"e. c #E51941",
"r. c #F70E42",
"t. c #D22F50",
"y. c #EB2747",
"u. c #E23A58",
"i. c #F93856",
"p. c #F22949",
"a. c #90544E",
"s. c #AE504C",
"d. c #906754",
"f. c #B77050",
"g. c #865B6D",
"h. c #9B6768",
"j. c #99787B",
"k. c #90746F",
"l. c #B86765",
"z. c #B97766",
"x. c #AA736C",
"c. c #B65A63",
"v. c #C75053",
"b. c #FB4859",
"n. c #E0415D",
"m. c #D8784D",
"M. c #C77855",
"N. c #D97855",
"B. c #CF6D4F",
"V. c #FB4864",
"C. c #F15063",
"Z. c #C4776B",
"A. c #C97769",
"S. c #DC7563",
"D. c #AA837A",
"F. c #B48875",
"G. c #8F8577",
"H. c #CE8755",
"J. c #D88756",
"K. c #DC935D",
"L. c #CF824A",
"P. c #E28156",
"I. c #E2835A",
"U. c #D28E72",
"Y. c #E49C6D",
"T. c #E2A26A",
"R. c #DDA064",
"E. c #7A7985",
"W. c #6F738A",
"Q. c #867B87",
"!. c #8E7C8B",
"~. c #A17481",
"^. c #79838D",
"/. c #7C8CA2",
"(. c #868687",
"). c #8E8D8E",
"_. c #86858A",
"`. c #978785",
"'. c #8A8994",
"]. c #958C98",
"[. c #949494",
"{. c #9C9C9C",
"}. c #95979A",
"|. c #8B9195",
" X c #A78988",
".X c #A48D95",
"XX c #A79798",
"oX c #B59A9A",
"OX c #AE9188",
"+X c #B8A399",
"@X c #8A9AA6",
"#X c #9E9EA0",
"$X c #9C99A8",
"%X c #9199B4",
"&X c #A49DA8",
"*X c #A19EB2",
"=X c #9AA1A6",
"-X c #99B1BE",
";X c #A4A4A5",
":X c #A5A6A9",
">X c #ADADAD",
",X c #A6AAAC",
"<X c #B5ADA8",
"1X c #AEAEB0",
"2X c #A0ADBB",
"3X c #B3B3B4",
"4X c #B6B6B8",
"5X c #BBBBBC",
"6X c #BCB7B5",
"7X c #B2B3AF",
"8X c #D1968D",
"9X c #EE9789",
"0X c #D7A890",
"qX c #ECBA88",
"wX c #F9B999",
"eX c #EFAB91",
"rX c #C5B8B1",
"tX c #E9BBA9",
"yX c #BEC2BA",
"uX c #FDC29C",
"iX c #F6C39F",
"pX c #D1C6B7",
"aX c #F8C7A8",
"sX c #ECCEB7",
"dX c #D1C09F",
"fX c #BFBFC0",
"gX c #B4B7C0",
"hX c #9EA8C0",
"jX c #BAC4C8",
"kX c #C3C3C4",
"lX c #C7C7C8",
"zX c #CBCBCC",
"xX c #C4CCCB",
"cX c #D4CBC4",
"vX c #DAD4C6",
"bX c #CBDBD9",
"nX c #D5DADA",
"mX c #CDD0CF",
"MX c #E5DCC9",
"NX c #E9DEDA",
"BX c #F5DBD6",
"VX c #EFD2C7",
"CX c #D7E2D9",
"ZX c #E7E4D6",
"AX c #F8E9D7",
"SX c #F6F3D9",
"DX c #EAE3CE",
"FX c #D2E1E0",
"GX c #EAEAE7",
"HX c #EBF1EC",
"JX c #FAFBE6",
"KX c #FCFDEA",
"LX c #F6F7E6",
"PX c #F6F8F4",
"IX c #F1ECE8",
"UX c #D3DEE0",
/* pixels */
"kXkXkXkXfXkXlXlXfXfXkXkXfXfXfXfXjXfX5X5XfXfXfXfXkXkXfX5X>X;X(._.:X:X>X:X:X:X>X:X;X;X;X:X;X>X3X4X5XfX5X5XrXjXfXfXkXlXlXlX6X5X>X:X",
"kXfXlXkXfXkXkXlXfXkXkXrXfXfXfXfXrXjX5X5XkXfXfXfXkXkX5X4X;X#X! H J K U K U K K U U p a K &X;X,X1X3X4X4X4XjXkXfXfXlXkXkXlX5X5X:X>X",
"lXlXkXfXmXzXlXkXlXlXlXkXlXkXfX5XfX5X5XfX5X5XkXkXfX5XfX4X1X1XU - ; O X o X o # O O O 1 L ;X>X{.XX:X1X3X4X4X5XkXkXlXlXzXmXlXlX:X>X",
"lXlXfXkXmXmXkXkXlXkXkXlXkXkXfX5X5X5X5XgX5X5XkXfX5X3X4X4X1X3X( z l m b m b m m M V N V 8.[.}.).].{.;X>X3X4X5XlXkXlXlXzXmXcXlX>X:X",
"kXkXlXlXpXjXkXfXkXfXfXjXlXkXlXlX5X5XkXfXkXyX5X3X3X,X[.u H 5 c.C.V.V.V.V.V.V.V.b.i.i.i.q.7 > > O  .=X:X7X6X5XfXjXkXkXlXlX4X5X>X:X",
"kXkXlXkXfXjXjXpXfXjXfXpXkXlXlXkX5X5XpXfX5X5X3X,X1X,X[.e 4 2 0.b.b.b.b.b.b.b.i.i.i.i.i.0.M z 9 9 Q.{.:X,X3X4X5XpXlXcXlXlX5X5X:X>X",
">X3X>X1X1X<X1X1X1X1X>X1X1X1X>X1X7X>X7X>X:X#X[.).| } g.9.7.7.t.2.y.p.y.p.p.p.p.p.e.e.e.w.t.w.%.q.( ~ K | ).{.;X:X>X1X>X1X1X>X7X>X",
">X>X>X1X1X1X1X1X<X1X7X7X1X1X1X1X>X7X:X;X#X[.|.(.H < m y.p.y.<.2.e.e.e.e.e.e.e.e.>.;.;.%.;.:.:.w.j 7 + | ).).{.;X>X1X1X7X>X7X1X>X",
"kXfXfXfXfXfX5X5XkX5X;X>XpXjXkXkXkXfX5X3X,X:X:X}.! r V u.u.u.n.u.n.n.n.u.u.u.t.w.;.;.;.;.;.;.w.:.$.7.7.'.}.}.>X3XyXkXkXkXkXkXlXlX",
"fXkXfXfXfXfX5X5X5XkX>X:XjXrXfXkXyX5X4X>X:X_.K Q lXNXvXVXBXBXBXBXDXBXVXVXVXVX9X;.;.;.#.#.;.;.:.:.w.w.w.C i K ;X>X6XkXkXkXlXlXlXkX",
"lXkXzXlXfXfX5XfXlXzX>X>X5X5XkXkXkX5X4X,X>X| o 3 zXKXJXKXJXJXKXJXKXKXJXSXJXJX9Xq.q.q.&.$.%.$.%.%.%.e.w.j , H :X>X5XkXlXzXzXmXmXmX",
"lXkXzXzXfXfX5X5XlXlX:X:X5X5XlXkXkX5X1X:X{ ) 5 s zXLXKXKXKXKXJXKXKXKXKXKXPXPXVX8X8X8X8Xs.O.o.#.#.;.w.w.b : i >X>X4XkXzXzXmXzXzXmX",
"fXfXkXkXfXfXfXfXkXjX>X;XlXkXlXkXjX3X:X[.  , HXPXLXJXJXJXJXKXKXKXKXKXKXKXKXKXKXPXPXIXLXj.N N n X.O.O.X.o.7 e ;X:X4XfXfXfXkXfXfXfX",
"fXfXkXfXjXpXfXfXfXpX;X>XkXlXlXkXpX3X;X_.o   GXKXKXKXJXJXKXKXJXKXKXKXKXLXKXKXJXKXIXPXPX XR R x h N X.X.o.% 5 ;X:X4XjXfXpXfXfX5X5X",
"1X1X>X>X1X>X1X1X>X1X>X1X7X1X1X>X;X{.|.| o   HXJXSXSXvXrXrXsXDXDXDXMXvXpXcXcXcXZXMXIXJXcXrXoXJ > 9 h o.o.& 5 ).).{.:X>X1X<X1X1X1X",
"1X>X3X1X>X7X7X1X1X1X1X>X7X1X1X>X;X[.|.{ o   GXJXMXpX<XOX+XpXvXpXvXcXvXrX3X6XrXmXrXZXAXpXoXXXr > > 7 j o.% 5 ).).{.:X1X1X1X1X1X1X",
"mXmXfXfXkXkXfXkXkXfXkXlXkXkX5XkX4X>X,X_.o   ,X>X} j.~. X.XoXoXoX+XoX+XXX.X.X.X X.XoXoXoX.X.X!.!.e > h n % 2 1X>X3XgXfXfXfXfX>X:X",
"mXmXfXrXkXfXkXfXkXkXkXkXkXkXkXkX4X3X1XQ.- X 1XgX.Xg.h.h.h.h.l.h.x.x.h.h.j.j.j. X.XoXoX.X.X.X*X!.e 1 h o.% , ,X,X1X4X5XfXfXfX;X>X",
"lXzXzXzXkXlXkXlXkXlXkXlXkXkXkX5XrX4X,X_.- , _.W. Xz.x.f.z.M.z.M.Z.Z.F.z.x.x.D.OX~.!..X.X.X.X$X!.e - + h > ; $X,X4XfX5XkXlXlX>X:X",
"zXlXlXzXlXkXlXkXlXkXlXkXkXkXkXkXjX5X>X|.) Q o o a.U.eXqXeXeXeXwXwXwXwXeX8X0X0XF.8 0 E.$X.X$X!.!.G - - - - ; W.Q.4X4X4XfXlXlX<X:X",
"fXkXmXmXkXfXkXfXjXfXlXlXkXfXyXkXyX4X3X,X=X{ o @ h.U.F.F.eXwXwXuXiXiXwXx.F k.0Xx.9 e Y K W.!.!.%XG 6 e ^ ~ ! _ _ | #X1X6XfXfX>X:X",
"fXrXzXmXfXkXfXkXfXpXlXkXfXkXkXkXyX5X4X1X:X{ o o D.8X* $ H.wXuXuXuXuXiXq o q 8XU.z.R 0 ; _ Q.W.W.L G ^ ,XXX$X}.} U ;X,X3XfXkX>X:X",
"1X1X>X1X1X1X1X1X>X1X1X1X1X>X1X1X>X>X#X).).) o # F.0X0 # z.wXuXuXuXuXiXd.: # z.9XY.z.9.C a...5 3 4 L } #XXX{.(.' Y [.[.=X>X>X>X<X",
">X3X7X7X1X1X1X1X7X7X1X1X1X1X>X1X>X:X#X).).) o @ F.0X* % U.uXuXaXuXuXuXj.# + z.eXeXA.l.l.H.z.% O < , 3 0 y y 0 3 (.).).XX:X1X1X1X",
"fXfXkXkXkXpXgXfXfXfX>X:X4X5XfXfX4X4X>X{.:X{ o @ 8XwXd.a.eXaXaXaXaXuXuXeXh.h.8XeXeXA.A.A.M.Z.* > . . . . . # . y ;X>X:X3X4XkX5XjX",
"fXfXkXlXkXkXjX5XfXfX>X:X5X4XfX5X4X3X;X#X=X{ 3 i 8XiXeX9XaXsXaXsXaXaXaXwXeXeXeXwXwXU.A.l.F S & d g g g g g F g $ / ).>X>X4X6XfXrX",
"lXkXlXkXlXlXlXlXkXkX:X>XjXfXlXkX1X:X#X#X_ L E.OX0XaXaXDXJXG.* * $ / SXSXsX9XtXtX8XD.F.h.3 > 4.B.m.m.J.J.H.K.N.o   | 6X4X1XfXkXlX",
"lXlXkXlXkXkXzXlXkXpX>X;XpX5XkXjX:X#X#X{.K 2 xXMXsXJXLXJXJXXX# , , / SXSXLXSXIXAXpX]. Xj.0 $ 3.m.m.J.J.J.K.H.M.. . ).7X>X,X3XfXkX",
"kXkXkXlXyXjXjXjXkXjX,X;X6X4X5X1X:X:X3 , , o nXPXKXLXKXKXKXyXp e 5 ^ KXKXKXLXLXLXZX<Xj. .d.H.K.K.I.K.K.K.K.K.M.f.M.=   y #X;X,X4X",
"fXpXlXkXrX5XpXkXfXkX:X;X3X>X1X,X>X:X, < , o mXPXPXKXKXKXKXKXIXDXcXpXKXKXKXKXLXJXZX).3 0 d.R.T.T.T.T.R.R.R.K.J.N.N.=   i :X;X:X1X",
"1X1X1X1X3X1X1X1X1X>X:X:X#X[.)./ p i 9 l @ @ =X6XcXLXLXKXKXJXJXJXJXJXKXKXKXKXnXkX;X`.A F 5.L.m.L.H.H.J.J.J.K.N.N.N.3.a.( ^ ! | [.",
"1X1X1X1X1X1X1X1X>X>X;XXX[.).).Q O # D q.& , Q k.yXLXLXJXKXJXKXKXKXJXKXKXKXKX>X&X .k.3.m.L.L.M.L.J.H.J.J.J.J.N.N.N.B.N.a.# O ` ).",
"kXkXlXkXkXkXkXkXyX4X7X,X{.).).^ k d F &.9 - A G.yXCXCXJXKXKXJXJXKXKXIXZXIXPX:X$X~ A A 3.d.f.f.M.f.M.H.M.H.J.J.N.N.m.m.s.% : ^ _.",
"fXkXkXkXrXkXkXfX4X1X;X;X(.3 3 A f.f.4.&.h < i U { /.7XLXSXLXKXKXKXSX3X&X&X&X] ` >   $ # $ g F F F F 3.*.4.N.J.N.J.P.m.s.7 > K (.",
"lXlXjXkXmXmXfX5X4X>X>X>X^.$ o k L.L.4.-.h , < : ^.@X3XCX<XZXPXKXPXHX&X&X*XQ.< # h b X.n h r F F D D D =.4.m.P.I.P.P.N.s.x 2 s _.",
"lXlXfXfXmXzXfX4X,X}.{ / A * 8 k 3.3.*.=.h 1 1 1 { ] | yXG.vXSXSXSXZX$X$XE.! w j w.e.r.r.+.% $ * k m g F =.s.N.I.P.P.N.N.s.q u (.",
"kXkXlXkXfXfX4X>X:XQ # q =.-.s.V 9 h d h 9 > 8 t @   s {. .}.<X<X1X1X].|._ O 9 @.,.,.1.1.$.% O ; # q Z V D D 4.S.I.P.S.B.v.x e _.",
"kXkXkXkXjXpX4X>X;Xy   l -.6.6.=.q 7 7 O - > E N * o s =X'.{.>X>X1X:XQ.^.{ X d ;.,.1.r.1.$.8 @ : @ * A F *.*.f.N.P.P.N.N.v.r i (.",
"1X1X1X1X>X,XXX[.).y O g -.-.6.D 9 : < 2 e 1 N N j m T s 0 ` =X{.{.E.2 e 3 X & #.>.,.r.e.M Y E.` 0 # 3 A s.4.M.J.P.P.N.N.v.k i ).",
"7X1X1X1X1X,X;X[.).i O l -.-.-.x 9 1 H ^.@XY N n O.t.7.# O ` }.[.].E.> > > O % f #.:.:.>.h ! PXPXQ   o q s.B.m.N.P.m.N.B.Z.C e ).",
"fXkXfXfXfX5X3X;X;Xs : k N +.9.9 8 e { -X-X' N n @.>.-.d l a._ / ! ~ q j j n 7 & n X.O.O.9 K HXHXU # O C c.B.B.m.N.N.N.B.c.x i >X",
"kXfXjXrXfX5X1X>X;XK @ 2 v V V 7 > { @X@X=XR n b @.>.>.1.,.$.% @ # 9 w.w.,.;.h 7 - o i | gXfXHXnXI h % % D =.0.B.B.v.s.9.M 8 p ,X",
"lXlXlXzXjXfX4X1X7X=X_.^ 8 w 9 O > { @XQ.g.B j b &.1.1.<.<.0.R / ( ( n.:.:.;.O.9 - - k.UXPXPXnX' M X.& + D =.0.s.6.v.s.0.V * s 3X",
"kXlXzXlXfXrX4X3X4X1X_.^ 2 > : O O > d n X.n & & j N M M D sXSXSXSXSXAXz j j 9 1 ; 1 ' lXIXNX~.o.@.O.7 % B =.=.0.=.=.=.=.S 8 s 4X",
"fXfXjXfXkXfXfX5X6X>X(.|  .[ [ [ ` r j n n j % - 4 4 w w a dXdXG.k.F.MX> 4 4 1 1 ; , 2 8 m N O.;.#.+.8 # S 8.8.8.*.8.8.T I 8 s =X",
"fXfXfXpXfXkXfX5X5X3X[.).>X>X:X>X>XK O + % 7 < - 2 1 4 4 a 0Xk.# $ ..sXO 4 4 6 , O O < 7 b o.n n j 9 8 q B T T D D S T R v + s #X",
"1X1X>X1X1X1X>X>X>X:X:X{.{.[.).).(.U e 0 i G ; ; 4 4 1 w y 0Xk.% * ..MX$ 4 4 1 < : : < 7 h & > > < - t I I B I S Z r * q 0 5 K ).",
"1X1X7X1X1X1X1X1X>X>X>X>X;X;X#X[.[.(._.(.(.E.- 1 h h z z m 0XqXOXF.0XsX= v z h h h 9 9 7 : - < - 1 w r Z S S B S S q o 0 | | | [.",
"mXmXrXkXkXfXkXkXfXkXkXlXpXfXgX4X3X:X>X>X;X].- 9 @.;.w.w.w.U.qXqXqX0XeX$.;.#.#.@.@.@.X.9 1 1 1 < t E x c I c S Z I r # 3 ).;X_.[.",
"mXmXfXfXkXkXfXkXkXfXkXlXfXfXfX5X4X>X:X:XL K J I 0.t.t.t.n.A.z.l.l.U.9Xt.y.t.t.t.&.9.7.I J L 5 - t E x c c c c 8 # 2 e K [.;X[.{.",
"zXlXlXzXlXkXlXkXkXlXkXlXlXkXjXrX5X4X1X=X6 - *XUXNXGXGXNXNXBX.XY I pXAXBXNXBXBXBXAXnXhX%X%X/.H < w x E c E c c 0   p {.:X1X4X{.;X",
"zXzXzXlXkXlXkXkXkXkXlXkXkXlXkXjXjX4X3X1X6 ; -XPXPXPXPXHXHXGX$XG e vXPXPXPXHXLXPXIXnX-X%X/.W.e ; w x x x x x I a u Q >X,X5X5X;X;X",
"fXfXmXmXrXkXfXkXjXkXlXlXkXkXfXkX5X4X3X,XP 6 ] ) _ ~ ^ ` ' g.Y w > ^ [ [ [ [ ^ ^ ! K u i i H 3 5 e 1 - : > < 2 ~ {.#X;X:X3X6X:X:X",
"fXfXmXmXkXkXjXpXkXrXlXlXkXfXkXfXpX6X4X1X:X=X^.5 X + % 8 8 t 1 4 < < : , : : 2 7 7 7 8 7 O - E.mXW.; o X o o o ! #X;X:X6X5XjX:X>X",
"1X1X1X1X1X1X1X1X1X>X1X7X1X1X>X1X>X,X;X}.).).).u O d n n n m 8 , O X O 2 : > z z b b b z 8 < ^ ).[ K J J H H s [ ).{.#X:X>X7X7X>X",
"1X1X1X1X1X1X1X1X7X1X>X7X1X1X1X1X>X>X,X;X[.).).u O x T T D S 8 @ u xXbXbXJ X 9 E V V =.B 8 < ^ ).).).).).).).).).{.#X;X>X>X1X1X>X",
"5XkXlXkXfXkXfXfXrXjX>X;X6X5XpXgXkX5X4X3X>X;X=XK # ^ XXOXD. .0 : K FXbXFXK - , j.OXD.D.G.r - ` ;X;X;X{.;X:X:X>X3X6XpXlXlXfXkXfXfX",
"fXkXkXlXkXfXfXfXfXfX:X>X5X5X5XjX5XkX4X4X>X;X:XK , [ {.`.k.( e ; _ FXbXFXK X 2 .X XG.j.k.e - { ;X;X:X>X>X3X3X4X4XfXjXkXlXkXfXfXfX",
"kXkXkXkXkXlXzXzXkXkX>X:XfXfXzXzX5X4X4X1X;X#X#X] , O @ O ; , : , W.FXFXbXjXjXi + o X O @ > : E.1X{.:X3X3X4X4X4X6XzXzXmXmXkXlXlXlX",
"kXlXlXkXlXkXlXlXkXlX>X:XjXpXzXlX4X4X3X,X{.{.#X| o , - @ , @ X @ @XFXFXbXbXFX3 @ , , , - > - _.3X{.>X3X4X4X5X5X6XmXzXmXzXlXkXlXzX",
"kXkXkXkXfXfXfXkXkXjX>X;X5X5XlXkXjX5X3X,X{.| ) Q @ , - @ X , X @ =XxXxXjXjXxX, , : : - @ , , | =X=X3X3X5X5X5XkXjXjXrX5X5XkXfXkXkX",
"kXkXlXkXfXpXjXfXkXpX;X>X5X5XkXlXpX6X1X}.=XH @ O ; , X - , O X X |.=X=X=X=X=X, , : X , < - ; { @X}.3X6X4X6X5XkXkXkXkX5X5XfXfXkXfX",
"7X1X3X>X1X1X7X1X>X>X1X1X>X>X1X1X>X;X#X^.@XK i i u u J K s K u u |.=X}.=X=X}.J J p J J s u s E.}.[.{.;X>X7X>X1X1X1X>X<X3X1X1X1X>X",
"7X1X1X1X>X>X7X1X1X1X1X1X1X3X1X>X>X:X;X{.[.).).).).).).).).).).).|.).).).).).).|.).).).).).).).).{.;X:X>X>X7X1X1X1X1X>X1X1X1X1X1X"
};
