/* XPM */
static char *result[] = {
/* columns rows colors chars-per-pixel */
"64 64 256 2 ",
"   c #09030B",
".  c #1B060D",
"X  c #0D041C",
"o  c #0A0417",
"O  c #13041C",
"+  c #1B031B",
"@  c #130A1C",
"#  c #180614",
"$  c #1D1015",
"%  c #26061C",
"&  c #37061D",
"*  c #24131B",
"=  c #2F1515",
"-  c #0C0423",
";  c #0D0626",
":  c #120522",
">  c #1B0424",
",  c #130923",
"<  c #140329",
"1  c #1B042B",
"2  c #190B28",
"3  c #1A1528",
"4  c #190634",
"5  c #1D1434",
"6  c #080835",
"7  c #240324",
"8  c #290726",
"9  c #360826",
"0  c #271427",
"q  c #39182A",
"w  c #240636",
"e  c #251B36",
"r  c #381C33",
"t  c #360B34",
"y  c #28222A",
"u  c #2D2C3C",
"i  c #282437",
"p  c #332D3E",
"a  c #362536",
"s  c #35333D",
"d  c #2D303C",
"f  c #4E0B1E",
"g  c #63101C",
"h  c #6A281C",
"j  c #480526",
"k  c #570628",
"l  c #431827",
"z  c #59192B",
"x  c #550733",
"c  c #4A1937",
"v  c #57193A",
"b  c #460532",
"n  c #660629",
"m  c #760528",
"M  c #68122B",
"N  c #6B0A33",
"B  c #760734",
"V  c #661838",
"C  c #761839",
"Z  c #492535",
"A  c #572538",
"S  c #4F2E33",
"D  c #67243B",
"F  c #752837",
"G  c #6D312E",
"H  c #271642",
"J  c #2A2844",
"K  c #352C43",
"L  c #343243",
"P  c #3A3747",
"I  c #383356",
"U  c #091142",
"Y  c #582644",
"T  c #443A4B",
"R  c #4B3453",
"E  c #752943",
"W  c #70334B",
"Q  c #5D1441",
"!  c #3B4150",
"~  c #4A4857",
"^  c #56525B",
"/  c #504A53",
"(  c #6C4B55",
")  c #595865",
"_  c #555068",
"`  c #635C68",
"'  c #6E536E",
"]  c #5D626A",
"[  c #64646B",
"{  c #676A77",
"}  c #746A77",
"|  c #76767B",
" . c #726A71",
".. c #76695A",
"X. c #86052B",
"o. c #860633",
"O. c #990A34",
"+. c #960D30",
"@. c #A8072A",
"#. c #B6052B",
"$. c #A30D34",
"%. c #BA0934",
"&. c #A81838",
"*. c #873537",
"=. c #902E37",
"-. c #AD3233",
";. c #C70B35",
":. c #D80B38",
">. c #D41234",
",. c #E50D3A",
"<. c #E5183B",
"1. c #EB1535",
"2. c #EE2D3B",
"3. c #8D4B36",
"4. c #A9513B",
"5. c #A4673F",
"6. c #C84434",
"7. c #941742",
"8. c #852D43",
"9. c #922C45",
"0. c #AE3247",
"q. c #B11A41",
"w. c #D21747",
"e. c #E51941",
"r. c #F70E42",
"t. c #D22F50",
"y. c #EB2747",
"u. c #E23A58",
"i. c #F93856",
"p. c #F22949",
"a. c #90544E",
"s. c #AE504C",
"d. c #906754",
"f. c #B77050",
"g. c #855A6B",
"h. c #9B6768",
"j. c #99787B",
"k. c #90746F",
"l. c #B86765",
"z. c #B97766",
"x. c #AA736C",
"c. c #B65A63",
"v. c #C75053",
"b. c #FB4859",
"n. c #E0415D",
"m. c #D8784D",
"M. c #C77855",
"N. c #D97855",
"B. c #CF6D4F",
"V. c #FB4864",
"C. c #F15063",
"Z. c #C4776B",
"A. c #C97769",
"S. c #DC7563",
"D. c #AA837A",
"F. c #B48875",
"G. c #8F8577",
"H. c #CE8755",
"J. c #D88756",
"K. c #DC935D",
"L. c #CF824A",
"P. c #E28156",
"I. c #E2835A",
"U. c #D28E72",
"Y. c #E49C6D",
"T. c #E2A26A",
"R. c #DDA064",
"E. c #7A7986",
"W. c #6F738A",
"Q. c #877C88",
"!. c #8E7C8B",
"~. c #A17481",
"^. c #7A838D",
"/. c #7C8CA2",
"(. c #868687",
"). c #8E8E8E",
"_. c #878488",
"`. c #978785",
"'. c #8A8993",
"]. c #968B99",
"[. c #939494",
"{. c #9C9C9C",
"}. c #96979B",
"|. c #8C9297",
" X c #A78988",
".X c #A48D95",
"XX c #A79798",
"oX c #B59A9A",
"OX c #AE9188",
"+X c #B8A399",
"@X c #8A9AA6",
"#X c #9E9EA0",
"$X c #9B99A7",
"%X c #9199B4",
"&X c #A49DA8",
"*X c #A19EB2",
"=X c #99A1A5",
"-X c #99B1BE",
";X c #A4A4A5",
":X c #A6A6A9",
">X c #ADADAD",
",X c #A6AAAC",
"<X c #B5ADA8",
"1X c #AEAEB1",
"2X c #A0ADBB",
"3X c #B3B3B4",
"4X c #B6B6B8",
"5X c #BCBCBD",
"6X c #BCB7B5",
"7X c #B2B3AF",
"8X c #D1968D",
"9X c #EE9789",
"0X c #D7A890",
"qX c #ECBA88",
"wX c #F9B999",
"eX c #EFAB91",
"rX c #C5B8B1",
"tX c #E9BBA9",
"yX c #BEC2BA",
"uX c #FDC29C",
"iX c #F6C39F",
"pX c #D1C6B7",
"aX c #F8C7A8",
"sX c #ECCEB7",
"dX c #D1C09F",
"fX c #BFBFC0",
"gX c #B4B7C0",
"hX c #9EA8C0",
"jX c #BAC4C8",
"kX c #C3C3C4",
"lX c #C7C7C9",
"zX c #CBCBCC",
"xX c #C5CBCB",
"cX c #D4CBC4",
"vX c #DAD4C6",
"bX c #CBDBD9",
"nX c #D5DADA",
"mX c #CDD0CF",
"MX c #E5DCC9",
"NX c #E9DEDA",
"BX c #F5DBD6",
"VX c #EFD2C7",
"CX c #D7E2D9",
"ZX c #E7E4D6",
"AX c #F8E9D7",
"SX c #F6F3D9",
"DX c #EAE3CE",
"FX c #D2E1E0",
"GX c #EAEAE7",
"HX c #EBF1EC",
"JX c #FAFBE6",
"KX c #FCFDEA",
"LX c #F6F7E6",
"PX c #F6F8F4",
"IX c #F1ECE8",
"UX c #D3DEE0",
/* pixels */
"kXkXkXkXfXkXkXlXfXkXkXfXfXfXfXfXfXfX5X5XfXfXrXgXkX4X4X>X#X#X(.(.:X;X>X:X:X;X:X>X:X;X>X3X4X5XfXkXfXfX5X5XfXfXfXfXlXkXkXlXrXfX:X:X",
"kXfXkXkXkXfXlXkXkXfXfXkXfXfXfXfXyXyXfX5X5X5X4X3X4X1X>X>XP r K p P T P T T T P K J _ ;X:X1X3XgXrX5XfX5X5XfXfXfXfXkXlXlXkXfXgX:X>X",
"lXlXkXkXmXmXlXkXkXlXkXkXkXlX5X5X5X5X5X5X4X3X4X3X>X>X3X1XT + O # O + o o X X o ; - ~ ,X,X>X3X1X4X4X5X5X5X5X5XlXkXlXkXmXmXlXlX>X:X",
"lXlXkXfXmXmXkXjXlXkXlXkXlXlX5X5X5X5X5X4X3X,X3X:X#X].&X}.W C C N M M M n M n n z z g.,X,X:X>X:X3X4X5X5X5X5X5XkXlXlXlXmXmXlXlX>X:X",
"kXkXlXlXpXjXpXfXfXkXfXfXkXkXlXkX5X5X5X4X1X:X:X} O > 1 1 q.i.i.i.V.V.V.C.V.C.V.V.C.c.5 J J '.,X3X3X3XpXfXjXfXjXfXlXlXlXlXrX5X>X:X",
"fXkXkXkXkXkXkXkXkXfXjXpXkXlXkXlX4X6X6X1X:X:X;X!.9 9 x N t.i.i.i.i.b.b.b.b.b.b.b.b.0.7 4 e ).,X,X:X>X4X5XfXfXfXpXlXlXlXkXfX5X:X>X",
">X1X1X7X>X1X3X1X1X>X1X7X1X1X1X1X,X;X{.).| P ~ ( q.%.w.t.w.<.w.e.y.p.p.p.p.y.y.y.2.t.&.9.9.g.| | ).[.{.:X,X>X1X1X>X>X1X7X>X7X>X1X",
">X1X1X1X>X>X>X>X1X1X1X1X1X>X<X>X;X{.).[.| + 7 x w.:.:.;.%.;.;.>.e.<.<.e.e.e.e.e.<.e.y.y.p.M , J (.).[.;X:X>X1X1X>X7X>X7X1X1X1X1X",
"fXkXfXfXfXfX5XfXrXjX:X>XrXkXrXfX3X>X[.[.'.7.7.%.,.w.w.;.;.;.;.;.w.y.u.t.n.b.n.u.u.n.i.n.u.C a R }.;X;X,X4X5XfXkXlXkXkXkXkXlXlXkX",
"kXfXfXfXfXfX5X5XfXkX>X:XkXjXjX4X>X:X! i Z w.w.w.:.;.%.;.#.%.;.w.:.8XVXVXVXVXBXBXBXBXBXVXVXvXNXlX! L ).:X>X4X5XjXkXlXjXpXlXkXlXlX",
"kXkXlXzXfXfX5X5XlXlX>X:X5X5XkX4X1X,Xu : j w.y.%.%.%.$.%.$.&.q.q.q.0XKXJXJXJXJXKXKXJXJXKXKXKXJXmX5 o | :X>X3XrXkXlXkXzXzXzXmXzXmX",
"kXlXzXzXfXfX5X5XlXlX>X:X5X4XkX4X1X,Xe > n w.w.%.%.#.O.7.a.8X8X8X8XsXKXKXKXKXKXKXKXKXKXJXJXJXJXxXs y ) { :X1X4XkXkXlXzXzXmXmXmXmX",
"kXfXkXfXjXrXjXfXjXkX:X,XlXkXkX4X>X>X5 7 o.O.O.X.X.m n B ~.IXLXLXPXPXKXKXKXKXKXKXKXKXKXKXJXJXJXLXPXHX@ o [.:X3X5XkXlXkXfXfXfXfXfX",
"fXfXfXkXjXpXfXfXpXyX<X:XkXkXpX4X:X>X5 % o.X.X.B j c ( W  XLXLXKXPXIXKXLXKXJXPXKXKXJXKXSXJXJXJXSXPXGX  o (.;X1X6XkXlXfXkXfXfX5XfX",
"1X1X>X1X1X1X>X1X1X1X1X7X1X>X:X}.).[.e % X.o.j 9 7 a oXrXvXKXLXvXBXvXcXcXpXMXMXMXDXDXMXrXrXMXSXSXPXHX  o | ).{.:X1X1X1X<X1X1X1X>X",
"7X1X1X1X1X1X1X>X1X>X1X1X1X>X:X}.).).1 % o.k 7 1 > r .XoXrXAXAXrXcXkXrX3X6XcXcXvXpXvXpX+XOX<XpXMXKXCX  o | ).[.;X>X1X1X1X1X<X1X1X",
"mXmXfXfXkXkXfXkXkXfXkXlXkX5X4X>X;X:X2 % m j > r !.!..X.XoXrX<X X]. X.XXXXX+XoX+XoXoXOXOX.X~.k. .,X,X  o _.:X3X5XkXlXkXfXfXfX:X>X",
"zXmXfXrXkXfXkXfXfXkXlXkXfX5X3X:X;X;X, % B j < e !.]..XXX.X.XoX.X~.j.j.j.h.x.l.h.h.l.x.h.h.h.g..X4X1XX - E.:X4XfXkXkXfXfXfXfX>X:X",
"zXlXzXzXkXlXkXlXlXkXlXkXkX5X>X:X>X$X, > j + ; e !.$X].].XX.X!.~.OXF.D.x.x.F.F.A.A.z.f.z.z.l.z. XW.(.3 o '.3X3X5XzXmXlXlXzXlX:X:X",
"zXzXzXlXlXkXlXkXkXlXkXkXfX4X:X:XE.W.; ; - - - H !.].].].&Xg.1 0 OX0X0XU.eXwXwXwXwXqXeXeXqXeXU.d.o o ! _ }.4X3X5XmXmXlXkXlXzX:X>X",
"kXkXmXmXfXkXfXkXjXpXjXkX6X1X;X| _ ] ~ ~ _ e < H !.].].W.K / w 9 x.0Xx.G x.wXiXwXwXwXwXqXF.D.U.h.@ o { 1X:X>X4X5XfX5XfXfXpXkX,X:X",
"fXrXmXmXkXfXkXfXjXpXlXkX4X>X:XR W.].$X+X:X^ H I W.Q.Q._ - 8 W Z.U.U.y - Z wXiXuXuXwXwXZ.$ * 8XD.o o | 1X:X1X4X5X5XgXfXpXfXfX>X,X",
"1X>X1X1X>X>X1X>X1X>X>X<X;X[.)./ ' !.[.XXXX} I U 3 5 ' a.v a.A.9X9Xx.# o ..wXuXuXuXwXwXM.@ * 0XF.  o ) ).).{.:X>X1X1X1X1X>X1X>X1X",
">X3X1X1X1X3X>X1X1X1X>X:X{.).).(.3 0 y y y 3 : < O + z.J.f.c.A.eXwXx.# . F.uXuXuXaXaXwXU.$ * 0XF.@ X ) ).).{.>X,X1X1X>X3X<X1X1X1X",
"5XkXkXkXrXkXjXfXfXfX;XXX,X{.;X{.y . # # . . . . + * Z.H.M.Z.A.eXwX8Xh.h.9XiXaXaXaXaXaXeXa.d.wX8X@ X { {.=X>X4X5XkXlXkXlXkXfX5XkX",
"kX5XkXkXkXkXfXfXfX5X:X}.#X{.(./ $ h G h h h h h j & S G z.A.U.wXeXeXeXeXtXaXiXaXaXsXaXsX9XeXwX8Xa 3 { =X;X:X7X5XkXkXlXlXkXkXkX5X",
"kXlXlXlXlXkXzXlXpXjX{.).;X;X .    H.J.J.J.J.m.m.B.4.8 0 h.D.D.8XtXtX9XsXAXSX( # * $ `.LXVXaXaX0XOXW.I _ {.#X;X1XlXzXzXmXlXkXlXlX",
"lXkXlXkXkXlXlXlXfX5X).(.{.;X`.. . M.J.K.J.J.J.P.m.3.# 0 !. X`.cXAXLXSXLXSXSX/ : : $ {.LXKXJXKXsXMXxX, P #X#X#X;XkXxXzXzXkXlXlXzX",
"kXkXlXkXyXjXjX5X3X1X(.(.y   q M.f.m.K.K.K.K.K.J.K.K.H.d...(.<XMXLXJXJXKXKXJX( 3 e K pXKXKXKXLXPXPXnXX O , 3 :X;X:X3X4X4XkXfXfXjX",
"fXpXlXkXrX5XyX4X1X:X(.(.y   = B.N.H.R.R.R.T.Y.Y.T.T.R.5.0 0 ).ZXJXKXLXKXKXJXpXmXMXLXLXKXKXJXJXPXPXnXo - < 3 ;X;X:X:X1X4X4XpXkXfX",
"1X1X>X1X3X>X:X{.|.| ~ ^ ( a.3.N.N.J.J.J.H.K.H.H.m.M.L.5.G S `.:XjXnXPXKXKXKXJXJXJXJXJXKXKXKXLXpX6X{.X > z 9 i u ~ ).[.XX;X>X,X1X",
"1X1X1X1X1X>X:X{.).` @ # a.N.B.N.N.N.J.J.J.H.H.J.L.M.L.L.m.3.g.E.$X<XKXKXKXKXJXKXKXKXJXKXKXLXLXpX| / @ & q.F # o ~ ).).).{.;X>X>X",
"fXkXkXlXfXpX4X1X;X[ > % s.m.m.N.N.J.J.M.L.L.M.M.M.M.f.5.3.S S _ $X>XPXGXNXIXJXKXJXKXKXKXKXCXbXyXG.s @ q -.h f l ` ).).:X=X>X{.#X",
"kXkXkXkXjX5X5X>X;X~ , 8 s.m.P.P.P.I.M.4.*.*.G G h G S . # # # > ) ] &X&X&X3XLXKXKXKXLXSXLX7X/.W.s i @ j &.4.f.f.S 3 * _.{.;X[.{.",
"lXlXkXfXzXzX4X>X:XL 1 c s.N.P.P.I.I.N.4.*.G F F G G a j m X.n j # @ '.*X*X&XIXJXKXKXDX<XCX3X@X^., : ; j -.5.L.M.l X @ [.1X1X(.[.",
"xXlXfXkXzXlX4X>X>Xu j v.m.N.P.I.I.M.4.=.*.G z q * $ % O.,.<.e.:.k w ~ E.$X$XZXSXSXSXcX`.6X| ] { 2 4 1 j X.*.3.3.l 0 = T /  .| ).",
"kXkXkXlXkX5X3X:X;Xi l v.N.N.N.I.I.4.*.F D z q # X , % $.1.r.r.:.@.9 X _ '.].1X3X1X<X[. .XXs   @ t t < 9 j f j 9 V -.-.-.f @ s (.",
"kXfXkXkXkXyX3X;X;Xi r v.N.N.P.P.I.s.=.*.G Z 0 O @ @ 8 O.r.1.r.,.;.j O { '.E.&X1X>X<X{.'.=Xs # = B V > - O 7 8 t =.6.6.-.z o y (.",
"1X1X1X1X>X:XXX).).y Z c.B.N.J.P.J.B.s.s.S 0 # 3 ] Q.T N 1.,.,.:.@.j X 3 3 3 E.{.{.=X[ 0 s F g k B B 7 5 2 < < 9 F 4.4.-.h @ y [.",
"7X1X1X1X>X>X=X).).i A c.N.N.m.P.m.M.B.s.q o   ~ PXPX/ j >.:.>.@.g % > > > > E.].|.}.` + @ 7.w.=.B B R @X^.J 1 9 z -.-.-.z @ y ).",
"pXfXfXfX5X4X1X&X;Xi Z c.B.S.L.N.N.B.B.c.A o . T HXHXT 9 7.O.X.m % 7 n n b t ^ ~ ~ ) 9.v f &.1.+.B B ( 2X-X{ i 8 9 9.+.C 9 > s ,X",
"fXfXfXfXkX5X>X{.;Xu % M -.s.6.v.v.s.=.F % % j Y nXPXfXgXE.0 X - % j ;.:.e.w.j # @ 7 &.e.<.>.>.@.m B W %X@X@X{ O 7 C C b 2 @ P >X",
"lXkXxXxXfX4X>X#X1Xd 0 C 0.s.v.v.6.s.=.C + & o.M ' nXPXPXNXE.X ; 9 @.;.:.>.v.3./ / W -.e.1.1.1.@.n n V g.^.@X{ O : 8 t 7 [ :X,X5X",
"kXlXzXxXfX5X>X#X1Xu 8 V E 8.=.=.=.9.=.V + 8 O.@.o.~.NXIXfX' > < 1 & k k M DXSXSXSXSXsXF M N B x & & m X.m f 7 + + > < > } 4X4XfX",
"fXfXjXjXfXfX3X;X:Xd 7 D 8.8.8.8.8.8.8.D + 7 +.#.%.$.X.x 8 2 O : 1 4 4 4 7 VX+XG.G.dXsXa w 4 4 4 X + k m m k r ^ ` [ [  .'.;X:X3X",
"fXgXpXpXkX5X3X:X:Xp > q E W D F E E F v q 9 9 k m m B m 8 < : + : < 6 4 ; sX..@ . k.0Xy 4 4 1 1 - ; 7 % # O P :X,X,X;X;X,X1X3X4X",
"1X1X1X>X1X>X;X{.).s 3 0 r * q A V E E D Y 0 - < > 7 % j 7 < : : 2 4 4 < > sX..* $ k.0Xr H w 4 1 < < e e e 0 T ).).).[.{.&X;X:X>X",
"1X1X1X1X1X1X:XXX[.^.E. .3 o q D D v V Y D t w 1 - < : O 1 9 9 9 j j x b & sX0XF.F.qXT.A x b j b 1 : E._.(.(.(.).{.#X;X;X:X>X>X>X",
"mXmXkXrXfXfXfX4X3X;X:X}.0 o q A Y Q v D v v Q t ; < 1 1 t X.@.@.#.#.;.;.$.eXqXqXqXqXU.w.w.%.w.%.9 ; }.,X:X:X1X3XfXfX5XfXfXfX:X>X",
"zXmXfXjXkXfXfX5X4X1X>X}.P e 3 # 0 v v v c v v t - 5 R K Y 7.&.0.w.t.t.t.t.U.U.l.l.z.A.n.t.t.t.0.A J P I =X,X3XfXfXkXfXfXfXfX>X:X",
"zXlXzXzXlXkXkXkXfX5X3X>X:X#Xp   0 v v v v c Q w ; J /.%X%XhXnXBXZXBXBXBXBXIXMXZ R .XNXNXGXGXNXNXNX*X; 6 ,X3X3X4XzXmXkXlXzXlX:X:X",
"xXzXxXxXkXlXkXlXkXfX4X3X,X>XP i r Y c c c c c w - H W./.@X-XnXGXIXPXPXPXPXPXmX0 H $XGXHXPXHXPXPXPX-X; 6 3X4X4X5XmXmXkXlXlXzX:X>X",
"5XkXmXmXkXkXkXfXfXfXjX5X>X:X;X#X^ 2 2 - : : 1 e 5 3 J i i J P ~ ^ ) ] [ [ [ ^ > H R E.' ` ^ ^ ^ _ ] 6 U ,X>X4X5X5XfXfXfXkXfX>X:X",
"kX5XmXmXkXfXkXkXfXpXkXyX4X>X;X:X~ o o - X o X W.xXE.- + 7 7 8 7 7 2 > @ : : , 1 4 1 9 9 8 % % o 5 ^.,X,X,X7X4XyXfXgXfXpXfXkX<X:X",
">X1X1X1X<X>X3X<X1X1X>X>X:XXX[.).] L u u K J L [ |.^ ; w x M n n k j , > 3 ; : # @ 8 n m m m f O J '.).).{.;X<X>X1X>X1X1X1X1X>X>X",
"1X<X1X1X1X1X>X>X1X1X1X1X>X:X;X{.[.).).).).).).).).^ < 9 D o.C E V 9 X L FXjXmXu : 7 D E E E c # d |.).|.#X;X>X>X>X3X1X1X1X<X1X>X",
"kX5XlXkXkXfXfXfXjX5X:X>X4X4X4X4X1X>X:X;X;X;X;X;X>X[ - r j.D.D.OX~.: - L UXFXFXP - 0  .`. X+X^ O K ;X{.>X4X5XgXpXkXkXlXlXfXkXfXfX",
"5XkXkXlXfXkXfXfXjXrX>X:X6X4X5X5X4X4X1X1X1X>X:X:X,X{ - r k.G.`.G..X, X I bXbXbX_ < 0 ( j.`.[.[ , P ;X{.:X4X5XfXjXkXxXlXlXfXfXfXfX",
"kXlXlXkXkXlXlXzXlXkX>X:XfXfXlXzX6X5X4X4X4X1X:X{.4XQ.: : > @ o @ @ y jXjXbXFXFXW., , @ @ @ X , ; ] #X=X:X1X3X4X5XmXmXmXmXkXkXzXzX",
"lXkXkXlXkXkXzXlXlXkX>X:XfXpXzXzX5X5X5X5X4X3X>X{.3X'.; , : , ; : , 3 FXbXbXFXFX@X@ X , , @ @ @ X | #XXX=X,X3X4X5XmXmXmXzXlXlXlXzX",
"kXrXxXkXkXrXjXkXfXjX<X,X5X5XkXkXkXkXyX5X4X3X1X=X$XW.X O ; , : : , , xXjXjXxXjX=XX X , X : : , X ! ) | :X:X1X5XgXfXfX5XfXfXfXfXfX",
"kXkXlXkXjXrXkXkXjXpX:X:X5X5XkXxXkXkXkX5X4X7X7X}.@X[ , - : : - O , 3 =X=X=X=X=X|.@ X : , : X : : , @ u $X|.>X4XpXfXfXfX5XfXfXfXkX",
"1X1X1X1X>X1X7X1X>X>X1X7X1X1X3X1X7X>X1X>X>X:X{.[.}.E.L u u u K p L K =X}.{.{.=X|.u p s L L d p u i i P @X(.{.;X>X>X1X1X1X3X1X1X1X",
"1X1X1X1X7X1X>X>X1X1X1X1X1X1X>X1X1X>X7X1X,X:X;X{.).).).).).).).).).).).).).).).|.).).).).).).).).).).).|.{.;X:X>X1X1X<X1X>X<X1X1X"
};
