/* XPM */
static char *result[] = {
/* columns rows colors chars-per-pixel */
"64 64 256 2 ",
"   c #020003",
".  c #0C0000",
"X  c #09050D",
"o  c #100100",
"O  c #18090A",
"+  c #0D041C",
"@  c #0A0417",
"#  c #13041C",
"$  c #1B031B",
"%  c #130A1C",
"&  c #180614",
"*  c #18141A",
"=  c #1D130F",
"-  c #24130E",
";  c #26061C",
":  c #37061D",
">  c #271817",
",  c #2F1515",
"<  c #36251D",
"1  c #3B261D",
"2  c #0C0423",
"3  c #0D0626",
"4  c #120522",
"5  c #1B0424",
"6  c #130923",
"7  c #180629",
"8  c #1B1527",
"9  c #190634",
"0  c #151035",
"q  c #240324",
"w  c #290726",
"e  c #360826",
"r  c #221323",
"t  c #271828",
"y  c #381829",
"u  c #240636",
"i  c #251B36",
"p  c #381C34",
"a  c #360B34",
"s  c #29212A",
"d  c #362626",
"f  c #2A2638",
"g  c #362838",
"h  c #36343B",
"j  c #4E0B1E",
"k  c #472B1D",
"l  c #582C1D",
"z  c #480526",
"x  c #570628",
"c  c #57193A",
"v  c #4E142F",
"b  c #660629",
"n  c #760528",
"m  c #68122B",
"M  c #760734",
"N  c #761839",
"B  c #691135",
"V  c #482829",
"C  c #572538",
"Z  c #473637",
"A  c #533030",
"S  c #693927",
"D  c #723A28",
"F  c #68243B",
"G  c #752837",
"H  c #6B3231",
"J  c #671F1C",
"K  c #5C4439",
"L  c #6B432D",
"P  c #7A4A2C",
"I  c #784728",
"U  c #674736",
"Y  c #7C4B35",
"T  c #774735",
"R  c #7A5233",
"E  c #271642",
"W  c #292645",
"Q  c #342B47",
"!  c #393746",
"~  c #363152",
"^  c #091142",
"/  c #5C3F40",
"(  c #4D324A",
")  c #723046",
"_  c #5D1441",
"`  c #474449",
"'  c #4A4958",
"]  c #58545A",
"[  c #554A51",
"{  c #6D5051",
"}  c #5A5866",
"|  c #555068",
" . c #655B67",
".. c #71556B",
"X. c #696567",
"o. c #78686B",
"O. c #78767A",
"+. c #6D6B78",
"@. c #6D6560",
"#. c #86052B",
"$. c #860633",
"%. c #990A34",
"&. c #960D30",
"*. c #B6052B",
"=. c #BA0934",
"-. c #A71033",
";. c #873537",
":. c #902E37",
">. c #AD3233",
",. c #C70B35",
"<. c #D80B38",
"1. c #D41234",
"2. c #E5183B",
"3. c #E81138",
"4. c #EE2D3B",
"5. c #814924",
"6. c #834E2B",
"7. c #8D462C",
"8. c #89542D",
"9. c #804E39",
"0. c #834C36",
"q. c #885736",
"w. c #935C34",
"e. c #905034",
"r. c #A9513B",
"t. c #9E6B3E",
"y. c #976239",
"u. c #9D703F",
"i. c #8D643D",
"p. c #A36D3F",
"a. c #A66D3D",
"s. c #C84434",
"d. c #941742",
"f. c #8D2C44",
"g. c #AE3247",
"h. c #B11A41",
"j. c #D21747",
"k. c #E51941",
"l. c #F70E42",
"z. c #D22F50",
"x. c #E23A58",
"c. c #F93856",
"v. c #EE2848",
"b. c #8E554D",
"n. c #AE504C",
"m. c #8B684B",
"M. c #996A46",
"N. c #967345",
"B. c #987249",
"V. c #957356",
"C. c #906D57",
"Z. c #A36D42",
"A. c #A76E40",
"S. c #B1714D",
"D. c #865A6E",
"F. c #99787B",
"G. c #92716C",
"H. c #B97766",
"J. c #AE706A",
"K. c #B65A63",
"L. c #C75053",
"P. c #F84759",
"I. c #D8784D",
"U. c #C77855",
"Y. c #D97855",
"T. c #CF6D4F",
"R. c #FB4864",
"E. c #F15063",
"W. c #C5776A",
"Q. c #DC7563",
"!. c #A88577",
"~. c #B38874",
"^. c #8F8577",
"/. c #D88756",
"(. c #D38A55",
"). c #E28258",
"_. c #D28E72",
"`. c #E49C6D",
"'. c #E2A26A",
"]. c #DDA064",
"[. c #797787",
"{. c #70758D",
"}. c #8A7B8A",
"|. c #A17481",
" X c #7C899A",
".X c #8D8D8D",
"XX c #8A8587",
"oX c #978785",
"OX c #888795",
"+X c #978B9A",
"@X c #9B9B9D",
"#X c #959496",
"$X c #84929B",
"%X c #A78988",
"&X c #A48D95",
"*X c #A79798",
"=X c #B59A9A",
"-X c #AE9188",
";X c #B9A49A",
":X c #899AA6",
">X c #9D9AA4",
",X c #9199B4",
"<X c #A49DA8",
"1X c #A19EB2",
"2X c #99A2A6",
"3X c #99B1BE",
"4X c #A3A3A4",
"5X c #A6A7A9",
"6X c #AEAEAE",
"7X c #A6ACAB",
"8X c #ACAEB2",
"9X c #B3B3B5",
"0X c #BCBCBD",
"qX c #B8B7B7",
"wX c #B3B1AC",
"eX c #D1968D",
"rX c #EE9789",
"tX c #D7A890",
"yX c #F9B999",
"uX c #EFAE8F",
"iX c #C5B8B1",
"pX c #E9BBA9",
"aX c #BEC2BA",
"sX c #FCC29C",
"dX c #D1C6B7",
"fX c #F8C7A8",
"gX c #ECCEB7",
"hX c #D1C09F",
"jX c #BFBFC0",
"kX c #B4B7C0",
"lX c #9EA8C0",
"zX c #BAC4C8",
"xX c #C3C3C4",
"cX c #C7C7C8",
"vX c #CBCBCD",
"bX c #C5CACB",
"nX c #D4CBC4",
"mX c #DAD4C6",
"MX c #CBDBD9",
"NX c #D5DADA",
"BX c #CFD2CE",
"VX c #E9DEDA",
"CX c #F5DBD6",
"ZX c #EBD5C8",
"AX c #D7E2D9",
"SX c #E7E4D6",
"DX c #F8E9D7",
"FX c #F6F3D9",
"GX c #EAE3CE",
"HX c #EAEAE7",
"JX c #FAFBE6",
"KX c #FCFDEA",
"LX c #F6F7E6",
"PX c #F6F8F4",
"IX c #EEEEEA",
"UX c #D2E0E0",
/* pixels */
"xXxXxXxXxXxXxXxXxXX                                                                                       o.jXjXxXcXcXcXjXaX6X6X",
"xXjXxXxXxXcXxXxXcX. O d d 1 < 1 < V < 1 1 d d 1 < < < > - - h W f f r r 8 * 8 * 8 p f s > = - > < < < < X X.jXjXcXxXcXcX0X0X6X2X",
"cXcXxXxXvXvXcXxXxX. 1 V.V.B.B.S.B.B.V.S.B.B.Z.M.M.y.q.I P 5.g 3 2 # @ @ + # # # # # 7 p R P P P q.q.m.m.- X.xXxXcXcXvXvXcXcX6X@X",
"vXcXjXjXvXvXxXxXcX. 1 V.A.a.a.u.A.A.Z.Z.a.a.A.p.w.8.5.5.5.8.) c v m b x b m m m B N N f.{ 6.Y 9.6.5.i.m.- X.xXxXxXcXvXvXcXzX6X6X",
"xXjXcXxXxXxXxXjXxX. 1 B.B.A.A.M.M.Z.M.Z.N.M.i.w.8.5.P W W i n.R.E.R.R.R.R.R.R.R.c.c.c.h.q 7 5 # U P P R - X.aXzXcXcXcXcX0X0X6X6X",
"zXxXcXcXxXxXxXxXzX. 1 V.B.A.M.q.T T T D D S S l l k V s 9 8 n.P.R.P.P.P.P.P.c.c.c.c.c.g.B x e e D I P L = } aXdXcXcXcXvX0X0X@X6X",
"6X6X6XwXwX6X6X6XwX. 1 B.M.p.a.Y T T Y Y T D S l V A ) f.d.d.z.4.v.v.v.v.v.v.v.v.k.k.k.j.j.j.=.h.H Z d U O [ 4X7X6X6X6X6X6X6X6X6X",
"6X6X6X6X6X6X6X6X6X  1 B.M.Z.p.q.Y y.M.y.w.0.5.Y t 6 m v.v.v.2.2.4.k.k.k.k.k.k.3.1.,.,.,.,.j.<.j.x q 5 U O h @X4X5X6X6X6X6X6X6X6X",
"jXxXjXjX0XcX0X0XjX. 1 B.Z.A.p.9.Y w.y.w.6.5.6.R ( p N z.x.x.E.x.x.E.x.z.c.x.z.j.,.,.,.,.,.,.j.<.=.d.$.{ = ` 7XqXdXzXxXxXxXxXcXcX",
"xXxXjXjX0X0X0X0XjX. k N.M.a.t.q.Y w.y.8.I P s ! cXVXZXZXZXCXCXCXCXCXCXZXZXZXrX,.,.,.=.*.,.,.<.<.j.j.z.v % Q 4X8X0XxXxXxXxXcXcXxX",
"xXxXcXvXxX0X0X0XcX. 1 N.M.Z.p.Y Y q.8.P 6.K @ 8 vXKXKXKXKXKXKXJXKXJXFXFXLXLXtXh.h.h.-.-.=.%.=.=.=.k.j.z 6 f wX6XqXxXbXvXvXvXvXvX",
"xXcXvXcX0XxX0X0XcXo 1 N.u.Z.A.9.T 8.8.P K ` i h vXLXKXJXKXKXKXJXKXKXKXKXLXPXZXeXeXeX=Xn.%.$.*.=.=.j.j.b 4 f 5X5X0XjXvXvXvXvXvXvX",
"xXxXxXxXxXxX0X0XcX. 1 N.u.p.p.9.T 6.5.P @ % HXPXLXJXKXJXJXKXKXKXJXKXKXKXKXKXKXPXPXIXLXF.M M n #.%.&.#.$.q i 5X4XqXxX0XxXcXjXjXjX",
"0X0XxX0XxXxXxX0XdX  1 N.u.a.A.Y T P 5.L @ X HXPXLXKXJXJXKXJXJXKXKXKXKXKXKXKXKXKXIXPXLX&X) ) v z M $.#.$.q 8 <X5XqXxXxXcXxXjXjX0X",
"6X6X6X6X8X6X6X6X7X. k M.p.Z.Z.Y L 5.I L @ X IXKXFXFXmXiXwXmXGXGXGXZXmXdXnXnXnXSXZXLXLXmXiX=Xg q e z $.$.w i .X.X@X4X6X6X6X6X6X8X",
"6X6X6X6XwX6X6X8X8X. 1 N.u.p.A.Y L I I L X X SXJXGXdXwX-X;XdXgXnXmXnXmXqXqXqXiXnXiXCXDXiX<X*Xg 5 5 q x $.; 8 .X.X@X4X6X8X6X6X6XwX",
"vXvXxX0XcXxXxX0XxX. 1 N.u.a.Z.9.T I 5.L @ X 7X7Xo.}.|.|.-X=X-X=X=X=X=X*X&X&X&X-X&X=X;X=X*X&X}.}.p 5 z n q 8 5X6X6XjXqXxXxXjX6X6X",
"vXvX0XxXxX0XdXxXcX. 1 N.M.A.Z.Y T P 5.U + + 8XkX*XD.G.J.D.J.J.J.J.J.J.F.J.F.F.F.&X=X=X&X&X&X&X+XE 4 z M ; 7 5X6X6XqX0XjXjXjX8X2X",
"vXvXvXvXcXxXzXzXxX. 1 N.u.p.Z.9.T P 5.U @ 8 }.{.|.H.H.S.H.U.H.W.H._.H.H.J.%X~.-X|.}.|.<X&X&X+X}.i 4 $ z 4 3 >X5X9XkXjXxXcXxX>X6X",
"vXvXvXvXxXcXxXcXxX. 1 N.u.a.A.R T 6.5.T h d @ + C._.uXuXuXuXuXuXyXuXuXuXtXeXtX-Xw u O.<X<X+X,X}.i 2 2 4 2 3 {.}.9X9X0XxXvXxX6X6X",
"xXxXvXvXxXjXxXjXxX. 1 M.a.Z.A.Y P q.8.I 5.K @ # C._.~.~.uXyXyXsXsXsXyXG.H G.tXF.y 8 ( ~  .+X+X}.E 9 i | [ ' | | O.4X6XqX0XxX6XwX",
"xXcXvXvXxXxXjXxXcXo 1 N.u.Z.A.9.T w.8.5.5.A X @ !.eXr & W.yXsXsXsXsXfXd # y _._.W.) t 3 | OX[.{.~ E | 7X<X>X+X+.( 4X7XqXjXjX6X>X",
"6X6XwX6X6X6X6X6X6Xo 1 N.u.Z.A.9.Y q.8.5.6.A @ @ ~.eX; & H.sXsXsXsXsXyXD.# @ H.rX`.H.f.C { D.8 8 ^ ~ +.*X*X@XXXo.` .X#X@X5X6X6X6X",
"6X8X8X6X6X6XwX6X6X. 1 N.u.a.M.q.R w.w.5.5.A @ % eXtX> - _.sXsXfXsXsXsX~.& $ H.yXuXW.K.H.(.H.q # 4 3 r t s t r 8 XX.X.X@X5X6X6X6X",
"xXjXxXxXxXjX0XjXjX. 1 N.u.p.p.Y T q.8.5.5.A @ * _.pXb.b.uXfXfXfXsXfXsXuXC.G.eXyXuXW.W.W.Y.H.; 5 O - O O & & & t 5X8X9X9XkXxXjXjX",
"0XjXxXcXxXxXjXjXjX. 1 N.u.p.t.0.T P 5.5.P [ 8 g tXsXuXuXfXgXfXfXfXfXfXyXuXrXrXyXyX_.W.K.H H , j J J J S S D l - ] .X9X9XqXqX0XjX",
"cXxXcXxXxXcXvXcXxXo 1 N.t.a.t.P L I 5.5.( ~ [.-XtXfXfXZXJXoX* > = [ FXFXgXeXpXpXeX!.H.G.8 5 n.T.I.I./.(././.U.X X O.wX9X8XqXxXcX",
"xXcXxXcXcXxXcXcXxXo 1 N.a.t.t.L l D I 0.h 6 xXVXgXJXLXLXKX*X# 4 2 [ FXFXKXDXPXDXnX&X&XF.r $ e.I.I.I.)./././.T.O O XXwX5X6X8XjXxX",
"xXxXxXcXxX0XxXxXxXo 1 N.u.y.w.S l I * 6 2 % NXPXPXLXKXKXKXaXg i 8 ] JXKXKXLXLXJXVX;X}.o.N.(.(.(.).].).].]./.I.H.T.< . s >X4X9XqX",
"jXxXcXcXjXjXxXxXxX. 1 i.w.w.8.l l S 8 7 3 @ BXKXKXKXKXKXKXLXLXGXnXdXKXKXKXKXKXLXSX+Xr t M.'.'.].'.'.`.].].].(.Y.T.< . f 4X4X5X8X",
"wX8X6XwX8X6X6X6X6X. < i.8.8.I d - > y c % % 4XaXBXLXJXKXKXJXJXJXKXKXKXKXKXPXNXdX5XoXl S Z.U.U.(.(.(././.(././.Y.U.b.b.{ ] ' O..X",
"6X6X6X6X6X6X6X6X6X. < q.P 5.5.d # & B h.: % ( O.aXLXLXJXKXKXKXKXKXKXKXKXKXKX8X>X+.o.w.T.I.(.I.U.(./.(.(./.).Y.Y.I.L.Y.b.& 4  ..X",
"xXxXxXxXjXxXxXcXaX. > P P L L V V j N >.e 6 ( ^.aXAXAXJXKXKXKXKXLXKXIXVXIXKX5X1X| Z A 0.Z.S.U.S.U.U.U.(.U././.Y.).I.I.b.; # } .X",
"xXxXxXxXjXxXxXjXqX. = I L 8 8 Z S.S.r.-.z 2 s ( +. X9XLXFXKXKXKXKXLX8X<X<X<X .} 5 X & & & J D H H G ;.;.r.(./.Y.).Y.I.n.w 5 ! .X",
"xXcXxXxXvXvXjXjX9X  - R U % @ V U.(.r.>.z 3 3 3  X X3XGXwXSXKXLXKXIX<X<X1X}.3 & x b #.#.x d H F G G D :.n.T.).).).).I.L.v w f .X",
"cXcXxXxXvXcX0X9X7X* h Z V , w v e.I 5.&.v 7 7 7 +.} O.dXXXdXFXFXIXSX@X<X[.' u x j.k.3.l.%.; % > V J m D 7.n.Y.).).).Y.I.n.y f .X",
"xXjXxXxXxXjX0X7X7X* % j >.>.>.F e z j z e 4 a a * X h @Xo.#XwXwX9XwX+XOX| + e -.<.3.3.3.-.; # 2 # e c F G ;.r.).).Y.Y.I.L.p i .X",
"xXxXcXxXzXdXqX6X7X* & V >.s.s.:.a w q $ + 5 B M 8 X ! 2XOX#X6X6X6X5X[.OX+.+ j *.3.3.l.3.%.w # 4 # > Z G G :.n.).).Y.Y.Q.K.v i .X",
"6X8X8XwX6X5X4X.X.X* + J >.r.r.G e 5 4 0 0 u M M x B G h t  .2X@X>X[.8 8 8 # z *.1.3.l.k.B ( [. .t @ r A r.n.I./.).Y.Y.Y.K.V f .X",
"6X6X6X6X6X6X@X#X.X* $ v >.>.>.c e 7 W [.:X( M M %.j.:.# #  .@X#X#X[.5 5 $ ; ; j *.,.<.2.z ' PXPX` X @ y n.T.U.Y.Y.).Y.Y.K.V i .X",
"cXxX0XjXjX0X9X4X4X% % y M :.d.e u f +.3X3X..M n -.1.>.j J f.| ' ' ] a z b b q e n #.%.-.e ! IXHX( # # V K.T.U.Y.Y.Y.Y.T.K.g f 5X",
"xXxXxX0XjX0X9X5X2X* % 6 z M N q $ +.:X X2X{ n b -.1.1.3.k.-.q % & : j.k.<.,.z w + + i O.kXzXPXNX( z ; ; N :.n.s.I.L.>.n.B w f 6X",
"xXxXvXvXdX0XqX6X6X* d Z w a w # # +.:X}.D.B x b -.3.2.1.k.>./ { ) { L.j.<.,.%.e 2 3 O.VXPXPXNX..n $.: $ G :.n.L.s.L.g.g.G w h 9X",
"xXcXvXcXkX0XqX9XaX  = K 5 7 5 # # ; z n #.n : : c M n M G gXFXFXFXFXCXb x x e 7 3 7 ..xXHXVX|.$.-.%.w $ F &.:.f.>.:.;.f.F w f 9X",
"xX0XxXxXxXxX0X9XqX  - U A A l d d e x n n x $ 2 9 9 u u g dXhX^.G.;XGX5 9 9 9 4 3 6 7 w B M %.,.*.&.q & F f.f.f.f.f.;.) _ q W 4X",
"0X0XxXvXxXzXjX0XaX  > R I 6.5.l l y # # ; q 4 4 7 9 9 9 g tXV.O = @.gX% 9 9 9 7 # 4 7 q b #.n n x : w y _ N ) G F G ) ) v 4 h 4X",
"6X6X6X6X8X6X6X6X7XO 1 i.w.8.5.l l d w r t i 3 3 9 9 9 u y tX^.- > o.gX& 9 9 9 7 4 4 7 q z : 5 5 4 2 a ( F F _ C C y t y t 8 ! .X",
"6XwX6X6X6X6XwX6X7X. 1 i.y.w.w.l l S I I 6.{ 4 9 z x z v m tXtX~.~.tXgX, e x z z z e : 5 4 2 4 3 9 u a F c F ) F F y @ 8 +.O.[..X",
"vXvXcXxXxXxXjXxX0X. k N.t.t.y.L S D I P 5.T 2 e *.,.,.j.j._.sXuXuXtXuX-.*.*.*.*.*.&.#.a 9 9 4 7 a _ c c c c c C _ p + 8 .X4X.X@X",
"vXvX0XxXxXxXxXjXxX. 1 N.t.t.Z.P L P 5.q.s s Q ( g.z.z.z.x.W.H.J.K._.rXz.x.z.z.z.>.d.d.( Q ( 0 2 a c c c c c c y & 8 s ! #X4XOX2X",
"vXcXcXvXcXxXcXxXxX. d N.M.Z.Z.9.L 6.I b.0 2 ,XUXVXHXHXHXVXVX+X_ ( gXDXVXCXCXCXCXCXNXlX,X,X XW 4 u c v c c c c t X W 2X7X7X9X4X4X",
"vXvXvXcXxXcXxXxXxX. 1 N.u.Z.Z.Y P 6.5.m.9 3 lXPXPXPXPXIXIXIX1XE 8 BXKXPXPXIXPXLXIXNX3X,X X{.i 2 u _ E v c c ( g f ` 9X6XqX0X5X@X",
"zXiXvXvXcXxXxXxXcX. 1 N.a.a.A.Y P q.8.5.0 0 } } | | ] ....o.' 9 7 ] X.X.X.} } ] ` ! W f f W 8 s i 7 4 4 4 6 6 ' @X4X4X7X9X0X6X6X",
"jXzXvXvXxXxXxXxXjXo k N.u.Z.A.9.Y q.8.5.I { X.t + $ q ; e e q 9 7 4 4 4 4 4 7 q q q w q 5 2 {.;X .3 @ + + 2 3 ' @X4X7XqXjX0X@X6X",
"wX6X6X8X6X6X6X6X6X. 1 N.u.A.a.9.P w.y.8.I 5.6.s # j n n b b e 6 # 6 4 7 4 5 z x b B b x q 3 ' R H d s s + 0 h } .X#X*X5X7X6X6X6X",
"8X6X6XwX6X6XwX8X6X. 1 N.u.Z.A.9.0.w.y.w.6.5.P < & v ) ) ) F q # Q zXMXMX~ 4 w N N N N N e 3 ` P P 5.P L X K .X.X#X4X5X7X6X6X6X6X",
"jXxXcXxXxXjXjXjXxX. 1 N.t.a.Z.R Y M.y.w.8.5.5.t + ] *X-X^.o.t 4 ! UXMXUX~ 3 % ^.-X!.^.F.f # ' 5.5.5.P P O ` 7X8XiXxXxXcXxXjXjXjX",
"jXxXxXcXjXxXjXjX0X. 1 N.M.a.Z.Y Y w.Z.w.8.5.5.d 6 X.*XoXG...t 3 ' UXMXUX! 3 5 &X!.oXF.F.p 4 ] 8.5.6.q.{ - ] qXqXjXbXvXvXjXxXjXjX",
"xXxXcXxXxXxXbXvXcX. 1 N.t.Z.A.q.Y i.y.y.6.5.5.` 6 # # % 7 # 4 6 {.UXUXMXzXzXf % @ + # # 4 4 ] 5.5.8.w.m.- @.qX0XbXvXvXvXxXcXvXcX",
"xXcXxXcXxXcXvXbXxX. k N.t.A.Z.9.T w.y.8.5.5.5.U + % 2 % 6 6 + % 2XUXMXMXMXUX8 4 6 6 6 6 3 2 s D 5.8.i.m.- X.0X0XvXvXvXvXcXxXvXvX",
"xXxXxXxXdXjXzXiXxX. d B.N.A.A.Y Y q.w.R 6.U V g 3 6 3 % % 6 + % 2XbXbXzXzXzX6 7 4 4 2 2 4 6 ] @.i.8.m.m.- X.xXzXjXjXjX0XjXjXjXjX",
"xXjXcXxXxXxXjXzXzX. 1 B.N.A.Z.9.T q.w.G.XXf & 4 6 + % 3 6 % + + $X7X2X2X2X5X6 6 # 4 4 4 4 4 X.:XG.8.i.m.- X.xXdXjXjXjXcXjXjXjXxX",
"6X6X8X6X6X6X6X6XwXo 1 N.t.u.Z.9.H H l @.OXf 8 r t i t t r r 8 t X.O.o.o.+.G.f i t t r r 8 r ] F.m.8.y.B.- o.9X6X6X6X6X6XwX6X8X6X",
"wX6X6X6X6X6X6X6X6XO < !.!.!.!.G.m...{ { [ K / K ` / U ` [ H [ H [ A / / K U [ A [ H [ U [ A U m.V.V.^.C.- X.6X6X6X6X6X6X8X6X6X6X"
};
