/* XPM */
static char *result[] = {
/* columns rows colors chars-per-pixel */
"64 64 253 2 ",
"   c #010001",
".  c #0B0100",
"X  c #0B0A0D",
"o  c #08070B",
"O  c #100100",
"+  c #190B0B",
"@  c #0D041C",
"#  c #0B0617",
"$  c #13041C",
"%  c #1B031B",
"&  c #130B1C",
"*  c #180714",
"=  c #17151B",
"-  c #0F1119",
";  c #23130D",
":  c #29180E",
">  c #26061C",
",  c #37061D",
"<  c #271717",
"1  c #311914",
"2  c #3C2517",
"3  c #3B261C",
"4  c #36241A",
"5  c #0C0423",
"6  c #0D0626",
"7  c #120522",
"8  c #1B0424",
"9  c #130A23",
"0  c #180629",
"q  c #141424",
"w  c #191728",
"e  c #190634",
"r  c #1C1633",
"t  c #0B0F2E",
"y  c #240324",
"u  c #290726",
"i  c #360826",
"p  c #261627",
"a  c #39182A",
"s  c #240636",
"d  c #241B37",
"f  c #371C33",
"g  c #360B34",
"h  c #002B2B",
"j  c #022526",
"k  c #1B2934",
"l  c #003536",
"z  c #003B3C",
"x  c #0E3B3E",
"c  c #163135",
"v  c #27222A",
"b  c #392623",
"n  c #292639",
"m  c #362836",
"M  c #2E333B",
"N  c #4E0B1E",
"B  c #44251E",
"V  c #59311E",
"C  c #6A281C",
"Z  c #480526",
"A  c #570628",
"S  c #57193A",
"D  c #4E142F",
"F  c #660629",
"G  c #760528",
"H  c #68122B",
"J  c #760734",
"K  c #761839",
"L  c #691135",
"P  c #562638",
"I  c #493638",
"U  c #502C2F",
"Y  c #68243B",
"T  c #752837",
"R  c #6C332E",
"E  c #63101C",
"W  c #784A28",
"Q  c #664733",
"!  c #774D34",
"~  c #755034",
"^  c #271642",
"/  c #023F40",
"(  c #292645",
")  c #383646",
"_  c #352D4D",
"`  c #091142",
"'  c #4E304A",
"]  c #723047",
"[  c #5D1441",
"{  c #004344",
"}  c #004949",
"|  c #0C4445",
" . c #005455",
".. c #005758",
"X. c #005A5B",
"o. c #0D494B",
"O. c #374B52",
"+. c #005F60",
"@. c #006364",
"#. c #006769",
"$. c #006869",
"%. c #4A495A",
"&. c #544E56",
"*. c #6E4F4F",
"=. c #7D634E",
"-. c #595965",
";. c #535169",
":. c #69576A",
">. c #5D6167",
",. c #6F6B74",
"<. c #86052B",
"1. c #860633",
"2. c #990A34",
"3. c #960D30",
"4. c #B6052B",
"5. c #BA0934",
"6. c #A71033",
"7. c #873537",
"8. c #902E37",
"9. c #AD3233",
"0. c #C70B35",
"q. c #D80B38",
"w. c #D41234",
"e. c #E5183B",
"r. c #E81138",
"t. c #EE2D3B",
"y. c #814824",
"u. c #864D2A",
"i. c #8B542C",
"p. c #8A5A35",
"a. c #935B33",
"s. c #894D35",
"d. c #A9513B",
"f. c #99663B",
"g. c #9C713F",
"h. c #8C643C",
"j. c #A36D3E",
"k. c #A66C3B",
"l. c #C84434",
"z. c #941742",
"x. c #8D2C44",
"c. c #AE3247",
"v. c #B11A41",
"b. c #D21747",
"n. c #E51941",
"m. c #F70E42",
"M. c #D22F50",
"N. c #E23A58",
"B. c #F93856",
"V. c #EE2848",
"C. c #835D45",
"Z. c #90544E",
"A. c #AE504C",
"S. c #9C6E44",
"D. c #9C6F48",
"F. c #936B4B",
"G. c #9C7044",
"H. c #96714B",
"J. c #967245",
"K. c #967152",
"L. c #8B6850",
"P. c #A36E42",
"I. c #A06641",
"U. c #A17043",
"Y. c #B97151",
"T. c #865A6E",
"R. c #99787B",
"E. c #93706D",
"W. c #B97766",
"Q. c #AE706A",
"!. c #B65A63",
"~. c #C75053",
"^. c #F84759",
"/. c #D8784D",
"(. c #C77855",
"). c #D97855",
"_. c #CF6D4F",
"`. c #FB4864",
"'. c #F15063",
"]. c #C5776A",
"[. c #DC7563",
"{. c #B08677",
"}. c #8F8577",
"|. c #D88756",
" X c #D38A55",
".X c #E28258",
"XX c #D28E72",
"oX c #E49C6D",
"OX c #E2A26A",
"+X c #DDA064",
"@X c #797687",
"#X c #70788E",
"$X c #8A7B8A",
"%X c #A17481",
"&X c #7B8799",
"*X c #978785",
"=X c #888595",
"-X c #978B9A",
";X c #99979A",
":X c #89888C",
">X c #A78988",
",X c #A48D95",
"<X c #A79798",
"1X c #B59A9A",
"2X c #AE9188",
"3X c #B8A399",
"4X c #899AA6",
"5X c #9D98A7",
"6X c #9199B4",
"7X c #A49DA8",
"8X c #A19EB2",
"9X c #99A1A6",
"0X c #99B1BE",
"qX c #A7A8AA",
"wX c #B5ADA9",
"eX c #BAB7B6",
"rX c #B0B2B0",
"tX c #D1968D",
"yX c #EE9789",
"uX c #D7A890",
"iX c #F9B999",
"pX c #EFAE8F",
"aX c #C5B8B1",
"sX c #E9BBA9",
"dX c #BEC2BA",
"fX c #FCC29C",
"gX c #D1C6B7",
"hX c #F8C7A8",
"jX c #ECCEB7",
"kX c #D1C09F",
"lX c #A9B0C0",
"zX c #BAC4C8",
"xX c #C5C8C9",
"cX c #D4CBC4",
"vX c #DAD4C6",
"bX c #CBDBD9",
"nX c #D5DADA",
"mX c #CFD2CE",
"MX c #E9DEDA",
"NX c #F5DBD6",
"BX c #EBD5C8",
"VX c #D7E2D9",
"CX c #E7E4D6",
"ZX c #F8E9D7",
"AX c #F6F3D9",
"SX c #EAE3CE",
"DX c #EAEAE7",
"FX c #FAFBE6",
"GX c #FCFDEA",
"HX c #F6F7E6",
"JX c #F6F8F4",
"KX c #EEEEEA",
"LX c #D2E0E0",
/* pixels */
"X.X.@.+.X.X.+.+.X.X     X   X   .     .         o   o   .         o                         .         X X  .X.X.+.+.+.+. ...{ { ",
"X.X.+.+.X.X.+.+.X.. + b 4 3 b b b B b b 3 b 2 B b 4 1 < ; + M ( n d p w w p = w p m n v < ; : 1 4 a v 4 X X.X...+.+.+.+... .{ { ",
"@.@.X.X.$.#.@.X.@.. 3 K.U.U.g.U.P.P.P.P.P.P.P.j.f.f.p.y.y.y.I 6 5 $ $ # @ @ $ % $ $ 0 f ! y.y.y.i.a.f.F.;  .+.+.+.+.$.$.@.+.{ { ",
"@.@.X.X.#.$.+.@.X.. B K.U.k.k.k.k.U.k.P.P.P.j.f.a.i.y.y.y.y.] S D H F E F H H H L K J ] =.! ! ! W u.a.C.;  .+.+.+.+.$.$.@.+.{ { ",
"X.X.X.@.X.X.X.X.X.. 3 K.U.D.U.C.C.C.C.C.p.=.=.~ Q V U M ( k A.`.`.`.`.`.`.`.`.`.B.B.B.c.y 0 8 $ Q W u.=.;  .X.X.+.@.+.+. . .{ { ",
"X.X.@.X.+.X.X.X.X.. 3 K.U.U.U.B X . . . .   .   . . & r e y A.^.`.^.^.^.^.^.B.B.B.B.B.b.L A i i R y.y.Q + }  ...+.+.+.+.X. .{ { ",
"} } } } } } } } } . 3 K.U.P.P.B .   o . . o   o X = I c.z.z.M.t.V.V.V.V.V.V.V.V.n.e.e.b.M.b.5.v.R I b Q O l z { } } } } } } } } ",
"} } } } } } } } } . 3 D.G.U.U.2         o   o X r 9 H V.V.V.n.e.e.t.n.n.n.n.n.r.0.0.0.0.0.b.q.b.A u 8 Q + h l { { } } } } } } } ",
"X.X.X.X.X..... .X.. 3 D.U.j.G.3             X = _ f K N.N.N.'.N.~.N.N.N.N.V.M.b.0.0.0.4.0.0.b.q.5.z.1.*.+ | z } ..X.+.X.+.+.+.+.",
"X.X.X.X.X.......X.. 3 J.G.j.P.2           = w ) xXnXBXBXNXNXBXNXNXNXNXNXBXBXyXb.0.0.5.5.0.0.q.q.b.b.M.D - ( z {  .X.X.+.+.+.+.+.",
"X.@.@.@...X.....@.. B J.g.j.G.2         X w # w cXHXGXGXFXGXFXGXGXFXAXFXHXGXyXv.v.v.6.6.5.2.5.0.5.n.b.Z 7 n z {  .X.@.@.$.$.$.$.",
"+.+.@.@.X.......@.. 3 G.g.U.j.3       X n M v M cXGXGXFXGXGXGXGXGXGXGXFXHXJXBXtX1XtXtXA.2.1.4.5.5.b.b.F 8 n z z } X.@.$.$.$.$.$.",
"X.X.X.X.X.X.X.X.X.. 2 J.g.j.G.2       - # - DXJXJXHXFXFXFXGXGXGXGXFXGXGXGXFXGXJXJXKXGXR.J F G G 3.2.<.1.y d l z } X.X.X.X.X.....",
"X.X.X.X.X.X.X.X.X.. 3 J.g.j.P.3       X # o DXJXHXFXFXFXFXFXFXGXGXGXFXGXGXGXGXGXKXJXKX>X] ] D Z J 1.<.1.y r l z }  .X.X.X.X.....",
"} } } } } } } } } . 2 J.g.j.G.2       # # o KXGXAXAXvXaXaXjXSXSXSXBXvXgXcXcXcXCXBXZXHXBXaX1X_ > i Z 1.1., r h h l } { } } } } } ",
"} } } } } } } } } O 3 J.g.U.j.2       o # o CXFXSXgXwX2X3XgXvXcXvXcXvXeXeXeXaXmXaXZXKXaXwX,Xf 8 8 y A <.> w h j l { } } } } } } ",
"@.$.X.X.X.X.X.X.X.. 3 H.G.U.P.3       - # o qXqX,.E.%X%X,X1X2X3X1X1XwX<X,X,X,X2X>XwX1X1X<X,X$X$X^ 8 Z G > 0 z z }  ...X.X.X.{ { ",
"$.$.X.X.X.X.X.X.X.. 3 K.U.U.P.3       w # @ rXeX-X%XE.Q.E.Q.Q.Q.Q.Q.Q.E.Q.R.R.R.,X1X1X,X,X,X,X-Xf 7 Z J y 9 o.z / }  .X...X.{ { ",
"@.@.@.#.+.@.@.@.X.. 3 H.D.P.G.2       w 5 q =X@X%XW.W.W.!.(.W.].W.W.].W.Q.>X{.2X%X$X,X,X,X-X-X$Xd 7 % Z 8 6 o./ { }  .X.@.@.{ { ",
"@.@.@.@.+.X.@.X.@.. b H.D.j.G.2       - q q # # L.XXpXOXpXpXpXpXiXiXpXpXuXtXuX2Xu 8 $X<X5X-X6X$X^ 5 5 7 6 e ;.%.} } } X.+.@.{ / ",
"X.X.$.$.X.X.X.X.X.. 3 H.G.j.P.3           w # @ K.tXW.{.pXiXiXfXfXfXiXE.R E.uXR.i s ' ) :.-X-X$X^ t f ;.%.%.;.;.O.l {  ...X.{ { ",
"..X.$.$.X.X.X.X.X.O B H.S.j.G.2           q # # {.tX< % XXiXfXfXfXfXfXU $ a XXXX].*.u 6 ;.$X#X@X_ ^ ;.qX7X;X-X,.' l / } ..X.{ { ",
"} } } } } } } } } O 3 H.S.j.G.3           q # X {.uXp * Y.iXiXfXfXfXfX:.$ # W.yXyXW.Z.D *.T.r r ` _ ,.<X<X<X:X,.' h h z { } } } ",
"} } } } } } } } } . 3 D.G.j.P.2           q @ * 2XuX< > XXiXhXhXfXfXhXW.* % W.pXpX].!.Y. XW.> @ 0 0 w p v v = p x h h z { { } } ",
"....+.+.X.X.X.X.X.. 2 K.D.P.G.2           q @ & tXpXL.Z.pXhXhXhXhXfXhXpXE.E.tXpXpX].].(.).W.< % > + + + * + + p | x z }  .....X.",
"X.X.+.+.+.X.X...... 3 H.G.j.g.2         o k q m tXfXpXyXhXjXhXhXhXhXhXiXpXyXpXpXpXtX].!.R ] , Z E C C C C R C * M x z { }  . ...",
"+.+.+.+.+.+.@.@.@.. 3 H.G.j.g.2         M _ @X2XuXhXjXNXFX}.< < = Q AXAXBXtXiXsXtX{.{.Q.w > A._././.|.|.|.|.(.# X c } | } } X.+.",
"+.+.+.+.+.+.@.@.@.O 3 H.G.f.f.:       - n q zXMXjXAXFXFXGX<X$ 9 $ &.FXAXHXZXHXDXcX*X>XR.w * i./.|..X|.|.+X X(.* ; O.o.o.z } ..X.",
"X.X.+.+...X.X.X.X.. B J.g.f.p.:     q 9 $ @ mXJXGXJXGXGXGXdX( d d &.FXGXHXHXFXHXCXwX:X,.F. X+X|.|..X+X|.+X|.(.(.(.a . - x l } } ",
"X.X.+.+...X.X.X.X.. 4 F.h.i.i.;     q 6 6 # bXGXGXFXGXGXGXGXAXSXcXgXFXGXGXHXJXFXCX*X> p S.+X+X+XOX+XOX+X+X+X|.)._.1 o q | l l } ",
"} } } } } } } } } O 4 L.p.u.W < # - i L & 7 qXgXmXFXFXGXGXFXFXGXFXFXJXGXGXGXvXxXqX%XU C k.(.(. X X X|.|.|.|.).).).s.Z.*.M j c h ",
"} } } } } } } } } . 1 p.! y.W v $ $ T v., & ' ,.dXHXHXFXGXFXGXGXGXGXGXGXGXGXqX7X,.,.f._./. X(./. X X X|.|.|.).).)._.).Z.% $ k h ",
"X.X.+.+.+.X.+.X. .o : ~ ! W Q m D N K 9.i 7 ) }.dXVXVXFXGXGXGXGXGXGXJXMXDXHXqX8X;.P U s.I.Y.(.Y.(.(. X(.(.|.|.)./././.A.> $ k j ",
"X.X.+.+.X.X.X...}   ; W Q = q I Y.k.d.6.Z @ m ' ,.4XrXAXAXFXGXGXFXHXrX5X7X7X:.;.& * * * * V R R C R u.7.A.)..X|..X.X/.A.y 0 w j ",
"@.@.X.X.$.$.X. .} . ; ~ Q $ 5 B  XY.k.9.Z 6 7 6 &X&XzXVXwXCXGXGXGXAX7X7X7X=X6 * Z F <.<.A b Y Y T T T 7.d._..X.X.X.X).A.D 0 k j ",
"@.@.X.X.$.@...} { = I m U , u B s.y.7.3.D 0 0 e ,.>.,.eX}.vXCXAXKXCX5X5X@X%.s A b.n.r.m.2.> = < a C H 7.s.A.|..X.X)..X/.A.a w j ",
"X.X.+.+.X.X.} } l = - N 9.9.9.T a Z N Z i 8 u g j o M ;X,.;XwXwXwXrX-X4X;.# i 6.q.r.r.r.2.> & 5 $ a P Y T 7.d..X.X.X[._.~.D r h ",
"X.X.+.+.X...} { z = # U 9.l.l.x.D y y $ 5 0 L J > # I 7X:X<XrXrXrX7X$X@X,.@ N 4.r.r.m.r.6.u $ 7 $ < U T T 8.A..X.X.X).).~.f t j ",
"} } } } } { z l h = $ E 9.9.9.T i 0 7 0 r e J 1.A H ] m p >.9X;X;X@Xw p w @ Z 4.w.r.m.n.L ' @X:.p * = U A.A._.)..X).|.).!.D q h ",
"} } } } } { z h h = 9 E 9.d.9.S i 0 n &X4X' J J 1.M.2.@ % -.;X-X-X@X8 8 8 $ > E 4.q.q.w.Z %.JXJX%.  @ a I._._.)..X/.).).~.U q h ",
"X.X...X... .} z l = & a J 6.x.i s f ,.0X0X:.J G 6.w.9.N E Z.;.&.%.&.f A F F y i G <.2.6.i ) KXDX' $ @ U !._.)./.).)._._.!.D w / ",
"X.X.X.X.....} / l - & 8 Z K K 8 @ ,.4X&X0X] G F 6.w.w.r.r.6.> - # , b.b.q.0.Z u @ @ n ,.eXzXJXnX' Z > > K 8.d.~._.~.A.A.H u w / ",
"+.+.@.@.X...} } } = b I 0 i u $ $ ,.4X$XT.K F F 4.e.w.e.e.c.' *.] *.~.n.q.0.2.i 5 5 ,.DXJXJXnX:.G G i % T 8.c.A.l.A.c.c.Y u k { ",
"+.+.@.$...X...} } o ; I 0 0 0 % $ 8 Z G <.G , > S J G J T jXAXAXAXAXNXF A A i 0 6 y :.xXDXMX%X1.2.6.u % Y 3.8.c.9.7.8.x.Y u w { ",
"X...X.X.X.X... . .. ; Q U U V = - > A G G A % @ e e s s b jXkX}.}.3XSX8 e e e 7 7 6 0 u H J 2.0.4.2.u % Y x.x.8.x.7.x.] [ u q l ",
"X.X.X...X.X..... .. < ~ W W W ;   $ % % > y 7 5 0 e e e f aXK.O X =.jX9 e e e 0 $ 8 0 y F <.J G A , u a S T Y ] Y Y ] Y D 9 j l ",
"} } } } } } } } } . 4 h.a.i.W ;   - 7 & 0 ( 6 6 e e s s p uX}.; < L.vX& 0 e e e 7 7 0 y Z , 8 8 8 5 i ' [ ] ] Y P D p a p w r h ",
"} } } } } } } } } . 4 h.f.a.a.:   o o o X m 7 0 Z Z Z D H uXuX{.{.uXjX, Z Z Z Z Z i i 8 7 5 7 6 e s g Y S Y S Y Y p # 9 c c c h ",
"$.$.....X.X.X.X.X.. 3 H.J.f.f.4           = 6 i 6.0.0.b.b.XXfXfXpXpXpX2.4.4.4.4.4.4.<.g 0 s 0 0 g [ S S S S [ P P D @ q c l j l ",
"$.$.X.X.X.X.X.+.X.. 3 K.D.I.f.2       w t w _ [ c.M.M.M.N.].W.!.!.tXXXN.V.M.M.M.9.x.z.[ _ _ e 5 g S D S S S ' u * & q k x l h l ",
"@.@.@.@.+.+.+.+.@.. 3 K.D.P.G.2       v t 5 8XLXMXDXDXDXMXMX,X' P vXZXMXNXMXMXNXMXnX0X6X6X&X( 7 s [ S S S S S p # t | | { } z z ",
"@.@.@.@.+.+.+.@.+.. 2 H.G.P.P.2       = t 6 0XJXJXJXJXKXKXDX8X^ r vXJXJXJXHXJXGXDXnX0X6X&X#Xd 9 d [ g f S D ' f w c z z } ..z { ",
"X.X.$.$.X.X.X.X.X.. 3 H.S.k.g.2         ` t ;.:.;.;.-.:.:.T.' e 8 &.,.>.,.-.-.&.%.) n n n ( q r d 0 7 9 9 0 0 ) x x l { } ..z { ",
"X.X.$.@.X.X.X.X.X.. B H.S.g.P.2           w O.w $ % y u i i s e 8 7 8 9 7 7 0 y y y y y 8 5 @XwX:.5 # 5 @ # # M l l z }  ...{ { ",
"} } } } } } } } } . 3 H.G.P.P.3             - q $ N G G G H u 9 $ 6 @ 9 7 8 Z A F L F A u 7 %.L.R v v p @ q t c h l z / { } } } ",
"} } } } } } } } } . 3 H.D.P.U.2               - # D ] T T P u $ M xXbXbX_ 7 u K K K K K u 5 %.=.W W W W X h h h l z { { } } } } ",
"X.X.+.+.X.X.X.X.X.. 3 K.G.j.G.2             o - * :.<X2X>X,.p 7 ) LXbXLX_ 6 & %X{.{.}.R.f @ %.Q W W W ~ + z { {  ...X.@.X.X.X.X.",
"..X.+.@.X.X.X.X.X.. 3 H.D.P.U.3               q & >.;X*XE.*.d 7 %.LXLXnX) @ 9 <X>X}.*XR.f 5 -.=.y.u.i.p.; } }  .X.X.X.@.X.X.X.X.",
"X.@.@.X.+.+.@.@.X.. 3 H.G.U.G.B               k 6 & $ $ 5 $ 9 9 #XLXLXbXzXzXv 9 @ $ $ & 7 7 :.=.y.i.f.L.;  . . .@.@.$.$.+.+.@.@.",
"+.+.X.@.X.@.@.@.@.O B H.G.j.j.2               v @ @ & 5 & 9 @ & 4XLXLXbXbXLXw @ 6 9 7 6 6 5 M V y.i.a.F.;  . . .#.#.$.$.+.+.@.@.",
"X.X.@.+...X.X.X.X.O 3 H.G.g.g.2       o o = # w & & 6 & 6 & @ @ 9XmXzXzXzXzX9 0 9 5 7 $ 5 6 &.=.p.i.h.F.;  .X.X.X.......X.X.X.X.",
"X.X.+.+.X...X.X.X.. 3 K.D.j.j.2       &.,.n * & 6 6 $ 5 9 9 @ & &XqX9X9X9XqX9 9 7 9 9 6 6 6 ,.4XE.~ f.H.: ..X.X...X.....X...X.X.",
"} } } } } } } } } O 3 D.D.P.P.2 o   o &.&Xk 9 w w w w q q - - q >.>.>.>.-.,.d d p w p w = q &.,.L.i.f.F.; { } } } } } } } } } } ",
"} } } } } } } } } + b K.K.D.H.3 o   o       o o             o   o             o + + + + + + + V i.h.h.L.1 } } } } } } } } } } } "
};
