/* XPM */
static char *result[] = {
/* columns rows colors chars-per-pixel */
"64 64 255 2 ",
"   c #010101",
".  c #0B0100",
"X  c #070A0A",
"o  c #0A060C",
"O  c #140806",
"+  c #1B0D0C",
"@  c #140506",
"#  c #0D041C",
"$  c #0D0A1C",
"%  c #090416",
"&  c #13041C",
"*  c #1B031B",
"=  c #130A1C",
"-  c #180714",
";  c #19141A",
":  c #18110E",
">  c #23130D",
",  c #2B1A0F",
"<  c #26061C",
"1  c #37061D",
"2  c #261817",
"3  c #341D17",
"4  c #210A08",
"5  c #3B261C",
"6  c #392518",
"7  c #2D211B",
"8  c #0C0423",
"9  c #0D0626",
"0  c #120522",
"q  c #1B0424",
"w  c #130A23",
"e  c #140329",
"r  c #1A0829",
"t  c #1C1424",
"y  c #181527",
"u  c #190634",
"i  c #1D1434",
"p  c #0B112E",
"a  c #240324",
"s  c #290726",
"d  c #360826",
"f  c #261727",
"g  c #391729",
"h  c #240636",
"j  c #241B36",
"k  c #371B33",
"l  c #360B34",
"z  c #012B2B",
"x  c #042628",
"c  c #003435",
"v  c #003A3B",
"b  c #083A3B",
"n  c #162C33",
"m  c #272229",
"M  c #382624",
"N  c #2A2538",
"B  c #362937",
"V  c #323438",
"C  c #4E0B1E",
"Z  c #43241E",
"A  c #542E1A",
"S  c #6A281C",
"D  c #480526",
"F  c #570628",
"G  c #59192B",
"H  c #57193A",
"J  c #4A1231",
"K  c #660629",
"L  c #760528",
"P  c #68122B",
"I  c #760734",
"U  c #661838",
"Y  c #761839",
"T  c #6B0A33",
"R  c #472728",
"E  c #572538",
"W  c #473639",
"Q  c #573838",
"!  c #532C30",
"~  c #693626",
"^  c #67243B",
"/  c #752837",
"(  c #6D3130",
")  c #63101C",
"_  c #5D4335",
"`  c #784A29",
"'  c #744C33",
"]  c #775337",
"[  c #6C4B34",
"{  c #271642",
"}  c #292645",
"|  c #393846",
" . c #352D4C",
".. c #132C42",
"X. c #4D304A",
"o. c #723047",
"O. c #5D1441",
"+. c #004444",
"@. c #004949",
"#. c #004748",
"$. c #005455",
"%. c #005758",
"&. c #005A5B",
"*. c #0A4B4D",
"=. c #30484D",
"-. c #005F60",
";. c #006364",
":. c #006769",
">. c #006869",
",. c #514B53",
"<. c #70514E",
"1. c #5B5966",
"2. c #534F67",
"3. c #69576A",
"4. c #5C6164",
"5. c #6E6A73",
"6. c #76695A",
"7. c #86052B",
"8. c #860633",
"9. c #990A34",
"0. c #960D30",
"q. c #B6052B",
"w. c #BA0934",
"e. c #A71033",
"r. c #873537",
"t. c #902E37",
"y. c #AD3233",
"u. c #C70B35",
"i. c #D80B38",
"p. c #D41234",
"a. c #E5183B",
"s. c #E81138",
"d. c #EE2D3B",
"f. c #814824",
"g. c #844D2C",
"h. c #89532C",
"j. c #895B36",
"k. c #935B34",
"l. c #894A3A",
"z. c #A9513B",
"x. c #9E693E",
"c. c #97653B",
"v. c #9C713F",
"b. c #86613E",
"n. c #A46C3D",
"m. c #C84434",
"M. c #941742",
"N. c #8D2C44",
"B. c #AE3247",
"V. c #B11A41",
"C. c #D21747",
"Z. c #E51941",
"A. c #F70E42",
"S. c #D22F50",
"D. c #EB2747",
"F. c #E23A58",
"G. c #F93856",
"H. c #F22949",
"J. c #8D564B",
"K. c #AE504C",
"L. c #996D47",
"P. c #977148",
"I. c #957151",
"U. c #8C694F",
"Y. c #A26D42",
"T. c #A06641",
"R. c #B3714E",
"E. c #865A6E",
"W. c #99787B",
"Q. c #946F6C",
"!. c #B97766",
"~. c #AE706A",
"^. c #B65A63",
"/. c #C75053",
"(. c #F84759",
"). c #D8784D",
"_. c #C77855",
"`. c #D97855",
"'. c #CF6D4F",
"]. c #FB4864",
"[. c #F15063",
"{. c #C5776A",
"}. c #DC7563",
"|. c #B08677",
" X c #8F8577",
".X c #D88756",
"XX c #D38A55",
"oX c #E28258",
"OX c #D28E72",
"+X c #E49C6D",
"@X c #E2A26A",
"#X c #DDA064",
"$X c #7A7788",
"%X c #70788E",
"&X c #8A7B8A",
"*X c #A17481",
"=X c #7B889D",
"-X c #978785",
";X c #888795",
":X c #978B9A",
">X c #99979A",
",X c #88888C",
"<X c #A78988",
"1X c #A48D95",
"2X c #A79798",
"3X c #B59A9A",
"4X c #AE9188",
"5X c #B8A399",
"6X c #899AA6",
"7X c #9D98A7",
"8X c #9199B4",
"9X c #A49DA8",
"0X c #A19EB2",
"qX c #99A1A6",
"wX c #99B1BE",
"eX c #A7A8AA",
"rX c #BAB7B6",
"tX c #B1B0AD",
"yX c #D1968D",
"uX c #EE9789",
"iX c #D7A890",
"pX c #F9B999",
"aX c #EFAE8F",
"sX c #C5B8B1",
"dX c #E9BBA9",
"fX c #BEC2BA",
"gX c #FCC29C",
"hX c #D1C6B7",
"jX c #F8C7A8",
"kX c #ECCEB7",
"lX c #D1C09F",
"zX c #A9B0C0",
"xX c #BAC4C8",
"cX c #C5C8C9",
"vX c #D4CBC4",
"bX c #DAD4C6",
"nX c #CBDBD9",
"mX c #D5DADA",
"MX c #CFD2CE",
"NX c #E9DEDA",
"BX c #F5DBD6",
"VX c #EBD5C8",
"CX c #D7E2D9",
"ZX c #E7E4D6",
"AX c #F8E9D7",
"SX c #F6F3D9",
"DX c #EAE3CE",
"FX c #EAEAE7",
"GX c #EBF1EC",
"HX c #FAFBE6",
"JX c #FCFDEA",
"KX c #F6F7E6",
"LX c #F6F8F4",
"PX c #F1ECE8",
"IX c #D2E0E0",
/* pixels */
"&.&.;.-.&.&.-.-.&.o     X   X   .     .         X   X     .           .           X         .         X o &.&.&.-.-.-.-.%.%.+.+.",
"&.&.-.&.&.&.-.-.&.. : M M 6 5 M M 5 M 5 5 M 6 3 3 : : 2 m j N f ; t t t t f N N } V : > 2 3 3 Z 5 R 7 M O &.&.&.-.-.-.-.%.%.+.+.",
";.;.&.&.:.:.-.;.;.. 5 I.Y.Y.n.Y.n.Y.Y.Y.x.c.k.h.f.f.f.h.g * & & 0 & & # % & # 8 8 R f.` g.j.k.x.Y.Y.Y.I.> %.-.-.-.-.:.:.;.-.+.+.",
";.;.&.&.>.>.-.;.-.. Z I.Y.n.n.n.n.Y.n.x.k.k.g.g.l.' g.<.o.Y Y Y P P P K K F P G K <.f.f.f.f.j.k.c.x.Y.I.> %.-.;.-.-.:.:.;.-.+.+.",
"&.&.-.&.&.-.&.&.&.. 5 I.I.P.Y.U.J.<.b.] [ _ ~ W & q r a V.].G.G.].].].[.].].].].[.K.{ } V _ ~ g.k.x.L.I.> &.&.&.;.-.;.;.$.%.+.+.",
"&.&.-.;.&.&.&.&.&.. 5 I.Y.Y.n.Z X . . . .     O d d J T C.G.H.G.G.(.(.(.(.(.(.(.(.B.u u y , + A h.k.c.U.> &.&.&.&.;.&.-.$.%.+.+.",
"@.@.@.@.@.@.@.@.@.. 5 I.Y.Y.Y.6 .   X   o ; j J V.w.C.S.C.a.C.D.D.H.D.H.D.D.H.H.d.S.e.M.N.Q m R ` h.k.U.> #.#.@.@.@.@.@.@.@.#.#.",
"@.@.@.@.@.@.@.@.@.. 5 Y.P.Y.n.6         ; * h F C.i.i.u.w.u.u.i.Z.s.Z.Z.d.Z.Z.Z.a.D.D.D.H.Y e j ` f.h.j.> #.#.#.@.@.@.@.@.@.@.@.",
"&.&.&.&.&.&.$.$.&.. 5 P.n.n.L.6     $ X m 8.M.w.s.i.C.u.u.w.u.u.C.S.F.F.F.(.(.F.F.[.F.F.F.Y k | ] g.` ] > %.%.&.;.&.&.-.;.-.-.;.",
"-.&.%.&.&.&.%.&.&.. 5 P.P.n.n.6     N $ g S.C.u.i.u.w.w.q.w.u.C.u.uXVXVXVXBXVXBXBXBXBXVXVXbXNXcX| m [ ' + @.$.%.-.;.-.&.-.-.;.&.",
"-.-.;.;.%.&.%.$.;.. Z P.v.n.c.,     N & D C.D.u.w.w.q.w.e.V.w.V.V.yXAXJXSXJXJXJXHXJXHXJXJXJXHXMXf # _ ' @ @.$.&.&.-.;.>.:.:.>.>.",
"-.-.;.;.%.&.$.$.;.. 5 P.v.v.c.3     N q K C.C.w.w.w.8.9.E.yXyXyXyXVXJXJXHXJXJXJXJXHXJXJXHXHXHXcXV i ,._ ; +.$.&.-.-.>.;.:.:.>.>.",
"&.&.&.&.&.&.&.%.-.. 6 P.v.n.c.,     i a 8.8.0.0.7.L T T Q.LXPXJXLXLXKXLXJXJXJXJXJXJXHXJXHXHXHXKXLXGX= % 2 v @.$.&.-.&.&.&.$.&.$.",
"%.&.&.&.&.&.&.&.&.X 5 P.v.n.x.,     i s 8.7.7.I D J <.o.<XHXHXJXLXPXJXJXHXHXJXHXJXHXJXSXHXHXHXKXLXFXo % : v #.$.&.;.&.&.&.&.$.&.",
"@.@.@.@.@.@.@.@.@.. 6 P.x.x.c.,     j a 7.8.D d a  .3XrXbXLXHXbXAXbXvXvXhXbXVXNXDXDXVXsXsXDXSXSXLXFXo % ; x c v @.@.@.@.@.@.@.@.",
"@.@.@.@.@.@.@.@.@.@ 5 P.v.x.v.,   . y < 8.K a q * k 1X3XsXSXAXtXvXsXrXrXsXMXvXbXvXbXhX3X4X5XhXbXKXFXX % : z c +.@.@.@.@.@.@.@.@.",
">.>.%.&.&.&.-.&.&.. 5 P.P.Y.c.,     w < L D 0 j &X&X1X1X3X3X5X1X1X<X1X1X2X5X3X5X3X3X4X<X<X*X*X5.eXeX% % ; v @.$.&.;.&.&.&.&.#.+.",
">.>.&.%.&.&.&.&.&.. 5 I.L.x.k.>   ; w < 8.D q { &X1X1X9X2X3X3X2X*XW.W.Q.Q.Q.~.~.~.~.^.Q.~.Q.E.1XrXeX$ 8 m v @.$.&.-.&.&.&.&.+.+.",
";.;.;.>.-.-.-.-.&.. 6 P.L.k.h.>   t w q D * e j &X8X*X7X2X*X&X*X4X|.|.|.!.!.|.{.!.!.{.!.~.~.~.*X$X,Xp % f +.@.$.;.>.;.&.;.;.+.+.",
";.;.;.;.-.-.-.-.;.. 5 U.c.k.` > =.2.9 8 e 8 9 j &X:X7X&X7X&Xs s 4XiXyXyXaXpXpXaXpXaXpX@XaXaXOXU.# o B V 2 #.@.$.>.>.&.;.;.;.+.+.",
"&.&.>.>.&.&.&.&.&.. 6 P.c.h.` W 2.2.,.,.2.j e } &X:X:X2. .,.r d ~.iXQ.Q ~.gXgXgXgXpXpXaX|.|.OXI.# % _ [ O +.@.$.%.%.&.%.&.&.+.+.",
"&.$.>.>.-.&.-.&.&.O Z P.c.h.` X.$X:X7XeXeX,.{  .$X$X&X%X9 s o.{.OXOXM q M pXgXgXgXpXpXXX* 2 yX|.o % W [ O +.$.$.$.%.%.%.&.&.+.+.",
"@.@.@.@.@.@.@.@.@.. 6 U.j.f.` X.3.&X>X2X9X5. .{ y j 6.J.H J.{.uXaX~.- # E.gXgXgXgXpXpX!.* f iX|.- % Q ` O c +.@.@.@.@.@.@.#.@.@.",
"@.@.@.@.@.@.@.@.@.. 6 v.j.f.` M f f m m f y 9 9 # < ~..X^.^.{.aXaX~.* @ |.gXgXgXgXgXpXOX2 2 iX4X= % Q [ O v +.+.@.@.@.@.@.@.@.@.",
"$.&.-.-.&.&.&.&.%.. 5 U.j.f.` 7 f - - - + + + < & f {.`._.{.{.pXpXuX~.E.aXpXjXjXjXjXjXaXJ.I.pXOX; % W ` O +.@.$.-.-.;.-.&.&.&.&.",
"&.&.-.-.&.&.&.%.%.. 6 b.` f.[ M ; S ~ S S S S ) D 1 Q Q ~.{.}.pXaXaXuXaXpXjXjXjXjXjXkXjXuXaXpXyXB w ,.[ O v @.$.&.&.&.;.&.&.&.&.",
"-.-.-.-.-.-.;.;.-.. , ] ` f.Q o o XX.X.X.X.X).)./.z.< f Q.|.|.yXdXdXyXkXAXSX,.< 2 ; ,XKXBXjXjXyX4X$X| ,.O c v @.;.;.>.>.-.-.;.;.",
"-.-.-.-.-.-.;.;.&.. , ` ] ` ] 4 + _..XXX.X.XoX.X).k.* 2 W.<X:XhXBXJXKXKXSXSX,.& w - 2XJXJXKXHXVXbXcXw  .2 c c v &.&.;.>.-.-.;.;.",
"&.&.-.-.%.%.%.$.@.. , ] ; . g _._.'.OX.X#X.X.X.X.X#XXXv.6. XtXNXKXKXHXJXJXHX<.i i B hXJXJXJXKXLXLXmX& & p y v v v @.$.$.%.&.&.&.",
"&.&.-.-.&.%.%.$.@.  ; ] m . 3 '.`.`.#X#X@X@X#X+X@X@X#Xc.f t -XBXJXJXHXJXJXHXhXcXZXKXKXJXJXJXHXKXLXmX% 8 r $ v c v v +.@.$.%.&.&.",
"@.@.@.@.@.@.+.v z : ; W <.J.r.'.`.XX.X.X.X.XXXXX.X_._.c.( ! -XeXxXbXLXJXJXJXHXHXHXHXHXJXJXJXKXMXrX>X& q U d ; w n z z v +.#.#.@.",
"@.@.@.@.@.+.v c z ; w * T.}.'.`.`..XXX.XXXXXXXXX).).XX).).J.5.5.qXtXJXJXJXJXHXJXJXJXHXJXJXKXKXfXQ.,.$ 1 V./ % & n z z z v v +.#.",
"&.&.&.;.&.%.$.+.v ; 0 a K.).).).`..X.X_.XX_._._._._.R.x.l.! Q 2.0XeXLXFXZXPXJXJXHXJXJXJXJXCXIXxX,X_ $ d e.S C R | b *.b c +.v v ",
"&.&.;.;.&.$.@.+.v y r s K.).oXoX.X.X`.z.r.r.( ~ S ( ! < - - o w 1.1.9X7X9XtXKXJXJXJXKXSXKXtX=X4.V N 0 d y.z.R.R.W y 2 n c c z v ",
";.;.&.&.;.;.$.v v y r J K.).oXoXoXoX`.z.r.( / / ( ( M D L 7.K F * = ;X0X9X9XPXJXKXHXZX5XCXfX6X=Xe e 9 D y.z.XX_.R % $ *.b +.z z ",
";.;.&.&.;.;.@.v +.t D /.).`.oXoXoX_.z.t.t.S G g 2 = a 9.s.s.s.C.F h ,.$X7X7XZXKXKXSXbX-XfX5.4.5.w e r J 0.r.f.l.g d d B V =.n z ",
"&.&.;.&.&.$.@.v v y J /.`.`.`.oXoXK.r./ ^ G g & $ & < e.s.A.A.i.0.d # 2.;X:XtXtXtXtX:X5.>XV o : l d q d D C D d ^ y.y.y.Z - y z ",
"&.&.&.;.&.$.@.v v w B /.`.`.oXoXoXK.r.r.^ ! 2 = & = s 9.s.A.A.s.u.C # 5.;X$X9XtXtXtX>X,XeXW % < I U q 9 0 q s l r.m.m.y.G % ; x ",
"@.@.@.@.#.+.v z z $ R /.`.`.`.oX`.'.z.K.! f $ y 3.$XX.U s.s.s.u.q.1 & i y y $X>X>XqX4.f B o.P P I I h i r r r d / z.y.y.S = ; z ",
"@.@.@.@.#.+.v z z y E ^.).`.`.`.`.'.'.R.g % o ,.LXLX,.D p.i.i.q.) < q q q q %X>X>X>X3.= = 9.V.0.I I X.6X=Xj q d G y.y.y.G w y z ",
"&.&.&.&.%.$.+.c c t B ^.'.`.`.`.`.'.'.^.! # - X.GXGX .D M.9.7.L 1 a K K D l ,.,.2.2.N.U C y.p.e.L I 3.zXwX%XN s l N.9.Y l w y v ",
"&.&.&.&.%.$.+.c v ; s P B.B.m.'./.B.t./ < < D X.mXPXxXzX5.k % 8 a D u.i.Z.C.D - # a e.Z.a.p.p.q.K I o.8X=X6X5.& s Y Y D q = n v ",
";.-.;.;.$.$.#.c +.y s U B.K.K././.K.t./ * 1 7.T 3.mXLXLXNX&X8 8 1 9.u.i.i./.<._ <.( B.C.a.s.s.e.K K Y E.=X,X5.& & s l a ..=.*.+.",
"-.-.;.;.$.$.#.c v t s o.r.N.t.t.y.r.8.^ * < e.9.M.*XNXGXcX3.q 9 a 1 F F P AXSXSXSXSXkX/ P I L F 1 1 ) 7.L C a * * q q 0 ..+.+.$.",
"&.%.&.&.&.$.@.v v w s U o.N.o.N.N.N.r.^ * a 0.q.w.9.7.F f r 8 0 e u u u u VX5X X XlXhXR h { u u # * F L L F < z n n n n *.v +.@.",
"%.&.&.&.&.$.@.v v w w g o.o./ / o.Y o.H g d 1 F L L 7.L a e & * 0 u u u 8 kX6.$ X  XiXB u u u u 8 e a < * q y v v v v v b +.@.@.",
"@.@.@.@.@.#.+.c z y f f g f M E ^ U o.^ o.f 8 e q a < D a r # 0 q u u u 0 kX6.2 <  X@Xm u { u u e e j f w y y z z z c c v +.+.@.",
"@.@.@.@.@.@.+.v z : 2 Q ; % g ^ ^ O.O.H H l h u 9 e 0 0 q d D d D D F D 1 kXiX|.|.aXiXG F J D D r 0 <.[ > z z z c v v v +.+.@.@.",
">.>.&.%.&.&.%.$.#.. : [ t o k E H E O.U E H H { e e q r l 7.9.q.q.q.u.w.e.aXlXaXaXgXOXC.C.C.u.e.d 8 ' ' O v v #.$.$.$.&.$.&.+.+.",
">.>.&.&.&.&.&.$.@.. > [ B ; ; * f H H H H H H l 8 i X. .O.M.e.B.C.S.S.F.S.+XOX^.~.{.{.F.S.S.S.B.X.} B j m v #.$.&.&.&.&.&.&.+.+.",
";.;.;.;.-.-.-.&.&.. 2 ' ' ` f % s H H H H H O.l 9 } =X8X8XwXmXNXDXBXBXBXBXBXbXE  .1XNXNXNXFXPXBXIX0X# 9 B +.#.$.;.:.-.-.;.;.+.+.",
";.;.;.;.-.-.-.;.&.. 3 ] ` f.B t j X.H H J k { l 9 { %X=X6XwXmXFXPXLXLXLXLXLXMXf { 7XGXGXGXGXLXLXLXwX9 p m #.@.%.:.>.-.-.;.-.+.+.",
"&.&.>.>.&.&.&.&.&.. 6 ] h.` ` 7 B r 0 e 0 8 r j i y } N N } | ,.1.1.4.5.4.5.,.r h X.5.5.3.1.,.,.3.2.p ..@ +.@.$.%.%.%.&.&.&.+.+.",
"&.&.>.;.&.&.&.&.&.. 5 P.j.h.f.> n % # % % % 8 2.;X1.8 0 s s h q * r 0 & 0 0 w r u h d d s < < % i 3.] ' @ #.$.$.$.$.&.%.&.&.+.+.",
"@.@.@.@.@.@.@.@.@.. 6 U.c.c.h.> m $ $ $ 9 $ w ; X $ 0 a F K K T F D & w w w 0 & w s T L L L C & m g.` ' + v #.#.@.@.#.@.@.@.@.@.",
"@.@.@.@.@.@.@.@.@.. 6 P.v.c.k.,                   % 0 d U t.Y Y U d #  .nXcXnXN 0 s ^ / o.o.J - m ' ` ' + #.#.#.@.@.@.@.@.@.@.@.",
"&.%.-.-.&.&.%.&.&.. 5 I.L.n.c.3                   $ e k W.|.|.4XW.0 9  .nXnXIX=.0 f 5.-X1X2X1.% M ` ` ] > $.&.&.;.&.-.;.&.&.&.&.",
"&.&.-.-.&.&.&.&.&.. 5 I.L.n.x.7                   t # k Q.W.-X X2Xq 9  .IXnXnX2.9 f <.W.-X2X3.= M f.f.] > $.$.$.;.;.-.-.&.&.%.&.",
"-.-.-.-.-.-.;.;.-.. 5 P.P.Y.v.6                   m 8 0 w $ $ # * m xXxXnXIXnX%Xw 0 q = - & & 9 ,.` ` ] + @.$.$.;.:.>.>.-.-.;.;.",
"-.-.-.-.-.;.;.;.-.@ Z P.Y.n.n.6                   ; 9 w 8 w 8 w w y IXnXIXnXIX7Xw # = = $ $ w $ [ ` f.' + @.$.$.:.>.>.>.-.;.;.;.",
"&.&.-.-.&.%.&.-.&.O 5 P.P.v.L.Z               m =.=.e 0 & 8 w 0 w w xXxXxXcXcXqX# & $ 8 0 8 w w M A _ [ > @.$.%.%.&.%.%.&.&.&.&.",
"&.&.-.-.%.$.&.&.-.. 5 I.Y.n.v.6               4.>X5.9 0 8 0 0 # w w eXqXqXqXeX=X# # w 0 w $ 8 w & & N ,X,.@.$.%.%.&.%.$.%.&.&.&.",
"@.@.@.@.@.@.@.@.@.@ 5 I.Y.n.n.Z X     X   X   V 4.,.= $ w y y y y m 5.4.4.4.4.4.y t t f t t j f f f V ;X,.b +.+.@.@.@.@.@.@.@.@.",
"@.@.@.@.@.@.@.@.@.O M I.I.P.P.6 X   X     X   X   X     X       X     X       X + + : + : : : A ` ` ` ] > v +.#.@.@.@.@.@.@.@.@."
};
