/* XPM */
static char *result[] = {
/* columns rows colors chars-per-pixel */
"64 64 255 2 ",
"   c #020003",
".  c #0C0000",
"X  c #0A060D",
"o  c #100100",
"O  c #140807",
"+  c #1B0B0C",
"@  c #0D041C",
"#  c #0A0417",
"$  c #13041C",
"%  c #1B031B",
"&  c #130A1C",
"*  c #180714",
"=  c #1B131A",
"-  c #1D120E",
";  c #23120D",
":  c #26061C",
">  c #37061D",
",  c #261918",
"<  c #301715",
"1  c #36251D",
"2  c #3B261D",
"3  c #0C0423",
"4  c #0D0626",
"5  c #120522",
"6  c #1B0424",
"7  c #130A23",
"8  c #180629",
"9  c #1D1423",
"0  c #181528",
"q  c #190634",
"w  c #151035",
"e  c #240324",
"r  c #290726",
"t  c #360826",
"y  c #261726",
"u  c #39182A",
"i  c #240636",
"p  c #251B36",
"a  c #381C33",
"s  c #360B34",
"d  c #292129",
"f  c #362626",
"g  c #2A2538",
"h  c #362936",
"j  c #38333A",
"k  c #4E0B1E",
"l  c #472A1D",
"z  c #582D1D",
"x  c #6D321E",
"c  c #480526",
"v  c #570628",
"b  c #57193A",
"n  c #4E142F",
"m  c #660629",
"M  c #760528",
"N  c #68122B",
"B  c #760734",
"V  c #761839",
"C  c #691135",
"Z  c #492926",
"A  c #5B3527",
"S  c #572538",
"D  c #483639",
"F  c #553938",
"G  c #51282D",
"H  c #6A3A27",
"J  c #67243B",
"K  c #752837",
"L  c #673A34",
"P  c #72322A",
"I  c #63101C",
"U  c #5C4337",
"Y  c #6D472E",
"T  c #794A2B",
"R  c #754828",
"E  c #674838",
"W  c #764A34",
"Q  c #795336",
"!  c #7A572E",
"~  c #271642",
"^  c #292645",
"/  c #393746",
"(  c #372C4D",
")  c #091142",
"_  c #463C48",
"`  c #5C3F40",
"'  c #532A4A",
"]  c #723046",
"[  c #5D1441",
"{  c #484346",
"}  c #544948",
"|  c #595558",
" . c #514A57",
".. c #64595D",
"X. c #714F4D",
"o. c #5A5866",
"O. c #555068",
"+. c #645B68",
"@. c #6E536E",
"#. c #676468",
"$. c #78686B",
"%. c #686976",
"&. c #797479",
"*. c #716C78",
"=. c #716459",
"-. c #86052B",
";. c #860633",
":. c #990A34",
">. c #960D30",
",. c #B6052B",
"<. c #BA0934",
"1. c #A71033",
"2. c #873537",
"3. c #902E37",
"4. c #AD3233",
"5. c #C70B35",
"6. c #D80B38",
"7. c #D41234",
"8. c #E5183B",
"9. c #E81138",
"0. c #EE2D3B",
"q. c #814924",
"w. c #834D2B",
"e. c #8A532C",
"r. c #824D37",
"t. c #875836",
"y. c #945C35",
"u. c #925332",
"i. c #A9513B",
"p. c #8C643A",
"a. c #9D6A3D",
"s. c #99643A",
"d. c #9D703F",
"f. c #A36C3E",
"g. c #A66C3D",
"h. c #C84434",
"j. c #941742",
"k. c #8D2C44",
"l. c #AE3247",
"z. c #B11A41",
"x. c #D21747",
"c. c #E51941",
"v. c #F70E42",
"b. c #D22F50",
"n. c #E23A58",
"m. c #F93856",
"M. c #EE2848",
"N. c #8E554C",
"B. c #AE504C",
"V. c #986B46",
"C. c #967347",
"Z. c #957253",
"A. c #8A6850",
"S. c #A26C41",
"D. c #A56C40",
"F. c #B2714E",
"G. c #865A6E",
"H. c #92706E",
"J. c #B97766",
"K. c #AE706A",
"L. c #B65A63",
"P. c #C75053",
"I. c #F84759",
"U. c #C77855",
"Y. c #D97855",
"T. c #D1704F",
"R. c #FB4864",
"E. c #F15063",
"W. c #C5776A",
"Q. c #DC7563",
"!. c #A88577",
"~. c #B38874",
"^. c #8F8577",
"/. c #D88756",
"(. c #D38A55",
"). c #E28258",
"_. c #D28E72",
"`. c #E49C6D",
"'. c #E2A26A",
"]. c #DDA064",
"[. c #7A7788",
"{. c #70788E",
"}. c #8A7B8A",
"|. c #A17481",
" X c #7B889D",
".X c #8D8D8D",
"XX c #898688",
"oX c #978785",
"OX c #888795",
"+X c #978B9A",
"@X c #9B9B9C",
"#X c #959496",
"$X c #899197",
"%X c #A78988",
"&X c #A48D95",
"*X c #A79798",
"=X c #B59A9A",
"-X c #AE9188",
";X c #B9A499",
":X c #899AA6",
">X c #9E9BA3",
",X c #9199B4",
"<X c #A49DA8",
"1X c #A19EB2",
"2X c #99A2A6",
"3X c #99B1BE",
"4X c #A3A3A4",
"5X c #A6A7A9",
"6X c #ADADAE",
"7X c #A6ACAB",
"8X c #ACAEB2",
"9X c #B3B3B5",
"0X c #BCBCBD",
"qX c #B8B7B7",
"wX c #B3B1AC",
"eX c #D1968D",
"rX c #EE9789",
"tX c #D7A890",
"yX c #F9B999",
"uX c #EFAE8F",
"iX c #C5B8B1",
"pX c #E9BBA9",
"aX c #BEC2BA",
"sX c #FCC29C",
"dX c #D1C6B7",
"fX c #F8C7A8",
"gX c #ECCEB7",
"hX c #D1C09F",
"jX c #BFBFC0",
"kX c #B4B7C0",
"lX c #9EA8C0",
"zX c #BAC4C8",
"xX c #C3C3C4",
"cX c #C7C7C8",
"vX c #CBCBCD",
"bX c #C5CACB",
"nX c #D4CBC4",
"mX c #DAD4C6",
"MX c #CBDBD9",
"NX c #D5DADA",
"BX c #CFD2CE",
"VX c #E9DEDA",
"CX c #F5DBD6",
"ZX c #EBD5C8",
"AX c #D7E2D9",
"SX c #E7E4D6",
"DX c #F6F3D9",
"FX c #F4E8D4",
"GX c #EAEAE7",
"HX c #FAFBE6",
"JX c #FCFDEA",
"KX c #F6F7E6",
"LX c #F6F8F4",
"PX c #EEEEEA",
"IX c #D2E0E0",
/* pixels */
"xXxXxXxXxXxXxXxXxXX                                                                                       #.dXjXxXcXcXcXjX0X6X6X",
"xXjXxXxXxXcXxXxXxX. - f f 2 2 f 2 f f 2 1 1 1 1 , ; - , d g g y 9 = 9 9 9 y p g ( g - - , 1 1 2 1 2 2 f O #.zXjXcXxXcXcX0X0X6X2X",
"cXcXxXxXvXvXcXxXxX. 2 Z.Z.C.C.F.F.C.Z.S.V.s.t.t.T T T Q u % % $ $ $ @ # # # # 3 4 D w.T T t.p.V.V.C.Z.Z.< #.xXxXcXcXvXvXbXbX6X>X",
"vXcXjXjXvXvXxXxXcX. 2 Z.D.g.f.f.D.D.D.S.s.u.e.e.Q r.w.X.] V V C N N N m m N N n v W T T q.q.u.y.g.V.S.Z.; #.xXxXxXcXvXvXxXaX6X6X",
"xXjXcXxXxXxXxXjXxX. 2 C.C.D.g.S.S.S.y.y.e.q.R L % 6 6 e z.R.m.m.R.R.R.R.R.R.R.R.E.B.~ ^ g Y R w.y.s.C.A.; $.xXxXcXcXcXcX0X0X6X9X",
"zXxXcXcXxXxXxXxXxX. 2 Z.Z.D.V.t.W H H A l l z Z t t n C x.m.m.m.m.I.I.I.I.I.I.I.I.l.w q 0 Z z R w.y.p.C.; #.xXxXcXcXcXcX0X0X@X6X",
"6X6X6XwX6X6X6X8X6X. 2 Z.V.f.g.W L L H z z y h J z.<.x.b.x.c.c.c.M.M.M.M.M.M.M.M.0.b.1.j.l.` G H q.e.t.A.; #.6X6X6X6X6X6X6X6X6X6X",
"6X6X6XwX6X6X6XwX6X  2 C.S.f.f.r.Y w.T w.Y % e c 6.6.x.5.<.5.5.5.c.c.c.c.c.c.8.0.8.M.M.M.M.C 8 p T q.r.N.; ..6X6X6X6X6X6X9X6X6X6X",
"jXxXjX0X0XxX0X0XzX. 2 C.S.g.a.T H R R R Q j.j.<.9.x.6.5.<.5.5.5.6.b.n.n.n.I.n.I.n.P.m.n.b.V h _ Q ! R Q - ..jXxXcXcXxXxXxXxXcXcX",
"xXxXjXxXxX0X0X0XiX. l C.V.D.s.W Y x j 9 u x.x.x.6.5.<.<.,.<.5.x.7.eXZXZXCXZXZXCXCXCXCXCXCXmXVXcX_ g E Y + | 0XxXcXxXxXxXxXcXcXxX",
"xXxXcXvXjXjX0X0XvX. 2 C.V.g.a.H A H ^ $ c x.M.5.<.<.:.<.1.1.<.z.z.eXKXKXHXHXJXJXHXJXKXKXJXHXHXBX0 @ } Q O | jXjXxXcXvXvXvXvXvXvX",
"xXxXvXcXjXjX0X0XvX. 2 C.a.S.g.Y z x g 6 m x.x.<.<.<.;.j.L.eXeXeXeXZXJXHXHXJXJXJXJXHXJXJXHXHXHXbXj p { U - } qXzXcXxXvXvXvXvXvXvX",
"xXjXxXxXxXxX0X0XxX. 2 C.V.f.s.R z x g e B :.>.>.-.M m B H.LXKXLXLXLXHXJXJXJXJXJXJXJXHXJXHXHXHXKXLXGX7 X , { 9X0XcXcXxXxXcXdXkXzX",
"jXjX0XxXxXxXxX0XdX  2 C.f.f.s.H z H p : -.-.-.B c n @.] %XKXKXKXLXKXJXLXHXHXJXHXHXJXJXDXHXHXHXHXKXGXX # - { 8XaXxXxXxXcXxXxXjX0X",
"6X8X6X6X6X6X6X6X8X  l V.f.a.s.H z H p : :.;.c t e h =XwXmXLXKXZXCXmXnXcXdXmXZXVXSXFXmXiXiXZXDXDXKXGXX # - / @X4X6X6X6X6XwX6X6X6X",
"6X6XwX6X8XwX6X6X6Xo 2 C.a.f.s.H z x 0 e -.v e 6 6 a &X=XiXDXFXwXnXiXqXiXiXBXnXmXdXmXdX;X-X;XdXmXKXGXX # # U #X5X6X6X6X6X8X6X6X6X",
"vXvXxX0XxX0XxXxXxX. 2 C.d.f.s.H z x 0 : M c 6 p }.}.=X&X=XwX;X&X&X&X+X*X*X=X=X=X=X-X-X%X&X|.H.$.7X7XX # = { 7XkXzXcXjXxXjXjX8X6X",
"vXvX0XxXxXxX0XxXxX. 2 C.a.s.p.x z W 7 : B c 8 p }.&X&X&X&X=X=X*XoX|.H.|.H.K.K.Z.K.K.K.K.K.H.G.=XkX8X@ 3 d { 8XdXxXcXzXdXjXjX8X2X",
"vXvXvXvXcXxXxXxXxX. 1 C.a.y.e.z z W 4 6 c 6 8 p ,X+X&X+X&X|.}.|.-X~.J.K.K._.~._.J.J.U.K.K.K.K.|.[.XX0 3 d { 8X0XvXvXcXcXcXxX@X6X",
"vXvXvXvXxXcXxXcXxX. 1 C.p.y.q.z | +.4 4 5 3 4 p }.}.+X}.<X}.8 r -XtXtXeXtXuXyXuXyXuXyXuX'.uX_.A.# # d j , { 0X0XvXvXcXcXvXxX6X8X",
"xXxXvXvXxXxXxX0XxX. 2 a.y.u.q.` O.O. . .O.p q ^ }.+X+X{.(  .i t K.tXK.F K.sXsXsXyXsXyXuX~.K._.H.# # U E O } 9X0X0XzXzXkXxXxX6X6X",
"xXcXvXvXxXxXxXxXcX. 2 C.y.e.q._ [.+X>X4X4X .~ ( [.[.}.O.3 y ] W._._.u 5 f yXsXsXsXyXyXW.* , tX!.X # F Y O | qXaX0XiXzXdXxXjX6X@X",
"6X6X6X6X6X6X6X6X6X. 2 p.p.q.q._ @.XX@X*X*X*.( ) 0 p @.N.b N.W.rXuXK.X $ G.yXsXsXsXsXyXW.% y tX~.& # F R O | 2X6XwX6X6X6X9X6X6X6X",
"9X6X6X6X6X6X6X6XwX. 2 a.y.q.R L 9 y d d y 0 5 8 @ : J./.F.L.W.rXuXK.* * ~.sXsXsXsXsXyX_.; y tX-X& # D Y O } 7X6X6X6X6X6X6X6X6X6X",
"xXkXxXxXxXzX0XjXjX. 1 p.e.q.T H y + * + + + + ; 6 y W.(.U.W.Q.yXyXrXK.G.uXpXfXfXfXfXfXuXN.A.yX_.= # D Q O } 9X0XcXcXvXxXxXxXjXjX",
"0XdXxXbXxXxXiXzXiXX 1 p.T q.R j = A P x x x I I c > S L J.W.W.yXyXrXrXuXyXfXfXfXgXfXfXfXrXuXsXeXg 0 } E O _ 9X0XxXcXvXvXxXjXjXjX",
"cXxXcXxXxXcXbXcXzX. < ! q.q.L X X U././.(./.Y.T.P.i.: y H.-X!.eXpXpXeXgXFXFX} ; , = .XKXCXfXfXeX-X[.( { O { 5X6XcXcXvXvXxXxXcXvX",
"xXcXxXcXcXxXcXcXaX. ; R Q w.Q + + U./././.)./././.u.% , H.&XoXdXFXKXDXJXHXHX} 6 7 * *XJXJXHXKXZXmXcX0 ^ = U 4X5XjXcXcXvXcXxXvXcX",
"xXxXxXcXxX0XjXkX0X. - ! = X < U.U.T.]./.]././././.].(.s.$.^.wXVXHXHXHXJXJXHX| y p h iXJXJXJXKXLXLXNX$ 5 7 0 5X4X5X9X9X0XjXjXxXxX",
"jXxXcXcX0XxXdX0X9X  - Q , . u T.Y.Y.].'.].`.`.`.'.'.].s.y y .XSXKXLXHXJXHXJXdXnXSXKXJXJXJXHXKXKXLXNX# 3 8 & 4X5X4X5X6X0X0XjXxXjX",
"8X6X6X6X6X6X5X@X.XX , D ..N.r.T.Y.Y.(.(.(.(.(.(.T.(.g.g.P G oX5XzXmXJXJXJXLXKXHXHXHXHXJXJXJXKXBXqX4X@ 6 b u g g  ..X#X@X4X5X6X6X",
"6X6X6X6X6X6X4X@X.Xy 7 * B.U.T.Y.Y././.(.(./.(.(.(.T.(./.T.N.G.*.2X6XJXJXJXJXHXJXJXJXHXJXJXKXKXaXH.{ & > z.K * @ _ .X.X#X@X4X5X6X",
"xXxXxXxX0XxX0X9X7X, 5 e i.Y.Y.Y.Y././.U.U.(.U.F.F.U.F.g.r.A _  .1X6XLXGXSXKXJXJXKXJXJXJXJXAXMXaX^.j & u 4.V k G ...X#X2X4X6X4X7X",
"xXxXxXxXdX0X0X6X4X0 7 r i.Y.).)././.Y.i.2.2.P P P P A + % * X 9 o.o.<X1X<X6XKXJXJXJXKXDXKX9X X%.j g @ c 1.i.g.F.D 0 = .X@X@X@X4X",
"xXcXxXxXbXbX9X8X5X0 r n P.Y.).).).).T.i.2.P K K K L a c -.-.m v % & OX>X<X1XGXJXJXKXDXwXAX9X:X X5 5 4 c 4.g.F.U.Z # * $X6XwX&.@X",
"cXcXxXxXbXcX9X6X7X0 c B.Y.Y.).).).U.i.3.3.P G n : * r :.6.9.9.x.v i  .[.>X>XVXDXDXDXnXH.dX%.o.{.8 8 8 n >.3.e.u.u r t D } #.*..X",
"xXjXxXxXdXjX9X2X5X0 n P.Y.Y.Y.).).B.2.K J G u * & $ : 1.9.v.v.6.>.t & O.OX+X8X8X6XwX#X*.*Xj X * s s 5 t c k c s J 4.4.4.k @ j .X",
"xXxXcXxXzXjX9X5X5X7 h P.Y.Y.Y.).).B.2.2.J G : & & & r :.9.v.v.9.5.k 5 %.OX}.<X8X6X6X#X.X>X/ X > B C 5 3 5 % e c 3.h.h.4.G @ d .X",
"wX6X8X8X6X7X@X.X.X7 n P.Y.Y.Y.).Y.T.B.B.G y & 0 +.[._ C 9.9.9.5.,.> $ 0 0 7 [.@X>X2X#.y h ] N m B B 8 p 0 8 6 s K 4.i.4.z & d .X",
"6X8X6X6X6X7X@X.X.X4 S J.T.Y./.Y.Y.T.T.D.u # X  .LXLX .c 7.6.7.,.I : 6 6 8 6 [.#X#X#X+.& 7 >.4.>.B B ' ,X{.^ 8 t S 4.4.4.N & g .X",
"xXxXjXjXjXqX8X<X4X= h L.T.Y.Y.Y.Y.T.T.L.G @ * _ PXPX( t j.:.-.M > e m m c s  . . .O.N.v k 1.7.1.M B @.8X3X%.g r t k.>.V n 3 j 5X",
"xXxXjXjXjXqX6X@X2X0 r N B.l.h.T.P.l.3.V : : c ' NXLXjXkX&.p 3 4 e c 5.6.c.x.c * & e z.c.8.7.0.>.m B ] ,X:X:X%.$ e V V c 8 7 / 6X",
"xXxXvXvX0X0X6X>X6X0 r V l.l.B.P.P.B.3.J : : -.m @.NXLXLXVXH.4 4 c :.5.6.6.P.X.E | L z.x.9.8.9.1.m v C G. X$X%.$ 5 t i e +.5X5X9X",
"xXcXvXcX0XqX9X@X6X0 r J 2.k.3.3.3.3.3.V : t :.1.;.|.VXGXxX@.4 4 6 > v v N FXDXDXDXDXgXK N B B m > > M -.M k e $ % 5 6 6 *.9X9XkX",
"kXdXxXxXxXjX6X4X5X0 e S ] k.k.k.k.k.3.J % : :.,.<.:.-.C y 8 3 5 8 q q q q ZX;X^.^.pXdXZ i ~ q q @ % v M M v a | #.#.#.%.#X2X6X8X",
"zX0XxXcXxX0X9X5X7X& & n ] ] J J ] ] V b u r t v M B -.m e 8 % % 5 4 q q 3 gX=.X # Z.tXh q q q q 3 5 e : % % / <X6X6X2X6X8X9X9X0X",
"6X6X6X6X6X7X5X@X.X0 y y u , u S J [ J J ' s 3 5 6 e > t e 8 8 5 8 q q q 5 gX$., = ^.tXy i ~ q q 4 4 ~ y 7 0 / .X.X.X#X@X*X4X5X6X",
"6XwX6XwX6X6X4X@X#XX y F = # u J J J J S J s i q 4 5 5 5 6 t t t c c v c > gXtX~.~.uX'.S c c c c 8 4 X.W + { .X.X#X@X4X4X5X5X6X6X",
"vXvXcXxXxXxX0X0X6X  ; Y 9 X a S b b [ J b b [ ~ 5 8 8 8 t -.,.,.,.,.5.<.1.yXtXuXuXsX_.x.5.x.<.<.t @ E T X { 7X9XqXzXzX0XiXiX8X8X",
"vXvX0XxXxXxXjX0XqX  ; E j = = * y b S b b b [ s 3 w ( ' ' k.j.4.x.b.b.n.b._._.L.K.W.W.b.b.b.b.l.' ( g g d U 9XaXzXdX0XxXzXjX2X8X",
"vXcXcXvXcXxXxXxX0X. , R T T y # y b b b b b b s 4 ^  X,X,XlXNXSXZXFXVXCXCXFXgX' ( &XVXGXGXGXGXCXVX1X@ 4 g { 9XqXbXvXvXcXcXcX8X6X",
"vXvXvXcXxXbXxXxXxX. < ! R q.j 0 p b ' b n a s i 4 ~ {. X,XlXNXPXKXKXLXLXLXLXBXp ~ >XPXPXPXLXLXLXLX3X4 ) d } 9XjXvXvXcXcXcXcX6X@X",
"jXjXvXvXcXxXxXxXzX. 1 p.e.q.e.A j 6 6 3 7 4 6 p p 0 ^ g g ^ / { O.o.#.#.#.#.| 5 i _ G.*.+.| |  .O.O.w w X | qX0XjXkXkXdXxXxX6X6X",
"jXjXvXvXxXxXxXxXdX. 2 p.y.e.q.z j # @ @ @ # 3 +.;X%.3 % : r r i 6 8 5 7 5 5 8 8 q i s r e : : @ w #.X.W O | qXaXjXdXzXxXxXjX@X6X",
"6XwX6X6X8X6X6XwX7X. 2 d.s.y.e.z D f y y y d f H w.Z 7 e v v m m v c $ 5 0 5 7 % 5 r m M M M k $ d w.T Y O | 7X7X6X6X6X6X6X6X8X6X",
"6X8X6X6XwX6X8X6X8X. 1 d.a.s.s.H z x q.q.q.q.q.q.q.Z 5 s J j.V V C r @ / MXzXMXg $ : J ] ] ] n $ d T T Q - | wX6X6X8X9X6X6X6X6X6X",
"jXjXcXxXxXzXzXiXzX. 2 C.a.a.s.Y H T w.q.q.q.q.q.R A 3 a H.!.!.-X|.7 4 / MXIXIX/ 5 y $.oX%X=X| $ y w.T Q + #.kXdXcXcXcXcXxXzXjXjX",
"jXxXxXcXjXcXiXzXiX. 2 C.d.f.f.W W e.y.y.y.u.q.q.q.F 5 a H.^.oX!.*X7 4 ( MXMXMXO.5 p ..H.oX#X#.7 f T T Q ; #.0XzXzXcXvXvXiXcXjXjX",
"xXxXcXxXxXxXcXvXcX. 2 C.f.g.g.W W N.V.s.s.y.e.q.T E 5 5 0 5 # @ 6 d zXzXMXIXIX{.7 7 & & & * 5 4 U T T Q + ..qX0XvXvXvXvXxXcXvXcX",
"xXcXxXcXxXcXvXcXzXo Z C.a.g.g.r.W y.S.S.g.y.e.q.R Y 4 7 4 4 3 7 $ 0 IXMXMXIXIX:X@ $ 7 @ & 7 5 @ E T T R - | qXqXvXvXvXvXcXxXvXvX",
"xXxXxXxXjXjXxXjXzXO 2 C.C.D.D.t.r.V.D.S.s.s.t.Q A...5 $ 3 3 5 5 7 7 bXbXzXzXBX2X$ $ 7 3 7 7 4 @ f A U Y + | aXjXjXjXjXjXjXjXjXjX",
"xXjXcXxXxXxXjXxXdX. 2 Z.C.g.S.Q P V.D.S.f.s.t.H.:X%.5 3 8 5 @ 5 7 7 2X2X2X2X2X X@ @ 7 7 3 @ 7 4 & & g XX| | 0X0XjXjXjXxXjXjXjXxX",
"6X6X6XwX6X6X6X6X7X. 2 C.s.f.S.r.L L H L H A z X.$...y 9 y y p y p p &.$.&.$.&.$.y 0 y y y y y d y y j $X| | 5X5X6X6X8XwX6XwX6X6X",
"6X6X6X8X6X6X9X6X8XO 1 !.!.!.!.H.A.G.$.A.G.=...X.{ ` ` F L } F ` ` E ` ` U L } U L } L } F } Y A.A.=.A.E - | 4X6X6X6X6X6X6X8X6X6X"
};
