/* XPM */
static char *result[] = {
/* columns rows colors chars-per-pixel */
"64 64 76 1 ",
"  c black",
". c #000101",
"X c #000B0B",
"o c #000E0E",
"O c #001111",
"+ c #001212",
"@ c #001313",
"# c #001516",
"$ c #001717",
"% c #001718",
"& c #001818",
"* c #001819",
"= c #001919",
"- c #001A1A",
"; c #001A1B",
": c #001B1C",
"> c #002222",
", c #002323",
"< c #002525",
"1 c #002727",
"2 c #00292A",
"3 c #002B2C",
"4 c #002D2D",
"5 c #1F2223",
"6 c #003031",
"7 c #003233",
"8 c #003333",
"9 c #003435",
"0 c #003838",
"q c #00393A",
"w c #003B3D",
"e c #003C3C",
"r c #003E3F",
"t c #003F3F",
"y c #363B3C",
"u c #004243",
"i c #004343",
"p c #004546",
"a c #004747",
"s c #004949",
"d c #00494A",
"f c #004B4C",
"g c #004C4E",
"h c #004F51",
"j c #005051",
"k c #005354",
"l c #005454",
"z c #005455",
"x c #005657",
"c c #005758",
"v c #00595A",
"b c #005A5B",
"n c #005B5B",
"m c #005B5C",
"M c #005C5D",
"N c #005D5E",
"B c #005E60",
"V c #005F60",
"C c #005F61",
"Z c #006061",
"A c #006162",
"S c #006263",
"D c #006365",
"F c #006465",
"G c #006566",
"H c #006769",
"J c #006869",
"K c #596162",
"L c #768082",
"P c #838E90",
"I c #8F9B9D",
"U c #9BA7AA",
"Y c #B1BFC1",
"T c #BBCACC",
"R c #C5D5D7",
"E c #D8E9EC",
/* pixels */
"mmBBnnVVmmmmvvvvvvxxvvvvVVVVxxiimmBBnnVVmmmmvvvvvvxxvvvvVVVVxxii",
"mmBBnnVVmmmmvvvvvvxxvvvvVVVVxxiimmBBnnVVmmmmvvvvvvxxvvvvVVVVxxii",
"SSmmHHVVVVVVVVxxxxxxxxVVZZHHSSiiSSmmHHVVVVVVVVxxxxxxxxVVZZHHSSii",
"SSmmHHVVVVVVVVxxxxxxxxVVZZHHSSiiSSmmHHVVVVVVVVxxxxxxxxVVZZHHSSii",
"mmVVMMmmmmmmVVVVxxmmmmmmZZAAxxiimmVVMMmmmmmmVVVVxxmmmmmmZZAAxxii",
"mmVVMMmmmmmmVVVVxxmmmmmmZZAAxxiimmVVMMmmmmmmVVVVxxmmmmmmZZAAxxii",
"ssssssssssssssssssssssssssssssssssssssssssssssssssssssssssssssss",
"ssssssssssssssssssssssssssssssssssssssssssssssssssssssssssssssss",
"mmvvvvxxvviimmmmmmmmmmmmVVNNCCCCmmvvvvxxvviimmmmmmmmmmmmVVNNCCCC",
"mmvvvvxxvviimmmmmmmmmmmmVVNNCCCCmmvvvvxxvviimmmmmmmmmmmmVVNNCCCC",
"VVDDvvxxSSiixxVVVVVVVVVVVVGGHHJJVVDDvvxxSSiixxVVVVVVVVVVVVGGHHJJ",
"VVDDvvxxSSiixxVVVVVVVVVVVVGGHHJJVVDDvvxxSSiixxVVVVVVVVVVVVGGHHJJ",
"vvmmmmvvmmiiVVVVVVmmmmmmZZmmvvccvvmmmmvvmmiiVVVVVVmmmmmmZZmmvvcc",
"vvmmmmvvmmiiVVVVVVmmmmmmZZmmvvccvvmmmmvvmmiiVVVVVVmmmmmmZZmmvvcc",
"sssssseO                     O0sssssssssssssssssssssssssssssssss",
"sssssaX                        0ssssssssssssssssssssssssssssssss",
"JJvvmu KEEEEEEEEEEEEEEEEEEEEEP ,JJvvmmmmmmVVmmmmmmVVNNCCCCmmvvii",
"JJvvmu KEEEEEEEEEEEEEEEEEEEEEP ,JJvvmmmmmmVVmmmmmmVVNNCCCCmmvvii",
"DDkw77 KEEEEEEEEEEEEEEEEEEEEEP ,99gDVVVVVVVVVVmmVVVVGGmmJJVVDDii",
"Dk.    KEEEEEEEEEEEEEEEEEEEEEP     gVVVVVVVVVVmmVVVVGGmmJJVVDDii",
"v4 LPPPUEEEEPPPPPPPPPPPPPREEEYPPPP *mmmmmmZZmmmmmmZZmmvvccvvmmii",
"v% YEEEEEEEE             YEEEEEEEE  mmmmmmZZmmmmmmZZmmvvccvvmmii",
"s@ YEEEEEEEE  111111111@ YEEEEEEEE  ssssssssssssssssssssssssssss",
"s@ YEEEEEEEE  sssss=     YEEEEEEEE  ssssssssssssssssssssssssssss",
"v% YEEEEEEEE  vvvvj 5KKKKTEEEEEEEE  mmvvvviizzvvvvxxvvvvCCCCmmvv",
"v% YEEEEEEEE  vvvvt KEEEEEEEEEEEEE  mmvvvviizzvvvvxxvvvvCCCCmmvv",
"V= YEEEEEEEE  FFxxt KEEEEEEEEEEEEE  VVDDVViibbFFxxxxxxxxHHJJVVDD",
"V= YEEEEEEEE  Fl3$$ KEEEEEEEEEEEEE  VVDDVViibbFFxxxxxxxxHHJJVVDD",
"m& YEEEEEEEE  h.    KEEEEEEEEEEEEE  vvmmmmiixxCCNNvvxxmmvvccvvmm",
"m& YEEEEEEEE  q LYYYTEEEEEEEEEEEEE  vvmmmmiixxCCNNvvxxmmvvccvvmm",
"s@ YEEEEEEEE  1 PEEEEEEEEEEEEEEEEE  ssssssssssssssssssssssssssss",
"s@ YEEEEEEEE  1 PEEEEEEEEEEEEEEEEE  ssssssssssssssssssssssssssss",
"m& YEEEEEEEE    PEEEEEEEEEEEEEEEEE  nnVVmmmmvvvvvvxxvvvvVVVVxxii",
"m& YEEEEEEEEPPPPYEEERPPPPREEEEEEEE  nnVVmmmmvvvvvvxxvvvvVVVVxxii",
"S- YEEEEEEEEEEEEEEEEY    YEEEEEEEE  HHVVVVVVVVxxxxxxxxVVZZHHSSii",
"S- YEEEEEEEEEEEEEEEEY == YEEEEEEEE  HHVVVVVVVVxxxxxxxxVVZZHHSSii",
"m& YEEEEEEEEEEEEEEEEY && YEEEEEEEE  MMmmmmmmVVVVxxmmmmmmZZAAxxii",
"m& YEEEEEEEEEEEEEEEEY && YEEEEEEEE  MMmmmmmmVVVVxxmmmmmmZZAAxxii",
"s@ YEEEEEEEEEEEEP     <@ YEEEEEEEE  ssssssssssssssssssssssssssss",
"s@ YEEEEEEEEEEEEP   O<s@ YEEEEEEEE  ssssssssssssssssssssssssssss",
"m& YEEEEEEEEEEEEP 6mmmm& YEEEEEEEE  vvxxvviimmmmmmmmmmmmVVNNCCCC",
"m& YEEEEEEEEEEEEP 6mmmm& YEEEEEEEE  vvxxvviimmmmmmmmmmmmVVNNCCCC",
"V= YEEEEEEEEKKKKy dVVVV= YEEEEEEEE  vvxxSSiixxVVVVVVVVVVVVGGHHJJ",
"V= YEEEEEEEE     ;VVVVV= YEEEEEEEE  vvxxSSiixxVVVVVVVVVVVVGGHHJJ",
"v% YEEEEEEEE  ppppuuuuu& YEEEEEEEE  mmvvmmiiVVVVVVmmmmmmZZmmvvcc",
"v% YEEEEEEEE             YEEEEEEEE  mmvvmmiiVVVVVVmmmmmmZZmmvvcc",
"s> IYYYTEEEEKKKKKKKKKKKKKTEEERYYYY Ossssssssssssssssssssssssssss",
"s8     KEEEEEEEEEEEEEEEEEEEEEP     <ssssssssssssssssssssssssssss",
"JJr2&& KEEEEEEEEEEEEEEEEEEEEEP +::4vmmmmmmVVmmmmmmVVNNCCCCmmvvii",
"JJvvmu KEEEEEEEEEEEEEEEEEEEEEP ,JJvvmmmmmmVVmmmmmmVVNNCCCCmmvvii",
"DDDDVp KEEEEEEEEEEEEEEEEEEEEEP ,DDDDVVVVVVVVVVmmVVVVGGmmJJVVDDii",
"DDDDVMo                        8DDDDVVVVVVVVVVmmVVVVGGmmJJVVDDii",
"vvJJmmf#                     #8ivvJJmmmmmmZZmmmmmmZZmmvvccvvmmii",
"vvJJmmmmmmZZmmmmmmZZmmvvccvvmmiivvJJmmmmmmZZmmmmmmZZmmvvccvvmmii",
"ssssssssssssssssssssssssssssssssssssssssssssssssssssssssssssssss",
"ssssssssssssssssssssssssssssssssssssssssssssssssssssssssssssssss",
"vvVVmmvvvviizzvvvvxxvvvvCCCCmmvvvvVVmmvvvviizzvvvvxxvvvvCCCCmmvv",
"vvVVmmvvvviizzvvvvxxvvvvCCCCmmvvvvVVmmvvvviizzvvvvxxvvvvCCCCmmvv",
"VVVVVVDDVViibbFFxxxxxxxxHHJJVVDDVVVVVVDDVViibbFFxxxxxxxxHHJJVVDD",
"VVVVVVDDVViibbFFxxxxxxxxHHJJVVDDVVVVVVDDVViibbFFxxxxxxxxHHJJVVDD",
"mmVVvvmmmmiixxCCNNvvxxmmvvccvvmmmmVVvvmmmmiixxCCNNvvxxmmvvccvvmm",
"mmVVvvmmmmiixxCCNNvvxxmmvvccvvmmmmVVvvmmmmiixxCCNNvvxxmmvvccvvmm",
"ssssssssssssssssssssssssssssssssssssssssssssssssssssssssssssssss",
"ssssssssssssssssssssssssssssssssssssssssssssssssssssssssssssssss"
};
