/* XPM */
static char *result[] = {
/* columns rows colors chars-per-pixel */
"64 64 67 1 ",
"  c black",
". c #000101",
"X c #000B0B",
"o c #001111",
"O c #001212",
"+ c #001313",
"@ c #001515",
"# c #001516",
"$ c #001718",
"% c #001818",
"& c #001919",
"* c #001A1B",
"= c #002525",
"- c #002727",
"; c #00292A",
": c #002C2C",
"> c #002D2D",
", c #002E2E",
"< c #002E2F",
"1 c #002F30",
"2 c #003030",
"3 c #003131",
"4 c #003233",
"5 c #003333",
"6 c #003535",
"7 c #003738",
"8 c #003838",
"9 c #00393A",
"0 c #003C3C",
"q c #003E3F",
"w c #004243",
"e c #004343",
"r c #004546",
"t c #004647",
"y c #004747",
"u c #004949",
"i c #00494A",
"p c #004F50",
"a c #005455",
"s c #005657",
"d c #005758",
"f c #00595A",
"g c #005A5B",
"h c #005B5B",
"j c #005B5C",
"k c #005C5D",
"l c #005D5E",
"z c #005E60",
"x c #005F60",
"c c #005F61",
"v c #006061",
"b c #006162",
"n c #006263",
"m c #006365",
"M c #006465",
"N c #006566",
"B c #006769",
"V c #006869",
"C c #494F51",
"Z c #596162",
"A c #768082",
"S c #838E90",
"D c #8F9B9D",
"F c #9BA7AA",
"G c #B1BFC1",
"H c #BBCACC",
"J c #D8E9EC",
/* pixels */
"jjzzhhxxjjjjffffffssffffxxxxsseejjzzhhxxjjjjffffffssffffxxxxssee",
"jjzzhhxxjjjjffffffssffffxxxxsseejjzzhhxxjjjjffffffssffffxxxxssee",
"nnjjBBxxxxxxxxssssssssxxvvBBnneennjjBBxxxxxxxxssssssssxxvvBBnnee",
"nnjjBBxxxxxxxxssssssssxxvvBBnneennjjBBxxxxxxxxssssssssxxvvBBnnee",
"jjxxkkjjjjjjxxxxssjjjjjjvvbbsseejjxxkkjjjjjjxxxxssjjjjjjvvbbssee",
"jjxxkkjjjjjjxxxxssjjjjjjvvbbsseejjxxkkjjjjjjxxxxssjjjjjjvvbbssee",
"uuuuuuuuuuuuuuuuuuuuuuuuuuuuuuuuuuuuuuuuuuuuuuuuuuuuuuuuuuuuuuuu",
"uuuuuuuuuuuuuuuuuuuuuuuuuuuuuuuuuuuuuuuuuuuuuuuuuuuuuuuuuuuuuuuu",
"jjffffssffeejjjjjjjjjjjjxxllccccjjffffssffeejjjjjjjjjjjjxxllcccc",
"jjffffssffeejjjjjjjjjjjjxxllccccjjffffssffeejjjjjjjjjjjjxxllcccc",
"xxmmffssnneessxxxxxxxxxxxxNNBBVVxxmmffssnneessxxxxxxxxxxxxNNBBVV",
"xxmmffssnneessxxxxxxxxxxxxNNBBVVxxmmffssnneessxxxxxxxxxxxxNNBBVV",
"ffjjjjffjjeexxxxxxjjjjjjvvjjffddffjjjjffjjeexxxxxxjjjjjjvvjjffdd",
"ffjjjjffjjeexxxxxxjjjjjjvvjjffddffjjjjffjjeexxxxxxjjjjjjvvjjffdd",
"uuuuuuuuuuuu0o        o8uuuuuuuuuuuuuuuuuuuuuuuuuuuuuuuuuuuuuuuu",
"uuuuuuuuuuuyX           8uuuuuuuuuuuuuuuuuuuuuuuuuuuuuuuuuuuuuuu",
"VVffjjjjjjxr ZJJJJJJJJS 4cjjffeeVVffjjjjjjxxjjjjjjxxllccccjjffee",
"VVffjjjjjjxr ZJJJJJJJJS 4cjjffeeVVffjjjjjjxxjjjjjjxxllccccjjffee",
"mmmmxxxxp944 ZJJJJJJJJS 7VxxmmeemmmmxxxxxxxxxxjjxxxxNNjjVVxxmmee",
"mmmmxxxp.    ZJJJJJJJJS 7VxxmmeemmmmxxxxxxxxxxjjxxxxNNjjVVxxmmee",
"ffVVjjj, ASSSFJJJJJJJJS <dffjjeeffVVjjjjjjvvjjjjjjvvjjffddffjjee",
"ffVVjjj% GJJJJJJJJJJJJS <dffjjeeffVVjjjjjjvvjjjjjjvvjjffddffjjee",
"uuuuuuu+ GJJJJJJJJJJJJS -uuuuuuuuuuuuuuuuuuuuuuuuuuuuuuuuuuuuuuu",
"uuuuuuu+ GJJJJJJJJJJJJS -uuuuuuuuuuuuuuuuuuuuuuuuuuuuuuuuuuuuuuu",
"ffxxjjf; DGGGHJJJJJJJJS 4cccjjffffxxjjffffeeaaffffssffffccccjjff",
"ffxxjjfq     ZJJJJJJJJS 4cccjjffffxxjjffffeeaaffffssffffccccjjff",
"xxxxxxmme:OO ZJJJJJJJJS 7BVVxxmmxxxxxxmmxxeeggMMssssssssBBVVxxmm",
"xxxxxxmmxxe3 ZJJJJJJJJS 7BVVxxmmxxxxxxmmxxeeggMMssssssssBBVVxxmm",
"jjxxffjjjje3 ZJJJJJJJJS 1fddffjjjjxxffjjjjeessccllffssjjffddffjj",
"jjxxffjjjje3 ZJJJJJJJJS 1fddffjjjjxxffjjjjeessccllffssjjffddffjj",
"uuuuuuuuuuu6 ZJJJJJJJJS -uuuuuuuuuuuuuuuuuuuuuuuuuuuuuuuuuuuuuuu",
"uuuuuuuuuuu6 ZJJJJJJJJS -uuuuuuuuuuuuuuuuuuuuuuuuuuuuuuuuuuuuuuu",
"jjzzhhxxjjjw ZJJJJJJJJS 4xxxsseejjzzhhxxjjjjffffffssffffxxxxssee",
"jjzzhhxxjjjw ZJJJJJJJJS 4xxxsseejjzzhhxxjjjjffffffssffffxxxxssee",
"nnjjBBxxxxxr ZJJJJJJJJS 5vBBnneennjjBBxxxxxxxxssssssssxxvvBBnnee",
"nnjjBBxxxxxr ZJJJJJJJJS 5vBBnneennjjBBxxxxxxxxssssssssxxvvBBnnee",
"jjxxkkjjjjjw ZJJJJJJJJS 5vbbsseejjxxkkjjjjjjxxxxssjjjjjjvvbbssee",
"jjxxkkjjjjjw ZJJJJJJJJS 5vbbsseejjxxkkjjjjjjxxxxssjjjjjjvvbbssee",
"uuuuuuuuuuu6 ZJJJJJJJJS -uuuuuuuuuuuuuuuuuuuuuuuuuuuuuuuuuuuuuuu",
"uuuuuuuuuuu6 ZJJJJJJJJS -uuuuuuuuuuuuuuuuuuuuuuuuuuuuuuuuuuuuuuu",
"jjffffssffe3 ZJJJJJJJJS 4xllccccjjffffssffeejjjjjjjjjjjjxxllcccc",
"jjffffssffe3 ZJJJJJJJJS 4xllccccjjffffssffeejjjjjjjjjjjjxxllcccc",
"xxmmffssnne3 ZJJJJJJJJS 4xNNBBVVxxmmffssnneessxxxxxxxxxxxxNNBBVV",
"xxmmffssnne3 ZJJJJJJJJS 4xNNBBVVxxmmffssnneessxxxxxxxxxxxxNNBBVV",
"ffjjjjffji33 ZJJJJJJJJS 5tijffddffjjjjffjjeexxxxxxjjjjjjvvjjffdd",
"ffjjjjff+    ZJJJJJJJJS    +ffddffjjjjffjjeexxxxxxjjjjjjvvjjffdd",
"uuuuuuu= CZZZSJJJJJJJJFZZZC =uuuuuuuuuuuuuuuuuuuuuuuuuuuuuuuuuuu",
"uuuuuuu+ GJJJJJJJJJJJJJJJJG +uuuuuuuuuuuuuuuuuuuuuuuuuuuuuuuuuuu",
"VVffjjj% GJJJJJJJJJJJJJJJJG $feeVVffjjjjjjxxjjjjjjxxllccccjjffee",
"VVffjjj% GJJJJJJJJJJJJJJJJG $feeVVffjjjjjjxxjjjjjjxxllccccjjffee",
"mmmmxxx& GJJJJJJJJJJJJJJJJG *meemmmmxxxxxxxxxxjjxxxxNNjjVVxxmmee",
"mmmmxxx2                    4meemmmmxxxxxxxxxxjjxxxxNNjjVVxxmmee",
"ffVVjjjj,#                @>jjeeffVVjjjjjjvvjjjjjjvvjjffddffjjee",
"ffVVjjjjjjvvjjjjjjvvjjffddffjjeeffVVjjjjjjvvjjjjjjvvjjffddffjjee",
"uuuuuuuuuuuuuuuuuuuuuuuuuuuuuuuuuuuuuuuuuuuuuuuuuuuuuuuuuuuuuuuu",
"uuuuuuuuuuuuuuuuuuuuuuuuuuuuuuuuuuuuuuuuuuuuuuuuuuuuuuuuuuuuuuuu",
"ffxxjjffffeeaaffffssffffccccjjffffxxjjffffeeaaffffssffffccccjjff",
"ffxxjjffffeeaaffffssffffccccjjffffxxjjffffeeaaffffssffffccccjjff",
"xxxxxxmmxxeeggMMssssssssBBVVxxmmxxxxxxmmxxeeggMMssssssssBBVVxxmm",
"xxxxxxmmxxeeggMMssssssssBBVVxxmmxxxxxxmmxxeeggMMssssssssBBVVxxmm",
"jjxxffjjjjeessccllffssjjffddffjjjjxxffjjjjeessccllffssjjffddffjj",
"jjxxffjjjjeessccllffssjjffddffjjjjxxffjjjjeessccllffssjjffddffjj",
"uuuuuuuuuuuuuuuuuuuuuuuuuuuuuuuuuuuuuuuuuuuuuuuuuuuuuuuuuuuuuuuu",
"uuuuuuuuuuuuuuuuuuuuuuuuuuuuuuuuuuuuuuuuuuuuuuuuuuuuuuuuuuuuuuuu"
};
