/* XPM */
static char *result[] = {
/* columns rows colors chars-per-pixel */
"64 64 79 1 ",
"  c black",
". c #000101",
"X c #000A0A",
"o c #000B0B",
"O c #001111",
"+ c #001212",
"@ c #001313",
"# c #001414",
"$ c #001617",
"% c #001717",
"& c #001718",
"* c #001818",
"= c #001819",
"- c #001919",
"; c #001A1A",
": c #001A1B",
"> c #001B1C",
", c #002323",
"< c #002727",
"1 c #00292A",
"2 c #002A2B",
"3 c #002C2C",
"4 c #002D2D",
"5 c #002D2E",
"6 c #002E2E",
"7 c #003131",
"8 c #003233",
"9 c #003333",
"0 c #003434",
"q c #003435",
"w c #003535",
"e c #003738",
"r c #003838",
"t c #003B3D",
"y c #003C3C",
"u c #003D3D",
"i c #003E3F",
"p c #004041",
"a c #004141",
"s c #004243",
"d c #004343",
"f c #004546",
"g c #004747",
"h c #004748",
"j c #004949",
"k c #004C4D",
"l c #004C4E",
"z c #005354",
"x c #005455",
"c c #005657",
"v c #005758",
"b c #00595A",
"n c #005A5B",
"m c #005B5B",
"M c #005B5C",
"N c #005C5D",
"B c #005D5E",
"V c #005E60",
"C c #005F60",
"Z c #005F61",
"A c #006061",
"S c #006162",
"D c #006263",
"F c #006365",
"G c #006465",
"H c #006566",
"J c #006769",
"K c #006869",
"L c #494F51",
"P c #596162",
"I c #768082",
"U c #838E90",
"Y c #8F9B9D",
"T c #9BA7AA",
"R c #B1BFC1",
"E c #BBCACC",
"W c #C5D5D7",
"Q c #CFDFE2",
"! c #D8E9EC",
/* pixels */
"MMVVmmCCMMMMbbbbbbccbbbbCCCCccddMMVVmmCCMMMMbbbbbbccbbbbCCCCccdd",
"MMVVmmCCMMMMbbbbbbccbbbbCCCCccddMMVVmmCCMMMMbbbbbbccbbbbCCCCccdd",
"DDMMJJCCCCCCCCccccccccCCAAJJDDddDDMMJJCCCCCCCCccccccccCCAAJJDDdd",
"DDMMJJCCCCCCCCccccccccCCAAJJDDddDDMMJJCCCCCCCCccccccccCCAAJJDDdd",
"MMCCNNMMMMMMCCCCccMMMMMMAASSccddMMCCNNMMMMMMCCCCccMMMMMMAASSccdd",
"MMCCNNMMMMMMCCCCccMMMMMMAASSccddMMCCNNMMMMMMCCCCccMMMMMMAASSccdd",
"jjjjjjjjjjjjjjjjjjjjjjjjjjjjjjjjjjjjjjjjjjjjjjjjjjjjjjjjjjjjjjjj",
"jjjjjjjjjjjjjjjjjjjjjjjjjjjjjjjjjjjjjjjjjjjjjjjjjjjjjjjjjjjjjjjj",
"MMbbbbccbbddMMMMMMMMMMMMCCBBZZZZMMbbbbccbbddMMMMMMMMMMMMCCBBZZZZ",
"MMbbbbccbbddMMMMMMMMMMMMCCBBZZZZMMbbbbccbbddMMMMMMMMMMMMCCBBZZZZ",
"CCFFbbccDDddccCCCCCCCCCCCCHHJJKKCCFFbbccDDddccCCCCCCCCCCCCHHJJKK",
"CCFFbbccDDddccCCCCCCCCCCCCHHJJKKCCFFbbccDDddccCCCCCCCCCCCCHHJJKK",
"bbMMMMbbMMddCCCCCCMMMMMMAAMMbbvvbbMMMMbbMMddCCCCCCMMMMMMAAMMbbvv",
"bbMMMMbbMMddCCCCCCMMMMMMAAMMbbvvbbMMMMbbMMddCCCCCCMMMMMMAAMMbbvv",
"jjjjjjyO                     Orjjjjjjjjjjjjjjjjjjjjjjjjjjjjjjjjj",
"jjjjjgo                        rjjjjjjjjjjjjjjjjjjjjjjjjjjjjjjjj",
"KKbbMs P!!!!!!!!!!!!!!!!!!!!!U ,KKbbMMMMMMCCMMMMMMCCBBZZZZMMbbdd",
"KKbbMs P!!!!!!!!!!!!!!!!!!!!!U ,KKbbMMMMMMCCMMMMMMCCBBZZZZMMbbdd",
"FFzt88 P!!!!!!!!!!!!!!!!!!!!!U ,qqlFCCCCCCCCCCMMCCCCHHMMKKCCFFdd",
"Fz.    P!!!!!!!!!!!!!!!!!!!!!U     lCCCCCCCCCCMMCCCCHHMMKKCCFFdd",
"b4 IUUUT!!!!UUUUUUUUUUUUUW!!!RUUUU =MMMMMMAAMMMMMMAAMMbbvvbbMMdd",
"b& R!!!!!!!!             R!!!!!!!!  MMMMMMAAMMMMMMAAMMbbvvbbMMdd",
"j@ R!!!!!!!!  <<<<<<<<<@ R!!!!!!!!  jjjjjjjjjjjjjjjjjjjjjjjjjjjj",
"j@ R!!!!!!!!  jjjjjjjjj@ R!!!!!!!!  jjjjjjjjjjjjjjjjjjjjjjjjjjjj",
"b1 YRRRRRRRR #bbbbccbbb& R!!!!!!!!  MMbbbbddxxbbbbccbbbbZZZZMMbb",
"bi           2bbbbccbbb& R!!!!!!!!  MMbbbbddxxbbbbccbbbbZZZZMMbb",
"CCd3--::--++5nGGccccccc% R!!!!!!!!  CCFFCCddnnGGccccccccJJKKCCFF",
"CCCCCCF8--++**::%%%%%%%% R!!!!!!!!  CCFFCCddnnGGccccccccJJKKCCFF",
"MMCCbb@                  R!!!!!!!!  bbMMMMddccZZBBbbccMMbbvvbbMM",
"MMCCbh LRRRRRRRRRRRRRRRRRQ!!!TPPPP $bbMMMMddccZZBBbbccMMbbvvbbMM",
"jjjjjw P!!!!!!!!!!!!!!!!!!!!!U    oyjjjjjjjjjjjjjjjjjjjjjjjjjjjj",
"jju3<< P!!!!!!!!!!!!!!!!!!!!!U <wwgjjjjjjjjjjjjjjjjjjjjjjjjjjjjj",
"Mk.    P!!!!!!!!!!!!!!!!!!!!!U ,MMVVmmCCMMMMbbbbbbccbbbbCCCCccdd",
"M6 IUUUT!!!!UUUUUUUUUUUUUUUUUP 7MMVVmmCCMMMMbbbbbbccbbbbCCCCccdd",
"D; R!!!!!!!!                  XaDDMMJJCCCCCCCCccccccccCCAAJJDDdd",
"D; R!!!!!!!!  666666668899ee0hadDDMMJJCCCCCCCCccccccccCCAAJJDDdd",
"M* R!!!!!!!!  CCccMMMMMMAASSccddMMCCNNMMMMMMCCCCccMMMMMMAASSccdd",
"M* R!!!!!!!!  CCccMMMMMMAASSccddMMCCNNMMMMMMCCCCccMMMMMMAASSccdd",
"j@ R!!!!!!!!  jjjjjjjjjjjjjjjjjjjjjjjjjjjjjjjjjjjjjjjjjjjjjjjjjj",
"j@ R!!!!!!!!  jjjjjjjjjjjjjjjjjjjjjjjjjjjjjjjjjjjjjjjjjjjjjjjjjj",
"M* R!!!!!!!!  MMMMMMMMMMd3==----**4bbbccbbddMMMMMMMMMMMMCCBBZZZZ",
"M* R!!!!!!!!  MMMMMMMMMp           4bbccbbddMMMMMMMMMMMMCCBBZZZZ",
"C- R!!!!!!!!  CCCCCCCCC3 YRRRRRRRR &bbccDDddccCCCCCCCCCCCCHHJJKK",
"C- R!!!!!!!!  CCCCCCCCC- R!!!!!!!!  bbccDDddccCCCCCCCCCCCCHHJJKK",
"b& R!!!!!!!!  ffffsssss* R!!!!!!!!  MMbbMMddCCCCCCMMMMMMAAMMbbvv",
"b& R!!!!!!!!             R!!!!!!!!  MMbbMMddCCCCCCMMMMMMAAMMbbvv",
"j@ R!!!!!!!!PPPPPPPPPPPPPE!!!!!!!!  jjjjjjjjjjjjjjjjjjjjjjjjjjjj",
"j@ R!!!!!!!!!!!!!!!!!!!!!!!!!!!!!!  jjjjjjjjjjjjjjjjjjjjjjjjjjjj",
"K> R!!!!!!!!!!!!!!!!!!!!!!!!!!!!!!  MMMMMMCCMMMMMMCCBBZZZZMMbbdd",
"K> R!!!!!!!!!!!!!!!!!!!!!!!!!!!!!!  MMMMMMCCMMMMMMCCBBZZZZMMbbdd",
"F: R!!!!!!!!!!!!!!!!!!!!!!!!!!!!!!  CCCCCCCCCCMMCCCCHHMMKKCCFFdd",
"F8                                 &CCCCCCCCCCMMCCCCHHMMKKCCFFdd",
"bbq=                              =cMMMMMMAAMMMMMMAAMMbbvvbbMMdd",
"bbKKMMMMMMAAMMMMMMAAMMbbvvbbMMddbbKKMMMMMMAAMMMMMMAAMMbbvvbbMMdd",
"jjjjjjjjjjjjjjjjjjjjjjjjjjjjjjjjjjjjjjjjjjjjjjjjjjjjjjjjjjjjjjjj",
"jjjjjjjjjjjjjjjjjjjjjjjjjjjjjjjjjjjjjjjjjjjjjjjjjjjjjjjjjjjjjjjj",
"bbCCMMbbbbddxxbbbbccbbbbZZZZMMbbbbCCMMbbbbddxxbbbbccbbbbZZZZMMbb",
"bbCCMMbbbbddxxbbbbccbbbbZZZZMMbbbbCCMMbbbbddxxbbbbccbbbbZZZZMMbb",
"CCCCCCFFCCddnnGGccccccccJJKKCCFFCCCCCCFFCCddnnGGccccccccJJKKCCFF",
"CCCCCCFFCCddnnGGccccccccJJKKCCFFCCCCCCFFCCddnnGGccccccccJJKKCCFF",
"MMCCbbMMMMddccZZBBbbccMMbbvvbbMMMMCCbbMMMMddccZZBBbbccMMbbvvbbMM",
"MMCCbbMMMMddccZZBBbbccMMbbvvbbMMMMCCbbMMMMddccZZBBbbccMMbbvvbbMM",
"jjjjjjjjjjjjjjjjjjjjjjjjjjjjjjjjjjjjjjjjjjjjjjjjjjjjjjjjjjjjjjjj",
"jjjjjjjjjjjjjjjjjjjjjjjjjjjjjjjjjjjjjjjjjjjjjjjjjjjjjjjjjjjjjjjj"
};
