/* XPM */
static char *result[] = {
/* columns rows colors chars-per-pixel */
"64 64 79 1 ",
"  c black",
". c #000101",
"X c #000E0E",
"o c #001010",
"O c #001111",
"+ c #001212",
"@ c #001313",
"# c #001414",
"$ c #001516",
"% c #001617",
"& c #001717",
"* c #001718",
"= c #001818",
"- c #001819",
"; c #001919",
": c #001A1B",
"> c #001B1C",
", c #002222",
"< c #002323",
"1 c #002525",
"2 c #002727",
"3 c #00292A",
"4 c #002C2C",
"5 c #002D2D",
"6 c #002E2E",
"7 c #002F30",
"8 c #003030",
"9 c #003233",
"0 c #003333",
"q c #003535",
"w c #003536",
"e c #003737",
"r c #003838",
"t c #003C3C",
"y c #003D3D",
"u c #003E3F",
"i c #363B3C",
"p c #004041",
"a c #004243",
"s c #004343",
"d c #004445",
"f c #004546",
"g c #004949",
"h c #00484A",
"j c #00494A",
"k c #004A4B",
"l c #004B4C",
"z c #004C4D",
"x c #005051",
"c c #005354",
"v c #005455",
"b c #005657",
"n c #005758",
"m c #00595A",
"M c #005A5B",
"N c #005B5B",
"B c #005B5C",
"V c #005C5D",
"C c #005D5E",
"Z c #005E60",
"A c #005F60",
"S c #005F61",
"D c #006061",
"F c #006162",
"G c #006263",
"H c #006365",
"J c #006465",
"K c #006566",
"L c #006769",
"P c #006869",
"I c #596162",
"U c #768082",
"Y c #838E90",
"T c #8F9B9D",
"R c #9BA7AA",
"E c #B1BFC1",
"W c #BBCACC",
"Q c #C5D5D7",
"! c #D8E9EC",
/* pixels */
"BBZZNNAABBBBmmmmmmbbmmmmAAAAbbssBBZZNNAABBBBmmmmmmbbmmmmAAAAbbss",
"BBZZNNAABBBBmmmmmmbbmmmmAAAAbbssBBZZNNAABBBBmmmmmmbbmmmmAAAAbbss",
"GGBBLLAAAAAAAAbbbbbbbbAADDLLGGssGGBBLLAAAAAAAAbbbbbbbbAADDLLGGss",
"GGBBLLAAAAAAAAbbbbbbbbAADDLLGGssGGBBLLAAAAAAAAbbbbbbbbAADDLLGGss",
"BBAAVVBBBBBBAAAAbbBBBBBBDDFFbbssBBAAVVBBBBBBAAAAbbBBBBBBDDFFbbss",
"BBAAVVBBBBBBAAAAbbBBBBBBDDFFbbssBBAAVVBBBBBBAAAAbbBBBBBBDDFFbbss",
"gggggggggggggggggggggggggggggggggggggggggggggggggggggggggggggggg",
"gggggggggggggggggggggggggggggggggggggggggggggggggggggggggggggggg",
"BBmmmmbbmmssBBBBBBBBBBBBAACCSSSSBBmmmmbbmmssBBBBBBBBBBBBAACCSSSS",
"BBmmmmbbmmssBBBBBBBBBBBBAACCSSSSBBmmmmbbmmssBBBBBBBBBBBBAACCSSSS",
"AAHHmmbbGGssbbAAAAAAAAAAAAKKLLPPAAHHmmbbGGssbbAAAAAAAAAAAAKKLLPP",
"AAHHmmbbGGssbbAAAAAAAAAAAAKKLLPPAAHHmmbbGGssbbAAAAAAAAAAAAKKLLPP",
"mmBBBBmmBBssAAAAAABBBBBBDDBBmmnnmmBBBBmmBBssAAAAAABBBBBBDDBBmmnn",
"mmBBBBmmBBssAAAAAABBBBBBDDBBmmnnmmBBBBmmBBssAAAAAABBBBBBDDBBmmnn",
"gg1O                              Otgggggggggggggggggggggggggggg",
"g1                                 Ogggggggggggggggggggggggggggg",
"P> E!!!!!!!!!!!!!!!!!!!!!!!!!!!!!!  BBBBBBAABBBBBBAACCSSSSBBmmss",
"P> E!!!!!!!!!!!!!!!!!!!!!!!!!!!!!!  BBBBBBAABBBBBBAACCSSSSBBmmss",
"H: E!!!!!!!!!!!!!!!!!!!!!!!!!!!!!!  AAAAAAAAAABBAAAAKKBBPPAAHHss",
"H: E!!!!!!!!!!!!!!!!!!!!!!!!!!!!!!  AAAAAAAAAABBAAAAKKBBPPAAHHss",
"m5 UYYYYYYYYYYYYYYYYR!!!!!!!!EYYYY -BBBBBBDDBBBBBBDDBBmmnnmmBBss",
"mk.                 I!!!!!!!!Y     xBBBBBBDDBBBBBBDDBBmmnnmmBBss",
"ggy4222222222222222 I!!!!!!!!Y 222rggggggggggggggggggggggggggggg",
"ggggggggggggggg#    I!!!!!!!!Y 2gggggggggggggggggggggggggggggggg",
"mmAABBmmmmssvvd iIIIY!!!!WEEEU wmmAABBmmmmssvvmmmmbbmmmmSSSSBBmm",
"mmAABBmmmmssvv7 Y!!!!!!!!I    .kmmAABBmmmmssvvmmmmbbmmmmSSSSBBmm",
"AAAAAAHHAAssMMq Y!!!!!!!!I >;8cHAAAAAAHHAAssMMJJbbbbbbbbLLPPAAHH",
"AAAAAAHHAAs,==: Y!!!!!!!!I >;8cHAAAAAAHHAAssMMJJbbbbbbbbLLPPAAHH",
"BBAAmmBBBB,     Y!!!!!!!!I    .zBBAAmmBBBBssbbSSCCmmbbBBmmnnmmBB",
"BBAAmmBBBBo EEEEQ!!!!!!!!WEEEU eBBAAmmBBBBssbbSSCCmmbbBBmmnnmmBB",
"gggggggggg  !!!!!!!!!!!!!!!!!Y 2gggggggggggggggggggggggggggggggg",
"gggggggggg  !!!!!!!!!!!!!!!!!Y 222rggggggggggggggggggggggggggggg",
"BBZZNNAABB  !!!!!!!!!!!!!!!!!Y     hNNAABBBBmmmmmmbbmmmmAAAAbbss",
"BBZZNNAABB$ YYYYYYYYYYYYYQ!!!EYYYY %NNAABBBBmmmmmmbbmmmmAAAAbbss",
"GGBBLLAAAAj              E!!!!!!!!  LLAAAAAAAAbbbbbbbbAADDLLGGss",
"GGBBLLAAAAAj99666666669; E!!!!!!!!  LLAAAAAAAAbbbbbbbbAADDLLGGss",
"BBAAVVBBBBBBAAAAbbBBBBB= E!!!!!!!!  VVBBBBBBAAAAbbBBBBBBDDFFbbss",
"BBAAVVBBBBBBAAAAbbBBBBB= E!!!!!!!!  VVBBBBBBAAAAbbBBBBBBDDFFbbss",
"ggggggggggggggggggggggg@ E!!!!!!!!  gggggggggggggggggggggggggggg",
"ggggggggggggggggggggggg@ E!!!!!!!!  gggggggggggggggggggggggggggg",
"BBu3**&&**++6BBBBBBBBBB= E!!!!!!!!  mmbbmmssBBBBBBBBBBBBAACCSSSS",
"Bp           6BBBBBBBBB= E!!!!!!!!  mmbbmmssBBBBBBBBBBBBAACCSSSS",
"A4 TEEEEEEEE #AAAAAAAAA; E!!!!!!!!  mmbbGGssbbAAAAAAAAAAAAKKLLPP",
"A; E!!!!!!!!  AAAAAAAAA; E!!!!!!!!  mmbbGGssbbAAAAAAAAAAAAKKLLPP",
"m* E!!!!!!!!  ffffaaaaa= E!!!!!!!!  BBmmBBssAAAAAABBBBBBDDBBmmnn",
"m* E!!!!!!!!             E!!!!!!!!  BBmmBBssAAAAAABBBBBBDDBBmmnn",
"g, TEEEW!!!!IIIIIIIIIIIIIW!!!QEEEE Ogggggggggggggggggggggggggggg",
"g0     I!!!!!!!!!!!!!!!!!!!!!Y     1gggggggggggggggggggggggggggg",
"PPu3== I!!!!!!!!!!!!!!!!!!!!!Y +>>5mBBBBBBAABBBBBBAACCSSSSBBmmss",
"PPmmBa I!!!!!!!!!!!!!!!!!!!!!Y <PPmmBBBBBBAABBBBBBAACCSSSSBBmmss",
"HHHHAf I!!!!!!!!!!!!!!!!!!!!!Y <HHHHAAAAAAAAAABBAAAAKKBBPPAAHHss",
"HHHHAVX                        0HHHHAAAAAAAAAABBAAAAKKBBPPAAHHss",
"mmPPBBl$                     $0smmPPBBBBBBDDBBBBBBDDBBmmnnmmBBss",
"mmPPBBBBBBDDBBBBBBDDBBmmnnmmBBssmmPPBBBBBBDDBBBBBBDDBBmmnnmmBBss",
"gggggggggggggggggggggggggggggggggggggggggggggggggggggggggggggggg",
"gggggggggggggggggggggggggggggggggggggggggggggggggggggggggggggggg",
"mmAABBmmmmssvvmmmmbbmmmmSSSSBBmmmmAABBmmmmssvvmmmmbbmmmmSSSSBBmm",
"mmAABBmmmmssvvmmmmbbmmmmSSSSBBmmmmAABBmmmmssvvmmmmbbmmmmSSSSBBmm",
"AAAAAAHHAAssMMJJbbbbbbbbLLPPAAHHAAAAAAHHAAssMMJJbbbbbbbbLLPPAAHH",
"AAAAAAHHAAssMMJJbbbbbbbbLLPPAAHHAAAAAAHHAAssMMJJbbbbbbbbLLPPAAHH",
"BBAAmmBBBBssbbSSCCmmbbBBmmnnmmBBBBAAmmBBBBssbbSSCCmmbbBBmmnnmmBB",
"BBAAmmBBBBssbbSSCCmmbbBBmmnnmmBBBBAAmmBBBBssbbSSCCmmbbBBmmnnmmBB",
"gggggggggggggggggggggggggggggggggggggggggggggggggggggggggggggggg",
"gggggggggggggggggggggggggggggggggggggggggggggggggggggggggggggggg"
};
