/* XPM */
static char *result[] = {
/* columns rows colors chars-per-pixel */
"64 64 64 1 ",
"  c black",
". c #001111",
"X c #001313",
"o c #001414",
"O c #001415",
"+ c #001717",
"@ c #001718",
"# c #001818",
"$ c #001819",
"% c #001919",
"& c #001A1A",
"* c #002525",
"= c #002727",
"- c #002828",
"; c #00292A",
": c #002A2B",
"> c #002C2C",
", c #002E2E",
"< c #1F2223",
"1 c #002F30",
"2 c #003031",
"3 c #003233",
"4 c #003535",
"5 c #003838",
"6 c #003C3C",
"7 c #003C3D",
"8 c #003E3F",
"9 c #363B3C",
"0 c #004041",
"q c #004243",
"w c #004343",
"e c #004444",
"r c #004445",
"t c #004546",
"y c #004949",
"u c #00494A",
"i c #005455",
"p c #005556",
"a c #005657",
"s c #005758",
"d c #00595A",
"f c #005A5B",
"g c #005B5B",
"h c #005B5C",
"j c #005C5D",
"k c #005D5E",
"l c #005E60",
"z c #005F60",
"x c #005F61",
"c c #006061",
"v c #006162",
"b c #006263",
"n c #006365",
"m c #006465",
"M c #006566",
"N c #006769",
"B c #006869",
"V c #596162",
"C c #838E90",
"Z c #8F9B9D",
"A c #B1BFC1",
"S c #BBCACC",
"D c #C5D5D7",
"F c #D8E9EC",
/* pixels */
"hhllggzzhhhhddddddaaddddzzzzaawwhhllggzzhhhhddddddaaddddzzzzaaww",
"hhllggzzhhhhddddddaaddddzzzzaawwhhllggzzhhhhddddddaaddddzzzzaaww",
"bbhhNNzzzzzzzzaaaaaaaazzccNNbbwwbbhhNNzzzzzzzzaaaaaaaazzccNNbbww",
"bbhhNNzzzzzzzzaaaaaaaazzccNNbbwwbbhhNNzzzzzzzzaaaaaaaazzccNNbbww",
"hhzzjjhhhhhhzzzzaahhhhhhccvvaawwhhzzjjhhhhhhzzzzaahhhhhhccvvaaww",
"hhzzjjhhhhhhzzzzaahhhhhhccvvaawwhhzzjjhhhhhhzzzzaahhhhhhccvvaaww",
"yyyyyyyyyyyyyyyyyyyyyyyyyyyyyyyyyyyyyyyyyyyyyyyyyyyyyyyyyyyyyyyy",
"yyyyyyyyyyyyyyyyyyyyyyyyyyyyyyyyyyyyyyyyyyyyyyyyyyyyyyyyyyyyyyyy",
"hhddddaaddwwhhhhhhhhhhhhzzkkxxxxhhddddaaddwwhhhhhhhhhhhhzzkkxxxx",
"hhddddaaddwwhhhhhhhhhhhhzzkkxxxxhhddddaaddwwhhhhhhhhhhhhzzkkxxxx",
"zznnddaabbwwaazzzzzzzzzzzzMMNNBBzznnddaabbwwaazzzzzzzzzzzzMMNNBB",
"zznnddaabbwwaazzzzzzzzzzzzMMNNBBzznnddaabbwwaazzzzzzzzzzzzMMNNBB",
"ddhhhhddhhwwzzzzzzhhhhhhcchhddssddhhhhddhhwwzzzzzzhhhhhhcchhddss",
"ddhhhhddhhwwzzzzzzhhhhhhcchhddssddhhhhddhhwwzzzzzzhhhhhhcchhddss",
"yyyyyyyyyyyyyyy5.                 .6yyyyyyyyyyyyyyyyyyyyyyyyyyyy",
"yyyyyyyyyyyyyy5                    .yyyyyyyyyyyyyyyyyyyyyyyyyyyy",
"BBddhhhhhhzzhh2 CFFFFFFFFFFFFFFFFF  hhhhhhzzhhhhhhzzkkxxxxhhddww",
"BBddhhhhhhzzhh2 CFFFFFFFFFFFFFFFFF  hhhhhhzzhhhhhhzzkkxxxxhhddww",
"nnnnzzzzzzzu332 CFFFFFFFFFFFFFFFFF  zzzzzzzzzzhhzzzzMMhhBBzznnww",
"nnnnzzzzzzu     CFFFFFFFFFFFFFFFFF  zzzzzzzzzzhhzzzzMMhhBBzznnww",
"ddBBhhhhhh+ CCCCAFFFDCCCCDFFFFFFFF  hhhhhhcchhhhhhcchhddssddhhww",
"ddBBhhhhhh  FFFFFFFFA    AFFFFFFFF  hhhhhhcchhhhhhcchhddssddhhww",
"yyyyyyye44  FFFFFFFFA XX AFFFFFFFF  yyyyyyyyyyyyyyyyyyyyyyyyyyyy",
"yyyyyy%     FFFFFFFFA XX AFFFFFFFF  yyyyyyyyyyyyyyyyyyyyyyyyyyyy",
"ddzzhp <VVVVFFFFDAAAZ ;@ AFFFFFFFF  hhddddwwiiddddaaddddxxxxhhdd",
"ddzzhq VFFFFFFFFC     8@ AFFFFFFFF  hhddddwwiiddddaaddddxxxxhhdd",
"zzzzzt VFFFFFFFFC ++-7a+ AFFFFFFFF  zznnzzwwffmmaaaaaaaaNNBBzznn",
"zzw>%% VFFFFFFFFC ,aaaa+ AFFFFFFFF  zznnzzwwffmmaaaaaaaaNNBBzznn",
"h0     VFFFFFFFFC 1daah# AFFFFFFFF  ddhhhhwwaaxxkkddaahhddssddhh",
"h: ZAAASFFFFVVVV9 rdaah# AFFFFFFFF  ddhhhhwwaaxxkkddaahhddssddhh",
"yX AFFFFFFFF     oyyyyyX AFFFFFFFF  yyyyyyyyyyyyyyyyyyyyyyyyyyyy",
"yX AFFFFFFFF  =========X AFFFFFFFF  yyyyyyyyyyyyyyyyyyyyyyyyyyyy",
"h# AFFFFFFFF             AFFFFFFFF  ggzzhhhhddddddaaddddzzzzaaww",
"h# AFFFFFFFFCCCCCCCCCCCCCDFFFFFFFF  ggzzhhhhddddddaaddddzzzzaaww",
"b& AFFFFFFFFFFFFFFFFFFFFFFFFFFFFFF  NNzzzzzzzzaaaaaaaazzccNNbbww",
"b& AFFFFFFFFFFFFFFFFFFFFFFFFFFFFFF  NNzzzzzzzzaaaaaaaazzccNNbbww",
"h# AFFFFFFFFFFFFFFFFFFFFFFFFFFFFFF  jjhhhhhhzzzzaahhhhhhccvvaaww",
"h# AFFFFFFFFFFFFFFFFFFFFFFFFFFFFFF  jjhhhhhhzzzzaahhhhhhccvvaaww",
"y*                       AFFFFFFFF  yyyyyyyyyyyyyyyyyyyyyyyyyyyy",
"yy*.                     AFFFFFFFF  yyyyyyyyyyyyyyyyyyyyyyyyyyyy",
"hhddddaaddwwhhhhhhhhhhh# AFFFFFFFF  ddaaddwwhhhhhhhhhhhhzzkkxxxx",
"hhddddaaddwwhhhhhhhhhhh# AFFFFFFFF  ddaaddwwhhhhhhhhhhhhzzkkxxxx",
"zznnddaabbwwaazzzzzzzzz% AFFFFFFFF  ddaabbwwaazzzzzzzzzzzzMMNNBB",
"zznnddaabbwwaazzzzzzzzz% AFFFFFFFF  ddaabbwwaazzzzzzzzzzzzMMNNBB",
"ddhhhhddhhwwzzzzzzhhhhh# AFFFFFFFF  hhddhhwwzzzzzzhhhhhhcchhddss",
"ddhhhhddhhwwzzzzzzhhhhh# AFFFFFFFF  hhddhhwwzzzzzzhhhhhhcchhddss",
"yyyyyyyyyyyyyyyyyyyyyyyX AFFFFFFFF  yyyyyyyyyyyyyyyyyyyyyyyyyyyy",
"yyyyyyyyyyyyyyyyyyyyyyyX AFFFFFFFF  yyyyyyyyyyyyyyyyyyyyyyyyyyyy",
"BBddhhhhhhzzhhhhhhzzkkx% AFFFFFFFF  hhhhhhzzhhhhhhzzkkxxxxhhddww",
"BBddhhhhhhzzhhhhhhzzkkx% AFFFFFFFF  hhhhhhzzhhhhhhzzkkxxxxhhddww",
"nnnnzzzzzzzzzzhhzzzzMMh# AFFFFFFFF  zzzzzzzzzzhhzzzzMMhhBBzznnww",
"nnnnzzzzzzzzzzhhzzzzMMh,           @zzzzzzzzzzhhzzzzMMhhBBzznnww",
"ddBBhhhhhhcchhhhhhcchhdd>O        $ahhhhhhcchhhhhhcchhddssddhhww",
"ddBBhhhhhhcchhhhhhcchhddssddhhwwddBBhhhhhhcchhhhhhcchhddssddhhww",
"yyyyyyyyyyyyyyyyyyyyyyyyyyyyyyyyyyyyyyyyyyyyyyyyyyyyyyyyyyyyyyyy",
"yyyyyyyyyyyyyyyyyyyyyyyyyyyyyyyyyyyyyyyyyyyyyyyyyyyyyyyyyyyyyyyy",
"ddzzhhddddwwiiddddaaddddxxxxhhddddzzhhddddwwiiddddaaddddxxxxhhdd",
"ddzzhhddddwwiiddddaaddddxxxxhhddddzzhhddddwwiiddddaaddddxxxxhhdd",
"zzzzzznnzzwwffmmaaaaaaaaNNBBzznnzzzzzznnzzwwffmmaaaaaaaaNNBBzznn",
"zzzzzznnzzwwffmmaaaaaaaaNNBBzznnzzzzzznnzzwwffmmaaaaaaaaNNBBzznn",
"hhzzddhhhhwwaaxxkkddaahhddssddhhhhzzddhhhhwwaaxxkkddaahhddssddhh",
"hhzzddhhhhwwaaxxkkddaahhddssddhhhhzzddhhhhwwaaxxkkddaahhddssddhh",
"yyyyyyyyyyyyyyyyyyyyyyyyyyyyyyyyyyyyyyyyyyyyyyyyyyyyyyyyyyyyyyyy",
"yyyyyyyyyyyyyyyyyyyyyyyyyyyyyyyyyyyyyyyyyyyyyyyyyyyyyyyyyyyyyyyy"
};
