/* XPM */
static char *result[] = {
/* columns rows colors chars-per-pixel */
"64 64 73 1 ",
"  c black",
". c #000101",
"X c #000A0A",
"o c #000E0E",
"O c #001111",
"+ c #001212",
"@ c #001313",
"# c #001414",
"$ c #001516",
"% c #001617",
"& c #001717",
"* c #001718",
"= c #001818",
"- c #001919",
"; c #001A1B",
": c #001B1C",
"> c #002222",
", c #002323",
"< c #002525",
"1 c #002727",
"2 c #00292A",
"3 c #002C2C",
"4 c #002D2D",
"5 c #002E2E",
"6 c #003030",
"7 c #003131",
"8 c #003233",
"9 c #003333",
"0 c #003535",
"q c #003737",
"w c #003738",
"e c #003838",
"r c #003E3F",
"t c #004041",
"y c #004141",
"u c #004243",
"i c #004343",
"p c #004546",
"a c #004747",
"s c #004949",
"d c #00484A",
"f c #004B4C",
"g c #004C4D",
"h c #005253",
"j c #005354",
"k c #005455",
"l c #005657",
"z c #005758",
"x c #00595A",
"c c #005A5B",
"v c #005B5B",
"b c #005B5C",
"n c #005C5D",
"m c #005D5E",
"M c #005E60",
"N c #005F60",
"B c #005F61",
"V c #006061",
"C c #006162",
"Z c #006263",
"A c #006365",
"S c #006465",
"D c #006566",
"F c #006769",
"G c #006869",
"H c #596162",
"J c #768082",
"K c #838E90",
"L c #8F9B9D",
"P c #B1BFC1",
"I c #BBCACC",
"U c #C5D5D7",
"Y c #D8E9EC",
/* pixels */
"bbMMvvNNbbbbxxxxxxllxxxxNNNNlliibbMMvvNNbbbbxxxxxxllxxxxNNNNllii",
"bbMMvvNNbbbbxxxxxxllxxxxNNNNlliibbMMvvNNbbbbxxxxxxllxxxxNNNNllii",
"ZZbbFFNNNNNNNNllllllllNNVVFFZZiiZZbbFFNNNNNNNNllllllllNNVVFFZZii",
"ZZbbFFNNNNNNNNllllllllNNVVFFZZiiZZbbFFNNNNNNNNllllllllNNVVFFZZii",
"bbNNnnbbbbbbNNNNllbbbbbbVVCClliibbNNnnbbbbbbNNNNllbbbbbbVVCCllii",
"bbNNnnbbbbbbNNNNllbbbbbbVVCClliibbNNnnbbbbbbNNNNllbbbbbbVVCCllii",
"ssssssssssssssssssssssssssssssssssssssssssssssssssssssssssssssss",
"ssssssssssssssssssssssssssssssssssssssssssssssssssssssssssssssss",
"bbxxxxllxxiibbbbbbbbbbbbNNmmBBBBbbxxxxllxxiibbbbbbbbbbbbNNmmBBBB",
"bbxxxxllxxiibbbbbbbbbbbbNNmmBBBBbbxxxxllxxiibbbbbbbbbbbbNNmmBBBB",
"NNAAxxllZZiillNNNNNNNNNNNNDDFFGGNNAAxxllZZiillNNNNNNNNNNNNDDFFGG",
"NNAAxxllZZiillNNNNNNNNNNNNDDFFGGNNAAxxllZZiillNNNNNNNNNNNNDDFFGG",
"xxbbbbxxbbiiNNNNNNbbbbbbVVbbxxzzxxbbbbxxbbiiNNNNNNbbbbbbVVbbxxzz",
"xxbbbbxxbbiiNNNNNNbbbbbbVVbbxxzzxxbbbbxxbbiiNNNNNNbbbbbbVVbbxxzz",
"ss<O                         Oesssssssssssssssssssssssssssssssss",
"s<                             essssssssssssssssssssssssssssssss",
"G: PYYYYYYYYYYYYYYYYYYYYYYYYYK ,GGxxbbbbbbNNbbbbbbNNmmBBBBbbxxii",
"G: PYYYYYYYYYYYYYYYYYYYYYYYYYK ,GGxxbbbbbbNNbbbbbbNNmmBBBBbbxxii",
"A; PYYYYYYYYYYYYYYYYYYYYYYYYYK ,AAAANNNNNNNNNNbbNNNNDDbbGGNNAAii",
"A; PYYYYYYYYYYYYYYYYYYYYYYYYYK ,AAAANNNNNNNNNNbbNNNNDDbbGGNNAAii",
"x* PYYYYYYYYKKKKKKKKKKKKKKKKKH 7xxGGbbbbbbVVbbbbbbVVbbxxzzxxbbii",
"x* PYYYYYYYY                  XyxxGGbbbbbbVVbbbbbbVVbbxxzzxxbbii",
"s@ PYYYYYYYY  1111111111111110asssssssssssssssssssssssssssssssss",
"s@ PYYYYYYYY  ssssssssssssssssssssssssssssssssssssssssssssssssss",
"x* PYYYYYYYY  xxxxllxxxxBBBBbbxxxxNNbbxxxxiikkxxxxllxxxxBBBBbbxx",
"x* PYYYYYYYY  xxxxllxxxxBBBBbbxxxxNNbbxxxxiikkxxxxllxxxxBBBBbbxx",
"N- PYYYYYYYY  SSllllllllFFGGNNAANNNNNNAANNiiccSSllllllllFFGGNNAA",
"N- PYYYYYYYY  ;;&&&&&&&&::::-6jANNNNNNAANNiiccSSllllllllFFGGNNAA",
"b= PYYYYYYYY                  .gbbNNxxbbbbiillBBmmxxllbbxxzzxxbb",
"b= PYYYYYYYYPPPPPPPPPPPPPPPPPJ qbbNNxxbbbbiillBBmmxxllbbxxzzxxbb",
"s@ PYYYYYYYYYYYYYYYYYYYYYYYYYK 1ssssssssssssssssssssssssssssssss",
"s@ PYYYYYYYYYYYYYYYYYYYYYYYYYK 111esssssssssssssssssssssssssssss",
"b= PYYYYYYYYYYYYYYYYYYYYYYYYYK     dvvNNbbbbxxxxxxllxxxxNNNNllii",
"b5 JKKKKKKKKKKKKKKKKKKKKKUYYYPKKKK %vvNNbbbbxxxxxxllxxxxNNNNllii",
"Zh.                      PYYYYYYYY  FFNNNNNNNNllllllllNNVVFFZZii",
"ZZgqww88888888555555558- PYYYYYYYY  FFNNNNNNNNllllllllNNVVFFZZii",
"bbNNnnbbbbbbNNNNllbbbbb= PYYYYYYYY  nnbbbbbbNNNNllbbbbbbVVCCllii",
"bbNNnnbbbbbbNNNNllbbbbb= PYYYYYYYY  nnbbbbbbNNNNllbbbbbbVVCCllii",
"sssssssssssssssssssssss@ PYYYYYYYY  ssssssssssssssssssssssssssss",
"sssssssssssssssssssssss@ PYYYYYYYY  ssssssssssssssssssssssssssss",
"bbr2**&&**++5bbbbbbbbbb= PYYYYYYYY  xxllxxiibbbbbbbbbbbbNNmmBBBB",
"bt           5bbbbbbbbb= PYYYYYYYY  xxllxxiibbbbbbbbbbbbNNmmBBBB",
"N3 LPPPPPPPP #NNNNNNNNN- PYYYYYYYY  xxllZZiillNNNNNNNNNNNNDDFFGG",
"N- PYYYYYYYY  NNNNNNNNN- PYYYYYYYY  xxllZZiillNNNNNNNNNNNNDDFFGG",
"x* PYYYYYYYY  ppppuuuuu= PYYYYYYYY  bbxxbbiiNNNNNNbbbbbbVVbbxxzz",
"x* PYYYYYYYY             PYYYYYYYY  bbxxbbiiNNNNNNbbbbbbVVbbxxzz",
"s> LPPPIYYYYHHHHHHHHHHHHHIYYYUPPPP Ossssssssssssssssssssssssssss",
"s9     HYYYYYYYYYYYYYYYYYYYYYK     <ssssssssssssssssssssssssssss",
"GGr2== HYYYYYYYYYYYYYYYYYYYYYK +::4xbbbbbbNNbbbbbbNNmmBBBBbbxxii",
"GGxxbu HYYYYYYYYYYYYYYYYYYYYYK ,GGxxbbbbbbNNbbbbbbNNmmBBBBbbxxii",
"AAAANp HYYYYYYYYYYYYYYYYYYYYYK ,AAAANNNNNNNNNNbbNNNNDDbbGGNNAAii",
"AAAANno                        9AAAANNNNNNNNNNbbNNNNDDbbGGNNAAii",
"xxGGbbf$                     $9ixxGGbbbbbbVVbbbbbbVVbbxxzzxxbbii",
"xxGGbbbbbbVVbbbbbbVVbbxxzzxxbbiixxGGbbbbbbVVbbbbbbVVbbxxzzxxbbii",
"ssssssssssssssssssssssssssssssssssssssssssssssssssssssssssssssss",
"ssssssssssssssssssssssssssssssssssssssssssssssssssssssssssssssss",
"xxNNbbxxxxiikkxxxxllxxxxBBBBbbxxxxNNbbxxxxiikkxxxxllxxxxBBBBbbxx",
"xxNNbbxxxxiikkxxxxllxxxxBBBBbbxxxxNNbbxxxxiikkxxxxllxxxxBBBBbbxx",
"NNNNNNAANNiiccSSllllllllFFGGNNAANNNNNNAANNiiccSSllllllllFFGGNNAA",
"NNNNNNAANNiiccSSllllllllFFGGNNAANNNNNNAANNiiccSSllllllllFFGGNNAA",
"bbNNxxbbbbiillBBmmxxllbbxxzzxxbbbbNNxxbbbbiillBBmmxxllbbxxzzxxbb",
"bbNNxxbbbbiillBBmmxxllbbxxzzxxbbbbNNxxbbbbiillBBmmxxllbbxxzzxxbb",
"ssssssssssssssssssssssssssssssssssssssssssssssssssssssssssssssss",
"ssssssssssssssssssssssssssssssssssssssssssssssssssssssssssssssss"
};
