/* XPM */
static char *result[] = {
/* columns rows colors chars-per-pixel */
"64 64 73 1 ",
"  c black",
". c #000101",
"X c #000B0B",
"o c #000E0E",
"O c #001111",
"+ c #001212",
"@ c #001313",
"# c #001516",
"$ c #001617",
"% c #001717",
"& c #001718",
"* c #001818",
"= c #001819",
"- c #001919",
"; c #001A1A",
": c #001A1B",
"> c #001B1C",
", c #002222",
"< c #002323",
"1 c #002525",
"2 c #002727",
"3 c #00292A",
"4 c #002D2D",
"5 c #002E2E",
"6 c #003030",
"7 c #003031",
"8 c #003233",
"9 c #003333",
"0 c #003435",
"q c #003737",
"w c #003838",
"e c #003B3D",
"r c #003C3C",
"t c #003E3F",
"y c #004243",
"u c #004343",
"i c #004546",
"p c #004747",
"a c #004949",
"s c #00484A",
"d c #004B4C",
"f c #004C4D",
"g c #004C4E",
"h c #005354",
"j c #005455",
"k c #005657",
"l c #005758",
"z c #00595A",
"x c #005A5B",
"c c #005B5B",
"v c #005B5C",
"b c #005C5D",
"n c #005D5E",
"m c #005E60",
"M c #005F60",
"N c #005F61",
"B c #006061",
"V c #006162",
"C c #006263",
"Z c #006365",
"A c #006465",
"S c #006566",
"D c #006769",
"F c #006869",
"G c #596162",
"H c #768082",
"J c #838E90",
"K c #8F9B9D",
"L c #9BA7AA",
"P c #B1BFC1",
"I c #BBCACC",
"U c #C5D5D7",
"Y c #D8E9EC",
/* pixels */
"vvmmccMMvvvvzzzzzzkkzzzzMMMMkkuuvvmmccMMvvvvzzzzzzkkzzzzMMMMkkuu",
"vvmmccMMvvvvzzzzzzkkzzzzMMMMkkuuvvmmccMMvvvvzzzzzzkkzzzzMMMMkkuu",
"CCvvDDMMMMMMMMkkkkkkkkMMBBDDCCuuCCvvDDMMMMMMMMkkkkkkkkMMBBDDCCuu",
"CCvvDDMMMMMMMMkkkkkkkkMMBBDDCCuuCCvvDDMMMMMMMMkkkkkkkkMMBBDDCCuu",
"vvMMbbvvvvvvMMMMkkvvvvvvBBVVkkuuvvMMbbvvvvvvMMMMkkvvvvvvBBVVkkuu",
"vvMMbbvvvvvvMMMMkkvvvvvvBBVVkkuuvvMMbbvvvvvvMMMMkkvvvvvvBBVVkkuu",
"aaaaaaaaaaaaaaaaaaaaaaaaaaaaaaaaaaaaaaaaaaaaaaaaaaaaaaaaaaaaaaaa",
"aaaaaaaaaaaaaaaaaaaaaaaaaaaaaaaaaaaaaaaaaaaaaaaaaaaaaaaaaaaaaaaa",
"vvzzzzkkzzuuvvvvvvvvvvvvMMnnNNNNvvzzzzkkzzuuvvvvvvvvvvvvMMnnNNNN",
"vvzzzzkkzzuuvvvvvvvvvvvvMMnnNNNNvvzzzzkkzzuuvvvvvvvvvvvvMMnnNNNN",
"MMZZzzkkCCuukkMMMMMMMMMMMMSSDDFFMMZZzzkkCCuukkMMMMMMMMMMMMSSDDFF",
"MMZZzzkkCCuukkMMMMMMMMMMMMSSDDFFMMZZzzkkCCuukkMMMMMMMMMMMMSSDDFF",
"zzvvvvzzvvuuMMMMMMvvvvvvBBvvzzllzzvvvvzzvvuuMMMMMMvvvvvvBBvvzzll",
"zzvvvvzzvvuuMMMMMMvvvvvvBBvvzzllzzvvvvzzvvuuMMMMMMvvvvvvBBvvzzll",
"aaaaaarO                     Owaaaaaaaaaaaaaaaaaaaaaaaaaaaaaaaaa",
"aaaaapX                        waaaaaaaaaaaaaaaaaaaaaaaaaaaaaaaa",
"FFzzvy GYYYYYYYYYYYYYYYYYYYYYJ <FFzzvvvvvvMMvvvvvvMMnnNNNNvvzzuu",
"FFzzvy GYYYYYYYYYYYYYYYYYYYYYJ <FFzzvvvvvvMMvvvvvvMMnnNNNNvvzzuu",
"ZZhe88 GYYYYYYYYYYYYYYYYYYYYYJ <00gZMMMMMMMMMMvvMMMMSSvvFFMMZZuu",
"Zh.    GYYYYYYYYYYYYYYYYYYYYYJ     gMMMMMMMMMMvvMMMMSSvvFFMMZZuu",
"z4 HJJJLYYYYJJJJJJJJJJJJJUYYYPJJJJ =vvvvvvBBvvvvvvBBvvzzllzzvvuu",
"z& PYYYYYYYY             PYYYYYYYY  vvvvvvBBvvvvvvBBvvzzllzzvvuu",
"a@ PYYYYYYYY  222222222@ PYYYYYYYY  aaaaaaaaaaaaaaaaaaaaaaaaaaaa",
"a@ PYYYYYYYY  aaaaaaaaa@ PYYYYYYYY  aaaaaaaaaaaaaaaaaaaaaaaaaaaa",
"z& PYYYYYYYY  zzzzkkzzz3 KPPPPPPPP $vvzzzzuujjzzzzkkzzzzNNNNvvzz",
"z& PYYYYYYYY  zzzzkkzzzt           6vvzzzzuujjzzzzkkzzzzNNNNvvzz",
"M- PYYYYYYYY  AAkkkkkkkks7>>--::--6MMMZZMMuuxxAAkkkkkkkkDDFFMMZZ",
"M- PYYYYYYYY  ::%%%%%%%%>>>>-6hZMMMMMMZZMMuuxxAAkkkkkkkkDDFFMMZZ",
"v* PYYYYYYYY                  .fvvMMzzvvvvuukkNNnnzzkkvvzzllzzvv",
"v* PYYYYYYYYPPPPPPPPPPPPPPPPPH qvvMMzzvvvvuukkNNnnzzkkvvzzllzzvv",
"a@ PYYYYYYYYYYYYYYYYYYYYYYYYYJ 2aaaaaaaaaaaaaaaaaaaaaaaaaaaaaaaa",
"a@ PYYYYYYYYYYYYYYYYYYYYYYYYYJ 222waaaaaaaaaaaaaaaaaaaaaaaaaaaaa",
"v* PYYYYYYYYYYYYYYYYYYYYYYYYYJ     sccMMvvvvzzzzzzkkzzzzMMMMkkuu",
"v* PYYYYYYYYJJJJJJJJJJJJJUYYYPJJJJ $ccMMvvvvzzzzzzkkzzzzMMMMkkuu",
"C; PYYYYYYYY             PYYYYYYYY  DDMMMMMMMMkkkkkkkkMMBBDDCCuu",
"C; PYYYYYYYY  555555558- PYYYYYYYY  DDMMMMMMMMkkkkkkkkMMBBDDCCuu",
"v* PYYYYYYYY  MMkkvvvvv* PYYYYYYYY  bbvvvvvvMMMMkkvvvvvvBBVVkkuu",
"v* PYYYYYYYY  MMkkvvvvv* PYYYYYYYY  bbvvvvvvMMMMkkvvvvvvBBVVkkuu",
"a@ PYYYYYYYY  aaaaaaaaa@ PYYYYYYYY  aaaaaaaaaaaaaaaaaaaaaaaaaaaa",
"a@ PYYYYYYYY  aaaaaaaaa@ PYYYYYYYY  aaaaaaaaaaaaaaaaaaaaaaaaaaaa",
"v* PYYYYYYYY  vvvvvvvvv* PYYYYYYYY  zzkkzzuuvvvvvvvvvvvvMMnnNNNN",
"v* PYYYYYYYY  vvvvvvvvv* PYYYYYYYY  zzkkzzuuvvvvvvvvvvvvMMnnNNNN",
"M- PYYYYYYYY  MMMMMMMMM- PYYYYYYYY  zzkkCCuukkMMMMMMMMMMMMSSDDFF",
"M- PYYYYYYYY  MMMMMMMMM- PYYYYYYYY  zzkkCCuukkMMMMMMMMMMMMSSDDFF",
"z& PYYYYYYYY  iiiiyyyyy* PYYYYYYYY  vvzzvvuuMMMMMMvvvvvvBBvvzzll",
"z& PYYYYYYYY             PYYYYYYYY  vvzzvvuuMMMMMMvvvvvvBBvvzzll",
"a, KPPPIYYYYGGGGGGGGGGGGGIYYYUPPPP Oaaaaaaaaaaaaaaaaaaaaaaaaaaaa",
"a9     GYYYYYYYYYYYYYYYYYYYYYJ     1aaaaaaaaaaaaaaaaaaaaaaaaaaaa",
"FFt3** GYYYYYYYYYYYYYYYYYYYYYJ +>>4zvvvvvvMMvvvvvvMMnnNNNNvvzzuu",
"FFzzvy GYYYYYYYYYYYYYYYYYYYYYJ <FFzzvvvvvvMMvvvvvvMMnnNNNNvvzzuu",
"ZZZZMi GYYYYYYYYYYYYYYYYYYYYYJ <ZZZZMMMMMMMMMMvvMMMMSSvvFFMMZZuu",
"ZZZZMbo                        9ZZZZMMMMMMMMMMvvMMMMSSvvFFMMZZuu",
"zzFFvvd#                     #9uzzFFvvvvvvBBvvvvvvBBvvzzllzzvvuu",
"zzFFvvvvvvBBvvvvvvBBvvzzllzzvvuuzzFFvvvvvvBBvvvvvvBBvvzzllzzvvuu",
"aaaaaaaaaaaaaaaaaaaaaaaaaaaaaaaaaaaaaaaaaaaaaaaaaaaaaaaaaaaaaaaa",
"aaaaaaaaaaaaaaaaaaaaaaaaaaaaaaaaaaaaaaaaaaaaaaaaaaaaaaaaaaaaaaaa",
"zzMMvvzzzzuujjzzzzkkzzzzNNNNvvzzzzMMvvzzzzuujjzzzzkkzzzzNNNNvvzz",
"zzMMvvzzzzuujjzzzzkkzzzzNNNNvvzzzzMMvvzzzzuujjzzzzkkzzzzNNNNvvzz",
"MMMMMMZZMMuuxxAAkkkkkkkkDDFFMMZZMMMMMMZZMMuuxxAAkkkkkkkkDDFFMMZZ",
"MMMMMMZZMMuuxxAAkkkkkkkkDDFFMMZZMMMMMMZZMMuuxxAAkkkkkkkkDDFFMMZZ",
"vvMMzzvvvvuukkNNnnzzkkvvzzllzzvvvvMMzzvvvvuukkNNnnzzkkvvzzllzzvv",
"vvMMzzvvvvuukkNNnnzzkkvvzzllzzvvvvMMzzvvvvuukkNNnnzzkkvvzzllzzvv",
"aaaaaaaaaaaaaaaaaaaaaaaaaaaaaaaaaaaaaaaaaaaaaaaaaaaaaaaaaaaaaaaa",
"aaaaaaaaaaaaaaaaaaaaaaaaaaaaaaaaaaaaaaaaaaaaaaaaaaaaaaaaaaaaaaaa"
};
