/* XPM */
static char *result[] = {
/* columns rows colors chars-per-pixel */
"64 64 74 1 ",
"  c black",
". c #000101",
"X c #001111",
"o c #001212",
"O c #001313",
"+ c #001414",
"@ c #001516",
"# c #001617",
"$ c #001717",
"% c #001718",
"& c #001818",
"* c #001919",
"= c #001A1B",
"- c #001B1C",
"; c #001D1D",
": c #002525",
"> c #002727",
", c #00292A",
"< c #002A2B",
"1 c #002B2C",
"2 c #002C2C",
"3 c #002D2E",
"4 c #002E2E",
"5 c #1F2223",
"6 c #003030",
"7 c #003031",
"8 c #003233",
"9 c #003333",
"0 c #003435",
"q c #003535",
"w c #003838",
"e c #00393A",
"r c #003C3C",
"t c #003E3F",
"y c #003F3F",
"u c #363B3C",
"i c #004343",
"p c #004546",
"a c #004647",
"s c #004949",
"d c #004A4B",
"f c #004F50",
"g c #004F51",
"h c #005051",
"j c #005253",
"k c #005454",
"l c #005455",
"z c #005657",
"x c #005758",
"c c #00595A",
"v c #005A5B",
"b c #005B5B",
"n c #005B5C",
"m c #005C5D",
"M c #005D5E",
"N c #005E60",
"B c #005F60",
"V c #005F61",
"C c #006061",
"Z c #006162",
"A c #006263",
"S c #006365",
"D c #006465",
"F c #006566",
"G c #006769",
"H c #006869",
"J c #596162",
"K c #768082",
"L c #838E90",
"P c #8F9B9D",
"I c #B1BFC1",
"U c #BBCACC",
"Y c #C5D5D7",
"T c #D8E9EC",
/* pixels */
"nnNNbbBBnnnncccccczzccccBBBBzziinnNNbbBBnnnncccccczzccccBBBBzzii",
"nnNNbbBBnnnncccccczzccccBBBBzziinnNNbbBBnnnncccccczzccccBBBBzzii",
"AAnnGGBBBBBBBBzzzzzzzzBBCCGGAAiiAAnnGGBBBBBBBBzzzzzzzzBBCCGGAAii",
"AAnnGGBBBBBBBBzzzzzzzzBBCCGGAAiiAAnnGGBBBBBBBBzzzzzzzzBBCCGGAAii",
"nnBBmmnnnnnnBBBBzznnnnnnCCZZzziinnBBmmnnnnnnBBBBzznnnnnnCCZZzzii",
"nnBBmmnnnnnnBBBBzznnnnnnCCZZzziinnBBmmnnnnnnBBBBzznnnnnnCCZZzzii",
"ssssssssssssssssssssssssssssssssssssssssssssssssssssssssssssssss",
"ssssssssssssssssssssssssssssssssssssssssssssssssssssssssssssssss",
"nncccczzcciinnnnnnnnnnnnBBMMVVVVnncccczzcciinnnnnnnnnnnnBBMMVVVV",
"nncccczzcciinnnnnnnnnnnnBBMMVVVVnncccczzcciinnnnnnnnnnnnBBMMVVVV",
"BBSScczzAAiizzBBBBBBBBBBBBFFGGHHBBSScczzAAiizzBBBBBBBBBBBBFFGGHH",
"BBSScczzAAiizzBBBBBBBBBBBBFFGGHHBBSScczzAAiizzBBBBBBBBBBBBFFGGHH",
"ccnnnnccnniiBBBBBBnnnnnnCCnnccxxccnnnnccnniiBBBBBBnnnnnnCCnnccxx",
"ccnnnnccnniiBBBBBBnnnnnnCCnnccxxccnnnnccnniiBBBBBBnnnnnnCCnnccxx",
"ss:X                              Xrssssssssssssssssssssssssssss",
"s:                                 Xssssssssssssssssssssssssssss",
"H- ITTTTTTTTTTTTTTTTTTTTTTTTTTTTTT  nnnnnnBBnnnnnnBBMMVVVVnnccii",
"H- ITTTTTTTTTTTTTTTTTTTTTTTTTTTTTT  nnnnnnBBnnnnnnBBMMVVVVnnccii",
"S= ITTTTTTTTTTTTTTTTTTTTTTTTTTTTTT  BBBBBBBBBBnnBBBBFFnnHHBBSSii",
"S= ITTTTTTTTTTTTTTTTTTTTTTTTTTTTTT  BBBBBBBBBBnnBBBBFFnnHHBBSSii",
"c% ITTTTTTTTLLLLLLLLLLLLLYTTTTTTTT  nnnnnnCCnnnnnnCCnnccxxccnnii",
"c% ITTTTTTTT             ITTTTTTTT  nnnnnnCCnnnnnnCCnnccxxccnnii",
"sO ITTTTTTTT  >>>>>>>>>O ITTTTTTTT  ssssssssssssssssssssssssssss",
"sO ITTTTTTTT  sssss*     ITTTTTTTT  ssssssssssssssssssssssssssss",
"c, PIIIIIIII +cccch 5JJJJUTTTYIIII #nncccciillcccczzccccVVVVnncc",
"ct           <ccccy JTTTTTTTTL     6nncccciillcccczzccccVVVVnncc",
"BBi2**==**oo3vDDzzy JTTTTTTTTL =**6BBBSSBBiivvDDzzzzzzzzGGHHBBSS",
"BBBBBBSSBBiivvDk1$$ JTTTTTTTTL 0BBBBBBSSBBiivvDDzzzzzzzzGGHHBBSS",
"nnBBccnnnniizzg.    JTTTTTTTTL 7nnBBccnnnniizzVVMMcczznnccxxccnn",
"nnBBccnnnniizze KIIIUTTTTLJJJu annBBccnnnniizzVVMMcczznnccxxccnn",
"ssssssssssssss> LTTTTTTTTJ    +sssssssssssssssssssssssssssssssss",
"sssssssssssw>>> LTTTTTTTTJ qqyssssssssssssssssssssssssssssssssss",
"nnNNbbBBnna     LTTTTTTTTJ pzziinnNNbbBBnnnncccccczzccccBBBBzzii",
"nnNNbbBBnn@ LLLLITTTYLLLLu jzziinnNNbbBBnnnncccccczzccccBBBBzzii",
"AAnnGGBBBB  TTTTTTTTI     ;GAAiiAAnnGGBBBBBBBBzzzzzzzzBBCCGGAAii",
"AAnnGGBBBB  TTTTTTTTI *89dGGAAiiAAnnGGBBBBBBBBzzzzzzzzBBCCGGAAii",
"nnBBmmnnnn  TTTTTTTTI &nCCZZzziinnBBmmnnnnnnBBBBzznnnnnnCCZZzzii",
"nnBBmmnnnn  TTTTTTTTI &nCCZZzziinnBBmmnnnnnnBBBBzznnnnnnCCZZzzii",
"ssssssssss  TTTTTTTTI Osssssssssssssssssssssssssssssssssssssssss",
"ssssssssss  TTTTTTTTI Osssssssssssssssssssssssssssssssssssssssss",
"nncccczzcc  TTTTTTTTI &nBBMMVVVVnncccczzcciinnnnnnnnnnnnBBMMVVVV",
"nncccczzcc  TTTTTTTTI &nBBMMVVVVnncccczzcciinnnnnnnnnnnnBBMMVVVV",
"BBSScczzAA  TTTTTTTTI *BBBFFGGHHBBSScczzAAiizzBBBBBBBBBBBBFFGGHH",
"BBSScczzAA  TTTTTTTTI *BBBFFGGHHBBSScczzAAiizzBBBBBBBBBBBBFFGGHH",
"ccnnnnccnn  TTTTTTTTI &nCCnnccxxccnnnnccnniiBBBBBBnnnnnnCCnnccxx",
"ccnnnnccnn  TTTTTTTTI &nCCnnccxxccnnnnccnniiBBBBBBnnnnnnCCnnccxx",
"ssssssssss  TTTTTTTTI Osssssssssssssssssssssssssssssssssssssssss",
"ssssssssss  TTTTTTTTI Osssssssssssssssssssssssssssssssssssssssss",
"HHccnnnnnn  TTTTTTTTI *VVVnncciiHHccnnnnnnBBnnnnnnBBMMVVVVnnccii",
"HHccnnnnnn  TTTTTTTTI *VVVnncciiHHccnnnnnnBBnnnnnnBBMMVVVVnnccii",
"SSSSBBBBBB  TTTTTTTTI &nHHBBSSiiSSSSBBBBBBBBBBnnBBBBFFnnHHBBSSii",
"SSSSBBBBBB#           4nHHBBSSiiSSSSBBBBBBBBBBnnBBBBFFnnHHBBSSii",
"ccHHnnnnnnf$        @4ccxxccnniiccHHnnnnnnCCnnnnnnCCnnccxxccnnii",
"ccHHnnnnnnCCnnnnnnCCnnccxxccnniiccHHnnnnnnCCnnnnnnCCnnccxxccnnii",
"ssssssssssssssssssssssssssssssssssssssssssssssssssssssssssssssss",
"ssssssssssssssssssssssssssssssssssssssssssssssssssssssssssssssss",
"ccBBnncccciillcccczzccccVVVVnnccccBBnncccciillcccczzccccVVVVnncc",
"ccBBnncccciillcccczzccccVVVVnnccccBBnncccciillcccczzccccVVVVnncc",
"BBBBBBSSBBiivvDDzzzzzzzzGGHHBBSSBBBBBBSSBBiivvDDzzzzzzzzGGHHBBSS",
"BBBBBBSSBBiivvDDzzzzzzzzGGHHBBSSBBBBBBSSBBiivvDDzzzzzzzzGGHHBBSS",
"nnBBccnnnniizzVVMMcczznnccxxccnnnnBBccnnnniizzVVMMcczznnccxxccnn",
"nnBBccnnnniizzVVMMcczznnccxxccnnnnBBccnnnniizzVVMMcczznnccxxccnn",
"ssssssssssssssssssssssssssssssssssssssssssssssssssssssssssssssss",
"ssssssssssssssssssssssssssssssssssssssssssssssssssssssssssssssss"
};
