/* XPM */
static char *result[] = {
/* columns rows colors chars-per-pixel */
"64 64 75 1 ",
"  c black",
". c #000101",
"X c #000B0B",
"o c #000E0E",
"O c #000F0F",
"+ c #001111",
"@ c #001212",
"# c #001313",
"$ c #001516",
"% c #001617",
"& c #001717",
"* c #001718",
"= c #001818",
"- c #001819",
"; c #001919",
": c #001A1A",
"> c #001A1B",
", c #001B1C",
"< c #002222",
"1 c #002323",
"2 c #002525",
"3 c #002727",
"4 c #00292A",
"5 c #002C2C",
"6 c #002D2D",
"7 c #002E2E",
"8 c #003233",
"9 c #003333",
"0 c #003435",
"q c #003838",
"w c #003B3D",
"e c #003C3C",
"r c #003D3D",
"t c #003E3F",
"y c #004243",
"u c #004343",
"i c #004546",
"p c #004747",
"a c #004949",
"s c #00484A",
"d c #004B4C",
"f c #004C4D",
"g c #004C4E",
"h c #005354",
"j c #005455",
"k c #005657",
"l c #005758",
"z c #00595A",
"x c #005A5B",
"c c #005B5B",
"v c #005B5C",
"b c #005C5D",
"n c #005D5E",
"m c #005E60",
"M c #005F60",
"N c #005F61",
"B c #006061",
"V c #006162",
"C c #006263",
"Z c #006365",
"A c #006465",
"S c #006566",
"D c #006769",
"F c #006869",
"G c #494F51",
"H c #596162",
"J c #768082",
"K c #838E90",
"L c #8F9B9D",
"P c #9BA7AA",
"I c #B1BFC1",
"U c #BBCACC",
"Y c #C5D5D7",
"T c #CFDFE2",
"R c #D8E9EC",
/* pixels */
"vvmmccMMvvvvzzzzzzkkzzzzMMMMkkuuvvmmccMMvvvvzzzzzzkkzzzzMMMMkkuu",
"vvmmccMMvvvvzzzzzzkkzzzzMMMMkkuuvvmmccMMvvvvzzzzzzkkzzzzMMMMkkuu",
"CCvvDDMMMMMMMMkkkkkkkkMMBBDDCCuuCCvvDDMMMMMMMMkkkkkkkkMMBBDDCCuu",
"CCvvDDMMMMMMMMkkkkkkkkMMBBDDCCuuCCvvDDMMMMMMMMkkkkkkkkMMBBDDCCuu",
"vvMMbbvvvvvvMMMMkkvvvvvvBBVVkkuuvvMMbbvvvvvvMMMMkkvvvvvvBBVVkkuu",
"vvMMbbvvvvvvMMMMkkvvvvvvBBVVkkuuvvMMbbvvvvvvMMMMkkvvvvvvBBVVkkuu",
"aaaaaaaaaaaaaaaaaaaaaaaaaaaaaaaaaaaaaaaaaaaaaaaaaaaaaaaaaaaaaaaa",
"aaaaaaaaaaaaaaaaaaaaaaaaaaaaaaaaaaaaaaaaaaaaaaaaaaaaaaaaaaaaaaaa",
"vvzzzzkkzzuuvvvvvvvvvvvvMMnnNNNNvvzzzzkkzzuuvvvvvvvvvvvvMMnnNNNN",
"vvzzzzkkzzuuvvvvvvvvvvvvMMnnNNNNvvzzzzkkzzuuvvvvvvvvvvvvMMnnNNNN",
"MMZZzzkkCCuukkMMMMMMMMMMMMSSDDFFMMZZzzkkCCuukkMMMMMMMMMMMMSSDDFF",
"MMZZzzkkCCuukkMMMMMMMMMMMMSSDDFFMMZZzzkkCCuukkMMMMMMMMMMMMSSDDFF",
"zzvvvvzzvvuuMMMMMMvvvvvvBBvvzzllzzvvvvzzvvuuMMMMMMvvvvvvBBvvzzll",
"zzvvvvzzvvuuMMMMMMvvvvvvBBvvzzllzzvvvvzzvvuuMMMMMMvvvvvvBBvvzzll",
"aaaaaae+                     +qaaaaaaaaaaaaaaaaaaaaaaaaaaaaaaaaa",
"aaaaapX                        qaaaaaaaaaaaaaaaaaaaaaaaaaaaaaaaa",
"FFzzvy HRRRRRRRRRRRRRRRRRRRRRK 1FFzzvvvvvvMMvvvvvvMMnnNNNNvvzzuu",
"FFzzvy HRRRRRRRRRRRRRRRRRRRRRK 1FFzzvvvvvvMMvvvvvvMMnnNNNNvvzzuu",
"ZZhw88 HRRRRRRRRRRRRRRRRRRRRRK 100gZMMMMMMMMMMvvMMMMSSvvFFMMZZuu",
"Zh.    HRRRRRRRRRRRRRRRRRRRRRK     gMMMMMMMMMMvvMMMMSSvvFFMMZZuu",
"z6 JKKKPRRRRKKKKKKKKKKKKKYRRRIKKKK -vvvvvvBBvvvvvvBBvvzzllzzvvuu",
"z* IRRRRRRRR             IRRRRRRRR  vvvvvvBBvvvvvvBBvvzzllzzvvuu",
"a# IRRRRRRRR  333333333# IRRRRRRRR  aaaaaaaaaaaaaaaaaaaaaaaaaaaa",
"a# IRRRRRRRR  aaaaaaaaa# IRRRRRRRR  aaaaaaaaaaaaaaaaaaaaaaaaaaaa",
"z* IRRRRRRRR  zzzzkkzzz* IRRRRRRRR  vvzzzzuujjzzzzkkzzzzNNNNvvzz",
"z* IRRRRRRRR  zzzzkkzzz* IRRRRRRRR  vvzzzzuujjzzzzkkzzzzNNNNvvzz",
"M; IRRRRRRRR  AAkkkkkkk& IRRRRRRRR  MMZZMMuuxxAAkkkkkkkkDDFFMMZZ",
"M; IRRRRRRRR  >>&&&&&&&& IRRRRRRRR  MMZZMMuuxxAAkkkkkkkkDDFFMMZZ",
"v= IRRRRRRRR             IRRRRRRRR  zzvvvvuukkNNnnzzkkvvzzllzzvv",
"v7 GHHHKRRRRIIIIIIIIIIIIITRRRPHHHH %zzvvvvuukkNNnnzzkkvvzzllzzvv",
"aaO    HRRRRRRRRRRRRRRRRRRRRRK    Xeaaaaaaaaaaaaaaaaaaaaaaaaaaaa",
"aar533 HRRRRRRRRRRRRRRRRRRRRRK 333qaaaaaaaaaaaaaaaaaaaaaaaaaaaaa",
"vf.    HRRRRRRRRRRRRRRRRRRRRRK     sccMMvvvvzzzzzzkkzzzzMMMMkkuu",
"v7 JKKKPRRRRKKKKKKKKKKKKKYRRRIKKKK %ccMMvvvvzzzzzzkkzzzzMMMMkkuu",
"C: IRRRRRRRR             IRRRRRRRR  DDMMMMMMMMkkkkkkkkMMBBDDCCuu",
"C: IRRRRRRRR  777777778; IRRRRRRRR  DDMMMMMMMMkkkkkkkkMMBBDDCCuu",
"v= IRRRRRRRR  MMkkvvvvv= IRRRRRRRR  bbvvvvvvMMMMkkvvvvvvBBVVkkuu",
"v= IRRRRRRRR  MMkkvvvvv= IRRRRRRRR  bbvvvvvvMMMMkkvvvvvvBBVVkkuu",
"a# IRRRRRRRR  aaaaaaaaa# IRRRRRRRR  aaaaaaaaaaaaaaaaaaaaaaaaaaaa",
"a# IRRRRRRRR  aaaaaaaaa# IRRRRRRRR  aaaaaaaaaaaaaaaaaaaaaaaaaaaa",
"v= IRRRRRRRR  vvvvvvvvv= IRRRRRRRR  zzkkzzuuvvvvvvvvvvvvMMnnNNNN",
"v= IRRRRRRRR  vvvvvvvvv= IRRRRRRRR  zzkkzzuuvvvvvvvvvvvvMMnnNNNN",
"M; IRRRRRRRR  MMMMMMMMM; IRRRRRRRR  zzkkCCuukkMMMMMMMMMMMMSSDDFF",
"M; IRRRRRRRR  MMMMMMMMM; IRRRRRRRR  zzkkCCuukkMMMMMMMMMMMMSSDDFF",
"z* IRRRRRRRR  iiiiyyyyy= IRRRRRRRR  vvzzvvuuMMMMMMvvvvvvBBvvzzll",
"z* IRRRRRRRR             IRRRRRRRR  vvzzvvuuMMMMMMvvvvvvBBvvzzll",
"a< LIIIURRRRHHHHHHHHHHHHHURRRYIIII +aaaaaaaaaaaaaaaaaaaaaaaaaaaa",
"a9     HRRRRRRRRRRRRRRRRRRRRRK     2aaaaaaaaaaaaaaaaaaaaaaaaaaaa",
"FFt4== HRRRRRRRRRRRRRRRRRRRRRK @,,6zvvvvvvMMvvvvvvMMnnNNNNvvzzuu",
"FFzzvy HRRRRRRRRRRRRRRRRRRRRRK 1FFzzvvvvvvMMvvvvvvMMnnNNNNvvzzuu",
"ZZZZMi HRRRRRRRRRRRRRRRRRRRRRK 1ZZZZMMMMMMMMMMvvMMMMSSvvFFMMZZuu",
"ZZZZMbo                        9ZZZZMMMMMMMMMMvvMMMMSSvvFFMMZZuu",
"zzFFvvd$                     $9uzzFFvvvvvvBBvvvvvvBBvvzzllzzvvuu",
"zzFFvvvvvvBBvvvvvvBBvvzzllzzvvuuzzFFvvvvvvBBvvvvvvBBvvzzllzzvvuu",
"aaaaaaaaaaaaaaaaaaaaaaaaaaaaaaaaaaaaaaaaaaaaaaaaaaaaaaaaaaaaaaaa",
"aaaaaaaaaaaaaaaaaaaaaaaaaaaaaaaaaaaaaaaaaaaaaaaaaaaaaaaaaaaaaaaa",
"zzMMvvzzzzuujjzzzzkkzzzzNNNNvvzzzzMMvvzzzzuujjzzzzkkzzzzNNNNvvzz",
"zzMMvvzzzzuujjzzzzkkzzzzNNNNvvzzzzMMvvzzzzuujjzzzzkkzzzzNNNNvvzz",
"MMMMMMZZMMuuxxAAkkkkkkkkDDFFMMZZMMMMMMZZMMuuxxAAkkkkkkkkDDFFMMZZ",
"MMMMMMZZMMuuxxAAkkkkkkkkDDFFMMZZMMMMMMZZMMuuxxAAkkkkkkkkDDFFMMZZ",
"vvMMzzvvvvuukkNNnnzzkkvvzzllzzvvvvMMzzvvvvuukkNNnnzzkkvvzzllzzvv",
"vvMMzzvvvvuukkNNnnzzkkvvzzllzzvvvvMMzzvvvvuukkNNnnzzkkvvzzllzzvv",
"aaaaaaaaaaaaaaaaaaaaaaaaaaaaaaaaaaaaaaaaaaaaaaaaaaaaaaaaaaaaaaaa",
"aaaaaaaaaaaaaaaaaaaaaaaaaaaaaaaaaaaaaaaaaaaaaaaaaaaaaaaaaaaaaaaa"
};
