/* XPM */
static char *result[] = {
/* columns rows colors chars-per-pixel */
"64 64 73 1 ",
"  c black",
". c #000101",
"X c #000B0B",
"o c #000E0E",
"O c #001111",
"+ c #001212",
"@ c #001313",
"# c #001414",
"$ c #001516",
"% c #001717",
"& c #001718",
"* c #001818",
"= c #001819",
"- c #001919",
"; c #001B1C",
": c #002222",
"> c #002323",
", c #002525",
"< c #002727",
"1 c #00292A",
"2 c #002C2C",
"3 c #002D2D",
"4 c #002E2E",
"5 c #003233",
"6 c #003333",
"7 c #003435",
"8 c #003737",
"9 c #003738",
"0 c #003838",
"q c #003B3D",
"w c #003C3C",
"e c #003E3F",
"r c #004041",
"t c #004243",
"y c #004343",
"u c #004344",
"i c #004546",
"p c #004747",
"a c #004949",
"s c #004B4C",
"d c #004C4D",
"f c #004C4E",
"g c #005253",
"h c #005354",
"j c #005455",
"k c #005657",
"l c #005758",
"z c #00595A",
"x c #005A5B",
"c c #005B5B",
"v c #005B5C",
"b c #005C5D",
"n c #005D5E",
"m c #005E60",
"M c #005F60",
"N c #005F61",
"B c #006061",
"V c #006162",
"C c #006263",
"Z c #006365",
"A c #006465",
"S c #006566",
"D c #006769",
"F c #006869",
"G c #596162",
"H c #768082",
"J c #838E90",
"K c #8F9B9D",
"L c #9BA7AA",
"P c #B1BFC1",
"I c #BBCACC",
"U c #C5D5D7",
"Y c #D8E9EC",
/* pixels */
"vvmmccMMvvvvzzzzzzkkzzzzMMMMkkyyvvmmccMMvvvvzzzzzzkkzzzzMMMMkkyy",
"vvmmccMMvvvvzzzzzzkkzzzzMMMMkkyyvvmmccMMvvvvzzzzzzkkzzzzMMMMkkyy",
"CCvvDDMMMMMMMMkkkkkkkkMMBBDDCCyyCCvvDDMMMMMMMMkkkkkkkkMMBBDDCCyy",
"CCvvDDMMMMMMMMkkkkkkkkMMBBDDCCyyCCvvDDMMMMMMMMkkkkkkkkMMBBDDCCyy",
"vvMMbbvvvvvvMMMMkkvvvvvvBBVVkkyyvvMMbbvvvvvvMMMMkkvvvvvvBBVVkkyy",
"vvMMbbvvvvvvMMMMkkvvvvvvBBVVkkyyvvMMbbvvvvvvMMMMkkvvvvvvBBVVkkyy",
"aaaaaaaaaaaaaaaaaaaaaaaaaaaaaaaaaaaaaaaaaaaaaaaaaaaaaaaaaaaaaaaa",
"aaaaaaaaaaaaaaaaaaaaaaaaaaaaaaaaaaaaaaaaaaaaaaaaaaaaaaaaaaaaaaaa",
"vvzzzzkkzzyyvvvvvvvvvvvvMMnnNNNNvvzzzzkkzzyyvvvvvvvvvvvvMMnnNNNN",
"vvzzzzkkzzyyvvvvvvvvvvvvMMnnNNNNvvzzzzkkzzyyvvvvvvvvvvvvMMnnNNNN",
"MMZZzzkkCCyykkMMMMMMMMMMMMSSDDFFMMZZzzkkCCyykkMMMMMMMMMMMMSSDDFF",
"MMZZzzkkCCyykkMMMMMMMMMMMMSSDDFFMMZZzzkkCCyykkMMMMMMMMMMMMSSDDFF",
"zzvvvvzzvvyyMMMMMMvvvvvvBBvvzzllzzvvvvzzvvyyMMMMMMvvvvvvBBvvzzll",
"zzvvvvzzvvyyMMMMMMvvvvvvBBvvzzllzzvvvvzzvvyyMMMMMMvvvvvvBBvvzzll",
"aaaaaawO                     O0aaaaaaaaaaaaaaaaaaaaaaaaaaaaaaaaa",
"aaaaapX                        0aaaaaaaaaaaaaaaaaaaaaaaaaaaaaaaa",
"FFzzvt GYYYYYYYYYYYYYYYYYYYYYJ >FFzzvvvvvvMMvvvvvvMMnnNNNNvvzzyy",
"FFzzvt GYYYYYYYYYYYYYYYYYYYYYJ >FFzzvvvvvvMMvvvvvvMMnnNNNNvvzzyy",
"ZZhq55 GYYYYYYYYYYYYYYYYYYYYYJ >77fZMMMMMMMMMMvvMMMMSSvvFFMMZZyy",
"Zh.    GYYYYYYYYYYYYYYYYYYYYYJ     fMMMMMMMMMMvvMMMMSSvvFFMMZZyy",
"z3 HJJJLYYYYJJJJJJJJJJJJJUYYYPJJJJ =vvvvvvBBvvvvvvBBvvzzllzzvvyy",
"z& PYYYYYYYY             PYYYYYYYY  vvvvvvBBvvvvvvBBvvzzllzzvvyy",
"a@ PYYYYYYYY  <<<<<<<<<@ PYYYYYYYY  aaaaaaaaaaaaaaaaaaaaaaaaaaaa",
"a@ PYYYYYYYY  aaaaaaaaa@ PYYYYYYYY  aaaaaaaaaaaaaaaaaaaaaaaaaaaa",
"z& PYYYYYYYY  zzzzkkzzz& PYYYYYYYY  vvzzzzyyjjzzzzkkzzzzNNNNvvzz",
"z& PYYYYYYYY  zzzzkkzzz& PYYYYYYYY  vvzzzzyyjjzzzzkkzzzzNNNNvvzz",
"M- PYYYYYYYY  AAkkkkkkk% PYYYYYYYY  MMZZMMyyxxAAkkkkkkkkDDFFMMZZ",
"M- PYYYYYYYY  AAkkkkkkk% PYYYYYYYY  MMZZMMyyxxAAkkkkkkkkDDFFMMZZ",
"v* PYYYYYYYY  NNnnzzkkv* PYYYYYYYY  zzvvvvyykkNNnnzzkkvvzzllzzvv",
"v* PYYYYYYYY  NNnnzzkkv* PYYYYYYYY  zzvvvvyykkNNnnzzkkvvzzllzzvv",
"a@ PYYYYYYYY  aaaaaaaaa@ PYYYYYYYY  aaaaaaaaaaaaaaaaaaaaaaaaaaaa",
"a@ PYYYYYYYY  <<<<<<<<<@ PYYYYYYYY  aaaaaaaaaaaaaaaaaaaaaaaaaaaa",
"v* PYYYYYYYY             PYYYYYYYY  ccMMvvvvzzzzzzkkzzzzMMMMkkyy",
"v4 HJJJLYYYYJJJJJJJJJJJJJUYYYYYYYY  ccMMvvvvzzzzzzkkzzzzMMMMkkyy",
"Cg.    GYYYYYYYYYYYYYYYYYYYYYYYYYY  DDMMMMMMMMkkkkkkkkMMBBDDCCyy",
"CCd899 GYYYYYYYYYYYYYYYYYYYYYYYYYY  DDMMMMMMMMkkkkkkkkMMBBDDCCyy",
"vvMMbu GYYYYYYYYYYYYYYYYYYYYYYYYYY  bbvvvvvvMMMMkkvvvvvvBBVVkkyy",
"vvMMbu GYYYYYYYYYYYYYYYYYYYYYYYYYY  bbvvvvvvMMMMkkvvvvvvBBVVkkyy",
"aaaaapX                  PYYYYYYYY  aaaaaaaaaaaaaaaaaaaaaaaaaaaa",
"aaaaaawO                 PYYYYYYYY  aaaaaaaaaaaaaaaaaaaaaaaaaaaa",
"vve1&&%%&&++4vvvvvvvvvv* PYYYYYYYY  zzkkzzyyvvvvvvvvvvvvMMnnNNNN",
"vr           4vvvvvvvvv* PYYYYYYYY  zzkkzzyyvvvvvvvvvvvvMMnnNNNN",
"M2 KPPPPPPPP #MMMMMMMMM- PYYYYYYYY  zzkkCCyykkMMMMMMMMMMMMSSDDFF",
"M- PYYYYYYYY  MMMMMMMMM- PYYYYYYYY  zzkkCCyykkMMMMMMMMMMMMSSDDFF",
"z& PYYYYYYYY  iiiittttt* PYYYYYYYY  vvzzvvyyMMMMMMvvvvvvBBvvzzll",
"z& PYYYYYYYY             PYYYYYYYY  vvzzvvyyMMMMMMvvvvvvBBvvzzll",
"a: KPPPIYYYYGGGGGGGGGGGGGIYYYUPPPP Oaaaaaaaaaaaaaaaaaaaaaaaaaaaa",
"a6     GYYYYYYYYYYYYYYYYYYYYYJ     ,aaaaaaaaaaaaaaaaaaaaaaaaaaaa",
"FFe1** GYYYYYYYYYYYYYYYYYYYYYJ +;;3zvvvvvvMMvvvvvvMMnnNNNNvvzzyy",
"FFzzvt GYYYYYYYYYYYYYYYYYYYYYJ >FFzzvvvvvvMMvvvvvvMMnnNNNNvvzzyy",
"ZZZZMi GYYYYYYYYYYYYYYYYYYYYYJ >ZZZZMMMMMMMMMMvvMMMMSSvvFFMMZZyy",
"ZZZZMbo                        6ZZZZMMMMMMMMMMvvMMMMSSvvFFMMZZyy",
"zzFFvvs$                     $6yzzFFvvvvvvBBvvvvvvBBvvzzllzzvvyy",
"zzFFvvvvvvBBvvvvvvBBvvzzllzzvvyyzzFFvvvvvvBBvvvvvvBBvvzzllzzvvyy",
"aaaaaaaaaaaaaaaaaaaaaaaaaaaaaaaaaaaaaaaaaaaaaaaaaaaaaaaaaaaaaaaa",
"aaaaaaaaaaaaaaaaaaaaaaaaaaaaaaaaaaaaaaaaaaaaaaaaaaaaaaaaaaaaaaaa",
"zzMMvvzzzzyyjjzzzzkkzzzzNNNNvvzzzzMMvvzzzzyyjjzzzzkkzzzzNNNNvvzz",
"zzMMvvzzzzyyjjzzzzkkzzzzNNNNvvzzzzMMvvzzzzyyjjzzzzkkzzzzNNNNvvzz",
"MMMMMMZZMMyyxxAAkkkkkkkkDDFFMMZZMMMMMMZZMMyyxxAAkkkkkkkkDDFFMMZZ",
"MMMMMMZZMMyyxxAAkkkkkkkkDDFFMMZZMMMMMMZZMMyyxxAAkkkkkkkkDDFFMMZZ",
"vvMMzzvvvvyykkNNnnzzkkvvzzllzzvvvvMMzzvvvvyykkNNnnzzkkvvzzllzzvv",
"vvMMzzvvvvyykkNNnnzzkkvvzzllzzvvvvMMzzvvvvyykkNNnnzzkkvvzzllzzvv",
"aaaaaaaaaaaaaaaaaaaaaaaaaaaaaaaaaaaaaaaaaaaaaaaaaaaaaaaaaaaaaaaa",
"aaaaaaaaaaaaaaaaaaaaaaaaaaaaaaaaaaaaaaaaaaaaaaaaaaaaaaaaaaaaaaaa"
};
